<svg width="96" height="97" viewBox="0 0 96 97" fill="none" xmlns="http://www.w3.org/2000/svg">
<rect x="0.0683594" y="0.862183" width="95.2396" height="95.2396" rx="20.3547" fill="#5E1B0C"/>
<g clip-path="url(#clip0_1106_10980)">
<path d="M34.6719 60.3517C34.6719 52.1439 41.3256 45.4902 49.5333 45.4902H60.6228C68.8305 45.4902 75.4842 52.1439 75.4842 60.3517V74.4247C75.4842 76.4767 73.8208 78.1401 71.7688 78.1401H38.3872C36.3353 78.1401 34.6719 76.4767 34.6719 74.4247V60.3517Z" fill="#F8F7F2"/>
<ellipse cx="55.0718" cy="38.6499" rx="12.2437" ry="12.2437" fill="#FE6533"/>
<path d="M55.1044 22.4082C61.7229 22.4082 67.2901 26.9095 68.9116 33.0178C69.438 35.001 67.7252 36.6925 65.6733 36.6925L44.5354 36.6925C42.4835 36.6925 40.7707 35.001 41.2972 33.0178C42.9186 26.9095 48.4858 22.4082 55.1044 22.4082Z" fill="#F8F7F2"/>
<rect x="35.3535" y="31.1348" width="19.7446" height="5.5539" rx="2.77695" fill="#F8F7F2"/>
<rect x="19.748" y="55.8496" width="37.1536" height="22.2921" rx="3.71536" fill="#FE6533"/>
</g>
<defs>
<clipPath id="clip0_1106_10980">
<rect width="59.4457" height="59.4457" fill="white" transform="translate(17.8984 18.6963)"/>
</clipPath>
</defs>
</svg>
