<svg width="97" height="97" viewBox="0 0 97 97" fill="none" xmlns="http://www.w3.org/2000/svg">
<rect x="0.828125" y="0.862183" width="95.2396" height="95.2396" rx="20.3547" fill="#5E1B0C"/>
<g clip-path="url(#clip0_1106_10971)">
<rect x="20.9199" y="55.7617" width="54.6157" height="22.2492" rx="3.71536" fill="#F8F7F2"/>
<path d="M29.8145 35.1145L42.8846 35.1145" stroke="#FE6533" stroke-width="7.43071" stroke-linecap="round"/>
<path d="M66.1002 32.3326L55.7175 21.9345C53.3778 19.5913 49.373 21.2484 49.373 24.5597V45.5507C49.373 48.8787 53.4122 50.5281 55.7417 48.1514L66.1245 37.5586C67.5499 36.1043 67.5391 33.7736 66.1002 32.3326Z" fill="#F8F7F2"/>
<path d="M57.3209 32.3326L46.9382 21.9345C44.5985 19.5913 40.5938 21.2484 40.5938 24.5597V45.5507C40.5938 48.8787 44.6329 50.5281 46.9624 48.1514L57.3452 37.5586C58.7706 36.1043 58.7598 33.7736 57.3209 32.3326Z" fill="#FE6533"/>
</g>
<defs>
<clipPath id="clip0_1106_10971">
<rect width="59.4457" height="59.4457" fill="white" transform="translate(18.6621 18.6963)"/>
</clipPath>
</defs>
</svg>
