<svg width="96" height="97" viewBox="0 0 96 97" fill="none" xmlns="http://www.w3.org/2000/svg">
<rect x="0.0253906" y="0.862183" width="95.2396" height="95.2396" rx="20.3547" fill="#5E1B0C"/>
<path d="M49.8196 25.7841H79.061C82.1456 25.7841 83.6969 29.5076 81.5247 31.6977L49.3739 64.1134C48.0079 65.4907 45.778 65.4807 44.4245 64.0911L30.1582 49.4451C28.8493 48.1014 28.8452 45.9609 30.1488 44.6122L47.3246 26.8425C47.9784 26.166 48.8789 25.7841 49.8196 25.7841Z" fill="#FE6533"/>
<path d="M43.0182 25.7841H16.1019C13.0832 25.7841 11.5041 29.372 13.5431 31.5979L47.0982 68.2298C48.433 69.687 50.7134 69.7369 52.1107 68.3396L66.2888 54.1615C67.6079 52.8425 67.6481 50.7166 66.3798 49.3487L45.5629 26.8949C44.9062 26.1866 43.9841 25.7841 43.0182 25.7841Z" fill="#F8F7F2"/>
<path d="M40.3584 34.0815L46.397 27.7362L52.379 34.1349L46.3217 39.9956C44.6782 41.5858 42.0647 41.5689 40.4418 39.9578C38.8202 38.3478 38.7831 35.7368 40.3584 34.0815Z" fill="#FE6533"/>
<rect x="24.8066" y="49.8407" width="8.25598" height="28.9304" rx="4.12799" transform="rotate(-42.8643 24.8066 49.8407)" fill="#FE6533"/>
</svg>
