<svg width="22" height="21" viewBox="0 0 22 21" fill="none" xmlns="http://www.w3.org/2000/svg">
<path d="M11 20.2285C10.2 19.5952 9.33333 19.1035 8.4 18.7535C7.46667 18.4035 6.5 18.2285 5.5 18.2285C4.8 18.2285 4.1125 18.3202 3.4375 18.5035C2.7625 18.6868 2.11667 18.9452 1.5 19.2785C1.15 19.4618 0.8125 19.4535 0.4875 19.2535C0.1625 19.0535 0 18.7618 0 18.3785V6.32852C0 6.14518 0.0458333 5.97018 0.1375 5.80352C0.229167 5.63685 0.366667 5.51185 0.55 5.42852C1.31667 5.02852 2.11667 4.72852 2.95 4.52852C3.78333 4.32852 4.63333 4.22852 5.5 4.22852C6.46667 4.22852 7.4125 4.35352 8.3375 4.60352C9.2625 4.85352 10.15 5.22852 11 5.72852V17.8285C11.85 17.2952 12.7417 16.8952 13.675 16.6285C14.6083 16.3618 15.55 16.2285 16.5 16.2285C17.1 16.2285 17.6875 16.2785 18.2625 16.3785C18.8375 16.4785 19.4167 16.6285 20 16.8285V4.82852C20.25 4.91185 20.4958 4.99935 20.7375 5.09102C20.9792 5.18268 21.2167 5.29518 21.45 5.42852C21.6333 5.51185 21.7708 5.63685 21.8625 5.80352C21.9542 5.97018 22 6.14518 22 6.32852V18.3785C22 18.7618 21.8375 19.0535 21.5125 19.2535C21.1875 19.4535 20.85 19.4618 20.5 19.2785C19.8833 18.9452 19.2375 18.6868 18.5625 18.5035C17.8875 18.3202 17.2 18.2285 16.5 18.2285C15.5 18.2285 14.5333 18.4035 13.6 18.7535C12.6667 19.1035 11.8 19.5952 11 20.2285ZM13 15.2285V5.72852L18 0.728516V10.7285L13 15.2285Z" fill="#7A1600"/>
</svg>
