<svg width="19" height="19" viewBox="0 0 19 19" fill="none" xmlns="http://www.w3.org/2000/svg">
<path d="M2.88281 18.2285C2.33281 18.2285 1.86198 18.0327 1.47031 17.641C1.07865 17.2493 0.882812 16.7785 0.882812 16.2285V2.22852C0.882812 1.67852 1.07865 1.20768 1.47031 0.816016C1.86198 0.424349 2.33281 0.228516 2.88281 0.228516H16.8828C17.4328 0.228516 17.9036 0.424349 18.2953 0.816016C18.687 1.20768 18.8828 1.67852 18.8828 2.22852V16.2285C18.8828 16.7785 18.687 17.2493 18.2953 17.641C17.9036 18.0327 17.4328 18.2285 16.8828 18.2285H2.88281ZM16.8828 4.47852L10.8328 11.2785L6.88281 7.32852L2.88281 11.3285V14.1785L6.88281 10.1785L10.9328 14.2285L16.8828 7.47852V4.47852Z" fill="#7A1600"/>
</svg>
