<svg width="1554" height="1354" viewBox="0 0 1554 1354" fill="none" xmlns="http://www.w3.org/2000/svg">
<path d="M800.73 658.136C799.378 656.783 797.773 655.71 796.006 654.978C794.239 654.246 792.345 653.869 790.433 653.869C788.52 653.869 786.627 654.246 784.86 654.978C783.093 655.71 781.488 656.783 780.136 658.136V658.136C778.586 659.685 776.073 659.685 774.524 658.136V658.136C771.793 655.405 768.089 653.871 764.227 653.871C760.364 653.871 756.66 655.405 753.929 658.136C751.198 660.867 749.664 664.571 749.664 668.433C749.664 672.295 751.198 675.999 753.929 678.73L756.735 681.536L770.259 695.06C774.164 698.965 780.496 698.965 784.401 695.06L797.924 681.536L800.73 678.73C802.083 677.378 803.156 675.773 803.888 674.006C804.62 672.239 804.997 670.346 804.997 668.433C804.997 666.521 804.62 664.627 803.888 662.86C803.156 661.093 802.083 659.488 800.73 658.136Z" fill="white" fill-opacity="0.1" stroke="white" stroke-width="4" stroke-linecap="round" stroke-linejoin="round"/>
<path d="M851.743 614.83C847.444 610.528 842.339 607.116 836.72 604.788C831.101 602.46 825.079 601.262 818.997 601.262C812.915 601.262 806.893 602.46 801.274 604.788C795.656 607.116 790.551 610.528 786.251 614.83L784.399 616.682C780.494 620.587 774.162 620.587 770.257 616.682L768.405 614.83C759.72 606.145 747.941 601.266 735.659 601.266C723.377 601.266 711.598 606.145 702.913 614.83C694.229 623.515 689.35 635.294 689.35 647.576C689.35 659.858 694.229 671.637 702.913 680.322L711.836 689.245L770.257 747.666C774.162 751.571 780.494 751.571 784.399 747.666L842.82 689.245L851.743 680.322C856.045 676.022 859.457 670.917 861.785 665.299C864.113 659.68 865.311 653.658 865.311 647.576C865.311 641.494 864.113 635.472 861.785 629.853C859.457 624.234 856.045 619.13 851.743 614.83Z" stroke="white" stroke-width="4" stroke-linecap="round" stroke-linejoin="round"/>
<path d="M900.504 573.434C893.387 566.314 884.936 560.666 875.636 556.812C866.335 552.958 856.366 550.975 846.299 550.975C836.231 550.975 826.263 552.958 816.962 556.812C807.661 560.666 799.211 566.314 792.094 573.434L784.395 581.134C780.49 585.039 774.158 585.039 770.253 581.134L762.553 573.434C748.177 559.058 728.679 550.982 708.348 550.982C688.018 550.982 668.52 559.058 654.144 573.434C639.768 587.81 631.691 607.308 631.691 627.639C631.691 647.97 639.768 667.468 654.144 681.844L668.914 696.614L770.253 797.953C774.158 801.858 780.49 801.858 784.395 797.953L885.733 696.614L900.504 681.844C907.624 674.727 913.272 666.277 917.126 656.976C920.98 647.675 922.963 637.707 922.963 627.639C922.963 617.572 920.98 607.603 917.126 598.302C913.272 589.002 907.624 580.551 900.504 573.434Z" stroke="white" stroke-width="4" stroke-linecap="round" stroke-linejoin="round"/>
<path d="M954.903 527.252C944.642 516.987 932.46 508.844 919.052 503.288C905.643 497.733 891.272 494.873 876.758 494.873C862.244 494.873 847.873 497.733 834.464 503.288C821.056 508.844 808.874 516.987 798.613 527.252L784.39 541.475C780.485 545.381 774.153 545.381 770.248 541.475L756.025 527.252C735.3 506.527 707.191 494.884 677.881 494.884C648.571 494.884 620.461 506.527 599.736 527.252C579.011 547.978 567.367 576.087 567.367 605.397C567.367 634.707 579.011 662.817 599.736 683.542L621.03 704.836L770.248 854.054C774.153 857.96 780.485 857.96 784.39 854.054L933.609 704.836L954.903 683.542C965.168 673.282 973.311 661.099 978.867 647.691C984.423 634.283 987.282 619.911 987.282 605.397C987.282 590.883 984.423 576.512 978.867 563.103C973.311 549.695 965.168 537.513 954.903 527.252Z" stroke="white" stroke-width="4" stroke-linecap="round" stroke-linejoin="round"/>
<path d="M1034.7 459.513C1019.83 444.635 1002.18 432.833 982.743 424.781C963.31 416.729 942.48 412.584 921.445 412.584C900.409 412.584 879.579 416.729 860.146 424.781C840.712 432.833 823.056 444.635 808.185 459.513L784.393 483.305C780.488 487.21 774.156 487.21 770.251 483.305L746.459 459.513C716.421 429.475 675.68 412.6 633.199 412.6C590.718 412.6 549.978 429.475 519.939 459.513C489.901 489.552 473.025 530.293 473.025 572.773C473.025 615.254 489.901 655.995 519.939 686.033L550.802 716.896L770.251 936.345C774.156 940.25 780.488 940.25 784.393 936.345L1003.84 716.896L1034.7 686.033C1049.58 671.162 1061.38 653.506 1069.44 634.072C1077.49 614.639 1081.63 593.809 1081.63 572.773C1081.63 551.738 1077.49 530.908 1069.44 511.475C1061.38 492.041 1049.58 474.384 1034.7 459.513Z" stroke="white" stroke-width="4" stroke-linecap="round" stroke-linejoin="round"/>
<path d="M1149.4 362.143C1127.9 340.634 1102.38 323.572 1074.28 311.931C1046.19 300.29 1016.08 294.299 985.666 294.299C955.255 294.299 925.143 300.29 897.049 311.931C868.955 323.572 843.429 340.634 821.931 362.143L784.385 399.688C780.48 403.593 774.148 403.593 770.243 399.688L732.697 362.143C689.272 318.717 630.375 294.321 568.962 294.321C507.55 294.321 448.653 318.717 405.227 362.143C361.802 405.568 337.406 464.465 337.406 525.877C337.406 587.29 361.802 646.187 405.227 689.612L449.844 734.229L770.243 1054.63C774.148 1058.53 780.48 1058.53 784.385 1054.63L1104.78 734.229L1149.4 689.612C1170.91 668.114 1187.97 642.589 1199.61 614.494C1211.25 586.4 1217.24 556.288 1217.24 525.877C1217.24 495.467 1211.25 465.355 1199.61 437.26C1187.97 409.166 1170.91 383.641 1149.4 362.143Z" stroke="white" stroke-width="4" stroke-linecap="round" stroke-linejoin="round"/>
<path d="M1292.4 240.755C1262.64 210.981 1227.3 187.361 1188.41 171.247C1149.52 155.132 1107.83 146.838 1065.74 146.838C1023.64 146.838 981.954 155.132 943.063 171.247C904.172 187.361 868.837 210.981 839.076 240.755L784.384 295.448C780.479 299.353 774.147 299.353 770.242 295.448L715.549 240.755C655.435 180.641 573.903 146.869 488.888 146.869C403.874 146.869 322.342 180.641 262.228 240.755C202.114 300.869 168.342 382.401 168.342 467.416C168.342 552.43 202.114 633.962 262.228 694.076L323.991 755.84L770.242 1202.09C774.147 1206 780.479 1206 784.384 1202.09L1230.63 755.84L1292.4 694.076C1322.17 664.316 1345.79 628.981 1361.91 590.09C1378.02 551.198 1386.31 509.513 1386.31 467.416C1386.31 425.318 1378.02 383.633 1361.91 344.742C1345.79 305.851 1322.17 270.515 1292.4 240.755Z" stroke="white" stroke-width="4" stroke-linecap="round" stroke-linejoin="round"/>
<path d="M1432.51 121.816C1394.65 83.9423 1349.7 53.8982 1300.23 33.4001C1250.76 12.902 1197.74 2.35156 1144.19 2.35156C1090.64 2.35156 1037.62 12.902 988.146 33.4001C938.676 53.8982 893.729 83.9423 855.873 121.816L784.38 193.309C780.474 197.215 774.143 197.215 770.237 193.309L698.744 121.816C622.278 45.3496 518.567 2.3912 410.427 2.3912C302.287 2.3912 198.577 45.3496 122.11 121.816C45.6439 198.282 2.68555 301.993 2.68555 410.133C2.68555 518.273 45.6439 621.983 122.11 698.45L200.675 777.014L770.237 1346.58C774.143 1350.48 780.474 1350.48 784.38 1346.58L1353.94 777.014L1432.51 698.45C1470.38 660.594 1500.42 615.647 1520.92 566.176C1541.42 516.706 1551.97 463.682 1551.97 410.133C1551.97 356.584 1541.42 303.56 1520.92 254.089C1500.42 204.619 1470.38 159.672 1432.51 121.816Z" stroke="white" stroke-width="4" stroke-linecap="round" stroke-linejoin="round"/>
</svg>
