<svg width="24" height="25" viewBox="0 0 24 25" fill="none" xmlns="http://www.w3.org/2000/svg">
<g clip-path="url(#clip0_939_5861)">
<path d="M0.0136719 8.44453C0.0136719 5.59708 0.0136719 4.17335 0.576605 3.08966C1.05098 2.17644 1.79558 1.43184 2.7088 0.957464C3.79249 0.394531 5.21622 0.394531 8.06367 0.394531H15.9637C18.8111 0.394531 20.2349 0.394531 21.3185 0.957464C22.2318 1.43184 22.9764 2.17644 23.4507 3.08966C24.0137 4.17335 24.0137 5.59708 24.0137 8.44453V16.3445C24.0137 19.192 24.0137 20.6157 23.4507 21.6994C22.9764 22.6126 22.2318 23.3572 21.3185 23.8316C20.2349 24.3945 18.8111 24.3945 15.9637 24.3945H8.06367C5.21622 24.3945 3.79249 24.3945 2.7088 23.8316C1.79558 23.3572 1.05098 22.6126 0.576605 21.6994C0.0136719 20.6157 0.0136719 19.192 0.0136719 16.3445V8.44453Z" fill="url(#paint0_radial_939_5861)"/>
<path d="M0.0136719 8.44453C0.0136719 5.59708 0.0136719 4.17335 0.576605 3.08966C1.05098 2.17644 1.79558 1.43184 2.7088 0.957464C3.79249 0.394531 5.21622 0.394531 8.06367 0.394531H15.9637C18.8111 0.394531 20.2349 0.394531 21.3185 0.957464C22.2318 1.43184 22.9764 2.17644 23.4507 3.08966C24.0137 4.17335 24.0137 5.59708 24.0137 8.44453V16.3445C24.0137 19.192 24.0137 20.6157 23.4507 21.6994C22.9764 22.6126 22.2318 23.3572 21.3185 23.8316C20.2349 24.3945 18.8111 24.3945 15.9637 24.3945H8.06367C5.21622 24.3945 3.79249 24.3945 2.7088 23.8316C1.79558 23.3572 1.05098 22.6126 0.576605 21.6994C0.0136719 20.6157 0.0136719 19.192 0.0136719 16.3445V8.44453Z" fill="url(#paint1_radial_939_5861)"/>
<path d="M12.0012 3.66797C9.63106 3.66797 9.33362 3.67833 8.40274 3.7207C7.47367 3.76324 6.83951 3.91033 6.28462 4.12615C5.71064 4.34906 5.22374 4.64724 4.73867 5.13251C4.25323 5.61761 3.95505 6.10451 3.73142 6.67833C3.51507 7.23342 3.3678 7.86779 3.32598 8.79651C3.28435 9.72742 3.27344 10.0251 3.27344 12.3952C3.27344 14.7654 3.28398 15.062 3.32616 15.9929C3.36889 16.922 3.51598 17.5561 3.73161 18.1111C3.95469 18.6851 4.25286 19.172 4.73812 19.6571C5.22301 20.1425 5.70991 20.4414 6.28353 20.6643C6.83878 20.8801 7.47313 21.0272 8.40201 21.0698C9.33289 21.1122 9.63015 21.1225 12.0001 21.1225C14.3704 21.1225 14.6669 21.1122 15.5978 21.0698C16.5269 21.0272 17.1617 20.8801 17.717 20.6643C18.2908 20.4414 18.777 20.1425 19.2619 19.6571C19.7473 19.172 20.0455 18.6851 20.2691 18.1112C20.4836 17.5562 20.6309 16.9218 20.6745 15.9931C20.7164 15.0622 20.7273 14.7654 20.7273 12.3952C20.7273 10.0251 20.7164 9.7276 20.6745 8.7967C20.6309 7.8676 20.4836 7.23342 20.2691 6.67851C20.0455 6.10451 19.7473 5.61761 19.2619 5.13251C18.7764 4.64706 18.291 4.34888 17.7165 4.12615C17.1601 3.91033 16.5256 3.76324 15.5965 3.7207C14.6656 3.67833 14.3693 3.66797 11.9984 3.66797H12.0012ZM11.2183 5.2407C11.4506 5.24033 11.7099 5.2407 12.0012 5.2407C14.3313 5.2407 14.6075 5.24906 15.5276 5.29088C16.3785 5.32979 16.8403 5.47197 17.1479 5.59142C17.5552 5.74961 17.8455 5.9387 18.1508 6.24415C18.4563 6.5496 18.6453 6.84051 18.8039 7.24779C18.9233 7.55506 19.0657 8.01688 19.1044 8.86779C19.1462 9.78779 19.1553 10.0641 19.1553 12.3932C19.1553 14.7223 19.1462 14.9987 19.1044 15.9187C19.0655 16.7696 18.9233 17.2314 18.8039 17.5387C18.6457 17.946 18.4563 18.236 18.1508 18.5412C17.8454 18.8467 17.5554 19.0358 17.1479 19.194C16.8407 19.314 16.3785 19.4558 15.5276 19.4947C14.6076 19.5365 14.3313 19.5456 12.0012 19.5456C9.67088 19.5456 9.39471 19.5365 8.47473 19.4947C7.62385 19.4554 7.16205 19.3132 6.85424 19.1938C6.44698 19.0356 6.15608 18.8465 5.85063 18.5411C5.54519 18.2356 5.3561 17.9454 5.19756 17.538C5.07811 17.2307 4.93575 16.7689 4.89702 15.918C4.85521 14.998 4.84684 14.7216 4.84684 12.3911C4.84684 10.0605 4.85521 9.7856 4.89702 8.86561C4.93593 8.0147 5.07811 7.55288 5.19756 7.24524C5.35574 6.83797 5.54519 6.54706 5.85063 6.2416C6.15608 5.93615 6.44698 5.74706 6.85424 5.58851C7.16186 5.46851 7.62385 5.3267 8.47473 5.28761C9.2798 5.25124 9.59179 5.24033 11.2183 5.23851V5.2407ZM16.6596 6.68979C16.0814 6.68979 15.6123 7.15833 15.6123 7.7367C15.6123 8.31488 16.0814 8.78397 16.6596 8.78397C17.2377 8.78397 17.7068 8.31488 17.7068 7.7367C17.7068 7.15851 17.2377 6.68942 16.6596 6.68942V6.68979ZM12.0012 7.91342C9.52616 7.91342 7.51949 9.92015 7.51949 12.3952C7.51949 14.8703 9.52616 16.8761 12.0012 16.8761C14.4762 16.8761 16.4821 14.8703 16.4821 12.3952C16.4821 9.92015 14.476 7.91342 12.001 7.91342H12.0012ZM12.0012 9.48615C13.6077 9.48615 14.9102 10.7885 14.9102 12.3952C14.9102 14.0018 13.6077 15.3043 12.0012 15.3043C10.3945 15.3043 9.09217 14.0018 9.09217 12.3952C9.09217 10.7885 10.3945 9.48615 12.0012 9.48615Z" fill="white"/>
</g>
<defs>
<radialGradient id="paint0_radial_939_5861" cx="0" cy="0" r="1" gradientUnits="userSpaceOnUse" gradientTransform="translate(6.3887 26.243) rotate(-90) scale(23.7858 22.1226)">
<stop stop-color="#FFDD55"/>
<stop offset="0.1" stop-color="#FFDD55"/>
<stop offset="0.5" stop-color="#FF543E"/>
<stop offset="1" stop-color="#C837AB"/>
</radialGradient>
<radialGradient id="paint1_radial_939_5861" cx="0" cy="0" r="1" gradientUnits="userSpaceOnUse" gradientTransform="translate(-4.00646 2.12345) rotate(78.6806) scale(10.6323 43.827)">
<stop stop-color="#3771C8"/>
<stop offset="0.128" stop-color="#3771C8"/>
<stop offset="1" stop-color="#6600FF" stop-opacity="0"/>
</radialGradient>
<clipPath id="clip0_939_5861">
<rect width="24" height="24" fill="white" transform="translate(0 0.394531)"/>
</clipPath>
</defs>
</svg>
