<svg width="1489" height="1489" viewBox="0 0 1489 1489" fill="none" xmlns="http://www.w3.org/2000/svg">
<path d="M835.047 744.559C835.047 794.818 794.304 835.561 744.044 835.561C693.785 835.561 653.042 794.818 653.042 744.559C653.042 694.3 693.785 653.557 744.044 653.557C794.304 653.557 835.047 694.3 835.047 744.559Z" stroke="#FEF6EC" stroke-width="4.66667"/>
<path d="M919.014 744.56C919.014 841.192 840.678 919.528 744.046 919.528C647.413 919.528 569.077 841.192 569.077 744.56C569.077 647.927 647.413 569.591 744.046 569.591C840.678 569.591 919.014 647.927 919.014 744.56Z" stroke="#FEF6EC" stroke-width="4.66667"/>
<path d="M1023.88 744.559C1023.88 899.108 898.595 1024.4 744.045 1024.4C589.496 1024.4 464.208 899.108 464.208 744.559C464.208 590.009 589.496 464.722 744.045 464.722C898.595 464.722 1023.88 590.009 1023.88 744.559Z" stroke="#FEF6EC" stroke-width="4.66667"/>
<path d="M1137.19 744.559C1137.19 961.689 961.174 1137.71 744.044 1137.71C526.914 1137.71 350.896 961.689 350.896 744.559C350.896 527.43 526.914 351.412 744.044 351.412C961.174 351.412 1137.19 527.43 1137.19 744.559Z" stroke="#FEF6EC" stroke-width="4.66667"/>
<path d="M1250.82 744.558C1250.82 1024.44 1023.93 1251.33 744.045 1251.33C464.162 1251.33 237.273 1024.44 237.273 744.558C237.273 464.676 464.162 237.787 744.045 237.787C1023.93 237.787 1250.82 464.676 1250.82 744.558Z" stroke="#FEF6EC" stroke-width="4.66667"/>
<path d="M1370.52 744.558C1370.52 1090.55 1090.04 1371.03 744.044 1371.03C398.053 1371.03 117.572 1090.55 117.572 744.558C117.572 398.567 398.053 118.086 744.044 118.086C1090.04 118.086 1370.52 398.567 1370.52 744.558Z" stroke="#FEF6EC" stroke-width="4.66667"/>
<path d="M1485.76 744.558C1485.76 1154.19 1153.68 1486.27 744.046 1486.27C334.409 1486.27 2.33333 1154.19 2.33333 744.558C2.33333 334.922 334.409 2.84615 744.046 2.84615C1153.68 2.84615 1485.76 334.922 1485.76 744.558Z" stroke="#FEF6EC" stroke-width="4.66667"/>
</svg>
