<svg width="87" height="76" viewBox="0 0 87 76" fill="none" xmlns="http://www.w3.org/2000/svg">
<path fill-rule="evenodd" clip-rule="evenodd" d="M80.1532 12.8819C80.4291 12.9562 80.7088 13.0215 80.9921 13.0773C81.0364 13.0859 81.0807 13.0944 81.1251 13.1027L81.1386 13.1052L81.1568 13.1085C81.1848 13.1136 81.2156 13.1191 81.2771 13.1302L81.2986 13.134C81.75 13.2194 81.75 13.8657 81.2986 13.9512L81.2771 13.955C81.2156 13.966 81.1848 13.9715 81.1568 13.9766L81.1386 13.9799L81.1251 13.9824C81.0807 13.9907 81.0364 13.9992 80.9921 14.0079C80.7089 14.0637 80.4291 14.1289 80.1532 14.2033C79.9175 14.2668 79.6847 14.337 79.4548 14.4135C75.7359 15.6532 72.8094 18.5797 71.5697 22.2986C71.4931 22.5285 71.423 22.7614 71.3595 22.997C71.2851 23.2729 71.2199 23.5527 71.1641 23.8359C71.1554 23.8802 71.1469 23.9245 71.1386 23.9689L71.1361 23.9824L71.1328 24.0006C71.1277 24.0283 71.1223 24.0587 71.1115 24.1188L71.1112 24.1209L71.1073 24.1424C71.0219 24.5938 70.3756 24.5938 70.2902 24.1424L70.2863 24.1209C70.2753 24.0594 70.2698 24.0286 70.2647 24.0006L70.2614 23.9824L70.2589 23.9689C70.2506 23.9245 70.2421 23.8802 70.2334 23.8359C70.1776 23.5526 70.1124 23.2729 70.0381 22.997C69.9746 22.7614 69.9044 22.5285 69.8278 22.2986C68.5881 18.5797 65.6616 15.6532 61.9427 14.4135C61.7128 14.337 61.48 14.2668 61.2443 14.2033C60.9684 14.1289 60.6887 14.0637 60.4054 14.0079C60.3612 13.9992 60.3168 13.9907 60.2724 13.9824L60.2589 13.9799L60.2407 13.9766C60.2127 13.9715 60.1819 13.966 60.1204 13.955L60.0989 13.9511C59.6475 13.8657 59.6475 13.2194 60.0989 13.134L60.1204 13.1301L60.1855 13.1185L60.2407 13.1085L60.2589 13.1052L60.2724 13.1027C60.3168 13.0944 60.3612 13.0859 60.4054 13.0773C60.6887 13.0215 60.9684 12.9562 61.2443 12.8819C61.48 12.8184 61.7128 12.7482 61.9427 12.6716C65.6616 11.4319 68.5881 8.50545 69.8278 4.7865C69.9044 4.55664 69.9746 4.32377 70.0381 4.08808C70.1124 3.81223 70.1776 3.53246 70.2334 3.2492C70.2421 3.20496 70.2506 3.16064 70.2589 3.11622L70.2614 3.10275L70.2647 3.08454L70.2722 3.04354L70.2859 2.96657L70.2902 2.9427C70.3756 2.49132 71.0219 2.49132 71.1073 2.9427L71.1112 2.9642C71.1221 3.02562 71.1277 3.05655 71.1328 3.08454L71.1361 3.10275L71.1386 3.11622C71.1469 3.16064 71.1554 3.20496 71.1641 3.2492C71.2199 3.5325 71.2851 3.81223 71.3595 4.08808C71.423 4.32377 71.4931 4.55664 71.5697 4.7865C72.8094 8.50545 75.7359 11.4319 79.4548 12.6716C79.6847 12.7482 79.9175 12.8184 80.1532 12.8819ZM86.3777 4.22393C85.9033 4.13333 85.4539 3.97473 85.0399 3.75863C84.8558 3.66249 84.6786 3.555 84.5094 3.43699C84.0379 3.10828 83.628 2.69828 83.2992 2.22682C83.1813 2.05758 83.0737 1.88044 82.9776 1.69632C82.7615 1.28232 82.6029 0.832899 82.5123 0.358486C82.5086 0.338901 82.5049 0.319275 82.5014 0.299606C82.4696 0.121343 82.2139 0.121343 82.1821 0.299606C82.1786 0.319275 82.175 0.338901 82.1713 0.358486C82.0806 0.832899 81.9221 1.28232 81.706 1.69632C81.6098 1.88044 81.5023 2.05758 81.3843 2.22682C81.0556 2.69828 80.6456 3.10828 80.1741 3.43699C80.0049 3.555 79.8278 3.66249 79.6436 3.75863C79.2296 3.97473 78.7802 4.13332 78.3058 4.22393C78.2862 4.22768 78.2666 4.23129 78.2469 4.23483C78.0687 4.2666 78.0687 4.52233 78.2469 4.5541C78.2666 4.55763 78.2862 4.56125 78.3058 4.56499C78.7802 4.6556 79.2296 4.81419 79.6436 5.0303C79.8278 5.12644 80.0049 5.23393 80.1741 5.35194C80.6456 5.68065 81.0556 6.09064 81.3843 6.5621C81.5023 6.73134 81.6098 6.90849 81.706 7.09261C81.9221 7.50661 82.0806 7.95603 82.1713 8.43044C82.175 8.45002 82.1786 8.46965 82.1821 8.48932C82.2139 8.66758 82.4696 8.66758 82.5014 8.48932C82.5049 8.46965 82.5086 8.45002 82.5123 8.43044C82.6029 7.95603 82.7615 7.50661 82.9776 7.09261C83.0737 6.90849 83.1813 6.73134 83.2992 6.5621C83.628 6.09064 84.0379 5.68065 84.5094 5.35194C84.6786 5.23393 84.8558 5.12644 85.0399 5.0303C85.4539 4.8142 85.9033 4.6556 86.3777 4.56499C86.3973 4.56125 86.4169 4.55763 86.4366 4.5541C86.6149 4.52233 86.6149 4.2666 86.4366 4.23483C86.4169 4.23129 86.3973 4.22768 86.3777 4.22393Z" fill="#EDE7E5"/>
<circle cx="34.9042" cy="29.984" r="8.96846" fill="#EDE7E5" stroke="white" stroke-width="0.780901"/>
<path d="M39.7246 51.8104C39.7246 46.06 44.3862 41.3984 50.1366 41.3984H57.906C63.6564 41.3984 68.318 46.0601 68.318 51.8104V65.8751C68.318 67.3127 67.1526 68.4781 65.715 68.4781H42.3276C40.89 68.4781 39.7246 67.3127 39.7246 65.8751V51.8104Z" fill="#EDE7E5"/>
<circle cx="54.0229" cy="29.9839" r="6.59909" fill="#EDE7E5"/>
<path d="M0.679688 51.8104C0.679688 46.06 5.3413 41.3984 11.0917 41.3984H18.8611C24.6115 41.3984 29.2731 46.0601 29.2731 51.8104V65.8751C29.2731 67.3127 28.1077 68.4781 26.6701 68.4781H3.28269C1.84509 68.4781 0.679688 67.3127 0.679688 65.8751V51.8104Z" fill="#EDE7E5"/>
<circle cx="14.976" cy="29.9839" r="6.59909" fill="#EDE7E5"/>
<path d="M31.0253 39.8366C24.4123 39.8366 19.0515 45.1975 19.0515 51.8105V69.8921C19.0515 72.1923 20.9161 74.0569 23.2163 74.0569H46.6037C48.9038 74.0569 50.7685 72.1923 50.7685 69.8921V51.8104C50.7685 45.1975 45.4076 39.8366 38.7946 39.8366H31.0253Z" fill="#EDE7E5" stroke="white" stroke-width="3.1236"/>
</svg>
