<svg width="379" height="91" viewBox="0 0 379 91" fill="none" xmlns="http://www.w3.org/2000/svg">
<path opacity="0.2" d="M19.7807 267.291C32.6879 295.271 51.6373 318.547 74.3646 336.283M19.7807 267.291C6.87339 239.311 1.46694 209.788 2.72666 180.987M19.7807 267.291C19.7807 267.291 52.0098 187.973 164.985 135.858C277.96 83.7422 359.219 110.709 359.219 110.709M267.791 358.719C225.191 378.37 155.593 318.318 112.355 224.587C69.1166 130.856 68.6091 38.9321 111.209 19.2811M267.791 358.719C310.39 339.068 309.883 247.144 266.645 153.413C223.407 59.682 153.808 -0.370005 111.209 19.2811M267.791 358.719L111.209 19.2811M267.791 358.719C267.791 358.719 389.034 289.939 318.103 129.676C247.172 -30.5876 111.209 19.2811 111.209 19.2811M267.791 358.719C267.791 358.719 134.44 412.44 59.8565 248.804C-14.727 85.1683 111.209 19.2811 111.209 19.2811M267.791 358.719C309.581 339.441 340.876 306.685 358.896 267.994M267.791 358.719C226 377.997 180.769 380.542 139.64 369.136M111.209 19.2811C149.125 1.79005 189.875 -1.92665 227.823 6.05388M111.209 19.2811C77.1913 34.9732 50.1281 59.5958 31.5187 89.0805M359.219 110.709C372.126 138.689 377.532 168.212 376.273 197.013M359.219 110.709C346.311 82.7286 327.362 59.4531 304.635 41.7171M358.896 267.994C358.896 267.994 317.124 264.754 240.706 300.005C164.288 335.257 139.64 369.136 139.64 369.136M358.896 267.994C369.227 245.811 375.194 221.677 376.273 197.013M139.64 369.136C116.059 362.597 93.8267 351.471 74.3646 336.283M376.273 197.013C376.273 197.013 298.75 187.796 208.211 229.561C117.671 271.327 74.3646 336.283 74.3646 336.283M304.635 41.7171C304.635 41.7171 236.946 23.6057 134.915 70.6723C32.8845 117.739 2.72666 180.987 2.72666 180.987M304.635 41.7171C282.026 24.0738 255.679 11.9122 227.823 6.05388M2.72666 180.987C4.15536 148.322 14.1586 116.586 31.5187 89.0805M227.823 6.05388C227.823 6.05388 177.753 0.171874 115.616 28.8356C68.3331 50.6472 31.5187 89.0805 31.5187 89.0805" stroke="#FF7152" stroke-width="4"/>
</svg>
