<svg width="970" height="600" viewBox="0 0 970 600" fill="none" xmlns="http://www.w3.org/2000/svg">
<rect width="970" height="600" rx="20" fill="#FEFFC7"/>
<g clip-path="url(#clip0_1173_9312)">
<path d="M508.396 285.136C507.044 283.783 505.439 282.71 503.672 281.978C501.905 281.246 500.011 280.869 498.099 280.869C496.186 280.869 494.293 281.246 492.526 281.978C490.759 282.71 489.154 283.783 487.802 285.136V285.136C486.252 286.685 483.739 286.685 482.19 285.136V285.136C479.459 282.405 475.755 280.871 471.893 280.871C468.03 280.871 464.326 282.405 461.595 285.136C458.864 287.867 457.33 291.571 457.33 295.433C457.33 299.295 458.864 302.999 461.595 305.73L464.401 308.536L477.925 322.06C481.83 325.965 488.162 325.965 492.067 322.06L505.59 308.536L508.396 305.73C509.749 304.378 510.822 302.773 511.554 301.006C512.286 299.239 512.663 297.346 512.663 295.433C512.663 293.521 512.286 291.627 511.554 289.86C510.822 288.093 509.749 286.488 508.396 285.136Z" fill="#F7F9B3"/>
<path d="M559.409 241.83C555.11 237.528 550.005 234.116 544.386 231.788C538.767 229.46 532.745 228.262 526.663 228.262C520.581 228.262 514.559 229.46 508.94 231.788C503.322 234.116 498.217 237.528 493.917 241.83L492.065 243.682C488.16 247.587 481.828 247.587 477.923 243.682L476.071 241.83C467.386 233.145 455.607 228.266 443.325 228.266C431.043 228.266 419.264 233.145 410.579 241.83C401.895 250.515 397.016 262.294 397.016 274.576C397.016 286.858 401.895 298.637 410.579 307.322L419.502 316.245L477.923 374.666C481.828 378.571 488.16 378.571 492.065 374.666L550.486 316.245L559.409 307.322C563.711 303.022 567.123 297.917 569.451 292.299C571.779 286.68 572.977 280.658 572.977 274.576C572.977 268.494 571.779 262.472 569.451 256.853C567.123 251.234 563.711 246.13 559.409 241.83Z" stroke="#F7F9B3" stroke-width="4" stroke-linecap="round" stroke-linejoin="round"/>
<path d="M608.17 200.434C601.053 193.314 592.602 187.666 583.302 183.812C574.001 179.958 564.032 177.975 553.965 177.975C543.897 177.975 533.929 179.958 524.628 183.812C515.327 187.666 506.877 193.314 499.76 200.434L492.061 208.134C488.156 212.039 481.824 212.039 477.919 208.134L470.219 200.434C455.843 186.058 436.345 177.982 416.015 177.982C395.684 177.982 376.186 186.058 361.81 200.434C347.434 214.81 339.357 234.308 339.357 254.639C339.357 274.97 347.434 294.468 361.81 308.844L376.58 323.614L477.919 424.953C481.824 428.858 488.156 428.858 492.061 424.953L593.399 323.614L608.17 308.844C615.29 301.727 620.938 293.277 624.792 283.976C628.646 274.675 630.629 264.707 630.629 254.639C630.629 244.572 628.646 234.603 624.792 225.302C620.938 216.002 615.29 207.551 608.17 200.434Z" stroke="#F7F9B3" stroke-width="4" stroke-linecap="round" stroke-linejoin="round"/>
<path d="M662.569 154.252C652.308 143.987 640.126 135.844 626.718 130.288C613.309 124.733 598.938 121.873 584.424 121.873C569.91 121.873 555.539 124.733 542.13 130.288C528.722 135.844 516.54 143.987 506.279 154.252L492.056 168.475C488.151 172.381 481.819 172.381 477.914 168.475L463.691 154.252C442.966 133.527 414.857 121.884 385.547 121.884C356.237 121.884 328.127 133.527 307.402 154.252C286.677 174.978 275.033 203.087 275.033 232.397C275.033 261.707 286.677 289.817 307.402 310.542L328.696 331.836L477.914 481.054C481.819 484.96 488.151 484.96 492.056 481.054L641.275 331.836L662.569 310.542C672.834 300.282 680.977 288.099 686.533 274.691C692.089 261.283 694.948 246.911 694.948 232.397C694.948 217.883 692.089 203.512 686.533 190.103C680.977 176.695 672.834 164.513 662.569 154.252Z" stroke="#F7F9B3" stroke-width="4" stroke-linecap="round" stroke-linejoin="round"/>
<path d="M742.371 86.5134C727.5 71.6354 709.843 59.8331 690.409 51.7808C670.976 43.7285 650.146 39.584 629.111 39.584C608.075 39.584 587.245 43.7285 567.812 51.7808C548.378 59.8331 530.722 71.6354 515.851 86.5134L492.059 110.305C488.154 114.21 481.822 114.21 477.917 110.305L454.125 86.5134C424.087 56.475 383.346 39.5996 340.865 39.5996C298.385 39.5996 257.644 56.475 227.605 86.5134C197.567 116.552 180.691 157.293 180.691 199.773C180.691 242.254 197.567 282.995 227.605 313.033L258.468 343.896L477.917 563.345C481.822 567.25 488.154 567.25 492.059 563.345L711.508 343.896L742.371 313.033C757.249 298.162 769.051 280.506 777.103 261.072C785.155 241.639 789.3 220.809 789.3 199.773C789.3 178.738 785.155 157.908 777.103 138.475C769.051 119.041 757.249 101.384 742.371 86.5134Z" stroke="#F7F9B3" stroke-width="4" stroke-linecap="round" stroke-linejoin="round"/>
<path d="M857.067 -10.8574C835.568 -32.3659 810.043 -49.4279 781.949 -61.0687C753.855 -72.7096 723.742 -78.7012 693.332 -78.7012C662.921 -78.7012 632.809 -72.7096 604.715 -61.0687C576.621 -49.4279 551.095 -32.3659 529.597 -10.8574L492.051 26.6882C488.146 30.5935 481.814 30.5935 477.909 26.6882L440.363 -10.8574C396.938 -54.2826 338.041 -78.6787 276.628 -78.6787C215.216 -78.6787 156.319 -54.2826 112.893 -10.8574C69.4683 32.5678 45.0723 91.465 45.0723 152.877C45.0723 214.29 69.4683 273.187 112.893 316.612L157.51 361.229L477.909 681.628C481.814 685.533 488.146 685.533 492.051 681.628L812.45 361.229L857.067 316.612C878.575 295.114 895.637 269.589 907.278 241.494C918.919 213.4 924.91 183.288 924.91 152.877C924.91 122.467 918.919 92.3547 907.278 64.2605C895.637 36.1663 878.575 10.6409 857.067 -10.8574Z" stroke="#F7F9B3" stroke-width="4" stroke-linecap="round" stroke-linejoin="round"/>
<path d="M1000.06 -132.245C970.303 -162.019 934.968 -185.639 896.077 -201.753C857.186 -217.868 815.501 -226.162 773.403 -226.162C731.306 -226.162 689.62 -217.868 650.729 -201.753C611.838 -185.639 576.503 -162.019 546.742 -132.245L492.05 -77.5525C488.145 -73.6473 481.813 -73.6473 477.908 -77.5525L423.215 -132.245C363.101 -192.359 281.569 -226.131 196.554 -226.131C111.54 -226.131 30.0079 -192.359 -30.1062 -132.245C-90.2204 -72.1309 -123.992 9.40141 -123.992 94.4157C-123.992 179.43 -90.2204 260.962 -30.1062 321.076L31.6573 382.84L477.908 829.09C481.813 832.995 488.145 832.995 492.05 829.09L938.3 382.84L1000.06 321.076C1029.84 291.316 1053.46 255.981 1069.57 217.09C1085.69 178.198 1093.98 136.513 1093.98 94.4157C1093.98 52.3181 1085.69 10.633 1069.57 -28.2582C1053.46 -67.1494 1029.84 -102.485 1000.06 -132.245Z" stroke="#F7F9B3" stroke-width="4" stroke-linecap="round" stroke-linejoin="round"/>
<path d="M1140.17 -251.184C1102.32 -289.058 1057.37 -319.102 1007.9 -339.6C958.429 -360.098 905.405 -370.648 851.856 -370.648C798.307 -370.648 745.283 -360.098 695.812 -339.6C646.342 -319.102 601.395 -289.058 563.539 -251.184L492.046 -179.691C488.14 -175.785 481.809 -175.785 477.903 -179.691L406.41 -251.184C329.944 -327.65 226.233 -370.609 118.093 -370.609C9.95336 -370.609 -93.7573 -327.65 -170.224 -251.184C-246.69 -174.718 -289.648 -71.007 -289.648 37.1328C-289.648 145.273 -246.69 248.983 -170.224 325.45L-91.6592 404.014L477.903 973.577C481.809 977.482 488.14 977.482 492.046 973.577L1061.61 404.014L1140.17 325.45C1178.05 287.594 1208.09 242.647 1228.59 193.176C1249.09 143.706 1259.64 90.6817 1259.64 37.1328C1259.64 -16.4162 1249.09 -69.4404 1228.59 -118.911C1208.09 -168.381 1178.05 -213.328 1140.17 -251.184Z" stroke="#F7F9B3" stroke-width="4" stroke-linecap="round" stroke-linejoin="round"/>
<path fill-rule="evenodd" clip-rule="evenodd" d="M506.204 435.809C498.922 436.533 492.246 435.773 487.564 433.369L489.146 430.29C492.998 432.268 498.916 433.055 505.862 432.365C512.765 431.679 520.495 429.55 527.849 425.909C542.564 418.625 555.553 405.419 557.697 385.854L561.138 386.231C558.83 407.301 544.821 421.37 529.385 429.012C521.664 432.834 513.531 435.081 506.204 435.809Z" fill="#7A1600"/>
<path d="M388.646 329.259C388.646 276.079 431.757 232.968 484.938 232.968C538.118 232.968 581.229 276.079 581.229 329.259C581.229 331.583 581.146 333.888 580.984 336.171H571.917C572.022 334.418 572.075 332.65 572.075 330.87C572.075 282.745 533.062 243.732 484.937 243.732C436.812 243.732 397.799 282.745 397.799 330.87C397.799 332.65 397.852 334.418 397.957 336.171H388.891C388.729 333.888 388.646 331.583 388.646 329.259Z" fill="#7A1600"/>
<path d="M380.213 360.271C382.961 380.262 401.293 394.254 421.16 391.523L411.209 319.131C391.343 321.862 377.466 340.281 380.213 360.271Z" fill="#FE6533"/>
<rect x="406.9" y="311.826" width="26.6319" height="89.4757" rx="13.316" transform="rotate(-7.82613 406.9 311.826)" fill="#7A1600"/>
<path d="M589.787 360.271C587.039 380.262 569.044 394.3 549.594 391.627L559.544 319.235C578.994 321.908 592.534 340.281 589.787 360.271Z" fill="#FE6533"/>
<rect width="26.6319" height="89.4757" rx="13.316" transform="matrix(-0.990686 -0.136167 -0.136167 0.990686 563.104 311.826)" fill="#7A1600"/>
<rect x="467.467" y="422.781" width="35.068" height="22.2661" rx="9.52004" fill="#7A1600"/>
<path d="M709.72 240.888H747.906C750.531 240.888 752.679 243.036 752.679 245.661V274.3C752.679 276.925 750.531 279.073 747.906 279.073H709.72C707.095 279.073 704.947 276.925 704.947 274.3V245.661C704.947 243.036 707.095 240.888 709.72 240.888Z" fill="#FE6533"/>
<path d="M706.547 239.819L724.992 226.907C727.287 225.301 730.34 225.3 732.635 226.905L751.106 239.819C752.109 240.521 752.707 241.668 752.707 242.892C752.707 244.444 751.448 245.703 749.895 245.703H707.76C706.206 245.703 704.947 244.444 704.947 242.891C704.947 241.667 705.544 240.521 706.547 239.819Z" fill="#7A1600"/>
<path d="M706.547 245.493L724.992 258.405C727.287 260.011 730.34 260.012 732.635 258.407L751.106 245.492C752.109 244.791 752.707 243.644 752.707 242.42C752.707 240.867 751.448 239.608 749.895 239.608H707.76C706.206 239.608 704.947 240.868 704.947 242.421C704.947 243.644 705.544 244.791 706.547 245.493Z" fill="#7A1600"/>
<path d="M779.669 239.226H741.484C737.942 239.226 735.051 242.117 735.051 245.659V274.298C735.051 277.84 737.942 280.731 741.484 280.731H779.669C783.212 280.731 786.103 277.84 786.103 274.298V245.659C786.103 242.117 783.212 239.226 779.669 239.226Z" fill="#FE6533" stroke="#FEFFC7" stroke-width="3.3201" stroke-linecap="round" stroke-linejoin="round"/>
<path d="M738.186 246.693L756.756 259.692C759.05 261.298 762.104 261.299 764.399 259.694L782.994 246.692C783.919 246.046 784.47 244.988 784.47 243.859C784.47 242.222 783.144 240.896 781.507 240.896H739.675C738.038 240.896 736.711 242.223 736.711 243.86C736.711 244.988 737.262 246.046 738.186 246.693Z" fill="#7A1600"/>
<path d="M730.571 309.079H725.077V307.55H730.571V309.079ZM725.62 309.079H723.72V298.677H725.62V309.079ZM729.857 304.471H725.077V302.971H729.857V304.471ZM730.542 300.213H725.077V298.677H730.542V300.213ZM733.65 309.079H731.814V301.349H733.543L733.65 302.928V309.079ZM732.757 304.95C732.757 304.226 732.871 303.583 733.1 303.021C733.333 302.459 733.679 302.016 734.136 301.692C734.593 301.368 735.16 301.206 735.836 301.206C736.536 301.206 737.11 301.418 737.558 301.842C738.006 302.266 738.229 302.961 738.229 303.928V309.079H736.4V304.107C736.4 303.75 736.346 303.469 736.236 303.264C736.131 303.059 735.979 302.914 735.779 302.828C735.579 302.742 735.343 302.699 735.072 302.699C734.767 302.699 734.505 302.757 734.286 302.871C734.072 302.985 733.895 303.145 733.757 303.35C733.619 303.554 733.517 303.793 733.45 304.064C733.388 304.335 733.357 304.628 733.357 304.943L732.757 304.95ZM737.286 304.721C737.286 304.078 737.401 303.49 737.629 302.957C737.858 302.423 738.196 301.999 738.644 301.685C739.091 301.366 739.644 301.206 740.301 301.206C740.82 301.206 741.268 301.304 741.644 301.499C742.02 301.69 742.309 301.997 742.509 302.421C742.713 302.845 742.816 303.404 742.816 304.1V309.079H740.98V304.093C740.98 303.721 740.925 303.435 740.815 303.235C740.711 303.035 740.558 302.897 740.358 302.821C740.163 302.74 739.932 302.699 739.665 302.699C739.403 302.699 739.175 302.747 738.979 302.842C738.789 302.938 738.627 303.071 738.494 303.242C738.365 303.409 738.267 303.607 738.201 303.835C738.134 304.059 738.101 304.302 738.101 304.564L737.286 304.721ZM748.838 303.864C748.838 303.473 748.731 303.164 748.517 302.935C748.307 302.702 747.983 302.585 747.545 302.585C747.283 302.585 747.055 302.63 746.859 302.721C746.669 302.807 746.521 302.926 746.416 303.078C746.312 303.231 746.259 303.407 746.259 303.607H744.43C744.43 303.183 744.561 302.79 744.823 302.428C745.09 302.061 745.464 301.766 745.945 301.542C746.426 301.318 746.993 301.206 747.645 301.206C748.231 301.206 748.75 301.306 749.203 301.506C749.66 301.702 750.019 301.997 750.281 302.392C750.543 302.788 750.674 303.283 750.674 303.878V307.265C750.674 307.641 750.7 307.967 750.753 308.243C750.805 308.515 750.879 308.753 750.974 308.958V309.079H749.11C749.019 308.889 748.95 308.643 748.903 308.343C748.86 308.043 748.838 307.748 748.838 307.457V303.864ZM749.103 305.486H747.917C747.307 305.486 746.85 305.602 746.545 305.836C746.24 306.064 746.088 306.369 746.088 306.75C746.088 307.045 746.188 307.291 746.388 307.486C746.593 307.681 746.878 307.779 747.245 307.779C747.588 307.779 747.886 307.71 748.138 307.572C748.391 307.434 748.588 307.267 748.731 307.072C748.874 306.872 748.948 306.683 748.953 306.507L749.517 307.322C749.455 307.512 749.357 307.717 749.224 307.936C749.091 308.155 748.914 308.362 748.695 308.558C748.481 308.753 748.224 308.912 747.924 309.036C747.624 309.16 747.276 309.222 746.881 309.222C746.381 309.222 745.931 309.122 745.531 308.922C745.135 308.722 744.823 308.448 744.595 308.1C744.371 307.748 744.259 307.353 744.259 306.914C744.259 306.095 744.564 305.467 745.173 305.028C745.788 304.586 746.664 304.364 747.802 304.364H749.103V305.486ZM753.468 298.37C753.791 298.37 754.046 298.463 754.232 298.649C754.418 298.83 754.511 299.058 754.511 299.335C754.511 299.611 754.418 299.842 754.232 300.028C754.046 300.209 753.791 300.299 753.468 300.299C753.144 300.299 752.889 300.209 752.703 300.028C752.522 299.842 752.432 299.611 752.432 299.335C752.432 299.058 752.522 298.83 752.703 298.649C752.889 298.463 753.144 298.37 753.468 298.37ZM754.389 309.079H752.553V301.349H754.389V309.079ZM758.197 309.079H756.361V298.106H758.197V309.079ZM762.948 309.222C762.238 309.222 761.638 309.096 761.147 308.843C760.662 308.586 760.292 308.26 760.04 307.865C759.792 307.469 759.669 307.062 759.669 306.643H761.426C761.445 306.938 761.528 307.179 761.676 307.365C761.828 307.546 762.019 307.676 762.248 307.757C762.481 307.838 762.724 307.879 762.976 307.879C763.272 307.879 763.519 307.841 763.719 307.765C763.919 307.684 764.069 307.576 764.169 307.443C764.274 307.305 764.326 307.145 764.326 306.964C764.326 306.803 764.284 306.657 764.198 306.529C764.117 306.4 763.957 306.281 763.719 306.171C763.486 306.062 763.141 305.96 762.683 305.864C762.14 305.75 761.662 305.598 761.247 305.407C760.833 305.217 760.507 304.971 760.269 304.671C760.035 304.366 759.919 303.997 759.919 303.564C759.919 303.14 760.04 302.749 760.283 302.392C760.526 302.035 760.874 301.749 761.326 301.535C761.778 301.316 762.314 301.206 762.933 301.206C763.586 301.206 764.145 301.316 764.612 301.535C765.084 301.749 765.446 302.042 765.698 302.414C765.951 302.78 766.077 303.2 766.077 303.671H764.248C764.248 303.366 764.138 303.104 763.919 302.885C763.7 302.661 763.369 302.549 762.926 302.549C762.66 302.549 762.433 302.592 762.248 302.678C762.062 302.764 761.924 302.878 761.833 303.021C761.743 303.159 761.697 303.311 761.697 303.478C761.697 303.64 761.743 303.783 761.833 303.907C761.928 304.026 762.088 304.133 762.312 304.228C762.536 304.319 762.848 304.407 763.248 304.493C763.829 304.612 764.334 304.766 764.762 304.957C765.196 305.143 765.529 305.39 765.762 305.7C766.001 306.005 766.12 306.398 766.12 306.879C766.12 307.331 765.989 307.736 765.727 308.093C765.47 308.446 765.103 308.722 764.627 308.922C764.15 309.122 763.591 309.222 762.948 309.222Z" fill="#7A1600"/>
<path d="M103.121 368.273V373.854C103.123 374.372 103.017 374.885 102.81 375.359C102.602 375.834 102.298 376.26 101.916 376.61C101.534 376.961 101.083 377.227 100.593 377.393C100.102 377.559 99.5818 377.621 99.0659 377.574C93.3417 376.952 87.8432 374.996 83.0122 371.863C78.5176 369.007 74.707 365.197 71.851 360.702C68.7072 355.849 66.7507 350.324 66.1401 344.574C66.0936 344.06 66.1547 343.541 66.3196 343.052C66.4845 342.562 66.7495 342.112 67.0977 341.731C67.4459 341.349 67.8697 341.045 68.3422 340.836C68.8147 340.627 69.3254 340.519 69.8419 340.519H75.4226C76.3253 340.51 77.2005 340.83 77.885 341.418C78.5695 342.007 79.0166 342.824 79.143 343.718C79.3785 345.504 79.8154 347.258 80.4451 348.945C80.6954 349.611 80.7496 350.335 80.6012 351.031C80.4529 351.726 80.1082 352.365 79.608 352.871L77.2456 355.233C79.8937 359.89 83.7497 363.746 88.4068 366.394L90.7693 364.032C91.2751 363.532 91.9136 363.187 92.6093 363.039C93.3049 362.89 94.0286 362.944 94.6944 363.195C96.3821 363.824 98.1356 364.261 99.9216 364.497C100.825 364.624 101.65 365.08 102.24 365.776C102.83 366.472 103.144 367.361 103.121 368.273Z" fill="#FE6533" stroke="#FE6533" stroke-width="2" stroke-linecap="round" stroke-linejoin="round"/>
<path d="M88.2318 341.415C88.2318 341.415 94.955 338.579 99.6953 343.818C104.436 349.056 100.953 355.447 100.953 355.447" stroke="#7A1600" stroke-width="3.6627" stroke-linecap="round"/>
<path d="M88.0481 332.08C88.0481 332.08 99.9565 327.056 108.353 336.335C116.749 345.614 110.58 356.933 110.58 356.933" stroke="#7A1600" stroke-width="3.6627" stroke-linecap="round"/>
<path d="M82.7085 408.365C82.6561 409.051 82.4656 409.663 82.1369 410.201C81.8083 410.74 81.3487 411.161 80.7582 411.466C80.1676 411.771 79.4484 411.923 78.6007 411.923C77.7386 411.923 76.9909 411.723 76.3574 411.323C75.724 410.918 75.2358 410.344 74.8929 409.601C74.55 408.858 74.3785 407.984 74.3785 406.979V406.187C74.3785 405.177 74.5524 404.303 74.9001 403.565C75.2525 402.822 75.7502 402.248 76.3932 401.843C77.0361 401.438 77.791 401.236 78.6578 401.236C79.5008 401.236 80.2104 401.39 80.7867 401.7C81.3678 402.005 81.8178 402.431 82.1369 402.979C82.456 403.522 82.6489 404.143 82.7156 404.843H80.8153C80.7486 404.191 80.5557 403.686 80.2366 403.329C79.9223 402.967 79.396 402.786 78.6578 402.786C78.1387 402.786 77.7029 402.915 77.3505 403.172C77.0028 403.429 76.7408 403.81 76.5646 404.315C76.3884 404.815 76.3003 405.434 76.3003 406.172V406.979C76.3003 407.684 76.3789 408.292 76.536 408.801C76.6932 409.306 76.9409 409.694 77.279 409.966C77.6172 410.237 78.0577 410.373 78.6007 410.373C79.096 410.373 79.496 410.297 79.8009 410.144C80.1057 409.992 80.3367 409.768 80.4938 409.473C80.6558 409.173 80.7605 408.804 80.8082 408.365H82.7085ZM88.4094 406.565C88.4094 406.175 88.3022 405.865 88.0879 405.636C87.8784 405.403 87.5545 405.286 87.1163 405.286C86.8544 405.286 86.6258 405.332 86.4305 405.422C86.24 405.508 86.0924 405.627 85.9876 405.779C85.8828 405.932 85.8304 406.108 85.8304 406.308H84.0015C84.0015 405.884 84.1325 405.491 84.3945 405.129C84.6612 404.762 85.035 404.467 85.5161 404.243C85.9971 404.019 86.5639 403.908 87.2163 403.908C87.8022 403.908 88.3213 404.008 88.7737 404.208C89.231 404.403 89.5905 404.698 89.8525 405.093C90.1144 405.489 90.2454 405.984 90.2454 406.579V409.966C90.2454 410.342 90.2716 410.668 90.324 410.944C90.3764 411.216 90.4502 411.454 90.5455 411.659V411.78H88.6809C88.5904 411.59 88.5213 411.344 88.4737 411.044C88.4308 410.744 88.4094 410.449 88.4094 410.159V406.565ZM88.6737 408.187H87.4878C86.8782 408.187 86.421 408.304 86.1162 408.537C85.8114 408.765 85.659 409.07 85.659 409.451C85.659 409.747 85.759 409.992 85.959 410.187C86.1638 410.382 86.4496 410.48 86.8163 410.48C87.1592 410.48 87.4569 410.411 87.7093 410.273C87.9617 410.135 88.1594 409.968 88.3022 409.773C88.4451 409.573 88.5189 409.385 88.5237 409.208L89.0881 410.023C89.0262 410.213 88.9285 410.418 88.7952 410.637C88.6618 410.856 88.4856 411.063 88.2665 411.259C88.0522 411.454 87.795 411.614 87.495 411.737C87.1949 411.861 86.8472 411.923 86.4519 411.923C85.9519 411.923 85.5018 411.823 85.1017 411.623C84.7064 411.423 84.3945 411.149 84.1659 410.802C83.942 410.449 83.8301 410.054 83.8301 409.616C83.8301 408.796 84.1349 408.168 84.7445 407.73C85.3589 407.287 86.2352 407.065 87.3735 407.065H88.6737V408.187ZM93.9389 411.78H92.1029V400.807H93.9389V411.78ZM97.7252 411.78H95.8892V400.807H97.7252V411.78ZM102.476 411.923C101.766 411.923 101.166 411.797 100.676 411.545C100.19 411.287 99.8208 410.961 99.5684 410.566C99.3207 410.17 99.1969 409.763 99.1969 409.344H100.954C100.973 409.639 101.057 409.88 101.204 410.066C101.357 410.247 101.547 410.378 101.776 410.459C102.009 410.54 102.252 410.58 102.505 410.58C102.8 410.58 103.048 410.542 103.248 410.466C103.448 410.385 103.598 410.278 103.698 410.144C103.802 410.006 103.855 409.847 103.855 409.666C103.855 409.504 103.812 409.358 103.726 409.23C103.645 409.101 103.486 408.982 103.248 408.873C103.014 408.763 102.669 408.661 102.212 408.565C101.669 408.451 101.19 408.299 100.776 408.108C100.361 407.918 100.035 407.672 99.797 407.372C99.5636 407.068 99.4469 406.698 99.4469 406.265C99.4469 405.841 99.5684 405.451 99.8113 405.093C100.054 404.736 100.402 404.451 100.854 404.236C101.307 404.017 101.843 403.908 102.462 403.908C103.114 403.908 103.674 404.017 104.141 404.236C104.612 404.451 104.974 404.743 105.226 405.115C105.479 405.482 105.605 405.901 105.605 406.372H103.776C103.776 406.067 103.667 405.805 103.448 405.586C103.228 405.363 102.897 405.251 102.455 405.251C102.188 405.251 101.962 405.294 101.776 405.379C101.59 405.465 101.452 405.579 101.362 405.722C101.271 405.86 101.226 406.013 101.226 406.179C101.226 406.341 101.271 406.484 101.362 406.608C101.457 406.727 101.616 406.834 101.84 406.929C102.064 407.02 102.376 407.108 102.776 407.194C103.357 407.313 103.862 407.468 104.291 407.658C104.724 407.844 105.057 408.092 105.291 408.401C105.529 408.706 105.648 409.099 105.648 409.58C105.648 410.032 105.517 410.437 105.255 410.794C104.998 411.147 104.631 411.423 104.155 411.623C103.679 411.823 103.119 411.923 102.476 411.923Z" fill="#7A1600"/>
<path d="M251.267 239.075C251.717 238.306 251.013 237.376 250.151 237.602L232.424 242.234C232.08 242.323 231.81 242.589 231.714 242.931L225.081 266.623C224.873 267.367 225.55 268.056 226.297 267.861L236.18 265.278C236.899 265.09 237.565 265.725 237.411 266.452L233.532 284.827C233.301 285.919 234.762 286.511 235.356 285.567L253.668 256.49C254.151 255.723 253.446 254.76 252.569 254.989L242.355 257.658C241.493 257.883 240.789 256.954 241.24 256.185L251.267 239.075Z" fill="#7A1600"/>
<rect x="161.369" y="220.511" width="133.098" height="42.485" rx="21.2425" transform="rotate(-14.644 161.369 220.511)" fill="#FE6533"/>
<path d="M183.53 238.198L183.141 236.711L185.733 236.034C186.171 235.92 186.506 235.759 186.737 235.55C186.971 235.337 187.118 235.089 187.178 234.808C187.242 234.525 187.232 234.225 187.149 233.907C187.068 233.598 186.929 233.327 186.73 233.093C186.534 232.854 186.279 232.687 185.964 232.592C185.653 232.496 185.279 232.505 184.841 232.62L182.816 233.149L185.057 241.727L183.219 242.207L180.589 232.143L184.453 231.134C185.236 230.929 185.939 230.895 186.561 231.033C187.186 231.165 187.707 231.438 188.125 231.85C188.547 232.257 188.84 232.776 189.005 233.407C189.175 234.057 189.173 234.655 189.001 235.202C188.834 235.748 188.507 236.22 188.02 236.618C187.538 237.015 186.905 237.316 186.122 237.52L183.53 238.198ZM193.919 239.411L192.149 239.874L190.195 232.395L191.874 231.956L192.358 233.439L193.919 239.411ZM194.639 232.984C194.528 232.993 194.409 233.009 194.282 233.032C194.16 233.055 194.041 233.081 193.926 233.111C193.553 233.208 193.259 233.356 193.045 233.555C192.83 233.749 192.691 233.987 192.627 234.27C192.566 234.547 192.569 234.858 192.635 235.205L192.234 235.281C192.069 234.649 192.004 234.061 192.038 233.515C192.072 232.965 192.214 232.502 192.465 232.126C192.72 231.745 193.094 231.49 193.587 231.361C193.684 231.335 193.795 231.316 193.919 231.304C194.043 231.286 194.14 231.283 194.212 231.293L194.639 232.984ZM195.497 227.93C195.81 227.849 196.08 227.874 196.307 228.007C196.532 228.135 196.68 228.333 196.75 228.6C196.819 228.867 196.788 229.114 196.655 229.341C196.521 229.563 196.298 229.715 195.984 229.797C195.671 229.878 195.401 229.855 195.176 229.727C194.954 229.593 194.808 229.393 194.738 229.125C194.668 228.858 194.698 228.614 194.827 228.393C194.96 228.167 195.183 228.012 195.497 227.93ZM199.096 238.058L197.319 238.523L195.365 231.044L197.141 230.58L199.096 238.058ZM199.586 233.862C199.396 233.134 199.365 232.448 199.492 231.804C199.619 231.16 199.897 230.605 200.327 230.139C200.76 229.666 201.342 229.334 202.075 229.143C202.817 228.949 203.494 228.952 204.108 229.151C204.72 229.345 205.236 229.693 205.657 230.193C206.083 230.692 206.391 231.306 206.581 232.034L206.619 232.179C206.808 232.902 206.84 233.588 206.714 234.237C206.591 234.879 206.311 235.435 205.872 235.904C205.438 236.372 204.852 236.702 204.115 236.894C203.378 237.087 202.706 237.086 202.098 236.89C201.491 236.694 200.974 236.347 200.548 235.848C200.121 235.344 199.813 234.73 199.624 234.007L199.586 233.862ZM201.394 233.544C201.507 233.978 201.671 234.36 201.886 234.693C202.1 235.021 202.362 235.261 202.672 235.411C202.98 235.557 203.338 235.577 203.743 235.471C204.149 235.365 204.45 235.173 204.648 234.894C204.845 234.612 204.954 234.275 204.976 233.886C205 233.491 204.956 233.076 204.843 232.643L204.805 232.498C204.693 232.069 204.53 231.691 204.316 231.363C204.106 231.029 203.844 230.788 203.529 230.638C203.218 230.483 202.857 230.46 202.447 230.567C202.046 230.671 201.748 230.868 201.552 231.155C201.355 231.438 201.245 231.777 201.22 232.172C201.199 232.562 201.244 232.971 201.356 233.399L201.394 233.544ZM210.701 235.026L208.931 235.488L206.977 228.01L208.657 227.571L209.14 229.054L210.701 235.026ZM211.421 228.598C211.31 228.608 211.191 228.624 211.065 228.647C210.942 228.669 210.824 228.695 210.708 228.726C210.335 228.823 210.042 228.971 209.828 229.17C209.613 229.364 209.473 229.602 209.409 229.885C209.348 230.161 209.351 230.473 209.417 230.82L209.016 230.896C208.851 230.264 208.786 229.676 208.82 229.13C208.854 228.58 208.996 228.117 209.248 227.741C209.502 227.36 209.876 227.104 210.369 226.976C210.466 226.95 210.577 226.931 210.701 226.918C210.825 226.901 210.922 226.897 210.994 226.908L211.421 228.598ZM212.279 223.545C212.592 223.463 212.862 223.489 213.089 223.621C213.314 223.75 213.462 223.947 213.532 224.215C213.602 224.482 213.57 224.729 213.437 224.955C213.303 225.178 213.08 225.33 212.766 225.411C212.453 225.493 212.184 225.47 211.958 225.342C211.736 225.208 211.59 225.007 211.52 224.74C211.451 224.473 211.48 224.229 211.61 224.008C211.742 223.781 211.965 223.627 212.279 223.545ZM215.878 233.673L214.101 234.137L212.147 226.659L213.924 226.194L215.878 233.673ZM219.566 226.116L215.302 227.23L214.96 225.924L219.225 224.809L219.566 226.116ZM217.433 223.321L219.306 230.488C219.365 230.714 219.442 230.879 219.538 230.981C219.633 231.08 219.743 231.135 219.869 231.146C220 231.156 220.146 231.14 220.307 231.098C220.422 231.068 220.531 231.032 220.634 230.991C220.736 230.949 220.815 230.914 220.872 230.884L221.227 232.246C221.097 232.329 220.943 232.411 220.767 232.492C220.591 232.572 220.381 232.644 220.137 232.708C219.745 232.81 219.379 232.832 219.039 232.773C218.698 232.71 218.401 232.544 218.148 232.275C217.901 232.005 217.709 231.61 217.573 231.089L215.664 223.783L217.433 223.321ZM224.644 223.393L226.531 222.9L225.795 232.293C225.774 232.495 225.735 232.72 225.676 232.966C225.622 233.212 225.53 233.455 225.401 233.695C225.278 233.939 225.099 234.158 224.864 234.352C224.629 234.547 224.323 234.693 223.945 234.792C223.844 234.818 223.743 234.837 223.643 234.849C223.548 234.864 223.455 234.873 223.362 234.878C223.27 234.882 223.177 234.884 223.083 234.884L222.728 233.523C222.77 233.516 222.824 233.507 222.89 233.495C222.956 233.483 223.009 233.471 223.051 233.46C223.461 233.353 223.749 233.202 223.914 233.006C224.084 232.809 224.182 232.525 224.208 232.154L224.37 230.568L224.644 223.393ZM224.753 229.235L225.559 231.077L224.399 231.639L219.702 224.685L221.61 224.186L224.753 229.235ZM236.615 228.402C236.127 228.53 235.631 228.591 235.127 228.584C234.622 228.573 234.141 228.485 233.684 228.319C233.232 228.152 232.838 227.898 232.503 227.557C232.171 227.21 231.934 226.763 231.79 226.215L233.636 225.732C233.719 226.05 233.843 226.308 234.008 226.506C234.176 226.699 234.376 226.841 234.607 226.933C234.838 227.026 235.091 227.07 235.366 227.067C235.64 227.064 235.93 227.023 236.234 226.944C236.63 226.84 236.943 226.699 237.172 226.521C237.401 226.343 237.555 226.141 237.634 225.913C237.717 225.685 237.725 225.444 237.659 225.191C237.59 224.928 237.477 224.719 237.318 224.564C237.158 224.404 236.905 224.283 236.558 224.201C236.216 224.113 235.733 224.057 235.112 224.032C234.604 224.012 234.124 223.963 233.67 223.885C233.221 223.805 232.813 223.683 232.445 223.518C232.077 223.354 231.766 223.135 231.512 222.861C231.262 222.582 231.082 222.23 230.971 221.806C230.828 221.258 230.853 220.735 231.048 220.236C231.247 219.736 231.588 219.297 232.07 218.92C232.552 218.543 233.148 218.262 233.858 218.076C234.614 217.879 235.3 217.847 235.916 217.982C236.535 218.11 237.053 218.369 237.469 218.757C237.886 219.145 238.169 219.628 238.32 220.204L236.474 220.686C236.393 220.373 236.253 220.111 236.055 219.902C235.863 219.691 235.613 219.555 235.306 219.492C235.003 219.424 234.641 219.444 234.222 219.554C233.83 219.656 233.518 219.799 233.286 219.983C233.058 220.166 232.905 220.373 232.828 220.605C232.755 220.836 232.751 221.075 232.816 221.324C232.88 221.568 233.012 221.763 233.212 221.907C233.417 222.051 233.696 222.158 234.049 222.228C234.401 222.293 234.828 222.337 235.331 222.358C236.134 222.38 236.821 222.473 237.391 222.639C237.96 222.801 238.419 223.05 238.768 223.387C239.116 223.72 239.36 224.155 239.501 224.695C239.65 225.266 239.629 225.798 239.438 226.291C239.251 226.783 238.918 227.21 238.436 227.572C237.955 227.934 237.348 228.211 236.615 228.402ZM244.046 218.323L245.822 217.859L247.776 225.338L246.104 225.775L245.538 224.033L244.046 218.323ZM245.942 222.244C246.116 222.912 246.173 223.534 246.112 224.112C246.051 224.689 245.851 225.184 245.511 225.598C245.17 226.007 244.67 226.297 244.011 226.47C243.274 226.662 242.62 226.602 242.051 226.288C241.482 225.974 241.068 225.321 240.809 224.331L239.546 219.499L241.316 219.037L242.582 223.882C242.67 224.219 242.79 224.47 242.941 224.637C243.097 224.799 243.273 224.898 243.47 224.935C243.67 224.966 243.876 224.954 244.088 224.899C244.544 224.78 244.881 224.598 245.098 224.355C245.313 224.106 245.437 223.815 245.468 223.482C245.502 223.144 245.47 222.785 245.371 222.407L245.942 222.244ZM253.169 224.077C252.699 224.199 252.269 224.218 251.877 224.134C251.485 224.044 251.126 223.87 250.803 223.61C250.483 223.348 250.196 223.02 249.94 222.624C249.682 222.224 249.454 221.774 249.255 221.275L249.128 220.791C249.021 220.041 249.01 219.36 249.096 218.746C249.182 218.133 249.387 217.617 249.71 217.198C250.039 216.777 250.512 216.486 251.129 216.325C251.76 216.16 252.334 216.18 252.85 216.385C253.367 216.589 253.81 216.949 254.18 217.462C254.554 217.97 254.841 218.604 255.039 219.364L255.077 219.51C255.267 220.238 255.325 220.919 255.25 221.554C255.178 222.183 254.969 222.72 254.622 223.165C254.28 223.609 253.796 223.913 253.169 224.077ZM250.187 227.78L247.481 217.426L249.112 217L249.626 218.401L251.956 227.318L250.187 227.78ZM252.313 222.779C252.7 222.678 252.983 222.488 253.162 222.21C253.345 221.931 253.442 221.598 253.454 221.211C253.47 220.818 253.421 220.405 253.308 219.972L253.27 219.827C253.154 219.384 252.995 219 252.791 218.674C252.588 218.348 252.34 218.113 252.046 217.968C251.751 217.819 251.41 217.795 251.023 217.896C250.737 217.971 250.505 218.081 250.326 218.226C250.147 218.371 250.011 218.547 249.918 218.753C249.827 218.954 249.774 219.182 249.757 219.438C249.743 219.687 249.759 219.956 249.805 220.245L250.112 221.42C250.251 221.743 250.418 222.026 250.615 222.27C250.811 222.51 251.047 222.679 251.324 222.779C251.606 222.878 251.936 222.878 252.313 222.779ZM261.132 221.996C260.662 222.119 260.231 222.138 259.84 222.053C259.447 221.964 259.089 221.789 258.765 221.529C258.446 221.268 258.158 220.939 257.902 220.543C257.645 220.143 257.417 219.693 257.217 219.194L257.091 218.71C256.984 217.96 256.973 217.279 257.059 216.666C257.145 216.053 257.349 215.536 257.673 215.117C258.001 214.697 258.474 214.406 259.092 214.244C259.723 214.079 260.297 214.099 260.813 214.304C261.329 214.509 261.772 214.868 262.143 215.382C262.517 215.889 262.803 216.523 263.002 217.284L263.04 217.429C263.23 218.157 263.287 218.838 263.212 219.473C263.14 220.103 262.931 220.64 262.585 221.085C262.243 221.528 261.759 221.832 261.132 221.996ZM258.149 225.699L255.444 215.345L257.075 214.919L257.589 216.321L259.919 225.237L258.149 225.699ZM260.276 220.699C260.663 220.597 260.946 220.408 261.124 220.13C261.307 219.851 261.405 219.517 261.417 219.13C261.432 218.737 261.383 218.324 261.27 217.891L261.232 217.746C261.117 217.304 260.957 216.92 260.754 216.594C260.551 216.268 260.302 216.032 260.008 215.888C259.713 215.738 259.372 215.714 258.985 215.815C258.7 215.89 258.467 216 258.289 216.145C258.11 216.29 257.974 216.466 257.88 216.673C257.79 216.873 257.736 217.102 257.719 217.357C257.706 217.607 257.722 217.876 257.768 218.164L258.075 219.339C258.213 219.662 258.381 219.946 258.578 220.19C258.773 220.429 259.009 220.599 259.287 220.699C259.568 220.797 259.898 220.797 260.276 220.699ZM264.047 217.018C263.857 216.29 263.826 215.604 263.953 214.96C264.08 214.317 264.358 213.762 264.788 213.295C265.22 212.823 265.803 212.491 266.536 212.299C267.278 212.105 267.955 212.108 268.568 212.307C269.18 212.502 269.697 212.849 270.118 213.349C270.544 213.848 270.852 214.462 271.042 215.19L271.08 215.335C271.269 216.059 271.301 216.745 271.175 217.393C271.052 218.035 270.772 218.591 270.333 219.06C269.899 219.528 269.313 219.858 268.576 220.051C267.839 220.243 267.166 220.242 266.559 220.046C265.952 219.85 265.435 219.503 265.009 219.004C264.582 218.5 264.274 217.887 264.085 217.163L264.047 217.018ZM265.855 216.701C265.968 217.134 266.132 217.517 266.347 217.85C266.561 218.178 266.822 218.417 267.133 218.567C267.441 218.713 267.798 218.733 268.204 218.627C268.609 218.521 268.911 218.329 269.109 218.051C269.306 217.768 269.415 217.432 269.437 217.042C269.461 216.647 269.417 216.233 269.304 215.799L269.266 215.654C269.154 215.226 268.991 214.847 268.777 214.519C268.567 214.185 268.304 213.944 267.99 213.795C267.679 213.64 267.318 213.616 266.908 213.723C266.507 213.828 266.209 214.024 266.013 214.311C265.816 214.594 265.705 214.933 265.681 215.328C265.659 215.718 265.705 216.127 265.817 216.556L265.855 216.701ZM275.162 218.182L273.392 218.645L271.438 211.166L273.118 210.727L273.601 212.21L275.162 218.182ZM275.882 211.755C275.771 211.764 275.652 211.78 275.525 211.804C275.403 211.826 275.284 211.852 275.169 211.882C274.796 211.979 274.502 212.127 274.289 212.326C274.073 212.52 273.934 212.758 273.87 213.041C273.809 213.318 273.812 213.63 273.878 213.977L273.477 214.052C273.312 213.421 273.247 212.832 273.281 212.287C273.315 211.736 273.457 211.273 273.708 210.898C273.963 210.516 274.337 210.261 274.83 210.132C274.927 210.107 275.038 210.087 275.162 210.075C275.286 210.057 275.383 210.054 275.455 210.065L275.882 211.755ZM280.668 210.15L276.403 211.264L276.062 209.958L280.327 208.843L280.668 210.15ZM278.535 207.355L280.408 214.522C280.467 214.748 280.544 214.913 280.64 215.016C280.735 215.114 280.845 215.169 280.971 215.18C281.102 215.19 281.248 215.174 281.409 215.132C281.524 215.102 281.633 215.066 281.735 215.025C281.838 214.983 281.917 214.948 281.973 214.918L282.329 216.28C282.198 216.363 282.045 216.445 281.869 216.526C281.693 216.606 281.483 216.678 281.239 216.742C280.847 216.844 280.481 216.866 280.141 216.807C279.799 216.744 279.502 216.578 279.25 216.309C279.002 216.039 278.81 215.644 278.674 215.123L276.765 207.817L278.535 207.355Z" fill="white"/>
<path d="M287.896 453.532C287.844 454.218 287.653 454.83 287.325 455.368C286.996 455.907 286.536 456.328 285.946 456.633C285.355 456.938 284.636 457.09 283.788 457.09C282.926 457.09 282.179 456.89 281.545 456.49C280.912 456.085 280.423 455.511 280.081 454.768C279.738 454.025 279.566 453.151 279.566 452.146V451.353C279.566 450.344 279.74 449.47 280.088 448.732C280.44 447.989 280.938 447.415 281.581 447.01C282.224 446.605 282.979 446.403 283.845 446.403C284.688 446.403 285.398 446.557 285.974 446.867C286.555 447.172 287.006 447.598 287.325 448.146C287.644 448.689 287.837 449.31 287.903 450.01H286.003C285.936 449.358 285.743 448.853 285.424 448.496C285.11 448.134 284.584 447.953 283.845 447.953C283.326 447.953 282.891 448.082 282.538 448.339C282.19 448.596 281.928 448.977 281.752 449.482C281.576 449.982 281.488 450.601 281.488 451.339V452.146C281.488 452.851 281.567 453.459 281.724 453.968C281.881 454.473 282.129 454.861 282.467 455.133C282.805 455.404 283.245 455.54 283.788 455.54C284.284 455.54 284.684 455.464 284.989 455.311C285.293 455.159 285.524 454.935 285.681 454.64C285.843 454.34 285.948 453.971 285.996 453.532H287.896ZM291.097 456.947H289.261V445.974H291.097V456.947ZM290.211 452.818C290.216 452.094 290.342 451.451 290.589 450.889C290.842 450.327 291.192 449.884 291.64 449.56C292.092 449.236 292.618 449.075 293.218 449.075C293.728 449.075 294.171 449.172 294.547 449.367C294.928 449.558 295.224 449.868 295.433 450.296C295.643 450.725 295.747 451.296 295.747 452.011V456.947H293.911V451.996C293.911 451.639 293.859 451.358 293.754 451.153C293.654 450.944 293.504 450.794 293.304 450.703C293.109 450.613 292.868 450.568 292.583 450.568C292.278 450.568 292.013 450.625 291.79 450.739C291.566 450.853 291.378 451.013 291.225 451.218C291.078 451.423 290.966 451.661 290.889 451.932C290.818 452.204 290.782 452.497 290.782 452.811L290.211 452.818ZM301.741 451.732C301.741 451.342 301.634 451.032 301.42 450.803C301.21 450.57 300.886 450.453 300.448 450.453C300.186 450.453 299.958 450.499 299.762 450.589C299.572 450.675 299.424 450.794 299.319 450.946C299.215 451.099 299.162 451.275 299.162 451.475H297.333C297.333 451.051 297.464 450.658 297.726 450.296C297.993 449.929 298.367 449.634 298.848 449.41C299.329 449.186 299.896 449.075 300.548 449.075C301.134 449.075 301.653 449.175 302.106 449.375C302.563 449.57 302.922 449.865 303.184 450.26C303.446 450.656 303.577 451.151 303.577 451.746V455.133C303.577 455.509 303.603 455.835 303.656 456.111C303.708 456.383 303.782 456.621 303.877 456.826V456.947H302.013C301.922 456.757 301.853 456.511 301.806 456.211C301.763 455.911 301.741 455.616 301.741 455.326V451.732ZM302.006 453.354H300.82C300.21 453.354 299.753 453.471 299.448 453.704C299.143 453.932 298.991 454.237 298.991 454.618C298.991 454.914 299.091 455.159 299.291 455.354C299.496 455.549 299.781 455.647 300.148 455.647C300.491 455.647 300.789 455.578 301.041 455.44C301.294 455.302 301.491 455.135 301.634 454.94C301.777 454.74 301.851 454.552 301.856 454.375L302.42 455.19C302.358 455.38 302.26 455.585 302.127 455.804C301.994 456.023 301.817 456.23 301.598 456.426C301.384 456.621 301.127 456.781 300.827 456.904C300.527 457.028 300.179 457.09 299.784 457.09C299.284 457.09 298.834 456.99 298.434 456.79C298.038 456.59 297.726 456.316 297.498 455.969C297.274 455.616 297.162 455.221 297.162 454.783C297.162 453.963 297.467 453.335 298.076 452.897C298.691 452.454 299.567 452.232 300.705 452.232H302.006V453.354ZM308.942 450.568H304.535V449.217H308.942V450.568ZM307.585 447.324V454.733C307.585 454.966 307.618 455.145 307.685 455.268C307.752 455.387 307.845 455.468 307.964 455.511C308.088 455.554 308.233 455.576 308.399 455.576C308.519 455.576 308.633 455.568 308.742 455.554C308.852 455.54 308.938 455.526 309 455.511V456.919C308.852 456.966 308.683 457.007 308.492 457.04C308.302 457.073 308.08 457.09 307.828 457.09C307.423 457.09 307.064 457.019 306.749 456.876C306.435 456.728 306.19 456.492 306.013 456.169C305.842 455.845 305.756 455.414 305.756 454.875V447.324H307.585ZM313.136 457.09C312.426 457.09 311.826 456.964 311.336 456.712C310.85 456.454 310.481 456.128 310.228 455.733C309.981 455.337 309.857 454.93 309.857 454.511H311.614C311.633 454.806 311.717 455.047 311.864 455.233C312.017 455.414 312.207 455.545 312.436 455.626C312.669 455.707 312.912 455.747 313.165 455.747C313.46 455.747 313.707 455.709 313.908 455.633C314.108 455.552 314.258 455.445 314.358 455.311C314.462 455.173 314.515 455.014 314.515 454.833C314.515 454.671 314.472 454.525 314.386 454.397C314.305 454.268 314.146 454.149 313.908 454.04C313.674 453.93 313.329 453.828 312.872 453.732C312.329 453.618 311.85 453.466 311.436 453.275C311.021 453.085 310.695 452.839 310.457 452.539C310.224 452.235 310.107 451.865 310.107 451.432C310.107 451.008 310.228 450.618 310.471 450.26C310.714 449.903 311.062 449.617 311.514 449.403C311.967 449.184 312.503 449.075 313.122 449.075C313.774 449.075 314.334 449.184 314.801 449.403C315.272 449.617 315.634 449.91 315.886 450.282C316.139 450.649 316.265 451.068 316.265 451.539H314.436C314.436 451.234 314.327 450.972 314.108 450.753C313.888 450.53 313.557 450.418 313.115 450.418C312.848 450.418 312.622 450.46 312.436 450.546C312.25 450.632 312.112 450.746 312.022 450.889C311.931 451.027 311.886 451.18 311.886 451.346C311.886 451.508 311.931 451.651 312.022 451.775C312.117 451.894 312.276 452.001 312.5 452.096C312.724 452.187 313.036 452.275 313.436 452.361C314.017 452.48 314.522 452.635 314.951 452.825C315.384 453.011 315.717 453.259 315.951 453.568C316.189 453.873 316.308 454.266 316.308 454.747C316.308 455.199 316.177 455.604 315.915 455.961C315.658 456.314 315.291 456.59 314.815 456.79C314.339 456.99 313.779 457.09 313.136 457.09Z" fill="#7A1600"/>
<path d="M297.892 514.879C297.892 516.319 297.32 517.699 296.302 518.718C295.283 519.736 293.903 520.308 292.463 520.308H260.663C260.168 520.308 259.694 520.504 259.345 520.854L252.216 527.982C251.041 529.157 249.033 528.325 249.033 526.664V487.735C249.033 486.296 249.605 484.915 250.623 483.897C251.641 482.879 253.022 482.307 254.462 482.307H292.463C293.903 482.307 295.283 482.879 296.302 483.897C297.32 484.915 297.892 486.296 297.892 487.735V514.879Z" fill="#7A1600"/>
<path d="M211.089 489.043C211.089 490.483 211.661 491.864 212.679 492.882C213.697 493.9 215.078 494.472 216.518 494.472H248.318C248.812 494.472 249.286 494.668 249.636 495.018L256.765 502.146C257.939 503.321 259.947 502.489 259.947 500.828V461.899C259.947 460.46 259.375 459.079 258.357 458.061C257.339 457.043 255.958 456.471 254.519 456.471H216.518C215.078 456.471 213.697 457.043 212.679 458.061C211.661 459.079 211.089 460.46 211.089 461.899V489.043Z" fill="#FE6533"/>
<mask id="mask0_1173_9312" style="mask-type:alpha" maskUnits="userSpaceOnUse" x="260" y="488" width="27" height="27">
<rect x="260.533" y="488.582" width="25.9044" height="25.9044" transform="rotate(0.935032 260.533 488.582)" fill="#D9D9D9"/>
</mask>
<g mask="url(#mask0_1173_9312)">
<path d="M273.242 506.071C272.385 506.057 271.686 505.348 271.778 504.497C271.852 503.819 271.97 503.29 272.133 502.909C272.404 502.274 272.969 501.586 273.827 500.845C274.575 500.209 275.146 499.656 275.54 499.186C275.935 498.716 276.137 498.175 276.147 497.563C276.159 496.826 275.922 496.21 275.435 495.716C274.948 495.223 274.264 494.969 273.383 494.954C272.466 494.939 271.764 495.207 271.278 495.756C271.198 495.848 271.121 495.939 271.048 496.031C270.5 496.721 269.554 497.134 268.749 496.774V496.774C268.031 496.454 267.661 495.622 268.077 494.954C268.468 494.325 268.978 493.756 269.606 493.246C270.627 492.417 271.902 492.015 273.431 492.04C275.319 492.071 276.763 492.621 277.762 493.69C278.761 494.759 279.249 496.03 279.225 497.505C279.21 498.405 279.004 499.17 278.607 499.803C278.21 500.435 277.591 501.149 276.75 501.945C275.855 502.776 275.309 503.41 275.113 503.848C275.032 504.029 274.967 504.263 274.916 504.551C274.768 505.395 274.099 506.085 273.242 506.071V506.071ZM273.096 512.545C272.502 512.536 271.998 512.316 271.582 511.886C271.166 511.457 270.963 510.945 270.973 510.352C270.982 509.758 271.202 509.253 271.632 508.838C272.061 508.422 272.573 508.219 273.166 508.228C273.76 508.238 274.265 508.458 274.68 508.887C275.096 509.317 275.299 509.828 275.289 510.422C275.28 511.016 275.06 511.52 274.631 511.936C274.201 512.352 273.689 512.555 273.096 512.545Z" fill="#FEFFC7"/>
</g>
<path d="M221.51 467.152L249.081 467.549" stroke="#FEFFC7" stroke-width="3.35587" stroke-linecap="round"/>
<path d="M221.258 475.024L248.829 475.421" stroke="#FEFFC7" stroke-width="3.35587" stroke-linecap="round"/>
<path d="M220.988 482.715L232.644 482.882" stroke="#FEFFC7" stroke-width="3.35587" stroke-linecap="round"/>
<path d="M792.939 398.522C796.798 396.442 801.688 395.65 806.282 395.65C811.754 395.65 817.647 396.773 821.715 399.859V437.74V443.352C817.647 440.265 811.754 439.143 806.282 439.143C802.214 439.143 796.742 440.377 792.954 442.201C792.673 442.201 792.533 442.398 792.253 442.398C791.551 442.398 790.85 441.696 790.85 440.995V402.342C790.85 400.778 791.562 399.265 792.939 398.522Z" fill="#7A1600"/>
<path d="M850.481 398.522C846.622 396.442 841.732 395.65 837.138 395.65C831.666 395.65 825.773 396.773 821.705 399.859V437.74V443.352C825.773 440.265 831.666 439.143 837.138 439.143C841.206 439.143 846.678 440.377 850.466 442.201C850.746 442.201 850.887 442.398 851.167 442.398C851.869 442.398 852.57 441.696 852.57 440.995V402.342C852.57 400.778 851.858 399.265 850.481 398.522Z" fill="#7A1600"/>
<path d="M821.705 399.828L839.818 388.22C840.484 387.793 841.358 388.271 841.358 389.062V428.477C841.358 429.192 840.976 429.852 840.357 430.209L835.444 433.043C832.603 434.682 829.89 436.533 827.329 438.581L821.705 443.077V399.828Z" fill="#FE6533"/>
<path d="M770.243 474.661H768.343V464.259H770.243V474.661ZM772.301 469.325L769.893 471.882L769.558 469.989L771.236 467.831L774.158 464.259H776.487L772.301 469.325ZM771.094 469.789L772.422 468.51L776.666 474.661H774.401L771.094 469.789ZM779.145 474.661H777.316V466.931H779.038L779.145 468.582V474.661ZM778.266 470.532C778.271 469.779 778.4 469.125 778.652 468.567C778.909 468.005 779.269 467.569 779.731 467.26C780.193 466.946 780.731 466.788 781.345 466.788C781.841 466.788 782.272 466.884 782.638 467.074C783.005 467.26 783.288 467.565 783.488 467.989C783.693 468.412 783.796 468.982 783.796 469.696V474.661H781.96V469.682C781.96 469.329 781.91 469.051 781.81 468.846C781.71 468.641 781.56 468.496 781.36 468.41C781.164 468.324 780.924 468.282 780.638 468.282C780.347 468.282 780.09 468.339 779.866 468.453C779.647 468.567 779.459 468.727 779.302 468.932C779.15 469.136 779.033 469.375 778.952 469.646C778.876 469.918 778.838 470.21 778.838 470.525L778.266 470.532ZM785.174 470.725C785.174 469.972 785.317 469.301 785.603 468.71C785.889 468.12 786.298 467.653 786.832 467.31C787.37 466.962 788.018 466.788 788.775 466.788C789.542 466.788 790.197 466.962 790.74 467.31C791.283 467.653 791.695 468.12 791.976 468.71C792.261 469.301 792.404 469.972 792.404 470.725V470.875C792.404 471.623 792.261 472.294 791.976 472.889C791.695 473.48 791.283 473.947 790.74 474.29C790.201 474.633 789.551 474.804 788.789 474.804C788.027 474.804 787.377 474.633 786.839 474.29C786.301 473.947 785.889 473.48 785.603 472.889C785.317 472.294 785.174 471.623 785.174 470.875V470.725ZM787.003 470.875C787.003 471.322 787.065 471.734 787.189 472.111C787.313 472.482 787.506 472.78 787.768 473.004C788.03 473.223 788.37 473.332 788.789 473.332C789.208 473.332 789.549 473.223 789.811 473.004C790.073 472.78 790.263 472.482 790.382 472.111C790.506 471.734 790.568 471.322 790.568 470.875V470.725C790.568 470.282 790.506 469.875 790.382 469.503C790.263 469.127 790.07 468.827 789.804 468.603C789.542 468.374 789.199 468.26 788.775 468.26C788.361 468.26 788.023 468.374 787.761 468.603C787.499 468.827 787.306 469.127 787.182 469.503C787.063 469.875 787.003 470.282 787.003 470.725V470.875ZM797.662 466.931H798.827L798.512 468.896L796.748 474.661H795.726L795.912 472.847L797.662 466.931ZM796.298 472.861L796.391 474.661H795.233L793.176 466.931H794.955L796.298 472.861ZM801.727 466.931H803.506L801.449 474.661H800.291L800.427 472.789L801.727 466.931ZM800.756 472.789L800.956 474.661H799.927L798.148 468.896L797.841 466.931H799.02L800.756 472.789ZM806.578 474.661H804.742V463.688H806.578V474.661ZM811.872 474.804C811.095 474.804 810.426 474.64 809.864 474.311C809.307 473.978 808.876 473.528 808.571 472.961C808.271 472.394 808.121 471.763 808.121 471.068V470.775C808.121 469.975 808.273 469.277 808.578 468.682C808.883 468.081 809.302 467.617 809.836 467.289C810.369 466.955 810.976 466.788 811.657 466.788C812.4 466.788 813.017 466.95 813.508 467.274C814.003 467.593 814.374 468.039 814.622 468.61C814.87 469.177 814.994 469.834 814.994 470.582V471.368H808.985V470.068H813.186V469.925C813.177 469.629 813.119 469.356 813.015 469.103C812.91 468.851 812.746 468.648 812.522 468.496C812.303 468.339 812.012 468.26 811.65 468.26C811.274 468.26 810.96 468.365 810.707 468.574C810.46 468.784 810.271 469.077 810.143 469.453C810.019 469.829 809.957 470.27 809.957 470.775V471.068C809.957 471.496 810.036 471.882 810.193 472.225C810.355 472.568 810.586 472.839 810.886 473.039C811.191 473.235 811.555 473.332 811.979 473.332C812.384 473.332 812.746 473.254 813.065 473.097C813.389 472.935 813.667 472.704 813.901 472.404L814.851 473.368C814.608 473.73 814.239 474.061 813.743 474.361C813.253 474.656 812.629 474.804 811.872 474.804ZM818.994 474.804C818.37 474.804 817.832 474.635 817.38 474.297C816.927 473.954 816.58 473.487 816.337 472.897C816.094 472.306 815.972 471.634 815.972 470.882V470.732C815.972 469.951 816.094 469.265 816.337 468.674C816.58 468.079 816.927 467.617 817.38 467.289C817.832 466.955 818.375 466.788 819.009 466.788C819.632 466.788 820.152 466.953 820.566 467.281C820.985 467.605 821.314 468.055 821.552 468.632C821.795 469.203 821.957 469.865 822.038 470.618V471.039C821.957 471.763 821.797 472.408 821.559 472.975C821.321 473.542 820.992 473.99 820.573 474.318C820.154 474.642 819.628 474.804 818.994 474.804ZM819.459 473.304C819.84 473.304 820.152 473.22 820.394 473.054C820.642 472.887 820.833 472.661 820.966 472.375C821.104 472.089 821.197 471.765 821.245 471.403V470.26C821.216 469.975 821.159 469.71 821.073 469.467C820.992 469.225 820.88 469.015 820.737 468.839C820.599 468.663 820.425 468.527 820.216 468.432C820.006 468.332 819.759 468.282 819.473 468.282C819.073 468.282 818.749 468.391 818.501 468.61C818.258 468.829 818.08 469.125 817.966 469.496C817.856 469.867 817.801 470.279 817.801 470.732V470.882C817.801 471.33 817.856 471.737 817.966 472.104C818.075 472.47 818.251 472.763 818.494 472.982C818.737 473.197 819.059 473.304 819.459 473.304ZM821.137 474.661L820.959 473.025V463.688H822.795V474.661H821.137ZM827.567 477.704C827.267 477.704 826.936 477.662 826.574 477.576C826.217 477.495 825.869 477.362 825.531 477.176C825.198 476.99 824.917 476.75 824.688 476.454L825.531 475.347C825.798 475.657 826.095 475.888 826.424 476.04C826.757 476.192 827.107 476.269 827.474 476.269C828.046 476.269 828.493 476.111 828.817 475.797C829.141 475.487 829.303 475.04 829.303 474.454V468.696L829.482 466.931H831.139V474.425C831.139 475.125 830.989 475.721 830.689 476.211C830.389 476.702 829.97 477.073 829.432 477.326C828.893 477.578 828.272 477.704 827.567 477.704ZM827.338 474.804C826.705 474.804 826.157 474.635 825.695 474.297C825.233 473.954 824.876 473.487 824.624 472.897C824.371 472.306 824.245 471.634 824.245 470.882V470.732C824.245 469.951 824.369 469.265 824.617 468.674C824.869 468.079 825.229 467.617 825.695 467.289C826.162 466.955 826.715 466.788 827.353 466.788C827.862 466.788 828.293 466.881 828.646 467.067C829.003 467.253 829.298 467.517 829.532 467.86C829.765 468.198 829.948 468.603 830.082 469.075C830.215 469.541 830.315 470.056 830.382 470.618V471.039C830.296 471.763 830.137 472.408 829.903 472.975C829.67 473.542 829.344 473.99 828.924 474.318C828.51 474.642 827.981 474.804 827.338 474.804ZM827.803 473.304C828.198 473.304 828.52 473.22 828.767 473.054C829.015 472.887 829.208 472.661 829.346 472.375C829.484 472.089 829.577 471.765 829.625 471.403V470.26C829.596 469.975 829.541 469.71 829.46 469.467C829.379 469.225 829.265 469.015 829.117 468.839C828.974 468.663 828.793 468.527 828.574 468.432C828.36 468.332 828.108 468.282 827.817 468.282C827.417 468.282 827.088 468.391 826.831 468.61C826.574 468.829 826.384 469.125 826.26 469.496C826.136 469.867 826.074 470.279 826.074 470.732V470.882C826.074 471.33 826.134 471.737 826.253 472.104C826.376 472.47 826.565 472.763 826.817 472.982C827.074 473.197 827.403 473.304 827.803 473.304ZM836.319 474.804C835.542 474.804 834.873 474.64 834.311 474.311C833.754 473.978 833.323 473.528 833.018 472.961C832.718 472.394 832.568 471.763 832.568 471.068V470.775C832.568 469.975 832.72 469.277 833.025 468.682C833.33 468.081 833.749 467.617 834.282 467.289C834.816 466.955 835.423 466.788 836.104 466.788C836.847 466.788 837.464 466.95 837.954 467.274C838.45 467.593 838.821 468.039 839.069 468.61C839.317 469.177 839.44 469.834 839.44 470.582V471.368H833.432V470.068H837.633V469.925C837.623 469.629 837.566 469.356 837.462 469.103C837.357 468.851 837.192 468.648 836.969 468.496C836.75 468.339 836.459 468.26 836.097 468.26C835.721 468.26 835.406 468.365 835.154 468.574C834.906 468.784 834.718 469.077 834.59 469.453C834.466 469.829 834.404 470.27 834.404 470.775V471.068C834.404 471.496 834.482 471.882 834.64 472.225C834.802 472.568 835.033 472.839 835.333 473.039C835.637 473.235 836.002 473.332 836.426 473.332C836.83 473.332 837.192 473.254 837.512 473.097C837.835 472.935 838.114 472.704 838.347 472.404L839.298 473.368C839.055 473.73 838.686 474.061 838.19 474.361C837.7 474.656 837.076 474.804 836.319 474.804ZM845.856 470.018V468.639H848.128C848.704 468.639 849.144 468.517 849.449 468.274C849.759 468.027 849.914 467.677 849.914 467.224C849.914 466.719 849.766 466.355 849.471 466.131C849.18 465.907 848.728 465.795 848.113 465.795H846.442V474.661H844.541V464.259H848.113C849.271 464.259 850.176 464.488 850.828 464.945C851.485 465.398 851.814 466.11 851.814 467.081C851.814 467.51 851.711 467.903 851.507 468.26C851.307 468.617 851.002 468.91 850.592 469.139C850.183 469.363 849.673 469.491 849.063 469.525L848.492 470.018H845.856ZM845.263 474.661L846.106 473.132H848.413C848.994 473.132 849.43 472.992 849.721 472.711C850.011 472.425 850.156 472.058 850.156 471.611C850.156 471.282 850.099 470.999 849.985 470.76C849.871 470.522 849.692 470.339 849.449 470.21C849.206 470.082 848.887 470.018 848.492 470.018H846.456V468.639H849.092L849.521 469.167C850.106 469.177 850.585 469.298 850.957 469.532C851.333 469.76 851.609 470.06 851.785 470.432C851.966 470.799 852.057 471.194 852.057 471.618C852.057 472.618 851.735 473.375 851.092 473.89C850.449 474.404 849.556 474.661 848.413 474.661H845.263ZM857.958 469.446C857.958 469.055 857.851 468.746 857.636 468.517C857.427 468.284 857.103 468.167 856.665 468.167C856.403 468.167 856.174 468.212 855.979 468.303C855.788 468.389 855.641 468.508 855.536 468.66C855.431 468.813 855.379 468.989 855.379 469.189H853.55C853.55 468.765 853.681 468.372 853.943 468.01C854.21 467.643 854.583 467.348 855.064 467.124C855.545 466.9 856.112 466.788 856.765 466.788C857.351 466.788 857.87 466.888 858.322 467.088C858.779 467.284 859.139 467.579 859.401 467.974C859.663 468.37 859.794 468.865 859.794 469.46V472.847C859.794 473.223 859.82 473.549 859.872 473.825C859.925 474.097 859.999 474.335 860.094 474.54V474.661H858.229C858.139 474.471 858.07 474.225 858.022 473.925C857.979 473.625 857.958 473.33 857.958 473.039V469.446ZM858.222 471.068H857.036C856.427 471.068 855.969 471.184 855.665 471.418C855.36 471.646 855.207 471.951 855.207 472.332C855.207 472.627 855.307 472.873 855.507 473.068C855.712 473.263 855.998 473.361 856.365 473.361C856.708 473.361 857.005 473.292 857.258 473.154C857.51 473.016 857.708 472.849 857.851 472.654C857.993 472.454 858.067 472.266 858.072 472.089L858.636 472.904C858.575 473.094 858.477 473.299 858.344 473.518C858.21 473.737 858.034 473.944 857.815 474.14C857.601 474.335 857.343 474.494 857.043 474.618C856.743 474.742 856.396 474.804 856 474.804C855.5 474.804 855.05 474.704 854.65 474.504C854.255 474.304 853.943 474.03 853.714 473.682C853.49 473.33 853.378 472.935 853.378 472.496C853.378 471.677 853.683 471.049 854.293 470.61C854.907 470.168 855.784 469.946 856.922 469.946H858.222V471.068ZM864.452 474.804C863.742 474.804 863.142 474.678 862.651 474.425C862.166 474.168 861.796 473.842 861.544 473.447C861.296 473.051 861.173 472.644 861.173 472.225H862.93C862.949 472.52 863.032 472.761 863.18 472.947C863.332 473.128 863.523 473.259 863.752 473.339C863.985 473.42 864.228 473.461 864.48 473.461C864.776 473.461 865.023 473.423 865.223 473.347C865.423 473.266 865.573 473.159 865.673 473.025C865.778 472.887 865.83 472.727 865.83 472.547C865.83 472.385 865.788 472.239 865.702 472.111C865.621 471.982 865.461 471.863 865.223 471.754C864.99 471.644 864.645 471.542 864.187 471.446C863.644 471.332 863.166 471.18 862.751 470.989C862.337 470.799 862.011 470.553 861.773 470.253C861.539 469.948 861.423 469.579 861.423 469.146C861.423 468.722 861.544 468.332 861.787 467.974C862.03 467.617 862.378 467.331 862.83 467.117C863.282 466.898 863.818 466.788 864.437 466.788C865.09 466.788 865.649 466.898 866.116 467.117C866.588 467.331 866.95 467.624 867.202 467.996C867.455 468.362 867.581 468.782 867.581 469.253H865.752C865.752 468.948 865.642 468.686 865.423 468.467C865.204 468.243 864.873 468.131 864.43 468.131C864.164 468.131 863.937 468.174 863.752 468.26C863.566 468.346 863.428 468.46 863.337 468.603C863.247 468.741 863.201 468.894 863.201 469.06C863.201 469.222 863.247 469.365 863.337 469.489C863.432 469.608 863.592 469.715 863.816 469.81C864.04 469.901 864.352 469.989 864.752 470.075C865.333 470.194 865.838 470.349 866.266 470.539C866.7 470.725 867.033 470.972 867.266 471.282C867.505 471.587 867.624 471.98 867.624 472.461C867.624 472.913 867.493 473.318 867.231 473.675C866.974 474.028 866.607 474.304 866.131 474.504C865.654 474.704 865.095 474.804 864.452 474.804ZM872.539 474.804C871.762 474.804 871.093 474.64 870.531 474.311C869.974 473.978 869.543 473.528 869.238 472.961C868.938 472.394 868.788 471.763 868.788 471.068V470.775C868.788 469.975 868.941 469.277 869.245 468.682C869.55 468.081 869.969 467.617 870.503 467.289C871.036 466.955 871.643 466.788 872.324 466.788C873.067 466.788 873.684 466.95 874.175 467.274C874.67 467.593 875.041 468.039 875.289 468.61C875.537 469.177 875.661 469.834 875.661 470.582V471.368H869.653V470.068H873.853V469.925C873.844 469.629 873.787 469.356 873.682 469.103C873.577 468.851 873.413 468.648 873.189 468.496C872.97 468.339 872.679 468.26 872.317 468.26C871.941 468.26 871.627 468.365 871.374 468.574C871.127 468.784 870.938 469.077 870.81 469.453C870.686 469.829 870.624 470.27 870.624 470.775V471.068C870.624 471.496 870.703 471.882 870.86 472.225C871.022 472.568 871.253 472.839 871.553 473.039C871.858 473.235 872.222 473.332 872.646 473.332C873.051 473.332 873.413 473.254 873.732 473.097C874.056 472.935 874.334 472.704 874.568 472.404L875.518 473.368C875.275 473.73 874.906 474.061 874.41 474.361C873.92 474.656 873.296 474.804 872.539 474.804Z" fill="#7A1600"/>
</g>
<defs>
<clipPath id="clip0_1173_9312">
<rect width="906" height="452" fill="white" transform="translate(32 148)"/>
</clipPath>
</defs>
</svg>
