<svg width="970" height="600" viewBox="0 0 970 600" fill="none" xmlns="http://www.w3.org/2000/svg">
<rect width="970" height="600" rx="20" fill="#FEFFC7"/>
<g clip-path="url(#clip0_1173_9093)">
<path d="M708.065 375.759C708.065 378.613 706.765 381.577 703.921 384.646C701.067 387.725 696.762 390.792 691.048 393.776C679.624 399.74 662.962 405.172 642.205 409.756C600.723 418.917 543.32 424.6 479.848 424.6C416.376 424.6 358.973 418.917 317.491 409.756C296.734 405.172 280.072 399.74 268.648 393.776C262.934 390.792 258.629 387.725 255.775 384.646C252.931 381.577 251.631 378.613 251.631 375.759C251.631 372.905 252.931 369.941 255.775 366.872C258.629 363.793 262.934 360.726 268.648 357.742C280.072 351.778 296.734 346.346 317.491 341.762C358.973 332.601 416.376 326.918 479.848 326.918C543.32 326.918 600.723 332.601 642.205 341.762C662.962 346.346 679.624 351.778 691.048 357.742C696.762 360.726 701.067 363.793 703.921 366.872C706.765 369.941 708.065 372.905 708.065 375.759Z" stroke="#F7F9B3" stroke-width="4"/>
<path d="M548.164 382.729C548.164 383.259 547.886 383.903 547.074 384.659C546.263 385.414 545.01 386.191 543.306 386.959C539.902 388.492 534.915 389.898 528.674 391.087C516.209 393.462 498.945 394.938 479.847 394.938C460.749 394.938 443.486 393.462 431.021 391.087C424.78 389.898 419.792 388.492 416.389 386.959C414.684 386.191 413.432 385.414 412.621 384.659C411.809 383.903 411.531 383.259 411.531 382.729C411.531 382.199 411.809 381.555 412.621 380.798C413.432 380.043 414.684 379.267 416.389 378.499C419.792 376.966 424.78 375.56 431.021 374.371C443.486 371.995 460.749 370.52 479.847 370.52C498.945 370.52 516.209 371.995 528.674 374.371C534.915 375.56 539.902 376.966 543.306 378.499C545.01 379.267 546.263 380.043 547.074 380.798C547.886 381.555 548.164 382.199 548.164 382.729Z" fill="#F7F9B3" stroke="#F7F9B3" stroke-width="2"/>
<path d="M866.545 344.408C866.545 358.265 856.408 371.936 836.902 384.739C817.478 397.489 789.238 409.047 754.164 418.784C684.042 438.251 587.057 450.318 479.849 450.318C372.641 450.318 275.655 438.251 205.534 418.784C170.459 409.047 142.22 397.489 122.795 384.739C103.29 371.936 93.1523 358.265 93.1523 344.408C93.1523 330.551 103.29 316.879 122.795 304.076C142.22 291.327 170.459 279.769 205.534 270.031C275.655 250.564 372.641 238.498 479.849 238.498C587.057 238.498 684.042 250.564 754.164 270.031C789.238 279.769 817.478 291.327 836.902 304.076C856.408 316.879 866.545 330.551 866.545 344.408Z" stroke="#F7F9B3" stroke-width="4"/>
<path d="M1002.78 318.727C1002.78 341.501 988.645 363.53 962.305 383.866C935.993 404.18 897.792 422.56 850.409 438.033C755.665 468.971 624.651 488.139 479.847 488.139C335.042 488.139 204.028 468.971 109.284 438.033C61.901 422.56 23.7007 404.18 -2.61192 383.866C-28.9519 363.53 -43.0859 341.501 -43.0859 318.727C-43.0859 295.954 -28.9519 273.924 -2.61192 253.589C23.7007 233.275 61.901 214.895 109.284 199.422C204.028 168.484 335.042 149.315 479.847 149.315C624.651 149.315 755.665 168.484 850.409 199.422C897.792 214.895 935.993 233.275 962.305 253.589C988.645 273.924 1002.78 295.954 1002.78 318.727Z" stroke="#F7F9B3" stroke-width="4"/>
<path d="M1134.45 318.728C1134.45 347.438 1116.63 375.122 1083.62 400.601C1050.65 426.059 1002.81 449.072 943.512 468.434C824.941 507.153 661.011 531.133 479.849 531.133C298.686 531.133 134.756 507.153 16.1855 468.434C-43.1109 449.072 -90.952 426.059 -123.927 400.601C-156.93 375.122 -174.748 347.438 -174.748 318.728C-174.748 290.018 -156.93 262.334 -123.927 236.855C-90.952 211.397 -43.1109 188.384 16.1855 169.021C134.756 130.303 298.686 106.322 479.849 106.322C661.011 106.322 824.941 130.303 943.512 169.021C1002.81 188.384 1050.65 211.397 1083.62 236.855C1116.63 262.334 1134.45 290.018 1134.45 318.728Z" stroke="#F7F9B3" stroke-width="4"/>
<path d="M471.641 162.202C471.136 162.202 470.641 162.136 470.155 162.002C469.669 161.864 469.226 161.657 468.826 161.381C468.431 161.105 468.114 160.759 467.876 160.345C467.643 159.926 467.526 159.433 467.526 158.866H469.433C469.433 159.195 469.488 159.476 469.598 159.709C469.712 159.938 469.869 160.126 470.069 160.274C470.269 160.421 470.503 160.528 470.769 160.595C471.036 160.662 471.327 160.695 471.641 160.695C472.051 160.695 472.389 160.638 472.655 160.524C472.922 160.409 473.122 160.252 473.255 160.052C473.394 159.852 473.463 159.621 473.463 159.359C473.463 159.088 473.406 158.857 473.291 158.666C473.177 158.471 472.963 158.29 472.648 158.123C472.339 157.952 471.886 157.776 471.291 157.595C470.805 157.447 470.353 157.278 469.934 157.087C469.519 156.897 469.155 156.675 468.84 156.423C468.526 156.171 468.281 155.88 468.105 155.551C467.933 155.218 467.847 154.832 467.847 154.394C467.847 153.827 468.005 153.327 468.319 152.894C468.638 152.46 469.079 152.122 469.641 151.879C470.203 151.636 470.85 151.515 471.584 151.515C472.365 151.515 473.036 151.658 473.598 151.944C474.165 152.225 474.601 152.606 474.906 153.087C475.211 153.568 475.363 154.106 475.363 154.701H473.456C473.456 154.377 473.386 154.089 473.248 153.837C473.115 153.584 472.908 153.389 472.627 153.251C472.351 153.108 471.996 153.037 471.562 153.037C471.158 153.037 470.819 153.096 470.548 153.215C470.281 153.334 470.081 153.496 469.948 153.701C469.819 153.906 469.755 154.137 469.755 154.394C469.755 154.646 469.834 154.868 469.991 155.058C470.153 155.249 470.395 155.423 470.719 155.58C471.043 155.732 471.446 155.882 471.927 156.03C472.698 156.254 473.339 156.518 473.848 156.823C474.358 157.123 474.739 157.48 474.991 157.895C475.244 158.304 475.37 158.788 475.37 159.345C475.37 159.935 475.215 160.445 474.906 160.874C474.601 161.302 474.17 161.631 473.613 161.86C473.055 162.088 472.398 162.202 471.641 162.202ZM481.071 156.844C481.071 156.454 480.964 156.144 480.75 155.916C480.54 155.682 480.216 155.566 479.778 155.566C479.516 155.566 479.287 155.611 479.092 155.701C478.902 155.787 478.754 155.906 478.649 156.059C478.544 156.211 478.492 156.387 478.492 156.587H476.663C476.663 156.163 476.794 155.77 477.056 155.408C477.323 155.042 477.697 154.746 478.178 154.523C478.659 154.299 479.226 154.187 479.878 154.187C480.464 154.187 480.983 154.287 481.435 154.487C481.893 154.682 482.252 154.977 482.514 155.373C482.776 155.768 482.907 156.263 482.907 156.859V160.245C482.907 160.621 482.933 160.947 482.986 161.224C483.038 161.495 483.112 161.733 483.207 161.938V162.06H481.343C481.252 161.869 481.183 161.624 481.135 161.324C481.092 161.024 481.071 160.728 481.071 160.438V156.844ZM481.335 158.466H480.149C479.54 158.466 479.083 158.583 478.778 158.816C478.473 159.045 478.321 159.35 478.321 159.731C478.321 160.026 478.421 160.271 478.621 160.466C478.825 160.662 479.111 160.759 479.478 160.759C479.821 160.759 480.119 160.69 480.371 160.552C480.623 160.414 480.821 160.247 480.964 160.052C481.107 159.852 481.181 159.664 481.185 159.488L481.75 160.302C481.688 160.493 481.59 160.697 481.457 160.917C481.323 161.136 481.147 161.343 480.928 161.538C480.714 161.733 480.457 161.893 480.157 162.017C479.857 162.141 479.509 162.202 479.114 162.202C478.614 162.202 478.163 162.102 477.763 161.902C477.368 161.702 477.056 161.429 476.828 161.081C476.604 160.728 476.492 160.333 476.492 159.895C476.492 159.076 476.797 158.447 477.406 158.009C478.021 157.566 478.897 157.345 480.035 157.345H481.335V158.466ZM486.601 162.06H484.765V151.086H486.601V162.06ZM491.894 162.202C491.118 162.202 490.449 162.038 489.887 161.71C489.33 161.376 488.899 160.926 488.594 160.359C488.294 159.793 488.144 159.161 488.144 158.466V158.173C488.144 157.373 488.296 156.675 488.601 156.08C488.906 155.48 489.325 155.016 489.858 154.687C490.392 154.354 490.999 154.187 491.68 154.187C492.423 154.187 493.04 154.349 493.53 154.673C494.026 154.992 494.397 155.437 494.645 156.009C494.892 156.575 495.016 157.233 495.016 157.98V158.766H489.008V157.466H493.209V157.323C493.199 157.028 493.142 156.754 493.037 156.502C492.933 156.249 492.768 156.047 492.544 155.894C492.325 155.737 492.035 155.659 491.673 155.659C491.297 155.659 490.982 155.763 490.73 155.973C490.482 156.182 490.294 156.475 490.165 156.852C490.042 157.228 489.98 157.668 489.98 158.173V158.466C489.98 158.895 490.058 159.281 490.215 159.623C490.377 159.966 490.608 160.238 490.908 160.438C491.213 160.633 491.578 160.731 492.001 160.731C492.406 160.731 492.768 160.652 493.087 160.495C493.411 160.333 493.69 160.102 493.923 159.802L494.873 160.767C494.63 161.128 494.261 161.459 493.766 161.76C493.275 162.055 492.652 162.202 491.894 162.202ZM499.224 162.202C498.514 162.202 497.914 162.076 497.424 161.824C496.938 161.567 496.569 161.24 496.316 160.845C496.069 160.45 495.945 160.043 495.945 159.623H497.702C497.721 159.919 497.805 160.159 497.952 160.345C498.105 160.526 498.295 160.657 498.524 160.738C498.757 160.819 499 160.859 499.253 160.859C499.548 160.859 499.796 160.821 499.996 160.745C500.196 160.664 500.346 160.557 500.446 160.424C500.55 160.285 500.603 160.126 500.603 159.945C500.603 159.783 500.56 159.638 500.474 159.509C500.393 159.381 500.234 159.261 499.996 159.152C499.762 159.042 499.417 158.94 498.96 158.845C498.417 158.73 497.938 158.578 497.524 158.388C497.109 158.197 496.783 157.952 496.545 157.652C496.312 157.347 496.195 156.978 496.195 156.544C496.195 156.121 496.316 155.73 496.559 155.373C496.802 155.016 497.15 154.73 497.602 154.515C498.055 154.296 498.591 154.187 499.21 154.187C499.862 154.187 500.422 154.296 500.889 154.515C501.36 154.73 501.722 155.023 501.974 155.394C502.227 155.761 502.353 156.18 502.353 156.652H500.524C500.524 156.347 500.415 156.085 500.196 155.866C499.977 155.642 499.646 155.53 499.203 155.53C498.936 155.53 498.71 155.573 498.524 155.659C498.338 155.744 498.2 155.859 498.11 156.001C498.019 156.14 497.974 156.292 497.974 156.459C497.974 156.621 498.019 156.763 498.11 156.887C498.205 157.006 498.364 157.114 498.588 157.209C498.812 157.299 499.124 157.387 499.524 157.473C500.105 157.592 500.61 157.747 501.039 157.937C501.472 158.123 501.805 158.371 502.039 158.68C502.277 158.985 502.396 159.378 502.396 159.859C502.396 160.312 502.265 160.716 502.003 161.074C501.746 161.426 501.379 161.702 500.903 161.902C500.427 162.102 499.867 162.202 499.224 162.202Z" fill="#7A1600"/>
<rect x="445.984" y="173.06" width="78.0318" height="78.0318" rx="7.31548" fill="#F7F9B3"/>
<path d="M486.838 193.509H510.828C513.359 193.509 514.632 196.564 512.85 198.36L486.473 224.955C485.352 226.085 483.523 226.076 482.412 224.936L470.708 212.921C469.634 211.818 469.631 210.062 470.7 208.956L484.791 194.377C485.328 193.822 486.067 193.509 486.838 193.509Z" fill="#FE6533"/>
<path d="M481.257 193.509H459.175C456.698 193.509 455.403 196.452 457.075 198.279L484.604 228.332C485.7 229.527 487.57 229.568 488.717 228.422L500.349 216.79C501.431 215.708 501.464 213.964 500.423 212.841L483.345 194.42C482.806 193.839 482.05 193.509 481.257 193.509Z" fill="#7A1600"/>
<path d="M479.074 200.316L484.028 195.11L488.936 200.36L483.966 205.168C482.618 206.473 480.474 206.459 479.142 205.137C477.812 203.816 477.781 201.674 479.074 200.316Z" fill="#FE6533"/>
<rect x="466.318" y="213.246" width="6.77329" height="23.7348" rx="3.38665" transform="rotate(-42.8644 466.318 213.246)" fill="#FE6533"/>
<path d="M696.798 289.979H694.897V279.577H696.798V289.979ZM700.984 285.614H696.319V284.085H700.984V285.614ZM701.563 281.113H696.319V279.577H701.563V281.113ZM703.827 279.27C704.151 279.27 704.406 279.362 704.592 279.548C704.778 279.729 704.87 279.958 704.87 280.234C704.87 280.51 704.778 280.741 704.592 280.927C704.406 281.108 704.151 281.199 703.827 281.199C703.504 281.199 703.249 281.108 703.063 280.927C702.882 280.741 702.791 280.51 702.791 280.234C702.791 279.958 702.882 279.729 703.063 279.548C703.249 279.362 703.504 279.27 703.827 279.27ZM704.749 289.979H702.913V282.249H704.749V289.979ZM708.414 289.979H706.585V282.249H708.307L708.414 283.899V289.979ZM707.535 285.849C707.54 285.097 707.668 284.442 707.921 283.885C708.178 283.323 708.538 282.887 709 282.577C709.462 282.263 710 282.106 710.614 282.106C711.11 282.106 711.541 282.201 711.907 282.392C712.274 282.577 712.557 282.882 712.757 283.306C712.962 283.73 713.065 284.299 713.065 285.013V289.979H711.229V284.999C711.229 284.647 711.179 284.368 711.079 284.163C710.979 283.958 710.829 283.813 710.628 283.727C710.433 283.642 710.193 283.599 709.907 283.599C709.616 283.599 709.359 283.656 709.135 283.77C708.916 283.885 708.728 284.044 708.571 284.249C708.419 284.454 708.302 284.692 708.221 284.963C708.145 285.235 708.107 285.528 708.107 285.842L707.535 285.849ZM719.073 284.763C719.073 284.373 718.966 284.063 718.751 283.835C718.542 283.601 718.218 283.485 717.78 283.485C717.518 283.485 717.289 283.53 717.094 283.62C716.903 283.706 716.756 283.825 716.651 283.978C716.546 284.13 716.494 284.306 716.494 284.506H714.665C714.665 284.082 714.796 283.689 715.058 283.327C715.324 282.961 715.698 282.665 716.179 282.442C716.66 282.218 717.227 282.106 717.88 282.106C718.465 282.106 718.985 282.206 719.437 282.406C719.894 282.601 720.254 282.896 720.516 283.292C720.778 283.687 720.909 284.182 720.909 284.778V288.164C720.909 288.54 720.935 288.866 720.987 289.143C721.04 289.414 721.114 289.652 721.209 289.857V289.979H719.344C719.254 289.788 719.185 289.543 719.137 289.243C719.094 288.943 719.073 288.647 719.073 288.357V284.763ZM719.337 286.385H718.151C717.542 286.385 717.084 286.502 716.779 286.735C716.475 286.964 716.322 287.269 716.322 287.65C716.322 287.945 716.422 288.19 716.622 288.385C716.827 288.581 717.113 288.678 717.48 288.678C717.823 288.678 718.12 288.609 718.373 288.471C718.625 288.333 718.823 288.166 718.966 287.971C719.108 287.771 719.182 287.583 719.187 287.407L719.751 288.221C719.689 288.412 719.592 288.616 719.458 288.835C719.325 289.055 719.149 289.262 718.93 289.457C718.716 289.652 718.458 289.812 718.158 289.936C717.858 290.059 717.511 290.121 717.115 290.121C716.615 290.121 716.165 290.021 715.765 289.821C715.37 289.621 715.058 289.347 714.829 289C714.605 288.647 714.493 288.252 714.493 287.814C714.493 286.995 714.798 286.366 715.408 285.928C716.022 285.485 716.899 285.263 718.037 285.263H719.337V286.385ZM724.459 289.979H722.63V282.249H724.352L724.459 283.899V289.979ZM723.581 285.849C723.585 285.097 723.714 284.442 723.966 283.885C724.224 283.323 724.583 282.887 725.045 282.577C725.507 282.263 726.045 282.106 726.66 282.106C727.155 282.106 727.586 282.201 727.953 282.392C728.319 282.577 728.603 282.882 728.803 283.306C729.008 283.73 729.11 284.299 729.11 285.013V289.979H727.274V284.999C727.274 284.647 727.224 284.368 727.124 284.163C727.024 283.958 726.874 283.813 726.674 283.727C726.479 283.642 726.238 283.599 725.952 283.599C725.662 283.599 725.405 283.656 725.181 283.77C724.962 283.885 724.774 284.044 724.616 284.249C724.464 284.454 724.347 284.692 724.266 284.963C724.19 285.235 724.152 285.528 724.152 285.842L723.581 285.849ZM734.018 290.121C733.227 290.121 732.57 289.948 732.046 289.6C731.522 289.247 731.132 288.778 730.875 288.193C730.617 287.602 730.489 286.949 730.489 286.235V285.999C730.489 285.28 730.617 284.628 730.875 284.042C731.137 283.451 731.527 282.982 732.046 282.634C732.57 282.282 733.225 282.106 734.011 282.106C734.635 282.106 735.182 282.23 735.654 282.477C736.13 282.72 736.502 283.063 736.768 283.506C737.035 283.944 737.173 284.461 737.183 285.056H735.461C735.452 284.785 735.387 284.537 735.268 284.313C735.149 284.089 734.98 283.911 734.761 283.778C734.547 283.644 734.287 283.577 733.982 283.577C733.539 283.577 733.196 283.694 732.954 283.928C732.715 284.161 732.549 284.463 732.453 284.835C732.363 285.202 732.318 285.59 732.318 285.999V286.235C732.318 286.645 732.363 287.035 732.453 287.407C732.544 287.773 732.711 288.073 732.954 288.307C733.196 288.535 733.544 288.65 733.997 288.65C734.268 288.65 734.511 288.597 734.725 288.493C734.944 288.383 735.118 288.233 735.247 288.042C735.38 287.852 735.452 287.631 735.461 287.378H737.183C737.173 287.892 737.026 288.357 736.74 288.771C736.454 289.186 736.073 289.514 735.597 289.757C735.125 290 734.599 290.121 734.018 290.121ZM741.926 290.121C741.15 290.121 740.481 289.957 739.919 289.628C739.362 289.295 738.931 288.845 738.626 288.278C738.326 287.711 738.176 287.08 738.176 286.385V286.092C738.176 285.292 738.328 284.594 738.633 283.999C738.938 283.399 739.357 282.935 739.89 282.606C740.424 282.272 741.031 282.106 741.712 282.106C742.455 282.106 743.072 282.268 743.562 282.592C744.058 282.911 744.429 283.356 744.677 283.928C744.925 284.494 745.048 285.152 745.048 285.899V286.685H739.04V285.385H743.241V285.242C743.231 284.947 743.174 284.673 743.069 284.42C742.965 284.168 742.8 283.966 742.577 283.813C742.357 283.656 742.067 283.577 741.705 283.577C741.329 283.577 741.014 283.682 740.762 283.892C740.514 284.101 740.326 284.394 740.198 284.771C740.074 285.147 740.012 285.587 740.012 286.092V286.385C740.012 286.814 740.09 287.199 740.248 287.542C740.41 287.885 740.641 288.157 740.941 288.357C741.245 288.552 741.61 288.65 742.034 288.65C742.438 288.65 742.8 288.571 743.119 288.414C743.443 288.252 743.722 288.021 743.955 287.721L744.905 288.685C744.663 289.047 744.293 289.378 743.798 289.678C743.308 289.974 742.684 290.121 741.926 290.121Z" fill="#7A1600"/>
<rect x="680.664" y="300.979" width="78.0318" height="78.0318" rx="7.31548" fill="#F7F9B3"/>
<g clip-path="url(#clip1_1173_9093)">
<rect x="695.293" y="321.769" width="42.6736" height="30.4812" rx="3.04812" fill="#7A1600"/>
<rect x="701.389" y="327.739" width="42.6736" height="30.4812" rx="3.04812" fill="#FE6533"/>
<path d="M722.73 334.034V337.047" stroke="#7A1600" stroke-width="3.04812" stroke-linecap="round" stroke-linejoin="round"/>
<path d="M722.73 348.996V351.927" stroke="#7A1600" stroke-width="3.04812" stroke-linecap="round" stroke-linejoin="round"/>
<path d="M727.316 337.357H720.435C719.584 337.357 718.767 337.664 718.165 338.21C717.563 338.755 717.225 339.495 717.225 340.267C717.225 341.039 717.563 341.779 718.165 342.324C718.767 342.87 719.584 343.177 720.435 343.177H725.022C725.874 343.177 726.69 343.483 727.292 344.029C727.895 344.574 728.233 345.314 728.233 346.086C728.233 346.858 727.895 347.598 727.292 348.143C726.69 348.689 725.874 348.996 725.022 348.996H717.225" stroke="#7A1600" stroke-width="3.04812" stroke-linecap="round" stroke-linejoin="round"/>
</g>
<path d="M216.748 289.064H214.847V278.663H216.748V289.064ZM220.555 289.064H218.726V281.335H220.448L220.555 282.985V289.064ZM219.677 284.935C219.681 284.183 219.81 283.528 220.062 282.971C220.32 282.409 220.679 281.973 221.141 281.663C221.603 281.349 222.141 281.192 222.756 281.192C223.251 281.192 223.682 281.287 224.049 281.478C224.415 281.663 224.699 281.968 224.899 282.392C225.104 282.816 225.206 283.385 225.206 284.099V289.064H223.37V284.085C223.37 283.733 223.32 283.454 223.22 283.249C223.12 283.044 222.97 282.899 222.77 282.813C222.575 282.728 222.334 282.685 222.048 282.685C221.758 282.685 221.501 282.742 221.277 282.856C221.058 282.971 220.87 283.13 220.712 283.335C220.56 283.54 220.443 283.778 220.362 284.049C220.286 284.321 220.248 284.614 220.248 284.928L219.677 284.935ZM229.821 289.207C229.111 289.207 228.511 289.081 228.021 288.829C227.535 288.572 227.166 288.245 226.913 287.85C226.666 287.455 226.542 287.047 226.542 286.628H228.299C228.318 286.924 228.402 287.164 228.549 287.35C228.702 287.531 228.892 287.662 229.121 287.743C229.354 287.824 229.597 287.864 229.85 287.864C230.145 287.864 230.393 287.826 230.593 287.75C230.793 287.669 230.943 287.562 231.043 287.428C231.148 287.29 231.2 287.131 231.2 286.95C231.2 286.788 231.157 286.643 231.071 286.514C230.99 286.385 230.831 286.266 230.593 286.157C230.359 286.047 230.014 285.945 229.557 285.85C229.014 285.735 228.535 285.583 228.121 285.392C227.706 285.202 227.38 284.957 227.142 284.657C226.909 284.352 226.792 283.983 226.792 283.549C226.792 283.125 226.913 282.735 227.156 282.378C227.399 282.02 227.747 281.735 228.199 281.52C228.652 281.301 229.188 281.192 229.807 281.192C230.459 281.192 231.019 281.301 231.486 281.52C231.957 281.735 232.319 282.028 232.572 282.399C232.824 282.766 232.95 283.185 232.95 283.656H231.121C231.121 283.352 231.012 283.09 230.793 282.871C230.574 282.647 230.243 282.535 229.8 282.535C229.533 282.535 229.307 282.578 229.121 282.663C228.935 282.749 228.797 282.863 228.707 283.006C228.616 283.144 228.571 283.297 228.571 283.464C228.571 283.625 228.616 283.768 228.707 283.892C228.802 284.011 228.961 284.118 229.185 284.214C229.409 284.304 229.721 284.392 230.121 284.478C230.702 284.597 231.207 284.752 231.636 284.942C232.069 285.128 232.402 285.376 232.636 285.685C232.874 285.99 232.993 286.383 232.993 286.864C232.993 287.317 232.862 287.721 232.6 288.079C232.343 288.431 231.976 288.707 231.5 288.907C231.024 289.107 230.464 289.207 229.821 289.207ZM235.501 278.356C235.824 278.356 236.079 278.448 236.265 278.634C236.451 278.815 236.544 279.044 236.544 279.32C236.544 279.596 236.451 279.827 236.265 280.013C236.079 280.194 235.824 280.284 235.501 280.284C235.177 280.284 234.922 280.194 234.736 280.013C234.555 279.827 234.465 279.596 234.465 279.32C234.465 279.044 234.555 278.815 234.736 278.634C234.922 278.448 235.177 278.356 235.501 278.356ZM236.422 289.064H234.586V281.335H236.422V289.064ZM241.302 292.108C241.001 292.108 240.67 292.065 240.309 291.979C239.951 291.898 239.604 291.765 239.266 291.579C238.932 291.393 238.651 291.153 238.423 290.858L239.266 289.75C239.532 290.06 239.83 290.291 240.159 290.443C240.492 290.596 240.842 290.672 241.209 290.672C241.78 290.672 242.228 290.515 242.552 290.2C242.876 289.891 243.038 289.443 243.038 288.857V283.099L243.216 281.335H244.874V288.829C244.874 289.529 244.724 290.124 244.423 290.615C244.123 291.105 243.704 291.477 243.166 291.729C242.628 291.982 242.006 292.108 241.302 292.108ZM241.073 289.207C240.44 289.207 239.892 289.038 239.43 288.7C238.968 288.357 238.611 287.89 238.358 287.3C238.106 286.709 237.98 286.038 237.98 285.285V285.135C237.98 284.354 238.103 283.668 238.351 283.078C238.603 282.482 238.963 282.02 239.43 281.692C239.897 281.358 240.449 281.192 241.087 281.192C241.597 281.192 242.028 281.285 242.38 281.47C242.737 281.656 243.033 281.92 243.266 282.263C243.5 282.601 243.683 283.006 243.816 283.478C243.95 283.945 244.05 284.459 244.116 285.021V285.442C244.031 286.166 243.871 286.812 243.638 287.378C243.404 287.945 243.078 288.393 242.659 288.722C242.245 289.045 241.716 289.207 241.073 289.207ZM241.537 287.707C241.933 287.707 242.254 287.624 242.502 287.457C242.749 287.29 242.942 287.064 243.08 286.778C243.219 286.493 243.311 286.169 243.359 285.807V284.664C243.33 284.378 243.276 284.114 243.195 283.871C243.114 283.628 242.999 283.418 242.852 283.242C242.709 283.066 242.528 282.93 242.309 282.835C242.095 282.735 241.842 282.685 241.552 282.685C241.152 282.685 240.823 282.794 240.566 283.013C240.309 283.233 240.118 283.528 239.994 283.899C239.87 284.271 239.808 284.683 239.808 285.135V285.285C239.808 285.733 239.868 286.14 239.987 286.507C240.111 286.874 240.299 287.167 240.551 287.386C240.809 287.6 241.137 287.707 241.537 287.707ZM248.403 289.064H246.567V278.091H248.403V289.064ZM247.517 284.935C247.522 284.211 247.648 283.568 247.895 283.006C248.148 282.444 248.498 282.001 248.946 281.678C249.398 281.354 249.924 281.192 250.524 281.192C251.034 281.192 251.477 281.289 251.853 281.485C252.234 281.675 252.53 281.985 252.739 282.413C252.949 282.842 253.053 283.414 253.053 284.128V289.064H251.217V284.114C251.217 283.756 251.165 283.475 251.06 283.271C250.96 283.061 250.81 282.911 250.61 282.821C250.415 282.73 250.174 282.685 249.889 282.685C249.584 282.685 249.32 282.742 249.096 282.856C248.872 282.971 248.684 283.13 248.531 283.335C248.384 283.54 248.272 283.778 248.196 284.049C248.124 284.321 248.088 284.614 248.088 284.928L247.517 284.935ZM258.361 282.685H253.954V281.335H258.361V282.685ZM257.004 279.441V286.85C257.004 287.083 257.037 287.262 257.104 287.386C257.171 287.505 257.264 287.586 257.383 287.629C257.507 287.671 257.652 287.693 257.819 287.693C257.938 287.693 258.052 287.686 258.161 287.671C258.271 287.657 258.357 287.643 258.419 287.629V289.036C258.271 289.084 258.102 289.124 257.911 289.157C257.721 289.191 257.499 289.207 257.247 289.207C256.842 289.207 256.483 289.136 256.168 288.993C255.854 288.845 255.609 288.61 255.432 288.286C255.261 287.962 255.175 287.531 255.175 286.993V279.441H257.004ZM262.555 289.207C261.845 289.207 261.245 289.081 260.755 288.829C260.269 288.572 259.9 288.245 259.647 287.85C259.4 287.455 259.276 287.047 259.276 286.628H261.033C261.052 286.924 261.136 287.164 261.283 287.35C261.436 287.531 261.626 287.662 261.855 287.743C262.088 287.824 262.331 287.864 262.584 287.864C262.879 287.864 263.127 287.826 263.327 287.75C263.527 287.669 263.677 287.562 263.777 287.428C263.881 287.29 263.934 287.131 263.934 286.95C263.934 286.788 263.891 286.643 263.805 286.514C263.724 286.385 263.565 286.266 263.327 286.157C263.093 286.047 262.748 285.945 262.291 285.85C261.748 285.735 261.269 285.583 260.855 285.392C260.44 285.202 260.114 284.957 259.876 284.657C259.643 284.352 259.526 283.983 259.526 283.549C259.526 283.125 259.647 282.735 259.89 282.378C260.133 282.02 260.481 281.735 260.933 281.52C261.386 281.301 261.922 281.192 262.541 281.192C263.193 281.192 263.753 281.301 264.22 281.52C264.691 281.735 265.053 282.028 265.305 282.399C265.558 282.766 265.684 283.185 265.684 283.656H263.855C263.855 283.352 263.746 283.09 263.527 282.871C263.308 282.647 262.977 282.535 262.534 282.535C262.267 282.535 262.041 282.578 261.855 282.663C261.669 282.749 261.531 282.863 261.441 283.006C261.35 283.144 261.305 283.297 261.305 283.464C261.305 283.625 261.35 283.768 261.441 283.892C261.536 284.011 261.695 284.118 261.919 284.214C262.143 284.304 262.455 284.392 262.855 284.478C263.436 284.597 263.941 284.752 264.37 284.942C264.803 285.128 265.136 285.376 265.37 285.685C265.608 285.99 265.727 286.383 265.727 286.864C265.727 287.317 265.596 287.721 265.334 288.079C265.077 288.431 264.71 288.707 264.234 288.907C263.758 289.107 263.198 289.207 262.555 289.207Z" fill="#7A1600"/>
<rect x="201.385" y="300.064" width="77.2619" height="77.2619" rx="7.31548" fill="#F7F9B3"/>
<path d="M222.318 325.692C222.797 321.87 226.057 318.914 230.008 318.914C232.33 318.742 236.738 319.871 237.603 325.333C237.776 326.428 238.65 327.335 239.758 327.335C240.867 327.335 241.741 326.428 241.913 325.333C242.777 319.845 247.201 318.731 249.53 318.914C253.49 318.914 256.757 321.884 257.224 325.719L261.979 348.708H242.147V343.786C242.147 342.572 241.163 341.588 239.949 341.588C238.736 341.588 237.752 342.572 237.752 343.786V348.708H218.102L222.318 325.692Z" fill="#7A1600"/>
<ellipse cx="227.907" cy="348.644" rx="9.85219" ry="9.852" fill="#FE6533"/>
<ellipse cx="251.989" cy="348.643" rx="9.85219" ry="9.852" fill="#FE6533"/>
<path d="M831.77 160.542C831.717 161.228 831.527 161.84 831.198 162.378C830.87 162.916 830.41 163.338 829.819 163.643C829.229 163.948 828.51 164.1 827.662 164.1C826.8 164.1 826.052 163.9 825.419 163.5C824.785 163.095 824.297 162.521 823.954 161.778C823.611 161.035 823.44 160.161 823.44 159.156V158.363C823.44 157.354 823.614 156.48 823.961 155.741C824.314 154.998 824.811 154.425 825.454 154.02C826.097 153.615 826.852 153.412 827.719 153.412C828.562 153.412 829.272 153.567 829.848 153.877C830.429 154.182 830.879 154.608 831.198 155.156C831.517 155.699 831.71 156.32 831.777 157.02H829.877C829.81 156.368 829.617 155.863 829.298 155.506C828.984 155.144 828.457 154.963 827.719 154.963C827.2 154.963 826.764 155.091 826.412 155.348C826.064 155.606 825.802 155.987 825.626 156.492C825.45 156.992 825.362 157.611 825.362 158.349V159.156C825.362 159.861 825.44 160.468 825.597 160.978C825.754 161.483 826.002 161.871 826.34 162.142C826.678 162.414 827.119 162.55 827.662 162.55C828.157 162.55 828.557 162.473 828.862 162.321C829.167 162.169 829.398 161.945 829.555 161.65C829.717 161.349 829.822 160.98 829.869 160.542H831.77ZM837.778 156.227H839.614V163.957H837.885L837.778 162.128V156.227ZM838.621 160.499C838.621 161.19 838.518 161.807 838.314 162.35C838.109 162.893 837.79 163.321 837.356 163.636C836.923 163.945 836.366 164.1 835.685 164.1C834.923 164.1 834.306 163.876 833.834 163.428C833.363 162.981 833.127 162.245 833.127 161.221V156.227H834.956V161.235C834.956 161.583 835.008 161.857 835.113 162.057C835.223 162.252 835.368 162.392 835.549 162.478C835.735 162.559 835.937 162.6 836.156 162.6C836.628 162.6 836.999 162.509 837.271 162.328C837.542 162.142 837.735 161.892 837.849 161.578C837.968 161.259 838.028 160.904 838.028 160.514L838.621 160.499ZM844.236 164.1C843.526 164.1 842.926 163.974 842.436 163.721C841.95 163.464 841.581 163.138 841.328 162.743C841.081 162.347 840.957 161.94 840.957 161.521H842.714C842.733 161.816 842.817 162.057 842.964 162.242C843.117 162.423 843.307 162.554 843.536 162.635C843.769 162.716 844.012 162.757 844.265 162.757C844.56 162.757 844.808 162.719 845.008 162.643C845.208 162.562 845.358 162.454 845.458 162.321C845.562 162.183 845.615 162.023 845.615 161.842C845.615 161.68 845.572 161.535 845.486 161.407C845.405 161.278 845.246 161.159 845.008 161.049C844.774 160.94 844.429 160.837 843.972 160.742C843.429 160.628 842.95 160.476 842.536 160.285C842.121 160.094 841.795 159.849 841.557 159.549C841.324 159.244 841.207 158.875 841.207 158.442C841.207 158.018 841.328 157.627 841.571 157.27C841.814 156.913 842.162 156.627 842.614 156.413C843.067 156.194 843.603 156.084 844.222 156.084C844.874 156.084 845.434 156.194 845.901 156.413C846.372 156.627 846.734 156.92 846.986 157.292C847.239 157.658 847.365 158.078 847.365 158.549H845.536C845.536 158.244 845.427 157.982 845.208 157.763C844.989 157.539 844.658 157.427 844.215 157.427C843.948 157.427 843.722 157.47 843.536 157.556C843.35 157.642 843.212 157.756 843.122 157.899C843.031 158.037 842.986 158.189 842.986 158.356C842.986 158.518 843.031 158.661 843.122 158.785C843.217 158.904 843.376 159.011 843.6 159.106C843.824 159.197 844.136 159.285 844.536 159.371C845.117 159.49 845.622 159.644 846.051 159.835C846.484 160.021 846.817 160.268 847.051 160.578C847.289 160.883 847.408 161.276 847.408 161.757C847.408 162.209 847.277 162.614 847.015 162.971C846.758 163.324 846.391 163.6 845.915 163.8C845.439 164 844.879 164.1 844.236 164.1ZM852.487 157.577H848.08V156.227H852.487V157.577ZM851.13 154.334V161.742C851.13 161.976 851.163 162.154 851.23 162.278C851.297 162.397 851.39 162.478 851.509 162.521C851.632 162.564 851.778 162.585 851.944 162.585C852.064 162.585 852.178 162.578 852.287 162.564C852.397 162.55 852.483 162.535 852.545 162.521V163.928C852.397 163.976 852.228 164.017 852.037 164.05C851.847 164.083 851.625 164.1 851.373 164.1C850.968 164.1 850.609 164.028 850.294 163.886C849.98 163.738 849.735 163.502 849.558 163.178C849.387 162.854 849.301 162.423 849.301 161.885V154.334H851.13ZM853.259 160.021C853.259 159.268 853.402 158.597 853.688 158.006C853.973 157.415 854.383 156.949 854.916 156.606C855.455 156.258 856.102 156.084 856.86 156.084C857.626 156.084 858.281 156.258 858.824 156.606C859.367 156.949 859.779 157.415 860.06 158.006C860.346 158.597 860.489 159.268 860.489 160.021V160.171C860.489 160.918 860.346 161.59 860.06 162.185C859.779 162.776 859.367 163.243 858.824 163.586C858.286 163.928 857.636 164.1 856.874 164.1C856.112 164.1 855.462 163.928 854.924 163.586C854.385 163.243 853.973 162.776 853.688 162.185C853.402 161.59 853.259 160.918 853.259 160.171V160.021ZM855.088 160.171C855.088 160.618 855.15 161.03 855.274 161.407C855.397 161.778 855.59 162.076 855.852 162.3C856.114 162.519 856.455 162.628 856.874 162.628C857.293 162.628 857.633 162.519 857.895 162.3C858.157 162.076 858.348 161.778 858.467 161.407C858.591 161.03 858.653 160.618 858.653 160.171V160.021C858.653 159.578 858.591 159.171 858.467 158.799C858.348 158.423 858.155 158.123 857.888 157.899C857.626 157.67 857.283 157.556 856.86 157.556C856.445 157.556 856.107 157.67 855.845 157.899C855.583 158.123 855.39 158.423 855.266 158.799C855.147 159.171 855.088 159.578 855.088 160.021V160.171ZM863.718 163.957H861.882V156.227H863.611L863.718 157.806V163.957ZM862.825 159.828C862.825 159.104 862.939 158.461 863.168 157.899C863.401 157.337 863.746 156.894 864.204 156.57C864.661 156.246 865.228 156.084 865.904 156.084C866.604 156.084 867.178 156.296 867.626 156.72C868.073 157.144 868.297 157.839 868.297 158.806V163.957H866.468V158.985C866.468 158.628 866.413 158.347 866.304 158.142C866.199 157.937 866.047 157.792 865.847 157.706C865.647 157.62 865.411 157.577 865.139 157.577C864.835 157.577 864.573 157.635 864.354 157.749C864.139 157.863 863.963 158.023 863.825 158.228C863.687 158.432 863.584 158.67 863.518 158.942C863.456 159.213 863.425 159.506 863.425 159.821L862.825 159.828ZM867.354 159.599C867.354 158.956 867.468 158.368 867.697 157.835C867.926 157.301 868.264 156.877 868.711 156.563C869.159 156.244 869.712 156.084 870.369 156.084C870.888 156.084 871.336 156.182 871.712 156.377C872.088 156.568 872.376 156.875 872.576 157.299C872.781 157.723 872.884 158.282 872.884 158.978V163.957H871.048V158.971C871.048 158.599 870.993 158.313 870.883 158.113C870.778 157.913 870.626 157.775 870.426 157.699C870.231 157.618 870 157.577 869.733 157.577C869.471 157.577 869.243 157.625 869.047 157.72C868.857 157.816 868.695 157.949 868.561 158.12C868.433 158.287 868.335 158.485 868.269 158.713C868.202 158.937 868.169 159.18 868.169 159.442L867.354 159.599ZM877.513 164.1C876.803 164.1 876.203 163.974 875.713 163.721C875.227 163.464 874.858 163.138 874.605 162.743C874.358 162.347 874.234 161.94 874.234 161.521H875.991C876.01 161.816 876.094 162.057 876.241 162.242C876.394 162.423 876.584 162.554 876.813 162.635C877.046 162.716 877.289 162.757 877.541 162.757C877.837 162.757 878.084 162.719 878.284 162.643C878.484 162.562 878.635 162.454 878.735 162.321C878.839 162.183 878.892 162.023 878.892 161.842C878.892 161.68 878.849 161.535 878.763 161.407C878.682 161.278 878.523 161.159 878.284 161.049C878.051 160.94 877.706 160.837 877.249 160.742C876.706 160.628 876.227 160.476 875.813 160.285C875.398 160.094 875.072 159.849 874.834 159.549C874.601 159.244 874.484 158.875 874.484 158.442C874.484 158.018 874.605 157.627 874.848 157.27C875.091 156.913 875.439 156.627 875.891 156.413C876.344 156.194 876.879 156.084 877.499 156.084C878.151 156.084 878.711 156.194 879.177 156.413C879.649 156.627 880.011 156.92 880.263 157.292C880.516 157.658 880.642 158.078 880.642 158.549H878.813C878.813 158.244 878.704 157.982 878.484 157.763C878.265 157.539 877.934 157.427 877.491 157.427C877.225 157.427 876.999 157.47 876.813 157.556C876.627 157.642 876.489 157.756 876.398 157.899C876.308 158.037 876.263 158.189 876.263 158.356C876.263 158.518 876.308 158.661 876.398 158.785C876.494 158.904 876.653 159.011 876.877 159.106C877.101 159.197 877.413 159.285 877.813 159.371C878.394 159.49 878.899 159.644 879.327 159.835C879.761 160.021 880.094 160.268 880.328 160.578C880.566 160.883 880.685 161.276 880.685 161.757C880.685 162.209 880.554 162.614 880.292 162.971C880.035 163.324 879.668 163.6 879.192 163.8C878.715 164 878.156 164.1 877.513 164.1Z" fill="#7A1600"/>
<rect x="813" y="174.957" width="78.0318" height="78.0318" rx="7.31548" fill="#F7F9B3"/>
<g clip-path="url(#clip2_1173_9093)">
<path d="M841.396 223.765C841.396 217.031 846.855 211.572 853.589 211.572H862.687C869.421 211.572 874.879 217.031 874.879 223.765V235.31C874.879 236.994 873.515 238.359 871.831 238.359H844.445C842.761 238.359 841.396 236.994 841.396 235.31V223.765Z" fill="#FE6533"/>
<circle cx="858.133" cy="205.962" r="10.0449" fill="#7A1600"/>
<path d="M858.158 192.637C863.588 192.637 868.155 196.33 869.486 201.341C869.917 202.968 868.512 204.356 866.829 204.356L849.487 204.356C847.804 204.356 846.398 202.968 846.83 201.341C848.161 196.33 852.728 192.637 858.158 192.637Z" fill="#FE6533"/>
<rect x="841.955" y="199.799" width="16.1986" height="4.55648" rx="2.27824" fill="#FE6533"/>
<rect x="829.148" y="220.069" width="30.4812" height="18.2887" rx="3.04812" fill="#7A1600"/>
</g>
<circle cx="479.87" cy="294.911" r="13.1919" fill="#7A1600" stroke="#FEFFC7" stroke-width="0.691244"/>
<path d="M516.729 311.115H501.027C495.445 311.115 490.92 315.64 490.92 321.221V347.32C490.92 348.038 491.173 348.849 491.874 349.381C493.522 350.632 498.105 353.054 508.878 353.054C519.652 353.054 524.235 350.632 525.882 349.381C526.584 348.849 526.836 348.038 526.836 347.32V321.221C526.836 315.64 522.311 311.115 516.729 311.115Z" fill="#7A1600" stroke="#FEFFC7" stroke-width="1.7803"/>
<circle cx="508.879" cy="298.927" r="9.8827" fill="#7A1600"/>
<path d="M457.804 311.115H442.101C436.52 311.115 431.995 315.64 431.995 321.221V347.32C431.995 348.038 432.247 348.849 432.949 349.381C434.596 350.632 439.179 353.054 449.953 353.054C460.726 353.054 465.309 350.632 466.956 349.381C467.658 348.849 467.91 348.038 467.91 347.32V321.221C467.91 315.64 463.386 311.115 457.804 311.115Z" fill="#7A1600" stroke="#FEFFC7" stroke-width="1.7803"/>
<circle cx="449.955" cy="298.927" r="9.8827" fill="#7A1600"/>
<path d="M503.282 357.779V321.221C503.282 315.027 498.26 310.005 492.065 310.005H479.871H467.678C461.483 310.005 456.461 315.027 456.461 321.221V357.779C456.461 358.718 456.783 359.854 457.755 360.661C459.826 362.38 465.719 365.771 479.871 365.771C494.024 365.771 499.917 362.38 501.988 360.661C502.96 359.854 503.282 358.718 503.282 357.779Z" fill="#7A1600" stroke="#FEFFC7" stroke-width="4"/>
<rect x="440.832" y="417.969" width="78.0318" height="78.0318" rx="7.31548" fill="#F7F9B3"/>
<g clip-path="url(#clip3_1173_9093)">
<rect x="457.309" y="463.008" width="44.8073" height="18.2535" rx="3.04812" fill="#7A1600"/>
<path d="M464.604 446.066L475.326 446.066" stroke="#FE6533" stroke-width="6.09623" stroke-linecap="round"/>
<path d="M494.374 443.786L485.855 435.255C483.936 433.333 480.65 434.692 480.65 437.409V454.63C480.65 457.36 483.964 458.713 485.875 456.764L494.393 448.073C495.563 446.88 495.554 444.968 494.374 443.786Z" fill="#7A1600"/>
<path d="M487.174 443.786L478.656 435.255C476.737 433.333 473.451 434.692 473.451 437.409V454.63C473.451 457.36 476.765 458.713 478.676 456.764L487.194 448.073C488.364 446.88 488.355 444.968 487.174 443.786Z" fill="#FE6533"/>
</g>
<path d="M445.814 517.001H443.913V506.599H445.814V517.001ZM450 512.636H445.335V511.107H450V512.636ZM450.579 508.135H445.335V506.599H450.579V508.135ZM451.158 513.065C451.158 512.312 451.3 511.641 451.586 511.05C451.872 510.459 452.282 509.993 452.815 509.65C453.353 509.302 454.001 509.128 454.758 509.128C455.525 509.128 456.18 509.302 456.723 509.65C457.266 509.993 457.678 510.459 457.959 511.05C458.244 511.641 458.387 512.312 458.387 513.065V513.215C458.387 513.962 458.244 514.634 457.959 515.229C457.678 515.82 457.266 516.287 456.723 516.629C456.185 516.972 455.534 517.144 454.772 517.144C454.01 517.144 453.36 516.972 452.822 516.629C452.284 516.287 451.872 515.82 451.586 515.229C451.3 514.634 451.158 513.962 451.158 513.215V513.065ZM452.986 513.215C452.986 513.662 453.048 514.074 453.172 514.451C453.296 514.822 453.489 515.12 453.751 515.344C454.013 515.563 454.353 515.672 454.772 515.672C455.192 515.672 455.532 515.563 455.794 515.344C456.056 515.12 456.246 514.822 456.366 514.451C456.489 514.074 456.551 513.662 456.551 513.215V513.065C456.551 512.622 456.489 512.214 456.366 511.843C456.246 511.467 456.054 511.167 455.787 510.943C455.525 510.714 455.182 510.6 454.758 510.6C454.344 510.6 454.006 510.714 453.744 510.943C453.482 511.167 453.289 511.467 453.165 511.843C453.046 512.214 452.986 512.622 452.986 513.065V513.215ZM461.616 517.001H459.788V509.271H461.524L461.616 510.829V517.001ZM463.938 510.964C463.829 510.945 463.71 510.931 463.581 510.921C463.457 510.912 463.336 510.907 463.217 510.907C462.831 510.907 462.509 510.976 462.252 511.114C461.995 511.248 461.8 511.443 461.666 511.7C461.538 511.953 461.462 512.255 461.438 512.607L461.031 512.579C461.031 511.926 461.116 511.341 461.288 510.821C461.459 510.298 461.714 509.886 462.052 509.585C462.395 509.281 462.821 509.128 463.331 509.128C463.431 509.128 463.543 509.138 463.667 509.157C463.791 509.171 463.886 509.193 463.952 509.221L463.938 510.964ZM469.032 509.271H470.196L469.882 511.236L468.117 517.001H467.096L467.282 515.186L469.032 509.271ZM467.667 515.201L467.76 517.001H466.603L464.545 509.271H466.324L467.667 515.201ZM473.097 509.271H474.876L472.818 517.001H471.661L471.797 515.129L473.097 509.271ZM472.125 515.129L472.325 517.001H471.297L469.518 511.236L469.21 509.271H470.389L472.125 515.129ZM480.305 511.786C480.305 511.395 480.198 511.086 479.984 510.857C479.774 510.624 479.45 510.507 479.012 510.507C478.75 510.507 478.522 510.552 478.326 510.643C478.136 510.729 477.988 510.848 477.883 511C477.779 511.152 477.726 511.329 477.726 511.529H475.897C475.897 511.105 476.028 510.712 476.29 510.35C476.557 509.983 476.931 509.688 477.412 509.464C477.893 509.24 478.46 509.128 479.112 509.128C479.698 509.128 480.217 509.228 480.669 509.428C481.127 509.624 481.486 509.919 481.748 510.314C482.01 510.709 482.141 511.205 482.141 511.8V515.186C482.141 515.563 482.167 515.889 482.22 516.165C482.272 516.437 482.346 516.675 482.441 516.88V517.001H480.577C480.486 516.81 480.417 516.565 480.369 516.265C480.327 515.965 480.305 515.67 480.305 515.379V511.786ZM480.569 513.408H479.384C478.774 513.408 478.317 513.524 478.012 513.758C477.707 513.986 477.555 514.291 477.555 514.672C477.555 514.967 477.655 515.213 477.855 515.408C478.06 515.603 478.345 515.701 478.712 515.701C479.055 515.701 479.353 515.632 479.605 515.494C479.857 515.355 480.055 515.189 480.198 514.994C480.341 514.793 480.415 514.605 480.419 514.429L480.984 515.244C480.922 515.434 480.824 515.639 480.691 515.858C480.558 516.077 480.381 516.284 480.162 516.479C479.948 516.675 479.691 516.834 479.391 516.958C479.091 517.082 478.743 517.144 478.348 517.144C477.848 517.144 477.398 517.044 476.997 516.844C476.602 516.644 476.29 516.37 476.062 516.022C475.838 515.67 475.726 515.275 475.726 514.836C475.726 514.017 476.031 513.388 476.64 512.95C477.255 512.507 478.131 512.286 479.269 512.286H480.569V513.408ZM485.72 517.001H483.891V509.271H485.627L485.72 510.829V517.001ZM488.042 510.964C487.933 510.945 487.814 510.931 487.685 510.921C487.561 510.912 487.44 510.907 487.321 510.907C486.935 510.907 486.613 510.976 486.356 511.114C486.099 511.248 485.904 511.443 485.77 511.7C485.642 511.953 485.566 512.255 485.542 512.607L485.134 512.579C485.134 511.926 485.22 511.341 485.392 510.821C485.563 510.298 485.818 509.886 486.156 509.585C486.499 509.281 486.925 509.128 487.435 509.128C487.535 509.128 487.647 509.138 487.771 509.157C487.894 509.171 487.99 509.193 488.056 509.221L488.042 510.964ZM491.807 517.144C491.183 517.144 490.645 516.975 490.192 516.637C489.74 516.294 489.392 515.827 489.149 515.236C488.907 514.646 488.785 513.974 488.785 513.222V513.072C488.785 512.291 488.907 511.605 489.149 511.014C489.392 510.419 489.74 509.957 490.192 509.628C490.645 509.295 491.188 509.128 491.821 509.128C492.445 509.128 492.964 509.293 493.379 509.621C493.798 509.945 494.126 510.395 494.365 510.971C494.607 511.543 494.769 512.205 494.85 512.957V513.379C494.769 514.103 494.61 514.748 494.372 515.315C494.134 515.882 493.805 516.329 493.386 516.658C492.967 516.982 492.44 517.144 491.807 517.144ZM492.271 515.644C492.652 515.644 492.964 515.56 493.207 515.394C493.455 515.227 493.645 515.001 493.779 514.715C493.917 514.429 494.01 514.105 494.057 513.743V512.6C494.029 512.314 493.972 512.05 493.886 511.807C493.805 511.564 493.693 511.355 493.55 511.179C493.412 511.002 493.238 510.867 493.029 510.771C492.819 510.671 492.571 510.621 492.286 510.621C491.886 510.621 491.562 510.731 491.314 510.95C491.071 511.169 490.893 511.464 490.778 511.836C490.669 512.207 490.614 512.619 490.614 513.072V513.222C490.614 513.669 490.669 514.077 490.778 514.443C490.888 514.81 491.064 515.103 491.307 515.322C491.55 515.536 491.871 515.644 492.271 515.644ZM493.95 517.001L493.772 515.365V506.028H495.608V517.001H493.95ZM498.408 506.292C498.732 506.292 498.987 506.385 499.173 506.571C499.358 506.752 499.451 506.98 499.451 507.257C499.451 507.533 499.358 507.764 499.173 507.949C498.987 508.13 498.732 508.221 498.408 508.221C498.084 508.221 497.829 508.13 497.644 507.949C497.463 507.764 497.372 507.533 497.372 507.257C497.372 506.98 497.463 506.752 497.644 506.571C497.829 506.385 498.084 506.292 498.408 506.292ZM499.33 517.001H497.494V509.271H499.33V517.001ZM502.995 517.001H501.166V509.271H502.887L502.995 510.921V517.001ZM502.116 512.872C502.121 512.119 502.249 511.464 502.502 510.907C502.759 510.345 503.118 509.909 503.58 509.6C504.042 509.285 504.581 509.128 505.195 509.128C505.69 509.128 506.121 509.224 506.488 509.414C506.855 509.6 507.138 509.905 507.338 510.328C507.543 510.752 507.645 511.321 507.645 512.036V517.001H505.809V512.022C505.809 511.669 505.759 511.391 505.659 511.186C505.559 510.981 505.409 510.836 505.209 510.75C505.014 510.664 504.773 510.621 504.488 510.621C504.197 510.621 503.94 510.679 503.716 510.793C503.497 510.907 503.309 511.067 503.152 511.271C502.999 511.476 502.883 511.714 502.802 511.986C502.725 512.257 502.687 512.55 502.687 512.865L502.116 512.872ZM512.368 520.044C512.067 520.044 511.736 520.001 511.374 519.916C511.017 519.835 510.67 519.701 510.331 519.516C509.998 519.33 509.717 519.089 509.488 518.794L510.331 517.687C510.598 517.996 510.896 518.227 511.224 518.38C511.558 518.532 511.908 518.608 512.275 518.608C512.846 518.608 513.294 518.451 513.618 518.137C513.942 517.827 514.104 517.38 514.104 516.794V511.036L514.282 509.271H515.94V516.765C515.94 517.465 515.79 518.061 515.489 518.551C515.189 519.042 514.77 519.413 514.232 519.666C513.694 519.918 513.072 520.044 512.368 520.044ZM512.139 517.144C511.505 517.144 510.958 516.975 510.496 516.637C510.034 516.294 509.677 515.827 509.424 515.236C509.172 514.646 509.046 513.974 509.046 513.222V513.072C509.046 512.291 509.169 511.605 509.417 511.014C509.669 510.419 510.029 509.957 510.496 509.628C510.963 509.295 511.515 509.128 512.153 509.128C512.663 509.128 513.094 509.221 513.446 509.407C513.803 509.593 514.099 509.857 514.332 510.2C514.565 510.538 514.749 510.943 514.882 511.414C515.016 511.881 515.116 512.395 515.182 512.957V513.379C515.097 514.103 514.937 514.748 514.704 515.315C514.47 515.882 514.144 516.329 513.725 516.658C513.311 516.982 512.782 517.144 512.139 517.144ZM512.603 515.644C512.999 515.644 513.32 515.56 513.568 515.394C513.815 515.227 514.008 515.001 514.146 514.715C514.284 514.429 514.377 514.105 514.425 513.743V512.6C514.396 512.314 514.342 512.05 514.261 511.807C514.18 511.564 514.065 511.355 513.918 511.179C513.775 511.002 513.594 510.867 513.375 510.771C513.161 510.671 512.908 510.621 512.618 510.621C512.217 510.621 511.889 510.731 511.632 510.95C511.374 511.169 511.184 511.464 511.06 511.836C510.936 512.207 510.874 512.619 510.874 513.072V513.222C510.874 513.669 510.934 514.077 511.053 514.443C511.177 514.81 511.365 515.103 511.617 515.322C511.875 515.536 512.203 515.644 512.603 515.644Z" fill="#7A1600"/>
<path d="M120.802 164.557C120.298 164.557 119.802 164.49 119.317 164.357C118.831 164.219 118.388 164.012 117.988 163.735C117.592 163.459 117.276 163.114 117.038 162.699C116.804 162.28 116.688 161.787 116.688 161.221H118.595C118.595 161.549 118.65 161.83 118.759 162.064C118.874 162.292 119.031 162.48 119.231 162.628C119.431 162.776 119.664 162.883 119.931 162.95C120.198 163.016 120.488 163.05 120.802 163.05C121.212 163.05 121.55 162.992 121.817 162.878C122.084 162.764 122.284 162.607 122.417 162.407C122.555 162.207 122.624 161.976 122.624 161.714C122.624 161.442 122.567 161.211 122.453 161.021C122.338 160.825 122.124 160.644 121.81 160.478C121.5 160.306 121.048 160.13 120.452 159.949C119.967 159.801 119.514 159.632 119.095 159.442C118.681 159.251 118.316 159.03 118.002 158.777C117.688 158.525 117.442 158.234 117.266 157.906C117.095 157.572 117.009 157.187 117.009 156.749C117.009 156.182 117.166 155.682 117.481 155.248C117.8 154.815 118.24 154.477 118.802 154.234C119.364 153.991 120.012 153.869 120.745 153.869C121.526 153.869 122.198 154.012 122.76 154.298C123.327 154.579 123.762 154.96 124.067 155.441C124.372 155.922 124.525 156.46 124.525 157.056H122.617C122.617 156.732 122.548 156.444 122.41 156.191C122.277 155.939 122.069 155.744 121.788 155.605C121.512 155.463 121.157 155.391 120.724 155.391C120.319 155.391 119.981 155.451 119.709 155.57C119.443 155.689 119.243 155.851 119.109 156.056C118.981 156.26 118.916 156.491 118.916 156.749C118.916 157.001 118.995 157.222 119.152 157.413C119.314 157.603 119.557 157.777 119.881 157.934C120.205 158.087 120.607 158.237 121.088 158.385C121.86 158.608 122.5 158.873 123.01 159.177C123.52 159.478 123.901 159.835 124.153 160.249C124.405 160.659 124.532 161.142 124.532 161.699C124.532 162.29 124.377 162.8 124.067 163.228C123.762 163.657 123.331 163.985 122.774 164.214C122.217 164.443 121.56 164.557 120.802 164.557ZM134.09 160.999C134.038 161.685 133.847 162.297 133.519 162.835C133.19 163.373 132.731 163.795 132.14 164.1C131.549 164.405 130.83 164.557 129.983 164.557C129.121 164.557 128.373 164.357 127.739 163.957C127.106 163.552 126.618 162.978 126.275 162.235C125.932 161.492 125.76 160.618 125.76 159.613V158.82C125.76 157.811 125.934 156.937 126.282 156.198C126.634 155.455 127.132 154.882 127.775 154.477C128.418 154.072 129.173 153.869 130.04 153.869C130.883 153.869 131.592 154.024 132.169 154.334C132.75 154.639 133.2 155.065 133.519 155.613C133.838 156.156 134.031 156.777 134.098 157.477H132.197C132.131 156.825 131.938 156.32 131.619 155.963C131.304 155.601 130.778 155.42 130.04 155.42C129.521 155.42 129.085 155.548 128.732 155.806C128.385 156.063 128.123 156.444 127.947 156.949C127.77 157.449 127.682 158.068 127.682 158.806V159.613C127.682 160.318 127.761 160.925 127.918 161.435C128.075 161.94 128.323 162.328 128.661 162.599C128.999 162.871 129.44 163.007 129.983 163.007C130.478 163.007 130.878 162.93 131.183 162.778C131.488 162.626 131.719 162.402 131.876 162.107C132.038 161.806 132.142 161.437 132.19 160.999H134.09ZM138.12 154.012L141.027 161.864L143.921 154.012H145.599L141.692 164.414H140.356L136.441 154.012H138.12ZM137.262 154.012L137.548 161.178V164.414H135.648V154.012H137.262ZM146.407 154.012V164.414H144.499V161.178L144.785 154.012H146.407Z" fill="#7A1600"/>
<rect x="93.1504" y="175.414" width="78.0318" height="78.0318" rx="7.31548" fill="#F7F9B3"/>
<rect x="114.893" y="193.99" width="23.661" height="29.8856" rx="2.629" fill="#FE6533"/>
<rect x="109.459" y="208.579" width="34.5253" height="26.29" rx="2.629" fill="#7A1600"/>
<rect x="133.844" y="213.837" width="21.032" height="21.032" rx="2.629" fill="#FE6533"/>
</g>
<defs>
<clipPath id="clip0_1173_9093">
<rect width="906" height="426" fill="white" transform="translate(32 115)"/>
</clipPath>
<clipPath id="clip1_1173_9093">
<rect width="48.7699" height="48.7699" fill="white" transform="translate(695.295 315.609)"/>
</clipPath>
<clipPath id="clip2_1173_9093">
<rect width="48.7699" height="48.7699" fill="white" transform="translate(827.631 189.588)"/>
</clipPath>
<clipPath id="clip3_1173_9093">
<rect width="48.7699" height="48.7699" fill="white" transform="translate(455.463 432.6)"/>
</clipPath>
</defs>
</svg>
