<svg width="970" height="600" viewBox="0 0 970 600" fill="none" xmlns="http://www.w3.org/2000/svg">
<rect width="970" height="600" rx="20" fill="#FFF2E2"/>
<g clip-path="url(#clip0_1173_9248)">
<circle cx="484.999" cy="365.999" r="91.005" stroke="#FFE0CF" stroke-opacity="0.4" stroke-width="4"/>
<circle cx="484.998" cy="366" r="149.293" stroke="#FFE0CF" stroke-opacity="0.4" stroke-width="4"/>
<circle cx="484.998" cy="366" r="221.414" stroke="#FFE0CF" stroke-opacity="0.4" stroke-width="4"/>
<circle cx="484.997" cy="366" r="331.331" stroke="#FFE0CF" stroke-opacity="0.4" stroke-width="4"/>
<circle cx="484.999" cy="366" r="468.407" stroke="#FFE0CF" stroke-opacity="0.4" stroke-width="4"/>
<path d="M83.3466 405.804V404.275H85.5684C86.1923 404.275 86.7138 404.139 87.1329 403.868C87.5568 403.596 87.8759 403.206 88.0902 402.696C88.3045 402.186 88.4117 401.574 88.4117 400.86V400.331C88.4117 399.598 88.3045 398.981 88.0902 398.481C87.8759 397.976 87.5616 397.593 87.1472 397.331C86.7329 397.069 86.2256 396.938 85.6255 396.938H83.3037V395.402H85.6255C86.5543 395.402 87.3711 395.607 88.0759 396.016C88.7808 396.426 89.3309 397.002 89.7262 397.745C90.1263 398.483 90.3263 399.35 90.3263 400.346V400.86C90.3263 401.855 90.1263 402.725 89.7262 403.468C89.3309 404.206 88.7761 404.78 88.0617 405.189C87.352 405.599 86.5209 405.804 85.5684 405.804H83.3466ZM84.4111 405.804H82.5107V395.402H84.4111V405.804ZM91.5694 401.867C91.5694 401.115 91.7122 400.443 91.998 399.853C92.2838 399.262 92.6934 398.795 93.2268 398.453C93.765 398.105 94.4127 397.931 95.17 397.931C95.9367 397.931 96.5916 398.105 97.1346 398.453C97.6775 398.795 98.0895 399.262 98.3705 399.853C98.6562 400.443 98.7991 401.115 98.7991 401.867V402.017C98.7991 402.765 98.6562 403.437 98.3705 404.032C98.0895 404.623 97.6775 405.089 97.1346 405.432C96.5964 405.775 95.9463 405.947 95.1842 405.947C94.4222 405.947 93.7721 405.775 93.2339 405.432C92.6957 405.089 92.2838 404.623 91.998 404.032C91.7122 403.437 91.5694 402.765 91.5694 402.017V401.867ZM93.3982 402.017C93.3982 402.465 93.4602 402.877 93.584 403.253C93.7078 403.625 93.9007 403.922 94.1626 404.146C94.4246 404.365 94.7651 404.475 95.1842 404.475C95.6034 404.475 95.9439 404.365 96.2058 404.146C96.4678 403.922 96.6583 403.625 96.7774 403.253C96.9012 402.877 96.9631 402.465 96.9631 402.017V401.867C96.9631 401.424 96.9012 401.017 96.7774 400.646C96.6583 400.269 96.4654 399.969 96.1987 399.746C95.9367 399.517 95.5938 399.403 95.17 399.403C94.7556 399.403 94.4175 399.517 94.1555 399.746C93.8936 399.969 93.7007 400.269 93.5768 400.646C93.4578 401.017 93.3982 401.424 93.3982 401.867V402.017ZM103.4 405.947C102.609 405.947 101.952 405.773 101.428 405.425C100.904 405.073 100.514 404.604 100.256 404.018C99.9993 403.427 99.8707 402.775 99.8707 402.06V401.824C99.8707 401.105 99.9993 400.453 100.256 399.867C100.518 399.276 100.909 398.807 101.428 398.46C101.952 398.107 102.607 397.931 103.393 397.931C104.017 397.931 104.564 398.055 105.036 398.302C105.512 398.545 105.884 398.888 106.15 399.331C106.417 399.769 106.555 400.286 106.565 400.881H104.843C104.833 400.61 104.769 400.362 104.65 400.139C104.531 399.915 104.362 399.736 104.143 399.603C103.929 399.469 103.669 399.403 103.364 399.403C102.921 399.403 102.578 399.519 102.335 399.753C102.097 399.986 101.931 400.289 101.835 400.66C101.745 401.027 101.7 401.415 101.7 401.824V402.06C101.7 402.47 101.745 402.86 101.835 403.232C101.926 403.599 102.093 403.899 102.335 404.132C102.578 404.361 102.926 404.475 103.378 404.475C103.65 404.475 103.893 404.423 104.107 404.318C104.326 404.208 104.5 404.058 104.629 403.868C104.762 403.677 104.833 403.456 104.843 403.203H106.565C106.555 403.718 106.408 404.182 106.122 404.596C105.836 405.011 105.455 405.339 104.979 405.582C104.507 405.825 103.981 405.947 103.4 405.947ZM112.466 398.074H114.302V405.804H112.573L112.466 403.975V398.074ZM113.309 402.346C113.309 403.037 113.206 403.653 113.001 404.196C112.797 404.739 112.478 405.168 112.044 405.482C111.611 405.792 111.053 405.947 110.372 405.947C109.61 405.947 108.994 405.723 108.522 405.275C108.051 404.827 107.815 404.092 107.815 403.068V398.074H109.644V403.082C109.644 403.43 109.696 403.703 109.801 403.903C109.91 404.099 110.056 404.239 110.237 404.325C110.422 404.406 110.625 404.446 110.844 404.446C111.315 404.446 111.687 404.356 111.958 404.175C112.23 403.989 112.423 403.739 112.537 403.425C112.656 403.106 112.716 402.751 112.716 402.36L113.309 402.346ZM117.845 405.804H116.009V398.074H117.738L117.845 399.653V405.804ZM116.952 401.674C116.952 400.951 117.066 400.308 117.295 399.746C117.528 399.184 117.874 398.741 118.331 398.417C118.788 398.093 119.355 397.931 120.031 397.931C120.731 397.931 121.305 398.143 121.753 398.567C122.201 398.991 122.424 399.686 122.424 400.653V405.804H120.596V400.831C120.596 400.474 120.541 400.193 120.431 399.988C120.326 399.784 120.174 399.638 119.974 399.553C119.774 399.467 119.538 399.424 119.267 399.424C118.962 399.424 118.7 399.481 118.481 399.596C118.267 399.71 118.09 399.869 117.952 400.074C117.814 400.279 117.712 400.517 117.645 400.789C117.583 401.06 117.552 401.353 117.552 401.667L116.952 401.674ZM121.481 401.446C121.481 400.803 121.596 400.215 121.824 399.681C122.053 399.148 122.391 398.724 122.839 398.41C123.286 398.091 123.839 397.931 124.496 397.931C125.015 397.931 125.463 398.029 125.839 398.224C126.215 398.414 126.504 398.722 126.704 399.145C126.908 399.569 127.011 400.129 127.011 400.824V405.804H125.175V400.817C125.175 400.446 125.12 400.16 125.011 399.96C124.906 399.76 124.753 399.622 124.553 399.546C124.358 399.465 124.127 399.424 123.86 399.424C123.598 399.424 123.37 399.472 123.175 399.567C122.984 399.662 122.822 399.796 122.689 399.967C122.56 400.134 122.463 400.331 122.396 400.56C122.329 400.784 122.296 401.027 122.296 401.289L121.481 401.446ZM132.183 405.947C131.407 405.947 130.738 405.782 130.176 405.454C129.618 405.12 129.187 404.67 128.883 404.103C128.583 403.537 128.433 402.906 128.433 402.21V401.917C128.433 401.117 128.585 400.419 128.89 399.824C129.195 399.224 129.614 398.76 130.147 398.431C130.681 398.098 131.288 397.931 131.969 397.931C132.712 397.931 133.329 398.093 133.819 398.417C134.314 398.736 134.686 399.181 134.934 399.753C135.181 400.319 135.305 400.977 135.305 401.724V402.51H129.297V401.21H133.498V401.067C133.488 400.772 133.431 400.498 133.326 400.246C133.221 399.993 133.057 399.791 132.833 399.638C132.614 399.481 132.324 399.403 131.962 399.403C131.585 399.403 131.271 399.507 131.019 399.717C130.771 399.927 130.583 400.219 130.454 400.596C130.33 400.972 130.269 401.413 130.269 401.917V402.21C130.269 402.639 130.347 403.025 130.504 403.368C130.666 403.711 130.897 403.982 131.197 404.182C131.502 404.377 131.866 404.475 132.29 404.475C132.695 404.475 133.057 404.396 133.376 404.239C133.7 404.077 133.979 403.846 134.212 403.546L135.162 404.511C134.919 404.873 134.55 405.204 134.055 405.504C133.564 405.799 132.94 405.947 132.183 405.947ZM138.406 405.804H136.577V398.074H138.298L138.406 399.724V405.804ZM137.527 401.674C137.532 400.922 137.66 400.267 137.913 399.71C138.17 399.148 138.529 398.712 138.991 398.403C139.453 398.088 139.992 397.931 140.606 397.931C141.101 397.931 141.532 398.026 141.899 398.217C142.266 398.403 142.549 398.707 142.749 399.131C142.954 399.555 143.056 400.124 143.056 400.839V405.804H141.22V400.824C141.22 400.472 141.17 400.193 141.07 399.988C140.97 399.784 140.82 399.638 140.62 399.553C140.425 399.467 140.184 399.424 139.899 399.424C139.608 399.424 139.351 399.481 139.127 399.596C138.908 399.71 138.72 399.869 138.563 400.074C138.41 400.279 138.294 400.517 138.213 400.789C138.136 401.06 138.098 401.353 138.098 401.667L137.527 401.674ZM148.379 399.424H143.971V398.074H148.379V399.424ZM147.021 396.181V403.589C147.021 403.822 147.055 404.001 147.121 404.125C147.188 404.244 147.281 404.325 147.4 404.368C147.524 404.411 147.669 404.432 147.836 404.432C147.955 404.432 148.069 404.425 148.179 404.411C148.288 404.396 148.374 404.382 148.436 404.368V405.775C148.288 405.823 148.119 405.863 147.929 405.897C147.738 405.93 147.517 405.947 147.264 405.947C146.859 405.947 146.5 405.875 146.185 405.732C145.871 405.585 145.626 405.349 145.45 405.025C145.278 404.701 145.192 404.27 145.192 403.732V396.181H147.021ZM161.466 402.389C161.414 403.075 161.224 403.687 160.895 404.225C160.566 404.763 160.107 405.185 159.516 405.489C158.926 405.794 158.206 405.947 157.359 405.947C156.497 405.947 155.749 405.747 155.115 405.346C154.482 404.942 153.994 404.368 153.651 403.625C153.308 402.882 153.137 402.008 153.137 401.003V400.21C153.137 399.2 153.31 398.326 153.658 397.588C154.011 396.845 154.508 396.271 155.151 395.866C155.794 395.462 156.549 395.259 157.416 395.259C158.259 395.259 158.968 395.414 159.545 395.723C160.126 396.028 160.576 396.455 160.895 397.002C161.214 397.545 161.407 398.167 161.474 398.867H159.573C159.507 398.214 159.314 397.71 158.995 397.352C158.68 396.99 158.154 396.809 157.416 396.809C156.897 396.809 156.461 396.938 156.108 397.195C155.761 397.452 155.499 397.833 155.323 398.338C155.146 398.838 155.058 399.457 155.058 400.196V401.003C155.058 401.708 155.137 402.315 155.294 402.825C155.451 403.329 155.699 403.718 156.037 403.989C156.375 404.261 156.816 404.396 157.359 404.396C157.854 404.396 158.254 404.32 158.559 404.168C158.864 404.015 159.095 403.791 159.252 403.496C159.414 403.196 159.519 402.827 159.566 402.389H161.466ZM164.81 405.804H162.974V394.83H164.81V405.804ZM166.324 401.867C166.324 401.115 166.467 400.443 166.753 399.853C167.039 399.262 167.448 398.795 167.982 398.453C168.52 398.105 169.168 397.931 169.925 397.931C170.692 397.931 171.347 398.105 171.89 398.453C172.433 398.795 172.845 399.262 173.126 399.853C173.411 400.443 173.554 401.115 173.554 401.867V402.017C173.554 402.765 173.411 403.437 173.126 404.032C172.845 404.623 172.433 405.089 171.89 405.432C171.351 405.775 170.701 405.947 169.939 405.947C169.177 405.947 168.527 405.775 167.989 405.432C167.451 405.089 167.039 404.623 166.753 404.032C166.467 403.437 166.324 402.765 166.324 402.017V401.867ZM168.153 402.017C168.153 402.465 168.215 402.877 168.339 403.253C168.463 403.625 168.656 403.922 168.918 404.146C169.18 404.365 169.52 404.475 169.939 404.475C170.358 404.475 170.699 404.365 170.961 404.146C171.223 403.922 171.413 403.625 171.532 403.253C171.656 402.877 171.718 402.465 171.718 402.017V401.867C171.718 401.424 171.656 401.017 171.532 400.646C171.413 400.269 171.22 399.969 170.954 399.746C170.692 399.517 170.349 399.403 169.925 399.403C169.511 399.403 169.173 399.517 168.911 399.746C168.649 399.969 168.456 400.269 168.332 400.646C168.213 401.017 168.153 401.424 168.153 401.867V402.017ZM179.562 398.074H181.398V405.804H179.669L179.562 403.975V398.074ZM180.405 402.346C180.405 403.037 180.303 403.653 180.098 404.196C179.893 404.739 179.574 405.168 179.141 405.482C178.707 405.792 178.15 405.947 177.469 405.947C176.707 405.947 176.09 405.723 175.619 405.275C175.147 404.827 174.912 404.092 174.912 403.068V398.074H176.74V403.082C176.74 403.43 176.793 403.703 176.898 403.903C177.007 404.099 177.152 404.239 177.333 404.325C177.519 404.406 177.722 404.446 177.941 404.446C178.412 404.446 178.784 404.356 179.055 404.175C179.327 403.989 179.519 403.739 179.634 403.425C179.753 403.106 179.812 402.751 179.812 402.36L180.405 402.346ZM185.813 405.947C185.189 405.947 184.651 405.778 184.199 405.439C183.746 405.096 183.399 404.63 183.156 404.039C182.913 403.449 182.791 402.777 182.791 402.025V401.874C182.791 401.093 182.913 400.408 183.156 399.817C183.399 399.222 183.746 398.76 184.199 398.431C184.651 398.098 185.194 397.931 185.828 397.931C186.452 397.931 186.971 398.095 187.385 398.424C187.804 398.748 188.133 399.198 188.371 399.774C188.614 400.346 188.776 401.008 188.857 401.76V402.182C188.776 402.906 188.616 403.551 188.378 404.118C188.14 404.684 187.811 405.132 187.392 405.461C186.973 405.785 186.447 405.947 185.813 405.947ZM186.278 404.446C186.659 404.446 186.971 404.363 187.214 404.196C187.461 404.03 187.652 403.803 187.785 403.518C187.923 403.232 188.016 402.908 188.064 402.546V401.403C188.035 401.117 187.978 400.853 187.892 400.61C187.811 400.367 187.699 400.158 187.556 399.981C187.418 399.805 187.245 399.669 187.035 399.574C186.825 399.474 186.578 399.424 186.292 399.424C185.892 399.424 185.568 399.534 185.32 399.753C185.077 399.972 184.899 400.267 184.785 400.639C184.675 401.01 184.62 401.422 184.62 401.874V402.025C184.62 402.472 184.675 402.879 184.785 403.246C184.894 403.613 185.07 403.906 185.313 404.125C185.556 404.339 185.878 404.446 186.278 404.446ZM187.957 405.804L187.778 404.168V394.83H189.614V405.804H187.957Z" fill="#7A1600"/>
<path d="M163.084 344.13C161.869 337.972 158.554 332.428 153.705 328.443C148.855 324.458 142.773 322.28 136.497 322.281C126.042 322.281 116.963 328.214 112.441 336.895C107.124 337.47 102.207 339.989 98.6351 343.969C95.0629 347.948 93.0873 353.107 93.0879 358.455C93.0879 370.429 102.819 380.159 114.792 380.159H161.818C171.802 380.159 179.905 372.056 179.905 362.073C179.905 352.523 172.49 344.781 163.084 344.13Z" fill="#FE6533"/>
<path d="M144.966 270.441L124.365 270.44C123.116 270.44 121.918 270.937 121.035 271.82C120.152 272.703 119.656 273.9 119.656 275.149V312.82C119.656 314.069 120.152 315.266 121.035 316.149C121.918 317.032 123.116 317.529 124.365 317.529H152.618C153.867 317.529 155.064 317.032 155.948 316.149C156.831 315.266 157.327 314.069 157.327 312.82V282.683L144.966 270.441Z" fill="#FFE0CF"/>
<path d="M144.969 270.438L144.934 280.403C144.929 281.743 146.023 282.827 147.363 282.809L157.335 282.677" fill="#7A1600"/>
<path d="M144.966 333.73L124.365 333.729C123.116 333.729 121.918 334.226 121.035 335.109C120.152 335.992 119.656 337.189 119.656 338.438V359.695C119.656 360.944 120.152 362.142 121.035 363.025C121.918 363.908 123.116 364.404 124.365 364.404H152.618C153.867 364.404 155.064 363.908 155.948 363.025C156.831 362.142 157.327 360.944 157.327 359.695V345.972L144.966 333.73Z" fill="#FFE0CF"/>
<path d="M144.969 333.729L144.934 343.695C144.929 345.035 146.023 346.119 147.363 346.101L157.335 345.969" fill="#7A1600"/>
<rect x="117.018" y="356.318" width="42.959" height="11.7586" fill="#FE6533"/>
<rect x="750.912" y="297.643" width="156.576" height="42" rx="21" fill="#FE6533"/>
<path d="M772.186 319.798H765.056V318.141H772.186V319.798ZM769.507 322.842H767.749V315.269H769.507V322.842ZM778.444 323.885H776.436L780.344 313.483H781.609L781.48 315.033L778.444 323.885ZM780.952 315.033L780.809 313.483H782.08L786.002 323.885H783.995L780.952 315.033ZM783.881 321.556H778.237V320.013H783.881V321.556ZM789.66 324.028C789.036 324.028 788.498 323.859 788.046 323.52C787.593 323.178 787.245 322.711 787.002 322.12C786.76 321.53 786.638 320.858 786.638 320.106V319.956C786.638 319.174 786.76 318.489 787.002 317.898C787.245 317.303 787.593 316.841 788.046 316.512C788.498 316.179 789.041 316.012 789.674 316.012C790.298 316.012 790.817 316.176 791.232 316.505C791.651 316.829 791.979 317.279 792.218 317.855C792.461 318.427 792.622 319.089 792.703 319.841V320.263C792.622 320.987 792.463 321.632 792.225 322.199C791.987 322.766 791.658 323.213 791.239 323.542C790.82 323.866 790.294 324.028 789.66 324.028ZM790.124 322.527C790.505 322.527 790.817 322.444 791.06 322.277C791.308 322.111 791.498 321.884 791.632 321.599C791.77 321.313 791.863 320.989 791.91 320.627V319.484C791.882 319.198 791.825 318.934 791.739 318.691C791.658 318.448 791.546 318.239 791.403 318.062C791.265 317.886 791.091 317.75 790.882 317.655C790.672 317.555 790.424 317.505 790.139 317.505C789.739 317.505 789.415 317.615 789.167 317.834C788.924 318.053 788.746 318.348 788.631 318.72C788.522 319.091 788.467 319.503 788.467 319.956V320.106C788.467 320.553 788.522 320.96 788.631 321.327C788.741 321.694 788.917 321.987 789.16 322.206C789.403 322.42 789.724 322.527 790.124 322.527ZM791.803 323.885L791.625 322.249V312.912H793.461V323.885H791.803ZM797.919 324.028C797.295 324.028 796.756 323.859 796.304 323.52C795.852 323.178 795.504 322.711 795.261 322.12C795.018 321.53 794.897 320.858 794.897 320.106V319.956C794.897 319.174 795.018 318.489 795.261 317.898C795.504 317.303 795.852 316.841 796.304 316.512C796.756 316.179 797.299 316.012 797.933 316.012C798.557 316.012 799.076 316.176 799.49 316.505C799.909 316.829 800.238 317.279 800.476 317.855C800.719 318.427 800.881 319.089 800.962 319.841V320.263C800.881 320.987 800.721 321.632 800.483 322.199C800.245 322.766 799.917 323.213 799.497 323.542C799.078 323.866 798.552 324.028 797.919 324.028ZM798.383 322.527C798.764 322.527 799.076 322.444 799.319 322.277C799.566 322.111 799.757 321.884 799.89 321.599C800.028 321.313 800.121 320.989 800.169 320.627V319.484C800.14 319.198 800.083 318.934 799.997 318.691C799.917 318.448 799.805 318.239 799.662 318.062C799.524 317.886 799.35 317.75 799.14 317.655C798.931 317.555 798.683 317.505 798.397 317.505C797.997 317.505 797.673 317.615 797.426 317.834C797.183 318.053 797.004 318.348 796.89 318.72C796.78 319.091 796.726 319.503 796.726 319.956V320.106C796.726 320.553 796.78 320.96 796.89 321.327C796.999 321.694 797.176 321.987 797.418 322.206C797.661 322.42 797.983 322.527 798.383 322.527ZM800.062 323.885L799.883 322.249V312.912H801.719V323.885H800.062ZM815.279 320.47C815.226 321.156 815.036 321.768 814.707 322.306C814.378 322.844 813.919 323.266 813.328 323.57C812.738 323.875 812.018 324.028 811.171 324.028C810.309 324.028 809.561 323.828 808.927 323.428C808.294 323.023 807.806 322.449 807.463 321.706C807.12 320.963 806.949 320.089 806.949 319.084V318.291C806.949 317.281 807.122 316.407 807.47 315.669C807.823 314.926 808.32 314.352 808.963 313.947C809.606 313.543 810.361 313.34 811.228 313.34C812.071 313.34 812.781 313.495 813.357 313.805C813.938 314.109 814.388 314.536 814.707 315.083C815.026 315.626 815.219 316.248 815.286 316.948H813.385C813.319 316.295 813.126 315.791 812.807 315.433C812.492 315.071 811.966 314.89 811.228 314.89C810.709 314.89 810.273 315.019 809.921 315.276C809.573 315.533 809.311 315.914 809.135 316.419C808.958 316.919 808.87 317.538 808.87 318.277V319.084C808.87 319.789 808.949 320.396 809.106 320.906C809.263 321.411 809.511 321.799 809.849 322.07C810.187 322.342 810.628 322.477 811.171 322.477C811.666 322.477 812.066 322.401 812.371 322.249C812.676 322.096 812.907 321.873 813.064 321.577C813.226 321.277 813.331 320.908 813.378 320.47H815.279ZM816.35 319.948C816.35 319.196 816.493 318.524 816.779 317.934C817.065 317.343 817.474 316.876 818.008 316.534C818.546 316.186 819.193 316.012 819.951 316.012C820.718 316.012 821.372 316.186 821.915 316.534C822.458 316.876 822.87 317.343 823.151 317.934C823.437 318.524 823.58 319.196 823.58 319.948V320.098C823.58 320.846 823.437 321.518 823.151 322.113C822.87 322.704 822.458 323.17 821.915 323.513C821.377 323.856 820.727 324.028 819.965 324.028C819.203 324.028 818.553 323.856 818.015 323.513C817.477 323.17 817.065 322.704 816.779 322.113C816.493 321.518 816.35 320.846 816.35 320.098V319.948ZM818.179 320.098C818.179 320.546 818.241 320.958 818.365 321.334C818.489 321.706 818.681 322.004 818.943 322.227C819.205 322.446 819.546 322.556 819.965 322.556C820.384 322.556 820.725 322.446 820.987 322.227C821.249 322.004 821.439 321.706 821.558 321.334C821.682 320.958 821.744 320.546 821.744 320.098V319.948C821.744 319.505 821.682 319.098 821.558 318.727C821.439 318.351 821.246 318.05 820.979 317.827C820.718 317.598 820.375 317.484 819.951 317.484C819.536 317.484 819.198 317.598 818.936 317.827C818.674 318.05 818.481 318.351 818.358 318.727C818.239 319.098 818.179 319.505 818.179 319.948V320.098ZM826.923 323.885H825.087V312.912H826.923V323.885ZM830.71 323.885H828.874V312.912H830.71V323.885ZM836.853 318.67C836.853 318.279 836.746 317.97 836.532 317.741C836.322 317.508 835.999 317.391 835.56 317.391C835.298 317.391 835.07 317.436 834.875 317.527C834.684 317.612 834.536 317.731 834.432 317.884C834.327 318.036 834.274 318.212 834.274 318.412H832.446C832.446 317.989 832.577 317.596 832.839 317.234C833.105 316.867 833.479 316.572 833.96 316.348C834.441 316.124 835.008 316.012 835.66 316.012C836.246 316.012 836.765 316.112 837.218 316.312C837.675 316.507 838.035 316.803 838.297 317.198C838.559 317.593 838.689 318.089 838.689 318.684V322.07C838.689 322.446 838.716 322.773 838.768 323.049C838.82 323.32 838.894 323.559 838.99 323.763V323.885H837.125C837.034 323.694 836.965 323.449 836.918 323.149C836.875 322.849 836.853 322.554 836.853 322.263V318.67ZM837.118 320.291H835.932C835.322 320.291 834.865 320.408 834.56 320.641C834.255 320.87 834.103 321.175 834.103 321.556C834.103 321.851 834.203 322.096 834.403 322.292C834.608 322.487 834.894 322.585 835.26 322.585C835.603 322.585 835.901 322.515 836.153 322.377C836.406 322.239 836.603 322.073 836.746 321.877C836.889 321.677 836.963 321.489 836.968 321.313L837.532 322.127C837.47 322.318 837.373 322.523 837.239 322.742C837.106 322.961 836.93 323.168 836.711 323.363C836.496 323.559 836.239 323.718 835.939 323.842C835.639 323.966 835.291 324.028 834.896 324.028C834.396 324.028 833.946 323.928 833.546 323.728C833.15 323.528 832.839 323.254 832.61 322.906C832.386 322.554 832.274 322.158 832.274 321.72C832.274 320.901 832.579 320.272 833.189 319.834C833.803 319.391 834.679 319.17 835.818 319.17H837.118V320.291ZM844.269 324.028C843.621 324.028 843.088 323.863 842.669 323.535C842.254 323.206 841.931 322.756 841.697 322.184C841.469 321.613 841.311 320.963 841.226 320.234V319.813C841.311 319.065 841.469 318.408 841.697 317.841C841.931 317.269 842.254 316.822 842.669 316.498C843.083 316.174 843.612 316.012 844.255 316.012C844.921 316.012 845.479 316.179 845.926 316.512C846.374 316.846 846.71 317.31 846.934 317.905C847.158 318.496 847.269 319.174 847.269 319.941V320.091C847.269 320.858 847.158 321.539 846.934 322.134C846.71 322.725 846.374 323.189 845.926 323.528C845.479 323.861 844.926 324.028 844.269 324.028ZM840.44 323.885V312.912H842.269V322.184L842.09 323.885H840.44ZM843.805 322.535C844.224 322.535 844.55 322.427 844.783 322.213C845.021 321.999 845.191 321.708 845.291 321.341C845.391 320.97 845.441 320.553 845.441 320.091V319.941C845.441 319.503 845.391 319.098 845.291 318.727C845.195 318.355 845.029 318.06 844.791 317.841C844.552 317.617 844.219 317.505 843.79 317.505C843.5 317.505 843.247 317.555 843.033 317.655C842.824 317.75 842.647 317.886 842.504 318.062C842.362 318.239 842.25 318.446 842.169 318.684C842.092 318.922 842.042 319.179 842.019 319.455V320.591C842.057 320.953 842.14 321.282 842.269 321.577C842.402 321.873 842.593 322.106 842.84 322.277C843.093 322.449 843.414 322.535 843.805 322.535ZM848.341 319.948C848.341 319.196 848.484 318.524 848.77 317.934C849.055 317.343 849.465 316.876 849.998 316.534C850.537 316.186 851.184 316.012 851.942 316.012C852.708 316.012 853.363 316.186 853.906 316.534C854.449 316.876 854.861 317.343 855.142 317.934C855.428 318.524 855.571 319.196 855.571 319.948V320.098C855.571 320.846 855.428 321.518 855.142 322.113C854.861 322.704 854.449 323.17 853.906 323.513C853.368 323.856 852.718 324.028 851.956 324.028C851.194 324.028 850.544 323.856 850.006 323.513C849.467 323.17 849.055 322.704 848.77 322.113C848.484 321.518 848.341 320.846 848.341 320.098V319.948ZM850.17 320.098C850.17 320.546 850.232 320.958 850.356 321.334C850.48 321.706 850.672 322.004 850.934 322.227C851.196 322.446 851.537 322.556 851.956 322.556C852.375 322.556 852.716 322.446 852.978 322.227C853.239 322.004 853.43 321.706 853.549 321.334C853.673 320.958 853.735 320.546 853.735 320.098V319.948C853.735 319.505 853.673 319.098 853.549 318.727C853.43 318.351 853.237 318.05 852.97 317.827C852.708 317.598 852.366 317.484 851.942 317.484C851.527 317.484 851.189 317.598 850.927 317.827C850.665 318.05 850.472 318.351 850.349 318.727C850.229 319.098 850.17 319.505 850.17 319.948V320.098ZM858.8 323.885H856.971V316.155H858.707L858.8 317.712V323.885ZM861.122 317.848C861.012 317.829 860.893 317.815 860.765 317.805C860.641 317.796 860.519 317.791 860.4 317.791C860.014 317.791 859.693 317.86 859.436 317.998C859.179 318.131 858.983 318.327 858.85 318.584C858.721 318.836 858.645 319.139 858.621 319.491L858.214 319.463C858.214 318.81 858.3 318.224 858.471 317.705C858.643 317.181 858.898 316.769 859.236 316.469C859.579 316.164 860.005 316.012 860.514 316.012C860.615 316.012 860.726 316.022 860.85 316.041C860.974 316.055 861.069 316.076 861.136 316.105L861.122 317.848ZM866.373 318.67C866.373 318.279 866.265 317.97 866.051 317.741C865.842 317.508 865.518 317.391 865.08 317.391C864.818 317.391 864.589 317.436 864.394 317.527C864.203 317.612 864.056 317.731 863.951 317.884C863.846 318.036 863.794 318.212 863.794 318.412H861.965C861.965 317.989 862.096 317.596 862.358 317.234C862.624 316.867 862.998 316.572 863.479 316.348C863.96 316.124 864.527 316.012 865.18 316.012C865.765 316.012 866.284 316.112 866.737 316.312C867.194 316.507 867.554 316.803 867.816 317.198C868.078 317.593 868.209 318.089 868.209 318.684V322.07C868.209 322.446 868.235 322.773 868.287 323.049C868.34 323.32 868.413 323.559 868.509 323.763V323.885H866.644C866.554 323.694 866.485 323.449 866.437 323.149C866.394 322.849 866.373 322.554 866.373 322.263V318.67ZM866.637 320.291H865.451C864.841 320.291 864.384 320.408 864.079 320.641C863.775 320.87 863.622 321.175 863.622 321.556C863.622 321.851 863.722 322.096 863.922 322.292C864.127 322.487 864.413 322.585 864.779 322.585C865.122 322.585 865.42 322.515 865.672 322.377C865.925 322.239 866.123 322.073 866.265 321.877C866.408 321.677 866.482 321.489 866.487 321.313L867.051 322.127C866.989 322.318 866.892 322.523 866.758 322.742C866.625 322.961 866.449 323.168 866.23 323.363C866.015 323.559 865.758 323.718 865.458 323.842C865.158 323.966 864.81 324.028 864.415 324.028C863.915 324.028 863.465 323.928 863.065 323.728C862.67 323.528 862.358 323.254 862.129 322.906C861.905 322.554 861.793 322.158 861.793 321.72C861.793 320.901 862.098 320.272 862.708 319.834C863.322 319.391 864.198 319.17 865.337 319.17H866.637V320.291ZM873.574 317.505H869.166V316.155H873.574V317.505ZM872.216 314.262V321.67C872.216 321.903 872.25 322.082 872.316 322.206C872.383 322.325 872.476 322.406 872.595 322.449C872.719 322.492 872.864 322.513 873.031 322.513C873.15 322.513 873.264 322.506 873.374 322.492C873.483 322.477 873.569 322.463 873.631 322.449V323.856C873.483 323.904 873.314 323.944 873.124 323.978C872.933 324.011 872.712 324.028 872.459 324.028C872.054 324.028 871.695 323.956 871.381 323.813C871.066 323.666 870.821 323.43 870.645 323.106C870.473 322.782 870.388 322.351 870.388 321.813V314.262H872.216ZM874.345 319.948C874.345 319.196 874.488 318.524 874.774 317.934C875.06 317.343 875.469 316.876 876.003 316.534C876.541 316.186 877.189 316.012 877.946 316.012C878.713 316.012 879.368 316.186 879.911 316.534C880.453 316.876 880.865 317.343 881.146 317.934C881.432 318.524 881.575 319.196 881.575 319.948V320.098C881.575 320.846 881.432 321.518 881.146 322.113C880.865 322.704 880.453 323.17 879.911 323.513C879.372 323.856 878.722 324.028 877.96 324.028C877.198 324.028 876.548 323.856 876.01 323.513C875.472 323.17 875.06 322.704 874.774 322.113C874.488 321.518 874.345 320.846 874.345 320.098V319.948ZM876.174 320.098C876.174 320.546 876.236 320.958 876.36 321.334C876.484 321.706 876.677 322.004 876.939 322.227C877.201 322.446 877.541 322.556 877.96 322.556C878.379 322.556 878.72 322.446 878.982 322.227C879.244 322.004 879.434 321.706 879.553 321.334C879.677 320.958 879.739 320.546 879.739 320.098V319.948C879.739 319.505 879.677 319.098 879.553 318.727C879.434 318.351 879.241 318.05 878.975 317.827C878.713 317.598 878.37 317.484 877.946 317.484C877.532 317.484 877.193 317.598 876.931 317.827C876.67 318.05 876.477 318.351 876.353 318.727C876.234 319.098 876.174 319.505 876.174 319.948V320.098ZM884.804 323.885H882.975V316.155H884.711L884.804 317.712V323.885ZM887.126 317.848C887.016 317.829 886.897 317.815 886.769 317.805C886.645 317.796 886.524 317.791 886.404 317.791C886.019 317.791 885.697 317.86 885.44 317.998C885.183 318.131 884.988 318.327 884.854 318.584C884.726 318.836 884.649 319.139 884.626 319.491L884.218 319.463C884.218 318.81 884.304 318.224 884.476 317.705C884.647 317.181 884.902 316.769 885.24 316.469C885.583 316.164 886.009 316.012 886.519 316.012C886.619 316.012 886.731 316.022 886.855 316.041C886.978 316.055 887.074 316.076 887.14 316.105L887.126 317.848ZM891.098 324.028C890.388 324.028 889.788 323.901 889.298 323.649C888.812 323.392 888.443 323.066 888.19 322.67C887.943 322.275 887.819 321.868 887.819 321.449H889.576C889.595 321.744 889.679 321.984 889.826 322.17C889.979 322.351 890.169 322.482 890.398 322.563C890.631 322.644 890.874 322.685 891.127 322.685C891.422 322.685 891.67 322.646 891.87 322.57C892.07 322.489 892.22 322.382 892.32 322.249C892.424 322.111 892.477 321.951 892.477 321.77C892.477 321.608 892.434 321.463 892.348 321.334C892.267 321.206 892.108 321.087 891.87 320.977C891.636 320.868 891.291 320.765 890.834 320.67C890.291 320.556 889.812 320.403 889.398 320.213C888.983 320.022 888.657 319.777 888.419 319.477C888.186 319.172 888.069 318.803 888.069 318.37C888.069 317.946 888.19 317.555 888.433 317.198C888.676 316.841 889.024 316.555 889.476 316.341C889.929 316.122 890.465 316.012 891.084 316.012C891.736 316.012 892.296 316.122 892.763 316.341C893.234 316.555 893.596 316.848 893.849 317.219C894.101 317.586 894.227 318.005 894.227 318.477H892.398C892.398 318.172 892.289 317.91 892.07 317.691C891.851 317.467 891.52 317.355 891.077 317.355C890.81 317.355 890.584 317.398 890.398 317.484C890.212 317.569 890.074 317.684 889.984 317.827C889.893 317.965 889.848 318.117 889.848 318.284C889.848 318.446 889.893 318.589 889.984 318.712C890.079 318.832 890.238 318.939 890.462 319.034C890.686 319.124 890.998 319.213 891.398 319.298C891.979 319.417 892.484 319.572 892.913 319.763C893.346 319.948 893.679 320.196 893.913 320.506C894.151 320.81 894.27 321.203 894.27 321.684C894.27 322.137 894.139 322.542 893.877 322.899C893.62 323.251 893.253 323.528 892.777 323.728C892.301 323.928 891.741 324.028 891.098 324.028Z" fill="white"/>
<path d="M848.312 332.987L854.048 350.454L857.122 343.28L864.684 341.349L848.312 332.987Z" fill="#7A1600" stroke="#7A1600" stroke-width="2" stroke-linecap="round" stroke-linejoin="round"/>
<path d="M857.508 343.73L863.025 350.177" stroke="#7A1600" stroke-width="4" stroke-linecap="round" stroke-linejoin="round"/>
<rect x="215.705" y="446.964" width="106" height="40" rx="20" fill="#FFE0CF"/>
<g clip-path="url(#clip1_1173_9248)">
<path d="M239.704 469.63C241.177 469.63 242.37 468.436 242.37 466.964C242.37 465.491 241.177 464.297 239.704 464.297C238.231 464.297 237.037 465.491 237.037 466.964C237.037 468.436 238.231 469.63 239.704 469.63Z" stroke="#7A1600" stroke-width="1.33333" stroke-linecap="round" stroke-linejoin="round"/>
<path d="M242.37 464.297V467.631C242.37 468.161 242.581 468.67 242.956 469.045C243.331 469.42 243.84 469.631 244.37 469.631C244.901 469.631 245.41 469.42 245.785 469.045C246.16 468.67 246.37 468.161 246.37 467.631V466.964C246.37 465.459 245.861 463.999 244.926 462.82C243.991 461.642 242.684 460.814 241.219 460.472C239.754 460.13 238.216 460.294 236.855 460.937C235.495 461.58 234.392 462.664 233.726 464.013C233.06 465.362 232.87 466.897 233.187 468.368C233.503 469.839 234.308 471.16 235.471 472.115C236.633 473.07 238.085 473.604 239.589 473.63C241.094 473.656 242.563 473.172 243.757 472.257" stroke="#7A1600" stroke-width="1.33333" stroke-linecap="round" stroke-linejoin="round"/>
</g>
<path d="M254.398 471.964H252.562V464.234H254.291L254.398 465.813V471.964ZM253.505 467.835C253.505 467.111 253.62 466.468 253.848 465.906C254.082 465.344 254.427 464.901 254.884 464.577C255.341 464.253 255.908 464.091 256.584 464.091C257.285 464.091 257.858 464.303 258.306 464.727C258.754 465.151 258.978 465.846 258.978 466.813V471.964H257.149V466.992C257.149 466.634 257.094 466.353 256.985 466.149C256.88 465.944 256.727 465.799 256.527 465.713C256.327 465.627 256.092 465.584 255.82 465.584C255.515 465.584 255.253 465.641 255.034 465.756C254.82 465.87 254.644 466.03 254.506 466.234C254.367 466.439 254.265 466.677 254.198 466.949C254.136 467.22 254.105 467.513 254.105 467.827L253.505 467.835ZM258.035 467.606C258.035 466.963 258.149 466.375 258.378 465.841C258.606 465.308 258.944 464.884 259.392 464.57C259.84 464.251 260.392 464.091 261.049 464.091C261.569 464.091 262.016 464.189 262.393 464.384C262.769 464.575 263.057 464.882 263.257 465.306C263.462 465.73 263.564 466.289 263.564 466.984V471.964H261.728V466.977C261.728 466.606 261.673 466.32 261.564 466.12C261.459 465.92 261.307 465.782 261.107 465.706C260.911 465.625 260.68 465.584 260.414 465.584C260.152 465.584 259.923 465.632 259.728 465.727C259.537 465.822 259.375 465.956 259.242 466.127C259.113 466.294 259.016 466.492 258.949 466.72C258.882 466.944 258.849 467.187 258.849 467.449L258.035 467.606ZM268.736 472.107C267.96 472.107 267.291 471.942 266.729 471.614C266.172 471.28 265.741 470.83 265.436 470.264C265.136 469.697 264.986 469.066 264.986 468.37V468.078C264.986 467.277 265.138 466.58 265.443 465.984C265.748 465.384 266.167 464.92 266.7 464.591C267.234 464.258 267.841 464.091 268.522 464.091C269.265 464.091 269.882 464.253 270.372 464.577C270.868 464.896 271.239 465.341 271.487 465.913C271.735 466.48 271.858 467.137 271.858 467.885V468.67H265.85V467.37H270.051V467.227C270.041 466.932 269.984 466.658 269.879 466.406C269.775 466.153 269.61 465.951 269.387 465.799C269.167 465.641 268.877 465.563 268.515 465.563C268.139 465.563 267.824 465.668 267.572 465.877C267.324 466.087 267.136 466.38 267.008 466.756C266.884 467.132 266.822 467.573 266.822 468.078V468.37C266.822 468.799 266.9 469.185 267.058 469.528C267.22 469.871 267.451 470.142 267.751 470.342C268.055 470.537 268.42 470.635 268.844 470.635C269.248 470.635 269.61 470.556 269.929 470.399C270.253 470.237 270.532 470.006 270.765 469.706L271.715 470.671C271.473 471.033 271.103 471.364 270.608 471.664C270.118 471.959 269.494 472.107 268.736 472.107ZM274.959 471.964H273.13V464.234H274.852L274.959 465.884V471.964ZM274.08 467.835C274.085 467.082 274.214 466.427 274.466 465.87C274.723 465.308 275.083 464.872 275.545 464.563C276.007 464.248 276.545 464.091 277.159 464.091C277.655 464.091 278.086 464.186 278.452 464.377C278.819 464.563 279.102 464.867 279.302 465.291C279.507 465.715 279.61 466.284 279.61 466.999V471.964H277.774V466.984C277.774 466.632 277.724 466.353 277.624 466.149C277.524 465.944 277.374 465.799 277.174 465.713C276.978 465.627 276.738 465.584 276.452 465.584C276.161 465.584 275.904 465.641 275.68 465.756C275.461 465.87 275.273 466.03 275.116 466.234C274.964 466.439 274.847 466.677 274.766 466.949C274.69 467.22 274.652 467.513 274.652 467.827L274.08 467.835ZM284.932 465.584H280.524V464.234H284.932V465.584ZM283.575 462.341V469.749C283.575 469.983 283.608 470.161 283.675 470.285C283.741 470.404 283.834 470.485 283.953 470.528C284.077 470.571 284.222 470.592 284.389 470.592C284.508 470.592 284.622 470.585 284.732 470.571C284.841 470.556 284.927 470.542 284.989 470.528V471.935C284.841 471.983 284.672 472.023 284.482 472.057C284.291 472.09 284.07 472.107 283.817 472.107C283.413 472.107 283.053 472.035 282.739 471.892C282.424 471.745 282.179 471.509 282.003 471.185C281.831 470.861 281.746 470.43 281.746 469.892V462.341H283.575ZM287.261 461.255C287.585 461.255 287.84 461.348 288.025 461.534C288.211 461.715 288.304 461.943 288.304 462.219C288.304 462.496 288.211 462.727 288.025 462.912C287.84 463.093 287.585 463.184 287.261 463.184C286.937 463.184 286.682 463.093 286.496 462.912C286.315 462.727 286.225 462.496 286.225 462.219C286.225 461.943 286.315 461.715 286.496 461.534C286.682 461.348 286.937 461.255 287.261 461.255ZM288.182 471.964H286.346V464.234H288.182V471.964ZM289.718 468.028C289.718 467.275 289.861 466.603 290.147 466.013C290.433 465.422 290.842 464.956 291.376 464.613C291.914 464.265 292.562 464.091 293.319 464.091C294.086 464.091 294.741 464.265 295.284 464.613C295.827 464.956 296.239 465.422 296.52 466.013C296.805 466.603 296.948 467.275 296.948 468.028V468.178C296.948 468.925 296.805 469.597 296.52 470.192C296.239 470.783 295.827 471.249 295.284 471.592C294.745 471.935 294.095 472.107 293.333 472.107C292.571 472.107 291.921 471.935 291.383 471.592C290.845 471.249 290.433 470.783 290.147 470.192C289.861 469.597 289.718 468.925 289.718 468.178V468.028ZM291.547 468.178C291.547 468.625 291.609 469.037 291.733 469.413C291.857 469.785 292.05 470.083 292.312 470.306C292.574 470.526 292.914 470.635 293.333 470.635C293.752 470.635 294.093 470.526 294.355 470.306C294.617 470.083 294.807 469.785 294.926 469.413C295.05 469.037 295.112 468.625 295.112 468.178V468.028C295.112 467.585 295.05 467.177 294.926 466.806C294.807 466.43 294.614 466.13 294.348 465.906C294.086 465.677 293.743 465.563 293.319 465.563C292.905 465.563 292.567 465.677 292.305 465.906C292.043 466.13 291.85 466.43 291.726 466.806C291.607 467.177 291.547 467.585 291.547 468.028V468.178ZM300.149 471.964H298.32V464.234H300.042L300.149 465.884V471.964ZM299.27 467.835C299.275 467.082 299.403 466.427 299.656 465.87C299.913 465.308 300.273 464.872 300.735 464.563C301.196 464.248 301.735 464.091 302.349 464.091C302.844 464.091 303.275 464.186 303.642 464.377C304.009 464.563 304.292 464.867 304.492 465.291C304.697 465.715 304.799 466.284 304.799 466.999V471.964H302.963V466.984C302.963 466.632 302.913 466.353 302.813 466.149C302.713 465.944 302.563 465.799 302.363 465.713C302.168 465.627 301.928 465.584 301.642 465.584C301.351 465.584 301.094 465.641 300.87 465.756C300.651 465.87 300.463 466.03 300.306 466.234C300.153 466.439 300.037 466.677 299.956 466.949C299.88 467.22 299.842 467.513 299.842 467.827L299.27 467.835Z" fill="#7A1600"/>
<rect x="665.912" y="417.964" width="85" height="40" rx="20" fill="#FFE0CF"/>
<path d="M685.939 441.714C685.97 441.714 686.001 441.711 686.032 441.706L688.661 441.245C688.692 441.239 688.721 441.225 688.743 441.201L695.367 434.578C695.381 434.563 695.393 434.546 695.401 434.527C695.408 434.509 695.412 434.488 695.412 434.468C695.412 434.447 695.408 434.427 695.401 434.408C695.393 434.389 695.381 434.372 695.367 434.358L692.77 431.759C692.74 431.729 692.701 431.714 692.659 431.714C692.617 431.714 692.578 431.729 692.548 431.759L685.925 438.383C685.901 438.406 685.887 438.434 685.881 438.465L685.42 441.094C685.405 441.177 685.41 441.263 685.436 441.345C685.461 441.426 685.506 441.499 685.567 441.559C685.67 441.659 685.8 441.714 685.939 441.714V441.714ZM686.992 438.989L692.659 433.323L693.804 434.469L688.137 440.134L686.748 440.379L686.992 438.989V438.989ZM695.662 443.026H684.162C683.886 443.026 683.662 443.25 683.662 443.526V444.089C683.662 444.158 683.718 444.214 683.787 444.214H696.037C696.106 444.214 696.162 444.158 696.162 444.089V443.526C696.162 443.25 695.939 443.026 695.662 443.026Z" fill="#7A1600"/>
<path d="M709.506 442.964H704.291V441.435H709.506V442.964ZM704.834 442.964H702.934V432.562H704.834V442.964ZM710.363 439.028C710.363 438.275 710.506 437.603 710.792 437.013C711.078 436.422 711.487 435.956 712.021 435.613C712.559 435.265 713.207 435.091 713.964 435.091C714.731 435.091 715.386 435.265 715.929 435.613C716.472 435.956 716.884 436.422 717.165 437.013C717.45 437.603 717.593 438.275 717.593 439.028V439.178C717.593 439.925 717.45 440.597 717.165 441.192C716.884 441.783 716.472 442.249 715.929 442.592C715.39 442.935 714.74 443.107 713.978 443.107C713.216 443.107 712.566 442.935 712.028 442.592C711.49 442.249 711.078 441.783 710.792 441.192C710.506 440.597 710.363 439.925 710.363 439.178V439.028ZM712.192 439.178C712.192 439.625 712.254 440.037 712.378 440.413C712.502 440.785 712.695 441.083 712.957 441.306C713.219 441.526 713.559 441.635 713.978 441.635C714.397 441.635 714.738 441.526 715 441.306C715.262 441.083 715.452 440.785 715.571 440.413C715.695 440.037 715.757 439.625 715.757 439.178V439.028C715.757 438.585 715.695 438.177 715.571 437.806C715.452 437.43 715.26 437.13 714.993 436.906C714.731 436.677 714.388 436.563 713.964 436.563C713.55 436.563 713.212 436.677 712.95 436.906C712.688 437.13 712.495 437.43 712.371 437.806C712.252 438.177 712.192 438.585 712.192 439.028V439.178ZM722.008 446.007C721.708 446.007 721.377 445.964 721.015 445.879C720.658 445.798 720.31 445.664 719.972 445.479C719.639 445.293 719.358 445.052 719.129 444.757L719.972 443.65C720.239 443.959 720.537 444.19 720.865 444.343C721.199 444.495 721.549 444.571 721.915 444.571C722.487 444.571 722.935 444.414 723.258 444.1C723.582 443.79 723.744 443.343 723.744 442.757V436.999L723.923 435.234H725.58V442.728C725.58 443.428 725.43 444.024 725.13 444.514C724.83 445.005 724.411 445.376 723.873 445.629C723.335 445.881 722.713 446.007 722.008 446.007ZM721.78 443.107C721.146 443.107 720.598 442.938 720.137 442.6C719.675 442.257 719.317 441.79 719.065 441.199C718.812 440.609 718.686 439.937 718.686 439.185V439.035C718.686 438.254 718.81 437.568 719.058 436.977C719.31 436.382 719.67 435.92 720.137 435.591C720.603 435.258 721.156 435.091 721.794 435.091C722.304 435.091 722.735 435.184 723.087 435.37C723.444 435.556 723.739 435.82 723.973 436.163C724.206 436.501 724.39 436.906 724.523 437.377C724.656 437.844 724.756 438.358 724.823 438.92V439.342C724.737 440.066 724.578 440.711 724.344 441.278C724.111 441.845 723.785 442.292 723.366 442.621C722.951 442.945 722.423 443.107 721.78 443.107ZM722.244 441.607C722.639 441.607 722.961 441.523 723.208 441.356C723.456 441.19 723.649 440.964 723.787 440.678C723.925 440.392 724.018 440.068 724.066 439.706V438.563C724.037 438.277 723.982 438.013 723.901 437.77C723.82 437.527 723.706 437.318 723.559 437.141C723.416 436.965 723.235 436.83 723.016 436.734C722.801 436.634 722.549 436.584 722.258 436.584C721.858 436.584 721.53 436.694 721.272 436.913C721.015 437.132 720.825 437.427 720.701 437.799C720.577 438.17 720.515 438.582 720.515 439.035V439.185C720.515 439.632 720.575 440.04 720.694 440.406C720.818 440.773 721.006 441.066 721.258 441.285C721.515 441.499 721.844 441.607 722.244 441.607ZM730.217 443.107C729.507 443.107 728.907 442.981 728.416 442.728C727.931 442.471 727.562 442.145 727.309 441.749C727.061 441.354 726.938 440.947 726.938 440.528H728.695C728.714 440.823 728.797 441.064 728.945 441.249C729.098 441.43 729.288 441.561 729.517 441.642C729.75 441.723 729.993 441.764 730.245 441.764C730.541 441.764 730.788 441.726 730.988 441.649C731.188 441.568 731.338 441.461 731.438 441.328C731.543 441.19 731.596 441.03 731.596 440.849C731.596 440.687 731.553 440.542 731.467 440.413C731.386 440.285 731.226 440.166 730.988 440.056C730.755 439.947 730.41 439.844 729.952 439.749C729.409 439.635 728.931 439.482 728.516 439.292C728.102 439.101 727.776 438.856 727.538 438.556C727.304 438.251 727.188 437.882 727.188 437.449C727.188 437.025 727.309 436.634 727.552 436.277C727.795 435.92 728.143 435.634 728.595 435.42C729.047 435.201 729.583 435.091 730.202 435.091C730.855 435.091 731.415 435.201 731.881 435.42C732.353 435.634 732.715 435.927 732.967 436.298C733.22 436.665 733.346 437.084 733.346 437.556H731.517C731.517 437.251 731.407 436.989 731.188 436.77C730.969 436.546 730.638 436.434 730.195 436.434C729.929 436.434 729.702 436.477 729.517 436.563C729.331 436.649 729.193 436.763 729.102 436.906C729.012 437.044 728.967 437.196 728.967 437.363C728.967 437.525 729.012 437.668 729.102 437.792C729.198 437.911 729.357 438.018 729.581 438.113C729.805 438.204 730.117 438.292 730.517 438.377C731.098 438.496 731.603 438.651 732.031 438.842C732.465 439.028 732.798 439.275 733.031 439.585C733.27 439.89 733.389 440.282 733.389 440.764C733.389 441.216 733.258 441.621 732.996 441.978C732.739 442.33 732.372 442.607 731.896 442.807C731.419 443.007 730.86 443.107 730.217 443.107Z" fill="#7A1600"/>
<rect x="592.412" y="174.707" width="126" height="40" rx="20" fill="#FFE0CF"/>
<path d="M619.603 193.048C619.152 193.048 618.803 193.398 618.803 193.829C618.803 194.261 619.152 194.61 619.603 194.61C620.015 194.61 620.365 194.261 620.365 193.829C620.365 193.398 620.015 193.048 619.603 193.048ZM614.136 193.048C613.685 193.048 613.336 193.398 613.336 193.829C613.336 194.261 613.685 194.61 614.136 194.61C614.548 194.61 614.898 194.261 614.898 193.829C614.898 193.398 614.548 193.048 614.136 193.048Z" fill="#7A1600"/>
<path d="M625.871 191.564C624.932 190.275 623.62 189.414 622.181 189.025V189.027C621.847 188.656 621.47 188.315 621.048 188.01C617.852 185.687 613.366 186.395 611.032 189.592C609.152 192.188 609.232 195.681 611.15 198.163L611.165 200.752C611.165 200.814 611.175 200.877 611.195 200.935C611.298 201.265 611.649 201.447 611.977 201.343L614.449 200.564C615.103 200.797 615.779 200.929 616.45 200.966L616.441 200.974C618.18 202.241 620.461 202.622 622.552 201.931L625.033 202.739C625.096 202.759 625.16 202.77 625.227 202.77C625.572 202.77 625.851 202.491 625.851 202.146V199.529C627.571 197.194 627.616 193.967 625.871 191.564ZM614.723 199.178L614.488 199.08L612.555 199.686L612.536 197.655L612.38 197.479C610.728 195.465 610.619 192.561 612.165 190.431C614.047 187.85 617.655 187.28 620.228 189.143C622.809 191.019 623.382 194.621 621.517 197.187C619.953 199.332 617.153 200.125 614.723 199.178ZM624.582 198.846L624.426 199.041L624.446 201.072L622.532 200.428L622.298 200.525C621.205 200.931 620.039 200.964 618.959 200.662L618.955 200.66C620.398 200.217 621.706 199.319 622.649 198.026C624.141 195.97 624.383 193.387 623.516 191.185L623.528 191.193C623.977 191.515 624.389 191.917 624.738 192.403C626.156 194.348 626.076 196.995 624.582 198.846Z" fill="#7A1600"/>
<path d="M616.87 193.048C616.419 193.048 616.069 193.398 616.069 193.829C616.069 194.261 616.419 194.61 616.87 194.61C617.282 194.61 617.631 194.261 617.631 193.829C617.631 193.398 617.282 193.048 616.87 193.048Z" fill="#7A1600"/>
<path d="M636.477 199.85C635.686 199.85 635.029 199.676 634.505 199.328C633.981 198.976 633.591 198.507 633.334 197.921C633.077 197.33 632.948 196.678 632.948 195.964V195.728C632.948 195.009 633.077 194.356 633.334 193.77C633.596 193.18 633.986 192.711 634.505 192.363C635.029 192.011 635.684 191.834 636.47 191.834C637.094 191.834 637.642 191.958 638.113 192.206C638.589 192.449 638.961 192.792 639.228 193.235C639.494 193.673 639.632 194.189 639.642 194.785H637.92C637.911 194.513 637.846 194.266 637.727 194.042C637.608 193.818 637.439 193.639 637.22 193.506C637.006 193.373 636.746 193.306 636.441 193.306C635.998 193.306 635.655 193.423 635.413 193.656C635.174 193.889 635.008 194.192 634.913 194.563C634.822 194.93 634.777 195.318 634.777 195.728V195.964C634.777 196.373 634.822 196.764 634.913 197.135C635.003 197.502 635.17 197.802 635.413 198.035C635.655 198.264 636.003 198.378 636.456 198.378C636.727 198.378 636.97 198.326 637.184 198.221C637.403 198.112 637.577 197.962 637.706 197.771C637.839 197.58 637.911 197.359 637.92 197.107H639.642C639.632 197.621 639.485 198.085 639.199 198.5C638.913 198.914 638.532 199.243 638.056 199.486C637.584 199.728 637.058 199.85 636.477 199.85ZM640.606 195.771C640.606 195.018 640.749 194.347 641.035 193.756C641.321 193.165 641.73 192.699 642.264 192.356C642.802 192.008 643.45 191.834 644.207 191.834C644.974 191.834 645.629 192.008 646.171 192.356C646.714 192.699 647.126 193.165 647.407 193.756C647.693 194.347 647.836 195.018 647.836 195.771V195.921C647.836 196.668 647.693 197.34 647.407 197.935C647.126 198.526 646.714 198.993 646.171 199.336C645.633 199.678 644.983 199.85 644.221 199.85C643.459 199.85 642.809 199.678 642.271 199.336C641.733 198.993 641.321 198.526 641.035 197.935C640.749 197.34 640.606 196.668 640.606 195.921V195.771ZM642.435 195.921C642.435 196.368 642.497 196.78 642.621 197.157C642.745 197.528 642.938 197.826 643.2 198.05C643.462 198.269 643.802 198.378 644.221 198.378C644.64 198.378 644.981 198.269 645.243 198.05C645.505 197.826 645.695 197.528 645.814 197.157C645.938 196.78 646 196.368 646 195.921V195.771C646 195.328 645.938 194.921 645.814 194.549C645.695 194.173 645.502 193.873 645.236 193.649C644.974 193.42 644.631 193.306 644.207 193.306C643.793 193.306 643.454 193.42 643.192 193.649C642.93 193.873 642.738 194.173 642.614 194.549C642.495 194.921 642.435 195.328 642.435 195.771V195.921ZM651.065 199.707H649.229V191.977H650.958L651.065 193.556V199.707ZM650.172 195.578C650.172 194.854 650.286 194.211 650.515 193.649C650.748 193.087 651.094 192.644 651.551 192.32C652.008 191.996 652.575 191.834 653.251 191.834C653.951 191.834 654.525 192.046 654.973 192.47C655.421 192.894 655.644 193.589 655.644 194.556V199.707H653.816V194.735C653.816 194.378 653.761 194.097 653.651 193.892C653.547 193.687 653.394 193.542 653.194 193.456C652.994 193.37 652.758 193.327 652.487 193.327C652.182 193.327 651.92 193.385 651.701 193.499C651.487 193.613 651.31 193.773 651.172 193.978C651.034 194.182 650.932 194.42 650.865 194.692C650.803 194.963 650.772 195.256 650.772 195.571L650.172 195.578ZM654.701 195.349C654.701 194.706 654.816 194.118 655.044 193.585C655.273 193.051 655.611 192.627 656.059 192.313C656.507 191.994 657.059 191.834 657.716 191.834C658.235 191.834 658.683 191.932 659.059 192.127C659.436 192.318 659.724 192.625 659.924 193.049C660.129 193.473 660.231 194.032 660.231 194.728V199.707H658.395V194.721C658.395 194.349 658.34 194.063 658.231 193.863C658.126 193.663 657.973 193.525 657.773 193.449C657.578 193.368 657.347 193.327 657.08 193.327C656.818 193.327 656.59 193.375 656.395 193.47C656.204 193.566 656.042 193.699 655.909 193.87C655.78 194.037 655.683 194.235 655.616 194.463C655.549 194.687 655.516 194.93 655.516 195.192L654.701 195.349ZM663.782 199.707H661.946V191.977H663.674L663.782 193.556V199.707ZM662.889 195.578C662.889 194.854 663.003 194.211 663.231 193.649C663.465 193.087 663.81 192.644 664.267 192.32C664.725 191.996 665.291 191.834 665.968 191.834C666.668 191.834 667.242 192.046 667.689 192.47C668.137 192.894 668.361 193.589 668.361 194.556V199.707H666.532V194.735C666.532 194.378 666.477 194.097 666.368 193.892C666.263 193.687 666.11 193.542 665.91 193.456C665.71 193.37 665.475 193.327 665.203 193.327C664.898 193.327 664.636 193.385 664.417 193.499C664.203 193.613 664.027 193.773 663.889 193.978C663.751 194.182 663.648 194.42 663.581 194.692C663.52 194.963 663.489 195.256 663.489 195.571L662.889 195.578ZM667.418 195.349C667.418 194.706 667.532 194.118 667.761 193.585C667.989 193.051 668.327 192.627 668.775 192.313C669.223 191.994 669.775 191.834 670.433 191.834C670.952 191.834 671.399 191.932 671.776 192.127C672.152 192.318 672.44 192.625 672.64 193.049C672.845 193.473 672.947 194.032 672.947 194.728V199.707H671.111V194.721C671.111 194.349 671.057 194.063 670.947 193.863C670.842 193.663 670.69 193.525 670.49 193.449C670.294 193.368 670.063 193.327 669.797 193.327C669.535 193.327 669.306 193.375 669.111 193.47C668.92 193.566 668.759 193.699 668.625 193.87C668.497 194.037 668.399 194.235 668.332 194.463C668.266 194.687 668.232 194.93 668.232 195.192L667.418 195.349ZM678.12 199.85C677.343 199.85 676.674 199.686 676.112 199.357C675.555 199.024 675.124 198.574 674.819 198.007C674.519 197.44 674.369 196.809 674.369 196.114V195.821C674.369 195.021 674.521 194.323 674.826 193.727C675.131 193.127 675.55 192.663 676.084 192.334C676.617 192.001 677.224 191.834 677.905 191.834C678.648 191.834 679.265 191.996 679.756 192.32C680.251 192.639 680.622 193.085 680.87 193.656C681.118 194.223 681.242 194.88 681.242 195.628V196.414H675.233V195.113H679.434V194.971C679.425 194.675 679.367 194.401 679.263 194.149C679.158 193.897 678.994 193.694 678.77 193.542C678.551 193.385 678.26 193.306 677.898 193.306C677.522 193.306 677.208 193.411 676.955 193.62C676.707 193.83 676.519 194.123 676.391 194.499C676.267 194.875 676.205 195.316 676.205 195.821V196.114C676.205 196.542 676.284 196.928 676.441 197.271C676.603 197.614 676.834 197.885 677.134 198.085C677.439 198.281 677.803 198.378 678.227 198.378C678.632 198.378 678.994 198.3 679.313 198.142C679.636 197.981 679.915 197.75 680.148 197.45L681.099 198.414C680.856 198.776 680.487 199.107 679.991 199.407C679.501 199.702 678.877 199.85 678.12 199.85ZM684.342 199.707H682.513V191.977H684.235L684.342 193.627V199.707ZM683.463 195.578C683.468 194.825 683.597 194.17 683.849 193.613C684.106 193.051 684.466 192.615 684.928 192.306C685.39 191.991 685.928 191.834 686.542 191.834C687.038 191.834 687.469 191.93 687.835 192.12C688.202 192.306 688.486 192.611 688.686 193.035C688.89 193.458 688.993 194.028 688.993 194.742V199.707H687.157V194.728C687.157 194.375 687.107 194.097 687.007 193.892C686.907 193.687 686.757 193.542 686.557 193.456C686.361 193.37 686.121 193.327 685.835 193.327C685.545 193.327 685.287 193.385 685.064 193.499C684.844 193.613 684.656 193.773 684.499 193.978C684.347 194.182 684.23 194.42 684.149 194.692C684.073 194.963 684.035 195.256 684.035 195.571L683.463 195.578ZM694.315 193.327H689.907V191.977H694.315V193.327ZM692.958 190.084V197.492C692.958 197.726 692.991 197.904 693.058 198.028C693.124 198.147 693.217 198.228 693.336 198.271C693.46 198.314 693.605 198.335 693.772 198.335C693.891 198.335 694.005 198.328 694.115 198.314C694.225 198.3 694.31 198.285 694.372 198.271V199.678C694.225 199.726 694.056 199.767 693.865 199.8C693.674 199.833 693.453 199.85 693.201 199.85C692.796 199.85 692.436 199.778 692.122 199.636C691.808 199.488 691.562 199.252 691.386 198.928C691.215 198.604 691.129 198.173 691.129 197.635V190.084H692.958ZM698.509 199.85C697.799 199.85 697.199 199.724 696.708 199.471C696.223 199.214 695.853 198.888 695.601 198.493C695.353 198.097 695.23 197.69 695.23 197.271H696.987C697.006 197.566 697.089 197.807 697.237 197.992C697.389 198.173 697.58 198.304 697.808 198.385C698.042 198.466 698.285 198.507 698.537 198.507C698.832 198.507 699.08 198.469 699.28 198.393C699.48 198.312 699.63 198.204 699.73 198.071C699.835 197.933 699.887 197.773 699.887 197.592C699.887 197.43 699.845 197.285 699.759 197.157C699.678 197.028 699.518 196.909 699.28 196.799C699.047 196.69 698.702 196.587 698.244 196.492C697.701 196.378 697.223 196.226 696.808 196.035C696.394 195.844 696.068 195.599 695.83 195.299C695.596 194.994 695.48 194.625 695.48 194.192C695.48 193.768 695.601 193.377 695.844 193.02C696.087 192.663 696.434 192.377 696.887 192.163C697.339 191.944 697.875 191.834 698.494 191.834C699.147 191.834 699.706 191.944 700.173 192.163C700.645 192.377 701.007 192.67 701.259 193.042C701.511 193.408 701.638 193.828 701.638 194.299H699.809C699.809 193.994 699.699 193.732 699.48 193.513C699.261 193.289 698.93 193.177 698.487 193.177C698.22 193.177 697.994 193.22 697.808 193.306C697.623 193.392 697.485 193.506 697.394 193.649C697.304 193.787 697.258 193.939 697.258 194.106C697.258 194.268 697.304 194.411 697.394 194.535C697.489 194.654 697.649 194.761 697.873 194.856C698.097 194.947 698.409 195.035 698.809 195.121C699.39 195.24 699.895 195.394 700.323 195.585C700.757 195.771 701.09 196.018 701.323 196.328C701.561 196.633 701.681 197.026 701.681 197.507C701.681 197.959 701.55 198.364 701.288 198.721C701.03 199.074 700.664 199.35 700.187 199.55C699.711 199.75 699.152 199.85 698.509 199.85Z" fill="#7A1600"/>
<rect x="244.705" y="216.036" width="89" height="40" rx="20" fill="#FFE0CF"/>
<g clip-path="url(#clip2_1173_9248)">
<path d="M263.372 230.703H274.039C274.772 230.703 275.372 231.303 275.372 232.036V240.036C275.372 240.77 274.772 241.37 274.039 241.37H263.372C262.639 241.37 262.039 240.77 262.039 240.036V232.036C262.039 231.303 262.639 230.703 263.372 230.703Z" stroke="#7A1600" stroke-width="1.33333" stroke-linecap="round" stroke-linejoin="round"/>
<path d="M275.372 232.036L268.706 236.703L262.039 232.036" stroke="#7A1600" stroke-width="1.33333" stroke-linecap="round" stroke-linejoin="round"/>
</g>
<path d="M285.02 241.179C284.244 241.179 283.575 241.015 283.013 240.686C282.455 240.353 282.024 239.903 281.72 239.336C281.419 238.769 281.269 238.138 281.269 237.443V237.15C281.269 236.35 281.422 235.652 281.727 235.057C282.031 234.456 282.451 233.992 282.984 233.664C283.517 233.33 284.125 233.163 284.806 233.163C285.549 233.163 286.165 233.325 286.656 233.649C287.151 233.968 287.523 234.414 287.771 234.985C288.018 235.552 288.142 236.209 288.142 236.957V237.743H282.134V236.443H286.335V236.3C286.325 236.004 286.268 235.731 286.163 235.478C286.058 235.226 285.894 235.023 285.67 234.871C285.451 234.714 285.161 234.635 284.799 234.635C284.422 234.635 284.108 234.74 283.856 234.949C283.608 235.159 283.42 235.452 283.291 235.828C283.167 236.204 283.105 236.645 283.105 237.15V237.443C283.105 237.871 283.184 238.257 283.341 238.6C283.503 238.943 283.734 239.214 284.034 239.414C284.339 239.61 284.703 239.707 285.127 239.707C285.532 239.707 285.894 239.629 286.213 239.472C286.537 239.31 286.816 239.079 287.049 238.779L287.999 239.743C287.756 240.105 287.387 240.436 286.892 240.736C286.401 241.031 285.777 241.179 285.02 241.179ZM291.271 241.036H289.435V233.306H291.164L291.271 234.885V241.036ZM290.378 236.907C290.378 236.183 290.492 235.54 290.721 234.978C290.954 234.416 291.3 233.973 291.757 233.649C292.214 233.325 292.781 233.163 293.457 233.163C294.157 233.163 294.731 233.375 295.179 233.799C295.627 234.223 295.85 234.918 295.85 235.885V241.036H294.022V236.064C294.022 235.707 293.967 235.426 293.857 235.221C293.752 235.016 293.6 234.871 293.4 234.785C293.2 234.699 292.964 234.657 292.693 234.657C292.388 234.657 292.126 234.714 291.907 234.828C291.693 234.942 291.516 235.102 291.378 235.307C291.24 235.511 291.138 235.75 291.071 236.021C291.009 236.293 290.978 236.585 290.978 236.9L290.378 236.907ZM294.907 236.678C294.907 236.035 295.022 235.447 295.25 234.914C295.479 234.38 295.817 233.956 296.265 233.642C296.712 233.323 297.265 233.163 297.922 233.163C298.441 233.163 298.889 233.261 299.265 233.456C299.642 233.647 299.93 233.954 300.13 234.378C300.334 234.802 300.437 235.361 300.437 236.057V241.036H298.601V236.05C298.601 235.678 298.546 235.392 298.437 235.192C298.332 234.992 298.179 234.854 297.979 234.778C297.784 234.697 297.553 234.657 297.286 234.657C297.024 234.657 296.796 234.704 296.601 234.799C296.41 234.895 296.248 235.028 296.115 235.199C295.986 235.366 295.889 235.564 295.822 235.792C295.755 236.016 295.722 236.259 295.722 236.521L294.907 236.678ZM306.459 235.821C306.459 235.43 306.352 235.121 306.138 234.892C305.928 234.659 305.604 234.542 305.166 234.542C304.904 234.542 304.676 234.587 304.48 234.678C304.29 234.764 304.142 234.883 304.037 235.035C303.933 235.188 303.88 235.364 303.88 235.564H302.051C302.051 235.14 302.182 234.747 302.444 234.385C302.711 234.018 303.085 233.723 303.566 233.499C304.047 233.275 304.614 233.163 305.266 233.163C305.852 233.163 306.371 233.263 306.824 233.463C307.281 233.659 307.64 233.954 307.902 234.349C308.164 234.745 308.295 235.24 308.295 235.835V239.222C308.295 239.598 308.321 239.924 308.374 240.2C308.426 240.472 308.5 240.71 308.595 240.915V241.036H306.731C306.64 240.846 306.571 240.6 306.524 240.3C306.481 240 306.459 239.705 306.459 239.414V235.821ZM306.724 237.443H305.538C304.928 237.443 304.471 237.559 304.166 237.793C303.861 238.021 303.709 238.326 303.709 238.707C303.709 239.002 303.809 239.248 304.009 239.443C304.214 239.638 304.499 239.736 304.866 239.736C305.209 239.736 305.507 239.667 305.759 239.529C306.012 239.391 306.209 239.224 306.352 239.029C306.495 238.829 306.569 238.641 306.574 238.464L307.138 239.279C307.076 239.469 306.978 239.674 306.845 239.893C306.712 240.112 306.535 240.319 306.316 240.515C306.102 240.71 305.845 240.869 305.545 240.993C305.245 241.117 304.897 241.179 304.502 241.179C304.002 241.179 303.552 241.079 303.152 240.879C302.756 240.679 302.444 240.405 302.216 240.057C301.992 239.705 301.88 239.31 301.88 238.871C301.88 238.052 302.185 237.424 302.794 236.985C303.409 236.543 304.285 236.321 305.423 236.321H306.724V237.443ZM311.089 230.327C311.412 230.327 311.667 230.42 311.853 230.606C312.039 230.787 312.132 231.015 312.132 231.292C312.132 231.568 312.039 231.799 311.853 231.985C311.667 232.166 311.412 232.256 311.089 232.256C310.765 232.256 310.51 232.166 310.324 231.985C310.143 231.799 310.053 231.568 310.053 231.292C310.053 231.015 310.143 230.787 310.324 230.606C310.51 230.42 310.765 230.327 311.089 230.327ZM312.01 241.036H310.174V233.306H312.01V241.036ZM315.818 241.036H313.982V230.063H315.818V241.036Z" fill="#7A1600"/>
<path d="M417.689 253.457C417.689 248.834 421.437 245.086 426.061 245.086H537.527C542.15 245.086 545.898 248.834 545.898 253.457V464.642C545.898 469.265 542.15 473.013 537.527 473.013H426.061C421.437 473.013 417.689 469.265 417.689 464.642V253.457Z" fill="#FE6533"/>
<rect x="465.047" y="446.844" width="33.4928" height="10.091" rx="5.04548" fill="#FFF2E2"/>
<rect x="476.748" y="253.899" width="10.091" height="10.091" rx="5.04548" fill="#FFF2E2"/>
<path d="M452.971 325.896C452.971 319.821 457.896 314.896 463.971 314.896H566.49C572.565 314.896 577.49 319.821 577.49 325.896V356.982H463.971C457.896 356.982 452.971 352.057 452.971 345.982V325.896Z" fill="#FFE0CF"/>
<path d="M469.314 330.52H544.217" stroke="#FE6533" stroke-width="4" stroke-linecap="round"/>
<path d="M469.314 343.388H504.661" stroke="#FE6533" stroke-width="4" stroke-linecap="round"/>
<path d="M577.49 374.09C577.49 368.015 572.565 363.09 566.49 363.09H463.971C457.896 363.09 452.971 368.015 452.971 374.09V391.983H566.49C572.565 391.983 577.49 387.058 577.49 380.983V374.09Z" fill="#7A1600"/>
<path d="M469.314 377.806H510.218" stroke="#FE6533" stroke-width="4" stroke-linecap="round"/>
<path d="M434.38 501.156C433.875 501.156 433.38 501.089 432.894 500.956C432.408 500.817 431.965 500.61 431.565 500.334C431.17 500.058 430.853 499.712 430.615 499.298C430.382 498.879 430.265 498.386 430.265 497.819H432.173C432.173 498.148 432.227 498.429 432.337 498.662C432.451 498.891 432.608 499.079 432.808 499.227C433.008 499.374 433.242 499.481 433.508 499.548C433.775 499.615 434.066 499.648 434.38 499.648C434.79 499.648 435.128 499.591 435.394 499.477C435.661 499.362 435.861 499.205 435.995 499.005C436.133 498.805 436.202 498.574 436.202 498.312C436.202 498.041 436.145 497.81 436.03 497.619C435.916 497.424 435.702 497.243 435.387 497.076C435.078 496.905 434.625 496.729 434.03 496.548C433.544 496.4 433.092 496.231 432.673 496.04C432.258 495.85 431.894 495.628 431.58 495.376C431.265 495.124 431.02 494.833 430.844 494.504C430.672 494.171 430.587 493.785 430.587 493.347C430.587 492.78 430.744 492.28 431.058 491.847C431.377 491.414 431.818 491.075 432.38 490.832C432.942 490.59 433.589 490.468 434.323 490.468C435.104 490.468 435.776 490.611 436.338 490.897C436.904 491.178 437.34 491.559 437.645 492.04C437.95 492.521 438.102 493.059 438.102 493.654H436.195C436.195 493.33 436.126 493.042 435.987 492.79C435.854 492.538 435.647 492.342 435.366 492.204C435.09 492.061 434.735 491.99 434.301 491.99C433.897 491.99 433.558 492.049 433.287 492.168C433.02 492.287 432.82 492.449 432.687 492.654C432.558 492.859 432.494 493.09 432.494 493.347C432.494 493.6 432.573 493.821 432.73 494.012C432.892 494.202 433.135 494.376 433.458 494.533C433.782 494.685 434.185 494.835 434.666 494.983C435.437 495.207 436.078 495.471 436.588 495.776C437.097 496.076 437.478 496.433 437.731 496.848C437.983 497.257 438.109 497.741 438.109 498.298C438.109 498.889 437.954 499.398 437.645 499.827C437.34 500.255 436.909 500.584 436.352 500.813C435.795 501.041 435.137 501.156 434.38 501.156ZM441.31 501.013H439.474V490.039H441.31V501.013ZM440.424 496.883C440.429 496.16 440.555 495.517 440.803 494.955C441.055 494.393 441.405 493.95 441.853 493.626C442.305 493.302 442.831 493.14 443.432 493.14C443.941 493.14 444.384 493.238 444.76 493.433C445.141 493.623 445.437 493.933 445.646 494.362C445.856 494.79 445.961 495.362 445.961 496.076V501.013H444.124V496.062C444.124 495.705 444.072 495.424 443.967 495.219C443.867 495.009 443.717 494.859 443.517 494.769C443.322 494.678 443.081 494.633 442.796 494.633C442.491 494.633 442.227 494.69 442.003 494.805C441.779 494.919 441.591 495.078 441.438 495.283C441.291 495.488 441.179 495.726 441.103 495.998C441.031 496.269 440.995 496.562 440.995 496.876L440.424 496.883ZM448.697 490.304C449.021 490.304 449.275 490.397 449.461 490.582C449.647 490.763 449.74 490.992 449.74 491.268C449.74 491.544 449.647 491.775 449.461 491.961C449.275 492.142 449.021 492.233 448.697 492.233C448.373 492.233 448.118 492.142 447.932 491.961C447.751 491.775 447.661 491.544 447.661 491.268C447.661 490.992 447.751 490.763 447.932 490.582C448.118 490.397 448.373 490.304 448.697 490.304ZM449.618 501.013H447.782V493.283H449.618V501.013ZM455.305 501.156C454.819 501.156 454.398 501.065 454.04 500.884C453.683 500.698 453.381 500.439 453.133 500.105C452.89 499.772 452.695 499.381 452.547 498.934C452.4 498.481 452.292 497.988 452.226 497.455V496.955C452.312 496.202 452.473 495.54 452.712 494.969C452.95 494.397 453.278 493.95 453.697 493.626C454.121 493.302 454.652 493.14 455.291 493.14C455.943 493.14 456.493 493.304 456.941 493.633C457.389 493.962 457.727 494.421 457.955 495.012C458.189 495.598 458.305 496.283 458.305 497.069V497.219C458.305 497.972 458.189 498.646 457.955 499.241C457.727 499.832 457.389 500.298 456.941 500.641C456.498 500.984 455.953 501.156 455.305 501.156ZM451.483 503.985V493.283H453.169L453.312 494.769V503.985H451.483ZM454.805 499.684C455.205 499.684 455.526 499.572 455.769 499.348C456.017 499.124 456.196 498.827 456.305 498.455C456.419 498.079 456.477 497.667 456.477 497.219V497.069C456.477 496.612 456.419 496.2 456.305 495.833C456.191 495.467 456.01 495.176 455.762 494.962C455.514 494.743 455.191 494.633 454.791 494.633C454.495 494.633 454.243 494.681 454.033 494.776C453.824 494.871 453.647 495.007 453.505 495.183C453.366 495.355 453.257 495.562 453.176 495.805C453.1 496.043 453.047 496.307 453.019 496.598V497.812C453.071 498.16 453.162 498.477 453.29 498.762C453.419 499.043 453.605 499.267 453.848 499.434C454.095 499.601 454.414 499.684 454.805 499.684ZM461.542 501.013H459.706V493.283H461.434L461.542 494.862V501.013ZM460.649 496.883C460.649 496.16 460.763 495.517 460.992 494.955C461.225 494.393 461.57 493.95 462.027 493.626C462.485 493.302 463.051 493.14 463.728 493.14C464.428 493.14 465.002 493.352 465.449 493.776C465.897 494.2 466.121 494.895 466.121 495.862V501.013H464.292V496.04C464.292 495.683 464.237 495.402 464.128 495.197C464.023 494.993 463.871 494.847 463.671 494.762C463.471 494.676 463.235 494.633 462.963 494.633C462.658 494.633 462.397 494.69 462.177 494.805C461.963 494.919 461.787 495.078 461.649 495.283C461.511 495.488 461.408 495.726 461.342 495.998C461.28 496.269 461.249 496.562 461.249 496.876L460.649 496.883ZM465.178 496.655C465.178 496.012 465.292 495.424 465.521 494.89C465.749 494.357 466.088 493.933 466.535 493.619C466.983 493.3 467.535 493.14 468.193 493.14C468.712 493.14 469.16 493.238 469.536 493.433C469.912 493.623 470.2 493.931 470.4 494.354C470.605 494.778 470.707 495.338 470.707 496.033V501.013H468.871V496.026C468.871 495.655 468.817 495.369 468.707 495.169C468.602 494.969 468.45 494.831 468.25 494.755C468.055 494.674 467.824 494.633 467.557 494.633C467.295 494.633 467.066 494.681 466.871 494.776C466.681 494.871 466.519 495.005 466.385 495.176C466.257 495.343 466.159 495.54 466.092 495.769C466.026 495.993 465.992 496.236 465.992 496.498L465.178 496.655ZM474.229 501.013H472.401V493.283H474.122L474.229 494.933V501.013ZM473.351 496.883C473.355 496.131 473.484 495.476 473.736 494.919C473.994 494.357 474.353 493.921 474.815 493.611C475.277 493.297 475.815 493.14 476.43 493.14C476.925 493.14 477.356 493.235 477.723 493.426C478.09 493.611 478.373 493.916 478.573 494.34C478.778 494.764 478.88 495.333 478.88 496.048V501.013H477.044V496.033C477.044 495.681 476.994 495.402 476.894 495.197C476.794 494.993 476.644 494.847 476.444 494.762C476.249 494.676 476.008 494.633 475.722 494.633C475.432 494.633 475.175 494.69 474.951 494.805C474.732 494.919 474.544 495.078 474.387 495.283C474.234 495.488 474.117 495.726 474.037 495.998C473.96 496.269 473.922 496.562 473.922 496.876L473.351 496.883ZM484.202 494.633H479.795V493.283H484.202V494.633ZM482.845 491.39V498.798C482.845 499.031 482.878 499.21 482.945 499.334C483.012 499.453 483.105 499.534 483.224 499.577C483.348 499.62 483.493 499.641 483.66 499.641C483.779 499.641 483.893 499.634 484.002 499.62C484.112 499.605 484.198 499.591 484.26 499.577V500.984C484.112 501.032 483.943 501.072 483.752 501.106C483.562 501.139 483.34 501.156 483.088 501.156C482.683 501.156 482.324 501.084 482.009 500.941C481.695 500.794 481.45 500.558 481.273 500.234C481.102 499.91 481.016 499.479 481.016 498.941V491.39H482.845ZM488.396 501.156C487.686 501.156 487.086 501.029 486.596 500.777C486.11 500.52 485.741 500.194 485.488 499.798C485.241 499.403 485.117 498.996 485.117 498.577H486.874C486.893 498.872 486.977 499.112 487.124 499.298C487.277 499.479 487.467 499.61 487.696 499.691C487.929 499.772 488.172 499.812 488.425 499.812C488.72 499.812 488.968 499.774 489.168 499.698C489.368 499.617 489.518 499.51 489.618 499.377C489.722 499.239 489.775 499.079 489.775 498.898C489.775 498.736 489.732 498.591 489.646 498.462C489.565 498.334 489.406 498.215 489.168 498.105C488.934 497.996 488.589 497.893 488.132 497.798C487.589 497.684 487.11 497.531 486.696 497.341C486.281 497.15 485.955 496.905 485.717 496.605C485.484 496.3 485.367 495.931 485.367 495.498C485.367 495.074 485.488 494.683 485.731 494.326C485.974 493.969 486.322 493.683 486.774 493.469C487.227 493.25 487.763 493.14 488.382 493.14C489.034 493.14 489.594 493.25 490.061 493.469C490.532 493.683 490.894 493.976 491.146 494.347C491.399 494.714 491.525 495.133 491.525 495.605H489.696C489.696 495.3 489.587 495.038 489.368 494.819C489.149 494.595 488.817 494.483 488.375 494.483C488.108 494.483 487.882 494.526 487.696 494.612C487.51 494.697 487.372 494.812 487.282 494.955C487.191 495.093 487.146 495.245 487.146 495.412C487.146 495.574 487.191 495.717 487.282 495.84C487.377 495.959 487.536 496.067 487.76 496.162C487.984 496.252 488.296 496.341 488.696 496.426C489.277 496.545 489.782 496.7 490.211 496.891C490.644 497.076 490.977 497.324 491.211 497.634C491.449 497.938 491.568 498.331 491.568 498.812C491.568 499.265 491.437 499.67 491.175 500.027C490.918 500.379 490.551 500.655 490.075 500.856C489.599 501.056 489.039 501.156 488.396 501.156ZM504.834 497.598C504.782 498.284 504.591 498.896 504.263 499.434C503.934 499.972 503.475 500.394 502.884 500.698C502.294 501.003 501.574 501.156 500.727 501.156C499.865 501.156 499.117 500.956 498.483 500.555C497.85 500.151 497.362 499.577 497.019 498.834C496.676 498.091 496.504 497.217 496.504 496.212V495.419C496.504 494.409 496.678 493.535 497.026 492.797C497.378 492.054 497.876 491.48 498.519 491.075C499.162 490.671 499.917 490.468 500.784 490.468C501.627 490.468 502.336 490.623 502.913 490.932C503.494 491.237 503.944 491.664 504.263 492.211C504.582 492.754 504.775 493.376 504.842 494.076H502.941C502.875 493.423 502.682 492.919 502.363 492.561C502.048 492.199 501.522 492.018 500.784 492.018C500.265 492.018 499.829 492.147 499.476 492.404C499.129 492.661 498.867 493.042 498.691 493.547C498.514 494.047 498.426 494.666 498.426 495.405V496.212C498.426 496.917 498.505 497.524 498.662 498.034C498.819 498.538 499.067 498.927 499.405 499.198C499.743 499.47 500.184 499.605 500.727 499.605C501.222 499.605 501.622 499.529 501.927 499.377C502.232 499.224 502.463 499 502.62 498.705C502.782 498.405 502.886 498.036 502.934 497.598H504.834ZM508.035 501.013H506.199V490.039H508.035V501.013ZM507.149 496.883C507.154 496.16 507.28 495.517 507.528 494.955C507.78 494.393 508.13 493.95 508.578 493.626C509.03 493.302 509.557 493.14 510.157 493.14C510.666 493.14 511.109 493.238 511.485 493.433C511.866 493.623 512.162 493.933 512.371 494.362C512.581 494.79 512.686 495.362 512.686 496.076V501.013H510.85V496.062C510.85 495.705 510.797 495.424 510.692 495.219C510.592 495.009 510.442 494.859 510.242 494.769C510.047 494.678 509.807 494.633 509.521 494.633C509.216 494.633 508.952 494.69 508.728 494.805C508.504 494.919 508.316 495.078 508.164 495.283C508.016 495.488 507.904 495.726 507.828 495.998C507.756 496.269 507.721 496.562 507.721 496.876L507.149 496.883ZM518.68 495.798C518.68 495.407 518.572 495.097 518.358 494.869C518.148 494.635 517.825 494.519 517.386 494.519C517.124 494.519 516.896 494.564 516.701 494.655C516.51 494.74 516.362 494.859 516.258 495.012C516.153 495.164 516.101 495.34 516.101 495.54H514.272C514.272 495.116 514.403 494.724 514.665 494.362C514.931 493.995 515.305 493.7 515.786 493.476C516.267 493.252 516.834 493.14 517.486 493.14C518.072 493.14 518.591 493.24 519.044 493.44C519.501 493.635 519.861 493.931 520.123 494.326C520.385 494.721 520.516 495.217 520.516 495.812V499.198C520.516 499.574 520.542 499.901 520.594 500.177C520.646 500.448 520.72 500.686 520.816 500.891V501.013H518.951C518.86 500.822 518.791 500.577 518.744 500.277C518.701 499.977 518.68 499.682 518.68 499.391V495.798ZM518.944 497.419H517.758C517.148 497.419 516.691 497.536 516.386 497.769C516.081 497.998 515.929 498.303 515.929 498.684C515.929 498.979 516.029 499.224 516.229 499.42C516.434 499.615 516.72 499.712 517.086 499.712C517.429 499.712 517.727 499.643 517.979 499.505C518.232 499.367 518.429 499.2 518.572 499.005C518.715 498.805 518.789 498.617 518.794 498.441L519.358 499.255C519.296 499.446 519.199 499.651 519.065 499.87C518.932 500.089 518.756 500.296 518.537 500.491C518.322 500.686 518.065 500.846 517.765 500.97C517.465 501.094 517.117 501.156 516.722 501.156C516.222 501.156 515.772 501.056 515.372 500.856C514.977 500.655 514.665 500.382 514.436 500.034C514.212 499.682 514.1 499.286 514.1 498.848C514.1 498.029 514.405 497.4 515.015 496.962C515.629 496.519 516.505 496.298 517.644 496.298H518.944V497.419ZM525.881 494.633H521.473V493.283H525.881V494.633ZM524.523 491.39V498.798C524.523 499.031 524.557 499.21 524.623 499.334C524.69 499.453 524.783 499.534 524.902 499.577C525.026 499.62 525.171 499.641 525.338 499.641C525.457 499.641 525.571 499.634 525.681 499.62C525.79 499.605 525.876 499.591 525.938 499.577V500.984C525.79 501.032 525.621 501.072 525.431 501.106C525.24 501.139 525.019 501.156 524.766 501.156C524.361 501.156 524.002 501.084 523.687 500.941C523.373 500.794 523.128 500.558 522.952 500.234C522.78 499.91 522.694 499.479 522.694 498.941V491.39H524.523ZM530.074 501.156C529.365 501.156 528.764 501.029 528.274 500.777C527.788 500.52 527.419 500.194 527.167 499.798C526.919 499.403 526.795 498.996 526.795 498.577H528.553C528.572 498.872 528.655 499.112 528.803 499.298C528.955 499.479 529.146 499.61 529.374 499.691C529.607 499.772 529.85 499.812 530.103 499.812C530.398 499.812 530.646 499.774 530.846 499.698C531.046 499.617 531.196 499.51 531.296 499.377C531.401 499.239 531.453 499.079 531.453 498.898C531.453 498.736 531.41 498.591 531.324 498.462C531.243 498.334 531.084 498.215 530.846 498.105C530.612 497.996 530.267 497.893 529.81 497.798C529.267 497.684 528.788 497.531 528.374 497.341C527.96 497.15 527.633 496.905 527.395 496.605C527.162 496.3 527.045 495.931 527.045 495.498C527.045 495.074 527.167 494.683 527.41 494.326C527.652 493.969 528 493.683 528.453 493.469C528.905 493.25 529.441 493.14 530.06 493.14C530.712 493.14 531.272 493.25 531.739 493.469C532.21 493.683 532.572 493.976 532.825 494.347C533.077 494.714 533.203 495.133 533.203 495.605H531.374C531.374 495.3 531.265 495.038 531.046 494.819C530.827 494.595 530.496 494.483 530.053 494.483C529.786 494.483 529.56 494.526 529.374 494.612C529.188 494.697 529.05 494.812 528.96 494.955C528.869 495.093 528.824 495.245 528.824 495.412C528.824 495.574 528.869 495.717 528.96 495.84C529.055 495.959 529.215 496.067 529.438 496.162C529.662 496.252 529.974 496.341 530.374 496.426C530.955 496.545 531.46 496.7 531.889 496.891C532.322 497.076 532.656 497.324 532.889 497.634C533.127 497.938 533.246 498.331 533.246 498.812C533.246 499.265 533.115 499.67 532.853 500.027C532.596 500.379 532.229 500.655 531.753 500.856C531.277 501.056 530.717 501.156 530.074 501.156Z" fill="#7A1600"/>
</g>
<defs>
<clipPath id="clip0_1173_9248">
<rect width="906" height="499" fill="white" transform="translate(32 101)"/>
</clipPath>
<clipPath id="clip1_1173_9248">
<rect width="16" height="16" fill="white" transform="translate(231.705 458.964)"/>
</clipPath>
<clipPath id="clip2_1173_9248">
<rect width="16" height="16" fill="white" transform="translate(260.705 228.036)"/>
</clipPath>
</defs>
</svg>
