<svg width="970" height="600" viewBox="0 0 970 600" fill="none" xmlns="http://www.w3.org/2000/svg">
<rect width="970" height="600" rx="20" fill="#FFF2E2"/>
<g clip-path="url(#clip0_1173_9487)">
<path d="M787.945 443.706C787.945 453.856 780.203 464.034 764.915 473.676C749.726 483.254 727.615 491.954 700.114 499.289C645.141 513.953 569.086 523.046 485 523.046C400.914 523.046 324.859 513.953 269.887 499.289C242.386 491.954 220.274 483.254 205.086 473.676C189.797 464.034 182.055 453.856 182.055 443.706C182.055 433.556 189.797 423.379 205.086 413.737C220.274 404.159 242.386 395.459 269.887 388.123C324.859 373.46 400.914 364.367 485 364.367C569.086 364.367 645.141 373.46 700.114 388.123C727.615 395.459 749.726 404.159 764.915 413.737C780.203 423.379 787.945 433.556 787.945 443.706Z" stroke="#FFE0CF" stroke-width="4"/>
<path d="M961.515 443.707C961.515 460.249 948.916 476.517 924.844 491.697C900.872 506.814 866.051 520.503 822.845 532.027C736.461 555.069 617.013 569.344 484.996 569.344C352.979 569.344 233.53 555.069 147.147 532.027C103.941 520.503 69.1199 506.814 45.1478 491.697C21.0758 476.517 8.47656 460.249 8.47656 443.707C8.47656 427.164 21.0758 410.897 45.1478 395.716C69.1199 380.599 103.941 366.91 147.147 355.386C233.53 332.345 352.979 318.069 484.996 318.069C617.013 318.069 736.461 332.345 822.845 355.386C866.051 366.91 900.872 380.599 924.844 395.716C948.916 410.897 961.515 427.164 961.515 443.707Z" stroke="#FFE0CF" stroke-width="4"/>
<path d="M1255.05 443.706C1255.05 471.059 1234.24 497.626 1195.31 522.173C1156.49 546.658 1100.17 568.782 1030.41 587.391C890.904 624.601 698.071 647.64 484.996 647.64C271.92 647.64 79.0869 624.601 -60.4165 587.391C-130.183 568.782 -186.498 546.658 -225.324 522.173C-264.249 497.626 -285.062 471.059 -285.062 443.706C-285.062 416.353 -264.249 389.787 -225.324 365.239C-186.498 340.755 -130.183 318.631 -60.4165 300.022C79.0869 262.811 271.92 239.772 484.996 239.772C698.071 239.772 890.904 262.811 1030.41 300.022C1100.17 318.631 1156.49 340.755 1195.31 365.239C1234.24 389.787 1255.05 416.353 1255.05 443.706Z" stroke="#FFE0CF" stroke-width="4"/>
<path d="M1561.35 411.09C1561.35 428.393 1553.79 445.445 1539.07 462.101C1524.34 478.77 1502.53 494.945 1474.27 510.417C1417.75 541.359 1335.84 569.288 1234.45 592.766C1031.7 639.717 751.502 668.775 441.937 668.775C132.371 668.775 -147.824 639.717 -350.574 592.766C-451.965 569.288 -533.877 541.359 -590.394 510.417C-618.653 494.945 -640.469 478.77 -655.199 462.101C-669.917 445.445 -677.48 428.393 -677.48 411.09C-677.48 393.787 -669.917 376.735 -655.199 360.079C-640.469 343.41 -618.653 327.235 -590.394 311.763C-533.877 280.821 -451.965 252.892 -350.574 229.414C-147.824 182.463 132.371 153.405 441.937 153.405C751.502 153.405 1031.7 182.463 1234.45 229.414C1335.84 252.892 1417.75 280.821 1474.27 311.763C1502.53 327.235 1524.34 343.41 1539.07 360.079C1553.79 376.735 1561.35 393.787 1561.35 411.09Z" stroke="#FFE0CF" stroke-width="4"/>
<ellipse cx="482.638" cy="442.948" rx="166.762" ry="33.2975" fill="#7A1600"/>
<rect x="315.877" y="419.165" width="333.523" height="23.9429" fill="#7A1600"/>
<ellipse cx="482.638" cy="419.165" rx="166.762" ry="33.2975" fill="#F7DBFF"/>
<path d="M545.354 426.811H400.945L484.615 301.71L545.354 426.811Z" fill="#FE6533"/>
<path d="M564.331 407.829L485 302.393L545.41 426.837L564.331 407.829Z" fill="#7A1600"/>
<rect x="272.939" y="297.008" width="424.552" height="23.0727" transform="rotate(-3.33476 272.939 297.008)" fill="#7A1600"/>
<path d="M292.267 278.678L674.487 255.732L696.77 272.329L272.94 297.303L292.267 278.678Z" fill="#FE6533"/>
<path d="M369.154 209.71L398.902 208.008M369.885 222.48L399.633 220.778M392.858 254.478L370.616 235.25L378.053 234.824C394.579 233.879 393.118 208.339 376.591 209.284" stroke="#7A1600" stroke-width="5.48413" stroke-linecap="round" stroke-linejoin="round"/>
<path d="M558.293 248.588C555.501 248.748 552.985 248.491 550.746 247.819C548.503 247.097 546.552 245.783 544.893 243.877C543.23 241.922 541.903 239.272 540.911 235.927C539.917 232.533 539.271 228.243 538.974 223.058C538.678 217.872 538.831 213.562 539.435 210.126C540.036 206.64 541.052 203.856 542.483 201.773C543.912 199.641 545.7 198.113 547.848 197.19C549.993 196.216 552.462 195.65 555.254 195.49C558.046 195.33 560.538 195.613 562.731 196.338C564.97 197.01 566.921 198.324 568.583 200.28C570.243 202.185 571.57 204.836 572.565 208.23C573.557 211.575 574.201 215.84 574.497 221.025C574.794 226.21 574.642 230.545 574.041 234.031C573.438 237.467 572.421 240.251 570.993 242.384C569.561 244.467 567.773 245.995 565.628 246.968C563.53 247.888 561.085 248.428 558.293 248.588ZM557.976 243.054C560.818 242.891 562.97 242.043 564.433 240.508C565.946 238.971 566.92 236.765 567.355 233.888C567.841 231.01 567.962 227.451 567.72 223.213L567.523 219.773C567.278 215.485 566.75 211.939 565.939 209.135C565.175 206.277 563.954 204.171 562.276 202.816C560.648 201.459 558.413 200.862 555.571 201.024C552.729 201.187 550.552 202.037 549.039 203.574C547.526 205.111 546.527 207.319 546.042 210.198C545.606 213.074 545.511 216.656 545.756 220.944L545.949 224.309C546.191 228.547 546.694 232.095 547.458 234.952C548.272 237.807 549.518 239.911 551.196 241.266C552.874 242.62 555.134 243.216 557.976 243.054Z" fill="#7A1600"/>
<path d="M515.424 251.041C512.632 251.201 510.116 250.945 507.876 250.272C505.634 249.55 503.683 248.236 502.024 246.331C500.361 244.375 499.034 241.725 498.042 238.38C497.048 234.986 496.402 230.696 496.105 225.511C495.809 220.326 495.962 216.015 496.566 212.579C497.167 209.093 498.183 206.309 499.614 204.226C501.043 202.094 502.831 200.566 504.979 199.643C507.124 198.67 509.593 198.103 512.385 197.943C515.177 197.784 517.669 198.066 519.861 198.791C522.101 199.463 524.052 200.777 525.714 202.733C527.374 204.639 528.701 207.289 529.696 210.683C530.687 214.028 531.332 218.293 531.628 223.478C531.925 228.663 531.773 232.998 531.172 236.484C530.568 239.92 529.552 242.704 528.124 244.837C526.692 246.92 524.904 248.448 522.759 249.421C520.661 250.341 518.215 250.881 515.424 251.041ZM515.107 245.507C517.949 245.344 520.101 244.496 521.564 242.961C523.076 241.424 524.051 239.218 524.486 236.342C524.972 233.463 525.093 229.904 524.851 225.666L524.654 222.226C524.409 217.939 523.88 214.392 523.07 211.588C522.306 208.73 521.085 206.624 519.407 205.27C517.778 203.912 515.543 203.315 512.702 203.477C509.86 203.64 507.682 204.49 506.17 206.027C504.657 207.564 503.658 209.772 503.173 212.651C502.737 215.527 502.642 219.109 502.887 223.397L503.08 226.762C503.322 231 503.825 234.548 504.589 237.405C505.403 240.26 506.649 242.364 508.327 243.719C510.005 245.074 512.265 245.67 515.107 245.507Z" fill="#7A1600"/>
<path d="M472.552 253.494C469.76 253.654 467.245 253.398 465.005 252.726C462.763 252.004 460.812 250.69 459.153 248.784C457.49 246.828 456.163 244.178 455.171 240.833C454.177 237.439 453.531 233.149 453.234 227.964C452.937 222.779 453.091 218.468 453.695 215.032C454.295 211.547 455.312 208.762 456.743 206.68C458.172 204.547 459.96 203.019 462.108 202.096C464.253 201.123 466.722 200.556 469.514 200.396C472.306 200.237 474.798 200.519 476.99 201.244C479.23 201.916 481.181 203.23 482.843 205.186C484.503 207.092 485.83 209.742 486.825 213.136C487.816 216.481 488.461 220.746 488.757 225.931C489.054 231.116 488.902 235.452 488.301 238.937C487.697 242.373 486.681 245.158 485.253 247.29C483.821 249.373 482.033 250.901 479.888 251.874C477.789 252.794 475.344 253.334 472.552 253.494ZM472.236 247.96C475.078 247.797 477.23 246.949 478.693 245.415C480.205 243.877 481.18 241.671 481.615 238.795C482.101 235.916 482.222 232.357 481.98 228.12L481.783 224.679C481.537 220.392 481.009 216.846 480.199 214.041C479.435 211.183 478.214 209.077 476.536 207.723C474.907 206.365 472.672 205.768 469.83 205.931C466.989 206.093 464.811 206.943 463.299 208.48C461.786 210.017 460.787 212.225 460.301 215.104C459.866 217.98 459.771 221.562 460.016 225.85L460.209 229.215C460.451 233.453 460.954 237.001 461.718 239.858C462.532 242.713 463.778 244.818 465.456 246.172C467.134 247.527 469.394 248.123 472.236 247.96Z" fill="#7A1600"/>
<path d="M430.379 255.907C426.391 256.135 422.991 255.73 420.18 254.69C417.367 253.601 415.198 251.974 413.674 249.81C412.149 247.647 411.299 245.019 411.122 241.928V241.928C411.091 241.391 411.501 240.931 412.038 240.9L416.75 240.631C417.287 240.6 417.747 241.01 417.778 241.547V241.547C417.955 244.638 419.062 246.951 421.101 248.485C423.186 249.966 425.974 250.607 429.464 250.407C432.954 250.208 435.728 249.298 437.787 247.68C439.842 246.012 440.774 243.507 440.583 240.167C440.443 237.724 439.763 235.887 438.542 234.657C437.321 233.426 435.774 232.614 433.901 232.221C432.074 231.775 430.139 231.611 428.095 231.728L425.478 231.878C423.949 231.965 422.64 230.797 422.552 229.269V229.269C422.465 227.741 423.633 226.431 425.161 226.344L428.003 226.181C429.897 226.073 431.625 225.674 433.186 224.984C434.748 224.294 435.963 223.249 436.834 221.849C437.751 220.396 438.147 218.573 438.021 216.379C437.907 214.385 437.366 212.79 436.397 211.595C435.478 210.397 434.253 209.542 432.724 209.029C431.191 208.467 429.527 208.237 427.732 208.339C425.738 208.453 423.963 208.905 422.407 209.694C420.849 210.434 419.635 211.504 418.765 212.904C417.944 214.302 417.592 216.022 417.709 218.067V218.067C417.74 218.604 417.33 219.064 416.793 219.094L412.381 219.347C411.637 219.389 411 218.821 410.957 218.078V218.078C410.795 215.236 411.375 212.702 412.698 210.475C414.071 208.246 415.995 206.46 418.469 205.118C420.993 203.773 423.925 203.005 427.266 202.814C430.556 202.625 433.478 202.983 436.031 203.888C438.633 204.789 440.716 206.221 442.279 208.182C443.842 210.144 444.709 212.62 444.88 215.611C445.006 217.805 444.714 219.698 444.004 221.289C443.292 222.83 442.317 224.136 441.077 225.208C439.874 226.248 438.566 227.13 437.155 227.852C437.08 227.891 437.034 227.97 437.039 228.055V228.055C437.044 228.149 437.111 228.229 437.204 228.251C439.924 228.905 442.248 230.207 444.176 232.158C446.141 234.147 447.22 236.836 447.414 240.226C447.588 243.268 446.965 245.929 445.545 248.211C444.175 250.491 442.153 252.307 439.479 253.661C436.853 254.961 433.819 255.71 430.379 255.907Z" fill="#7A1600"/>
<path d="M283.21 250.608C282.556 250.662 281.908 250.628 281.265 250.508C280.622 250.381 280.026 250.16 279.479 249.845C278.938 249.529 278.491 249.116 278.139 248.605C277.792 248.088 277.589 247.462 277.528 246.729L279.997 246.525C280.032 246.951 280.133 247.309 280.3 247.599C280.472 247.883 280.695 248.109 280.97 248.279C281.245 248.449 281.558 248.563 281.91 248.621C282.263 248.679 282.642 248.691 283.049 248.657C283.579 248.614 284.011 248.504 284.344 248.327C284.677 248.151 284.919 247.926 285.07 247.653C285.228 247.38 285.292 247.073 285.264 246.734C285.236 246.383 285.137 246.09 284.969 245.856C284.8 245.615 284.503 245.404 284.079 245.221C283.66 245.032 283.055 244.853 282.266 244.682C281.621 244.542 281.018 244.372 280.455 244.17C279.898 243.967 279.403 243.72 278.969 243.426C278.536 243.133 278.187 242.783 277.924 242.377C277.667 241.964 277.515 241.473 277.468 240.906C277.408 240.173 277.558 239.509 277.919 238.914C278.285 238.32 278.82 237.835 279.521 237.461C280.223 237.086 281.048 236.86 281.997 236.782C283.008 236.699 283.892 236.812 284.65 237.122C285.414 237.426 286.018 237.872 286.464 238.462C286.91 239.052 287.164 239.733 287.228 240.503L284.759 240.706C284.725 240.287 284.604 239.922 284.399 239.61C284.199 239.297 283.91 239.067 283.532 238.918C283.159 238.762 282.692 238.708 282.132 238.754C281.608 238.797 281.176 238.91 280.838 239.093C280.505 239.276 280.263 239.506 280.113 239.786C279.968 240.064 279.909 240.37 279.937 240.703C279.964 241.03 280.089 241.308 280.313 241.538C280.543 241.767 280.875 241.966 281.311 242.135C281.747 242.298 282.284 242.449 282.922 242.589C283.944 242.797 284.802 243.071 285.494 243.411C286.185 243.745 286.716 244.166 287.087 244.676C287.457 245.179 287.672 245.791 287.732 246.512C287.795 247.277 287.649 247.953 287.294 248.541C286.945 249.128 286.422 249.599 285.725 249.954C285.028 250.31 284.19 250.528 283.21 250.608ZM293.832 241.235L288.127 241.705L287.983 239.957L293.688 239.487L293.832 241.235ZM291.73 237.182L292.519 246.77C292.544 247.072 292.606 247.3 292.705 247.453C292.804 247.6 292.933 247.695 293.092 247.738C293.257 247.78 293.447 247.792 293.663 247.774C293.817 247.762 293.964 247.74 294.104 247.71C294.245 247.68 294.354 247.652 294.433 247.627L294.583 249.449C294.397 249.526 294.182 249.596 293.939 249.66C293.696 249.723 293.411 249.768 293.084 249.795C292.56 249.839 292.087 249.784 291.665 249.633C291.243 249.475 290.9 249.196 290.638 248.796C290.381 248.395 290.224 247.846 290.167 247.15L289.363 237.377L291.73 237.182ZM301.186 242.147C301.145 241.642 300.973 241.252 300.671 240.979C300.375 240.7 299.944 240.583 299.377 240.63C299.038 240.658 298.747 240.74 298.504 240.878C298.266 241.01 298.088 241.179 297.968 241.388C297.849 241.596 297.8 241.83 297.821 242.089L295.454 242.284C295.409 241.735 295.537 241.213 295.837 240.716C296.143 240.213 296.596 239.791 297.194 239.45C297.793 239.109 298.515 238.904 299.359 238.835C300.117 238.772 300.8 238.846 301.407 239.057C302.019 239.261 302.516 239.605 302.897 240.089C303.279 240.572 303.501 241.199 303.564 241.97L303.925 246.353C303.965 246.839 304.034 247.259 304.131 247.611C304.228 247.957 304.349 248.257 304.494 248.512L304.507 248.669L302.093 248.868C301.956 248.631 301.84 248.321 301.747 247.937C301.659 247.554 301.6 247.174 301.569 246.798L301.186 242.147ZM301.701 244.218L300.166 244.344C299.377 244.409 298.798 244.609 298.429 244.943C298.058 245.272 297.894 245.682 297.934 246.175C297.966 246.558 298.121 246.864 298.401 247.096C298.687 247.327 299.067 247.423 299.542 247.384C299.985 247.347 300.363 247.226 300.675 247.02C300.987 246.815 301.225 246.578 301.389 246.31C301.553 246.036 301.629 245.784 301.616 245.556L302.433 246.55C302.373 246.803 302.269 247.078 302.12 247.376C301.97 247.674 301.764 247.961 301.502 248.237C301.245 248.512 300.929 248.746 300.554 248.939C300.179 249.131 299.735 249.248 299.224 249.29C298.577 249.343 297.983 249.262 297.444 249.046C296.911 248.829 296.479 248.508 296.146 248.082C295.818 247.65 295.631 247.15 295.585 246.583C295.497 245.523 295.825 244.677 296.567 244.044C297.315 243.406 298.426 243.026 299.899 242.905L301.582 242.766L301.701 244.218ZM308.751 248.32L306.384 248.515L305.56 238.51L307.807 238.325L308.093 240.331L308.751 248.32ZM311.112 240.259C310.969 240.246 310.813 240.241 310.646 240.242C310.484 240.243 310.327 240.25 310.173 240.262C309.673 240.303 309.265 240.427 308.946 240.633C308.628 240.833 308.396 241.107 308.251 241.454C308.111 241.794 308.045 242.194 308.051 242.652L307.521 242.659C307.452 241.814 307.5 241.047 307.667 240.357C307.833 239.661 308.119 239.1 308.525 238.676C308.936 238.245 309.471 238.002 310.131 237.948C310.26 237.937 310.406 237.938 310.569 237.949C310.73 237.954 310.856 237.972 310.945 238.002L311.112 240.259ZM317.594 239.279L311.89 239.749L311.746 238.001L317.451 237.532L317.594 239.279ZM315.492 235.226L316.281 244.814C316.306 245.116 316.368 245.344 316.468 245.497C316.567 245.644 316.696 245.739 316.854 245.782C317.019 245.824 317.209 245.836 317.425 245.818C317.579 245.806 317.726 245.784 317.867 245.754C318.007 245.724 318.116 245.696 318.195 245.671L318.345 247.493C318.159 247.57 317.944 247.641 317.701 247.704C317.458 247.767 317.174 247.813 316.847 247.839C316.323 247.883 315.85 247.828 315.428 247.677C315.005 247.519 314.663 247.24 314.4 246.84C314.144 246.439 313.987 245.89 313.93 245.194L313.125 235.421L315.492 235.226ZM323.717 247.274C322.798 247.35 322.008 247.25 321.346 246.976C320.69 246.695 320.178 246.312 319.809 245.827C319.446 245.342 319.243 244.828 319.198 244.286L321.473 244.098C321.529 244.478 321.662 244.781 321.873 245.006C322.09 245.224 322.35 245.373 322.655 245.453C322.965 245.533 323.284 245.56 323.611 245.533C323.993 245.501 324.309 245.426 324.56 245.306C324.81 245.18 324.993 245.025 325.108 244.842C325.229 244.652 325.28 244.44 325.261 244.205C325.243 243.996 325.172 243.812 325.048 243.655C324.929 243.497 324.71 243.36 324.39 243.244C324.077 243.127 323.619 243.031 323.017 242.957C322.302 242.866 321.666 242.72 321.11 242.518C320.553 242.315 320.105 242.033 319.765 241.67C319.43 241.3 319.24 240.835 319.194 240.274C319.148 239.725 319.264 239.207 319.54 238.719C319.817 238.23 320.236 237.824 320.799 237.498C321.361 237.166 322.043 236.967 322.844 236.901C323.689 236.832 324.425 236.914 325.052 237.148C325.685 237.375 326.185 237.716 326.551 238.17C326.917 238.617 327.125 239.146 327.175 239.757L324.808 239.951C324.776 239.557 324.606 239.229 324.299 238.969C323.992 238.703 323.551 238.593 322.978 238.64C322.633 238.669 322.345 238.748 322.113 238.879C321.882 239.01 321.716 239.173 321.614 239.367C321.511 239.556 321.469 239.758 321.487 239.973C321.504 240.183 321.578 240.363 321.708 240.514C321.844 240.658 322.062 240.779 322.362 240.879C322.661 240.972 323.074 241.053 323.601 241.121C324.366 241.213 325.036 241.36 325.611 241.561C326.192 241.755 326.649 242.04 326.984 242.416C327.325 242.785 327.521 243.281 327.572 243.903C327.621 244.489 327.494 245.027 327.193 245.517C326.898 246.001 326.453 246.397 325.858 246.707C325.262 247.016 324.549 247.206 323.717 247.274ZM339.428 238.999C339.387 238.494 339.215 238.105 338.913 237.832C338.617 237.552 338.186 237.435 337.618 237.482C337.279 237.51 336.988 237.593 336.745 237.731C336.508 237.862 336.329 238.032 336.21 238.24C336.091 238.449 336.042 238.682 336.063 238.941L333.696 239.136C333.651 238.587 333.779 238.065 334.079 237.569C334.385 237.065 334.838 236.643 335.436 236.303C336.035 235.962 336.757 235.756 337.601 235.687C338.359 235.624 339.042 235.699 339.649 235.909C340.261 236.113 340.758 236.457 341.139 236.941C341.52 237.425 341.743 238.052 341.806 238.822L342.167 243.205C342.207 243.692 342.275 244.111 342.373 244.463C342.469 244.809 342.59 245.109 342.735 245.364L342.748 245.521L340.335 245.72C340.198 245.483 340.082 245.173 339.989 244.79C339.901 244.406 339.842 244.026 339.811 243.65L339.428 238.999ZM339.943 241.07L338.408 241.196C337.619 241.261 337.04 241.461 336.67 241.795C336.3 242.124 336.135 242.535 336.176 243.028C336.207 243.41 336.363 243.717 336.643 243.948C336.929 244.179 337.309 244.275 337.783 244.236C338.227 244.199 338.605 244.078 338.917 243.873C339.229 243.667 339.467 243.43 339.631 243.162C339.795 242.888 339.87 242.637 339.858 242.408L340.675 243.402C340.615 243.655 340.511 243.931 340.361 244.228C340.212 244.526 340.006 244.813 339.743 245.089C339.487 245.365 339.171 245.599 338.796 245.791C338.421 245.983 337.977 246.1 337.466 246.142C336.818 246.196 336.225 246.114 335.686 245.898C335.153 245.681 334.72 245.36 334.387 244.934C334.06 244.502 333.873 244.002 333.826 243.435C333.739 242.375 334.067 241.529 334.809 240.897C335.557 240.258 336.668 239.878 338.141 239.757L339.824 239.618L339.943 241.07ZM348.624 236.725L342.919 237.195L342.776 235.447L348.48 234.978L348.624 236.725ZM346.522 232.672L347.311 242.26C347.336 242.562 347.398 242.79 347.498 242.943C347.597 243.09 347.726 243.185 347.884 243.228C348.049 243.27 348.239 243.282 348.455 243.264C348.609 243.252 348.756 243.23 348.897 243.2C349.037 243.17 349.146 243.142 349.225 243.117L349.375 244.939C349.189 245.016 348.974 245.086 348.731 245.15C348.488 245.213 348.203 245.259 347.877 245.285C347.353 245.329 346.88 245.274 346.458 245.123C346.035 244.965 345.693 244.686 345.43 244.286C345.174 243.885 345.017 243.336 344.959 242.64L344.155 232.867L346.522 232.672Z" fill="#7A1600"/>
<path d="M594.067 226.607L591.691 226.803L590.867 216.799L593.105 216.614L593.412 218.646L594.067 226.607ZM592.472 221.358C592.394 220.421 592.474 219.577 592.71 218.825C592.952 218.073 593.352 217.463 593.909 216.995C594.466 216.527 595.182 216.257 596.058 216.185C596.964 216.111 597.729 216.324 598.354 216.825C598.978 217.326 599.342 218.202 599.445 219.453L599.994 226.119L597.627 226.314L597.097 219.879C597.059 219.417 596.958 219.059 596.795 218.805C596.637 218.552 596.425 218.38 596.157 218.29C595.889 218.2 595.579 218.17 595.228 218.199C594.833 218.231 594.5 218.333 594.229 218.505C593.964 218.675 593.752 218.901 593.595 219.18C593.439 219.46 593.331 219.779 593.274 220.138C593.223 220.496 593.214 220.878 593.247 221.285L592.472 221.358ZM598.309 220.58C598.241 219.748 598.326 218.974 598.565 218.259C598.804 217.545 599.197 216.96 599.742 216.506C600.288 216.045 600.986 215.78 601.837 215.71C602.508 215.654 603.098 215.733 603.606 215.946C604.113 216.152 604.519 216.519 604.823 217.046C605.133 217.573 605.325 218.286 605.399 219.186L605.93 225.631L603.554 225.826L603.022 219.373C602.983 218.892 602.882 218.528 602.718 218.281C602.562 218.033 602.35 217.87 602.083 217.793C601.821 217.709 601.518 217.681 601.173 217.71C600.834 217.738 600.543 217.824 600.3 217.968C600.064 218.111 599.869 218.301 599.714 218.537C599.566 218.767 599.46 219.033 599.398 219.336C599.336 219.633 599.319 219.951 599.346 220.29L598.309 220.58ZM607.314 220.388C607.233 219.414 607.347 218.53 607.654 217.735C607.961 216.94 608.441 216.292 609.095 215.792C609.754 215.284 610.574 214.99 611.554 214.91C612.547 214.828 613.413 214.983 614.152 215.375C614.892 215.761 615.475 216.321 615.901 217.056C616.334 217.79 616.59 218.644 616.671 219.618L616.687 219.812C616.766 220.78 616.653 221.664 616.346 222.465C616.046 223.259 615.562 223.907 614.896 224.409C614.236 224.91 613.413 225.201 612.427 225.282C611.44 225.363 610.581 225.211 609.848 224.824C609.115 224.438 608.532 223.878 608.099 223.144C607.666 222.404 607.409 221.55 607.33 220.582L607.314 220.388ZM609.696 220.387C609.744 220.967 609.868 221.493 610.069 221.967C610.268 222.435 610.55 222.799 610.913 223.061C611.275 223.317 611.727 223.422 612.27 223.378C612.812 223.333 613.241 223.155 613.557 222.843C613.872 222.526 614.087 222.12 614.202 221.627C614.322 221.127 614.358 220.587 614.31 220.007L614.294 219.813C614.247 219.24 614.124 218.72 613.924 218.252C613.73 217.778 613.448 217.41 613.079 217.149C612.716 216.881 612.26 216.769 611.711 216.814C611.175 216.858 610.749 217.042 610.435 217.366C610.119 217.684 609.902 218.093 609.782 218.593C609.667 219.086 609.633 219.62 609.681 220.193L609.696 220.387ZM621.232 224.371L618.865 224.566L618.042 214.562L620.27 214.378L620.584 216.503L621.232 224.371ZM619.655 219.121C619.581 218.146 619.678 217.285 619.945 216.537C620.218 215.782 620.637 215.18 621.202 214.73C621.766 214.274 622.446 214.013 623.241 213.948C623.882 213.895 624.45 213.972 624.945 214.18C625.44 214.381 625.839 214.745 626.143 215.273C626.453 215.8 626.646 216.525 626.722 217.45L627.251 223.876L624.875 224.071L624.345 217.627C624.307 217.171 624.213 216.815 624.061 216.561C623.91 216.307 623.701 216.135 623.432 216.045C623.171 215.955 622.855 215.925 622.485 215.955C622.109 215.986 621.782 216.088 621.505 216.26C621.233 216.431 621.007 216.657 620.825 216.939C620.65 217.22 620.524 217.541 620.448 217.901C620.379 218.261 620.36 218.644 620.394 219.051L619.655 219.121ZM633.46 215.052L627.755 215.522L627.611 213.774L633.316 213.305L633.46 215.052ZM631.358 210.999L632.147 220.587C632.172 220.889 632.234 221.117 632.333 221.27C632.432 221.417 632.561 221.512 632.72 221.555C632.885 221.597 633.075 221.609 633.291 221.591C633.445 221.579 633.592 221.557 633.732 221.527C633.873 221.497 633.982 221.469 634.061 221.444L634.211 223.266C634.025 223.343 633.81 223.414 633.567 223.477C633.324 223.54 633.039 223.586 632.712 223.612C632.189 223.656 631.716 223.601 631.293 223.45C630.871 223.292 630.528 223.013 630.266 222.613C630.009 222.212 629.853 221.663 629.795 220.967L628.991 211.194L631.358 210.999ZM638.134 222.98L635.758 223.176L634.589 208.974L636.965 208.778L638.134 222.98ZM636.548 217.73C636.477 216.793 636.571 215.947 636.832 215.193C637.099 214.439 637.505 213.829 638.05 213.362C638.601 212.894 639.265 212.629 640.041 212.565C640.701 212.511 641.285 212.59 641.792 212.802C642.306 213.008 642.721 213.378 643.038 213.91C643.355 214.442 643.551 215.171 643.627 216.096L644.153 222.485L641.777 222.68L641.25 216.273C641.211 215.81 641.114 215.452 640.956 215.198C640.805 214.938 640.594 214.76 640.326 214.664C640.063 214.568 639.747 214.535 639.378 214.565C638.983 214.598 638.647 214.7 638.369 214.871C638.092 215.043 637.865 215.27 637.69 215.551C637.521 215.832 637.401 216.152 637.332 216.511C637.268 216.87 637.253 217.253 637.286 217.66L636.548 217.73ZM648.859 222.097L646.483 222.293L645.314 208.091L647.69 207.895L648.859 222.097ZM656.006 211.437L658.53 211.229L655.484 223.079C655.412 223.333 655.311 223.611 655.181 223.913C655.056 224.215 654.885 224.506 654.666 224.784C654.453 225.069 654.175 225.309 653.831 225.505C653.488 225.7 653.063 225.819 652.558 225.861C652.422 225.872 652.289 225.874 652.158 225.866C652.033 225.864 651.912 225.855 651.793 225.84C651.673 225.825 651.554 225.807 651.434 225.786L651.284 223.964C651.34 223.966 651.412 223.966 651.499 223.965C651.585 223.964 651.657 223.961 651.712 223.957C652.261 223.912 652.663 223.782 652.918 223.569C653.18 223.355 653.369 223.014 653.485 222.545L654.048 220.553L656.006 211.437ZM654.836 218.934L655.454 221.471L653.844 221.929L649.395 211.981L651.947 211.771L654.836 218.934ZM666.069 221.844L664.248 221.994L668.222 206.95L670.044 206.8L666.069 221.844ZM677.781 209.645L680.157 209.449L680.98 219.453L678.743 219.638L678.409 217.282L677.781 209.645ZM679.327 215.084C679.4 215.978 679.333 216.787 679.126 217.512C678.919 218.236 678.552 218.825 678.024 219.278C677.496 219.725 676.792 219.984 675.91 220.057C674.924 220.138 674.102 219.914 673.444 219.385C672.786 218.856 672.402 217.928 672.293 216.603L671.761 210.14L674.128 209.945L674.662 216.427C674.699 216.877 674.796 217.226 674.953 217.473C675.115 217.714 675.318 217.881 675.562 217.972C675.811 218.057 676.077 218.088 676.361 218.065C676.971 218.015 677.442 217.858 677.774 217.595C678.106 217.326 678.329 216.981 678.443 216.562C678.563 216.137 678.602 215.671 678.561 215.166L679.327 215.084ZM686.978 219.146C686.059 219.222 685.269 219.122 684.607 218.848C683.951 218.567 683.439 218.184 683.07 217.699C682.707 217.214 682.504 216.7 682.459 216.157L684.734 215.97C684.79 216.35 684.923 216.653 685.134 216.877C685.351 217.095 685.611 217.245 685.916 217.325C686.226 217.405 686.545 217.432 686.872 217.405C687.254 217.373 687.57 217.297 687.821 217.178C688.071 217.051 688.254 216.897 688.369 216.714C688.49 216.524 688.541 216.312 688.522 216.077C688.504 215.868 688.434 215.684 688.309 215.527C688.19 215.369 687.971 215.232 687.651 215.116C687.338 214.999 686.88 214.903 686.278 214.828C685.563 214.738 684.927 214.592 684.371 214.39C683.814 214.187 683.366 213.905 683.026 213.542C682.691 213.172 682.501 212.707 682.455 212.146C682.409 211.597 682.525 211.079 682.801 210.591C683.078 210.102 683.497 209.695 684.06 209.37C684.622 209.038 685.304 208.839 686.105 208.773C686.95 208.704 687.686 208.786 688.313 209.02C688.946 209.247 689.446 209.588 689.812 210.041C690.178 210.489 690.386 211.018 690.436 211.628L688.069 211.823C688.037 211.429 687.867 211.101 687.56 210.841C687.253 210.575 686.812 210.465 686.239 210.512C685.894 210.541 685.606 210.62 685.374 210.751C685.143 210.882 684.977 211.044 684.875 211.239C684.772 211.427 684.73 211.63 684.748 211.845C684.765 212.055 684.839 212.235 684.969 212.386C685.105 212.53 685.323 212.651 685.623 212.751C685.922 212.844 686.335 212.925 686.862 212.993C687.627 213.085 688.297 213.232 688.872 213.433C689.453 213.627 689.91 213.912 690.245 214.288C690.586 214.657 690.782 215.153 690.833 215.775C690.882 216.361 690.755 216.899 690.454 217.389C690.159 217.873 689.714 218.269 689.119 218.579C688.523 218.888 687.81 219.077 686.978 219.146ZM697.444 218.284C696.44 218.367 695.556 218.226 694.794 217.86C694.037 217.488 693.431 216.952 692.976 216.251C692.528 215.549 692.266 214.748 692.192 213.848L692.161 213.469C692.076 212.434 692.199 211.514 692.53 210.711C692.86 209.902 693.353 209.257 694.009 208.774C694.663 208.286 695.432 208.006 696.313 207.933C697.275 207.854 698.09 207.998 698.759 208.365C699.435 208.725 699.963 209.262 700.344 209.975C700.725 210.682 700.955 211.52 701.035 212.487L701.119 213.504L693.343 214.145L693.204 212.462L698.641 212.014L698.626 211.829C698.582 211.448 698.479 211.1 698.316 210.784C698.154 210.469 697.92 210.224 697.614 210.051C697.313 209.871 696.929 209.8 696.461 209.839C695.974 209.879 695.578 210.048 695.274 210.346C694.975 210.643 694.763 211.043 694.637 211.543C694.517 212.043 694.483 212.62 694.537 213.274L694.568 213.653C694.614 214.207 694.757 214.698 694.997 215.125C695.243 215.552 695.571 215.879 695.98 216.106C696.396 216.326 696.878 216.413 697.426 216.368C697.95 216.325 698.41 216.185 698.806 215.948C699.208 215.703 699.544 215.375 699.814 214.962L701.147 216.109C700.871 216.603 700.429 217.071 699.82 217.512C699.216 217.946 698.424 218.204 697.444 218.284ZM705.519 217.434L703.152 217.628L702.329 207.624L704.576 207.439L704.862 209.445L705.519 217.434ZM707.881 209.373C707.737 209.36 707.582 209.355 707.414 209.356C707.253 209.357 707.095 209.364 706.941 209.376C706.442 209.417 706.033 209.541 705.715 209.747C705.397 209.947 705.165 210.221 705.019 210.568C704.88 210.908 704.813 211.308 704.82 211.766L704.29 211.773C704.221 210.928 704.269 210.161 704.436 209.471C704.602 208.774 704.888 208.214 705.293 207.79C705.705 207.359 706.24 207.116 706.9 207.062C707.029 207.051 707.175 207.052 707.337 207.063C707.499 207.068 707.625 207.086 707.714 207.116L707.881 209.373Z" fill="#7A1600"/>
</g>
<defs>
<clipPath id="clip0_1173_9487">
<rect width="906" height="437" fill="white" transform="translate(32 152)"/>
</clipPath>
</defs>
</svg>
