<svg width="970" height="600" viewBox="0 0 970 600" fill="none" xmlns="http://www.w3.org/2000/svg">
<rect width="970" height="600" rx="20" fill="#FAE8FF"/>
<g opacity="0.9" clip-path="url(#clip0_1173_9169)">
<circle cx="485.001" cy="316" r="72.265" stroke="#F7DBFF" stroke-width="4"/>
<circle cx="485.001" cy="316" r="118.808" stroke="#F7DBFF" stroke-width="4"/>
<circle cx="485.001" cy="316.001" r="176.397" stroke="#F7DBFF" stroke-width="4"/>
<circle cx="485" cy="316" r="264.166" stroke="#F7DBFF" stroke-width="4"/>
<circle cx="485.001" cy="316" r="373.622" stroke="#F7DBFF" stroke-width="4"/>
<path d="M442.734 239.43H515.288C529.095 239.43 540.288 250.623 540.288 264.43V370.23C540.288 377.962 534.02 384.23 526.288 384.23H476.734C457.957 384.23 442.734 369.008 442.734 350.23V239.43Z" fill="#FE6533"/>
<path d="M456.135 358.242H556.653V358.242C556.653 372.595 545.018 384.23 530.665 384.23H456.135V358.242Z" fill="#7A1600"/>
<path d="M442.734 371.266L442.734 351.647L468.664 351.647V371.266C468.664 378.426 462.86 384.231 455.699 384.231C448.539 384.231 442.734 378.426 442.734 371.266Z" fill="#FE6533"/>
<rect x="429.041" y="239.43" width="23.6956" height="12.8194" fill="#FE6533"/>
<path d="M415.348 253.123V265.068H442.734V253.123C442.734 245.56 436.604 239.43 429.041 239.43C421.478 239.43 415.348 245.56 415.348 253.123Z" fill="#7A1600"/>
<path fill-rule="evenodd" clip-rule="evenodd" d="M479.364 269.792C478.969 269.646 478.559 269.531 478.137 269.451C478.106 269.445 478.075 269.439 478.044 269.433C477.761 269.383 477.761 268.978 478.044 268.928C478.075 268.922 478.106 268.916 478.137 268.911C478.559 268.83 478.969 268.715 479.364 268.569C479.6 268.482 479.83 268.384 480.055 268.275C481.609 267.52 482.867 266.262 483.621 264.708C483.73 264.484 483.829 264.253 483.916 264.017C484.062 263.623 484.177 263.213 484.257 262.79C484.263 262.759 484.269 262.728 484.274 262.697C484.325 262.415 484.73 262.415 484.78 262.697C484.786 262.728 484.791 262.759 484.797 262.79C484.878 263.213 484.993 263.623 485.138 264.017C485.226 264.253 485.324 264.484 485.433 264.708C486.187 266.262 487.446 267.52 489 268.275C489.224 268.384 489.455 268.482 489.691 268.569C490.085 268.715 490.495 268.83 490.918 268.911C490.949 268.916 490.98 268.922 491.011 268.928C491.293 268.978 491.293 269.383 491.011 269.433C490.98 269.439 490.949 269.445 490.918 269.451C490.495 269.531 490.085 269.646 489.691 269.792C489.455 269.879 489.224 269.977 489 270.086C487.446 270.841 486.187 272.099 485.433 273.653C485.324 273.877 485.226 274.108 485.138 274.344C484.993 274.738 484.878 275.148 484.797 275.571C484.791 275.602 484.786 275.633 484.78 275.664C484.73 275.946 484.325 275.946 484.274 275.664C484.269 275.633 484.263 275.602 484.257 275.571C484.177 275.148 484.062 274.738 483.916 274.344C483.829 274.108 483.73 273.877 483.621 273.653C482.867 272.099 481.609 270.841 480.055 270.086C479.83 269.977 479.6 269.879 479.364 269.792ZM488.795 279.821C488.519 279.747 488.239 279.681 487.956 279.626C487.912 279.617 487.867 279.608 487.823 279.6L487.81 279.598L487.791 279.594C487.763 279.589 487.733 279.584 487.671 279.573L487.65 279.569C487.198 279.483 487.198 278.837 487.65 278.752L487.671 278.748C487.733 278.737 487.763 278.731 487.791 278.726L487.81 278.723L487.823 278.72C487.867 278.712 487.912 278.704 487.956 278.695C488.239 278.639 488.519 278.574 488.795 278.5C489.031 278.436 489.263 278.366 489.493 278.289C493.212 277.05 496.139 274.123 497.378 270.404C497.455 270.174 497.525 269.942 497.589 269.706C497.663 269.43 497.728 269.15 497.784 268.867C497.793 268.823 497.801 268.778 497.81 268.734L497.812 268.72L497.815 268.702C497.82 268.675 497.826 268.644 497.837 268.584L497.837 268.582L497.841 268.56C497.926 268.109 498.573 268.109 498.658 268.56L498.662 268.582C498.673 268.643 498.678 268.674 498.683 268.702L498.687 268.72L498.689 268.734C498.698 268.778 498.706 268.823 498.715 268.867C498.77 269.15 498.836 269.43 498.91 269.706C498.974 269.942 499.044 270.174 499.12 270.404C500.36 274.123 503.286 277.05 507.005 278.289C507.235 278.366 507.468 278.436 507.704 278.5C507.98 278.574 508.259 278.639 508.543 278.695C508.587 278.704 508.631 278.712 508.676 278.72L508.689 278.723L508.707 278.726C508.735 278.731 508.766 278.737 508.828 278.748L508.849 278.752C509.301 278.837 509.301 279.483 508.849 279.569L508.828 279.573L508.763 279.584L508.707 279.594L508.689 279.598L508.676 279.6C508.631 279.608 508.587 279.617 508.543 279.626C508.259 279.681 507.98 279.747 507.704 279.821C507.468 279.884 507.235 279.955 507.005 280.031C503.286 281.271 500.36 284.197 499.12 287.916C499.044 288.146 498.974 288.379 498.91 288.615C498.836 288.891 498.77 289.17 498.715 289.454C498.706 289.498 498.698 289.542 498.689 289.587L498.687 289.6L498.683 289.618L498.676 289.659L498.662 289.736L498.658 289.76C498.573 290.212 497.926 290.212 497.841 289.76L497.837 289.739C497.826 289.677 497.82 289.646 497.815 289.618L497.812 289.6L497.81 289.587C497.801 289.542 497.793 289.498 497.784 289.454C497.728 289.17 497.663 288.891 497.589 288.615C497.525 288.379 497.455 288.146 497.378 287.916C496.139 284.197 493.212 281.271 489.493 280.031C489.263 279.955 489.031 279.884 488.795 279.821ZM482.57 288.479C483.045 288.57 483.494 288.728 483.908 288.944C484.092 289.04 484.269 289.148 484.439 289.266C484.91 289.595 485.32 290.005 485.649 290.476C485.767 290.645 485.874 290.822 485.971 291.007C486.187 291.421 486.345 291.87 486.436 292.344C486.44 292.364 486.443 292.384 486.447 292.403C486.479 292.582 486.734 292.582 486.766 292.403C486.77 292.384 486.773 292.364 486.777 292.344C486.868 291.87 487.026 291.421 487.242 291.007C487.338 290.822 487.446 290.645 487.564 290.476C487.893 290.005 488.303 289.595 488.774 289.266C488.943 289.148 489.12 289.04 489.304 288.944C489.719 288.728 490.168 288.57 490.642 288.479C490.662 288.475 490.682 288.472 490.701 288.468C490.879 288.436 490.879 288.181 490.701 288.149C490.682 288.145 490.662 288.142 490.642 288.138C490.168 288.047 489.719 287.889 489.304 287.673C489.12 287.576 488.943 287.469 488.774 287.351C488.303 287.022 487.893 286.612 487.564 286.141C487.446 285.972 487.338 285.794 487.242 285.61C487.026 285.196 486.868 284.747 486.777 284.272C486.773 284.253 486.77 284.233 486.766 284.214C486.734 284.035 486.479 284.035 486.447 284.214C486.443 284.233 486.44 284.253 486.436 284.272C486.345 284.747 486.187 285.196 485.971 285.61C485.874 285.794 485.767 285.972 485.649 286.141C485.32 286.612 484.91 287.022 484.439 287.351C484.269 287.469 484.092 287.576 483.908 287.673C483.494 287.889 483.045 288.047 482.57 288.138C482.551 288.142 482.531 288.145 482.511 288.149C482.333 288.181 482.333 288.436 482.511 288.468C482.531 288.472 482.551 288.475 482.57 288.479Z" fill="white"/>
<path d="M481.617 319.113C481.465 319.309 481.231 319.52 480.917 319.749C480.603 319.978 480.186 320.175 479.667 320.342C479.148 320.509 478.502 320.592 477.731 320.592C476.854 320.592 476.08 320.397 475.409 320.006C474.737 319.616 474.213 319.047 473.837 318.299C473.461 317.551 473.273 316.649 473.273 315.591V314.905C473.273 313.848 473.447 312.946 473.794 312.198C474.147 311.45 474.645 310.881 475.287 310.49C475.93 310.1 476.692 309.905 477.574 309.905C478.445 309.905 479.164 310.048 479.731 310.333C480.298 310.619 480.734 311.017 481.038 311.526C481.343 312.031 481.534 312.612 481.61 313.269H479.745C479.693 312.908 479.586 312.591 479.424 312.319C479.267 312.043 479.04 311.826 478.745 311.669C478.455 311.512 478.078 311.433 477.616 311.433C477.083 311.433 476.635 311.569 476.273 311.841C475.916 312.107 475.647 312.498 475.466 313.012C475.29 313.527 475.202 314.153 475.202 314.891V315.591C475.202 316.339 475.304 316.97 475.509 317.484C475.714 317.999 476.011 318.392 476.402 318.663C476.792 318.93 477.264 319.063 477.816 319.063C478.207 319.063 478.526 319.032 478.774 318.97C479.021 318.904 479.219 318.825 479.367 318.735C479.519 318.639 479.633 318.551 479.71 318.47V316.499H477.624V315.07H481.617V319.113ZM486.825 320.592C486.049 320.592 485.38 320.428 484.818 320.099C484.26 319.766 483.829 319.316 483.525 318.749C483.224 318.182 483.074 317.551 483.074 316.856V316.563C483.074 315.763 483.227 315.065 483.532 314.47C483.836 313.87 484.256 313.405 484.789 313.077C485.322 312.743 485.93 312.577 486.611 312.577C487.354 312.577 487.971 312.738 488.461 313.062C488.956 313.381 489.328 313.827 489.576 314.398C489.823 314.965 489.947 315.622 489.947 316.37V317.156H483.939V315.856H488.14V315.713C488.13 315.417 488.073 315.144 487.968 314.891C487.863 314.639 487.699 314.436 487.475 314.284C487.256 314.127 486.966 314.048 486.604 314.048C486.227 314.048 485.913 314.153 485.661 314.363C485.413 314.572 485.225 314.865 485.096 315.241C484.972 315.617 484.91 316.058 484.91 316.563V316.856C484.91 317.284 484.989 317.67 485.146 318.013C485.308 318.356 485.539 318.627 485.839 318.828C486.144 319.023 486.508 319.12 486.932 319.12C487.337 319.12 487.699 319.042 488.018 318.885C488.342 318.723 488.621 318.492 488.854 318.192L489.804 319.156C489.561 319.518 489.192 319.849 488.697 320.149C488.206 320.444 487.582 320.592 486.825 320.592ZM493.048 320.449H491.219V312.719H492.94L493.048 314.37V320.449ZM492.169 316.32C492.174 315.567 492.302 314.913 492.555 314.355C492.812 313.793 493.171 313.358 493.633 313.048C494.095 312.734 494.633 312.577 495.248 312.577C495.743 312.577 496.174 312.672 496.541 312.862C496.908 313.048 497.191 313.353 497.391 313.777C497.596 314.201 497.698 314.77 497.698 315.484V320.449H495.862V315.47C495.862 315.117 495.812 314.839 495.712 314.634C495.612 314.429 495.462 314.284 495.262 314.198C495.067 314.112 494.826 314.07 494.541 314.07C494.25 314.07 493.993 314.127 493.769 314.241C493.55 314.355 493.362 314.515 493.205 314.72C493.052 314.925 492.936 315.163 492.855 315.434C492.778 315.706 492.74 315.998 492.74 316.313L492.169 316.32ZM500.649 320.449H498.641L502.549 310.048H503.814L503.685 311.598L500.649 320.449ZM503.156 311.598L503.013 310.048H504.285L508.207 320.449H506.2L503.156 311.598ZM506.085 318.12H500.442V316.577H506.085V318.12ZM511.343 320.449H509.443V310.048H511.343V320.449ZM471.437 326.048C472.232 326.048 472.911 326.167 473.473 326.405C474.04 326.643 474.471 326.995 474.766 327.462C475.066 327.929 475.216 328.503 475.216 329.184C475.216 329.717 475.121 330.182 474.93 330.577C474.745 330.972 474.478 331.303 474.13 331.57C473.782 331.837 473.37 332.046 472.894 332.199L472.316 332.506H469.015V330.97H471.444C471.863 330.97 472.211 330.898 472.487 330.755C472.763 330.613 472.968 330.415 473.101 330.162C473.24 329.91 473.309 329.622 473.309 329.298C473.309 328.774 473.159 328.357 472.859 328.048C472.558 327.738 472.085 327.583 471.437 327.583H469.608V336.449H467.708V326.048H471.437ZM471.173 331.777H473.18L475.63 336.349V336.449H473.587L471.173 331.777ZM480.231 336.592C479.455 336.592 478.786 336.428 478.224 336.099C477.666 335.766 477.235 335.316 476.931 334.749C476.631 334.182 476.481 333.551 476.481 332.856V332.563C476.481 331.763 476.633 331.065 476.938 330.47C477.243 329.87 477.662 329.405 478.195 329.077C478.729 328.743 479.336 328.577 480.017 328.577C480.76 328.577 481.377 328.738 481.867 329.062C482.362 329.381 482.734 329.827 482.982 330.398C483.229 330.965 483.353 331.622 483.353 332.37V333.156H477.345V331.856H481.546V331.713C481.536 331.417 481.479 331.144 481.374 330.891C481.269 330.639 481.105 330.436 480.881 330.284C480.662 330.127 480.372 330.048 480.01 330.048C479.633 330.048 479.319 330.153 479.067 330.363C478.819 330.572 478.631 330.865 478.502 331.241C478.378 331.617 478.317 332.058 478.317 332.563V332.856C478.317 333.284 478.395 333.67 478.552 334.013C478.714 334.356 478.945 334.627 479.245 334.828C479.55 335.023 479.914 335.12 480.338 335.12C480.743 335.12 481.105 335.042 481.424 334.885C481.748 334.723 482.027 334.492 482.26 334.192L483.21 335.156C482.967 335.518 482.598 335.849 482.103 336.149C481.612 336.444 480.988 336.592 480.231 336.592ZM488.475 336.592C487.99 336.592 487.568 336.502 487.211 336.321C486.854 336.135 486.551 335.875 486.304 335.542C486.061 335.209 485.865 334.818 485.718 334.37C485.57 333.918 485.463 333.425 485.396 332.891V332.391C485.482 331.639 485.644 330.977 485.882 330.405C486.12 329.834 486.449 329.386 486.868 329.062C487.292 328.738 487.823 328.577 488.461 328.577C489.114 328.577 489.664 328.741 490.111 329.069C490.559 329.398 490.897 329.858 491.126 330.448C491.359 331.034 491.476 331.72 491.476 332.506V332.656C491.476 333.408 491.359 334.082 491.126 334.678C490.897 335.268 490.559 335.735 490.111 336.078C489.668 336.421 489.123 336.592 488.475 336.592ZM484.653 339.421V328.719H486.339L486.482 330.205V339.421H484.653ZM487.975 335.12C488.375 335.12 488.697 335.009 488.94 334.785C489.187 334.561 489.366 334.263 489.476 333.892C489.59 333.515 489.647 333.103 489.647 332.656V332.506C489.647 332.049 489.59 331.637 489.476 331.27C489.361 330.903 489.18 330.613 488.933 330.398C488.685 330.179 488.361 330.07 487.961 330.07C487.666 330.07 487.413 330.117 487.204 330.212C486.994 330.308 486.818 330.443 486.675 330.62C486.537 330.791 486.427 330.998 486.346 331.241C486.27 331.479 486.218 331.744 486.189 332.034V333.249C486.242 333.596 486.332 333.913 486.461 334.199C486.589 334.48 486.775 334.704 487.018 334.87C487.266 335.037 487.585 335.12 487.975 335.12ZM492.555 332.513C492.555 331.76 492.697 331.089 492.983 330.498C493.269 329.908 493.679 329.441 494.212 329.098C494.75 328.75 495.398 328.577 496.155 328.577C496.922 328.577 497.577 328.75 498.12 329.098C498.663 329.441 499.075 329.908 499.356 330.498C499.641 331.089 499.784 331.76 499.784 332.513V332.663C499.784 333.411 499.641 334.082 499.356 334.678C499.075 335.268 498.663 335.735 498.12 336.078C497.582 336.421 496.931 336.592 496.169 336.592C495.407 336.592 494.757 336.421 494.219 336.078C493.681 335.735 493.269 335.268 492.983 334.678C492.697 334.082 492.555 333.411 492.555 332.663V332.513ZM494.383 332.663C494.383 333.111 494.445 333.523 494.569 333.899C494.693 334.27 494.886 334.568 495.148 334.792C495.41 335.011 495.75 335.12 496.169 335.12C496.589 335.12 496.929 335.011 497.191 334.792C497.453 334.568 497.644 334.27 497.763 333.899C497.886 333.523 497.948 333.111 497.948 332.663V332.513C497.948 332.07 497.886 331.663 497.763 331.291C497.644 330.915 497.451 330.615 497.184 330.391C496.922 330.162 496.579 330.048 496.155 330.048C495.741 330.048 495.403 330.162 495.141 330.391C494.879 330.615 494.686 330.915 494.562 331.291C494.443 331.663 494.383 332.07 494.383 332.513V332.663ZM503.013 336.449H501.185V328.719H502.921L503.013 330.277V336.449ZM505.335 330.413C505.226 330.393 505.107 330.379 504.978 330.37C504.854 330.36 504.733 330.355 504.614 330.355C504.228 330.355 503.906 330.424 503.649 330.563C503.392 330.696 503.197 330.891 503.063 331.148C502.935 331.401 502.859 331.703 502.835 332.056L502.428 332.027C502.428 331.375 502.513 330.789 502.685 330.27C502.856 329.746 503.111 329.334 503.449 329.034C503.792 328.729 504.218 328.577 504.728 328.577C504.828 328.577 504.94 328.586 505.064 328.605C505.188 328.619 505.283 328.641 505.35 328.669L505.335 330.413ZM510.372 330.07H505.964V328.719H510.372V330.07ZM509.014 326.826V334.235C509.014 334.468 509.048 334.647 509.114 334.77C509.181 334.889 509.274 334.97 509.393 335.013C509.517 335.056 509.662 335.078 509.829 335.078C509.948 335.078 510.062 335.07 510.172 335.056C510.281 335.042 510.367 335.028 510.429 335.013V336.421C510.281 336.468 510.112 336.509 509.922 336.542C509.731 336.575 509.51 336.592 509.257 336.592C508.852 336.592 508.493 336.521 508.179 336.378C507.864 336.23 507.619 335.994 507.443 335.671C507.271 335.347 507.186 334.916 507.186 334.377V326.826H509.014ZM514.565 336.592C513.856 336.592 513.256 336.466 512.765 336.213C512.279 335.956 511.91 335.63 511.658 335.235C511.41 334.839 511.286 334.432 511.286 334.013H513.044C513.063 334.308 513.146 334.549 513.294 334.735C513.446 334.916 513.637 335.047 513.865 335.128C514.099 335.209 514.341 335.249 514.594 335.249C514.889 335.249 515.137 335.211 515.337 335.135C515.537 335.054 515.687 334.947 515.787 334.813C515.892 334.675 515.944 334.516 515.944 334.335C515.944 334.173 515.901 334.027 515.816 333.899C515.735 333.77 515.575 333.651 515.337 333.542C515.104 333.432 514.758 333.33 514.301 333.234C513.758 333.12 513.279 332.968 512.865 332.777C512.451 332.587 512.124 332.341 511.886 332.041C511.653 331.737 511.536 331.367 511.536 330.934C511.536 330.51 511.658 330.12 511.901 329.762C512.143 329.405 512.491 329.119 512.944 328.905C513.396 328.686 513.932 328.577 514.551 328.577C515.204 328.577 515.763 328.686 516.23 328.905C516.701 329.119 517.063 329.412 517.316 329.784C517.568 330.151 517.694 330.57 517.694 331.041H515.866C515.866 330.736 515.756 330.474 515.537 330.255C515.318 330.032 514.987 329.92 514.544 329.92C514.277 329.92 514.051 329.962 513.865 330.048C513.679 330.134 513.541 330.248 513.451 330.391C513.36 330.529 513.315 330.682 513.315 330.848C513.315 331.01 513.36 331.153 513.451 331.277C513.546 331.396 513.706 331.503 513.93 331.598C514.153 331.689 514.465 331.777 514.865 331.863C515.446 331.982 515.951 332.137 516.38 332.327C516.813 332.513 517.147 332.761 517.38 333.07C517.618 333.375 517.737 333.768 517.737 334.249C517.737 334.701 517.606 335.106 517.344 335.463C517.087 335.816 516.72 336.092 516.244 336.292C515.768 336.492 515.208 336.592 514.565 336.592Z" fill="white"/>
<rect x="67.6074" y="173.247" width="228" height="68" rx="8" fill="#F7DBFF"/>
<path d="M265.664 199.107L257.194 213.247C257.019 213.55 256.927 213.893 256.926 214.242C256.925 214.591 257.015 214.934 257.188 215.238C257.361 215.541 257.611 215.794 257.912 215.971C258.212 216.148 258.555 216.243 258.904 216.247H275.844C276.193 216.243 276.535 216.148 276.836 215.971C277.137 215.794 277.386 215.541 277.559 215.238C277.732 214.934 277.823 214.591 277.822 214.242C277.821 213.893 277.728 213.55 277.554 213.247L269.084 199.107C268.906 198.813 268.655 198.57 268.355 198.402C268.055 198.233 267.718 198.145 267.374 198.145C267.03 198.145 266.692 198.233 266.393 198.402C266.093 198.57 265.842 198.813 265.664 199.107Z" fill="#FE6533"/>
<path d="M267.373 204.247V208.247" stroke="#F7DBFF" stroke-width="2" stroke-linecap="round" stroke-linejoin="round"/>
<path d="M267.373 212.247H267.383" stroke="#F7DBFF" stroke-width="2" stroke-linecap="round" stroke-linejoin="round"/>
<path d="M86.1493 203.858C86.7875 203.858 87.3233 203.779 87.7567 203.622C88.1901 203.46 88.5354 203.234 88.7926 202.944C89.0546 202.648 89.2427 202.298 89.357 201.893C89.4713 201.489 89.5284 201.046 89.5284 200.565V198.686C89.5284 198.152 89.4546 197.705 89.307 197.343C89.1593 196.981 88.9617 196.709 88.714 196.528C88.4664 196.343 88.1925 196.25 87.8925 196.25C87.5591 196.25 87.2733 196.35 87.0352 196.55C86.797 196.745 86.6161 197.005 86.4922 197.328C86.3684 197.648 86.3065 197.998 86.3065 198.379C86.3065 198.75 86.3636 199.098 86.4779 199.422C86.597 199.741 86.7756 199.998 87.0137 200.193C87.2566 200.388 87.5567 200.486 87.9139 200.486C88.1663 200.486 88.3997 200.438 88.614 200.343C88.8283 200.243 89.0117 200.112 89.1641 199.95C89.3213 199.784 89.4451 199.598 89.5356 199.393C89.6308 199.188 89.6832 198.976 89.6928 198.757L90.3714 199.029C90.3714 199.376 90.2976 199.722 90.15 200.065C90.0023 200.407 89.7975 200.719 89.5356 201C89.2736 201.277 88.9688 201.498 88.6211 201.665C88.2782 201.827 87.9067 201.908 87.5067 201.908C86.8447 201.908 86.2898 201.748 85.8421 201.429C85.3944 201.11 85.0563 200.686 84.8277 200.157C84.6038 199.629 84.4919 199.05 84.4919 198.421C84.4919 197.75 84.6276 197.138 84.8991 196.585C85.1706 196.033 85.5611 195.592 86.0707 195.264C86.5803 194.935 87.19 194.771 87.8996 194.771C88.4521 194.771 88.9426 194.878 89.3713 195.092C89.8047 195.302 90.1666 195.6 90.4572 195.985C90.7524 196.366 90.9763 196.814 91.1287 197.328C91.2811 197.838 91.3573 198.395 91.3573 199V199.636C91.3573 200.274 91.2978 200.881 91.1787 201.458C91.0644 202.029 90.881 202.555 90.6286 203.036C90.3762 203.513 90.0476 203.927 89.6427 204.28C89.2379 204.632 88.7474 204.906 88.1711 205.101C87.5996 205.292 86.9328 205.387 86.1707 205.387H86.0136V203.858H86.1493ZM96.3653 205.458C95.708 205.458 95.1174 205.344 94.5936 205.115C94.0744 204.887 93.6624 204.551 93.3576 204.108C93.0576 203.665 92.9076 203.12 92.9076 202.472C92.9076 201.896 93.0552 201.393 93.3505 200.965C93.6505 200.531 94.0601 200.196 94.5793 199.957C95.0984 199.715 95.689 199.593 96.351 199.593C97.013 199.593 97.6036 199.715 98.1227 199.957C98.6418 200.196 99.0514 200.531 99.3515 200.965C99.6515 201.393 99.8015 201.896 99.8015 202.472C99.8015 203.12 99.6515 203.665 99.3515 204.108C99.0514 204.551 98.6418 204.887 98.1227 205.115C97.6083 205.344 97.0225 205.458 96.3653 205.458ZM96.3653 203.987C96.6939 203.987 96.9773 203.922 97.2154 203.794C97.4583 203.66 97.644 203.475 97.7726 203.237C97.906 202.994 97.9727 202.703 97.9727 202.365C97.9727 202.032 97.9036 201.741 97.7655 201.493C97.6321 201.246 97.444 201.055 97.2011 200.922C96.9582 200.784 96.6748 200.715 96.351 200.715C96.0224 200.715 95.7366 200.784 95.4937 200.922C95.2556 201.055 95.0698 201.246 94.9365 201.493C94.8079 201.741 94.7436 202.032 94.7436 202.365C94.7436 202.703 94.8079 202.994 94.9365 203.237C95.0698 203.475 95.2579 203.66 95.5008 203.794C95.7437 203.922 96.0319 203.987 96.3653 203.987ZM96.3653 200.35C95.7366 200.35 95.1794 200.236 94.6936 200.007C94.2078 199.779 93.8268 199.462 93.5505 199.057C93.2743 198.648 93.1362 198.181 93.1362 197.657C93.1362 197.038 93.2743 196.514 93.5505 196.085C93.8268 195.657 94.2078 195.33 94.6936 195.107C95.1794 194.883 95.7342 194.771 96.3581 194.771C96.982 194.771 97.5345 194.883 98.0155 195.107C98.5013 195.33 98.8823 195.657 99.1586 196.085C99.4348 196.514 99.5729 197.038 99.5729 197.657C99.5729 198.181 99.4348 198.648 99.1586 199.057C98.8823 199.462 98.5013 199.779 98.0155 200.007C97.5345 200.236 96.9844 200.35 96.3653 200.35ZM96.3653 199.236C96.651 199.236 96.8963 199.174 97.1011 199.05C97.3059 198.926 97.4631 198.752 97.5726 198.529C97.6869 198.3 97.7441 198.036 97.7441 197.736C97.7441 197.44 97.6869 197.181 97.5726 196.957C97.4631 196.733 97.3035 196.559 97.094 196.435C96.8892 196.307 96.6439 196.243 96.3581 196.243C96.0724 196.243 95.8247 196.304 95.6151 196.428C95.4104 196.547 95.2508 196.719 95.1365 196.943C95.027 197.162 94.9722 197.426 94.9722 197.736C94.9722 198.036 95.027 198.3 95.1365 198.529C95.2508 198.752 95.4104 198.926 95.6151 199.05C95.8247 199.174 96.0747 199.236 96.3653 199.236ZM103.831 204.537L102.909 204.008L107.989 195.878L108.91 196.407L103.831 204.537ZM108.467 205.465C107.991 205.465 107.586 205.368 107.253 205.173C106.919 204.977 106.665 204.718 106.488 204.394C106.317 204.07 106.231 203.713 106.231 203.322V202.765C106.231 202.374 106.317 202.017 106.488 201.693C106.665 201.37 106.917 201.11 107.246 200.915C107.574 200.719 107.977 200.622 108.453 200.622C108.934 200.622 109.339 200.719 109.667 200.915C109.996 201.11 110.246 201.37 110.418 201.693C110.589 202.017 110.675 202.374 110.675 202.765V203.322C110.675 203.713 110.589 204.07 110.418 204.394C110.251 204.718 110.003 204.977 109.675 205.173C109.346 205.368 108.944 205.465 108.467 205.465ZM108.467 204.38C108.705 204.38 108.894 204.33 109.032 204.23C109.17 204.13 109.267 204.001 109.325 203.844C109.386 203.682 109.417 203.508 109.417 203.322V202.765C109.417 202.489 109.336 202.243 109.175 202.029C109.017 201.815 108.777 201.708 108.453 201.708C108.129 201.708 107.886 201.815 107.724 202.029C107.567 202.243 107.489 202.489 107.489 202.765V203.322C107.489 203.503 107.527 203.675 107.603 203.837C107.679 203.999 107.791 204.13 107.939 204.23C108.086 204.33 108.262 204.38 108.467 204.38ZM103.459 199.6C102.983 199.6 102.578 199.503 102.245 199.307C101.916 199.112 101.666 198.852 101.495 198.529C101.323 198.205 101.237 197.85 101.237 197.464V196.914C101.237 196.519 101.323 196.159 101.495 195.835C101.666 195.511 101.916 195.252 102.245 195.057C102.573 194.861 102.973 194.764 103.445 194.764C103.926 194.764 104.331 194.861 104.659 195.057C104.993 195.252 105.245 195.511 105.417 195.835C105.588 196.159 105.674 196.519 105.674 196.914V197.464C105.674 197.85 105.588 198.205 105.417 198.529C105.245 198.852 104.995 199.112 104.667 199.307C104.338 199.503 103.936 199.6 103.459 199.6ZM103.459 198.514C103.678 198.514 103.857 198.464 103.995 198.364C104.138 198.264 104.243 198.136 104.309 197.979C104.381 197.817 104.417 197.645 104.417 197.464V196.914C104.417 196.728 104.381 196.554 104.309 196.393C104.238 196.231 104.131 196.1 103.988 196C103.845 195.9 103.664 195.85 103.445 195.85C103.235 195.85 103.059 195.9 102.916 196C102.773 196.1 102.666 196.231 102.595 196.393C102.523 196.554 102.488 196.728 102.488 196.914V197.464C102.488 197.645 102.523 197.817 102.595 197.979C102.666 198.136 102.773 198.264 102.916 198.364C103.064 198.464 103.245 198.514 103.459 198.514ZM119.012 205.458C118.221 205.458 117.564 205.284 117.04 204.937C116.516 204.584 116.126 204.115 115.868 203.529C115.611 202.939 115.483 202.286 115.483 201.572V201.336C115.483 200.617 115.611 199.965 115.868 199.379C116.13 198.788 116.521 198.319 117.04 197.971C117.564 197.619 118.219 197.443 119.005 197.443C119.629 197.443 120.176 197.567 120.648 197.814C121.124 198.057 121.496 198.4 121.762 198.843C122.029 199.281 122.167 199.798 122.177 200.393H120.455C120.445 200.122 120.381 199.874 120.262 199.65C120.143 199.426 119.974 199.248 119.755 199.114C119.54 198.981 119.281 198.914 118.976 198.914C118.533 198.914 118.19 199.031 117.947 199.264C117.709 199.498 117.543 199.8 117.447 200.172C117.357 200.538 117.312 200.927 117.312 201.336V201.572C117.312 201.982 117.357 202.372 117.447 202.744C117.538 203.11 117.704 203.41 117.947 203.644C118.19 203.872 118.538 203.987 118.99 203.987C119.262 203.987 119.505 203.934 119.719 203.829C119.938 203.72 120.112 203.57 120.241 203.379C120.374 203.189 120.445 202.967 120.455 202.715H122.177C122.167 203.229 122.019 203.694 121.734 204.108C121.448 204.522 121.067 204.851 120.591 205.094C120.119 205.337 119.593 205.458 119.012 205.458ZM125.299 205.315H123.47V197.586H125.206L125.299 199.143V205.315ZM127.62 199.279C127.511 199.26 127.392 199.245 127.263 199.236C127.139 199.226 127.018 199.222 126.899 199.222C126.513 199.222 126.192 199.291 125.934 199.429C125.677 199.562 125.482 199.757 125.349 200.015C125.22 200.267 125.144 200.569 125.12 200.922L124.713 200.893C124.713 200.241 124.798 199.655 124.97 199.136C125.141 198.612 125.396 198.2 125.734 197.9C126.077 197.595 126.504 197.443 127.013 197.443C127.113 197.443 127.225 197.452 127.349 197.471C127.473 197.486 127.568 197.507 127.635 197.536L127.62 199.279ZM132.135 205.458C131.359 205.458 130.69 205.294 130.128 204.965C129.571 204.632 129.14 204.182 128.835 203.615C128.535 203.048 128.385 202.417 128.385 201.722V201.429C128.385 200.629 128.537 199.931 128.842 199.336C129.147 198.736 129.566 198.271 130.099 197.943C130.633 197.609 131.24 197.443 131.921 197.443C132.664 197.443 133.281 197.605 133.771 197.929C134.267 198.248 134.638 198.693 134.886 199.264C135.134 199.831 135.257 200.488 135.257 201.236V202.022H129.249V200.722H133.45V200.579C133.44 200.284 133.383 200.01 133.278 199.757C133.174 199.505 133.009 199.303 132.786 199.15C132.566 198.993 132.276 198.914 131.914 198.914C131.538 198.914 131.223 199.019 130.971 199.229C130.723 199.438 130.535 199.731 130.407 200.107C130.283 200.484 130.221 200.924 130.221 201.429V201.722C130.221 202.151 130.299 202.536 130.457 202.879C130.618 203.222 130.849 203.494 131.15 203.694C131.454 203.889 131.819 203.987 132.243 203.987C132.647 203.987 133.009 203.908 133.328 203.751C133.652 203.589 133.931 203.358 134.164 203.058L135.114 204.022C134.872 204.384 134.502 204.715 134.007 205.015C133.517 205.311 132.893 205.458 132.135 205.458ZM139.258 205.458C138.634 205.458 138.096 205.289 137.643 204.951C137.191 204.608 136.843 204.141 136.6 203.551C136.358 202.96 136.236 202.289 136.236 201.536V201.386C136.236 200.605 136.358 199.919 136.6 199.329C136.843 198.733 137.191 198.271 137.643 197.943C138.096 197.609 138.639 197.443 139.272 197.443C139.896 197.443 140.415 197.607 140.83 197.936C141.249 198.26 141.577 198.71 141.816 199.286C142.058 199.857 142.22 200.519 142.301 201.272V201.693C142.22 202.417 142.061 203.063 141.823 203.629C141.585 204.196 141.256 204.644 140.837 204.973C140.418 205.296 139.891 205.458 139.258 205.458ZM139.722 203.958C140.103 203.958 140.415 203.875 140.658 203.708C140.906 203.541 141.096 203.315 141.23 203.029C141.368 202.744 141.461 202.42 141.508 202.058V200.915C141.48 200.629 141.423 200.365 141.337 200.122C141.256 199.879 141.144 199.669 141.001 199.493C140.863 199.317 140.689 199.181 140.48 199.086C140.27 198.986 140.022 198.936 139.737 198.936C139.337 198.936 139.013 199.045 138.765 199.264C138.522 199.484 138.344 199.779 138.229 200.15C138.12 200.522 138.065 200.934 138.065 201.386V201.536C138.065 201.984 138.12 202.391 138.229 202.758C138.339 203.125 138.515 203.418 138.758 203.637C139.001 203.851 139.322 203.958 139.722 203.958ZM141.401 205.315L141.223 203.679V194.342H143.059V205.315H141.401ZM145.859 194.607C146.183 194.607 146.438 194.699 146.623 194.885C146.809 195.066 146.902 195.295 146.902 195.571C146.902 195.847 146.809 196.078 146.623 196.264C146.438 196.445 146.183 196.535 145.859 196.535C145.535 196.535 145.28 196.445 145.095 196.264C144.914 196.078 144.823 195.847 144.823 195.571C144.823 195.295 144.914 195.066 145.095 194.885C145.28 194.699 145.535 194.607 145.859 194.607ZM146.781 205.315H144.945V197.586H146.781V205.315ZM152.26 198.936H147.852V197.586H152.26V198.936ZM150.903 195.692V203.101C150.903 203.334 150.936 203.513 151.003 203.637C151.069 203.756 151.162 203.837 151.281 203.879C151.405 203.922 151.55 203.944 151.717 203.944C151.836 203.944 151.951 203.937 152.06 203.922C152.17 203.908 152.255 203.894 152.317 203.879V205.287C152.17 205.334 152.001 205.375 151.81 205.408C151.62 205.442 151.398 205.458 151.146 205.458C150.741 205.458 150.381 205.387 150.067 205.244C149.753 205.096 149.507 204.861 149.331 204.537C149.16 204.213 149.074 203.782 149.074 203.244V195.692H150.903ZM161.797 197.586H163.633V205.315H161.905L161.797 203.487V197.586ZM162.64 201.858C162.64 202.548 162.538 203.165 162.333 203.708C162.128 204.251 161.809 204.68 161.376 204.994C160.942 205.304 160.385 205.458 159.704 205.458C158.942 205.458 158.325 205.234 157.854 204.787C157.382 204.339 157.147 203.603 157.147 202.579V197.586H158.975V202.594C158.975 202.941 159.028 203.215 159.133 203.415C159.242 203.61 159.387 203.751 159.568 203.837C159.754 203.918 159.957 203.958 160.176 203.958C160.647 203.958 161.019 203.868 161.29 203.687C161.562 203.501 161.755 203.251 161.869 202.936C161.988 202.617 162.047 202.263 162.047 201.872L162.64 201.858ZM168.963 198.936H164.555V197.586H168.963V198.936ZM167.605 195.692V203.101C167.605 203.334 167.639 203.513 167.705 203.637C167.772 203.756 167.865 203.837 167.984 203.879C168.108 203.922 168.253 203.944 168.42 203.944C168.539 203.944 168.653 203.937 168.763 203.922C168.872 203.908 168.958 203.894 169.02 203.879V205.287C168.872 205.334 168.703 205.375 168.513 205.408C168.322 205.442 168.101 205.458 167.848 205.458C167.444 205.458 167.084 205.387 166.77 205.244C166.455 205.096 166.21 204.861 166.034 204.537C165.862 204.213 165.777 203.782 165.777 203.244V195.692H167.605ZM171.292 194.607C171.616 194.607 171.87 194.699 172.056 194.885C172.242 195.066 172.335 195.295 172.335 195.571C172.335 195.847 172.242 196.078 172.056 196.264C171.87 196.445 171.616 196.535 171.292 196.535C170.968 196.535 170.713 196.445 170.527 196.264C170.346 196.078 170.256 195.847 170.256 195.571C170.256 195.295 170.346 195.066 170.527 194.885C170.713 194.699 170.968 194.607 171.292 194.607ZM172.213 205.315H170.377V197.586H172.213V205.315ZM176.021 205.315H174.185V194.342H176.021V205.315ZM178.907 194.607C179.231 194.607 179.486 194.699 179.672 194.885C179.857 195.066 179.95 195.295 179.95 195.571C179.95 195.847 179.857 196.078 179.672 196.264C179.486 196.445 179.231 196.535 178.907 196.535C178.583 196.535 178.329 196.445 178.143 196.264C177.962 196.078 177.871 195.847 177.871 195.571C177.871 195.295 177.962 195.066 178.143 194.885C178.329 194.699 178.583 194.607 178.907 194.607ZM179.829 205.315H177.993V197.586H179.829V205.315ZM184.601 205.458C183.891 205.458 183.291 205.332 182.801 205.08C182.315 204.822 181.946 204.496 181.693 204.101C181.446 203.706 181.322 203.298 181.322 202.879H183.079C183.098 203.175 183.182 203.415 183.329 203.601C183.482 203.782 183.672 203.913 183.901 203.994C184.134 204.075 184.377 204.115 184.63 204.115C184.925 204.115 185.173 204.077 185.373 204.001C185.573 203.92 185.723 203.813 185.823 203.679C185.928 203.541 185.98 203.382 185.98 203.201C185.98 203.039 185.937 202.894 185.851 202.765C185.77 202.636 185.611 202.517 185.373 202.408C185.139 202.298 184.794 202.196 184.337 202.101C183.794 201.986 183.315 201.834 182.901 201.643C182.486 201.453 182.16 201.208 181.922 200.908C181.689 200.603 181.572 200.234 181.572 199.8C181.572 199.376 181.693 198.986 181.936 198.629C182.179 198.271 182.527 197.986 182.979 197.771C183.432 197.552 183.968 197.443 184.587 197.443C185.239 197.443 185.799 197.552 186.266 197.771C186.737 197.986 187.099 198.279 187.352 198.65C187.604 199.017 187.73 199.436 187.73 199.907H185.901C185.901 199.603 185.792 199.341 185.573 199.122C185.354 198.898 185.023 198.786 184.58 198.786C184.313 198.786 184.087 198.829 183.901 198.914C183.715 199 183.577 199.114 183.487 199.257C183.396 199.395 183.351 199.548 183.351 199.715C183.351 199.876 183.396 200.019 183.487 200.143C183.582 200.262 183.741 200.369 183.965 200.465C184.189 200.555 184.501 200.643 184.901 200.729C185.482 200.848 185.987 201.003 186.416 201.193C186.849 201.379 187.182 201.627 187.416 201.936C187.654 202.241 187.773 202.634 187.773 203.115C187.773 203.568 187.642 203.972 187.38 204.33C187.123 204.682 186.756 204.958 186.28 205.158C185.804 205.358 185.244 205.458 184.601 205.458ZM192.688 205.458C191.912 205.458 191.243 205.294 190.681 204.965C190.123 204.632 189.692 204.182 189.388 203.615C189.088 203.048 188.938 202.417 188.938 201.722V201.429C188.938 200.629 189.09 199.931 189.395 199.336C189.7 198.736 190.119 198.271 190.652 197.943C191.186 197.609 191.793 197.443 192.474 197.443C193.217 197.443 193.834 197.605 194.324 197.929C194.819 198.248 195.191 198.693 195.439 199.264C195.686 199.831 195.81 200.488 195.81 201.236V202.022H189.802V200.722H194.003V200.579C193.993 200.284 193.936 200.01 193.831 199.757C193.726 199.505 193.562 199.303 193.338 199.15C193.119 198.993 192.829 198.914 192.467 198.914C192.09 198.914 191.776 199.019 191.524 199.229C191.276 199.438 191.088 199.731 190.959 200.107C190.835 200.484 190.774 200.924 190.774 201.429V201.722C190.774 202.151 190.852 202.536 191.009 202.879C191.171 203.222 191.402 203.494 191.702 203.694C192.007 203.889 192.371 203.987 192.795 203.987C193.2 203.987 193.562 203.908 193.881 203.751C194.205 203.589 194.484 203.358 194.717 203.058L195.667 204.022C195.424 204.384 195.055 204.715 194.56 205.015C194.069 205.311 193.445 205.458 192.688 205.458ZM199.811 205.458C199.187 205.458 198.649 205.289 198.196 204.951C197.744 204.608 197.396 204.141 197.153 203.551C196.91 202.96 196.789 202.289 196.789 201.536V201.386C196.789 200.605 196.91 199.919 197.153 199.329C197.396 198.733 197.744 198.271 198.196 197.943C198.649 197.609 199.192 197.443 199.825 197.443C200.449 197.443 200.968 197.607 201.382 197.936C201.802 198.26 202.13 198.71 202.368 199.286C202.611 199.857 202.773 200.519 202.854 201.272V201.693C202.773 202.417 202.614 203.063 202.375 203.629C202.137 204.196 201.809 204.644 201.39 204.973C200.97 205.296 200.444 205.458 199.811 205.458ZM200.275 203.958C200.656 203.958 200.968 203.875 201.211 203.708C201.459 203.541 201.649 203.315 201.782 203.029C201.921 202.744 202.013 202.42 202.061 202.058V200.915C202.033 200.629 201.975 200.365 201.89 200.122C201.809 199.879 201.697 199.669 201.554 199.493C201.416 199.317 201.242 199.181 201.032 199.086C200.823 198.986 200.575 198.936 200.289 198.936C199.889 198.936 199.565 199.045 199.318 199.264C199.075 199.484 198.896 199.779 198.782 200.15C198.672 200.522 198.618 200.934 198.618 201.386V201.536C198.618 201.984 198.672 202.391 198.782 202.758C198.892 203.125 199.068 203.418 199.311 203.637C199.554 203.851 199.875 203.958 200.275 203.958ZM201.954 205.315L201.775 203.679V194.342H203.611V205.315H201.954Z" fill="#7A1600"/>
<rect x="83.8418" y="216.061" width="151.752" height="6.11804" rx="3.05902" fill="white"/>
<rect x="83.8418" y="216.061" width="142.693" height="6.11804" rx="3.05902" fill="#FE6533"/>
<rect x="67.6074" y="254.86" width="93.9648" height="42.485" rx="21.2425" fill="#FE6533"/>
<path d="M91.7359 275.803H86.2779V274.267H91.7359V275.803ZM86.7637 280.375H84.8634V269.973H86.7637V280.375ZM93.179 280.375H91.2787V269.973H93.179V280.375ZM96.1224 269.666C96.4462 269.666 96.701 269.759 96.8868 269.945C97.0725 270.126 97.1654 270.354 97.1654 270.631C97.1654 270.907 97.0725 271.138 96.8868 271.324C96.701 271.505 96.4462 271.595 96.1224 271.595C95.7985 271.595 95.5437 271.505 95.358 271.324C95.177 271.138 95.0865 270.907 95.0865 270.631C95.0865 270.354 95.177 270.126 95.358 269.945C95.5437 269.759 95.7985 269.666 96.1224 269.666ZM97.044 280.375H95.2079V272.645H97.044V280.375ZM101.923 283.418C101.623 283.418 101.292 283.375 100.93 283.29C100.573 283.209 100.225 283.075 99.8873 282.89C99.5539 282.704 99.2729 282.463 99.0443 282.168L99.8873 281.061C100.154 281.37 100.452 281.601 100.78 281.754C101.114 281.906 101.464 281.982 101.83 281.982C102.402 281.982 102.85 281.825 103.174 281.511C103.497 281.201 103.659 280.754 103.659 280.168V274.41L103.838 272.645H105.495V280.139C105.495 280.839 105.345 281.435 105.045 281.925C104.745 282.416 104.326 282.787 103.788 283.04C103.25 283.292 102.628 283.418 101.923 283.418ZM101.695 280.518C101.061 280.518 100.514 280.349 100.052 280.011C99.5896 279.668 99.2324 279.201 98.98 278.61C98.7276 278.02 98.6013 277.348 98.6013 276.596V276.446C98.6013 275.665 98.7252 274.979 98.9728 274.388C99.2253 273.793 99.5848 273.331 100.052 273.002C100.518 272.669 101.071 272.502 101.709 272.502C102.219 272.502 102.65 272.595 103.002 272.781C103.359 272.967 103.655 273.231 103.888 273.574C104.121 273.912 104.305 274.317 104.438 274.788C104.571 275.255 104.671 275.769 104.738 276.331V276.753C104.652 277.477 104.493 278.122 104.259 278.689C104.026 279.256 103.7 279.703 103.281 280.032C102.866 280.356 102.338 280.518 101.695 280.518ZM102.159 279.018C102.554 279.018 102.876 278.934 103.124 278.768C103.371 278.601 103.564 278.375 103.702 278.089C103.84 277.803 103.933 277.479 103.981 277.117V275.974C103.952 275.689 103.897 275.424 103.816 275.181C103.736 274.938 103.621 274.729 103.474 274.553C103.331 274.376 103.15 274.241 102.931 274.145C102.716 274.045 102.464 273.995 102.173 273.995C101.773 273.995 101.445 274.105 101.187 274.324C100.93 274.543 100.74 274.838 100.616 275.21C100.492 275.581 100.43 275.993 100.43 276.446V276.596C100.43 277.044 100.49 277.451 100.609 277.817C100.733 278.184 100.921 278.477 101.173 278.696C101.43 278.91 101.759 279.018 102.159 279.018ZM109.024 280.375H107.188V269.402H109.024V280.375ZM108.139 276.246C108.143 275.522 108.27 274.879 108.517 274.317C108.77 273.755 109.12 273.312 109.567 272.988C110.02 272.664 110.546 272.502 111.146 272.502C111.656 272.502 112.099 272.6 112.475 272.795C112.856 272.986 113.151 273.295 113.361 273.724C113.57 274.153 113.675 274.724 113.675 275.438V280.375H111.839V275.424C111.839 275.067 111.787 274.786 111.682 274.581C111.582 274.372 111.432 274.222 111.232 274.131C111.037 274.041 110.796 273.995 110.51 273.995C110.206 273.995 109.941 274.053 109.717 274.167C109.494 274.281 109.305 274.441 109.153 274.645C109.005 274.85 108.894 275.088 108.817 275.36C108.746 275.631 108.71 275.924 108.71 276.239L108.139 276.246ZM122.898 269.973C123.694 269.973 124.372 270.092 124.934 270.331C125.501 270.569 125.932 270.921 126.227 271.388C126.527 271.855 126.677 272.428 126.677 273.11C126.677 273.643 126.582 274.107 126.392 274.503C126.206 274.898 125.939 275.229 125.591 275.496C125.244 275.762 124.832 275.972 124.356 276.124L123.777 276.431H120.476V274.896H122.905C123.324 274.896 123.672 274.824 123.948 274.681C124.225 274.538 124.429 274.341 124.563 274.088C124.701 273.836 124.77 273.548 124.77 273.224C124.77 272.7 124.62 272.283 124.32 271.974C124.02 271.664 123.546 271.509 122.898 271.509H121.069V280.375H119.169V269.973H122.898ZM122.634 275.703H124.641L127.092 280.275V280.375H125.049L122.634 275.703ZM129.285 269.666C129.609 269.666 129.864 269.759 130.049 269.945C130.235 270.126 130.328 270.354 130.328 270.631C130.328 270.907 130.235 271.138 130.049 271.324C129.864 271.505 129.609 271.595 129.285 271.595C128.961 271.595 128.706 271.505 128.521 271.324C128.34 271.138 128.249 270.907 128.249 270.631C128.249 270.354 128.34 270.126 128.521 269.945C128.706 269.759 128.961 269.666 129.285 269.666ZM130.207 280.375H128.37V272.645H130.207V280.375ZM134.979 280.518C134.269 280.518 133.669 280.392 133.178 280.139C132.693 279.882 132.324 279.556 132.071 279.161C131.823 278.765 131.7 278.358 131.7 277.939H133.457C133.476 278.234 133.559 278.475 133.707 278.66C133.859 278.841 134.05 278.972 134.279 279.053C134.512 279.134 134.755 279.175 135.007 279.175C135.303 279.175 135.55 279.137 135.75 279.06C135.95 278.98 136.1 278.872 136.2 278.739C136.305 278.601 136.358 278.441 136.358 278.26C136.358 278.098 136.315 277.953 136.229 277.825C136.148 277.696 135.988 277.577 135.75 277.467C135.517 277.358 135.172 277.255 134.714 277.16C134.171 277.046 133.693 276.893 133.278 276.703C132.864 276.512 132.538 276.267 132.3 275.967C132.066 275.662 131.95 275.293 131.95 274.86C131.95 274.436 132.071 274.045 132.314 273.688C132.557 273.331 132.905 273.045 133.357 272.831C133.809 272.612 134.345 272.502 134.964 272.502C135.617 272.502 136.177 272.612 136.643 272.831C137.115 273.045 137.477 273.338 137.729 273.71C137.982 274.076 138.108 274.495 138.108 274.967H136.279C136.279 274.662 136.169 274.4 135.95 274.181C135.731 273.957 135.4 273.845 134.957 273.845C134.691 273.845 134.464 273.888 134.279 273.974C134.093 274.06 133.955 274.174 133.864 274.317C133.774 274.455 133.729 274.607 133.729 274.774C133.729 274.936 133.774 275.079 133.864 275.203C133.959 275.322 134.119 275.429 134.343 275.524C134.567 275.615 134.879 275.703 135.279 275.789C135.86 275.908 136.365 276.062 136.793 276.253C137.227 276.439 137.56 276.686 137.793 276.996C138.032 277.301 138.151 277.694 138.151 278.175C138.151 278.627 138.02 279.032 137.758 279.389C137.501 279.742 137.134 280.018 136.658 280.218C136.181 280.418 135.622 280.518 134.979 280.518ZM141.451 280.375H139.615V269.402H141.451V280.375ZM142.909 276.41L141.051 278.296L140.537 276.803L141.944 275.038L144.052 272.645H146.252L142.909 276.41ZM141.994 276.782L143.173 275.546L146.538 280.375H144.416L141.994 276.782Z" fill="white"/>
<path d="M151.232 288.857L158.302 305.827L160.812 298.437L168.202 295.927L151.232 288.857Z" fill="#7A1600" stroke="#7A1600" stroke-width="2" stroke-linecap="round" stroke-linejoin="round"/>
<path d="M161.232 298.857L167.232 304.857" stroke="#7A1600" stroke-width="4" stroke-linecap="round" stroke-linejoin="round"/>
<rect x="805.969" y="421.888" width="93.9648" height="42.485" rx="21.2425" fill="#FE6533"/>
<path d="M824.309 447.402H822.301L826.209 437.001H827.473L827.345 438.551L824.309 447.402ZM826.816 438.551L826.673 437.001H827.945L831.867 447.402H829.86L826.816 438.551ZM829.745 445.073H824.101V443.53H829.745V445.073ZM836.646 447.545C836.161 447.545 835.739 447.455 835.382 447.274C835.025 447.088 834.722 446.828 834.475 446.495C834.232 446.162 834.036 445.771 833.889 445.323C833.741 444.871 833.634 444.378 833.567 443.845V443.345C833.653 442.592 833.815 441.93 834.053 441.359C834.291 440.787 834.62 440.339 835.039 440.015C835.463 439.692 835.994 439.53 836.632 439.53C837.285 439.53 837.835 439.694 838.282 440.023C838.73 440.351 839.068 440.811 839.297 441.401C839.53 441.987 839.647 442.673 839.647 443.459V443.609C839.647 444.361 839.53 445.035 839.297 445.631C839.068 446.221 838.73 446.688 838.282 447.031C837.839 447.374 837.294 447.545 836.646 447.545ZM832.824 450.374V439.673H834.51L834.653 441.158V450.374H832.824ZM836.146 446.074C836.546 446.074 836.868 445.962 837.111 445.738C837.358 445.514 837.537 445.216 837.647 444.845C837.761 444.469 837.818 444.057 837.818 443.609V443.459C837.818 443.002 837.761 442.59 837.647 442.223C837.532 441.856 837.351 441.566 837.104 441.351C836.856 441.132 836.532 441.023 836.132 441.023C835.837 441.023 835.584 441.07 835.375 441.166C835.165 441.261 834.989 441.397 834.846 441.573C834.708 441.744 834.598 441.951 834.517 442.194C834.441 442.432 834.389 442.697 834.36 442.987V444.202C834.413 444.549 834.503 444.866 834.632 445.152C834.76 445.433 834.946 445.657 835.189 445.824C835.437 445.99 835.756 446.074 836.146 446.074ZM844.876 447.545C844.391 447.545 843.969 447.455 843.612 447.274C843.255 447.088 842.952 446.828 842.705 446.495C842.462 446.162 842.266 445.771 842.119 445.323C841.971 444.871 841.864 444.378 841.797 443.845V443.345C841.883 442.592 842.045 441.93 842.283 441.359C842.521 440.787 842.85 440.339 843.269 440.015C843.693 439.692 844.224 439.53 844.862 439.53C845.515 439.53 846.065 439.694 846.512 440.023C846.96 440.351 847.298 440.811 847.527 441.401C847.76 441.987 847.877 442.673 847.877 443.459V443.609C847.877 444.361 847.76 445.035 847.527 445.631C847.298 446.221 846.96 446.688 846.512 447.031C846.069 447.374 845.524 447.545 844.876 447.545ZM841.054 450.374V439.673H842.74L842.883 441.158V450.374H841.054ZM844.376 446.074C844.776 446.074 845.098 445.962 845.341 445.738C845.588 445.514 845.767 445.216 845.876 444.845C845.991 444.469 846.048 444.057 846.048 443.609V443.459C846.048 443.002 845.991 442.59 845.876 442.223C845.762 441.856 845.581 441.566 845.334 441.351C845.086 441.132 844.762 441.023 844.362 441.023C844.067 441.023 843.814 441.07 843.605 441.166C843.395 441.261 843.219 441.397 843.076 441.573C842.938 441.744 842.828 441.951 842.747 442.194C842.671 442.432 842.619 442.697 842.59 442.987V444.202C842.643 444.549 842.733 444.866 842.862 445.152C842.99 445.433 843.176 445.657 843.419 445.824C843.667 445.99 843.986 446.074 844.376 446.074ZM851.113 447.402H849.284V439.673H851.02L851.113 441.23V447.402ZM853.435 441.366C853.325 441.347 853.206 441.332 853.078 441.323C852.954 441.313 852.832 441.308 852.713 441.308C852.328 441.308 852.006 441.378 851.749 441.516C851.492 441.649 851.296 441.844 851.163 442.101C851.034 442.354 850.958 442.656 850.934 443.009L850.527 442.98C850.527 442.328 850.613 441.742 850.784 441.223C850.956 440.699 851.211 440.287 851.549 439.987C851.892 439.682 852.318 439.53 852.828 439.53C852.928 439.53 853.04 439.539 853.163 439.558C853.287 439.572 853.382 439.594 853.449 439.623L853.435 441.366ZM854.028 443.466C854.028 442.713 854.171 442.042 854.456 441.451C854.742 440.861 855.152 440.394 855.685 440.051C856.223 439.703 856.871 439.53 857.628 439.53C858.395 439.53 859.05 439.703 859.593 440.051C860.136 440.394 860.548 440.861 860.829 441.451C861.115 442.042 861.258 442.713 861.258 443.466V443.616C861.258 444.364 861.115 445.035 860.829 445.631C860.548 446.221 860.136 446.688 859.593 447.031C859.055 447.374 858.405 447.545 857.643 447.545C856.881 447.545 856.231 447.374 855.692 447.031C855.154 446.688 854.742 446.221 854.456 445.631C854.171 445.035 854.028 444.364 854.028 443.616V443.466ZM855.857 443.616C855.857 444.064 855.919 444.476 856.042 444.852C856.166 445.223 856.359 445.521 856.621 445.745C856.883 445.964 857.224 446.074 857.643 446.074C858.062 446.074 858.402 445.964 858.664 445.745C858.926 445.521 859.117 445.223 859.236 444.852C859.36 444.476 859.422 444.064 859.422 443.616V443.466C859.422 443.023 859.36 442.616 859.236 442.244C859.117 441.868 858.924 441.568 858.657 441.344C858.395 441.116 858.052 441.001 857.628 441.001C857.214 441.001 856.876 441.116 856.614 441.344C856.352 441.568 856.159 441.868 856.035 442.244C855.916 442.616 855.857 443.023 855.857 443.466V443.616ZM866.894 439.673H868.794L866.137 447.402H864.958L865.065 445.974L866.894 439.673ZM865.573 445.988L865.651 447.402H864.48L861.8 439.673H863.708L865.573 445.988ZM873.281 447.545C872.505 447.545 871.835 447.381 871.273 447.052C870.716 446.719 870.285 446.269 869.98 445.702C869.68 445.135 869.53 444.504 869.53 443.809V443.516C869.53 442.716 869.683 442.018 869.988 441.423C870.292 440.823 870.711 440.358 871.245 440.03C871.778 439.696 872.386 439.53 873.067 439.53C873.81 439.53 874.426 439.692 874.917 440.015C875.412 440.335 875.784 440.78 876.031 441.351C876.279 441.918 876.403 442.575 876.403 443.323V444.109H870.395V442.809H874.595V442.666C874.586 442.371 874.529 442.097 874.424 441.844C874.319 441.592 874.155 441.389 873.931 441.237C873.712 441.08 873.421 441.001 873.059 441.001C872.683 441.001 872.369 441.106 872.116 441.316C871.869 441.525 871.681 441.818 871.552 442.194C871.428 442.571 871.366 443.011 871.366 443.516V443.809C871.366 444.238 871.445 444.623 871.602 444.966C871.764 445.309 871.995 445.581 872.295 445.781C872.6 445.976 872.964 446.074 873.388 446.074C873.793 446.074 874.155 445.995 874.474 445.838C874.798 445.676 875.076 445.445 875.31 445.145L876.26 446.109C876.017 446.471 875.648 446.802 875.153 447.102C874.662 447.398 874.038 447.545 873.281 447.545ZM880.404 447.545C879.78 447.545 879.241 447.376 878.789 447.038C878.337 446.695 877.989 446.228 877.746 445.638C877.503 445.047 877.382 444.376 877.382 443.623V443.473C877.382 442.692 877.503 442.006 877.746 441.416C877.989 440.82 878.337 440.358 878.789 440.03C879.241 439.696 879.784 439.53 880.418 439.53C881.042 439.53 881.561 439.694 881.975 440.023C882.394 440.346 882.723 440.797 882.961 441.373C883.204 441.944 883.366 442.606 883.447 443.359V443.78C883.366 444.504 883.206 445.15 882.968 445.716C882.73 446.283 882.401 446.731 881.982 447.059C881.563 447.383 881.037 447.545 880.404 447.545ZM880.868 446.045C881.249 446.045 881.561 445.962 881.804 445.795C882.051 445.628 882.242 445.402 882.375 445.116C882.513 444.83 882.606 444.507 882.654 444.145V443.002C882.625 442.716 882.568 442.452 882.482 442.209C882.401 441.966 882.29 441.756 882.147 441.58C882.009 441.404 881.835 441.268 881.625 441.173C881.416 441.073 881.168 441.023 880.882 441.023C880.482 441.023 880.158 441.132 879.911 441.351C879.668 441.57 879.489 441.866 879.375 442.237C879.265 442.609 879.21 443.021 879.21 443.473V443.623C879.21 444.071 879.265 444.478 879.375 444.845C879.484 445.212 879.661 445.504 879.903 445.723C880.146 445.938 880.468 446.045 880.868 446.045ZM882.547 447.402L882.368 445.766V436.429H884.204V447.402H882.547Z" fill="white"/>
<path d="M813.434 455.89L796.464 462.96L803.854 465.47L806.364 472.86L813.434 455.89Z" fill="#7A1600" stroke="#7A1600" stroke-width="2" stroke-linecap="round" stroke-linejoin="round"/>
<path d="M803.434 465.888L797.434 471.888" stroke="#7A1600" stroke-width="4" stroke-linecap="round" stroke-linejoin="round"/>
<rect x="671.934" y="339.449" width="228" height="68" rx="12" fill="#F7DBFF"/>
<rect x="860.623" y="360.715" width="24" height="24" rx="12" fill="#FE6533"/>
<path d="M877.798 368.657L870.683 375.772L867.449 372.538" stroke="white" stroke-width="2" stroke-linecap="round" stroke-linejoin="round"/>
<path d="M697.267 364.797C697.267 365.359 697.167 365.857 696.967 366.29C696.767 366.724 696.489 367.064 696.131 367.312C695.779 367.555 695.372 367.676 694.91 367.676C694.514 367.676 694.162 367.598 693.852 367.441C693.548 367.283 693.221 367.043 692.874 366.719C692.659 366.519 692.459 366.364 692.274 366.255C692.088 366.145 691.89 366.09 691.681 366.09C691.371 366.09 691.126 366.214 690.945 366.462C690.769 366.705 690.681 367.024 690.681 367.419L689.266 367.405C689.266 366.833 689.364 366.336 689.559 365.912C689.759 365.488 690.035 365.159 690.388 364.926C690.745 364.692 691.152 364.576 691.609 364.576C692.005 364.576 692.362 364.657 692.681 364.819C693.005 364.981 693.333 365.219 693.667 365.533C693.881 365.738 694.079 365.895 694.26 366.005C694.445 366.109 694.638 366.162 694.838 366.162C695.148 366.162 695.398 366.033 695.588 365.776C695.784 365.514 695.881 365.185 695.881 364.79L697.267 364.797ZM705.733 370.57C705.076 370.57 704.485 370.455 703.961 370.227C703.442 369.998 703.03 369.662 702.725 369.219C702.425 368.776 702.275 368.231 702.275 367.583C702.275 367.007 702.423 366.505 702.718 366.076C703.018 365.643 703.428 365.307 703.947 365.069C704.466 364.826 705.057 364.704 705.719 364.704C706.381 364.704 706.971 364.826 707.49 365.069C708.01 365.307 708.419 365.643 708.719 366.076C709.019 366.505 709.169 367.007 709.169 367.583C709.169 368.231 709.019 368.776 708.719 369.219C708.419 369.662 708.01 369.998 707.49 370.227C706.976 370.455 706.39 370.57 705.733 370.57ZM705.733 369.098C706.062 369.098 706.345 369.034 706.583 368.905C706.826 368.772 707.012 368.586 707.14 368.348C707.274 368.105 707.34 367.814 707.34 367.476C707.34 367.143 707.271 366.852 707.133 366.605C707 366.357 706.812 366.167 706.569 366.033C706.326 365.895 706.043 365.826 705.719 365.826C705.39 365.826 705.104 365.895 704.861 366.033C704.623 366.167 704.438 366.357 704.304 366.605C704.176 366.852 704.111 367.143 704.111 367.476C704.111 367.814 704.176 368.105 704.304 368.348C704.438 368.586 704.626 368.772 704.869 368.905C705.111 369.034 705.4 369.098 705.733 369.098ZM705.733 365.462C705.104 365.462 704.547 365.347 704.061 365.119C703.575 364.89 703.194 364.573 702.918 364.169C702.642 363.759 702.504 363.292 702.504 362.768C702.504 362.149 702.642 361.625 702.918 361.197C703.194 360.768 703.575 360.442 704.061 360.218C704.547 359.994 705.102 359.882 705.726 359.882C706.35 359.882 706.902 359.994 707.383 360.218C707.869 360.442 708.25 360.768 708.526 361.197C708.803 361.625 708.941 362.149 708.941 362.768C708.941 363.292 708.803 363.759 708.526 364.169C708.25 364.573 707.869 364.89 707.383 365.119C706.902 365.347 706.352 365.462 705.733 365.462ZM705.733 364.347C706.019 364.347 706.264 364.285 706.469 364.161C706.674 364.038 706.831 363.864 706.94 363.64C707.055 363.411 707.112 363.147 707.112 362.847C707.112 362.552 707.055 362.292 706.94 362.068C706.831 361.844 706.671 361.671 706.462 361.547C706.257 361.418 706.012 361.354 705.726 361.354C705.44 361.354 705.192 361.416 704.983 361.54C704.778 361.659 704.619 361.83 704.504 362.054C704.395 362.273 704.34 362.537 704.34 362.847C704.34 363.147 704.395 363.411 704.504 363.64C704.619 363.864 704.778 364.038 704.983 364.161C705.192 364.285 705.442 364.347 705.733 364.347ZM713.198 369.648L712.277 369.119L717.356 360.99L718.278 361.518L713.198 369.648ZM717.835 370.577C717.359 370.577 716.954 370.479 716.62 370.284C716.287 370.089 716.032 369.829 715.856 369.505C715.685 369.181 715.599 368.824 715.599 368.434V367.876C715.599 367.486 715.685 367.129 715.856 366.805C716.032 366.481 716.285 366.221 716.613 366.026C716.942 365.831 717.344 365.733 717.821 365.733C718.302 365.733 718.707 365.831 719.035 366.026C719.364 366.221 719.614 366.481 719.785 366.805C719.957 367.129 720.042 367.486 720.042 367.876V368.434C720.042 368.824 719.957 369.181 719.785 369.505C719.619 369.829 719.371 370.089 719.042 370.284C718.714 370.479 718.311 370.577 717.835 370.577ZM717.835 369.491C718.073 369.491 718.261 369.441 718.399 369.341C718.537 369.241 718.635 369.112 718.692 368.955C718.754 368.793 718.785 368.619 718.785 368.434V367.876C718.785 367.6 718.704 367.355 718.542 367.141C718.385 366.926 718.145 366.819 717.821 366.819C717.497 366.819 717.254 366.926 717.092 367.141C716.935 367.355 716.856 367.6 716.856 367.876V368.434C716.856 368.615 716.894 368.786 716.971 368.948C717.047 369.11 717.159 369.241 717.306 369.341C717.454 369.441 717.63 369.491 717.835 369.491ZM712.827 364.712C712.351 364.712 711.946 364.614 711.613 364.419C711.284 364.223 711.034 363.964 710.862 363.64C710.691 363.316 710.605 362.961 710.605 362.575V362.025C710.605 361.63 710.691 361.271 710.862 360.947C711.034 360.623 711.284 360.363 711.613 360.168C711.941 359.973 712.341 359.875 712.813 359.875C713.294 359.875 713.699 359.973 714.027 360.168C714.361 360.363 714.613 360.623 714.784 360.947C714.956 361.271 715.042 361.63 715.042 362.025V362.575C715.042 362.961 714.956 363.316 714.784 363.64C714.613 363.964 714.363 364.223 714.034 364.419C713.706 364.614 713.303 364.712 712.827 364.712ZM712.827 363.626C713.046 363.626 713.225 363.576 713.363 363.476C713.506 363.376 713.61 363.247 713.677 363.09C713.749 362.928 713.784 362.756 713.784 362.575V362.025C713.784 361.84 713.749 361.666 713.677 361.504C713.606 361.342 713.499 361.211 713.356 361.111C713.213 361.011 713.032 360.961 712.813 360.961C712.603 360.961 712.427 361.011 712.284 361.111C712.141 361.211 712.034 361.342 711.963 361.504C711.891 361.666 711.855 361.84 711.855 362.025V362.575C711.855 362.756 711.891 362.928 711.963 363.09C712.034 363.247 712.141 363.376 712.284 363.476C712.432 363.576 712.613 363.626 712.827 363.626ZM727.008 370.427H725.172V362.697H726.901L727.008 364.276V370.427ZM726.115 366.298C726.115 365.574 726.229 364.931 726.458 364.369C726.691 363.807 727.036 363.364 727.494 363.04C727.951 362.716 728.518 362.554 729.194 362.554C729.894 362.554 730.468 362.766 730.916 363.19C731.363 363.614 731.587 364.309 731.587 365.276V370.427H729.758V365.455C729.758 365.097 729.704 364.816 729.594 364.612C729.489 364.407 729.337 364.261 729.137 364.176C728.937 364.09 728.701 364.047 728.43 364.047C728.125 364.047 727.863 364.104 727.644 364.219C727.429 364.333 727.253 364.492 727.115 364.697C726.977 364.902 726.875 365.14 726.808 365.412C726.746 365.683 726.715 365.976 726.715 366.29L726.115 366.298ZM730.644 366.069C730.644 365.426 730.758 364.838 730.987 364.304C731.216 363.771 731.554 363.347 732.002 363.033C732.449 362.714 733.002 362.554 733.659 362.554C734.178 362.554 734.626 362.652 735.002 362.847C735.378 363.037 735.666 363.345 735.866 363.769C736.071 364.192 736.174 364.752 736.174 365.447V370.427H734.338V365.44C734.338 365.069 734.283 364.783 734.173 364.583C734.069 364.383 733.916 364.245 733.716 364.169C733.521 364.088 733.29 364.047 733.023 364.047C732.761 364.047 732.533 364.095 732.337 364.19C732.147 364.285 731.985 364.419 731.852 364.59C731.723 364.757 731.625 364.954 731.559 365.183C731.492 365.407 731.459 365.65 731.459 365.912L730.644 366.069ZM742.196 365.212C742.196 364.821 742.089 364.512 741.875 364.283C741.665 364.05 741.341 363.933 740.903 363.933C740.641 363.933 740.412 363.978 740.217 364.069C740.027 364.154 739.879 364.273 739.774 364.426C739.669 364.578 739.617 364.754 739.617 364.954H737.788C737.788 364.531 737.919 364.138 738.181 363.776C738.448 363.409 738.822 363.114 739.303 362.89C739.784 362.666 740.351 362.554 741.003 362.554C741.589 362.554 742.108 362.654 742.56 362.854C743.018 363.049 743.377 363.345 743.639 363.74C743.901 364.135 744.032 364.631 744.032 365.226V368.612C744.032 368.988 744.058 369.315 744.111 369.591C744.163 369.862 744.237 370.101 744.332 370.305V370.427H742.468C742.377 370.236 742.308 369.991 742.26 369.691C742.218 369.391 742.196 369.096 742.196 368.805V365.212ZM742.46 366.833H741.274C740.665 366.833 740.208 366.95 739.903 367.183C739.598 367.412 739.446 367.717 739.446 368.098C739.446 368.393 739.546 368.638 739.746 368.834C739.95 369.029 740.236 369.127 740.603 369.127C740.946 369.127 741.244 369.057 741.496 368.919C741.748 368.781 741.946 368.615 742.089 368.419C742.232 368.219 742.306 368.031 742.31 367.855L742.875 368.669C742.813 368.86 742.715 369.065 742.582 369.284C742.448 369.503 742.272 369.71 742.053 369.905C741.839 370.101 741.582 370.26 741.282 370.384C740.982 370.508 740.634 370.57 740.239 370.57C739.739 370.57 739.288 370.47 738.888 370.27C738.493 370.07 738.181 369.796 737.953 369.448C737.729 369.096 737.617 368.7 737.617 368.262C737.617 367.443 737.922 366.814 738.531 366.376C739.146 365.933 740.022 365.712 741.16 365.712H742.46V366.833ZM747.611 370.427H745.782V362.697H747.518L747.611 364.254V370.427ZM749.933 364.39C749.824 364.371 749.704 364.357 749.576 364.347C749.452 364.338 749.331 364.333 749.212 364.333C748.826 364.333 748.504 364.402 748.247 364.54C747.99 364.673 747.795 364.869 747.661 365.126C747.533 365.378 747.456 365.681 747.433 366.033L747.025 366.005C747.025 365.352 747.111 364.766 747.283 364.247C747.454 363.723 747.709 363.311 748.047 363.011C748.39 362.706 748.816 362.554 749.326 362.554C749.426 362.554 749.538 362.564 749.662 362.583C749.785 362.597 749.881 362.618 749.947 362.647L749.933 364.39ZM754.012 373.47C753.712 373.47 753.381 373.427 753.019 373.342C752.662 373.261 752.314 373.127 751.976 372.941C751.643 372.756 751.362 372.515 751.133 372.22L751.976 371.113C752.243 371.422 752.541 371.653 752.869 371.806C753.203 371.958 753.553 372.034 753.919 372.034C754.491 372.034 754.939 371.877 755.262 371.563C755.586 371.253 755.748 370.805 755.748 370.22V364.461L755.927 362.697H757.584V370.191C757.584 370.891 757.434 371.486 757.134 371.977C756.834 372.468 756.415 372.839 755.877 373.091C755.339 373.344 754.717 373.47 754.012 373.47ZM753.784 370.57C753.15 370.57 752.603 370.401 752.141 370.062C751.679 369.719 751.321 369.253 751.069 368.662C750.817 368.072 750.69 367.4 750.69 366.648V366.498C750.69 365.716 750.814 365.031 751.062 364.44C751.314 363.845 751.674 363.383 752.141 363.054C752.607 362.721 753.16 362.554 753.798 362.554C754.308 362.554 754.739 362.647 755.091 362.833C755.448 363.018 755.744 363.283 755.977 363.626C756.21 363.964 756.394 364.369 756.527 364.84C756.66 365.307 756.76 365.821 756.827 366.383V366.805C756.741 367.529 756.582 368.174 756.348 368.741C756.115 369.308 755.789 369.755 755.37 370.084C754.955 370.408 754.427 370.57 753.784 370.57ZM754.248 369.069C754.643 369.069 754.965 368.986 755.212 368.819C755.46 368.653 755.653 368.426 755.791 368.141C755.929 367.855 756.022 367.531 756.07 367.169V366.026C756.041 365.74 755.986 365.476 755.905 365.233C755.824 364.99 755.71 364.781 755.563 364.604C755.42 364.428 755.239 364.292 755.02 364.197C754.805 364.097 754.553 364.047 754.262 364.047C753.862 364.047 753.534 364.157 753.276 364.376C753.019 364.595 752.829 364.89 752.705 365.262C752.581 365.633 752.519 366.045 752.519 366.498V366.648C752.519 367.095 752.579 367.502 752.698 367.869C752.822 368.236 753.01 368.529 753.262 368.748C753.519 368.962 753.848 369.069 754.248 369.069ZM760.356 359.718C760.68 359.718 760.935 359.811 761.121 359.996C761.306 360.177 761.399 360.406 761.399 360.682C761.399 360.959 761.306 361.19 761.121 361.375C760.935 361.556 760.68 361.647 760.356 361.647C760.032 361.647 759.778 361.556 759.592 361.375C759.411 361.19 759.32 360.959 759.32 360.682C759.32 360.406 759.411 360.177 759.592 359.996C759.778 359.811 760.032 359.718 760.356 359.718ZM761.278 370.427H759.442V362.697H761.278V370.427ZM764.943 370.427H763.114V362.697H764.835L764.943 364.347V370.427ZM764.064 366.298C764.069 365.545 764.197 364.89 764.45 364.333C764.707 363.771 765.066 363.335 765.528 363.026C765.99 362.711 766.529 362.554 767.143 362.554C767.638 362.554 768.069 362.649 768.436 362.84C768.803 363.026 769.086 363.33 769.286 363.754C769.491 364.178 769.593 364.747 769.593 365.462V370.427H767.757V365.447C767.757 365.095 767.707 364.816 767.607 364.612C767.507 364.407 767.357 364.261 767.157 364.176C766.962 364.09 766.722 364.047 766.436 364.047C766.145 364.047 765.888 364.104 765.664 364.219C765.445 364.333 765.257 364.492 765.1 364.697C764.947 364.902 764.831 365.14 764.75 365.412C764.674 365.683 764.635 365.976 764.635 366.29L764.064 366.298ZM774.208 370.57C773.499 370.57 772.899 370.443 772.408 370.191C771.922 369.934 771.553 369.608 771.301 369.212C771.053 368.817 770.929 368.41 770.929 367.991H772.687C772.706 368.286 772.789 368.526 772.937 368.712C773.089 368.893 773.28 369.024 773.508 369.105C773.742 369.186 773.985 369.227 774.237 369.227C774.532 369.227 774.78 369.188 774.98 369.112C775.18 369.031 775.33 368.924 775.43 368.791C775.535 368.653 775.587 368.493 775.587 368.312C775.587 368.15 775.544 368.005 775.459 367.876C775.378 367.748 775.218 367.629 774.98 367.519C774.747 367.41 774.401 367.307 773.944 367.212C773.401 367.098 772.923 366.945 772.508 366.755C772.094 366.564 771.768 366.319 771.529 366.019C771.296 365.714 771.179 365.345 771.179 364.912C771.179 364.488 771.301 364.097 771.544 363.74C771.787 363.383 772.134 363.097 772.587 362.883C773.039 362.664 773.575 362.554 774.194 362.554C774.847 362.554 775.406 362.664 775.873 362.883C776.345 363.097 776.706 363.39 776.959 363.761C777.211 364.128 777.338 364.547 777.338 365.019H775.509C775.509 364.714 775.399 364.452 775.18 364.233C774.961 364.009 774.63 363.897 774.187 363.897C773.92 363.897 773.694 363.94 773.508 364.026C773.323 364.111 773.184 364.226 773.094 364.369C773.003 364.507 772.958 364.659 772.958 364.826C772.958 364.988 773.003 365.131 773.094 365.254C773.189 365.374 773.349 365.481 773.573 365.576C773.796 365.666 774.108 365.755 774.508 365.84C775.09 365.959 775.594 366.114 776.023 366.305C776.456 366.49 776.79 366.738 777.023 367.048C777.261 367.352 777.38 367.745 777.38 368.226C777.38 368.679 777.249 369.084 776.987 369.441C776.73 369.793 776.364 370.07 775.887 370.27C775.411 370.47 774.851 370.57 774.208 370.57ZM786.789 365.212C786.789 364.821 786.682 364.512 786.468 364.283C786.258 364.05 785.934 363.933 785.496 363.933C785.234 363.933 785.005 363.978 784.81 364.069C784.62 364.154 784.472 364.273 784.367 364.426C784.262 364.578 784.21 364.754 784.21 364.954H782.381C782.381 364.531 782.512 364.138 782.774 363.776C783.041 363.409 783.415 363.114 783.896 362.89C784.377 362.666 784.944 362.554 785.596 362.554C786.182 362.554 786.701 362.654 787.153 362.854C787.611 363.049 787.97 363.345 788.232 363.74C788.494 364.135 788.625 364.631 788.625 365.226V368.612C788.625 368.988 788.651 369.315 788.704 369.591C788.756 369.862 788.83 370.101 788.925 370.305V370.427H787.061C786.97 370.236 786.901 369.991 786.853 369.691C786.811 369.391 786.789 369.096 786.789 368.805V365.212ZM787.053 366.833H785.867C785.258 366.833 784.801 366.95 784.496 367.183C784.191 367.412 784.039 367.717 784.039 368.098C784.039 368.393 784.139 368.638 784.339 368.834C784.543 369.029 784.829 369.127 785.196 369.127C785.539 369.127 785.837 369.057 786.089 368.919C786.341 368.781 786.539 368.615 786.682 368.419C786.825 368.219 786.899 368.031 786.903 367.855L787.468 368.669C787.406 368.86 787.308 369.065 787.175 369.284C787.041 369.503 786.865 369.71 786.646 369.905C786.432 370.101 786.175 370.26 785.875 370.384C785.575 370.508 785.227 370.57 784.832 370.57C784.332 370.57 783.881 370.47 783.481 370.27C783.086 370.07 782.774 369.796 782.546 369.448C782.322 369.096 782.21 368.7 782.21 368.262C782.21 367.443 782.515 366.814 783.124 366.376C783.739 365.933 784.615 365.712 785.753 365.712H787.053V366.833ZM793.576 370.57C792.785 370.57 792.128 370.396 791.604 370.048C791.08 369.696 790.69 369.227 790.433 368.641C790.175 368.05 790.047 367.398 790.047 366.683V366.448C790.047 365.728 790.175 365.076 790.433 364.49C790.694 363.9 791.085 363.43 791.604 363.083C792.128 362.73 792.783 362.554 793.569 362.554C794.193 362.554 794.74 362.678 795.212 362.926C795.688 363.168 796.06 363.511 796.326 363.954C796.593 364.392 796.731 364.909 796.741 365.505H795.019C795.009 365.233 794.945 364.985 794.826 364.762C794.707 364.538 794.538 364.359 794.319 364.226C794.105 364.092 793.845 364.026 793.54 364.026C793.097 364.026 792.754 364.142 792.511 364.376C792.273 364.609 792.107 364.912 792.011 365.283C791.921 365.65 791.876 366.038 791.876 366.448V366.683C791.876 367.093 791.921 367.483 792.011 367.855C792.102 368.222 792.269 368.522 792.511 368.755C792.754 368.984 793.102 369.098 793.554 369.098C793.826 369.098 794.069 369.046 794.283 368.941C794.502 368.831 794.676 368.681 794.805 368.491C794.938 368.3 795.009 368.079 795.019 367.826H796.741C796.731 368.341 796.584 368.805 796.298 369.219C796.012 369.634 795.631 369.962 795.155 370.205C794.683 370.448 794.157 370.57 793.576 370.57ZM799.834 370.427H797.998V359.454H799.834V370.427ZM798.948 366.298C798.953 365.574 799.079 364.931 799.327 364.369C799.579 363.807 799.929 363.364 800.377 363.04C800.829 362.716 801.356 362.554 801.956 362.554C802.465 362.554 802.908 362.652 803.285 362.847C803.666 363.037 803.961 363.347 804.17 363.776C804.38 364.204 804.485 364.776 804.485 365.49V370.427H802.649V365.476C802.649 365.119 802.596 364.838 802.492 364.633C802.392 364.423 802.242 364.273 802.042 364.183C801.846 364.092 801.606 364.047 801.32 364.047C801.015 364.047 800.751 364.104 800.527 364.219C800.303 364.333 800.115 364.492 799.963 364.697C799.815 364.902 799.703 365.14 799.627 365.412C799.555 365.683 799.52 365.976 799.52 366.29L798.948 366.298ZM807.221 359.718C807.545 359.718 807.8 359.811 807.985 359.996C808.171 360.177 808.264 360.406 808.264 360.682C808.264 360.959 808.171 361.19 807.985 361.375C807.8 361.556 807.545 361.647 807.221 361.647C806.897 361.647 806.642 361.556 806.457 361.375C806.276 361.19 806.185 360.959 806.185 360.682C806.185 360.406 806.276 360.177 806.457 359.996C806.642 359.811 806.897 359.718 807.221 359.718ZM808.143 370.427H806.307V362.697H808.143V370.427ZM813.458 370.57C812.681 370.57 812.012 370.405 811.45 370.077C810.893 369.743 810.462 369.293 810.157 368.726C809.857 368.16 809.707 367.529 809.707 366.833V366.54C809.707 365.74 809.859 365.043 810.164 364.447C810.469 363.847 810.888 363.383 811.422 363.054C811.955 362.721 812.562 362.554 813.243 362.554C813.986 362.554 814.603 362.716 815.094 363.04C815.589 363.359 815.96 363.804 816.208 364.376C816.456 364.943 816.58 365.6 816.58 366.348V367.133H810.572V365.833H814.772V365.69C814.763 365.395 814.706 365.121 814.601 364.869C814.496 364.616 814.332 364.414 814.108 364.261C813.889 364.104 813.598 364.026 813.236 364.026C812.86 364.026 812.546 364.13 812.293 364.34C812.046 364.55 811.857 364.843 811.729 365.219C811.605 365.595 811.543 366.036 811.543 366.54V366.833C811.543 367.262 811.622 367.648 811.779 367.991C811.941 368.334 812.172 368.605 812.472 368.805C812.777 369 813.141 369.098 813.565 369.098C813.97 369.098 814.332 369.019 814.651 368.862C814.975 368.7 815.253 368.469 815.487 368.169L816.437 369.134C816.194 369.496 815.825 369.827 815.329 370.127C814.839 370.422 814.215 370.57 813.458 370.57ZM822.131 362.697H824.031L821.373 370.427H820.195L820.302 368.998L822.131 362.697ZM820.809 369.012L820.887 370.427H819.716L817.037 362.697H818.944L820.809 369.012ZM828.517 370.57C827.741 370.57 827.072 370.405 826.51 370.077C825.953 369.743 825.522 369.293 825.217 368.726C824.917 368.16 824.767 367.529 824.767 366.833V366.54C824.767 365.74 824.919 365.043 825.224 364.447C825.529 363.847 825.948 363.383 826.481 363.054C827.015 362.721 827.622 362.554 828.303 362.554C829.046 362.554 829.663 362.716 830.153 363.04C830.649 363.359 831.02 363.804 831.268 364.376C831.515 364.943 831.639 365.6 831.639 366.348V367.133H825.631V365.833H829.832V365.69C829.822 365.395 829.765 365.121 829.66 364.869C829.556 364.616 829.391 364.414 829.167 364.261C828.948 364.104 828.658 364.026 828.296 364.026C827.92 364.026 827.605 364.13 827.353 364.34C827.105 364.55 826.917 364.843 826.788 365.219C826.665 365.595 826.603 366.036 826.603 366.54V366.833C826.603 367.262 826.681 367.648 826.838 367.991C827 368.334 827.231 368.605 827.531 368.805C827.836 369 828.201 369.098 828.624 369.098C829.029 369.098 829.391 369.019 829.71 368.862C830.034 368.7 830.313 368.469 830.546 368.169L831.496 369.134C831.253 369.496 830.884 369.827 830.389 370.127C829.898 370.422 829.275 370.57 828.517 370.57ZM835.64 370.57C835.016 370.57 834.478 370.401 834.025 370.062C833.573 369.719 833.225 369.253 832.982 368.662C832.739 368.072 832.618 367.4 832.618 366.648V366.498C832.618 365.716 832.739 365.031 832.982 364.44C833.225 363.845 833.573 363.383 834.025 363.054C834.478 362.721 835.021 362.554 835.654 362.554C836.278 362.554 836.797 362.718 837.212 363.047C837.631 363.371 837.959 363.821 838.197 364.397C838.44 364.969 838.602 365.631 838.683 366.383V366.805C838.602 367.529 838.443 368.174 838.205 368.741C837.966 369.308 837.638 369.755 837.219 370.084C836.8 370.408 836.273 370.57 835.64 370.57ZM836.104 369.069C836.485 369.069 836.797 368.986 837.04 368.819C837.288 368.653 837.478 368.426 837.612 368.141C837.75 367.855 837.843 367.531 837.89 367.169V366.026C837.862 365.74 837.805 365.476 837.719 365.233C837.638 364.99 837.526 364.781 837.383 364.604C837.245 364.428 837.071 364.292 836.862 364.197C836.652 364.097 836.404 364.047 836.119 364.047C835.718 364.047 835.395 364.157 835.147 364.376C834.904 364.595 834.725 364.89 834.611 365.262C834.502 365.633 834.447 366.045 834.447 366.498V366.648C834.447 367.095 834.502 367.502 834.611 367.869C834.721 368.236 834.897 368.529 835.14 368.748C835.383 368.962 835.704 369.069 836.104 369.069ZM837.783 370.427L837.605 368.791V359.454H839.441V370.427H837.783Z" fill="#7A1600"/>
<rect x="688.623" y="381.172" width="151.752" height="6.11804" rx="3.05902" fill="white"/>
<rect x="688.623" y="381.172" width="147.893" height="6.11804" rx="3.05902" fill="#FE6533"/>
<rect x="225.58" y="405.672" width="70.0264" height="70.0264" rx="12" fill="#F7DBFF"/>
<path d="M242.629 428.627C242.629 427.522 243.524 426.627 244.629 426.627H249.76C250.865 426.627 251.76 427.522 251.76 428.627V454.743H242.629V428.627Z" fill="#FE6533"/>
<path d="M255.027 438.809C255.027 437.704 255.923 436.809 257.027 436.809H262.158C263.263 436.809 264.158 437.704 264.158 438.809V454.743H255.027V438.809Z" fill="#7A1600"/>
<path d="M267.426 444.176C267.426 443.071 268.321 442.176 269.426 442.176H274.557C275.661 442.176 276.557 443.071 276.557 444.176V454.743H267.426V444.176Z" fill="#FE6533"/>
<rect x="568.854" y="137.604" width="50" height="50" rx="12" fill="#F7DBFF"/>
<path d="M593.853 154.322C587.826 154.322 582.532 157.07 579.518 161.213C579.04 161.87 578.906 162.728 579.295 163.441C581.01 166.585 586.477 170.882 593.853 170.882C601.337 170.882 606.855 166.809 608.484 163.414C608.822 162.709 608.677 161.889 608.22 161.256C605.211 157.089 599.901 154.322 593.853 154.322Z" fill="#FE6533"/>
<circle cx="593.919" cy="162.602" r="5.17905" fill="#7A1600"/>
<rect x="714.234" y="191.315" width="73.863" height="73.863" rx="12" fill="#F7DBFF"/>
<g clip-path="url(#clip1_1173_9169)">
<rect x="727.525" y="210.626" width="41.3223" height="29.5159" rx="2.95159" fill="#7A1600"/>
<rect x="733.428" y="216.408" width="41.3223" height="29.5159" rx="2.95159" fill="#FE6533"/>
<path d="M754.096 222.503V225.42" stroke="#7A1600" stroke-width="2.95159" stroke-linecap="round" stroke-linejoin="round"/>
<path d="M754.096 236.991V239.829" stroke="#7A1600" stroke-width="2.95159" stroke-linecap="round" stroke-linejoin="round"/>
<path d="M758.535 225.722H751.873C751.048 225.722 750.257 226.019 749.674 226.547C749.091 227.075 748.764 227.792 748.764 228.539C748.764 229.286 749.091 230.003 749.674 230.531C750.257 231.06 751.048 231.357 751.873 231.357H756.314C757.139 231.357 757.93 231.653 758.513 232.182C759.096 232.71 759.423 233.427 759.423 234.174C759.423 234.921 759.096 235.638 758.513 236.166C757.93 236.695 757.139 236.991 756.314 236.991H748.764" stroke="#7A1600" stroke-width="2.95159" stroke-linecap="round" stroke-linejoin="round"/>
</g>
</g>
<defs>
<clipPath id="clip0_1173_9169">
<rect width="906" height="477" fill="white" transform="translate(32 105)"/>
</clipPath>
<clipPath id="clip1_1173_9169">
<rect width="47.2255" height="47.2255" fill="white" transform="translate(727.529 204.662)"/>
</clipPath>
</defs>
</svg>
