<svg width="970" height="600" viewBox="0 0 970 600" fill="none" xmlns="http://www.w3.org/2000/svg">
<rect width="970" height="600" rx="20" fill="#FAE8FF"/>
<g clip-path="url(#clip0_1173_9376)">
<path d="M454.168 448.903L341.791 383.35L402.662 274.72L505.673 263.482L625.541 329.972L576.845 429.237L454.168 448.903Z" stroke="#F7DBFF" stroke-width="4" stroke-linecap="round"/>
<path d="M434.818 509.719L248.725 401.165L349.525 221.276L520.109 202.667L718.608 312.771L637.968 477.153L434.818 509.719Z" stroke="#F7DBFF" stroke-width="4" stroke-linecap="round"/>
<path d="M412.06 581.245L139.268 422.117L287.03 158.42L537.088 131.141L828.064 292.542L709.855 533.507L412.06 581.245Z" stroke="#F7DBFF" stroke-width="4" stroke-linecap="round"/>
<path d="M384.886 666.65L8.57227 447.135L212.409 83.3675L557.361 45.7363L958.76 268.387L795.691 600.796L384.886 666.65Z" stroke="#F7DBFF" stroke-width="4" stroke-linecap="round"/>
<path d="M350.05 776.14L-158.98 479.208L116.744 -12.8513L583.351 -63.7539L1126.31 237.42L905.735 687.06L350.05 776.14Z" stroke="#F7DBFF" stroke-width="4" stroke-linecap="round"/>
<path d="M385.607 359.038L411.061 301.659L521.251 293.436L584.483 330.139L556.448 387.943L457.076 402.181L385.607 359.038Z" fill="#FE6533"/>
<path d="M385.518 383.075V358.878L457.092 402.189V424.556L385.518 383.075Z" fill="#C7CDEE"/>
<path d="M385.518 383.075V358.878L457.092 402.189V424.556L385.518 383.075Z" fill="url(#paint0_linear_1173_9376)"/>
<path d="M385.518 383.075V358.878L457.092 402.189V424.556L385.518 383.075Z" fill="#7A1600"/>
<path d="M457.092 424.55V402.173L556.729 387.274V408.651L457.092 424.55Z" fill="#6870FB"/>
<path d="M457.092 424.55V402.173L556.729 387.274V408.651L457.092 424.55Z" fill="url(#paint1_linear_1173_9376)"/>
<path d="M457.092 424.55V402.173L556.729 387.274V408.651L457.092 424.55Z" fill="#7A1600"/>
<path d="M584.446 352.684V330.221L556.729 387.285V408.675L584.446 352.684Z" fill="#FE6533"/>
<path d="M584.446 352.684V330.221L556.729 387.285V408.675L584.446 352.684Z" fill="#7A1600"/>
<path d="M461.166 376.928V286.464L551.309 231.426V317.847C551.309 320.646 549.846 323.241 547.452 324.691L461.166 376.928Z" fill="#F7DBFF"/>
<path d="M469.607 371.841C452.939 383.646 446.258 379.743 442.373 376.859L453.607 361.803L469.607 371.841Z" fill="#EBDFE0"/>
<path d="M422.383 354.917V269.372L461.165 285.089V368.823C461.165 377.486 451.616 382.75 444.291 378.123L430.305 369.29C425.373 366.175 422.383 360.75 422.383 354.917Z" fill="#F7DBFF"/>
<path d="M507.827 215.163L425.67 262.99C421.798 265.245 421.673 270.794 425.44 273.22L440.875 283.161C449.15 288.491 459.726 288.691 468.197 283.677L548.778 235.983C552.196 233.96 552.004 228.95 548.44 227.195L522.947 214.638C518.137 212.269 512.461 212.466 507.827 215.163Z" fill="#FEF8FF"/>
<path d="M440.234 226.433V272.497C440.234 272.497 442.607 279.088 450.699 278.794C458.791 278.499 460.556 271.585 460.556 271.585C460.556 260.109 458.549 234.398 460.556 224.357C462.881 212.73 465.979 211.127 468.65 206.213C471.321 201.299 491.186 181.509 505.221 178.458C512.254 176.929 514.013 183.045 514.013 186.295V228.536C514.013 228.536 516.429 235.511 523.952 235.608C531.474 235.704 533.7 228.536 533.7 228.536V189.926C533.7 182.018 533.126 172.074 523.952 164.888C512.484 155.904 492.032 157.816 467.567 178.458C447.995 194.972 441.19 217.322 440.234 226.433Z" fill="#7A1600"/>
<path d="M513.025 275.91C505.64 275.91 495.65 283.044 493.165 294.257C491.772 300.542 490.846 309.71 499.587 311.362L495.023 338.058C494.733 339.755 496.581 341.002 498.046 340.096L514.417 329.975C516.497 328.689 517.588 326.27 517.176 323.86L513.739 303.771C516.922 298.95 519.273 293.029 519.804 289.469C520.813 282.689 520.409 275.91 513.025 275.91Z" fill="#7A1600"/>
<rect x="85.9297" y="193.433" width="205.277" height="68" rx="8" fill="#F7DBFF"/>
<path d="M108.438 236.771V247.445" stroke="#FE6533" stroke-width="2" stroke-linecap="round"/>
<path d="M113.059 239.439L103.814 244.777" stroke="#FE6533" stroke-width="2" stroke-linecap="round"/>
<path d="M113.059 244.776L103.814 239.439" stroke="#FE6533" stroke-width="2" stroke-linecap="round"/>
<path d="M131.682 236.771V247.445" stroke="#FE6533" stroke-width="2" stroke-linecap="round"/>
<path d="M136.303 239.439L127.059 244.777" stroke="#FE6533" stroke-width="2" stroke-linecap="round"/>
<path d="M136.303 244.776L127.059 239.439" stroke="#FE6533" stroke-width="2" stroke-linecap="round"/>
<path d="M154.926 236.771V247.445" stroke="#FE6533" stroke-width="2" stroke-linecap="round"/>
<path d="M159.547 239.439L150.303 244.777" stroke="#FE6533" stroke-width="2" stroke-linecap="round"/>
<path d="M159.547 244.776L150.303 239.439" stroke="#FE6533" stroke-width="2" stroke-linecap="round"/>
<path d="M178.17 236.771V247.445" stroke="#FE6533" stroke-width="2" stroke-linecap="round"/>
<path d="M182.791 239.439L173.547 244.777" stroke="#FE6533" stroke-width="2" stroke-linecap="round"/>
<path d="M182.791 244.776L173.547 239.439" stroke="#FE6533" stroke-width="2" stroke-linecap="round"/>
<path d="M201.414 236.771V247.445" stroke="#FE6533" stroke-width="2" stroke-linecap="round"/>
<path d="M206.035 239.439L196.791 244.777" stroke="#FE6533" stroke-width="2" stroke-linecap="round"/>
<path d="M206.035 244.776L196.791 239.439" stroke="#FE6533" stroke-width="2" stroke-linecap="round"/>
<path d="M224.658 236.771V247.445" stroke="#FE6533" stroke-width="2" stroke-linecap="round"/>
<path d="M229.279 239.439L220.035 244.777" stroke="#FE6533" stroke-width="2" stroke-linecap="round"/>
<path d="M229.279 244.776L220.035 239.439" stroke="#FE6533" stroke-width="2" stroke-linecap="round"/>
<path d="M247.902 236.771V247.445" stroke="#FE6533" stroke-width="2" stroke-linecap="round"/>
<path d="M252.523 239.439L243.279 244.777" stroke="#FE6533" stroke-width="2" stroke-linecap="round"/>
<path d="M252.523 244.776L243.279 239.439" stroke="#FE6533" stroke-width="2" stroke-linecap="round"/>
<path d="M271.146 236.771V247.445" stroke="#FE6533" stroke-width="2" stroke-linecap="round"/>
<path d="M275.768 239.439L266.523 244.777" stroke="#FE6533" stroke-width="2" stroke-linecap="round"/>
<path d="M275.768 244.776L266.523 239.439" stroke="#FE6533" stroke-width="2" stroke-linecap="round"/>
<path d="M103.238 218.632V217.096H105.917C106.37 217.096 106.734 217.025 107.01 216.882C107.291 216.734 107.496 216.532 107.625 216.274C107.758 216.017 107.825 215.724 107.825 215.396C107.825 215.077 107.758 214.779 107.625 214.503C107.496 214.222 107.291 213.996 107.01 213.824C106.734 213.653 106.37 213.567 105.917 213.567H103.824V222.433H101.924V212.031H105.917C106.727 212.031 107.415 212.176 107.982 212.467C108.554 212.752 108.989 213.148 109.289 213.653C109.594 214.153 109.747 214.729 109.747 215.381C109.747 216.053 109.594 216.632 109.289 217.117C108.989 217.603 108.554 217.977 107.982 218.239C107.415 218.501 106.727 218.632 105.917 218.632H103.238ZM115.369 217.217C115.369 216.827 115.262 216.517 115.048 216.289C114.838 216.055 114.514 215.939 114.076 215.939C113.814 215.939 113.585 215.984 113.39 216.074C113.2 216.16 113.052 216.279 112.947 216.432C112.842 216.584 112.79 216.76 112.79 216.96H110.961C110.961 216.536 111.092 216.143 111.354 215.782C111.621 215.415 111.995 215.12 112.476 214.896C112.957 214.672 113.523 214.56 114.176 214.56C114.762 214.56 115.281 214.66 115.733 214.86C116.191 215.055 116.55 215.351 116.812 215.746C117.074 216.141 117.205 216.636 117.205 217.232V220.618C117.205 220.994 117.231 221.321 117.284 221.597C117.336 221.868 117.41 222.106 117.505 222.311V222.433H115.64C115.55 222.242 115.481 221.997 115.433 221.697C115.39 221.397 115.369 221.101 115.369 220.811V217.217ZM115.633 218.839H114.447C113.838 218.839 113.381 218.956 113.076 219.189C112.771 219.418 112.619 219.723 112.619 220.104C112.619 220.399 112.719 220.644 112.919 220.84C113.123 221.035 113.409 221.132 113.776 221.132C114.119 221.132 114.416 221.063 114.669 220.925C114.921 220.787 115.119 220.62 115.262 220.425C115.405 220.225 115.479 220.037 115.483 219.861L116.048 220.675C115.986 220.866 115.888 221.07 115.755 221.29C115.621 221.509 115.445 221.716 115.226 221.911C115.012 222.106 114.755 222.266 114.455 222.39C114.155 222.514 113.807 222.575 113.412 222.575C112.911 222.575 112.461 222.475 112.061 222.275C111.666 222.075 111.354 221.802 111.125 221.454C110.902 221.101 110.79 220.706 110.79 220.268C110.79 219.449 111.094 218.82 111.704 218.382C112.318 217.939 113.195 217.718 114.333 217.718H115.633V218.839ZM121.863 222.575C121.153 222.575 120.553 222.449 120.063 222.197C119.577 221.94 119.208 221.613 118.955 221.218C118.708 220.823 118.584 220.416 118.584 219.997H120.341C120.36 220.292 120.444 220.532 120.591 220.718C120.744 220.899 120.934 221.03 121.163 221.111C121.396 221.192 121.639 221.232 121.891 221.232C122.187 221.232 122.434 221.194 122.634 221.118C122.834 221.037 122.985 220.93 123.085 220.797C123.189 220.659 123.242 220.499 123.242 220.318C123.242 220.156 123.199 220.011 123.113 219.882C123.032 219.754 122.873 219.635 122.634 219.525C122.401 219.415 122.056 219.313 121.599 219.218C121.056 219.104 120.577 218.951 120.163 218.761C119.748 218.57 119.422 218.325 119.184 218.025C118.951 217.72 118.834 217.351 118.834 216.917C118.834 216.494 118.955 216.103 119.198 215.746C119.441 215.389 119.789 215.103 120.241 214.889C120.694 214.669 121.229 214.56 121.849 214.56C122.501 214.56 123.061 214.669 123.527 214.889C123.999 215.103 124.361 215.396 124.613 215.767C124.866 216.134 124.992 216.553 124.992 217.025H123.163C123.163 216.72 123.054 216.458 122.834 216.239C122.615 216.015 122.284 215.903 121.841 215.903C121.575 215.903 121.349 215.946 121.163 216.032C120.977 216.117 120.839 216.232 120.748 216.374C120.658 216.513 120.613 216.665 120.613 216.832C120.613 216.994 120.658 217.137 120.748 217.26C120.844 217.379 121.003 217.487 121.227 217.582C121.451 217.672 121.763 217.76 122.163 217.846C122.744 217.965 123.249 218.12 123.677 218.311C124.111 218.496 124.444 218.744 124.678 219.053C124.916 219.358 125.035 219.751 125.035 220.232C125.035 220.685 124.904 221.09 124.642 221.447C124.385 221.799 124.018 222.075 123.542 222.275C123.065 222.475 122.506 222.575 121.863 222.575ZM129.407 222.575C128.697 222.575 128.097 222.449 127.607 222.197C127.121 221.94 126.752 221.613 126.499 221.218C126.252 220.823 126.128 220.416 126.128 219.997H127.885C127.904 220.292 127.988 220.532 128.135 220.718C128.288 220.899 128.478 221.03 128.707 221.111C128.94 221.192 129.183 221.232 129.436 221.232C129.731 221.232 129.979 221.194 130.179 221.118C130.379 221.037 130.529 220.93 130.629 220.797C130.733 220.659 130.786 220.499 130.786 220.318C130.786 220.156 130.743 220.011 130.657 219.882C130.576 219.754 130.417 219.635 130.179 219.525C129.945 219.415 129.6 219.313 129.143 219.218C128.6 219.104 128.121 218.951 127.707 218.761C127.292 218.57 126.966 218.325 126.728 218.025C126.495 217.72 126.378 217.351 126.378 216.917C126.378 216.494 126.499 216.103 126.742 215.746C126.985 215.389 127.333 215.103 127.785 214.889C128.238 214.669 128.774 214.56 129.393 214.56C130.045 214.56 130.605 214.669 131.072 214.889C131.543 215.103 131.905 215.396 132.157 215.767C132.41 216.134 132.536 216.553 132.536 217.025H130.707C130.707 216.72 130.598 216.458 130.379 216.239C130.16 216.015 129.828 215.903 129.386 215.903C129.119 215.903 128.893 215.946 128.707 216.032C128.521 216.117 128.383 216.232 128.293 216.374C128.202 216.513 128.157 216.665 128.157 216.832C128.157 216.994 128.202 217.137 128.293 217.26C128.388 217.379 128.547 217.487 128.771 217.582C128.995 217.672 129.307 217.76 129.707 217.846C130.288 217.965 130.793 218.12 131.222 218.311C131.655 218.496 131.988 218.744 132.222 219.053C132.46 219.358 132.579 219.751 132.579 220.232C132.579 220.685 132.448 221.09 132.186 221.447C131.929 221.799 131.562 222.075 131.086 222.275C130.61 222.475 130.05 222.575 129.407 222.575ZM137.901 214.703H139.066L138.751 216.667L136.987 222.433H135.965L136.151 220.618L137.901 214.703ZM136.537 220.632L136.63 222.433H135.472L133.415 214.703H135.194L136.537 220.632ZM141.966 214.703H143.745L141.688 222.433H140.53L140.666 220.561L141.966 214.703ZM140.995 220.561L141.195 222.433H140.166L138.387 216.667L138.08 214.703H139.259L140.995 220.561ZM144.545 218.496C144.545 217.744 144.688 217.072 144.974 216.482C145.26 215.891 145.669 215.424 146.203 215.081C146.741 214.734 147.389 214.56 148.146 214.56C148.913 214.56 149.567 214.734 150.11 215.081C150.653 215.424 151.065 215.891 151.346 216.482C151.632 217.072 151.775 217.744 151.775 218.496V218.646C151.775 219.394 151.632 220.066 151.346 220.661C151.065 221.251 150.653 221.718 150.11 222.061C149.572 222.404 148.922 222.575 148.16 222.575C147.398 222.575 146.748 222.404 146.21 222.061C145.672 221.718 145.26 221.251 144.974 220.661C144.688 220.066 144.545 219.394 144.545 218.646V218.496ZM146.374 218.646C146.374 219.094 146.436 219.506 146.56 219.882C146.684 220.254 146.877 220.551 147.138 220.775C147.4 220.994 147.741 221.104 148.16 221.104C148.579 221.104 148.92 220.994 149.182 220.775C149.444 220.551 149.634 220.254 149.753 219.882C149.877 219.506 149.939 219.094 149.939 218.646V218.496C149.939 218.053 149.877 217.646 149.753 217.275C149.634 216.898 149.441 216.598 149.175 216.374C148.913 216.146 148.57 216.032 148.146 216.032C147.731 216.032 147.393 216.146 147.131 216.374C146.869 216.598 146.676 216.898 146.553 217.275C146.434 217.646 146.374 218.053 146.374 218.496V218.646ZM155.004 222.433H153.175V214.703H154.911L155.004 216.26V222.433ZM157.326 216.396C157.216 216.377 157.097 216.363 156.969 216.353C156.845 216.344 156.723 216.339 156.604 216.339C156.219 216.339 155.897 216.408 155.64 216.546C155.383 216.679 155.187 216.875 155.054 217.132C154.925 217.384 154.849 217.687 154.825 218.039L154.418 218.01C154.418 217.358 154.504 216.772 154.675 216.253C154.847 215.729 155.102 215.317 155.44 215.017C155.783 214.712 156.209 214.56 156.719 214.56C156.819 214.56 156.931 214.569 157.054 214.588C157.178 214.603 157.273 214.624 157.34 214.653L157.326 216.396ZM161.091 222.575C160.467 222.575 159.929 222.406 159.476 222.068C159.024 221.725 158.676 221.259 158.433 220.668C158.19 220.077 158.069 219.406 158.069 218.653V218.503C158.069 217.722 158.19 217.036 158.433 216.446C158.676 215.851 159.024 215.389 159.476 215.06C159.929 214.727 160.472 214.56 161.105 214.56C161.729 214.56 162.248 214.724 162.662 215.053C163.082 215.377 163.41 215.827 163.648 216.403C163.891 216.975 164.053 217.637 164.134 218.389V218.811C164.053 219.535 163.894 220.18 163.655 220.747C163.417 221.313 163.089 221.761 162.67 222.09C162.25 222.414 161.724 222.575 161.091 222.575ZM161.555 221.075C161.936 221.075 162.248 220.992 162.491 220.825C162.739 220.659 162.929 220.432 163.062 220.147C163.201 219.861 163.293 219.537 163.341 219.175V218.032C163.313 217.746 163.255 217.482 163.17 217.239C163.089 216.996 162.977 216.786 162.834 216.61C162.696 216.434 162.522 216.298 162.312 216.203C162.103 216.103 161.855 216.053 161.569 216.053C161.169 216.053 160.845 216.163 160.598 216.382C160.355 216.601 160.176 216.896 160.062 217.267C159.952 217.639 159.898 218.051 159.898 218.503V218.653C159.898 219.101 159.952 219.508 160.062 219.875C160.172 220.242 160.348 220.535 160.591 220.754C160.834 220.968 161.155 221.075 161.555 221.075ZM163.234 222.433L163.055 220.797V211.459H164.891V222.433H163.234Z" fill="#7A1600"/>
<rect x="214.746" y="149.433" width="112.801" height="68" rx="8" fill="#FE6533"/>
<path d="M237.254 192.771V203.445" stroke="white" stroke-width="2" stroke-linecap="round"/>
<path d="M241.875 195.439L232.631 200.777" stroke="white" stroke-width="2" stroke-linecap="round"/>
<path d="M241.875 200.776L232.631 195.439" stroke="white" stroke-width="2" stroke-linecap="round"/>
<path d="M260.498 192.771V203.445" stroke="white" stroke-width="2" stroke-linecap="round"/>
<path d="M265.119 195.439L255.875 200.777" stroke="white" stroke-width="2" stroke-linecap="round"/>
<path d="M265.119 200.776L255.875 195.439" stroke="white" stroke-width="2" stroke-linecap="round"/>
<path d="M283.742 192.771V203.445" stroke="white" stroke-width="2" stroke-linecap="round"/>
<path d="M288.363 195.439L279.119 200.777" stroke="white" stroke-width="2" stroke-linecap="round"/>
<path d="M288.363 200.776L279.119 195.439" stroke="white" stroke-width="2" stroke-linecap="round"/>
<path d="M306.986 192.771V203.445" stroke="white" stroke-width="2" stroke-linecap="round"/>
<path d="M311.607 195.439L302.363 200.777" stroke="white" stroke-width="2" stroke-linecap="round"/>
<path d="M311.607 200.776L302.363 195.439" stroke="white" stroke-width="2" stroke-linecap="round"/>
<path d="M238.674 173.496C238.674 174.549 238.49 175.456 238.124 176.218C237.762 176.975 237.254 177.559 236.602 177.968C235.954 178.373 235.199 178.575 234.337 178.575C233.485 178.575 232.727 178.373 232.065 177.968C231.408 177.559 230.894 176.975 230.522 176.218C230.151 175.456 229.965 174.549 229.965 173.496V172.975C229.965 171.922 230.148 171.017 230.515 170.26C230.887 169.498 231.401 168.912 232.058 168.502C232.716 168.093 233.47 167.888 234.323 167.888C235.185 167.888 235.942 168.093 236.595 168.502C237.247 168.912 237.757 169.498 238.124 170.26C238.49 171.017 238.674 171.922 238.674 172.975V173.496ZM236.759 172.96C236.759 172.198 236.661 171.56 236.466 171.046C236.276 170.527 235.999 170.134 235.637 169.867C235.276 169.6 234.837 169.467 234.323 169.467C233.813 169.467 233.375 169.6 233.008 169.867C232.647 170.134 232.368 170.527 232.173 171.046C231.982 171.56 231.887 172.198 231.887 172.96V173.496C231.887 174.253 231.985 174.894 232.18 175.418C232.375 175.937 232.656 176.332 233.023 176.604C233.389 176.87 233.828 177.004 234.337 177.004C234.852 177.004 235.29 176.87 235.652 176.604C236.014 176.332 236.288 175.937 236.473 175.418C236.664 174.894 236.759 174.253 236.759 173.496V172.96ZM244.317 178.433H242.424V168.031H244.317V178.433ZM247.547 169.567H239.224V168.031H247.547V169.567ZM250.19 174.632V173.096H252.869C253.321 173.096 253.686 173.025 253.962 172.882C254.243 172.734 254.448 172.532 254.576 172.274C254.71 172.017 254.776 171.724 254.776 171.396C254.776 171.077 254.71 170.779 254.576 170.503C254.448 170.222 254.243 169.996 253.962 169.824C253.686 169.653 253.321 169.567 252.869 169.567H250.776V178.433H248.875V168.031H252.869C253.679 168.031 254.367 168.176 254.933 168.467C255.505 168.752 255.941 169.148 256.241 169.653C256.546 170.153 256.698 170.729 256.698 171.381C256.698 172.053 256.546 172.632 256.241 173.117C255.941 173.603 255.505 173.977 254.933 174.239C254.367 174.501 253.679 174.632 252.869 174.632H250.19Z" fill="white"/>
<path d="M820.748 391.302C819.533 385.144 816.218 379.599 811.369 375.614C806.52 371.629 800.437 369.452 794.161 369.453C783.706 369.453 774.627 375.386 770.105 384.067C764.788 384.642 759.871 387.161 756.299 391.141C752.727 395.12 750.751 400.279 750.752 405.627C750.752 417.601 760.483 427.331 772.456 427.331H819.482C829.466 427.331 837.569 419.228 837.569 409.244C837.569 399.694 830.154 391.953 820.748 391.302Z" fill="#FE6533"/>
<g clip-path="url(#clip1_1173_9376)">
<path d="M780.678 391.474V398.724H788.178" stroke="white" stroke-width="3" stroke-linecap="round" stroke-linejoin="round"/>
<path d="M808.178 410.808V403.558H800.678" stroke="white" stroke-width="3" stroke-linecap="round" stroke-linejoin="round"/>
<path d="M805.04 397.516C804.406 395.784 803.329 394.236 801.908 393.015C800.488 391.795 798.771 390.942 796.917 390.537C795.064 390.131 793.134 390.186 791.309 390.697C789.483 391.207 787.821 392.156 786.478 393.456L780.678 398.724M808.178 403.557L802.378 408.826C801.034 410.125 799.372 411.074 797.547 411.585C795.721 412.095 793.792 412.15 791.938 411.745C790.085 411.339 788.367 410.487 786.947 409.266C785.527 408.046 784.449 406.497 783.815 404.766" stroke="white" stroke-width="3" stroke-linecap="round" stroke-linejoin="round"/>
</g>
<path d="M772.044 450.326V448.947H774.316C774.892 448.947 775.333 448.826 775.638 448.583C775.947 448.335 776.102 447.985 776.102 447.533C776.102 447.028 775.954 446.664 775.659 446.44C775.369 446.216 774.916 446.104 774.302 446.104H772.63V454.97H770.73V444.568H774.302C775.459 444.568 776.364 444.797 777.016 445.254C777.674 445.706 778.002 446.418 778.002 447.39C778.002 447.819 777.9 448.211 777.695 448.569C777.495 448.926 777.19 449.219 776.781 449.447C776.371 449.671 775.862 449.8 775.252 449.833L774.68 450.326H772.044ZM771.451 454.97L772.294 453.441H774.602C775.183 453.441 775.619 453.3 775.909 453.019C776.2 452.734 776.345 452.367 776.345 451.919C776.345 451.591 776.288 451.307 776.173 451.069C776.059 450.831 775.881 450.648 775.638 450.519C775.395 450.39 775.076 450.326 774.68 450.326H772.644V448.947H775.28L775.709 449.476C776.295 449.485 776.774 449.607 777.145 449.84C777.521 450.069 777.798 450.369 777.974 450.74C778.155 451.107 778.245 451.502 778.245 451.926C778.245 452.927 777.924 453.684 777.281 454.198C776.638 454.713 775.745 454.97 774.602 454.97H771.451ZM784.146 449.755C784.146 449.364 784.039 449.054 783.825 448.826C783.615 448.592 783.291 448.476 782.853 448.476C782.591 448.476 782.363 448.521 782.167 448.612C781.977 448.697 781.829 448.816 781.724 448.969C781.62 449.121 781.567 449.297 781.567 449.497H779.738C779.738 449.074 779.869 448.681 780.131 448.319C780.398 447.952 780.772 447.657 781.253 447.433C781.734 447.209 782.301 447.097 782.953 447.097C783.539 447.097 784.058 447.197 784.511 447.397C784.968 447.592 785.327 447.888 785.589 448.283C785.851 448.678 785.982 449.174 785.982 449.769V453.155C785.982 453.531 786.008 453.858 786.061 454.134C786.113 454.405 786.187 454.643 786.282 454.848V454.97H784.418C784.327 454.779 784.258 454.534 784.21 454.234C784.168 453.934 784.146 453.639 784.146 453.348V449.755ZM784.411 451.376H783.225C782.615 451.376 782.158 451.493 781.853 451.726C781.548 451.955 781.396 452.26 781.396 452.641C781.396 452.936 781.496 453.181 781.696 453.377C781.901 453.572 782.186 453.67 782.553 453.67C782.896 453.67 783.194 453.6 783.446 453.462C783.698 453.324 783.896 453.158 784.039 452.962C784.182 452.762 784.256 452.574 784.26 452.398L784.825 453.212C784.763 453.403 784.665 453.608 784.532 453.827C784.399 454.046 784.222 454.253 784.003 454.448C783.789 454.643 783.532 454.803 783.232 454.927C782.932 455.051 782.584 455.113 782.189 455.113C781.689 455.113 781.239 455.013 780.839 454.813C780.443 454.613 780.131 454.339 779.903 453.991C779.679 453.639 779.567 453.243 779.567 452.805C779.567 451.986 779.872 451.357 780.481 450.919C781.096 450.476 781.972 450.255 783.11 450.255H784.411V451.376ZM790.933 455.113C790.142 455.113 789.485 454.939 788.961 454.591C788.437 454.239 788.047 453.77 787.79 453.184C787.532 452.593 787.404 451.941 787.404 451.226V450.991C787.404 450.271 787.532 449.619 787.79 449.033C788.052 448.442 788.442 447.973 788.961 447.626C789.485 447.273 790.14 447.097 790.926 447.097C791.55 447.097 792.097 447.221 792.569 447.469C793.045 447.711 793.417 448.054 793.683 448.497C793.95 448.935 794.088 449.452 794.098 450.047H792.376C792.367 449.776 792.302 449.528 792.183 449.305C792.064 449.081 791.895 448.902 791.676 448.769C791.462 448.635 791.202 448.569 790.897 448.569C790.454 448.569 790.111 448.685 789.869 448.919C789.63 449.152 789.464 449.455 789.368 449.826C789.278 450.193 789.233 450.581 789.233 450.991V451.226C789.233 451.636 789.278 452.026 789.368 452.398C789.459 452.765 789.626 453.065 789.869 453.298C790.111 453.527 790.459 453.641 790.912 453.641C791.183 453.641 791.426 453.589 791.64 453.484C791.859 453.374 792.033 453.224 792.162 453.034C792.295 452.843 792.367 452.622 792.376 452.369H794.098C794.088 452.884 793.941 453.348 793.655 453.762C793.369 454.177 792.988 454.505 792.512 454.748C792.04 454.991 791.514 455.113 790.933 455.113ZM797.227 454.97H795.391V443.997H797.227V454.97ZM798.684 451.005L796.827 452.891L796.312 451.398L797.72 449.633L799.827 447.24H802.028L798.684 451.005ZM797.77 451.376L798.949 450.14L802.313 454.97H800.192L797.77 451.376ZM807.7 447.24H809.536V454.97H807.807L807.7 453.141V447.24ZM808.543 451.512C808.543 452.203 808.441 452.819 808.236 453.362C808.031 453.905 807.712 454.334 807.279 454.648C806.845 454.958 806.288 455.113 805.607 455.113C804.845 455.113 804.228 454.889 803.757 454.441C803.285 453.993 803.049 453.258 803.049 452.234V447.24H804.878V452.248C804.878 452.596 804.931 452.869 805.035 453.069C805.145 453.265 805.29 453.405 805.471 453.491C805.657 453.572 805.859 453.612 806.078 453.612C806.55 453.612 806.921 453.522 807.193 453.341C807.464 453.155 807.657 452.905 807.771 452.591C807.891 452.272 807.95 451.917 807.95 451.526L808.543 451.512ZM815.073 455.113C814.587 455.113 814.165 455.022 813.808 454.841C813.451 454.655 813.149 454.396 812.901 454.062C812.658 453.729 812.463 453.339 812.315 452.891C812.167 452.438 812.06 451.945 811.994 451.412V450.912C812.079 450.159 812.241 449.497 812.479 448.926C812.718 448.354 813.046 447.907 813.465 447.583C813.889 447.259 814.42 447.097 815.058 447.097C815.711 447.097 816.261 447.261 816.709 447.59C817.156 447.919 817.494 448.378 817.723 448.969C817.956 449.555 818.073 450.24 818.073 451.026V451.176C818.073 451.929 817.956 452.603 817.723 453.198C817.494 453.789 817.156 454.255 816.709 454.598C816.266 454.941 815.72 455.113 815.073 455.113ZM811.251 457.942V447.24H812.937L813.079 448.726V457.942H811.251ZM814.573 453.641C814.973 453.641 815.294 453.529 815.537 453.305C815.785 453.081 815.963 452.784 816.073 452.412C816.187 452.036 816.244 451.624 816.244 451.176V451.026C816.244 450.569 816.187 450.157 816.073 449.79C815.959 449.424 815.778 449.133 815.53 448.919C815.282 448.7 814.958 448.59 814.558 448.59C814.263 448.59 814.011 448.638 813.801 448.733C813.591 448.828 813.415 448.964 813.272 449.14C813.134 449.312 813.025 449.519 812.944 449.762C812.868 450 812.815 450.264 812.787 450.555V451.769C812.839 452.117 812.929 452.434 813.058 452.719C813.187 453 813.372 453.224 813.615 453.391C813.863 453.558 814.182 453.641 814.573 453.641Z" fill="#7A1600"/>
<rect x="845.768" y="233.626" width="90.1794" height="90.1794" rx="14.6508" transform="rotate(-180 845.768 233.626)" fill="#F7DBFF"/>
<path fill-rule="evenodd" clip-rule="evenodd" d="M807.991 188.123C807.517 187.258 807.398 186.242 807.66 185.29C807.928 184.319 808.57 183.495 809.445 182.998C810.321 182.5 811.358 182.371 812.329 182.639C813.299 182.906 814.124 183.549 814.621 184.424L815.87 186.625C815.373 185.749 815.245 184.712 815.512 183.741C815.78 182.771 816.422 181.946 817.297 181.449C818.173 180.952 819.21 180.823 820.18 181.09C821.151 181.358 821.976 182 822.473 182.875L828.096 192.778C830.085 196.28 830.601 200.429 829.531 204.311C828.461 208.193 825.892 211.491 822.39 213.48L818.442 215.722C816.257 216.962 813.798 217.641 811.286 217.697C808.772 217.753 806.283 217.184 804.043 216.041L803.237 215.626C801.952 214.962 797.156 212.129 788.848 207.127C788.001 206.617 787.386 205.797 787.134 204.841C786.883 203.885 787.014 202.868 787.5 202.007C788.019 201.091 788.829 200.374 789.801 199.97C790.773 199.565 791.852 199.496 792.868 199.774L797.939 201.172L787.317 182.467C786.82 181.592 786.691 180.555 786.959 179.584C787.226 178.613 787.868 177.789 788.744 177.292C789.619 176.795 790.656 176.666 791.627 176.933C792.597 177.201 793.422 177.843 793.919 178.718L800.167 189.721C799.921 189.288 799.763 188.81 799.701 188.315C799.64 187.821 799.676 187.319 799.809 186.838C799.941 186.358 800.167 185.908 800.473 185.514C800.78 185.121 801.16 184.792 801.594 184.546C802.027 184.3 802.505 184.141 803 184.08C803.494 184.018 803.996 184.055 804.477 184.187C804.958 184.32 805.407 184.546 805.801 184.852C806.194 185.158 806.523 185.539 806.769 185.972L807.991 188.123ZM797.939 201.172L797.976 201.131L797.981 201.139L797.939 201.172Z" fill="#FE6533"/>
<path d="M779.153 178.503C779.153 178.503 777.749 171.697 783.522 168.239C789.294 164.781 794.619 169.219 794.619 169.219" stroke="#61241A" stroke-width="3.6627" stroke-linecap="round"/>
<path d="M770.399 176.952C770.399 176.952 767.912 164.896 778.136 158.772C788.361 152.647 797.792 160.508 797.792 160.508" stroke="#61241A" stroke-width="3.6627" stroke-linecap="round"/>
<path d="M749.134 261.433H747.126L751.034 251.031H752.298L752.17 252.581L749.134 261.433ZM751.641 252.581L751.498 251.031H752.77L756.692 261.433H754.685L751.641 252.581ZM754.57 259.104H748.926V257.561H754.57V259.104ZM760.85 261.575C760.059 261.575 759.402 261.402 758.878 261.054C758.354 260.702 757.964 260.232 757.706 259.647C757.449 259.056 757.321 258.404 757.321 257.689V257.453C757.321 256.734 757.449 256.082 757.706 255.496C757.968 254.905 758.359 254.436 758.878 254.089C759.402 253.736 760.057 253.56 760.843 253.56C761.467 253.56 762.014 253.684 762.486 253.931C762.962 254.174 763.334 254.517 763.6 254.96C763.867 255.398 764.005 255.915 764.015 256.51H762.293C762.283 256.239 762.219 255.991 762.1 255.767C761.981 255.544 761.812 255.365 761.593 255.232C761.378 255.098 761.119 255.032 760.814 255.032C760.371 255.032 760.028 255.148 759.785 255.382C759.547 255.615 759.381 255.917 759.285 256.289C759.195 256.656 759.15 257.044 759.15 257.453V257.689C759.15 258.099 759.195 258.489 759.285 258.861C759.376 259.227 759.542 259.528 759.785 259.761C760.028 259.99 760.376 260.104 760.828 260.104C761.1 260.104 761.343 260.051 761.557 259.947C761.776 259.837 761.95 259.687 762.079 259.497C762.212 259.306 762.283 259.085 762.293 258.832H764.015C764.005 259.347 763.857 259.811 763.572 260.225C763.286 260.64 762.905 260.968 762.429 261.211C761.957 261.454 761.431 261.575 760.85 261.575ZM768.508 261.575C767.718 261.575 767.06 261.402 766.536 261.054C766.013 260.702 765.622 260.232 765.365 259.647C765.108 259.056 764.979 258.404 764.979 257.689V257.453C764.979 256.734 765.108 256.082 765.365 255.496C765.627 254.905 766.017 254.436 766.536 254.089C767.06 253.736 767.715 253.56 768.501 253.56C769.125 253.56 769.673 253.684 770.144 253.931C770.62 254.174 770.992 254.517 771.259 254.96C771.525 255.398 771.663 255.915 771.673 256.51H769.951C769.942 256.239 769.877 255.991 769.758 255.767C769.639 255.544 769.47 255.365 769.251 255.232C769.037 255.098 768.777 255.032 768.472 255.032C768.03 255.032 767.687 255.148 767.444 255.382C767.206 255.615 767.039 255.917 766.944 256.289C766.853 256.656 766.808 257.044 766.808 257.453V257.689C766.808 258.099 766.853 258.489 766.944 258.861C767.034 259.227 767.201 259.528 767.444 259.761C767.687 259.99 768.034 260.104 768.487 260.104C768.758 260.104 769.001 260.051 769.215 259.947C769.435 259.837 769.608 259.687 769.737 259.497C769.87 259.306 769.942 259.085 769.951 258.832H771.673C771.663 259.347 771.516 259.811 771.23 260.225C770.944 260.64 770.563 260.968 770.087 261.211C769.616 261.454 769.089 261.575 768.508 261.575ZM776.417 261.575C775.64 261.575 774.971 261.411 774.409 261.083C773.852 260.749 773.421 260.299 773.116 259.732C772.816 259.166 772.666 258.535 772.666 257.839V257.546C772.666 256.746 772.818 256.048 773.123 255.453C773.428 254.853 773.847 254.389 774.381 254.06C774.914 253.727 775.521 253.56 776.202 253.56C776.945 253.56 777.562 253.722 778.053 254.046C778.548 254.365 778.919 254.81 779.167 255.382C779.415 255.948 779.539 256.606 779.539 257.353V258.139H773.53V256.839H777.731V256.696C777.722 256.401 777.664 256.127 777.56 255.875C777.455 255.622 777.291 255.42 777.067 255.267C776.848 255.11 776.557 255.032 776.195 255.032C775.819 255.032 775.505 255.136 775.252 255.346C775.004 255.555 774.816 255.848 774.688 256.225C774.564 256.601 774.502 257.041 774.502 257.546V257.839C774.502 258.268 774.581 258.654 774.738 258.997C774.9 259.339 775.131 259.611 775.431 259.811C775.736 260.006 776.1 260.104 776.524 260.104C776.929 260.104 777.291 260.025 777.61 259.868C777.934 259.706 778.212 259.475 778.446 259.175L779.396 260.14C779.153 260.502 778.784 260.833 778.288 261.133C777.798 261.428 777.174 261.575 776.417 261.575ZM783.746 261.575C783.037 261.575 782.437 261.449 781.946 261.197C781.46 260.94 781.091 260.613 780.839 260.218C780.591 259.823 780.467 259.416 780.467 258.997H782.225C782.244 259.292 782.327 259.532 782.475 259.718C782.627 259.899 782.818 260.03 783.046 260.111C783.28 260.192 783.523 260.232 783.775 260.232C784.07 260.232 784.318 260.194 784.518 260.118C784.718 260.037 784.868 259.93 784.968 259.797C785.073 259.659 785.125 259.499 785.125 259.318C785.125 259.156 785.082 259.011 784.997 258.882C784.916 258.754 784.756 258.635 784.518 258.525C784.285 258.415 783.939 258.313 783.482 258.218C782.939 258.104 782.46 257.951 782.046 257.761C781.632 257.57 781.306 257.325 781.067 257.025C780.834 256.72 780.717 256.351 780.717 255.917C780.717 255.494 780.839 255.103 781.082 254.746C781.325 254.389 781.672 254.103 782.125 253.889C782.577 253.669 783.113 253.56 783.732 253.56C784.385 253.56 784.944 253.669 785.411 253.889C785.882 254.103 786.244 254.396 786.497 254.767C786.749 255.134 786.875 255.553 786.875 256.025H785.047C785.047 255.72 784.937 255.458 784.718 255.239C784.499 255.015 784.168 254.903 783.725 254.903C783.458 254.903 783.232 254.946 783.046 255.032C782.861 255.117 782.722 255.232 782.632 255.374C782.541 255.513 782.496 255.665 782.496 255.832C782.496 255.994 782.541 256.137 782.632 256.26C782.727 256.379 782.887 256.487 783.111 256.582C783.334 256.672 783.646 256.76 784.046 256.846C784.627 256.965 785.132 257.12 785.561 257.311C785.994 257.496 786.328 257.744 786.561 258.053C786.799 258.358 786.918 258.751 786.918 259.232C786.918 259.685 786.787 260.09 786.525 260.447C786.268 260.799 785.902 261.075 785.425 261.275C784.949 261.475 784.389 261.575 783.746 261.575ZM791.29 261.575C790.581 261.575 789.981 261.449 789.49 261.197C789.004 260.94 788.635 260.613 788.383 260.218C788.135 259.823 788.011 259.416 788.011 258.997H789.769C789.788 259.292 789.871 259.532 790.019 259.718C790.171 259.899 790.362 260.03 790.59 260.111C790.824 260.192 791.067 260.232 791.319 260.232C791.614 260.232 791.862 260.194 792.062 260.118C792.262 260.037 792.412 259.93 792.512 259.797C792.617 259.659 792.669 259.499 792.669 259.318C792.669 259.156 792.626 259.011 792.541 258.882C792.46 258.754 792.3 258.635 792.062 258.525C791.829 258.415 791.483 258.313 791.026 258.218C790.483 258.104 790.005 257.951 789.59 257.761C789.176 257.57 788.85 257.325 788.611 257.025C788.378 256.72 788.261 256.351 788.261 255.917C788.261 255.494 788.383 255.103 788.626 254.746C788.869 254.389 789.216 254.103 789.669 253.889C790.121 253.669 790.657 253.56 791.276 253.56C791.929 253.56 792.488 253.669 792.955 253.889C793.427 254.103 793.789 254.396 794.041 254.767C794.293 255.134 794.42 255.553 794.42 256.025H792.591C792.591 255.72 792.481 255.458 792.262 255.239C792.043 255.015 791.712 254.903 791.269 254.903C791.002 254.903 790.776 254.946 790.59 255.032C790.405 255.117 790.267 255.232 790.176 255.374C790.086 255.513 790.04 255.665 790.04 255.832C790.04 255.994 790.086 256.137 790.176 256.26C790.271 256.379 790.431 256.487 790.655 256.582C790.879 256.672 791.19 256.76 791.591 256.846C792.172 256.965 792.676 257.12 793.105 257.311C793.538 257.496 793.872 257.744 794.105 258.053C794.343 258.358 794.462 258.751 794.462 259.232C794.462 259.685 794.331 260.09 794.07 260.447C793.812 260.799 793.446 261.075 792.969 261.275C792.493 261.475 791.933 261.575 791.29 261.575ZM807.729 258.018C807.676 258.704 807.486 259.316 807.157 259.854C806.829 260.392 806.369 260.813 805.779 261.118C805.188 261.423 804.469 261.575 803.621 261.575C802.759 261.575 802.011 261.375 801.378 260.975C800.744 260.571 800.256 259.997 799.913 259.254C799.57 258.511 799.399 257.637 799.399 256.632V255.839C799.399 254.829 799.573 253.955 799.92 253.217C800.273 252.474 800.771 251.9 801.414 251.495C802.057 251.09 802.811 250.888 803.678 250.888C804.521 250.888 805.231 251.043 805.807 251.352C806.388 251.657 806.838 252.083 807.157 252.631C807.476 253.174 807.669 253.796 807.736 254.496H805.836C805.769 253.843 805.576 253.338 805.257 252.981C804.943 252.619 804.416 252.438 803.678 252.438C803.159 252.438 802.723 252.567 802.371 252.824C802.023 253.081 801.761 253.462 801.585 253.967C801.409 254.467 801.321 255.086 801.321 255.825V256.632C801.321 257.337 801.399 257.944 801.556 258.454C801.714 258.958 801.961 259.347 802.299 259.618C802.638 259.89 803.078 260.025 803.621 260.025C804.116 260.025 804.516 259.949 804.821 259.797C805.126 259.644 805.357 259.42 805.514 259.125C805.676 258.825 805.781 258.456 805.829 258.018H807.729ZM808.8 257.496C808.8 256.744 808.943 256.072 809.229 255.482C809.515 254.891 809.924 254.424 810.458 254.081C810.996 253.734 811.644 253.56 812.401 253.56C813.168 253.56 813.823 253.734 814.366 254.081C814.909 254.424 815.321 254.891 815.602 255.482C815.887 256.072 816.03 256.744 816.03 257.496V257.646C816.03 258.394 815.887 259.066 815.602 259.661C815.321 260.251 814.909 260.718 814.366 261.061C813.827 261.404 813.177 261.575 812.415 261.575C811.653 261.575 811.003 261.404 810.465 261.061C809.927 260.718 809.515 260.251 809.229 259.661C808.943 259.066 808.8 258.394 808.8 257.646V257.496ZM810.629 257.646C810.629 258.094 810.691 258.506 810.815 258.882C810.939 259.254 811.132 259.551 811.394 259.775C811.656 259.994 811.996 260.104 812.415 260.104C812.834 260.104 813.175 259.994 813.437 259.775C813.699 259.551 813.889 259.254 814.008 258.882C814.132 258.506 814.194 258.094 814.194 257.646V257.496C814.194 257.053 814.132 256.646 814.008 256.275C813.889 255.898 813.697 255.598 813.43 255.374C813.168 255.146 812.825 255.032 812.401 255.032C811.987 255.032 811.649 255.146 811.387 255.374C811.125 255.598 810.932 255.898 810.808 256.275C810.689 256.646 810.629 257.053 810.629 257.496V257.646ZM819.231 261.433H817.402V253.703H819.124L819.231 255.353V261.433ZM818.352 257.303C818.357 256.551 818.485 255.896 818.738 255.339C818.995 254.777 819.355 254.341 819.817 254.031C820.279 253.717 820.817 253.56 821.431 253.56C821.926 253.56 822.357 253.655 822.724 253.846C823.091 254.031 823.374 254.336 823.574 254.76C823.779 255.184 823.882 255.753 823.882 256.468V261.433H822.046V256.453C822.046 256.101 821.995 255.822 821.895 255.617C821.795 255.413 821.645 255.267 821.445 255.182C821.25 255.096 821.01 255.053 820.724 255.053C820.433 255.053 820.176 255.11 819.952 255.224C819.733 255.339 819.545 255.498 819.388 255.703C819.236 255.908 819.119 256.146 819.038 256.418C818.962 256.689 818.924 256.982 818.924 257.296L818.352 257.303ZM829.204 255.053H824.796V253.703H829.204V255.053ZM827.846 251.81V259.218C827.846 259.451 827.88 259.63 827.946 259.754C828.013 259.873 828.106 259.954 828.225 259.997C828.349 260.04 828.494 260.061 828.661 260.061C828.78 260.061 828.894 260.054 829.004 260.04C829.113 260.025 829.199 260.011 829.261 259.997V261.404C829.113 261.452 828.944 261.492 828.754 261.525C828.563 261.559 828.342 261.575 828.089 261.575C827.685 261.575 827.325 261.504 827.011 261.361C826.696 261.214 826.451 260.978 826.275 260.654C826.103 260.33 826.018 259.899 826.018 259.361V251.81H827.846ZM832.319 261.433H830.49V253.703H832.226L832.319 255.26V261.433ZM834.64 255.396C834.531 255.377 834.412 255.363 834.283 255.353C834.159 255.344 834.038 255.339 833.919 255.339C833.533 255.339 833.212 255.408 832.954 255.546C832.697 255.679 832.502 255.875 832.369 256.132C832.24 256.384 832.164 256.687 832.14 257.039L831.733 257.01C831.733 256.358 831.819 255.772 831.99 255.253C832.161 254.729 832.416 254.317 832.754 254.017C833.097 253.712 833.524 253.56 834.033 253.56C834.133 253.56 834.245 253.569 834.369 253.588C834.493 253.603 834.588 253.624 834.655 253.653L834.64 255.396ZM835.233 257.496C835.233 256.744 835.376 256.072 835.662 255.482C835.948 254.891 836.357 254.424 836.891 254.081C837.429 253.734 838.077 253.56 838.834 253.56C839.601 253.56 840.256 253.734 840.799 254.081C841.342 254.424 841.753 254.891 842.034 255.482C842.32 256.072 842.463 256.744 842.463 257.496V257.646C842.463 258.394 842.32 259.066 842.034 259.661C841.753 260.251 841.342 260.718 840.799 261.061C840.26 261.404 839.61 261.575 838.848 261.575C838.086 261.575 837.436 261.404 836.898 261.061C836.36 260.718 835.948 260.251 835.662 259.661C835.376 259.066 835.233 258.394 835.233 257.646V257.496ZM837.062 257.646C837.062 258.094 837.124 258.506 837.248 258.882C837.372 259.254 837.565 259.551 837.827 259.775C838.089 259.994 838.429 260.104 838.848 260.104C839.267 260.104 839.608 259.994 839.87 259.775C840.132 259.551 840.322 259.254 840.441 258.882C840.565 258.506 840.627 258.094 840.627 257.646V257.496C840.627 257.053 840.565 256.646 840.441 256.275C840.322 255.898 840.129 255.598 839.863 255.374C839.601 255.146 839.258 255.032 838.834 255.032C838.42 255.032 838.081 255.146 837.82 255.374C837.558 255.598 837.365 255.898 837.241 256.275C837.122 256.646 837.062 257.053 837.062 257.496V257.646ZM845.807 261.433H843.971V250.459H845.807V261.433ZM850.557 261.575C849.848 261.575 849.248 261.449 848.757 261.197C848.271 260.94 847.902 260.613 847.65 260.218C847.402 259.823 847.278 259.416 847.278 258.997H849.036C849.055 259.292 849.138 259.532 849.286 259.718C849.438 259.899 849.629 260.03 849.857 260.111C850.091 260.192 850.333 260.232 850.586 260.232C850.881 260.232 851.129 260.194 851.329 260.118C851.529 260.037 851.679 259.93 851.779 259.797C851.884 259.659 851.936 259.499 851.936 259.318C851.936 259.156 851.893 259.011 851.808 258.882C851.727 258.754 851.567 258.635 851.329 258.525C851.095 258.415 850.75 258.313 850.293 258.218C849.75 258.104 849.271 257.951 848.857 257.761C848.443 257.57 848.116 257.325 847.878 257.025C847.645 256.72 847.528 256.351 847.528 255.917C847.528 255.494 847.65 255.103 847.893 254.746C848.135 254.389 848.483 254.103 848.936 253.889C849.388 253.669 849.924 253.56 850.543 253.56C851.196 253.56 851.755 253.669 852.222 253.889C852.693 254.103 853.055 254.396 853.308 254.767C853.56 255.134 853.686 255.553 853.686 256.025H851.858C851.858 255.72 851.748 255.458 851.529 255.239C851.31 255.015 850.979 254.903 850.536 254.903C850.269 254.903 850.043 254.946 849.857 255.032C849.671 255.117 849.533 255.232 849.443 255.374C849.352 255.513 849.307 255.665 849.307 255.832C849.307 255.994 849.352 256.137 849.443 256.26C849.538 256.379 849.698 256.487 849.921 256.582C850.145 256.672 850.457 256.76 850.857 256.846C851.438 256.965 851.943 257.12 852.372 257.311C852.805 257.496 853.139 257.744 853.372 258.053C853.61 258.358 853.729 258.751 853.729 259.232C853.729 259.685 853.598 260.09 853.336 260.447C853.079 260.799 852.712 261.075 852.236 261.275C851.76 261.475 851.2 261.575 850.557 261.575Z" fill="#7A1600"/>
<path d="M209.263 354.26L176.777 343.043C174.808 342.363 172.649 342.494 170.776 343.405C168.902 344.317 167.468 345.936 166.788 347.905L146.278 407.309C145.598 409.278 145.728 411.437 146.64 413.31C147.552 415.183 149.171 416.618 151.14 417.298L195.692 432.68C197.662 433.36 199.821 433.23 201.694 432.318C203.567 431.406 205.002 429.788 205.682 427.818L222.09 380.294L209.263 354.26Z" fill="#F7DBFF"/>
<path d="M207.851 358.325L205.802 364.192C203.96 369.469 206.799 375.231 212.106 376.984L218.016 378.937" fill="#FAE8FF"/>
<path d="M109.113 395.865L131.413 369.714C132.764 368.128 134.691 367.145 136.768 366.98C138.844 366.815 140.902 367.482 142.487 368.833L190.306 409.61C191.891 410.962 192.875 412.888 193.04 414.965C193.205 417.042 192.538 419.099 191.186 420.684L160.604 456.549C159.252 458.134 157.325 459.117 155.249 459.282C153.172 459.447 151.114 458.781 149.529 457.429L111.273 424.807L109.113 395.865Z" fill="#F7DBFF"/>
<path d="M112.392 398.651L117.135 402.667C121.4 406.278 121.878 412.684 118.196 416.887L114.094 421.57" fill="#FAE8FF"/>
<path d="M182.389 359.453L148.022 359.452C145.938 359.452 143.94 360.28 142.467 361.753C140.994 363.226 140.166 365.224 140.166 367.308V430.152C140.166 432.236 140.994 434.234 142.467 435.707C143.94 437.18 145.938 438.008 148.022 438.008H195.155C197.238 438.008 199.236 437.18 200.71 435.707C202.183 434.234 203.01 432.236 203.01 430.152V379.875L182.389 359.453Z" fill="#FE6533"/>
<path d="M182.395 359.452L182.358 369.976C182.338 375.564 186.903 380.084 192.491 380.01L203.026 379.87" fill="#7A1600"/>
<g clip-path="url(#clip2_1173_9376)">
<path d="M177.528 404.67C175.818 405.973 173.737 406.695 171.588 406.73C164.588 406.73 160.588 398.73 160.588 398.73C161.832 396.412 163.557 394.387 165.648 392.79M169.488 390.97C170.176 390.809 170.881 390.729 171.588 390.73C178.588 390.73 182.588 398.73 182.588 398.73C181.981 399.866 181.257 400.935 180.428 401.92M173.708 400.85C173.433 401.145 173.102 401.382 172.734 401.546C172.366 401.71 171.969 401.798 171.566 401.805C171.163 401.812 170.763 401.738 170.39 401.587C170.016 401.436 169.677 401.212 169.392 400.927C169.107 400.642 168.882 400.302 168.731 399.929C168.581 399.555 168.506 399.155 168.514 398.752C168.521 398.35 168.609 397.952 168.773 397.584C168.937 397.216 169.173 396.885 169.468 396.61" stroke="white" stroke-width="2" stroke-linecap="round" stroke-linejoin="round"/>
<path d="M160.588 387.73L182.588 409.73" stroke="white" stroke-width="2" stroke-linecap="round" stroke-linejoin="round"/>
</g>
<path d="M144.506 466.009H139.012V464.48H144.506V466.009ZM139.555 466.009H137.654V455.607H139.555V466.009ZM143.791 461.401H139.012V459.901H143.791V461.401ZM144.477 457.143H139.012V455.607H144.477V457.143ZM147.556 466.009H145.727V458.279H147.449L147.556 459.929V466.009ZM146.677 461.88C146.682 461.127 146.811 460.472 147.063 459.915C147.32 459.353 147.68 458.917 148.142 458.608C148.604 458.293 149.142 458.136 149.756 458.136C150.252 458.136 150.683 458.231 151.049 458.422C151.416 458.608 151.7 458.912 151.9 459.336C152.104 459.76 152.207 460.329 152.207 461.044V466.009H150.371V461.029C150.371 460.677 150.321 460.398 150.221 460.194C150.121 459.989 149.971 459.843 149.771 459.758C149.575 459.672 149.335 459.629 149.049 459.629C148.759 459.629 148.501 459.686 148.278 459.801C148.059 459.915 147.87 460.074 147.713 460.279C147.561 460.484 147.444 460.722 147.363 460.994C147.287 461.265 147.249 461.558 147.249 461.872L146.677 461.88ZM157.115 466.152C156.324 466.152 155.667 465.978 155.143 465.63C154.619 465.278 154.229 464.809 153.971 464.223C153.714 463.632 153.586 462.98 153.586 462.265V462.03C153.586 461.31 153.714 460.658 153.971 460.072C154.233 459.482 154.624 459.012 155.143 458.665C155.667 458.312 156.322 458.136 157.108 458.136C157.732 458.136 158.279 458.26 158.751 458.508C159.227 458.75 159.599 459.093 159.865 459.536C160.132 459.974 160.27 460.491 160.28 461.087H158.558C158.548 460.815 158.484 460.567 158.365 460.344C158.246 460.12 158.077 459.941 157.858 459.808C157.643 459.674 157.384 459.608 157.079 459.608C156.636 459.608 156.293 459.724 156.05 459.958C155.812 460.191 155.645 460.494 155.55 460.865C155.46 461.232 155.414 461.62 155.414 462.03V462.265C155.414 462.675 155.46 463.065 155.55 463.437C155.641 463.804 155.807 464.104 156.05 464.337C156.293 464.566 156.641 464.68 157.093 464.68C157.365 464.68 157.608 464.628 157.822 464.523C158.041 464.413 158.215 464.263 158.344 464.073C158.477 463.882 158.548 463.661 158.558 463.408H160.28C160.27 463.923 160.122 464.387 159.837 464.801C159.551 465.216 159.17 465.544 158.694 465.787C158.222 466.03 157.696 466.152 157.115 466.152ZM163.402 466.009H161.573V458.279H163.309L163.402 459.836V466.009ZM165.723 459.972C165.614 459.953 165.495 459.939 165.366 459.929C165.242 459.92 165.121 459.915 165.002 459.915C164.616 459.915 164.295 459.984 164.037 460.122C163.78 460.255 163.585 460.451 163.452 460.708C163.323 460.96 163.247 461.263 163.223 461.615L162.816 461.587C162.816 460.934 162.901 460.348 163.073 459.829C163.244 459.305 163.499 458.893 163.837 458.593C164.18 458.288 164.606 458.136 165.116 458.136C165.216 458.136 165.328 458.146 165.452 458.165C165.576 458.179 165.671 458.2 165.738 458.229L165.723 459.972ZM171.103 458.279H173.053L169.967 467.18C169.895 467.371 169.8 467.578 169.681 467.802C169.567 468.026 169.417 468.238 169.231 468.438C169.05 468.643 168.821 468.809 168.545 468.938C168.269 469.066 167.936 469.131 167.545 469.131C167.44 469.131 167.338 469.124 167.238 469.109C167.143 469.1 167.05 469.085 166.959 469.066C166.869 469.047 166.778 469.026 166.688 469.002V467.595C166.731 467.6 166.785 467.604 166.852 467.609C166.919 467.614 166.974 467.616 167.016 467.616C167.44 467.616 167.757 467.542 167.967 467.395C168.181 467.247 168.348 466.997 168.467 466.645L169.024 465.152L171.103 458.279ZM169.731 463.958L170.045 465.944L168.781 466.195L165.995 458.279H167.967L169.731 463.958ZM177.825 466.152C177.339 466.152 176.918 466.061 176.561 465.88C176.204 465.694 175.901 465.435 175.654 465.101C175.411 464.768 175.215 464.378 175.068 463.93C174.92 463.477 174.813 462.984 174.746 462.451V461.951C174.832 461.198 174.994 460.536 175.232 459.965C175.47 459.393 175.799 458.946 176.218 458.622C176.642 458.298 177.173 458.136 177.811 458.136C178.463 458.136 179.014 458.3 179.461 458.629C179.909 458.958 180.247 459.417 180.476 460.008C180.709 460.594 180.826 461.279 180.826 462.065V462.215C180.826 462.968 180.709 463.642 180.476 464.237C180.247 464.828 179.909 465.294 179.461 465.637C179.018 465.98 178.473 466.152 177.825 466.152ZM174.003 468.981V458.279H175.689L175.832 459.765V468.981H174.003ZM177.325 464.68C177.725 464.68 178.047 464.568 178.29 464.344C178.537 464.12 178.716 463.823 178.825 463.451C178.94 463.075 178.997 462.663 178.997 462.215V462.065C178.997 461.608 178.94 461.196 178.825 460.829C178.711 460.463 178.53 460.172 178.283 459.958C178.035 459.739 177.711 459.629 177.311 459.629C177.016 459.629 176.763 459.677 176.554 459.772C176.344 459.867 176.168 460.003 176.025 460.179C175.887 460.351 175.777 460.558 175.696 460.801C175.62 461.039 175.568 461.303 175.539 461.594V462.808C175.592 463.156 175.682 463.473 175.811 463.758C175.939 464.039 176.125 464.263 176.368 464.43C176.616 464.597 176.935 464.68 177.325 464.68ZM185.848 459.629H181.44V458.279H185.848V459.629ZM184.491 456.386V463.794C184.491 464.028 184.524 464.206 184.591 464.33C184.657 464.449 184.75 464.53 184.869 464.573C184.993 464.616 185.138 464.637 185.305 464.637C185.424 464.637 185.538 464.63 185.648 464.616C185.758 464.601 185.843 464.587 185.905 464.573V465.98C185.758 466.028 185.588 466.068 185.398 466.102C185.207 466.135 184.986 466.152 184.734 466.152C184.329 466.152 183.969 466.08 183.655 465.937C183.34 465.79 183.095 465.554 182.919 465.23C182.748 464.906 182.662 464.475 182.662 463.937V456.386H184.491ZM188.177 455.3C188.501 455.3 188.756 455.393 188.941 455.579C189.127 455.759 189.22 455.988 189.22 456.264C189.22 456.541 189.127 456.772 188.941 456.957C188.756 457.138 188.501 457.229 188.177 457.229C187.853 457.229 187.598 457.138 187.413 456.957C187.232 456.772 187.141 456.541 187.141 456.264C187.141 455.988 187.232 455.759 187.413 455.579C187.598 455.393 187.853 455.3 188.177 455.3ZM189.099 466.009H187.263V458.279H189.099V466.009ZM190.635 462.072C190.635 461.32 190.777 460.648 191.063 460.058C191.349 459.467 191.759 459.001 192.292 458.658C192.83 458.31 193.478 458.136 194.235 458.136C195.002 458.136 195.657 458.31 196.2 458.658C196.743 459.001 197.155 459.467 197.436 460.058C197.721 460.648 197.864 461.32 197.864 462.072V462.222C197.864 462.97 197.721 463.642 197.436 464.237C197.155 464.828 196.743 465.294 196.2 465.637C195.662 465.98 195.011 466.152 194.249 466.152C193.487 466.152 192.837 465.98 192.299 465.637C191.761 465.294 191.349 464.828 191.063 464.237C190.777 463.642 190.635 462.97 190.635 462.222V462.072ZM192.463 462.222C192.463 462.67 192.525 463.082 192.649 463.458C192.773 463.83 192.966 464.128 193.228 464.351C193.49 464.57 193.83 464.68 194.249 464.68C194.669 464.68 195.009 464.57 195.271 464.351C195.533 464.128 195.723 463.83 195.843 463.458C195.966 463.082 196.028 462.67 196.028 462.222V462.072C196.028 461.63 195.966 461.222 195.843 460.851C195.723 460.475 195.531 460.175 195.264 459.951C195.002 459.722 194.659 459.608 194.235 459.608C193.821 459.608 193.483 459.722 193.221 459.951C192.959 460.175 192.766 460.475 192.642 460.851C192.523 461.222 192.463 461.63 192.463 462.072V462.222ZM201.065 466.009H199.236V458.279H200.958L201.065 459.929V466.009ZM200.186 461.88C200.191 461.127 200.319 460.472 200.572 459.915C200.829 459.353 201.189 458.917 201.651 458.608C202.113 458.293 202.651 458.136 203.265 458.136C203.76 458.136 204.192 458.231 204.558 458.422C204.925 458.608 205.208 458.912 205.408 459.336C205.613 459.76 205.716 460.329 205.716 461.044V466.009H203.88V461.029C203.88 460.677 203.83 460.398 203.73 460.194C203.63 459.989 203.479 459.843 203.279 459.758C203.084 459.672 202.844 459.629 202.558 459.629C202.267 459.629 202.01 459.686 201.786 459.801C201.567 459.915 201.379 460.074 201.222 460.279C201.07 460.484 200.953 460.722 200.872 460.994C200.796 461.265 200.758 461.558 200.758 461.872L200.186 461.88Z" fill="#7A1600"/>
</g>
<defs>
<linearGradient id="paint0_linear_1173_9376" x1="385.518" y1="371.037" x2="579.119" y2="533.856" gradientUnits="userSpaceOnUse">
<stop stop-color="#FFCFC5"/>
<stop offset="1" stop-color="#FF7152"/>
</linearGradient>
<linearGradient id="paint1_linear_1173_9376" x1="457.092" y1="394.175" x2="485.73" y2="451.525" gradientUnits="userSpaceOnUse">
<stop stop-color="#FFCFC5"/>
<stop offset="1" stop-color="#FF7152"/>
</linearGradient>
<clipPath id="clip0_1173_9376">
<rect width="906" height="500" fill="white" transform="translate(32 100)"/>
</clipPath>
<clipPath id="clip1_1173_9376">
<rect width="30" height="29" fill="white" transform="translate(779.428 386.641)"/>
</clipPath>
<clipPath id="clip2_1173_9376">
<rect width="24" height="24" fill="white" transform="translate(159.588 386.73)"/>
</clipPath>
</defs>
</svg>
