<svg width="1301" height="409" viewBox="0 0 1301 409" fill="none" xmlns="http://www.w3.org/2000/svg">
<g clip-path="url(#clip0_429_4825)">
<path d="M951.737 292.072C951.737 302.222 943.994 312.399 928.706 322.041C913.517 331.619 891.406 340.319 863.905 347.655C808.932 362.318 732.877 371.411 648.791 371.411C564.705 371.411 488.65 362.318 433.678 347.655C406.177 340.319 384.065 331.619 368.877 322.041C353.588 312.399 345.846 302.222 345.846 292.072C345.846 281.922 353.588 271.744 368.877 262.102C384.065 252.524 406.177 243.824 433.678 236.489C488.65 221.826 564.705 212.732 648.791 212.732C732.877 212.732 808.932 221.826 863.905 236.489C891.406 243.824 913.517 252.524 928.706 262.102C943.994 271.744 951.737 281.922 951.737 292.072Z" stroke="#FFE0CF" stroke-width="4"/>
<path d="M1125.31 292.072C1125.31 308.614 1112.71 324.882 1088.63 340.062C1064.66 355.18 1029.84 368.868 986.636 380.392C900.252 403.434 780.804 417.709 648.787 417.709C516.77 417.709 397.321 403.434 310.938 380.392C267.732 368.868 232.911 355.18 208.939 340.062C184.867 324.882 172.268 308.614 172.268 292.072C172.268 275.529 184.867 259.262 208.939 244.081C232.911 228.964 267.732 215.276 310.938 203.751C397.321 180.71 516.77 166.435 648.787 166.435C780.804 166.435 900.252 180.71 986.636 203.751C1029.84 215.276 1064.66 228.964 1088.63 244.081C1112.71 259.262 1125.31 275.529 1125.31 292.072Z" stroke="#FFE0CF" stroke-width="4"/>
<path d="M1418.84 292.072C1418.84 319.425 1398.03 345.991 1359.11 370.539C1320.28 395.023 1263.96 417.147 1194.2 435.756C1054.7 472.967 861.862 496.005 648.787 496.005C435.711 496.005 242.878 472.967 103.375 435.756C33.6082 417.147 -22.7066 395.023 -61.5325 370.539C-100.458 345.991 -121.271 319.425 -121.271 292.072C-121.271 264.719 -100.458 238.152 -61.5325 213.605C-22.7066 189.12 33.6082 166.996 103.375 148.387C242.878 111.177 435.711 88.1377 648.787 88.1377C861.862 88.1377 1054.7 111.177 1194.2 148.387C1263.96 166.996 1320.28 189.12 1359.11 213.605C1398.03 238.152 1418.84 264.719 1418.84 292.072Z" stroke="#FFE0CF" stroke-width="4"/>
<path d="M1725.14 259.455C1725.14 276.758 1717.58 293.81 1702.86 310.466C1688.13 327.136 1666.32 343.31 1638.06 358.782C1581.54 389.724 1499.63 417.653 1398.24 441.132C1195.49 488.082 915.293 517.14 605.728 517.14C296.162 517.14 15.9666 488.082 -186.783 441.132C-288.174 417.653 -370.086 389.724 -426.602 358.782C-454.862 343.31 -476.677 327.136 -491.408 310.466C-506.126 293.81 -513.689 276.758 -513.689 259.455C-513.689 242.152 -506.126 225.101 -491.408 208.444C-476.677 191.775 -454.862 175.6 -426.602 160.129C-370.086 129.186 -288.174 101.258 -186.783 77.7788C15.9666 30.8285 296.162 1.77051 605.728 1.77051C915.293 1.77051 1195.49 30.8285 1398.24 77.7788C1499.63 101.258 1581.54 129.186 1638.06 160.129C1666.32 175.6 1688.13 191.775 1702.86 208.444C1717.58 225.101 1725.14 242.152 1725.14 259.455Z" stroke="#FFE0CF" stroke-width="4"/>
<ellipse cx="646.429" cy="291.313" rx="166.762" ry="33.2975" fill="#7A1600"/>
<rect x="479.668" y="267.53" width="333.523" height="23.9429" fill="#7A1600"/>
<ellipse cx="646.429" cy="267.53" rx="166.762" ry="33.2975" fill="#F7DBFF"/>
<path d="M709.145 275.177H564.736L648.406 150.075L709.145 275.177Z" fill="#FE6533"/>
<path d="M728.122 256.194L648.791 150.758L709.201 275.202L728.122 256.194Z" fill="#7A1600"/>
<rect x="436.73" y="145.373" width="424.552" height="23.0727" transform="rotate(-3.33476 436.73 145.373)" fill="#7A1600"/>
<path d="M456.058 127.043L838.278 104.098L860.561 120.694L436.731 145.668L456.058 127.043Z" fill="#FE6533"/>
<path d="M532.945 58.0664L562.693 56.364M533.676 70.8364L563.424 69.134M556.649 102.835L534.407 83.6064L541.844 83.1808C558.37 82.2351 556.909 56.6951 540.382 57.6408" stroke="#7A1600" stroke-width="5.48413" stroke-linecap="round" stroke-linejoin="round"/>
<path d="M722.084 96.9512C719.292 97.1109 716.776 96.8547 714.537 96.1826C712.294 95.4605 710.343 94.1466 708.684 92.2408C707.021 90.2851 705.694 87.6349 704.702 84.2903C703.708 80.8958 703.062 76.606 702.765 71.4209C702.469 66.2358 702.622 61.9253 703.226 58.4893C703.827 55.0035 704.843 52.2193 706.274 50.1366C707.703 48.004 709.491 46.4761 711.639 45.5528C713.784 44.5797 716.253 44.0133 719.045 43.8535C721.837 43.6937 724.329 43.9763 726.522 44.7011C728.761 45.3733 730.712 46.6872 732.374 48.6429C734.034 50.5488 735.361 53.1989 736.356 56.5934C737.348 59.938 737.992 64.2029 738.288 69.388C738.585 74.5731 738.433 78.9086 737.832 82.3944C737.229 85.8303 736.212 88.6146 734.784 90.7471C733.352 92.8299 731.564 94.3578 729.419 95.3309C727.321 96.2513 724.876 96.7914 722.084 96.9512ZM721.767 91.417C724.609 91.2544 726.761 90.4059 728.224 88.8716C729.737 87.3345 730.711 85.1279 731.146 82.2518C731.632 79.3728 731.753 75.8144 731.511 71.5766L731.314 68.1365C731.069 63.8488 730.541 60.3025 729.73 57.4978C728.966 54.6403 727.745 52.5343 726.067 51.1798C724.439 49.8224 722.204 49.225 719.362 49.3876C716.52 49.5502 714.343 50.4001 712.83 51.9373C711.317 53.4744 710.318 55.6825 709.833 58.5614C709.397 61.4375 709.302 65.0194 709.547 69.3071L709.74 72.6724C709.982 76.9103 710.485 80.4579 711.249 83.3154C712.063 86.17 713.309 88.2746 714.987 89.6292C716.665 90.9837 718.925 91.5797 721.767 91.417Z" fill="#7A1600"/>
<path d="M679.215 99.4043C676.423 99.5641 673.907 99.3079 671.668 98.6357C669.425 97.9137 667.474 96.5997 665.815 94.6939C664.152 92.7382 662.825 90.0881 661.833 86.7434C660.839 83.349 660.193 79.0592 659.896 73.874C659.6 68.6889 659.753 64.3784 660.357 60.9425C660.958 57.4567 661.974 54.6724 663.405 52.5897C664.834 50.4571 666.622 48.9292 668.77 48.0059C670.915 47.0328 673.384 46.4664 676.176 46.3066C678.968 46.1468 681.46 46.4294 683.652 47.1543C685.892 47.8264 687.843 49.1404 689.505 51.0961C691.165 53.0019 692.492 55.652 693.487 59.0465C694.478 62.3911 695.123 66.656 695.419 71.8411C695.716 77.0263 695.564 81.3617 694.963 84.8475C694.359 88.2834 693.343 91.0677 691.915 93.2003C690.483 95.283 688.695 96.8109 686.55 97.784C684.452 98.7044 682.007 99.2445 679.215 99.4043ZM678.898 93.8702C681.74 93.7075 683.892 92.8591 685.355 91.3248C686.868 89.7876 687.842 87.581 688.277 84.7049C688.763 81.826 688.884 78.2676 688.642 74.0297L688.445 70.5896C688.2 66.3019 687.671 62.7557 686.861 59.9509C686.097 57.0935 684.876 54.9874 683.198 53.6329C681.57 52.2755 679.334 51.6781 676.493 51.8407C673.651 52.0034 671.473 52.8533 669.961 54.3904C668.448 55.9276 667.449 58.1356 666.964 61.0145C666.528 63.8906 666.433 67.4725 666.678 71.7602L666.871 75.1256C667.113 79.3634 667.616 82.9111 668.38 85.7685C669.194 88.6231 670.44 90.7277 672.118 92.0823C673.796 93.4368 676.056 94.0328 678.898 93.8702Z" fill="#7A1600"/>
<path d="M636.343 101.857C633.551 102.017 631.036 101.761 628.796 101.089C626.554 100.367 624.603 99.0529 622.944 97.147C621.281 95.1913 619.954 92.5412 618.962 89.1966C617.968 85.8021 617.322 81.5123 617.025 76.3272C616.728 71.142 616.882 66.8315 617.486 63.3956C618.086 59.9098 619.103 57.1255 620.534 55.0428C621.963 52.9102 623.751 51.3823 625.899 50.4591C628.044 49.486 630.513 48.9195 633.305 48.7597C636.097 48.6 638.589 48.8825 640.781 49.6074C643.021 50.2796 644.972 51.5935 646.634 53.5492C648.294 55.455 649.621 58.1052 650.616 61.4996C651.607 64.8443 652.252 69.1091 652.548 74.2943C652.845 79.4794 652.693 83.8148 652.092 87.3006C651.488 90.7366 650.472 93.5208 649.044 95.6534C647.612 97.7361 645.824 99.264 643.679 100.237C641.581 101.158 639.135 101.698 636.343 101.857ZM636.027 96.3233C638.869 96.1607 641.021 95.3122 642.484 93.7779C643.996 92.2407 644.971 90.0341 645.406 87.158C645.892 84.2791 646.013 80.7207 645.771 76.4829L645.574 73.0427C645.328 68.755 644.8 65.2088 643.99 62.404C643.226 59.5466 642.005 57.4406 640.327 56.086C638.698 54.7286 636.463 54.1312 633.621 54.2939C630.78 54.4565 628.602 55.3064 627.09 56.8435C625.577 58.3807 624.578 60.5887 624.092 63.4677C623.657 66.3438 623.562 69.9256 623.807 74.2133L624 77.5787C624.242 81.8165 624.745 85.3642 625.509 88.2217C626.323 91.0763 627.569 93.1809 629.247 94.5354C630.925 95.89 633.185 96.4859 636.027 96.3233Z" fill="#7A1600"/>
<path d="M594.17 104.27C590.182 104.499 586.782 104.093 583.971 103.053C581.158 101.964 578.989 100.337 577.465 98.1736C575.94 96.0099 575.09 93.3825 574.913 90.2914C574.882 89.7544 575.292 89.2943 575.829 89.2635L580.541 88.9939C581.078 88.9632 581.538 89.3735 581.569 89.9105C581.746 93.0016 582.853 95.3142 584.892 96.8482C586.977 98.3295 589.765 98.9703 593.255 98.7705C596.745 98.5708 599.519 97.6618 601.578 96.0434C603.633 94.3751 604.565 91.8708 604.374 88.5304C604.234 86.0874 603.554 84.2506 602.333 83.0199C601.112 81.7892 599.565 80.9774 597.692 80.5844C595.865 80.1387 593.93 79.9743 591.886 80.0913L589.269 80.2411C587.74 80.3286 586.431 79.1606 586.343 77.6324C586.256 76.1042 587.424 74.7944 588.952 74.707L591.794 74.5443C593.688 74.4359 595.416 74.0369 596.977 73.3473C598.539 72.6577 599.754 71.6128 600.625 70.2124C601.542 68.7594 601.938 66.936 601.812 64.7423C601.698 62.748 601.157 61.1533 600.188 59.9583C599.269 58.7603 598.045 57.905 596.515 57.3924C594.982 56.8298 593.318 56.5999 591.523 56.7026C589.529 56.8167 587.754 57.2684 586.198 58.0577C584.64 58.7972 583.426 59.8671 582.556 61.2674C581.735 62.6649 581.383 64.3857 581.5 66.4299C581.531 66.9668 581.121 67.427 580.584 67.4577L576.172 67.7102C575.428 67.7528 574.791 67.1846 574.748 66.4411C574.586 63.5993 575.166 61.0651 576.489 58.8385C577.862 56.609 579.786 54.8233 582.26 53.4812C584.784 52.1363 587.716 51.3682 591.057 51.177C594.347 50.9887 597.269 51.3467 599.822 52.2511C602.424 53.1526 604.507 54.584 606.07 56.5454C607.633 58.5068 608.5 60.9832 608.671 63.9746C608.797 66.1683 608.505 68.0608 607.795 69.652C607.083 71.1934 606.108 72.4997 604.868 73.571C603.665 74.6118 602.357 75.4932 600.946 76.2153C600.871 76.254 600.825 76.3335 600.83 76.4182C600.835 76.5127 600.902 76.5922 600.995 76.6144C603.715 77.2679 606.039 78.5703 607.967 80.5216C609.932 82.51 611.011 85.1993 611.205 88.5896C611.379 91.6309 610.756 94.2926 609.336 96.5748C607.966 98.8541 605.944 100.67 603.27 102.024C600.644 103.325 597.61 104.074 594.17 104.27Z" fill="#7A1600"/>
<path d="M463.981 91.116C463.521 91.1467 463.065 91.116 462.614 91.024C462.163 90.9276 461.746 90.7656 461.364 90.538C460.987 90.3101 460.677 90.0145 460.435 89.6511C460.196 89.2831 460.06 88.8406 460.026 88.3237L461.765 88.2077C461.785 88.5074 461.852 88.7603 461.966 88.9665C462.084 89.168 462.239 89.33 462.431 89.4525C462.622 89.575 462.841 89.6585 463.089 89.7031C463.336 89.7476 463.603 89.7604 463.89 89.7412C464.263 89.7163 464.568 89.6436 464.804 89.5231C465.041 89.4027 465.214 89.2472 465.323 89.0566C465.437 88.8658 465.486 88.6509 465.47 88.412C465.453 88.1644 465.387 87.9573 465.271 87.7905C465.155 87.6193 464.949 87.4673 464.652 87.3344C464.359 87.1969 463.936 87.0637 463.382 86.9349C462.93 86.8298 462.507 86.7032 462.113 86.5549C461.723 86.4064 461.378 86.2266 461.076 86.0155C460.774 85.8044 460.532 85.5544 460.352 85.2654C460.175 84.9718 460.073 84.6252 460.047 84.2256C460.012 83.7087 460.125 83.2431 460.385 82.8287C460.65 82.414 461.031 82.0788 461.529 81.8231C462.027 81.5674 462.61 81.4172 463.279 81.3726C463.991 81.325 464.612 81.4145 465.142 81.6409C465.676 81.8627 466.097 82.1836 466.404 82.6038C466.711 83.0239 466.883 83.5055 466.919 84.0484L465.18 84.1645C465.16 83.8691 465.08 83.6105 464.938 83.3887C464.801 83.1666 464.6 83.0012 464.336 82.8923C464.075 82.7788 463.747 82.7353 463.352 82.7616C462.983 82.7863 462.678 82.8611 462.438 82.9862C462.202 83.1111 462.029 83.2709 461.92 83.4658C461.815 83.6604 461.77 83.875 461.786 84.1095C461.801 84.3397 461.887 84.5369 462.042 84.7011C462.201 84.865 462.433 85.0087 462.738 85.1324C463.042 85.2517 463.419 85.364 463.866 85.4694C464.584 85.6266 465.184 85.8286 465.667 86.0756C466.15 86.3182 466.519 86.6208 466.775 86.9833C467.03 87.3415 467.175 87.7747 467.208 88.2829C467.244 88.8215 467.134 89.2957 466.878 89.7054C466.626 90.1149 466.253 90.4408 465.759 90.6832C465.264 90.9256 464.672 91.0699 463.981 91.116ZM471.559 84.6354L467.539 84.9036L467.457 83.6722L471.477 83.404L471.559 84.6354ZM470.124 81.76L470.575 88.5164C470.589 88.7292 470.63 88.8901 470.699 88.999C470.767 89.1035 470.856 89.1717 470.967 89.2035C471.083 89.2351 471.217 89.2458 471.369 89.2356C471.477 89.2284 471.581 89.2149 471.68 89.1952C471.779 89.1755 471.857 89.1573 471.912 89.1405L471.998 90.424C471.866 90.4764 471.714 90.5236 471.543 90.5656C471.371 90.6076 471.17 90.6363 470.94 90.6517C470.57 90.6763 470.238 90.633 469.943 90.5218C469.647 90.4063 469.409 90.2062 469.229 89.9216C469.053 89.6367 468.948 89.2488 468.915 88.758L468.456 81.8713L470.124 81.76ZM476.725 85.3574C476.701 85.0012 476.585 84.7254 476.375 84.53C476.17 84.3299 475.867 84.2432 475.468 84.2698C475.229 84.2858 475.023 84.341 474.851 84.4354C474.682 84.5251 474.555 84.6427 474.468 84.7881C474.382 84.9335 474.345 85.0974 474.357 85.2798L472.689 85.3911C472.664 85.0045 472.759 84.6382 472.976 84.2921C473.197 83.9415 473.52 83.6494 473.945 83.416C474.37 83.1826 474.88 83.046 475.475 83.0063C476.009 82.9706 476.489 83.0303 476.914 83.1852C477.343 83.3354 477.689 83.5828 477.952 83.9274C478.214 84.272 478.364 84.7157 478.4 85.2587L478.606 88.3469C478.629 88.6901 478.673 88.986 478.738 89.2347C478.802 89.4791 478.884 89.6918 478.983 89.8728L478.99 89.9836L477.29 90.097C477.196 89.9288 477.118 89.7093 477.056 89.4386C476.999 89.1675 476.961 88.8995 476.944 88.6346L476.725 85.3574ZM477.065 86.8203L475.983 86.8924C475.427 86.9295 475.017 87.0638 474.754 87.2952C474.489 87.5222 474.369 87.8095 474.392 88.1569C474.41 88.4262 474.516 88.6438 474.711 88.8098C474.909 88.9754 475.176 89.047 475.51 89.0247C475.823 89.0038 476.09 88.9228 476.312 88.7814C476.534 88.6401 476.704 88.4761 476.822 88.2893C476.941 88.0982 476.996 87.9221 476.99 87.7611L477.554 88.4695C477.509 88.647 477.433 88.8397 477.325 89.0476C477.216 89.2555 477.068 89.4552 476.88 89.6466C476.697 89.8378 476.472 89.9989 476.206 90.1301C475.94 90.2613 475.626 90.3389 475.266 90.363C474.81 90.3934 474.393 90.3296 474.016 90.1715C473.644 90.0131 473.342 89.7824 473.113 89.4792C472.887 89.1714 472.761 88.8177 472.734 88.4181C472.684 87.671 472.924 87.0791 473.453 86.6424C473.987 86.2011 474.773 85.9458 475.811 85.8765L476.996 85.7974L477.065 86.8203ZM481.981 89.784L480.313 89.8953L479.843 82.8458L481.426 82.7401L481.605 84.1548L481.981 89.784ZM483.731 84.1373C483.63 84.1266 483.521 84.1208 483.403 84.1199C483.289 84.1188 483.178 84.1218 483.07 84.1291C482.718 84.1526 482.429 84.2351 482.203 84.3767C481.976 84.514 481.81 84.7039 481.704 84.9466C481.602 85.1846 481.551 85.4651 481.551 85.788L481.178 85.7867C481.138 85.1916 481.18 84.6522 481.305 84.1683C481.43 83.6801 481.637 83.2888 481.927 82.9946C482.221 82.6958 482.601 82.5308 483.066 82.4998C483.157 82.4937 483.259 82.4956 483.373 82.5054C483.487 82.5109 483.575 82.5247 483.638 82.5467L483.731 84.1373ZM488.303 83.5181L484.284 83.7863L484.201 82.5549L488.221 82.2867L488.303 83.5181ZM486.868 80.6427L487.319 87.3991C487.333 87.6119 487.374 87.7728 487.443 87.8816C487.511 87.9862 487.601 88.0544 487.712 88.0862C487.827 88.1178 487.961 88.1285 488.113 88.1183C488.222 88.1111 488.325 88.0976 488.424 88.0779C488.524 88.0582 488.601 88.04 488.656 88.0232L488.742 89.3067C488.61 89.3591 488.459 89.4063 488.287 89.4483C488.115 89.4903 487.914 89.519 487.684 89.5343C487.315 89.559 486.983 89.5157 486.687 89.4045C486.391 89.289 486.153 89.0889 485.973 88.8043C485.797 88.5194 485.693 88.1315 485.66 87.6407L485.2 80.754L486.868 80.6427ZM492.525 89.2113C491.878 89.2545 491.323 89.1759 490.86 88.9756C490.401 88.7706 490.045 88.4955 489.791 88.1504C489.541 87.8049 489.403 87.4411 489.377 87.0588L490.98 86.9519C491.016 87.22 491.106 87.4343 491.252 87.5947C491.402 87.7505 491.584 87.8584 491.797 87.9183C492.015 87.9779 492.239 88.0001 492.469 87.9847C492.738 87.9667 492.962 87.9169 493.14 87.8352C493.317 87.7492 493.448 87.6424 493.531 87.5147C493.618 87.3823 493.656 87.2336 493.645 87.0686C493.635 86.9209 493.587 86.791 493.501 86.679C493.419 86.5666 493.267 86.4677 493.043 86.3823C492.823 86.2966 492.502 86.2243 492.079 86.1652C491.577 86.094 491.132 85.9841 490.742 85.8356C490.353 85.6871 490.04 85.4833 489.805 85.2241C489.573 84.9603 489.444 84.6308 489.418 84.2355C489.392 83.849 489.479 83.4854 489.679 83.1449C489.879 82.8043 490.179 82.5225 490.578 82.2995C490.977 82.0722 491.459 81.9397 492.024 81.902C492.619 81.8623 493.136 81.9282 493.575 82.0996C494.018 82.2663 494.366 82.5114 494.619 82.8349C494.871 83.154 495.012 83.5285 495.041 83.9585L493.373 84.0698C493.354 83.7918 493.238 83.5596 493.025 83.3731C492.812 83.1823 492.503 83.1004 492.099 83.1273C491.856 83.1436 491.652 83.1964 491.488 83.2859C491.324 83.3754 491.205 83.488 491.131 83.6239C491.057 83.7553 491.025 83.8971 491.035 84.0491C491.045 84.1968 491.095 84.3243 491.185 84.4318C491.279 84.5346 491.431 84.6226 491.641 84.6958C491.851 84.7647 492.141 84.8261 492.511 84.8799C493.048 84.9532 493.518 85.0636 493.92 85.2113C494.327 85.3543 494.646 85.5599 494.878 85.828C495.113 86.0915 495.246 86.4426 495.275 86.8813C495.303 87.2939 495.208 87.6711 494.991 88.0128C494.778 88.3499 494.46 88.6241 494.038 88.8355C493.616 89.0469 493.111 89.1722 492.525 89.2113ZM503.672 83.5592C503.648 83.2031 503.532 82.9273 503.323 82.7318C503.117 82.5317 502.815 82.445 502.415 82.4717C502.176 82.4876 501.971 82.5428 501.798 82.6372C501.629 82.727 501.502 82.8446 501.416 82.9899C501.329 83.1353 501.292 83.2992 501.305 83.4816L499.637 83.5929C499.611 83.2064 499.706 82.8401 499.923 82.494C500.144 82.1433 500.467 81.8513 500.892 81.6178C501.317 81.3844 501.827 81.2479 502.422 81.2082C502.957 81.1725 503.436 81.2321 503.861 81.387C504.29 81.5373 504.636 81.7847 504.899 82.1293C505.162 82.4738 505.311 82.9176 505.348 83.4605L505.554 86.5488C505.577 86.8919 505.62 87.1879 505.685 87.4366C505.749 87.681 505.831 87.8937 505.93 88.0747L505.938 88.1854L504.237 88.2989C504.143 88.1307 504.065 87.9112 504.003 87.6404C503.946 87.3694 503.909 87.1014 503.891 86.8364L503.672 83.5592ZM504.012 85.0221L502.93 85.0943C502.374 85.1314 501.965 85.2656 501.701 85.497C501.437 85.7241 501.316 86.0113 501.339 86.3588C501.357 86.6281 501.464 86.8457 501.658 87.0116C501.857 87.1772 502.123 87.2489 502.458 87.2266C502.77 87.2057 503.038 87.1246 503.259 86.9833C503.481 86.842 503.651 86.6779 503.77 86.4911C503.888 86.3 503.944 86.1239 503.937 85.9629L504.502 86.6713C504.457 86.8489 504.38 87.0416 504.272 87.2495C504.164 87.4574 504.015 87.6571 503.828 87.8485C503.644 88.0396 503.419 88.2008 503.153 88.332C502.887 88.4632 502.574 88.5408 502.213 88.5648C501.757 88.5953 501.34 88.5314 500.963 88.3734C500.591 88.215 500.29 87.9842 500.06 87.6811C499.834 87.3733 499.708 87.0196 499.682 86.62C499.632 85.8729 499.871 85.281 500.401 84.8443C500.934 84.4029 501.72 84.1476 502.758 84.0784L503.944 83.9992L504.012 85.0221ZM510.169 82.059L506.149 82.3273L506.067 81.0959L510.087 80.8276L510.169 82.059ZM508.734 79.1837L509.184 85.94C509.199 86.1529 509.24 86.3137 509.308 86.4226C509.376 86.5271 509.466 86.5953 509.577 86.6272C509.693 86.6587 509.826 86.6694 509.978 86.6593C510.087 86.652 510.191 86.6386 510.29 86.6189C510.389 86.5992 510.466 86.5809 510.522 86.5641L510.607 87.8476C510.476 87.9001 510.324 87.9473 510.152 87.9893C509.981 88.0313 509.78 88.0599 509.549 88.0753C509.18 88.0999 508.848 88.0567 508.552 87.9455C508.257 87.83 508.019 87.6299 507.838 87.3453C507.662 87.0603 507.558 86.6725 507.525 86.1816L507.066 79.295L508.734 79.1837Z" fill="#7A1600"/>
<path d="M756.171 71.4883L754.496 71.6001L754.026 64.5505L755.602 64.4453L755.796 65.8787L756.171 71.4883ZM755.105 67.7768C755.061 67.1166 755.126 66.5233 755.3 65.9968C755.479 65.4701 755.767 65.0451 756.164 64.722C756.561 64.3988 757.068 64.2166 757.685 64.1755C758.324 64.1328 758.86 64.2912 759.294 64.6505C759.728 65.0099 759.975 65.6304 760.033 66.5121L760.347 71.2097L758.679 71.321L758.376 66.7863C758.355 66.4606 758.288 66.2076 758.175 66.0275C758.067 65.8471 757.919 65.7239 757.732 65.6579C757.544 65.5919 757.326 65.5671 757.079 65.5837C756.801 65.6022 756.565 65.6703 756.373 65.7879C756.184 65.9051 756.033 66.0614 755.92 66.2566C755.806 66.4517 755.727 66.6751 755.683 66.9268C755.643 67.1781 755.633 67.4471 755.652 67.7338L755.105 67.7768ZM759.222 67.2927C759.183 66.7063 759.251 66.163 759.427 65.6626C759.603 65.1622 759.886 64.755 760.275 64.4411C760.664 64.1229 761.158 63.9437 761.757 63.9037C762.231 63.8721 762.645 63.9339 763 64.0891C763.355 64.24 763.636 64.5026 763.844 64.877C764.057 65.2511 764.184 65.7552 764.227 66.3894L764.53 70.9306L762.855 71.0423L762.552 66.4946C762.529 66.1558 762.462 65.8985 762.35 65.7228C762.242 65.5467 762.095 65.43 761.908 65.3727C761.725 65.3108 761.511 65.2879 761.268 65.3041C761.029 65.3201 760.824 65.3774 760.651 65.4762C760.483 65.5746 760.344 65.7061 760.233 65.8706C760.126 66.0304 760.049 66.2166 760.002 66.4292C759.954 66.6374 759.939 66.8609 759.955 67.0998L759.222 67.2927ZM765.561 67.2558C765.515 66.5696 765.604 65.9484 765.829 65.3924C766.054 64.8365 766.399 64.3859 766.864 64.0407C767.334 63.6908 767.914 63.4929 768.605 63.4468C769.304 63.4001 769.912 63.5188 770.428 63.8029C770.944 64.0826 771.348 64.4832 771.641 65.0046C771.937 65.5259 772.108 66.1296 772.154 66.8159L772.163 66.9527C772.209 67.6346 772.119 68.2558 771.895 68.8161C771.675 69.3718 771.327 69.8225 770.853 70.1683C770.383 70.5138 769.801 70.7097 769.106 70.7561C768.411 70.8025 767.807 70.6857 767.296 70.4057C766.784 70.1257 766.38 69.7251 766.083 69.2039C765.786 68.6783 765.615 68.0746 765.57 67.3927L765.561 67.2558ZM767.238 67.2814C767.265 67.6897 767.346 68.0616 767.482 68.3972C767.618 68.7285 767.812 68.9882 768.064 69.1764C768.317 69.3603 768.634 69.4395 769.016 69.4139C769.398 69.3884 769.702 69.2678 769.928 69.0521C770.153 68.832 770.309 68.5489 770.395 68.2029C770.485 67.8522 770.516 67.4727 770.489 67.0644L770.48 66.9276C770.453 66.5237 770.371 66.1561 770.236 65.8248C770.104 65.4889 769.91 65.227 769.653 65.0391C769.401 64.8465 769.081 64.7632 768.694 64.789C768.316 64.8142 768.015 64.939 767.79 65.1634C767.565 65.3835 767.407 65.6689 767.317 66.0196C767.231 66.3656 767.202 66.7406 767.229 67.1446L767.238 67.2814ZM775.312 70.211L773.645 70.3223L773.174 63.2728L774.744 63.168L774.943 64.6665L775.312 70.211ZM774.26 66.4987C774.218 65.8121 774.296 65.207 774.492 64.6835C774.692 64.1553 774.994 63.736 775.396 63.4255C775.799 63.1108 776.28 62.9347 776.84 62.8973C777.292 62.8671 777.691 62.9278 778.037 63.0792C778.383 63.2263 778.66 63.487 778.868 63.8614C779.08 64.2355 779.208 64.7484 779.252 65.3999L779.554 69.928L777.88 70.0397L777.576 65.4986C777.555 65.1772 777.492 64.9261 777.389 64.7454C777.285 64.5647 777.139 64.4414 776.952 64.3754C776.769 64.3091 776.547 64.2846 776.286 64.302C776.021 64.3197 775.79 64.3875 775.593 64.5053C775.4 64.6229 775.238 64.7799 775.107 64.9762C774.981 65.1723 774.889 65.3965 774.831 65.649C774.778 65.9013 774.761 66.1707 774.781 66.4574L774.26 66.4987ZM784.02 63.786L780 64.0542L779.918 62.8228L783.937 62.5546L784.02 63.786ZM782.584 60.9106L783.035 67.667C783.049 67.8798 783.091 68.0407 783.159 68.1495C783.227 68.2541 783.317 68.3223 783.428 68.3541C783.543 68.3857 783.677 68.3964 783.829 68.3862C783.938 68.379 784.042 68.3655 784.141 68.3458C784.24 68.3261 784.317 68.3079 784.373 68.2911L784.458 69.5746C784.326 69.627 784.175 69.6742 784.003 69.7162C783.831 69.7582 783.63 69.7869 783.4 69.8022C783.031 69.8269 782.699 69.7836 782.403 69.6724C782.108 69.5569 781.87 69.3568 781.689 69.0722C781.513 68.7873 781.409 68.3994 781.376 67.9086L780.916 61.0219L782.584 60.9106ZM787.222 69.4163L785.548 69.528L784.88 59.5205L786.555 59.4088L787.222 69.4163ZM786.163 65.7044C786.124 65.0439 786.2 64.4498 786.391 63.9222C786.587 63.3943 786.88 62.9691 787.268 62.6465C787.661 62.3236 788.131 62.1438 788.678 62.1073C789.143 62.0763 789.553 62.1384 789.908 62.2936C790.267 62.4441 790.555 62.7085 790.772 63.0867C790.99 63.4648 791.12 63.9797 791.164 64.6312L791.464 69.1333L789.789 69.245L789.488 64.7299C789.466 64.4042 789.402 64.1511 789.294 63.9707C789.19 63.7856 789.044 63.658 788.856 63.5876C788.672 63.517 788.45 63.4903 788.189 63.5077C787.911 63.5263 787.674 63.5945 787.477 63.7123C787.279 63.8302 787.118 63.9872 786.991 64.1832C786.869 64.379 786.781 64.603 786.728 64.8552C786.68 65.1071 786.665 65.3764 786.684 65.6631L786.163 65.7044ZM794.78 68.912L793.106 69.0237L792.438 59.0162L794.112 58.9045L794.78 68.912ZM799.926 61.4877L801.705 61.369L799.432 69.6749C799.378 69.853 799.304 70.0477 799.209 70.2591C799.118 70.4702 798.994 70.6726 798.837 70.8663C798.685 71.0641 798.486 71.2301 798.242 71.3642C797.998 71.4982 797.698 71.5772 797.342 71.6009C797.246 71.6073 797.152 71.607 797.06 71.6001C796.973 71.5972 796.887 71.5898 796.804 71.5779C796.72 71.5661 796.636 71.552 796.552 71.5358L796.466 70.2523C796.506 70.254 796.556 70.2551 796.617 70.2553C796.678 70.2556 796.728 70.2545 796.767 70.2519C797.154 70.2261 797.438 70.1395 797.621 69.9921C797.807 69.8444 797.944 69.6062 798.031 69.2775L798.448 67.8819L799.926 61.4877ZM799.021 66.7508L799.428 68.5429L798.29 68.8479L795.268 61.7985L797.066 61.6785L799.021 66.7508ZM806.894 68.9217L805.611 69.0073L808.572 58.4632L809.856 58.3775L806.894 68.9217ZM815.27 60.4638L816.944 60.3521L817.414 67.4017L815.838 67.5069L815.629 65.8455L815.27 60.4638ZM816.298 64.3087C816.34 64.9385 816.284 65.5072 816.131 66.0148C815.977 66.5225 815.712 66.9328 815.336 67.2459C814.96 67.5546 814.461 67.7296 813.84 67.7711C813.145 67.8175 812.569 67.6508 812.111 67.2712C811.654 66.8916 811.394 66.2349 811.332 65.3011L811.028 60.7469L812.696 60.6356L813.001 65.2028C813.022 65.5199 813.086 65.7664 813.194 65.9425C813.306 66.1139 813.447 66.2332 813.617 66.3004C813.791 66.3629 813.979 66.3875 814.178 66.3742C814.608 66.3455 814.942 66.2403 815.178 66.0588C815.414 65.8729 815.575 65.6331 815.66 65.3395C815.749 65.0412 815.782 64.714 815.758 64.3578L816.298 64.3087ZM821.638 67.2507C820.991 67.2939 820.436 67.2153 819.974 67.0149C819.515 66.8099 819.158 66.5349 818.904 66.1897C818.654 65.8443 818.516 65.4804 818.491 65.0982L820.094 64.9913C820.129 65.2594 820.22 65.4737 820.366 65.6341C820.516 65.7899 820.697 65.8977 820.911 65.9577C821.129 66.0173 821.353 66.0394 821.583 66.0241C821.852 66.0061 822.076 65.9563 822.253 65.8746C822.431 65.7886 822.561 65.6817 822.644 65.554C822.731 65.4217 822.77 65.273 822.759 65.1079C822.749 64.9603 822.701 64.8304 822.615 64.7183C822.533 64.606 822.38 64.5071 822.156 64.4217C821.937 64.336 821.616 64.2636 821.193 64.2046C820.691 64.1334 820.245 64.0235 819.856 63.875C819.466 63.7265 819.154 63.5226 818.918 63.2635C818.687 62.9997 818.558 62.6702 818.532 62.2749C818.506 61.8883 818.593 61.5248 818.793 61.1842C818.992 60.8437 819.292 60.5619 819.692 60.3389C820.091 60.1116 820.573 59.9791 821.138 59.9414C821.733 59.9017 822.25 59.9675 822.689 60.1389C823.132 60.3057 823.48 60.5508 823.733 60.8742C823.985 61.1933 824.126 61.5679 824.154 61.9979L822.486 62.1092C822.468 61.8312 822.352 61.599 822.139 61.4125C821.925 61.2217 821.617 61.1397 821.213 61.1667C820.97 61.1829 820.766 61.2358 820.602 61.3253C820.438 61.4148 820.319 61.5274 820.245 61.6632C820.171 61.7947 820.139 61.9364 820.149 62.0885C820.159 62.2361 820.209 62.3637 820.299 62.4711C820.393 62.5739 820.545 62.6619 820.755 62.7352C820.964 62.8041 821.254 62.8655 821.624 62.9193C822.161 62.9925 822.631 63.103 823.034 63.2506C823.44 63.3936 823.759 63.5992 823.991 63.8673C824.227 64.1308 824.359 64.4819 824.389 64.9206C824.416 65.3333 824.321 65.7104 824.104 66.0521C823.891 66.3892 823.573 66.6635 823.151 66.8749C822.729 67.0863 822.225 67.2116 821.638 67.2507ZM829.014 66.7585C828.306 66.8058 827.685 66.6967 827.153 66.4312C826.624 66.161 826.204 65.7768 825.892 65.2785C825.583 64.7798 825.408 64.2134 825.366 63.5793L825.348 63.3122C825.299 62.5824 825.396 61.9368 825.638 61.3754C825.879 60.8095 826.233 60.3605 826.7 60.0284C827.166 59.6918 827.709 59.5029 828.331 59.4614C829.008 59.4162 829.58 59.5264 830.048 59.7919C830.519 60.0527 830.885 60.4362 831.145 60.9424C831.406 61.4442 831.559 62.0361 831.604 62.718L831.652 63.4347L826.172 63.8003L826.093 62.6145L829.924 62.3589L829.916 62.2286C829.889 61.9599 829.82 61.7136 829.709 61.4898C829.598 61.2659 829.436 61.0913 829.223 60.966C829.013 60.836 828.744 60.782 828.414 60.804C828.07 60.8269 827.79 60.9416 827.573 61.1481C827.36 61.3543 827.206 61.6328 827.111 61.9838C827.021 62.3345 826.992 62.74 827.022 63.2004L827.04 63.4676C827.066 63.8585 827.162 64.2055 827.326 64.5087C827.494 64.8116 827.721 65.0451 828.007 65.2093C828.297 65.3688 828.635 65.4357 829.022 65.4099C829.391 65.3852 829.716 65.2915 829.998 65.1288C830.283 64.9614 830.523 64.7338 830.718 64.4459L831.643 65.2677C831.444 65.6126 831.127 65.9369 830.694 66.2407C830.264 66.5398 829.704 66.7125 829.014 66.7585ZM834.706 66.2478L833.038 66.3591L832.568 59.3096L834.151 59.2039L834.33 60.6186L834.706 66.2478ZM836.456 60.6011C836.355 60.5904 836.246 60.5846 836.128 60.5838C836.014 60.5826 835.903 60.5856 835.795 60.5929C835.443 60.6164 835.154 60.6989 834.928 60.8405C834.701 60.9778 834.535 61.1678 834.429 61.4104C834.327 61.6485 834.276 61.9289 834.276 62.2518L833.903 62.2505C833.863 61.6554 833.905 61.116 834.03 60.6321C834.155 60.1439 834.362 59.7526 834.652 59.4584C834.946 59.1596 835.326 58.9946 835.791 58.9636C835.882 58.9575 835.984 58.9594 836.098 58.9693C836.212 58.9748 836.3 58.9885 836.363 59.0105L836.456 60.6011Z" fill="#7A1600"/>
</g>
<defs>
<clipPath id="clip0_429_4825">
<rect width="1300" height="408" fill="white" transform="translate(0.5 0.365234)"/>
</clipPath>
</defs>
</svg>
