<svg width="1301" height="409" viewBox="0 0 1301 409" fill="none" xmlns="http://www.w3.org/2000/svg">
<g clip-path="url(#clip0_429_4647)">
<path d="M615.176 351.386L485.688 275.851L555.827 150.679L674.524 137.73L812.645 214.344L756.533 328.725L615.176 351.386Z" stroke="#F7DBFF" stroke-width="4" stroke-linecap="round"/>
<path d="M592.879 421.462L378.449 296.378L494.599 89.0972L691.158 67.6543L919.882 194.525L826.963 383.937L592.879 421.462Z" stroke="#F7DBFF" stroke-width="4" stroke-linecap="round"/>
<path d="M566.655 503.879L252.324 320.521L422.587 16.6692L710.721 -14.7637L1046.01 171.214L909.797 448.872L566.655 503.879Z" stroke="#F7DBFF" stroke-width="4" stroke-linecap="round"/>
<path d="M535.345 602.289L101.729 349.348L336.604 -69.8115L734.082 -113.173L1196.6 143.382L1008.7 526.407L535.345 602.289Z" stroke="#F7DBFF" stroke-width="4" stroke-linecap="round"/>
<path d="M495.203 728.451L-91.3379 386.305L226.371 -180.681L764.03 -239.335L1389.67 107.7L1135.5 625.807L495.203 728.451Z" stroke="#F7DBFF" stroke-width="4" stroke-linecap="round"/>
<path d="M533.664 259.138L563.584 191.69L693.113 182.022L767.441 225.167L734.486 293.115L617.675 309.852L533.664 259.138Z" fill="#FE6533"/>
<path d="M533.559 287.394V258.95L617.693 309.862V336.154L533.559 287.394Z" fill="#C7CDEE"/>
<path d="M533.559 287.394V258.95L617.693 309.862V336.154L533.559 287.394Z" fill="url(#paint0_linear_429_4647)"/>
<path d="M533.559 287.394V258.95L617.693 309.862V336.154L533.559 287.394Z" fill="#7A1600"/>
<path d="M617.693 336.147V309.843L734.816 292.33V317.458L617.693 336.147Z" fill="#6870FB"/>
<path d="M617.693 336.147V309.843L734.816 292.33V317.458L617.693 336.147Z" fill="url(#paint1_linear_429_4647)"/>
<path d="M617.693 336.147V309.843L734.816 292.33V317.458L617.693 336.147Z" fill="#7A1600"/>
<path d="M767.398 251.669V225.264L734.816 292.343V317.486L767.398 251.669Z" fill="#FE6533"/>
<path d="M767.398 251.669V225.264L734.816 292.343V317.486L767.398 251.669Z" fill="#7A1600"/>
<path d="M622.482 280.167V173.827L728.445 109.13V210.718C728.445 214.008 726.726 217.058 723.911 218.762L622.482 280.167Z" fill="#F7DBFF"/>
<path d="M632.404 274.188C612.81 288.065 604.957 283.476 600.391 280.086L613.596 262.388L632.404 274.188Z" fill="#EBDFE0"/>
<path d="M576.893 254.293V153.735L622.481 172.211V270.64C622.481 280.823 611.256 287.01 602.646 281.572L586.205 271.188C580.408 267.527 576.893 261.149 576.893 254.293Z" fill="#F7DBFF"/>
<path d="M677.332 90.0142L580.757 146.234C576.205 148.884 576.059 155.407 580.487 158.259L598.63 169.945C608.358 176.21 620.789 176.445 630.747 170.552L725.469 114.488C729.488 112.109 729.262 106.221 725.073 104.157L695.105 89.3963C689.451 86.6115 682.779 86.8435 677.332 90.0142Z" fill="#FEF8FF"/>
<path d="M597.877 103.261V157.409C597.877 157.409 600.666 165.157 610.178 164.811C619.69 164.465 621.765 156.336 621.765 156.336C621.765 142.847 619.405 112.624 621.765 100.821C624.498 87.1532 628.139 85.2694 631.279 79.4925C634.419 73.7157 657.771 50.4531 674.268 46.8668C682.536 45.0694 684.603 52.2591 684.603 56.0786V105.733C684.603 105.733 687.444 113.932 696.286 114.046C705.129 114.159 707.745 105.733 707.745 105.733V60.3475C707.745 51.0513 707.071 39.3625 696.286 30.9146C682.806 20.3547 658.765 22.6015 630.006 46.8668C606.999 66.279 599 92.5515 597.877 103.261Z" fill="#7A1600"/>
<path d="M683.441 161.421C674.761 161.421 663.017 169.806 660.096 182.988C658.458 190.376 657.37 201.152 667.645 203.094L662.28 234.475C661.939 236.471 664.112 237.936 665.834 236.871L685.077 224.973C687.522 223.462 688.805 220.618 688.32 217.785L684.281 194.171C688.023 188.504 690.786 181.544 691.41 177.359C692.596 169.39 692.121 161.421 683.441 161.421Z" fill="#7A1600"/>
<rect x="999.281" y="212.045" width="90.1794" height="90.1794" rx="14.6508" transform="rotate(-163.255 999.281 212.045)" fill="#F7DBFF"/>
<path fill-rule="evenodd" clip-rule="evenodd" d="M976.216 157.588C976.012 156.623 976.19 155.615 976.716 154.779C977.252 153.927 978.104 153.322 979.086 153.098C980.067 152.875 981.098 153.05 981.95 153.586C982.802 154.121 983.407 154.974 983.631 155.955L984.193 158.423C983.97 157.441 984.145 156.411 984.681 155.558C985.217 154.706 986.069 154.101 987.051 153.878C988.033 153.654 989.063 153.829 989.915 154.365C990.768 154.901 991.372 155.753 991.596 156.735L994.128 167.838C995.023 171.764 994.322 175.885 992.179 179.295C990.035 182.704 986.626 185.122 982.699 186.018L978.273 187.027C975.823 187.585 973.272 187.527 970.85 186.857C968.427 186.186 966.207 184.924 964.392 183.184L963.74 182.554C962.701 181.549 958.924 177.454 952.409 170.27C951.745 169.538 951.393 168.575 951.427 167.587C951.462 166.599 951.88 165.664 952.594 164.98C953.355 164.252 954.337 163.798 955.384 163.691C956.432 163.584 957.485 163.829 958.377 164.388L962.831 167.187L958.049 146.215C957.825 145.234 958 144.203 958.536 143.351C959.072 142.499 959.924 141.894 960.906 141.67C961.887 141.446 962.918 141.622 963.77 142.157C964.622 142.693 965.227 143.546 965.451 144.527L968.264 156.864C968.153 156.378 968.139 155.875 968.223 155.383C968.306 154.892 968.486 154.422 968.751 154C969.016 153.578 969.362 153.212 969.769 152.924C970.176 152.635 970.635 152.43 971.121 152.319C971.607 152.208 972.11 152.194 972.602 152.278C973.093 152.361 973.563 152.541 973.985 152.806C974.407 153.072 974.773 153.417 975.061 153.824C975.35 154.231 975.555 154.69 975.666 155.176L976.216 157.588ZM962.831 167.187L962.878 167.159L962.88 167.168L962.831 167.187Z" fill="#FE6533"/>
<path d="M951.373 140.067C951.373 140.067 951.99 133.145 958.514 131.497C965.038 129.849 968.858 135.633 968.858 135.633" stroke="#7A1600" stroke-width="3.6627" stroke-linecap="round"/>
<path d="M943.436 136.059C943.436 136.059 944.528 123.798 956.083 120.879C967.639 117.96 974.406 128.205 974.406 128.205" stroke="#7A1600" stroke-width="3.6627" stroke-linecap="round"/>
<path d="M898.734 210.83L896.811 210.252L903.55 201.417L904.761 201.782L904.191 203.229L898.734 210.83ZM903.685 203.077L903.995 201.551L905.213 201.917L905.972 213.008L904.049 212.43L903.685 203.077ZM904.611 210.166L899.206 208.54L899.651 207.063L905.055 208.689L904.611 210.166ZM909.912 214.343C909.155 214.115 908.576 213.759 908.174 213.275C907.774 212.787 907.535 212.225 907.458 211.59C907.382 210.95 907.446 210.288 907.652 209.604L907.72 209.379C907.927 208.69 908.238 208.102 908.654 207.615C909.075 207.125 909.584 206.789 910.181 206.605C910.784 206.419 911.462 206.439 912.215 206.665C912.812 206.845 913.301 207.121 913.681 207.494C914.067 207.864 914.324 208.299 914.452 208.8C914.581 209.297 914.564 209.831 914.402 210.404L912.753 209.908C912.822 209.645 912.832 209.39 912.783 209.141C912.733 208.892 912.623 208.673 912.451 208.482C912.284 208.292 912.055 208.154 911.763 208.066C911.339 207.938 910.977 207.951 910.677 208.105C910.382 208.26 910.135 208.501 909.937 208.83C909.745 209.155 909.589 209.513 909.471 209.906L909.404 210.131C909.286 210.524 909.216 210.911 909.196 211.292C909.177 211.67 909.25 212.005 909.415 212.298C909.582 212.587 909.882 212.797 910.315 212.927C910.575 213.005 910.823 213.025 911.059 212.987C911.3 212.945 911.51 212.851 911.688 212.706C911.87 212.562 912.002 212.37 912.084 212.132L913.733 212.628C913.576 213.117 913.301 213.519 912.907 213.834C912.514 214.148 912.055 214.353 911.529 214.449C911.007 214.545 910.468 214.51 909.912 214.343ZM917.246 216.549C916.489 216.321 915.909 215.966 915.508 215.482C915.108 214.993 914.869 214.432 914.791 213.796C914.715 213.157 914.78 212.495 914.986 211.811L915.054 211.585C915.261 210.896 915.572 210.309 915.987 209.822C916.408 209.332 916.917 208.995 917.515 208.812C918.118 208.625 918.796 208.645 919.548 208.871C920.146 209.051 920.634 209.328 921.015 209.701C921.401 210.07 921.658 210.506 921.785 211.007C921.915 211.503 921.898 212.038 921.736 212.611L920.087 212.115C920.156 211.852 920.166 211.596 920.116 211.348C920.067 211.099 919.956 210.879 919.785 210.688C919.618 210.499 919.389 210.36 919.097 210.272C918.673 210.145 918.311 210.158 918.011 210.311C917.716 210.466 917.469 210.708 917.271 211.036C917.078 211.361 916.923 211.72 916.805 212.112L916.737 212.338C916.619 212.73 916.55 213.117 916.53 213.499C916.511 213.876 916.584 214.211 916.749 214.505C916.916 214.794 917.216 215.003 917.649 215.134C917.909 215.212 918.157 215.232 918.392 215.193C918.634 215.151 918.843 215.058 919.021 214.912C919.204 214.768 919.336 214.577 919.418 214.338L921.067 214.834C920.909 215.324 920.634 215.726 920.241 216.04C919.848 216.355 919.389 216.56 918.863 216.655C918.341 216.752 917.802 216.717 917.246 216.549ZM924.819 218.828C924.075 218.604 923.482 218.254 923.038 217.777C922.601 217.297 922.318 216.742 922.189 216.112C922.065 215.483 922.103 214.835 922.304 214.169L922.388 213.889C922.619 213.123 922.966 212.498 923.429 212.016C923.894 211.529 924.429 211.205 925.034 211.044C925.641 210.879 926.271 210.894 926.923 211.09C927.634 211.304 928.178 211.637 928.555 212.089C928.937 212.537 929.165 213.07 929.237 213.689C929.311 214.303 929.24 214.968 929.025 215.684L928.798 216.437L923.045 214.706L923.42 213.46L927.442 214.671L927.483 214.534C927.559 214.248 927.583 213.97 927.556 213.698C927.528 213.426 927.429 213.185 927.259 212.974C927.094 212.761 926.839 212.602 926.492 212.497C926.132 212.389 925.801 212.399 925.498 212.527C925.201 212.656 924.936 212.882 924.705 213.206C924.478 213.53 924.292 213.934 924.146 214.418L924.062 214.698C923.938 215.109 923.902 215.501 923.954 215.874C924.01 216.249 924.153 216.576 924.383 216.854C924.619 217.129 924.939 217.327 925.345 217.449C925.733 217.566 926.102 217.595 926.453 217.536C926.81 217.475 927.143 217.334 927.453 217.114L928.085 218.311C927.748 218.588 927.3 218.798 926.739 218.943C926.184 219.084 925.544 219.046 924.819 218.828ZM931.838 220.939C931.158 220.735 930.62 220.441 930.223 220.058C929.832 219.672 929.572 219.253 929.444 218.802C929.321 218.352 929.32 217.926 929.441 217.525L931.124 218.031C931.057 218.32 931.067 218.574 931.155 218.794C931.249 219.012 931.394 219.192 931.589 219.335C931.789 219.48 932.01 219.589 932.252 219.662C932.535 219.747 932.783 219.782 932.996 219.766C933.211 219.746 933.386 219.687 933.52 219.588C933.66 219.486 933.756 219.348 933.808 219.175C933.855 219.02 933.856 218.868 933.811 218.721C933.77 218.574 933.652 218.414 933.455 218.241C933.264 218.068 932.962 217.871 932.552 217.648C932.065 217.382 931.651 217.098 931.309 216.796C930.967 216.495 930.725 216.166 930.583 215.81C930.448 215.451 930.442 215.064 930.567 214.649C930.689 214.243 930.918 213.904 931.254 213.632C931.589 213.36 932.004 213.186 932.499 213.111C932.996 213.032 933.541 213.081 934.133 213.26C934.758 213.448 935.263 213.714 935.646 214.058C936.036 214.399 936.298 214.784 936.433 215.212C936.569 215.636 936.569 216.074 936.433 216.525L934.682 215.999C934.77 215.707 934.74 215.424 934.594 215.151C934.448 214.874 934.164 214.671 933.74 214.544C933.484 214.467 933.255 214.443 933.053 214.471C932.85 214.5 932.685 214.57 932.557 214.68C932.431 214.786 932.343 214.919 932.295 215.079C932.249 215.234 932.251 215.384 932.302 215.529C932.359 215.67 932.481 215.819 932.668 215.974C932.856 216.125 933.129 216.3 933.488 216.497C934.01 216.779 934.449 217.072 934.804 217.378C935.166 217.681 935.414 218.014 935.548 218.378C935.688 218.738 935.689 219.149 935.55 219.609C935.42 220.043 935.178 220.393 934.824 220.659C934.476 220.923 934.046 221.081 933.532 221.136C933.018 221.19 932.453 221.125 931.838 220.939ZM939.062 223.113C938.382 222.909 937.844 222.615 937.447 222.232C937.056 221.845 936.797 221.427 936.669 220.975C936.545 220.526 936.544 220.1 936.665 219.699L938.348 220.205C938.281 220.493 938.291 220.748 938.379 220.968C938.473 221.185 938.618 221.365 938.813 221.509C939.014 221.654 939.235 221.762 939.476 221.835C939.759 221.92 940.007 221.955 940.221 221.94C940.436 221.92 940.61 221.86 940.744 221.762C940.884 221.659 940.981 221.522 941.033 221.348C941.079 221.193 941.08 221.042 941.035 220.894C940.995 220.748 940.876 220.588 940.68 220.414C940.488 220.242 940.187 220.044 939.776 219.822C939.289 219.556 938.875 219.272 938.533 218.97C938.191 218.668 937.949 218.339 937.808 217.983C937.672 217.624 937.667 217.237 937.791 216.822C937.914 216.416 938.142 216.077 938.478 215.805C938.813 215.533 939.229 215.36 939.724 215.285C940.22 215.205 940.765 215.255 941.358 215.433C941.982 215.621 942.487 215.887 942.871 216.232C943.26 216.573 943.523 216.957 943.657 217.386C943.793 217.81 943.793 218.247 943.658 218.699L941.906 218.172C941.994 217.88 941.965 217.598 941.818 217.325C941.673 217.047 941.388 216.845 940.964 216.717C940.708 216.64 940.479 216.616 940.277 216.645C940.074 216.673 939.909 216.743 939.781 216.854C939.655 216.96 939.568 217.093 939.52 217.253C939.473 217.408 939.475 217.557 939.526 217.702C939.583 217.844 939.705 217.992 939.892 218.148C940.08 218.299 940.353 218.473 940.712 218.671C941.234 218.952 941.673 219.246 942.028 219.552C942.39 219.854 942.638 220.188 942.772 220.551C942.912 220.912 942.913 221.322 942.774 221.783C942.644 222.216 942.402 222.566 942.048 222.833C941.701 223.096 941.27 223.255 940.756 223.309C940.242 223.364 939.678 223.298 939.062 223.113ZM955.828 224.442C955.581 225.084 955.222 225.615 954.752 226.036C954.282 226.456 953.721 226.728 953.067 226.849C952.414 226.971 951.681 226.91 950.87 226.666C950.044 226.417 949.386 226.01 948.894 225.445C948.404 224.874 948.102 224.184 947.988 223.374C947.874 222.564 947.961 221.677 948.251 220.715L948.479 219.956C948.77 218.989 949.189 218.202 949.734 217.595C950.286 216.985 950.928 216.579 951.66 216.377C952.392 216.174 953.173 216.198 954.004 216.448C954.811 216.691 955.446 217.043 955.908 217.506C956.377 217.965 956.685 218.503 956.833 219.119C956.982 219.731 956.988 220.382 956.85 221.072L955.03 220.524C955.154 219.88 955.115 219.341 954.912 218.907C954.716 218.47 954.264 218.145 953.557 217.932C953.06 217.783 952.605 217.78 952.194 217.925C951.787 218.071 951.426 218.361 951.112 218.793C950.799 219.221 950.536 219.789 950.324 220.496L950.091 221.269C949.888 221.944 949.788 222.548 949.792 223.081C949.797 223.61 949.922 224.053 950.168 224.41C950.414 224.768 950.796 225.025 951.316 225.181C951.791 225.324 952.196 225.366 952.531 225.308C952.867 225.25 953.153 225.102 953.389 224.865C953.63 224.624 953.837 224.301 954.009 223.895L955.828 224.442ZM957.005 224.252C957.222 223.531 957.552 222.929 957.996 222.446C958.439 221.963 958.966 221.634 959.576 221.459C960.191 221.281 960.862 221.301 961.587 221.519C962.321 221.74 962.898 222.096 963.318 222.585C963.739 223.07 963.999 223.635 964.098 224.282C964.201 224.93 964.145 225.614 963.928 226.335L963.885 226.478C963.669 227.194 963.339 227.796 962.894 228.284C962.455 228.768 961.926 229.097 961.307 229.269C960.693 229.442 960.021 229.419 959.291 229.199C958.561 228.98 957.988 228.628 957.572 228.145C957.155 227.661 956.895 227.096 956.792 226.448C956.689 225.795 956.746 225.111 956.961 224.395L957.005 224.252ZM958.713 224.922C958.584 225.351 958.524 225.763 958.535 226.159C958.546 226.551 958.645 226.891 958.831 227.181C959.019 227.466 959.314 227.669 959.715 227.79C960.116 227.911 960.474 227.904 960.788 227.77C961.103 227.631 961.372 227.401 961.593 227.079C961.82 226.755 961.998 226.378 962.127 225.949L962.17 225.806C962.297 225.381 962.355 224.974 962.344 224.582C962.338 224.188 962.24 223.845 962.049 223.553C961.864 223.259 961.569 223.051 961.163 222.929C960.766 222.809 960.409 222.821 960.093 222.965C959.777 223.104 959.506 223.335 959.279 223.66C959.058 223.982 958.884 224.354 958.756 224.778L958.713 224.922ZM965.859 231.026L964.107 230.499L966.334 223.097L967.983 223.593L967.61 225.204L965.859 231.026ZM966.207 226.819C966.428 226.1 966.74 225.509 967.142 225.049C967.55 224.585 968.02 224.271 968.552 224.107C969.085 223.94 969.646 223.944 970.234 224.121C970.708 224.264 971.094 224.479 971.39 224.767C971.687 225.051 971.871 225.424 971.94 225.888C972.014 226.353 971.948 226.927 971.743 227.611L970.312 232.366L968.554 231.837L969.989 227.069C970.09 226.731 970.123 226.45 970.086 226.225C970.049 226 969.947 225.818 969.78 225.678C969.618 225.54 969.4 225.429 969.126 225.347C968.848 225.263 968.585 225.244 968.338 225.289C968.095 225.335 967.869 225.434 967.66 225.585C967.455 225.737 967.275 225.931 967.119 226.168C966.968 226.406 966.847 226.676 966.756 226.977L966.207 226.819ZM977.247 227.79L973.026 226.52L973.415 225.227L977.636 226.497L977.247 227.79ZM976.881 224.293L974.747 231.388C974.68 231.611 974.66 231.792 974.688 231.929C974.718 232.063 974.784 232.167 974.885 232.242C974.992 232.319 975.124 232.381 975.284 232.429C975.398 232.464 975.51 232.49 975.619 232.508C975.728 232.526 975.814 232.537 975.877 232.541L975.472 233.889C975.317 233.892 975.143 233.882 974.951 233.859C974.759 233.836 974.542 233.788 974.3 233.715C973.913 233.598 973.589 233.426 973.329 233.199C973.071 232.967 972.904 232.671 972.828 232.31C972.757 231.95 972.8 231.513 972.955 230.997L975.13 223.766L976.881 224.293ZM978.392 234.797L976.64 234.27L978.867 226.868L980.53 227.368L980.17 228.886L978.392 234.797ZM982.354 229.685C982.255 229.635 982.145 229.587 982.024 229.541C981.909 229.496 981.794 229.457 981.68 229.422C981.31 229.311 980.982 229.285 980.696 229.343C980.412 229.397 980.168 229.527 979.967 229.735C979.771 229.94 979.611 230.207 979.486 230.538L979.105 230.393C979.293 229.769 979.543 229.232 979.857 228.785C980.172 228.332 980.535 228.011 980.945 227.821C981.361 227.628 981.814 227.605 982.302 227.752C982.397 227.781 982.502 227.822 982.615 227.876C982.729 227.925 982.814 227.973 982.87 228.02L982.354 229.685ZM982.317 231.867C982.534 231.147 982.864 230.545 983.308 230.061C983.751 229.578 984.278 229.249 984.888 229.075C985.503 228.897 986.174 228.917 986.899 229.135C987.633 229.356 988.21 229.711 988.63 230.2C989.051 230.685 989.311 231.251 989.41 231.897C989.513 232.545 989.457 233.23 989.24 233.95L989.197 234.094C988.981 234.81 988.651 235.412 988.206 235.899C987.767 236.384 987.238 236.712 986.619 236.884C986.005 237.058 985.333 237.034 984.603 236.815C983.873 236.595 983.3 236.244 982.884 235.76C982.467 235.277 982.207 234.711 982.104 234.063C982.001 233.411 982.058 232.727 982.274 232.011L982.317 231.867ZM984.025 232.538C983.896 232.966 983.836 233.379 983.847 233.775C983.858 234.166 983.957 234.507 984.144 234.797C984.331 235.082 984.626 235.285 985.027 235.406C985.428 235.526 985.786 235.52 986.1 235.385C986.415 235.246 986.684 235.016 986.905 234.695C987.132 234.37 987.31 233.993 987.439 233.565L987.482 233.421C987.609 232.997 987.667 232.589 987.656 232.198C987.65 231.803 987.552 231.46 987.361 231.169C987.176 230.875 986.881 230.666 986.475 230.544C986.078 230.425 985.721 230.437 985.405 230.58C985.089 230.719 984.818 230.951 984.591 231.276C984.37 231.597 984.196 231.97 984.068 232.394L984.025 232.538ZM991.308 238.683L989.549 238.154L992.711 227.646L994.469 228.175L991.308 238.683ZM995.816 240.188C995.136 239.984 994.598 239.69 994.201 239.307C993.81 238.921 993.55 238.502 993.422 238.051C993.299 237.601 993.298 237.175 993.419 236.774L995.102 237.28C995.035 237.569 995.045 237.823 995.133 238.043C995.227 238.261 995.372 238.441 995.567 238.584C995.767 238.729 995.988 238.838 996.23 238.91C996.513 238.996 996.761 239.03 996.974 239.015C997.189 238.995 997.364 238.936 997.498 238.837C997.638 238.735 997.734 238.597 997.786 238.424C997.833 238.269 997.834 238.117 997.789 237.969C997.748 237.823 997.63 237.663 997.433 237.49C997.241 237.317 996.94 237.12 996.53 236.897C996.043 236.631 995.628 236.347 995.287 236.045C994.945 235.744 994.703 235.415 994.561 235.059C994.426 234.7 994.42 234.313 994.545 233.898C994.667 233.492 994.896 233.153 995.232 232.881C995.567 232.608 995.982 232.435 996.477 232.36C996.974 232.281 997.518 232.33 998.111 232.509C998.736 232.697 999.241 232.963 999.624 233.307C1000.01 233.648 1000.28 234.033 1000.41 234.461C1000.55 234.885 1000.55 235.323 1000.41 235.774L998.66 235.247C998.748 234.956 998.718 234.673 998.572 234.4C998.426 234.123 998.142 233.92 997.718 233.793C997.462 233.716 997.233 233.692 997.031 233.72C996.828 233.749 996.663 233.818 996.535 233.929C996.409 234.035 996.321 234.168 996.273 234.328C996.227 234.483 996.229 234.633 996.28 234.778C996.337 234.919 996.459 235.068 996.646 235.223C996.834 235.374 997.107 235.549 997.466 235.746C997.988 236.027 998.427 236.321 998.782 236.627C999.144 236.93 999.391 237.263 999.526 237.627C999.666 237.987 999.667 238.398 999.528 238.858C999.398 239.292 999.156 239.642 998.802 239.908C998.454 240.172 998.023 240.33 997.51 240.385C996.996 240.439 996.431 240.374 995.816 240.188Z" fill="#7A1600"/>
<path d="M388.779 141.449L354.617 137.691C352.546 137.463 350.47 138.067 348.844 139.371C347.219 140.674 346.178 142.57 345.95 144.641L339.079 207.108C338.852 209.179 339.456 211.256 340.759 212.881C342.062 214.507 343.958 215.548 346.029 215.776L392.88 220.928C394.951 221.156 397.027 220.552 398.653 219.249C400.278 217.945 401.319 216.05 401.547 213.979L407.043 164.003L388.779 141.449Z" fill="#F7DBFF"/>
<path d="M388.301 145.725L387.6 151.9C386.97 157.453 391.012 162.444 396.575 162.982L402.771 163.58" fill="#FAE8FF"/>
<path d="M300.303 204.165L316.27 173.732C317.238 171.887 318.899 170.502 320.888 169.882C322.877 169.262 325.031 169.457 326.876 170.425L382.526 199.622C384.371 200.59 385.756 202.252 386.376 204.241C386.996 206.23 386.801 208.383 385.833 210.228L363.935 251.966C362.967 253.811 361.306 255.196 359.317 255.816C357.328 256.436 355.174 256.24 353.329 255.272L308.808 231.914L300.303 204.165Z" fill="#F7DBFF"/>
<path d="M304.118 206.157L309.631 209.025C314.589 211.604 316.471 217.746 313.809 222.66L310.844 228.133" fill="#FAE8FF"/>
<path d="M363.73 152.451L330.212 160.048C328.18 160.508 326.414 161.757 325.303 163.519C324.192 165.282 323.827 167.414 324.287 169.445L338.18 230.735C338.64 232.767 339.889 234.533 341.652 235.644C343.414 236.755 345.546 237.12 347.578 236.66L393.545 226.24C395.577 225.78 397.342 224.531 398.453 222.769C399.564 221.006 399.93 218.875 399.469 216.843L388.355 167.81L363.73 152.451Z" fill="#FE6533"/>
<path d="M363.733 152.443L366.023 162.714C367.239 168.169 372.69 171.568 378.123 170.26L388.367 167.795" fill="#7A1600"/>
<g clip-path="url(#clip1_429_4647)">
<path d="M368.983 197.623C367.604 199.271 365.734 200.436 363.646 200.945C356.819 202.492 351.149 195.575 351.149 195.575C351.85 193.039 353.085 190.682 354.771 188.663M358.114 186.039C358.749 185.73 359.419 185.495 360.109 185.341C366.936 183.793 372.605 190.711 372.605 190.711C372.264 191.953 371.794 193.156 371.204 194.3M364.413 194.742C364.211 195.09 363.94 195.394 363.617 195.635C363.295 195.876 362.927 196.05 362.535 196.146C362.144 196.242 361.738 196.258 361.34 196.194C360.942 196.129 360.562 195.985 360.221 195.77C359.88 195.555 359.586 195.274 359.356 194.943C359.127 194.612 358.966 194.238 358.884 193.844C358.802 193.449 358.8 193.043 358.878 192.647C358.957 192.252 359.114 191.877 359.341 191.544" stroke="white" stroke-width="2" stroke-linecap="round" stroke-linejoin="round"/>
<path d="M348.719 184.847L375.038 201.439" stroke="white" stroke-width="2" stroke-linecap="round" stroke-linejoin="round"/>
</g>
<path d="M350.327 264.749L344.969 265.963L344.631 264.472L349.989 263.258L350.327 264.749ZM345.498 265.843L343.645 266.263L341.346 256.119L343.199 255.699L345.498 265.843ZM348.611 260.413L343.95 261.469L343.618 260.006L348.28 258.95L348.611 260.413ZM348.339 256.109L343.009 257.317L342.669 255.819L347.999 254.611L348.339 256.109ZM353.302 264.074L351.518 264.479L349.809 256.94L351.488 256.56L351.958 258.145L353.302 264.074ZM351.532 260.242C351.37 259.507 351.351 258.84 351.474 258.24C351.6 257.635 351.855 257.131 352.237 256.727C352.618 256.318 353.108 256.046 353.707 255.91C354.19 255.801 354.632 255.798 355.031 255.903C355.43 256.003 355.774 256.238 356.063 256.607C356.356 256.975 356.582 257.507 356.74 258.204L357.837 263.046L356.047 263.452L354.946 258.596C354.868 258.252 354.758 257.992 354.615 257.814C354.472 257.636 354.294 257.528 354.08 257.489C353.87 257.448 353.626 257.459 353.348 257.523C353.064 257.587 352.826 257.699 352.633 257.86C352.445 258.02 352.296 258.218 352.188 258.452C352.085 258.685 352.024 258.943 352.005 259.226C351.991 259.508 352.018 259.802 352.088 260.108L351.532 260.242ZM362.655 262.101C361.884 262.276 361.205 262.251 360.617 262.028C360.028 261.8 359.544 261.429 359.163 260.914C358.782 260.395 358.512 259.787 358.354 259.091L358.302 258.861C358.143 258.159 358.125 257.495 358.246 256.866C358.371 256.233 358.648 255.689 359.077 255.235C359.51 254.775 360.11 254.459 360.877 254.285C361.485 254.147 362.047 254.147 362.561 254.284C363.079 254.416 363.517 254.668 363.875 255.041C364.232 255.409 364.481 255.883 364.622 256.461L362.943 256.842C362.874 256.579 362.756 256.352 362.591 256.16C362.425 255.968 362.221 255.831 361.978 255.75C361.739 255.667 361.471 255.659 361.174 255.727C360.742 255.825 360.433 256.014 360.248 256.295C360.067 256.576 359.972 256.907 359.961 257.291C359.954 257.669 359.995 258.057 360.086 258.457L360.138 258.686C360.229 259.086 360.359 259.457 360.529 259.799C360.699 260.137 360.928 260.392 361.216 260.566C361.504 260.736 361.868 260.77 362.309 260.67C362.574 260.61 362.799 260.505 362.985 260.356C363.175 260.201 363.311 260.016 363.394 259.802C363.482 259.586 363.503 259.355 363.456 259.106L365.136 258.726C365.24 259.229 365.199 259.715 365.011 260.182C364.824 260.65 364.525 261.054 364.115 261.396C363.709 261.738 363.222 261.972 362.655 262.101ZM368.755 260.572L366.971 260.976L365.263 253.437L366.956 253.054L367.391 254.552L368.755 260.572ZM369.685 254.171C369.574 254.177 369.455 254.189 369.327 254.208C369.204 254.226 369.085 254.249 368.969 254.275C368.592 254.36 368.294 254.499 368.074 254.69C367.852 254.877 367.705 255.111 367.632 255.391C367.562 255.666 367.555 255.977 367.61 256.326L367.206 256.388C367.062 255.752 367.016 255.162 367.069 254.618C367.12 254.069 367.277 253.611 367.541 253.243C367.808 252.87 368.19 252.627 368.687 252.515C368.784 252.493 368.896 252.477 369.021 252.468C369.145 252.455 369.242 252.455 369.314 252.468L369.685 254.171ZM374.557 251.331L376.459 250.899L375.417 260.263C375.389 260.465 375.342 260.688 375.276 260.932C375.214 261.176 375.114 261.416 374.977 261.652C374.846 261.892 374.66 262.105 374.419 262.291C374.178 262.478 373.867 262.614 373.486 262.7C373.384 262.724 373.283 262.739 373.182 262.747C373.087 262.759 372.993 262.766 372.901 262.767C372.808 262.769 372.715 262.768 372.622 262.765L372.311 261.392C372.353 261.387 372.408 261.38 372.474 261.37C372.54 261.359 372.594 261.35 372.636 261.34C373.049 261.247 373.342 261.104 373.514 260.914C373.69 260.723 373.797 260.442 373.835 260.072L374.049 258.493L374.557 251.331ZM374.475 257.173L375.22 259.04L374.042 259.564L369.575 252.46L371.498 252.024L374.475 257.173ZM382.854 257.522C382.38 257.63 381.949 257.635 381.56 257.537C381.171 257.435 380.819 257.249 380.503 256.978C380.193 256.707 379.916 256.369 379.673 255.965C379.429 255.557 379.216 255.1 379.033 254.594L378.922 254.106C378.839 253.354 378.851 252.672 378.957 252.062C379.063 251.452 379.284 250.943 379.621 250.534C379.963 250.125 380.445 249.849 381.068 249.708C381.704 249.564 382.277 249.603 382.786 249.824C383.295 250.046 383.727 250.419 384.08 250.945C384.437 251.464 384.703 252.108 384.877 252.874L384.91 253.02C385.076 253.754 385.111 254.437 385.015 255.069C384.923 255.696 384.696 256.226 384.335 256.659C383.979 257.092 383.485 257.379 382.854 257.522ZM379.751 261.126L377.386 250.689L379.03 250.317L379.498 251.734L381.535 260.722L379.751 261.126ZM382.041 256.198C382.431 256.109 382.72 255.929 382.907 255.657C383.099 255.384 383.207 255.054 383.232 254.668C383.26 254.276 383.225 253.861 383.126 253.425L383.093 253.278C382.992 252.832 382.845 252.443 382.652 252.111C382.46 251.778 382.219 251.535 381.93 251.381C381.64 251.222 381.3 251.187 380.91 251.275C380.622 251.34 380.386 251.443 380.203 251.582C380.02 251.721 379.878 251.892 379.778 252.096C379.681 252.294 379.62 252.52 379.594 252.775C379.573 253.024 379.58 253.293 379.616 253.583L379.885 254.767C380.013 255.095 380.171 255.384 380.36 255.634C380.547 255.879 380.778 256.057 381.052 256.166C381.33 256.273 381.66 256.284 382.041 256.198ZM389.236 249.388L384.937 250.362L384.639 249.045L388.937 248.071L389.236 249.388ZM387.195 246.525L388.833 253.75C388.884 253.977 388.956 254.144 389.049 254.25C389.14 254.352 389.249 254.41 389.374 254.426C389.505 254.44 389.651 254.429 389.814 254.392C389.93 254.366 390.04 254.333 390.143 254.295C390.247 254.257 390.327 254.224 390.385 254.197L390.696 255.569C390.562 255.648 390.406 255.725 390.228 255.8C390.049 255.874 389.837 255.94 389.591 255.995C389.196 256.085 388.83 256.095 388.492 256.025C388.152 255.95 387.861 255.775 387.618 255.498C387.379 255.22 387.2 254.818 387.081 254.293L385.412 246.929L387.195 246.525ZM390.55 244.651C390.866 244.579 391.135 244.613 391.357 244.754C391.579 244.889 391.72 245.091 391.781 245.361C391.842 245.63 391.802 245.876 391.662 246.098C391.521 246.316 391.293 246.46 390.977 246.532C390.661 246.604 390.392 246.572 390.171 246.436C389.954 246.295 389.814 246.09 389.753 245.82C389.692 245.551 389.73 245.308 389.866 245.092C390.006 244.869 390.234 244.722 390.55 244.651ZM393.816 254.891L392.026 255.297L390.317 247.758L392.108 247.352L393.816 254.891ZM394.444 250.713C394.278 249.979 394.269 249.292 394.417 248.653C394.565 248.014 394.861 247.468 395.306 247.016C395.754 246.558 396.347 246.245 397.085 246.078C397.833 245.908 398.51 245.933 399.117 246.152C399.722 246.366 400.227 246.73 400.632 247.244C401.041 247.757 401.329 248.38 401.495 249.114L401.528 249.261C401.694 249.99 401.703 250.676 401.556 251.32C401.412 251.958 401.113 252.505 400.66 252.959C400.211 253.412 399.615 253.723 398.871 253.892C398.128 254.06 397.456 254.037 396.856 253.821C396.255 253.606 395.75 253.242 395.341 252.729C394.93 252.211 394.643 251.588 394.477 250.859L394.444 250.713ZM396.261 250.455C396.36 250.891 396.511 251.279 396.715 251.619C396.918 251.954 397.172 252.201 397.477 252.362C397.781 252.518 398.137 252.549 398.546 252.457C398.955 252.364 399.263 252.182 399.47 251.91C399.676 251.634 399.796 251.302 399.83 250.913C399.867 250.519 399.837 250.103 399.738 249.667L399.704 249.52C399.607 249.088 399.456 248.705 399.253 248.37C399.054 248.029 398.8 247.779 398.49 247.62C398.184 247.455 397.824 247.419 397.411 247.513C397.007 247.604 396.702 247.791 396.497 248.072C396.291 248.348 396.17 248.683 396.132 249.077C396.098 249.466 396.13 249.876 396.228 250.308L396.261 250.455ZM405.487 252.246L403.703 252.65L401.994 245.111L403.673 244.731L404.143 246.317L405.487 252.246ZM403.717 248.413C403.555 247.678 403.536 247.011 403.659 246.412C403.785 245.807 404.04 245.302 404.422 244.898C404.803 244.49 405.293 244.217 405.892 244.081C406.375 243.972 406.817 243.97 407.216 244.074C407.615 244.174 407.959 244.409 408.248 244.778C408.541 245.146 408.767 245.679 408.925 246.375L410.022 251.218L408.232 251.624L407.131 246.767C407.053 246.424 406.943 246.163 406.8 245.985C406.657 245.808 406.479 245.699 406.265 245.66C406.055 245.619 405.811 245.631 405.532 245.694C405.249 245.758 405.011 245.871 404.818 246.032C404.629 246.192 404.481 246.389 404.373 246.623C404.27 246.857 404.209 247.115 404.19 247.397C404.175 247.679 404.203 247.973 404.273 248.28L403.717 248.413Z" fill="#7A1600"/>
</g>
<defs>
<linearGradient id="paint0_linear_429_4647" x1="533.559" y1="273.243" x2="761.136" y2="464.636" gradientUnits="userSpaceOnUse">
<stop stop-color="#FFCFC5"/>
<stop offset="1" stop-color="#FF7152"/>
</linearGradient>
<linearGradient id="paint1_linear_429_4647" x1="617.693" y1="300.442" x2="651.358" y2="367.856" gradientUnits="userSpaceOnUse">
<stop stop-color="#FFCFC5"/>
<stop offset="1" stop-color="#FF7152"/>
</linearGradient>
<clipPath id="clip0_429_4647">
<rect width="1300" height="408" fill="white" transform="translate(0.5 0.365234)"/>
</clipPath>
<clipPath id="clip1_429_4647">
<rect width="24" height="24" fill="white" transform="translate(347.521 184.093) rotate(-12.7713)"/>
</clipPath>
</defs>
</svg>
