<svg width="1300" height="409" viewBox="0 0 1300 409" fill="none" xmlns="http://www.w3.org/2000/svg">
<g clip-path="url(#clip0_429_4189)">
<path d="M673.402 181.858C672.05 180.506 670.445 179.433 668.678 178.701C666.911 177.969 665.017 177.592 663.105 177.592C661.192 177.592 659.299 177.969 657.532 178.701C655.765 179.433 654.16 180.506 652.808 181.858C651.258 183.408 648.745 183.408 647.196 181.858C644.465 179.127 640.761 177.593 636.898 177.593C633.036 177.593 629.332 179.127 626.601 181.858C623.87 184.589 622.336 188.293 622.336 192.156C622.336 196.018 623.87 199.722 626.601 202.453L629.407 205.259L642.931 218.782C646.836 222.688 653.167 222.688 657.073 218.782L670.596 205.259L673.402 202.453C674.755 201.101 675.828 199.496 676.56 197.729C677.292 195.962 677.669 194.068 677.669 192.156C677.669 190.243 677.292 188.349 676.56 186.583C675.828 184.816 674.755 183.21 673.402 181.858Z" fill="#F7F9B3"/>
<path d="M724.415 138.554C720.115 134.252 715.011 130.84 709.392 128.512C703.773 126.184 697.751 124.985 691.669 124.985C685.587 124.985 679.565 126.184 673.946 128.512C668.328 130.84 663.223 134.252 658.923 138.554L657.071 140.406C653.166 144.311 646.834 144.311 642.929 140.406L641.077 138.554C632.392 129.869 620.613 124.99 608.331 124.99C596.049 124.99 584.27 129.869 575.585 138.554C566.901 147.238 562.021 159.017 562.021 171.3C562.021 183.582 566.901 195.361 575.585 204.045L584.508 212.969L642.929 271.389C646.834 275.295 653.166 275.295 657.071 271.389L715.492 212.969L724.415 204.045C728.717 199.746 732.129 194.641 734.457 189.022C736.785 183.404 737.983 177.381 737.983 171.3C737.983 165.218 736.785 159.195 734.457 153.577C732.129 147.958 728.717 142.853 724.415 138.554Z" stroke="#F7F9B3" stroke-width="4" stroke-linecap="round" stroke-linejoin="round"/>
<path d="M773.175 97.1571C766.058 90.0367 757.608 84.3882 748.308 80.5345C739.007 76.6808 729.038 74.6973 718.971 74.6973C708.903 74.6973 698.935 76.6808 689.634 80.5345C680.333 84.3882 671.883 90.0367 664.766 97.1571L657.067 104.856C653.161 108.762 646.83 108.762 642.924 104.856L635.225 97.1571C620.849 82.7811 601.351 74.7047 581.02 74.7047C560.69 74.7047 541.192 82.7811 526.816 97.1571C512.44 111.533 504.363 131.031 504.363 151.362C504.363 171.693 512.44 191.191 526.816 205.567L541.586 220.337L642.924 321.675C646.83 325.581 653.161 325.581 657.067 321.675L758.405 220.337L773.175 205.567C780.296 198.449 785.944 189.999 789.798 180.699C793.652 171.398 795.635 161.429 795.635 151.362C795.635 141.294 793.652 131.326 789.798 122.025C785.944 112.724 780.296 104.274 773.175 97.1571Z" stroke="#F7F9B3" stroke-width="4" stroke-linecap="round" stroke-linejoin="round"/>
<path d="M827.575 50.9751C817.314 40.7099 805.132 32.5668 791.724 27.011C778.315 21.4553 763.944 18.5957 749.43 18.5957C734.916 18.5957 720.544 21.4553 707.136 27.011C693.728 32.5668 681.545 40.7099 671.285 50.9751L657.062 65.198C653.157 69.1032 646.825 69.1032 642.92 65.198L628.697 50.9751C607.972 30.2498 579.862 18.6064 550.552 18.6064C521.242 18.6064 493.133 30.2498 472.408 50.9751C451.682 71.7004 440.039 99.8099 440.039 129.12C440.039 158.43 451.682 186.539 472.408 207.265L493.702 228.559L642.92 377.777C646.825 381.682 653.157 381.682 657.062 377.777L806.281 228.559L827.575 207.265C837.84 197.004 845.983 184.822 851.539 171.414C857.094 158.005 859.954 143.634 859.954 129.12C859.954 114.606 857.094 100.234 851.539 86.8261C845.983 73.4178 837.84 61.2355 827.575 50.9751Z" stroke="#F7F9B3" stroke-width="4" stroke-linecap="round" stroke-linejoin="round"/>
<path d="M907.376 -16.764C892.505 -31.6419 874.849 -43.4442 855.415 -51.4965C835.982 -59.5488 815.152 -63.6934 794.116 -63.6934C773.081 -63.6934 752.251 -59.5488 732.818 -51.4965C713.384 -43.4442 695.727 -31.6419 680.856 -16.764L657.065 7.02761C653.16 10.9328 646.828 10.9328 642.923 7.02761L619.131 -16.764C589.093 -46.8024 548.352 -63.6778 505.871 -63.6778C463.39 -63.6778 422.65 -46.8024 392.611 -16.764C362.573 13.2745 345.697 54.0153 345.697 96.496C345.697 138.977 362.573 179.718 392.611 209.756L423.474 240.619L642.923 460.068C646.828 463.973 653.16 463.973 657.065 460.068L876.514 240.619L907.376 209.756C922.254 194.885 934.057 177.228 942.109 157.795C950.161 138.361 954.306 117.532 954.306 96.496C954.306 75.4603 950.161 54.6307 942.109 35.1972C934.057 15.7637 922.254 -1.89295 907.376 -16.764Z" stroke="#F7F9B3" stroke-width="4" stroke-linecap="round" stroke-linejoin="round"/>
<path d="M1022.07 -114.134C1000.57 -135.642 975.049 -152.704 946.955 -164.345C918.86 -175.986 888.748 -181.978 858.338 -181.978C827.927 -181.978 797.815 -175.986 769.721 -164.345C741.626 -152.704 716.101 -135.642 694.603 -114.134L657.057 -76.5882C653.152 -72.6829 646.82 -72.6829 642.915 -76.5881L605.369 -114.134C561.944 -157.559 503.047 -181.955 441.634 -181.955C380.222 -181.955 321.325 -157.559 277.899 -114.134C234.474 -70.7086 210.078 -11.8114 210.078 49.6011C210.078 111.014 234.474 169.911 277.899 213.336L322.516 257.953L642.915 578.352C646.82 582.257 653.152 582.257 657.057 578.352L977.456 257.953L1022.07 213.336C1043.58 191.838 1060.64 166.312 1072.28 138.218C1083.92 110.124 1089.92 80.0115 1089.92 49.6011C1089.92 19.1907 1083.92 -10.9217 1072.28 -39.0159C1060.64 -67.1101 1043.58 -92.6354 1022.07 -114.134Z" stroke="#F7F9B3" stroke-width="4" stroke-linecap="round" stroke-linejoin="round"/>
<path d="M1165.07 -235.522C1135.31 -265.296 1099.97 -288.916 1061.08 -305.03C1022.19 -321.145 980.507 -329.439 938.409 -329.439C896.311 -329.439 854.626 -321.145 815.735 -305.03C776.844 -288.916 741.509 -265.296 711.748 -235.522L657.056 -180.829C653.15 -176.924 646.819 -176.924 642.914 -180.829L588.221 -235.522C528.107 -295.636 446.575 -329.408 361.56 -329.408C276.546 -329.408 195.014 -295.636 134.9 -235.522C74.7855 -175.408 41.0137 -93.8754 41.0137 -8.8612C41.0137 76.153 74.7855 157.685 134.9 217.8L196.663 279.563L642.914 725.813C646.819 729.719 653.15 729.719 657.056 725.813L1103.31 279.563L1165.07 217.8C1194.84 188.039 1218.46 152.704 1234.58 113.813C1250.69 74.9215 1258.99 33.2364 1258.99 -8.8612C1258.99 -50.9588 1250.69 -92.6438 1234.58 -131.535C1218.46 -170.426 1194.84 -205.761 1165.07 -235.522Z" stroke="#F7F9B3" stroke-width="4" stroke-linecap="round" stroke-linejoin="round"/>
<path d="M1305.18 -354.461C1267.32 -392.335 1222.38 -422.379 1172.91 -442.877C1123.43 -463.375 1070.41 -473.925 1016.86 -473.925C963.313 -473.925 910.288 -463.375 860.818 -442.877C811.348 -422.379 766.401 -392.335 728.545 -354.461L657.051 -282.967C653.146 -279.062 646.815 -279.062 642.909 -282.967L571.416 -354.461C494.949 -430.927 391.239 -473.886 283.099 -473.886C174.959 -473.886 71.2486 -430.927 -5.21783 -354.461C-81.6842 -277.995 -124.643 -174.284 -124.643 -66.1441C-124.643 41.9957 -81.6842 145.706 -5.21783 222.173L73.3466 300.737L642.909 870.3C646.815 874.205 653.146 874.205 657.051 870.3L1226.61 300.737L1305.18 222.173C1343.05 184.317 1373.1 139.37 1393.59 89.8995C1414.09 40.4291 1424.64 -12.5952 1424.64 -66.1441C1424.64 -119.693 1414.09 -172.717 1393.59 -222.188C1373.1 -271.658 1343.05 -316.605 1305.18 -354.461Z" stroke="#F7F9B3" stroke-width="4" stroke-linecap="round" stroke-linejoin="round"/>
<path fill-rule="evenodd" clip-rule="evenodd" d="M672.642 307.922C664.866 308.695 657.738 307.883 652.738 305.316L654.427 302.028C658.54 304.14 664.859 304.981 672.276 304.243C679.646 303.511 687.901 301.238 695.754 297.351C711.466 289.573 725.335 275.472 727.624 254.58L731.298 254.983C728.833 277.481 713.876 292.504 697.394 300.664C689.149 304.745 680.464 307.144 672.642 307.922Z" fill="#7A1600"/>
<path d="M547.115 194.149C547.115 137.365 593.148 91.332 649.932 91.332C706.717 91.332 752.75 137.365 752.75 194.149C752.75 196.631 752.662 199.092 752.489 201.53H742.807C742.919 199.658 742.976 197.77 742.976 195.87C742.976 144.483 701.319 102.825 649.932 102.825C598.545 102.825 556.888 144.483 556.888 195.87C556.888 197.77 556.945 199.658 557.057 201.53H547.376C547.203 199.092 547.115 196.631 547.115 194.149Z" fill="#7A1600"/>
<path d="M538.111 227.265C541.045 248.61 560.62 263.55 581.832 260.635L571.208 183.336C549.995 186.252 535.177 205.919 538.111 227.265Z" fill="#FE6533"/>
<rect x="566.607" y="175.535" width="28.4369" height="95.5399" rx="14.2184" transform="rotate(-7.82613 566.607 175.535)" fill="#7A1600"/>
<path d="M761.889 227.265C758.955 248.61 739.74 263.6 718.972 260.745L729.596 183.447C750.365 186.301 764.823 205.919 761.889 227.265Z" fill="#FE6533"/>
<rect width="28.4369" height="95.5399" rx="14.2184" transform="matrix(-0.990686 -0.136167 -0.136167 0.990686 733.396 175.535)" fill="#7A1600"/>
<rect x="631.277" y="294.01" width="37.4447" height="23.7752" rx="10.1653" fill="#7A1600"/>
<path d="M356.443 208.115C356.94 207.268 356.164 206.244 355.214 206.492L335.681 211.596C335.302 211.695 335.005 211.988 334.899 212.365L327.59 238.47C327.361 239.289 328.107 240.048 328.93 239.833L339.82 236.987C340.612 236.78 341.346 237.48 341.177 238.281L336.902 258.528C336.648 259.731 338.257 260.383 338.913 259.342L359.089 227.304C359.621 226.459 358.844 225.398 357.878 225.651L346.624 228.591C345.674 228.839 344.899 227.815 345.395 226.968L356.443 208.115Z" fill="#7A1600"/>
<rect x="257.391" y="187.658" width="146.654" height="46.8121" rx="23.406" transform="rotate(-14.644 257.391 187.658)" fill="#FE6533"/>
<path d="M281.898 206.683L281.47 205.045L284.326 204.299C284.808 204.173 285.177 203.995 285.431 203.766C285.69 203.53 285.852 203.257 285.917 202.947C285.988 202.636 285.977 202.305 285.886 201.955C285.797 201.615 285.643 201.316 285.424 201.059C285.208 200.795 284.927 200.611 284.58 200.506C284.237 200.4 283.825 200.411 283.343 200.537L281.111 201.12L283.581 210.571L281.555 211.1L278.658 200.012L282.915 198.899C283.778 198.674 284.552 198.637 285.237 198.789C285.926 198.934 286.501 199.234 286.961 199.689C287.426 200.137 287.749 200.709 287.93 201.404C288.117 202.12 288.116 202.78 287.927 203.382C287.742 203.984 287.382 204.504 286.845 204.942C286.314 205.379 285.617 205.711 284.754 205.936L281.898 206.683ZM293.345 208.02L291.395 208.529L289.242 200.289L291.092 199.805L291.625 201.44L293.345 208.02ZM294.138 200.938C294.016 200.948 293.885 200.966 293.745 200.991C293.611 201.016 293.48 201.044 293.353 201.078C292.942 201.185 292.618 201.348 292.383 201.567C292.146 201.781 291.992 202.044 291.921 202.355C291.855 202.66 291.858 203.003 291.93 203.386L291.488 203.469C291.306 202.773 291.235 202.125 291.273 201.524C291.31 200.917 291.467 200.407 291.743 199.993C292.024 199.573 292.436 199.291 292.979 199.149C293.086 199.122 293.208 199.101 293.345 199.086C293.481 199.067 293.589 199.063 293.668 199.075L294.138 200.938ZM295.083 195.37C295.429 195.279 295.726 195.307 295.976 195.454C296.224 195.595 296.387 195.813 296.464 196.107C296.541 196.402 296.506 196.674 296.36 196.924C296.212 197.168 295.966 197.336 295.621 197.426C295.275 197.516 294.979 197.491 294.73 197.35C294.485 197.202 294.325 196.981 294.248 196.686C294.171 196.392 294.204 196.123 294.346 195.88C294.492 195.63 294.738 195.46 295.083 195.37ZM299.049 206.529L297.092 207.041L294.938 198.8L296.896 198.289L299.049 206.529ZM299.59 201.905C299.38 201.103 299.345 200.347 299.486 199.638C299.626 198.929 299.932 198.317 300.405 197.803C300.882 197.282 301.524 196.917 302.332 196.706C303.149 196.492 303.896 196.495 304.571 196.714C305.246 196.929 305.815 197.311 306.279 197.863C306.748 198.413 307.088 199.089 307.297 199.891L307.339 200.051C307.547 200.848 307.582 201.604 307.443 202.318C307.308 203.026 306.999 203.638 306.516 204.155C306.037 204.671 305.392 205.034 304.58 205.247C303.767 205.459 303.027 205.457 302.357 205.242C301.688 205.026 301.119 204.643 300.65 204.093C300.179 203.538 299.84 202.862 299.632 202.065L299.59 201.905ZM301.581 201.555C301.706 202.033 301.887 202.455 302.124 202.821C302.359 203.183 302.648 203.446 302.989 203.612C303.33 203.773 303.723 203.795 304.17 203.678C304.617 203.561 304.949 203.349 305.167 203.043C305.384 202.731 305.504 202.361 305.528 201.932C305.555 201.496 305.506 201.04 305.382 200.562L305.34 200.403C305.216 199.93 305.037 199.513 304.802 199.152C304.57 198.784 304.281 198.518 303.934 198.354C303.591 198.183 303.194 198.156 302.742 198.275C302.3 198.39 301.971 198.606 301.756 198.923C301.539 199.234 301.417 199.608 301.39 200.043C301.366 200.473 301.416 200.923 301.54 201.396L301.581 201.555ZM311.836 203.188L309.886 203.697L307.733 195.457L309.584 194.973L310.117 196.608L311.836 203.188ZM312.63 196.106C312.508 196.116 312.377 196.134 312.237 196.16C312.102 196.184 311.971 196.213 311.845 196.246C311.433 196.353 311.11 196.516 310.874 196.735C310.637 196.949 310.483 197.212 310.413 197.523C310.346 197.828 310.349 198.172 310.422 198.554L309.98 198.637C309.798 197.941 309.726 197.293 309.764 196.692C309.801 196.085 309.958 195.575 310.235 195.161C310.516 194.741 310.928 194.46 311.471 194.318C311.577 194.29 311.699 194.269 311.837 194.255C311.973 194.235 312.08 194.232 312.159 194.243L312.63 196.106ZM313.575 190.538C313.92 190.448 314.218 190.476 314.467 190.622C314.716 190.763 314.879 190.981 314.955 191.275C315.032 191.57 314.998 191.842 314.851 192.092C314.704 192.336 314.457 192.504 314.112 192.594C313.767 192.684 313.47 192.659 313.222 192.518C312.977 192.37 312.816 192.149 312.739 191.855C312.662 191.56 312.695 191.291 312.838 191.048C312.984 190.798 313.23 190.628 313.575 190.538ZM317.54 201.697L315.583 202.209L313.43 193.968L315.387 193.457L317.54 201.697ZM321.605 193.37L316.906 194.598L316.53 193.158L321.229 191.931L321.605 193.37ZM319.254 190.29L321.318 198.188C321.383 198.437 321.468 198.618 321.574 198.732C321.678 198.84 321.8 198.9 321.938 198.913C322.082 198.924 322.243 198.906 322.421 198.86C322.548 198.827 322.668 198.787 322.781 198.742C322.893 198.696 322.981 198.657 323.043 198.624L323.435 200.125C323.291 200.217 323.122 200.307 322.928 200.395C322.734 200.484 322.503 200.563 322.234 200.634C321.802 200.747 321.399 200.771 321.024 200.706C320.648 200.636 320.32 200.453 320.042 200.157C319.769 199.859 319.558 199.424 319.408 198.85L317.305 190.8L319.254 190.29ZM327.199 190.37L329.279 189.827L328.468 200.176C328.445 200.399 328.401 200.647 328.337 200.918C328.277 201.189 328.176 201.457 328.034 201.722C327.898 201.99 327.701 202.232 327.442 202.446C327.183 202.66 326.846 202.821 326.43 202.93C326.318 202.959 326.207 202.98 326.096 202.993C325.992 203.009 325.889 203.02 325.787 203.025C325.685 203.03 325.583 203.032 325.48 203.032L325.088 201.531C325.135 201.525 325.195 201.514 325.267 201.501C325.339 201.487 325.398 201.475 325.444 201.463C325.896 201.345 326.213 201.178 326.395 200.962C326.583 200.745 326.691 200.432 326.72 200.023L326.898 198.276L327.199 190.37ZM327.319 196.807L328.208 198.837L326.929 199.456L321.754 191.793L323.856 191.244L327.319 196.807ZM340.39 195.89C339.852 196.03 339.305 196.097 338.75 196.09C338.194 196.078 337.664 195.981 337.16 195.798C336.662 195.613 336.228 195.334 335.859 194.958C335.493 194.576 335.232 194.083 335.074 193.479L337.107 192.948C337.199 193.298 337.335 193.582 337.517 193.801C337.703 194.013 337.923 194.169 338.177 194.271C338.431 194.373 338.71 194.422 339.013 194.419C339.316 194.416 339.635 194.37 339.97 194.283C340.407 194.168 340.751 194.013 341.004 193.817C341.256 193.621 341.426 193.398 341.512 193.147C341.604 192.896 341.613 192.63 341.54 192.351C341.464 192.062 341.339 191.831 341.164 191.66C340.988 191.484 340.709 191.35 340.327 191.26C339.95 191.164 339.418 191.102 338.733 191.075C338.174 191.053 337.645 190.998 337.145 190.912C336.65 190.824 336.2 190.69 335.795 190.508C335.389 190.327 335.047 190.085 334.767 189.784C334.492 189.477 334.293 189.089 334.171 188.622C334.013 188.018 334.041 187.441 334.255 186.891C334.475 186.34 334.85 185.857 335.382 185.442C335.913 185.026 336.57 184.716 337.352 184.512C338.185 184.294 338.94 184.26 339.619 184.408C340.301 184.549 340.872 184.834 341.331 185.262C341.79 185.69 342.102 186.221 342.268 186.856L340.235 187.387C340.145 187.042 339.991 186.754 339.773 186.523C339.561 186.292 339.285 186.141 338.947 186.072C338.613 185.997 338.215 186.019 337.753 186.14C337.321 186.253 336.977 186.411 336.721 186.613C336.47 186.814 336.302 187.043 336.217 187.298C336.137 187.552 336.133 187.817 336.204 188.091C336.275 188.36 336.42 188.574 336.641 188.733C336.866 188.891 337.174 189.009 337.563 189.086C337.95 189.159 338.421 189.206 338.975 189.23C339.86 189.253 340.617 189.357 341.245 189.54C341.872 189.718 342.377 189.992 342.762 190.364C343.145 190.73 343.414 191.21 343.569 191.804C343.734 192.434 343.711 193.02 343.5 193.564C343.295 194.105 342.927 194.576 342.396 194.975C341.866 195.374 341.197 195.679 340.39 195.89ZM348.577 184.784L350.535 184.273L352.688 192.513L350.845 192.995L350.221 191.075L348.577 184.784ZM350.666 189.104C350.859 189.84 350.921 190.526 350.854 191.162C350.787 191.798 350.566 192.344 350.192 192.799C349.816 193.25 349.265 193.57 348.539 193.76C347.727 193.972 347.007 193.906 346.379 193.56C345.752 193.214 345.296 192.495 345.01 191.403L343.619 186.08L345.569 185.57L346.964 190.909C347.061 191.28 347.193 191.557 347.361 191.741C347.532 191.919 347.726 192.028 347.943 192.069C348.163 192.104 348.39 192.091 348.624 192.029C349.126 191.898 349.497 191.698 349.736 191.43C349.974 191.156 350.11 190.836 350.144 190.469C350.182 190.095 350.147 189.701 350.038 189.284L350.666 189.104ZM358.63 191.123C358.112 191.259 357.638 191.28 357.206 191.186C356.774 191.088 356.379 190.895 356.022 190.609C355.67 190.321 355.354 189.959 355.071 189.523C354.788 189.082 354.536 188.586 354.317 188.036L354.177 187.503C354.059 186.677 354.047 185.926 354.142 185.25C354.237 184.575 354.462 184.006 354.819 183.544C355.181 183.081 355.702 182.76 356.382 182.582C357.078 182.4 357.71 182.422 358.279 182.648C358.847 182.874 359.336 183.269 359.744 183.835C360.156 184.395 360.472 185.093 360.69 185.931L360.732 186.091C360.942 186.893 361.005 187.644 360.922 188.344C360.843 189.037 360.613 189.629 360.231 190.119C359.854 190.608 359.321 190.943 358.63 191.123ZM355.344 195.204L352.363 183.795L354.16 183.326L354.726 184.87L357.293 194.694L355.344 195.204ZM357.687 189.694C358.114 189.582 358.425 189.373 358.622 189.067C358.823 188.76 358.931 188.392 358.944 187.966C358.961 187.533 358.907 187.078 358.783 186.601L358.741 186.441C358.613 185.953 358.438 185.53 358.214 185.171C357.99 184.812 357.716 184.552 357.392 184.393C357.067 184.228 356.691 184.202 356.265 184.313C355.95 184.396 355.694 184.517 355.497 184.677C355.3 184.836 355.15 185.03 355.047 185.258C354.948 185.479 354.889 185.731 354.87 186.012C354.855 186.287 354.873 186.584 354.923 186.901L355.262 188.196C355.414 188.552 355.599 188.864 355.816 189.133C356.031 189.397 356.291 189.584 356.597 189.694C356.907 189.803 357.271 189.803 357.687 189.694ZM367.404 188.831C366.886 188.966 366.411 188.987 365.98 188.894C365.547 188.795 365.153 188.603 364.796 188.316C364.444 188.028 364.127 187.667 363.845 187.23C363.562 186.789 363.31 186.294 363.09 185.743L362.951 185.21C362.833 184.384 362.821 183.633 362.916 182.958C363.01 182.282 363.236 181.713 363.593 181.251C363.954 180.788 364.475 180.467 365.156 180.29C365.851 180.108 366.483 180.13 367.052 180.356C367.621 180.581 368.11 180.977 368.518 181.543C368.93 182.102 369.245 182.801 369.464 183.639L369.506 183.799C369.715 184.601 369.779 185.352 369.696 186.051C369.617 186.745 369.386 187.336 369.004 187.827C368.628 188.316 368.094 188.65 367.404 188.831ZM364.117 192.911L361.136 181.503L362.933 181.033L363.5 182.577L366.067 192.402L364.117 192.911ZM366.461 187.401C366.887 187.29 367.199 187.081 367.395 186.775C367.597 186.467 367.704 186.1 367.718 185.673C367.735 185.24 367.681 184.785 367.556 184.308L367.514 184.148C367.387 183.661 367.211 183.237 366.987 182.878C366.763 182.519 366.489 182.26 366.166 182.1C365.841 181.936 365.465 181.909 365.038 182.021C364.724 182.103 364.468 182.224 364.271 182.384C364.074 182.544 363.924 182.738 363.821 182.965C363.721 183.187 363.662 183.438 363.644 183.72C363.629 183.995 363.646 184.291 363.697 184.609L364.035 185.903C364.188 186.259 364.373 186.572 364.589 186.841C364.805 187.104 365.065 187.291 365.37 187.401C365.681 187.51 366.044 187.51 366.461 187.401ZM370.616 183.346C370.406 182.544 370.372 181.788 370.512 181.079C370.652 180.37 370.959 179.758 371.432 179.244C371.909 178.723 372.551 178.357 373.358 178.146C374.175 177.933 374.922 177.936 375.598 178.155C376.272 178.369 376.841 178.752 377.305 179.304C377.774 179.854 378.114 180.53 378.323 181.332L378.365 181.492C378.573 182.289 378.608 183.045 378.469 183.759C378.334 184.467 378.025 185.079 377.542 185.596C377.064 186.111 376.418 186.475 375.606 186.688C374.794 186.9 374.053 186.898 373.384 186.682C372.714 186.467 372.145 186.084 371.676 185.534C371.206 184.979 370.866 184.303 370.658 183.506L370.616 183.346ZM372.608 182.996C372.732 183.474 372.913 183.895 373.15 184.262C373.385 184.624 373.674 184.887 374.015 185.053C374.356 185.213 374.749 185.235 375.196 185.119C375.643 185.002 375.975 184.79 376.194 184.484C376.41 184.172 376.531 183.802 376.554 183.373C376.581 182.937 376.533 182.481 376.408 182.003L376.366 181.843C376.243 181.371 376.063 180.954 375.828 180.593C375.596 180.225 375.307 179.959 374.96 179.794C374.617 179.624 374.22 179.597 373.768 179.715C373.326 179.831 372.998 180.047 372.782 180.363C372.565 180.675 372.443 181.049 372.416 181.484C372.392 181.913 372.442 182.364 372.566 182.836L372.608 182.996ZM382.862 184.629L380.913 185.138L378.759 176.898L380.61 176.414L381.143 178.049L382.862 184.629ZM383.656 177.547C383.534 177.557 383.403 177.575 383.263 177.6C383.128 177.625 382.998 177.653 382.871 177.687C382.459 177.794 382.136 177.957 381.9 178.176C381.663 178.39 381.509 178.652 381.439 178.964C381.372 179.269 381.375 179.612 381.448 179.995L381.006 180.078C380.824 179.382 380.752 178.734 380.791 178.132C380.827 177.526 380.984 177.016 381.261 176.602C381.542 176.182 381.954 175.9 382.497 175.758C382.604 175.731 382.726 175.709 382.863 175.695C382.999 175.676 383.106 175.672 383.186 175.684L383.656 177.547ZM388.93 175.778L384.231 177.006L383.854 175.566L388.553 174.339L388.93 175.778ZM386.579 172.698L388.643 180.596C388.708 180.845 388.793 181.026 388.899 181.139C389.003 181.248 389.124 181.308 389.263 181.321C389.407 181.332 389.568 181.314 389.746 181.268C389.873 181.235 389.993 181.195 390.105 181.15C390.218 181.104 390.306 181.065 390.368 181.032L390.76 182.533C390.616 182.625 390.447 182.715 390.253 182.803C390.059 182.892 389.828 182.971 389.558 183.042C389.127 183.155 388.724 183.179 388.349 183.114C387.972 183.044 387.645 182.861 387.367 182.565C387.094 182.267 386.883 181.832 386.733 181.258L384.629 173.208L386.579 172.698Z" fill="white"/>
<path d="M1005.39 182.133C1005.17 182.785 1004.84 183.331 1004.39 183.771C1003.93 184.211 1003.38 184.505 1002.74 184.654C1002.09 184.803 1001.35 184.773 1000.53 184.563C999.698 184.349 999.023 183.97 998.508 183.426C997.995 182.876 997.664 182.199 997.516 181.395C997.368 180.59 997.418 179.701 997.667 178.727L997.863 177.959C998.113 176.981 998.498 176.177 999.018 175.548C999.544 174.915 1000.17 174.483 1000.89 174.25C1001.61 174.017 1002.4 174.008 1003.24 174.222C1004.05 174.431 1004.7 174.757 1005.18 175.2C1005.67 175.639 1006 176.163 1006.17 176.773C1006.35 177.378 1006.38 178.028 1006.27 178.723L1004.43 178.252C1004.53 177.603 1004.47 177.067 1004.25 176.641C1004.03 176.213 1003.57 175.907 1002.85 175.724C1002.35 175.596 1001.89 175.612 1001.49 175.774C1001.09 175.937 1000.74 176.242 1000.44 176.687C1000.15 177.128 999.912 177.706 999.729 178.421L999.529 179.203C999.354 179.886 999.28 180.494 999.306 181.027C999.333 181.555 999.477 181.992 999.737 182.339C999.998 182.686 1000.39 182.926 1000.92 183.061C1001.4 183.183 1001.8 183.209 1002.14 183.136C1002.47 183.064 1002.75 182.905 1002.97 182.658C1003.21 182.407 1003.4 182.075 1003.55 181.663L1005.39 182.133ZM1007.65 186.235L1005.87 185.78L1008.59 175.148L1010.37 175.603L1007.65 186.235ZM1007.81 182.015C1008 181.314 1008.28 180.723 1008.66 180.24C1009.04 179.758 1009.49 179.415 1010 179.212C1010.52 179.011 1011.07 178.984 1011.65 179.133C1012.15 179.259 1012.55 179.463 1012.87 179.746C1013.19 180.025 1013.4 180.398 1013.5 180.865C1013.59 181.332 1013.55 181.912 1013.38 182.604L1012.15 187.387L1010.38 186.932L1011.6 182.135C1011.69 181.789 1011.71 181.504 1011.66 181.28C1011.61 181.052 1011.51 180.869 1011.33 180.732C1011.17 180.596 1010.95 180.493 1010.67 180.422C1010.37 180.346 1010.1 180.336 1009.86 180.391C1009.61 180.447 1009.39 180.555 1009.19 180.715C1009 180.877 1008.83 181.08 1008.69 181.324C1008.55 181.57 1008.45 181.845 1008.37 182.149L1007.81 182.015ZM1019.25 183.819C1019.35 183.44 1019.32 183.114 1019.17 182.839C1019.03 182.561 1018.74 182.368 1018.32 182.259C1018.06 182.195 1017.83 182.182 1017.62 182.221C1017.41 182.257 1017.24 182.336 1017.1 182.457C1016.96 182.579 1016.87 182.737 1016.82 182.931L1015.05 182.478C1015.15 182.067 1015.38 181.719 1015.72 181.433C1016.07 181.144 1016.5 180.95 1017.03 180.853C1017.55 180.755 1018.12 180.787 1018.76 180.948C1019.32 181.093 1019.8 181.319 1020.19 181.625C1020.59 181.927 1020.86 182.302 1021.02 182.75C1021.17 183.198 1021.18 183.711 1021.03 184.287L1020.19 187.568C1020.1 187.933 1020.04 188.255 1020.02 188.536C1020.01 188.812 1020.02 189.061 1020.06 189.283L1020.03 189.4L1018.22 188.939C1018.18 188.732 1018.18 188.477 1018.21 188.174C1018.24 187.873 1018.29 187.582 1018.36 187.3L1019.25 183.819ZM1019.11 185.455L1017.96 185.162C1017.37 185.011 1016.9 185.01 1016.54 185.161C1016.19 185.307 1015.97 185.564 1015.87 185.934C1015.8 186.22 1015.84 186.482 1015.98 186.721C1016.13 186.961 1016.38 187.126 1016.74 187.217C1017.07 187.302 1017.38 187.309 1017.66 187.237C1017.94 187.166 1018.17 187.054 1018.36 186.9C1018.54 186.741 1018.66 186.577 1018.71 186.408L1019.05 187.337C1018.95 187.506 1018.8 187.68 1018.62 187.859C1018.44 188.039 1018.21 188.196 1017.95 188.331C1017.7 188.467 1017.41 188.558 1017.09 188.603C1016.76 188.649 1016.41 188.623 1016.03 188.525C1015.55 188.401 1015.13 188.193 1014.8 187.9C1014.46 187.608 1014.23 187.265 1014.09 186.872C1013.96 186.475 1013.95 186.064 1014.06 185.64C1014.26 184.846 1014.72 184.313 1015.41 184.039C1016.12 183.762 1017.02 183.765 1018.13 184.047L1019.39 184.369L1019.11 185.455ZM1026.52 184.474L1022.25 183.382L1022.58 182.074L1026.85 183.166L1026.52 184.474ZM1026.01 180.996L1024.17 188.173C1024.11 188.399 1024.1 188.581 1024.14 188.717C1024.17 188.849 1024.24 188.95 1024.35 189.021C1024.46 189.094 1024.59 189.15 1024.75 189.192C1024.87 189.221 1024.98 189.243 1025.09 189.256C1025.2 189.269 1025.29 189.277 1025.35 189.278L1025 190.642C1024.85 190.651 1024.67 190.648 1024.48 190.634C1024.29 190.619 1024.07 190.58 1023.82 190.517C1023.43 190.417 1023.1 190.259 1022.83 190.043C1022.56 189.822 1022.38 189.533 1022.29 189.175C1022.21 188.819 1022.23 188.38 1022.36 187.859L1024.24 180.543L1026.01 180.996ZM1028.97 191.832C1028.28 191.656 1027.73 191.386 1027.32 191.019C1026.91 190.65 1026.63 190.242 1026.49 189.797C1026.34 189.353 1026.32 188.927 1026.43 188.521L1028.13 188.957C1028.08 189.248 1028.1 189.501 1028.19 189.718C1028.3 189.931 1028.45 190.105 1028.65 190.24C1028.86 190.376 1029.08 190.476 1029.33 190.538C1029.61 190.611 1029.86 190.636 1030.07 190.611C1030.29 190.583 1030.46 190.516 1030.59 190.411C1030.73 190.304 1030.82 190.162 1030.86 189.987C1030.9 189.83 1030.9 189.678 1030.84 189.533C1030.8 189.388 1030.67 189.233 1030.47 189.068C1030.27 188.904 1029.96 188.719 1029.54 188.514C1029.04 188.269 1028.62 188.002 1028.26 187.715C1027.91 187.428 1027.65 187.109 1027.5 186.76C1027.35 186.407 1027.33 186.02 1027.43 185.6C1027.54 185.19 1027.75 184.841 1028.08 184.555C1028.4 184.269 1028.81 184.079 1029.3 183.983C1029.79 183.883 1030.34 183.91 1030.94 184.063C1031.57 184.225 1032.08 184.469 1032.48 184.797C1032.89 185.122 1033.16 185.495 1033.32 185.918C1033.47 186.335 1033.49 186.773 1033.37 187.229L1031.6 186.776C1031.68 186.481 1031.63 186.2 1031.48 185.934C1031.32 185.663 1031.03 185.472 1030.6 185.362C1030.34 185.296 1030.11 185.282 1029.91 185.319C1029.71 185.356 1029.55 185.432 1029.42 185.548C1029.3 185.66 1029.22 185.796 1029.18 185.958C1029.14 186.115 1029.15 186.264 1029.2 186.407C1029.27 186.546 1029.39 186.689 1029.59 186.837C1029.78 186.98 1030.06 187.142 1030.43 187.325C1030.96 187.584 1031.41 187.859 1031.78 188.15C1032.15 188.437 1032.42 188.76 1032.57 189.117C1032.72 189.472 1032.74 189.882 1032.62 190.348C1032.51 190.786 1032.28 191.146 1031.94 191.427C1031.6 191.705 1031.18 191.882 1030.67 191.957C1030.16 192.033 1029.59 191.992 1028.97 191.832Z" fill="#7A1600"/>
<path d="M1003.5 235.656C1003.14 237.051 1002.24 238.247 1001.01 238.981C999.768 239.715 998.288 239.927 996.893 239.571L966.085 231.693C965.605 231.571 965.097 231.644 964.672 231.896L956 237.037C954.571 237.884 952.831 236.58 953.243 234.971L962.886 197.256C963.242 195.861 964.139 194.665 965.377 193.93C966.616 193.196 968.095 192.984 969.49 193.341L1006.31 202.754C1007.7 203.111 1008.9 204.007 1009.63 205.245C1010.37 206.484 1010.58 207.963 1010.22 209.358L1003.5 235.656Z" fill="#7A1600"/>
<path d="M925.805 189.113C925.448 190.508 925.66 191.987 926.395 193.226C927.129 194.464 928.325 195.36 929.72 195.717L960.529 203.594C961.008 203.717 961.418 204.024 961.671 204.45L966.811 213.122C967.658 214.551 969.81 214.242 970.221 212.633L979.864 174.918C980.221 173.523 980.009 172.043 979.275 170.805C978.54 169.566 977.344 168.67 975.949 168.313L939.133 158.9C937.738 158.544 936.258 158.756 935.02 159.49C933.781 160.224 932.885 161.42 932.529 162.815L925.805 189.113Z" fill="#FE6533"/>
<mask id="mask0_429_4189" style="mask-type:alpha" maskUnits="userSpaceOnUse" x="966" y="200" width="33" height="33">
<rect x="973.82" y="200.918" width="25.9044" height="25.9044" transform="rotate(15.277 973.82 200.918)" fill="#D9D9D9"/>
</mask>
<g mask="url(#mask0_429_4189)">
<path d="M981.804 221.001C980.977 220.775 980.475 219.915 980.775 219.113C981.015 218.475 981.26 217.991 981.513 217.662C981.933 217.115 982.65 216.588 983.665 216.082C984.547 215.652 985.237 215.258 985.736 214.9C986.234 214.542 986.564 214.068 986.726 213.478C986.92 212.766 986.842 212.111 986.493 211.512C986.144 210.913 985.544 210.498 984.694 210.266C983.809 210.024 983.063 210.109 982.456 210.521C982.355 210.59 982.258 210.66 982.165 210.731C981.463 211.263 980.444 211.429 979.754 210.881C979.137 210.392 978.984 209.495 979.553 208.951C980.088 208.439 980.723 208.013 981.457 207.675C982.652 207.125 983.987 207.051 985.462 207.454C987.284 207.952 988.546 208.842 989.25 210.125C989.953 211.408 990.11 212.761 989.721 214.184C989.484 215.052 989.095 215.743 988.554 216.257C988.013 216.771 987.236 217.31 986.225 217.872C985.151 218.456 984.466 218.935 984.167 219.311C984.044 219.466 983.922 219.676 983.802 219.943C983.449 220.724 982.63 221.226 981.804 221.001ZM980.058 227.237C979.486 227.081 979.051 226.743 978.755 226.224C978.458 225.705 978.388 225.159 978.545 224.586C978.701 224.013 979.039 223.579 979.558 223.282C980.077 222.986 980.623 222.916 981.196 223.072C981.768 223.229 982.203 223.567 982.499 224.086C982.796 224.605 982.866 225.151 982.709 225.724C982.553 226.296 982.215 226.731 981.696 227.027C981.177 227.324 980.631 227.394 980.058 227.237Z" fill="#FEFFC7"/>
</g>
<path d="M941.322 170.49L967.936 177.704" stroke="#FEFFC7" stroke-width="3.35587" stroke-linecap="round"/>
<path d="M939.127 178.055L965.741 185.268" stroke="#FEFFC7" stroke-width="3.35587" stroke-linecap="round"/>
<path d="M936.961 185.438L948.212 188.488" stroke="#FEFFC7" stroke-width="3.35587" stroke-linecap="round"/>
</g>
<defs>
<clipPath id="clip0_429_4189">
<rect width="1300" height="408" fill="white" transform="translate(0 0.558594)"/>
</clipPath>
</defs>
</svg>
