<svg width="423" height="57" viewBox="0 0 423 57" fill="none" xmlns="http://www.w3.org/2000/svg">
<path d="M22.4565 56.3286C19.4925 56.3286 16.6585 56.0166 13.9545 55.3926C11.2505 54.7166 8.85855 53.7026 6.77855 52.3506C4.69855 50.9466 3.06055 49.2306 1.86455 47.2026C0.668547 45.1226 0.070547 42.6786 0.070547 39.8706C0.070547 39.5586 0.070547 39.2466 0.070547 38.9346C0.122547 38.6226 0.148547 38.3886 0.148547 38.2326H10.3665C10.3665 38.3366 10.3405 38.5446 10.2885 38.8566C10.2885 39.1166 10.2885 39.3506 10.2885 39.5586C10.2885 41.2746 10.7825 42.7566 11.7705 44.0046C12.7585 45.2006 14.1885 46.1366 16.0605 46.8126C17.9325 47.4366 20.1425 47.7486 22.6905 47.7486C24.4065 47.7486 25.9145 47.6446 27.2145 47.4366C28.5665 47.2286 29.7105 46.9426 30.6465 46.5786C31.6345 46.1626 32.4405 45.6946 33.0645 45.1746C33.6885 44.6026 34.1305 43.9786 34.3905 43.3026C34.7025 42.6266 34.8585 41.8986 34.8585 41.1186C34.8585 39.6106 34.3905 38.3626 33.4545 37.3746C32.5185 36.3866 31.2445 35.5546 29.6325 34.8786C28.0725 34.2026 26.2785 33.6046 24.2505 33.0846C22.2745 32.5126 20.2205 31.9406 18.0885 31.3686C16.0085 30.7966 13.9545 30.1206 11.9265 29.3406C9.95055 28.5086 8.15655 27.5206 6.54455 26.3766C4.98455 25.2326 3.73655 23.8026 2.80055 22.0866C1.86455 20.3186 1.39655 18.2126 1.39655 15.7686C1.39655 13.2726 1.91655 11.0886 2.95655 9.21658C4.04855 7.34458 5.55655 5.81058 7.48055 4.61458C9.45655 3.36658 11.7445 2.45658 14.3445 1.88457C16.9445 1.26058 19.7785 0.948577 22.8465 0.948577C25.7065 0.948577 28.3845 1.26058 30.8805 1.88457C33.4285 2.45658 35.6645 3.39258 37.5885 4.69258C39.5125 5.94057 41.0205 7.55258 42.1126 9.52858C43.2045 11.4526 43.7505 13.7666 43.7505 16.4706V17.4066H33.6885V16.6266C33.6885 15.1186 33.2205 13.8446 32.2845 12.8046C31.4005 11.7646 30.1265 10.9586 28.4625 10.3866C26.8505 9.81458 24.9525 9.52858 22.7685 9.52858C20.4285 9.52858 18.4265 9.76258 16.7625 10.2306C15.0985 10.6466 13.8245 11.2966 12.9405 12.1806C12.0565 13.0126 11.6145 14.0526 11.6145 15.3006C11.6145 16.6006 12.0825 17.6926 13.0185 18.5766C13.9545 19.4606 15.2025 20.2146 16.7625 20.8386C18.3745 21.4626 20.1685 22.0346 22.1445 22.5546C24.1725 23.0746 26.2265 23.6466 28.3065 24.2706C30.4385 24.8426 32.4925 25.5186 34.4685 26.2986C36.4965 27.0786 38.2905 28.0666 39.8505 29.2626C41.4625 30.4066 42.7365 31.8366 43.6725 33.5526C44.6085 35.2686 45.0765 37.3226 45.0765 39.7146C45.0765 43.7186 44.0886 46.9426 42.1126 49.3866C40.1886 51.8306 37.5106 53.5986 34.0785 54.6906C30.6985 55.7826 26.8245 56.3286 22.4565 56.3286ZM57.8221 55.3926V1.88457H67.9621V23.6466H92.9221V1.88457H103.062V55.3926H92.9221V32.3826H67.9621V55.3926H57.8221ZM118.259 55.3926V1.88457H128.399V55.3926H118.259ZM143.581 55.3926V1.88457H170.413C174.365 1.88457 177.615 2.58657 180.163 3.99058C182.763 5.39458 184.713 7.37058 186.013 9.91858C187.313 12.4666 187.963 15.5086 187.963 19.0446C187.963 22.5286 187.287 25.5706 185.935 28.1706C184.583 30.7706 182.555 32.7986 179.851 34.2546C177.199 35.6586 173.871 36.3606 169.867 36.3606H153.721V55.3926H143.581ZM153.721 27.7026H169.555C172.155 27.7026 174.157 26.9486 175.561 25.4406C177.017 23.8806 177.745 21.7486 177.745 19.0446C177.745 17.2246 177.433 15.6906 176.809 14.4426C176.185 13.1946 175.275 12.2326 174.079 11.5566C172.883 10.8806 171.375 10.5426 169.555 10.5426H153.721V27.7026ZM199.143 55.3926V1.88457H215.133L223.557 31.6806C223.869 32.7206 224.181 33.8906 224.493 35.1906C224.805 36.4906 225.091 37.7386 225.351 38.9346C225.663 40.1306 225.897 41.1706 226.053 42.0546H226.677C226.781 41.2746 226.937 40.3126 227.145 39.1686C227.353 38.0246 227.587 36.8026 227.847 35.5026C228.159 34.1506 228.497 32.8506 228.861 31.6026L237.285 1.88457H253.119V55.3926H242.979V28.3266C242.979 25.9346 243.005 23.5426 243.057 21.1506C243.109 18.7586 243.161 16.7046 243.213 14.9886C243.317 13.2726 243.369 12.2586 243.369 11.9466H242.745C242.641 12.4146 242.381 13.4286 241.965 14.9886C241.549 16.5486 241.107 18.2386 240.639 20.0586C240.171 21.8786 239.755 23.4386 239.391 24.7386L230.577 55.3926H221.217L212.403 24.8166C212.091 23.7246 211.727 22.4246 211.311 20.9166C210.947 19.3566 210.557 17.7706 210.141 16.1586C209.777 14.5466 209.439 13.1426 209.127 11.9466H208.503C208.555 13.3506 208.607 15.0406 208.659 17.0166C208.711 18.9406 208.763 20.9166 208.815 22.9446C208.867 24.9206 208.893 26.7146 208.893 28.3266V55.3926H199.143ZM268.264 55.3926V1.88457H277.936L300.79 33.4746C301.05 33.7866 301.362 34.2286 301.726 34.8006C302.09 35.3206 302.428 35.8406 302.74 36.3606C303.052 36.8806 303.26 37.2966 303.364 37.6086H303.754C303.754 36.8806 303.754 36.1786 303.754 35.5026C303.754 34.8266 303.754 34.1506 303.754 33.4746V1.88457H313.504V55.3926H303.91L280.978 23.5686C280.562 22.9446 280.068 22.1906 279.496 21.3066C278.976 20.3706 278.612 19.7206 278.404 19.3566H278.014C278.014 20.0326 278.014 20.7346 278.014 21.4626C278.014 22.1386 278.014 22.8406 278.014 23.5686V55.3926H268.264ZM341.805 55.3926V10.6206H324.723V1.88457H369.105V10.6206H351.945V55.3926H341.805ZM400.27 56.3286C397.306 56.3286 394.472 56.0166 391.768 55.3926C389.064 54.7166 386.672 53.7026 384.592 52.3506C382.512 50.9466 380.874 49.2306 379.678 47.2026C378.482 45.1226 377.884 42.6786 377.884 39.8706C377.884 39.5586 377.884 39.2466 377.884 38.9346C377.936 38.6226 377.962 38.3886 377.962 38.2326H388.18C388.18 38.3366 388.154 38.5446 388.102 38.8566C388.102 39.1166 388.102 39.3506 388.102 39.5586C388.102 41.2746 388.596 42.7566 389.584 44.0046C390.572 45.2006 392.002 46.1366 393.874 46.8126C395.746 47.4366 397.956 47.7486 400.504 47.7486C402.22 47.7486 403.728 47.6446 405.028 47.4366C406.38 47.2286 407.524 46.9426 408.46 46.5786C409.448 46.1626 410.254 45.6946 410.878 45.1746C411.502 44.6026 411.944 43.9786 412.204 43.3026C412.516 42.6266 412.672 41.8986 412.672 41.1186C412.672 39.6106 412.204 38.3626 411.268 37.3746C410.332 36.3866 409.058 35.5546 407.446 34.8786C405.886 34.2026 404.092 33.6046 402.064 33.0846C400.088 32.5126 398.034 31.9406 395.902 31.3686C393.822 30.7966 391.768 30.1206 389.74 29.3406C387.764 28.5086 385.97 27.5206 384.358 26.3766C382.798 25.2326 381.55 23.8026 380.614 22.0866C379.678 20.3186 379.21 18.2126 379.21 15.7686C379.21 13.2726 379.73 11.0886 380.77 9.21658C381.862 7.34458 383.37 5.81058 385.294 4.61458C387.27 3.36658 389.558 2.45658 392.158 1.88457C394.758 1.26058 397.592 0.948577 400.66 0.948577C403.52 0.948577 406.198 1.26058 408.694 1.88457C411.242 2.45658 413.478 3.39258 415.402 4.69258C417.326 5.94057 418.834 7.55258 419.926 9.52858C421.018 11.4526 421.564 13.7666 421.564 16.4706V17.4066H411.502V16.6266C411.502 15.1186 411.034 13.8446 410.098 12.8046C409.214 11.7646 407.94 10.9586 406.276 10.3866C404.664 9.81458 402.766 9.52858 400.582 9.52858C398.242 9.52858 396.24 9.76258 394.576 10.2306C392.912 10.6466 391.638 11.2966 390.754 12.1806C389.87 13.0126 389.428 14.0526 389.428 15.3006C389.428 16.6006 389.896 17.6926 390.832 18.5766C391.768 19.4606 393.016 20.2146 394.576 20.8386C396.188 21.4626 397.982 22.0346 399.958 22.5546C401.986 23.0746 404.04 23.6466 406.12 24.2706C408.252 24.8426 410.306 25.5186 412.282 26.2986C414.31 27.0786 416.104 28.0666 417.664 29.2626C419.276 30.4066 420.55 31.8366 421.486 33.5526C422.422 35.2686 422.89 37.3226 422.89 39.7146C422.89 43.7186 421.902 46.9426 419.926 49.3866C418.002 51.8306 415.324 53.5986 411.892 54.6906C408.512 55.7826 404.638 56.3286 400.27 56.3286Z" fill="#141414"/>
</svg>
