<svg width="343" height="600" viewBox="0 0 343 600" fill="none" xmlns="http://www.w3.org/2000/svg">
<rect width="343" height="600" rx="20" fill="#FEFFC7"/>
<g clip-path="url(#clip0_1168_8778)">
<path d="M194.896 295.136C193.544 293.783 191.939 292.71 190.172 291.978C188.405 291.246 186.511 290.869 184.599 290.869C182.686 290.869 180.793 291.246 179.026 291.978C177.259 292.71 175.654 293.783 174.302 295.136V295.136C172.752 296.685 170.239 296.685 168.69 295.136V295.136C165.959 292.405 162.255 290.871 158.393 290.871C154.53 290.871 150.826 292.405 148.095 295.136C145.364 297.867 143.83 301.571 143.83 305.433C143.83 309.295 145.364 312.999 148.095 315.73L150.901 318.536L164.425 332.06C168.33 335.965 174.662 335.965 178.567 332.06L192.09 318.536L194.896 315.73C196.249 314.378 197.322 312.773 198.054 311.006C198.786 309.239 199.163 307.346 199.163 305.433C199.163 303.521 198.786 301.627 198.054 299.86C197.322 298.093 196.249 296.488 194.896 295.136Z" fill="#F7F9B3"/>
<path d="M245.909 251.83C241.61 247.528 236.505 244.116 230.886 241.788C225.267 239.46 219.245 238.262 213.163 238.262C207.081 238.262 201.059 239.46 195.44 241.788C189.822 244.116 184.717 247.528 180.417 251.83L178.565 253.682C174.66 257.587 168.328 257.587 164.423 253.682L162.571 251.83C153.886 243.145 142.107 238.266 129.825 238.266C117.543 238.266 105.764 243.145 97.0794 251.83C88.3947 260.515 83.5156 272.294 83.5156 284.576C83.5156 296.858 88.3947 308.637 97.0794 317.322L106.002 326.245L164.423 384.666C168.328 388.571 174.66 388.571 178.565 384.666L236.986 326.245L245.909 317.322C250.211 313.022 253.623 307.917 255.951 302.299C258.279 296.68 259.477 290.658 259.477 284.576C259.477 278.494 258.279 272.472 255.951 266.853C253.623 261.234 250.211 256.13 245.909 251.83Z" stroke="#F7F9B3" stroke-width="4" stroke-linecap="round" stroke-linejoin="round"/>
<path d="M294.67 210.434C287.553 203.314 279.102 197.666 269.802 193.812C260.501 189.958 250.532 187.975 240.465 187.975C230.397 187.975 220.429 189.958 211.128 193.812C201.827 197.666 193.377 203.314 186.26 210.434L178.561 218.134C174.656 222.039 168.324 222.039 164.419 218.134L156.719 210.434C142.343 196.058 122.845 187.982 102.515 187.982C82.1838 187.982 62.6858 196.058 48.3098 210.434C33.9338 224.81 25.8574 244.308 25.8574 264.639C25.8574 284.97 33.9338 304.468 48.3098 318.844L63.0802 333.614L164.419 434.953C168.324 438.858 174.656 438.858 178.561 434.953L279.899 333.614L294.67 318.844C301.79 311.727 307.438 303.277 311.292 293.976C315.146 284.675 317.129 274.707 317.129 264.639C317.129 254.572 315.146 244.603 311.292 235.302C307.438 226.002 301.79 217.551 294.67 210.434Z" stroke="#F7F9B3" stroke-width="4" stroke-linecap="round" stroke-linejoin="round"/>
<path d="M349.069 164.252C338.808 153.987 326.626 145.844 313.218 140.288C299.809 134.733 285.438 131.873 270.924 131.873C256.41 131.873 242.039 134.733 228.63 140.288C215.222 145.844 203.04 153.987 192.779 164.252L178.556 178.475C174.651 182.381 168.319 182.381 164.414 178.475L150.191 164.252C129.466 143.527 101.357 131.884 72.0466 131.884C42.7366 131.884 14.6271 143.527 -6.09818 164.252C-26.8235 184.978 -38.4668 213.087 -38.4668 242.397C-38.4668 271.707 -26.8235 299.817 -6.09818 320.542L15.1958 341.836L164.414 491.054C168.319 494.96 174.651 494.96 178.556 491.054L327.775 341.836L349.069 320.542C359.334 310.282 367.477 298.099 373.033 284.691C378.589 271.283 381.448 256.911 381.448 242.397C381.448 227.883 378.589 213.512 373.033 200.103C367.477 186.695 359.334 174.513 349.069 164.252Z" stroke="#F7F9B3" stroke-width="4" stroke-linecap="round" stroke-linejoin="round"/>
<path d="M428.871 96.5134C414 81.6354 396.343 69.8331 376.909 61.7808C357.476 53.7285 336.646 49.584 315.611 49.584C294.575 49.584 273.745 53.7285 254.312 61.7808C234.878 69.8331 217.222 81.6354 202.351 96.5134L178.559 120.305C174.654 124.21 168.322 124.21 164.417 120.305L140.625 96.5134C110.587 66.475 69.846 49.5996 27.3653 49.5996C-15.1155 49.5996 -55.8563 66.475 -85.8948 96.5134C-115.933 126.552 -132.809 167.293 -132.809 209.773C-132.809 252.254 -115.933 292.995 -85.8948 323.033L-55.0321 353.896L164.417 573.345C168.322 577.25 174.654 577.25 178.559 573.345L398.008 353.896L428.871 323.033C443.749 308.162 455.551 290.506 463.603 271.072C471.655 251.639 475.8 230.809 475.8 209.773C475.8 188.738 471.655 167.908 463.603 148.475C455.551 129.041 443.749 111.384 428.871 96.5134Z" stroke="#F7F9B3" stroke-width="4" stroke-linecap="round" stroke-linejoin="round"/>
<path d="M543.567 -0.857429C522.068 -22.3659 496.543 -39.4279 468.449 -51.0687C440.355 -62.7096 410.242 -68.7012 379.832 -68.7012C349.421 -68.7012 319.309 -62.7096 291.215 -51.0687C263.121 -39.4279 237.595 -22.3659 216.097 -0.857429L178.551 36.6882C174.646 40.5935 168.314 40.5935 164.409 36.6882L126.863 -0.857429C83.4382 -44.2826 24.541 -68.6787 -36.8716 -68.6787C-98.2841 -68.6787 -157.181 -44.2826 -200.607 -0.857429C-244.032 42.5678 -268.428 101.465 -268.428 162.877C-268.428 224.29 -244.032 283.187 -200.607 326.612L-155.99 371.229L164.409 691.628C168.314 695.533 174.646 695.533 178.551 691.628L498.95 371.229L543.567 326.612C565.075 305.114 582.137 279.589 593.778 251.494C605.419 223.4 611.41 193.288 611.41 162.877C611.41 132.467 605.419 102.355 593.778 74.2605C582.137 46.1663 565.075 20.6409 543.567 -0.857429Z" stroke="#F7F9B3" stroke-width="4" stroke-linecap="round" stroke-linejoin="round"/>
<path d="M686.564 -122.245C656.803 -152.019 621.468 -175.639 582.577 -191.753C543.686 -207.868 502.001 -216.162 459.903 -216.162C417.806 -216.162 376.12 -207.868 337.229 -191.753C298.338 -175.639 263.003 -152.019 233.242 -122.245L178.55 -67.5525C174.645 -63.6473 168.313 -63.6473 164.408 -67.5525L109.715 -122.245C49.601 -182.359 -31.9313 -216.131 -116.946 -216.131C-201.96 -216.131 -283.492 -182.359 -343.606 -122.245C-403.72 -62.1309 -437.492 19.4014 -437.492 104.416C-437.492 189.43 -403.72 270.962 -343.606 331.076L-281.843 392.84L164.408 839.09C168.313 842.995 174.645 842.995 178.55 839.09L624.8 392.84L686.564 331.076C716.338 301.316 739.957 265.981 756.072 227.09C772.187 188.198 780.481 146.513 780.481 104.416C780.481 62.3181 772.187 20.633 756.072 -18.2582C739.957 -57.1494 716.338 -92.4845 686.564 -122.245Z" stroke="#F7F9B3" stroke-width="4" stroke-linecap="round" stroke-linejoin="round"/>
<path d="M826.673 -241.184C788.817 -279.058 743.87 -309.102 694.399 -329.6C644.929 -350.098 591.905 -360.648 538.356 -360.648C484.807 -360.648 431.783 -350.098 382.312 -329.6C332.842 -309.102 287.895 -279.058 250.039 -241.184L178.546 -169.691C174.64 -165.785 168.309 -165.785 164.403 -169.691L92.91 -241.184C16.4436 -317.65 -87.2671 -360.609 -195.407 -360.609C-303.547 -360.609 -407.257 -317.65 -483.724 -241.184C-560.19 -164.718 -603.148 -61.007 -603.148 47.1328C-603.148 155.273 -560.19 258.983 -483.724 335.45L-405.159 414.014L164.403 983.577C168.309 987.482 174.64 987.482 178.546 983.577L748.108 414.014L826.673 335.45C864.546 297.594 894.59 252.647 915.088 203.176C935.586 153.706 946.137 100.682 946.137 47.1328C946.137 -6.41616 935.586 -59.4404 915.088 -108.911C894.59 -158.381 864.546 -203.328 826.673 -241.184Z" stroke="#F7F9B3" stroke-width="4" stroke-linecap="round" stroke-linejoin="round"/>
<path fill-rule="evenodd" clip-rule="evenodd" d="M192.704 425.809C185.422 426.533 178.746 425.773 174.064 423.369L175.646 420.29C179.498 422.268 185.416 423.055 192.362 422.365C199.265 421.679 206.995 419.55 214.349 415.909C229.064 408.625 242.053 395.419 244.197 375.854L247.638 376.231C245.33 397.301 231.321 411.37 215.885 419.012C208.164 422.834 200.031 425.081 192.704 425.809Z" fill="#7A1600"/>
<path d="M75.1465 319.259C75.1465 266.079 118.257 222.968 171.438 222.968C224.618 222.968 267.729 266.079 267.729 319.259C267.729 321.583 267.646 323.888 267.484 326.171H258.417C258.522 324.418 258.575 322.65 258.575 320.87C258.575 272.745 219.562 233.732 171.437 233.732C123.312 233.732 84.2986 272.745 84.2986 320.87C84.2986 322.65 84.352 324.418 84.4572 326.171H75.3908C75.2288 323.888 75.1465 321.583 75.1465 319.259Z" fill="#7A1600"/>
<path d="M66.7134 350.271C69.461 370.262 87.7933 384.254 107.66 381.523L97.7094 309.131C77.8431 311.862 63.9657 330.281 66.7134 350.271Z" fill="#FE6533"/>
<rect x="93.4004" y="301.826" width="26.6319" height="89.4757" rx="13.316" transform="rotate(-7.82613 93.4004 301.826)" fill="#7A1600"/>
<path d="M276.287 350.271C273.539 370.262 255.544 384.3 236.094 381.627L246.044 309.235C265.494 311.908 279.034 330.281 276.287 350.271Z" fill="#FE6533"/>
<rect width="26.6319" height="89.4757" rx="13.316" transform="matrix(-0.990686 -0.136167 -0.136167 0.990686 249.604 301.826)" fill="#7A1600"/>
<rect x="153.967" y="412.781" width="35.068" height="22.2661" rx="9.52004" fill="#7A1600"/>
</g>
<defs>
<clipPath id="clip0_1168_8778">
<rect width="303" height="468" fill="white" transform="translate(20 112)"/>
</clipPath>
</defs>
</svg>
