<svg width="343" height="600" viewBox="0 0 343 600" fill="none" xmlns="http://www.w3.org/2000/svg">
<rect width="343" height="600" rx="20" fill="#FFF2E2"/>
<g clip-path="url(#clip0_1168_8961)">
<g clip-path="url(#clip1_1168_8961)">
<path d="M474.445 431.706C474.445 441.856 466.703 452.034 451.415 461.676C436.226 471.254 414.115 479.954 386.614 487.289C331.641 501.953 255.586 511.046 171.5 511.046C87.4141 511.046 11.3592 501.953 -43.6134 487.289C-71.1144 479.954 -93.2256 471.254 -108.414 461.676C-123.703 452.034 -131.445 441.856 -131.445 431.706C-131.445 421.556 -123.703 411.379 -108.414 401.737C-93.2256 392.159 -71.1144 383.459 -43.6134 376.123C11.3592 361.46 87.4141 352.367 171.5 352.367C255.586 352.367 331.641 361.46 386.614 376.123C414.115 383.459 436.226 392.159 451.415 401.737C466.703 411.379 474.445 421.556 474.445 431.706Z" stroke="#FFE0CF" stroke-width="4"/>
<path d="M648.015 431.707C648.015 448.249 635.416 464.517 611.344 479.697C587.372 494.814 552.551 508.503 509.345 520.027C422.961 543.069 303.513 557.344 171.496 557.344C39.4787 557.344 -79.9697 543.069 -166.353 520.027C-209.559 508.503 -244.38 494.814 -268.352 479.697C-292.424 464.517 -305.023 448.249 -305.023 431.707C-305.023 415.164 -292.424 398.897 -268.352 383.716C-244.38 368.599 -209.559 354.91 -166.353 343.386C-79.9697 320.345 39.4787 306.069 171.496 306.069C303.513 306.069 422.961 320.345 509.345 343.386C552.551 354.91 587.372 368.599 611.344 383.716C635.416 398.897 648.015 415.164 648.015 431.707Z" stroke="#FFE0CF" stroke-width="4"/>
<path d="M941.554 431.706C941.554 459.059 920.74 485.626 881.815 510.173C842.989 534.658 786.674 556.782 716.908 575.391C577.404 612.601 384.571 635.64 171.496 635.64C-41.5801 635.64 -234.413 612.601 -373.916 575.391C-443.683 556.782 -499.998 534.658 -538.824 510.173C-577.749 485.626 -598.562 459.059 -598.562 431.706C-598.562 404.353 -577.749 377.787 -538.824 353.239C-499.998 328.755 -443.683 306.631 -373.916 288.022C-234.413 250.811 -41.5801 227.772 171.496 227.772C384.571 227.772 577.404 250.811 716.908 288.022C786.674 306.631 842.989 328.755 881.815 353.239C920.74 377.787 941.554 404.353 941.554 431.706Z" stroke="#FFE0CF" stroke-width="4"/>
<path d="M1247.85 399.09C1247.85 416.393 1240.29 433.445 1225.57 450.101C1210.84 466.77 1189.03 482.945 1160.77 498.417C1104.25 529.359 1022.34 557.288 920.947 580.766C718.198 627.717 438.002 656.775 128.437 656.775C-181.129 656.775 -461.324 627.717 -664.074 580.766C-765.465 557.288 -847.377 529.359 -903.894 498.417C-932.153 482.945 -953.969 466.77 -968.699 450.101C-983.417 433.445 -990.98 416.393 -990.98 399.09C-990.98 381.787 -983.417 364.735 -968.699 348.079C-953.969 331.41 -932.153 315.235 -903.894 299.763C-847.377 268.821 -765.465 240.892 -664.074 217.414C-461.324 170.463 -181.129 141.405 128.437 141.405C438.002 141.405 718.198 170.463 920.947 217.414C1022.34 240.892 1104.25 268.821 1160.77 299.763C1189.03 315.235 1210.84 331.41 1225.57 348.079C1240.29 364.735 1247.85 381.787 1247.85 399.09Z" stroke="#FFE0CF" stroke-width="4"/>
<ellipse cx="170.031" cy="432.068" rx="103.906" ry="20.747" fill="#7A1600"/>
<rect x="66.125" y="417.25" width="207.811" height="14.9183" fill="#7A1600"/>
<ellipse cx="170.031" cy="417.25" rx="103.906" ry="20.747" fill="#F7DBFF"/>
<path d="M209.107 422.014H119.129L171.262 344.066L209.107 422.014Z" fill="#FE6533"/>
<path d="M220.933 410.186L171.504 344.491L209.144 422.03L220.933 410.186Z" fill="#7A1600"/>
<rect x="39.3711" y="341.137" width="264.529" height="14.3761" transform="rotate(-3.33476 39.3711 341.137)" fill="#7A1600"/>
<path d="M51.4144 329.715L289.568 315.418L303.452 325.759L39.3724 341.32L51.4144 329.715Z" fill="#FE6533"/>
<path d="M94.6816 242.777L113.206 241.544M95.2112 250.729L113.736 249.496M109.71 270.532L95.7408 258.682L100.372 258.373C110.663 257.688 109.604 241.784 99.3128 242.469" stroke="#7A1600" stroke-width="3" stroke-linecap="round" stroke-linejoin="round"/>
<path d="M212.753 265.9C211.014 266.016 209.445 265.871 208.046 265.465C206.645 265.028 205.422 264.221 204.376 263.043C203.329 261.834 202.487 260.191 201.849 258.113C201.21 256.004 200.783 253.335 200.568 250.106C200.353 246.877 200.423 244.19 200.779 242.046C201.134 239.871 201.75 238.13 202.63 236.824C203.508 235.487 204.613 234.525 205.946 233.937C207.277 233.318 208.812 232.951 210.551 232.835C212.289 232.719 213.844 232.881 215.214 233.32C216.613 233.726 217.836 234.533 218.883 235.742C219.928 236.919 220.771 238.563 221.41 240.672C222.047 242.75 222.474 245.404 222.689 248.633C222.904 251.861 222.834 254.563 222.48 256.739C222.124 258.883 221.507 260.624 220.629 261.961C219.75 263.267 218.644 264.229 217.313 264.848C216.011 265.434 214.491 265.784 212.753 265.9ZM212.523 262.454C214.293 262.336 215.629 261.795 216.531 260.83C217.465 259.864 218.059 258.483 218.314 256.689C218.599 254.892 218.654 252.675 218.479 250.036L218.336 247.893C218.158 245.223 217.809 243.017 217.287 241.274C216.795 239.498 216.022 238.193 214.968 237.359C213.946 236.523 212.55 236.163 210.78 236.281C209.01 236.399 207.659 236.941 206.725 237.908C205.792 238.874 205.182 240.256 204.896 242.052C204.642 243.847 204.603 246.079 204.781 248.749L204.921 250.845C205.096 253.484 205.43 255.691 205.923 257.467C206.446 259.241 207.235 260.545 208.288 261.379C209.342 262.213 210.753 262.572 212.523 262.454Z" fill="#7A1600"/>
<path d="M186.057 267.678C184.319 267.794 182.75 267.649 181.351 267.243C179.949 266.807 178.726 265.999 177.681 264.821C176.634 263.613 175.792 261.969 175.154 259.891C174.515 257.782 174.088 255.113 173.872 251.884C173.657 248.655 173.728 245.969 174.084 243.824C174.438 241.649 175.055 239.908 175.935 238.602C176.813 237.265 177.918 236.303 179.251 235.715C180.582 235.096 182.117 234.729 183.855 234.613C185.594 234.498 187.148 234.659 188.518 235.098C189.918 235.504 191.141 236.311 192.188 237.52C193.233 238.698 194.075 240.341 194.715 242.45C195.352 244.528 195.778 247.182 195.993 250.411C196.208 253.64 196.139 256.342 195.785 258.517C195.429 260.661 194.812 262.402 193.934 263.739C193.054 265.045 191.949 266.007 190.618 266.626C189.316 267.212 187.796 267.563 186.057 267.678ZM185.828 264.232C187.597 264.114 188.933 263.573 189.836 262.609C190.77 261.642 191.364 260.262 191.618 258.467C191.904 256.671 191.959 254.453 191.783 251.814L191.641 249.672C191.463 247.002 191.113 244.795 190.592 243.052C190.099 241.276 189.326 239.971 188.273 239.137C187.25 238.301 185.854 237.942 184.085 238.06C182.315 238.177 180.963 238.72 180.03 239.686C179.096 240.653 178.487 242.034 178.201 243.831C177.946 245.625 177.908 247.858 178.086 250.528L178.225 252.623C178.401 255.262 178.735 257.47 179.228 259.246C179.751 261.019 180.54 262.323 181.593 263.158C182.646 263.992 184.058 264.35 185.828 264.232Z" fill="#7A1600"/>
<path d="M159.362 269.456C157.623 269.571 156.054 269.426 154.655 269.021C153.254 268.584 152.031 267.777 150.986 266.599C149.938 265.39 149.096 263.747 148.459 261.668C147.819 259.559 147.392 256.89 147.177 253.661C146.962 250.432 147.033 247.746 147.389 245.602C147.743 243.426 148.36 241.686 149.24 240.38C150.117 239.043 151.223 238.08 152.556 237.493C153.887 236.874 155.421 236.507 157.16 236.391C158.899 236.275 160.453 236.437 161.823 236.875C163.222 237.281 164.445 238.088 165.493 239.297C166.538 240.475 167.38 242.119 168.02 244.228C168.657 246.306 169.083 248.959 169.298 252.188C169.513 255.417 169.444 258.119 169.089 260.294C168.733 262.439 168.116 264.179 167.239 265.516C166.359 266.822 165.254 267.785 163.923 268.404C162.621 268.989 161.101 269.34 159.362 269.456ZM159.132 266.009C160.902 265.892 162.238 265.35 163.141 264.386C164.074 263.419 164.668 262.039 164.923 260.245C165.209 258.448 165.264 256.23 165.088 253.591L164.945 251.449C164.768 248.779 164.418 246.573 163.896 244.83C163.404 243.054 162.631 241.749 161.578 240.915C160.555 240.078 159.159 239.719 157.389 239.837C155.62 239.955 154.268 240.497 153.335 241.464C152.401 242.43 151.791 243.812 151.506 245.608C151.251 247.403 151.212 249.635 151.39 252.305L151.53 254.401C151.706 257.04 152.04 259.247 152.532 261.023C153.056 262.797 153.844 264.101 154.898 264.935C155.951 265.769 157.363 266.127 159.132 266.009Z" fill="#7A1600"/>
<path d="M133.098 271.205C130.614 271.371 128.494 271.138 126.736 270.506C124.977 269.844 123.616 268.843 122.654 267.504C121.692 266.165 121.146 264.533 121.018 262.608V262.608C120.996 262.273 121.249 261.984 121.583 261.962L124.517 261.766C124.851 261.744 125.141 261.997 125.163 262.332V262.332C125.291 264.256 125.995 265.691 127.274 266.635C128.582 267.546 130.322 267.929 132.496 267.784C134.669 267.639 136.392 267.057 137.665 266.036C138.936 264.985 139.502 263.419 139.364 261.339C139.262 259.818 138.828 258.677 138.06 257.918C137.292 257.158 136.323 256.661 135.154 256.427C134.014 256.16 132.807 256.069 131.534 256.154L129.904 256.262C128.952 256.326 128.13 255.606 128.066 254.654V254.654C128.003 253.702 128.723 252.879 129.675 252.816L131.444 252.698C132.624 252.62 133.698 252.361 134.667 251.922C135.636 251.484 136.387 250.825 136.921 249.948C137.484 249.037 137.72 247.899 137.629 246.533C137.546 245.291 137.2 244.3 136.589 243.562C136.01 242.82 135.242 242.295 134.286 241.984C133.327 241.643 132.29 241.509 131.172 241.583C129.93 241.666 128.827 241.958 127.862 242.459C126.896 242.929 126.145 243.602 125.611 244.48C125.108 245.355 124.899 246.429 124.984 247.702V247.702C125.006 248.037 124.753 248.326 124.419 248.348L121.671 248.531C121.208 248.562 120.808 248.212 120.777 247.749V247.749C120.659 245.979 121.006 244.397 121.817 243.002C122.66 241.605 123.848 240.481 125.382 239.63C126.947 238.778 128.769 238.282 130.849 238.143C132.898 238.007 134.721 238.213 136.316 238.762C137.943 239.308 139.249 240.188 140.234 241.401C141.22 242.614 141.774 244.152 141.898 246.015C141.989 247.381 141.818 248.561 141.386 249.557C140.951 250.521 140.351 251.341 139.585 252.016C138.841 252.671 138.031 253.228 137.156 253.686C137.11 253.711 137.081 253.76 137.085 253.813V253.813C137.089 253.872 137.131 253.921 137.189 253.934C138.888 254.326 140.343 255.124 141.556 256.328C142.792 257.556 143.48 259.225 143.62 261.336C143.746 263.23 143.374 264.892 142.502 266.322C141.662 267.75 140.413 268.894 138.755 269.753C137.126 270.578 135.24 271.063 133.098 271.205Z" fill="#7A1600"/>
<path d="M129.449 219.882C128.813 219.919 128.181 219.868 127.554 219.73C126.932 219.592 126.359 219.361 125.832 219.038C125.312 218.715 124.889 218.299 124.562 217.791C124.236 217.283 124.053 216.68 124.013 215.982L126.107 215.863C126.132 216.308 126.234 216.686 126.413 216.998C126.598 217.303 126.838 217.55 127.133 217.738C127.435 217.925 127.774 218.057 128.15 218.135C128.532 218.206 128.933 218.23 129.353 218.206C129.934 218.173 130.414 218.065 130.794 217.882C131.179 217.693 131.466 217.447 131.653 217.146C131.84 216.838 131.922 216.489 131.9 216.1C131.878 215.705 131.775 215.376 131.593 215.114C131.417 214.845 131.103 214.609 130.651 214.406C130.2 214.196 129.559 213.994 128.73 213.8C128.065 213.645 127.457 213.46 126.905 213.244C126.36 213.027 125.881 212.772 125.468 212.48C125.055 212.181 124.728 211.828 124.488 211.421C124.254 211.013 124.121 210.537 124.091 209.994C124.05 209.277 124.211 208.63 124.575 208.052C124.938 207.474 125.463 207.007 126.149 206.652C126.835 206.291 127.644 206.084 128.576 206.031C129.589 205.973 130.467 206.112 131.211 206.447C131.955 206.783 132.533 207.252 132.945 207.854C133.363 208.456 133.594 209.124 133.635 209.859L131.533 209.979C131.506 209.509 131.384 209.098 131.165 208.745C130.947 208.392 130.628 208.125 130.209 207.945C129.796 207.758 129.28 207.682 128.663 207.717C128.076 207.75 127.597 207.867 127.224 208.068C126.851 208.263 126.58 208.517 126.412 208.83C126.244 209.137 126.171 209.482 126.193 209.865C126.213 210.217 126.335 210.523 126.561 210.782C126.792 211.042 127.137 211.27 127.594 211.467C128.051 211.658 128.628 211.835 129.325 212C130.348 212.227 131.197 212.513 131.873 212.859C132.556 213.204 133.07 213.63 133.414 214.137C133.765 214.643 133.961 215.252 134.002 215.962C134.044 216.703 133.883 217.359 133.519 217.931C133.161 218.503 132.633 218.958 131.933 219.295C131.24 219.632 130.412 219.827 129.449 219.882ZM140.077 210.542L134.51 210.859L134.425 209.359L139.991 209.042L140.077 210.542ZM138.027 206.7L138.586 216.509C138.605 216.836 138.665 217.081 138.767 217.242C138.875 217.403 139.011 217.507 139.175 217.554C139.345 217.6 139.529 217.617 139.726 217.606C139.875 217.597 140.022 217.58 140.169 217.553C140.322 217.519 140.438 217.491 140.518 217.468L140.607 219.042C140.444 219.107 140.249 219.165 140.022 219.215C139.796 219.271 139.526 219.308 139.211 219.326C138.742 219.353 138.314 219.291 137.927 219.139C137.541 218.982 137.228 218.708 136.989 218.319C136.749 217.924 136.61 217.387 136.572 216.708L136.008 206.815L138.027 206.7ZM147.778 211.813C147.746 211.251 147.56 210.816 147.221 210.507C146.887 210.192 146.402 210.052 145.766 210.088C145.377 210.11 145.041 210.198 144.758 210.35C144.476 210.496 144.26 210.685 144.112 210.916C143.965 211.148 143.898 211.399 143.914 211.671L141.895 211.786C141.865 211.274 142.005 210.779 142.312 210.303C142.619 209.821 143.07 209.418 143.665 209.093C144.259 208.761 144.967 208.572 145.788 208.526C146.529 208.484 147.194 208.573 147.783 208.793C148.377 209.007 148.853 209.358 149.209 209.846C149.565 210.333 149.764 210.957 149.808 211.716L150.066 216.255C150.089 216.656 150.142 217.04 150.225 217.407C150.307 217.768 150.415 218.081 150.548 218.346L150.556 218.494L148.481 218.613C148.37 218.396 148.276 218.113 148.201 217.764C148.125 217.409 148.078 217.068 148.059 216.741L147.778 211.813ZM148.209 213.833L146.588 213.925C145.693 213.976 145.019 214.17 144.568 214.505C144.116 214.834 143.906 215.28 143.938 215.842C143.963 216.28 144.132 216.639 144.445 216.919C144.758 217.198 145.193 217.322 145.748 217.291C146.236 217.263 146.66 217.14 147.019 216.921C147.378 216.696 147.654 216.429 147.847 216.121C148.04 215.813 148.135 215.522 148.132 215.25L148.926 216.134C148.879 216.397 148.771 216.685 148.603 216.998C148.441 217.305 148.216 217.602 147.929 217.891C147.642 218.18 147.297 218.426 146.893 218.629C146.489 218.825 146.022 218.938 145.491 218.969C144.824 219.007 144.227 218.911 143.7 218.68C143.179 218.45 142.76 218.118 142.444 217.683C142.134 217.243 141.963 216.744 141.932 216.189C141.87 215.114 142.225 214.273 142.996 213.665C143.772 213.051 144.871 212.704 146.291 212.623L148.134 212.518L148.209 213.833ZM154.706 218.258L152.686 218.373L152.116 208.351L154.061 208.24L154.236 210.005L154.706 218.258ZM157.314 209.886C157.164 209.869 157.018 209.859 156.875 209.855C156.733 209.851 156.584 209.853 156.43 209.862C155.911 209.891 155.482 210.018 155.141 210.242C154.807 210.459 154.557 210.752 154.392 211.121C154.227 211.483 154.139 211.903 154.129 212.381L153.628 212.549C153.581 211.721 153.646 210.965 153.824 210.28C154.008 209.594 154.314 209.041 154.742 208.62C155.17 208.193 155.733 207.959 156.431 207.92C156.554 207.913 156.697 207.917 156.859 207.932C157.021 207.948 157.14 207.972 157.216 208.005L157.314 209.886ZM163.677 209.198L158.111 209.515L158.025 208.015L163.592 207.698L163.677 209.198ZM161.628 205.356L162.186 215.165C162.205 215.492 162.265 215.737 162.368 215.898C162.476 216.059 162.612 216.163 162.776 216.209C162.945 216.256 163.129 216.273 163.327 216.262C163.475 216.253 163.623 216.236 163.77 216.209C163.923 216.175 164.039 216.147 164.118 216.124L164.208 217.698C164.044 217.763 163.849 217.821 163.623 217.871C163.397 217.927 163.126 217.964 162.812 217.982C162.342 218.009 161.914 217.947 161.528 217.795C161.141 217.638 160.828 217.364 160.589 216.975C160.35 216.58 160.211 216.043 160.172 215.363L159.609 205.471L161.628 205.356ZM169.749 217.587C168.847 217.638 168.076 217.521 167.434 217.236C166.798 216.95 166.305 216.566 165.956 216.084C165.606 215.596 165.415 215.074 165.383 214.518L167.366 214.406C167.415 214.836 167.558 215.175 167.795 215.422C168.032 215.668 168.317 215.838 168.651 215.931C168.991 216.023 169.331 216.059 169.67 216.04C170.102 216.015 170.46 215.939 170.744 215.811C171.028 215.678 171.238 215.508 171.375 215.302C171.518 215.089 171.582 214.853 171.567 214.594C171.554 214.365 171.487 214.158 171.364 213.973C171.248 213.782 171.025 213.615 170.695 213.473C170.371 213.33 169.89 213.212 169.253 213.118C168.522 213.011 167.878 212.852 167.321 212.643C166.77 212.426 166.335 212.138 166.017 211.778C165.699 211.412 165.524 210.951 165.492 210.396C165.462 209.858 165.588 209.356 165.871 208.887C166.154 208.419 166.572 208.033 167.125 207.729C167.683 207.418 168.348 207.241 169.12 207.197C169.941 207.15 170.653 207.252 171.256 207.503C171.865 207.747 172.337 208.098 172.673 208.556C173.015 209.013 173.203 209.538 173.236 210.131L171.217 210.246C171.194 209.839 171.009 209.477 170.663 209.163C170.317 208.848 169.832 208.708 169.208 208.744C168.788 208.768 168.446 208.852 168.182 208.997C167.924 209.142 167.736 209.323 167.618 209.541C167.506 209.751 167.457 209.974 167.47 210.209C167.483 210.437 167.556 210.634 167.69 210.8C167.823 210.96 168.048 211.099 168.364 211.217C168.686 211.329 169.141 211.433 169.729 211.53C170.529 211.658 171.209 211.833 171.766 212.055C172.324 212.271 172.753 212.565 173.053 212.939C173.359 213.311 173.528 213.788 173.561 214.369C173.594 214.949 173.457 215.477 173.15 215.953C172.848 216.423 172.405 216.801 171.821 217.088C171.242 217.375 170.552 217.541 169.749 217.587ZM185.883 209.643C185.851 209.081 185.666 208.646 185.326 208.337C184.992 208.021 184.507 207.882 183.871 207.918C183.482 207.94 183.146 208.027 182.864 208.18C182.581 208.326 182.366 208.515 182.218 208.746C182.07 208.978 182.004 209.229 182.019 209.501L180 209.616C179.971 209.103 180.11 208.609 180.417 208.133C180.724 207.651 181.175 207.248 181.77 206.923C182.364 206.591 183.072 206.402 183.894 206.356C184.634 206.313 185.299 206.402 185.888 206.623C186.483 206.837 186.958 207.188 187.314 207.675C187.67 208.163 187.87 208.787 187.913 209.546L188.171 214.085C188.194 214.486 188.247 214.87 188.33 215.237C188.413 215.598 188.52 215.911 188.653 216.176L188.661 216.324L186.587 216.442C186.475 216.226 186.382 215.943 186.306 215.594C186.23 215.239 186.183 214.898 186.164 214.571L185.883 209.643ZM186.314 211.663L184.694 211.755C183.798 211.806 183.125 212 182.673 212.335C182.221 212.664 182.011 213.11 182.043 213.672C182.068 214.11 182.237 214.469 182.55 214.749C182.863 215.028 183.298 215.152 183.854 215.121C184.342 215.093 184.765 214.969 185.124 214.751C185.483 214.526 185.759 214.259 185.952 213.951C186.145 213.643 186.24 213.352 186.237 213.08L187.031 213.964C186.984 214.227 186.876 214.515 186.708 214.828C186.546 215.134 186.322 215.432 186.034 215.721C185.747 216.01 185.402 216.256 184.999 216.458C184.595 216.655 184.127 216.768 183.596 216.799C182.929 216.836 182.332 216.74 181.805 216.51C181.284 216.28 180.865 215.947 180.549 215.513C180.239 215.072 180.069 214.574 180.037 214.018C179.976 212.944 180.33 212.103 181.101 211.495C181.878 210.881 182.976 210.534 184.396 210.453L186.24 210.348L186.314 211.663ZM194.743 207.429L189.176 207.746L189.091 206.245L194.658 205.928L194.743 207.429ZM192.694 203.587L193.252 213.396C193.271 213.723 193.331 213.967 193.433 214.129C193.542 214.29 193.678 214.394 193.841 214.44C194.011 214.486 194.195 214.504 194.393 214.492C194.541 214.484 194.689 214.466 194.836 214.439C194.989 214.406 195.105 214.378 195.184 214.354L195.274 215.929C195.11 215.994 194.915 216.052 194.689 216.102C194.463 216.158 194.192 216.195 193.877 216.213C193.408 216.24 192.98 216.177 192.594 216.026C192.207 215.868 191.894 215.595 191.655 215.206C191.416 214.811 191.277 214.273 191.238 213.594L190.674 203.702L192.694 203.587Z" fill="#7A1600"/>
<path d="M117.907 302.057L115.888 302.172L115.317 292.15L117.226 292.042L117.452 294.055L117.907 302.057ZM116.442 296.723C116.39 295.803 116.494 294.973 116.756 294.234C117.023 293.494 117.441 292.897 118.01 292.443C118.585 291.989 119.318 291.737 120.207 291.686C121.133 291.633 121.908 291.865 122.532 292.381C123.162 292.896 123.513 293.781 123.585 295.034L123.965 301.712L121.946 301.827L121.574 295.297C121.546 294.803 121.443 294.413 121.266 294.125C121.088 293.838 120.851 293.638 120.553 293.525C120.255 293.412 119.906 293.367 119.505 293.389C119.054 293.415 118.676 293.52 118.37 293.705C118.071 293.889 117.834 294.135 117.66 294.442C117.485 294.743 117.365 295.088 117.3 295.476C117.235 295.857 117.215 296.264 117.24 296.696L116.442 296.723ZM122.438 295.945C122.4 295.167 122.51 294.439 122.769 293.761C123.033 293.077 123.448 292.517 124.011 292.083C124.575 291.642 125.282 291.397 126.135 291.348C126.832 291.309 127.435 291.401 127.944 291.626C128.452 291.845 128.851 292.219 129.141 292.748C129.437 293.27 129.61 293.966 129.66 294.837L130.032 301.367L128.003 301.482L127.631 294.943C127.601 294.418 127.498 294.015 127.32 293.734C127.15 293.453 126.916 293.262 126.619 293.161C126.322 293.06 125.976 293.021 125.581 293.043C125.222 293.064 124.911 293.147 124.647 293.292C124.382 293.431 124.164 293.62 123.992 293.859C123.825 294.091 123.701 294.355 123.619 294.651C123.543 294.947 123.514 295.261 123.533 295.595L122.438 295.945ZM131.723 296.141C131.668 295.172 131.803 294.293 132.13 293.507C132.457 292.72 132.951 292.085 133.611 291.601C134.277 291.111 135.085 290.839 136.036 290.785C137.005 290.729 137.849 290.907 138.566 291.319C139.283 291.724 139.845 292.299 140.253 293.044C140.667 293.789 140.902 294.646 140.957 295.615L140.969 295.828C141.024 296.791 140.888 297.67 140.562 298.462C140.241 299.249 139.748 299.884 139.081 300.368C138.421 300.852 137.61 301.121 136.646 301.176C135.689 301.23 134.852 301.055 134.135 300.65C133.418 300.245 132.853 299.67 132.439 298.925C132.024 298.174 131.79 297.317 131.735 296.354L131.723 296.141ZM133.763 296.239C133.799 296.862 133.924 297.431 134.139 297.945C134.354 298.46 134.663 298.867 135.064 299.166C135.465 299.459 135.961 299.589 136.554 299.555C137.147 299.521 137.626 299.336 137.991 298.999C138.355 298.656 138.615 298.217 138.771 297.682C138.926 297.146 138.986 296.567 138.95 295.943L138.938 295.73C138.903 295.113 138.778 294.547 138.563 294.032C138.347 293.512 138.036 293.102 137.628 292.803C137.227 292.504 136.727 292.371 136.128 292.405C135.548 292.439 135.072 292.627 134.702 292.97C134.337 293.313 134.077 293.755 133.922 294.297C133.773 294.832 133.716 295.408 133.751 296.025L133.763 296.239ZM145.259 300.499L143.24 300.614L142.669 290.593L144.568 290.484L144.81 292.617L145.259 300.499ZM143.812 295.164C143.771 294.225 143.897 293.385 144.189 292.643C144.488 291.902 144.925 291.31 145.5 290.868C146.082 290.42 146.774 290.173 147.577 290.127C148.231 290.09 148.803 290.181 149.293 290.401C149.782 290.615 150.175 290.986 150.471 291.514C150.768 292.036 150.941 292.745 150.992 293.64L151.363 300.152L149.335 300.267L148.963 293.737C148.934 293.243 148.841 292.852 148.682 292.564C148.523 292.276 148.301 292.075 148.016 291.961C147.731 291.847 147.384 291.802 146.977 291.825C146.575 291.848 146.219 291.952 145.907 292.137C145.596 292.322 145.334 292.569 145.122 292.878C144.91 293.181 144.754 293.528 144.652 293.918C144.556 294.301 144.52 294.709 144.545 295.141L143.812 295.164ZM157.723 291.241L152.156 291.558L152.07 290.057L157.637 289.74L157.723 291.241ZM155.673 287.399L156.232 297.208C156.25 297.535 156.311 297.779 156.413 297.941C156.521 298.102 156.657 298.206 156.821 298.252C156.991 298.298 157.175 298.315 157.372 298.304C157.52 298.296 157.668 298.278 157.815 298.251C157.968 298.218 158.084 298.189 158.163 298.166L158.253 299.741C158.09 299.806 157.895 299.863 157.668 299.914C157.442 299.97 157.172 300.007 156.857 300.025C156.388 300.052 155.96 299.989 155.573 299.838C155.186 299.68 154.873 299.407 154.634 299.018C154.395 298.622 154.256 298.085 154.217 297.406L153.654 287.514L155.673 287.399ZM162.061 299.543L160.033 299.658L159.222 285.431L161.251 285.316L162.061 299.543ZM160.614 294.208C160.568 293.287 160.691 292.456 160.983 291.715C161.276 290.973 161.706 290.376 162.275 289.922C162.85 289.468 163.536 289.218 164.332 289.173C164.993 289.135 165.571 289.226 166.067 289.446C166.569 289.665 166.968 290.039 167.265 290.567C167.567 291.095 167.744 291.807 167.795 292.702L168.165 299.195L166.136 299.31L165.766 292.799C165.737 292.305 165.644 291.914 165.485 291.626C165.326 291.331 165.103 291.127 164.818 291.013C164.533 290.893 164.186 290.845 163.779 290.868C163.365 290.891 163.002 290.996 162.691 291.181C162.379 291.366 162.117 291.613 161.906 291.922C161.7 292.225 161.549 292.571 161.454 292.961C161.358 293.344 161.322 293.752 161.347 294.184L160.614 294.208ZM172.722 298.935L170.703 299.05L169.892 284.823L171.912 284.708L172.722 298.935ZM180.33 288.448L182.479 288.325L179.126 300.113C179.048 300.365 178.939 300.638 178.801 300.931C178.67 301.23 178.494 301.515 178.274 301.788C178.054 302.067 177.776 302.296 177.44 302.477C177.11 302.663 176.704 302.769 176.222 302.797C176.111 302.803 175.99 302.801 175.859 302.79C175.729 302.785 175.604 302.773 175.486 302.755C175.367 302.737 175.264 302.718 175.176 302.698L175.086 301.124C175.142 301.127 175.219 301.129 175.319 301.129C175.418 301.136 175.493 301.138 175.542 301.135C176.104 301.103 176.53 300.967 176.82 300.728C177.116 300.494 177.338 300.1 177.487 299.547L178.098 297.561L180.33 288.448ZM178.743 296.158L179.292 298.292L177.902 298.854L173.661 288.828L175.856 288.703L178.743 296.158ZM189.738 299.128L188.098 299.221L192.701 284.268L194.332 284.175L189.738 299.128ZM202.282 287.198L204.301 287.083L204.871 297.104L202.963 297.213L202.719 294.876L202.282 287.198ZM203.663 292.694C203.714 293.59 203.63 294.394 203.41 295.106C203.191 295.819 202.808 296.395 202.264 296.835C201.718 297.269 200.983 297.512 200.056 297.564C199.068 297.621 198.252 297.376 197.608 296.83C196.97 296.284 196.613 295.348 196.537 294.02L196.168 287.546L198.197 287.43L198.567 293.923C198.597 294.454 198.698 294.867 198.869 295.16C199.047 295.448 199.269 295.642 199.535 295.745C199.807 295.847 200.091 295.89 200.387 295.873C201.061 295.835 201.587 295.675 201.968 295.393C202.348 295.105 202.608 294.731 202.749 294.27C202.897 293.81 202.955 293.305 202.923 292.755L203.663 292.694ZM211.032 296.939C210.131 296.991 209.359 296.874 208.717 296.588C208.081 296.302 207.589 295.918 207.239 295.436C206.889 294.948 206.698 294.426 206.667 293.871L208.649 293.758C208.698 294.189 208.841 294.527 209.078 294.774C209.315 295.021 209.601 295.19 209.934 295.283C210.274 295.375 210.614 295.411 210.953 295.392C211.386 295.367 211.744 295.291 212.028 295.164C212.311 295.03 212.521 294.86 212.658 294.654C212.801 294.441 212.865 294.205 212.85 293.946C212.837 293.717 212.77 293.511 212.648 293.326C212.531 293.134 212.308 292.967 211.978 292.825C211.654 292.682 211.173 292.564 210.536 292.47C209.805 292.363 209.161 292.205 208.604 291.995C208.053 291.778 207.618 291.49 207.3 291.13C206.982 290.765 206.807 290.304 206.776 289.748C206.745 289.211 206.871 288.708 207.154 288.24C207.437 287.771 207.855 287.385 208.408 287.081C208.966 286.77 209.631 286.593 210.403 286.549C211.225 286.502 211.937 286.604 212.539 286.855C213.148 287.099 213.62 287.45 213.956 287.908C214.298 288.365 214.486 288.891 214.52 289.483L212.5 289.598C212.477 289.191 212.293 288.83 211.946 288.515C211.6 288.2 211.115 288.06 210.491 288.096C210.072 288.12 209.729 288.204 209.465 288.35C209.207 288.494 209.019 288.675 208.901 288.893C208.789 289.104 208.74 289.326 208.754 289.561C208.767 289.789 208.84 289.987 208.973 290.152C209.106 290.312 209.331 290.451 209.647 290.569C209.97 290.681 210.425 290.785 211.012 290.882C211.813 291.01 212.492 291.185 213.05 291.407C213.607 291.623 214.036 291.918 214.336 292.291C214.642 292.664 214.812 293.14 214.845 293.721C214.878 294.301 214.741 294.829 214.433 295.305C214.131 295.775 213.688 296.153 213.104 296.44C212.526 296.727 211.835 296.894 211.032 296.939ZM221.388 296.35C220.424 296.404 219.579 296.242 218.851 295.862C218.123 295.476 217.543 294.93 217.113 294.224C216.688 293.511 216.449 292.694 216.397 291.774L216.375 291.385C216.314 290.323 216.463 289.394 216.82 288.6C217.184 287.805 217.694 287.181 218.349 286.729C219.011 286.27 219.746 286.017 220.555 285.971C221.518 285.916 222.321 286.084 222.962 286.475C223.61 286.859 224.106 287.414 224.451 288.137C224.795 288.855 224.995 289.689 225.049 290.64L225.099 291.52L217.476 291.954L217.389 290.435L223.002 290.115L222.993 289.958C222.951 289.539 222.845 289.146 222.675 288.777C222.512 288.403 222.265 288.104 221.937 287.881C221.608 287.658 221.175 287.562 220.638 287.592C220.138 287.621 219.71 287.788 219.356 288.093C219.008 288.398 218.75 288.821 218.583 289.364C218.415 289.9 218.352 290.535 218.394 291.27L218.416 291.659C218.45 292.258 218.592 292.795 218.843 293.27C219.093 293.745 219.436 294.116 219.872 294.382C220.315 294.642 220.829 294.755 221.416 294.722C221.984 294.69 222.468 294.547 222.869 294.295C223.276 294.043 223.622 293.704 223.907 293.279L225.095 294.234C224.808 294.733 224.367 295.198 223.772 295.628C223.176 296.053 222.382 296.293 221.388 296.35ZM229.222 295.718L227.203 295.833L226.632 285.811L228.577 285.7L228.752 287.465L229.222 295.718ZM231.83 287.345C231.681 287.329 231.535 287.319 231.392 287.315C231.249 287.31 231.101 287.313 230.946 287.321C230.428 287.351 229.998 287.478 229.658 287.701C229.323 287.919 229.073 288.212 228.909 288.58C228.743 288.943 228.656 289.363 228.646 289.84L228.144 290.008C228.097 289.181 228.163 288.425 228.34 287.739C228.524 287.053 228.83 286.5 229.259 286.079C229.687 285.652 230.249 285.419 230.947 285.379C231.071 285.372 231.213 285.376 231.375 285.392C231.537 285.407 231.656 285.432 231.733 285.465L231.83 287.345Z" fill="#7A1600"/>
</g>
</g>
<defs>
<clipPath id="clip0_1168_8961">
<rect width="303" height="468" fill="white" transform="translate(20 112)"/>
</clipPath>
<clipPath id="clip1_1168_8961">
<rect width="906" height="408" fill="white" transform="translate(-281.5 140)"/>
</clipPath>
</defs>
</svg>
