<svg width="343" height="600" viewBox="0 0 343 600" fill="none" xmlns="http://www.w3.org/2000/svg">
<rect width="343" height="600" rx="20" fill="#FAE8FF"/>
<g clip-path="url(#clip0_1168_8631)">
<g opacity="0.9">
<circle cx="171.501" cy="346" r="72.265" stroke="#F7DBFF" stroke-width="4"/>
<circle cx="171.501" cy="346" r="118.808" stroke="#F7DBFF" stroke-width="4"/>
<circle cx="171.501" cy="346.001" r="176.397" stroke="#F7DBFF" stroke-width="4"/>
<circle cx="171.5" cy="346" r="264.166" stroke="#F7DBFF" stroke-width="4"/>
<circle cx="171.501" cy="346" r="373.622" stroke="#F7DBFF" stroke-width="4"/>
<path d="M129.234 269.43H201.788C215.595 269.43 226.788 280.623 226.788 294.43V400.23C226.788 407.962 220.52 414.23 212.788 414.23H163.234C144.457 414.23 129.234 399.008 129.234 380.23V269.43Z" fill="#FE6533"/>
<path d="M142.635 388.242H243.153V388.242C243.153 402.595 231.518 414.23 217.165 414.23H142.635V388.242Z" fill="#7A1600"/>
<path d="M129.234 401.266L129.234 381.647L155.164 381.647V401.266C155.164 408.426 149.36 414.231 142.199 414.231C135.039 414.231 129.234 408.426 129.234 401.266Z" fill="#FE6533"/>
<rect x="115.541" y="269.43" width="23.6956" height="12.8194" fill="#FE6533"/>
<path d="M101.848 283.123V295.068H129.234V283.123C129.234 275.56 123.104 269.43 115.541 269.43C107.978 269.43 101.848 275.56 101.848 283.123Z" fill="#7A1600"/>
<path fill-rule="evenodd" clip-rule="evenodd" d="M165.864 299.792C165.469 299.646 165.059 299.531 164.637 299.451C164.606 299.445 164.575 299.439 164.544 299.433C164.261 299.383 164.261 298.978 164.544 298.928C164.575 298.922 164.606 298.916 164.637 298.911C165.059 298.83 165.469 298.715 165.864 298.569C166.1 298.482 166.33 298.384 166.555 298.275C168.109 297.52 169.367 296.262 170.121 294.708C170.23 294.484 170.329 294.253 170.416 294.017C170.562 293.623 170.677 293.213 170.757 292.79C170.763 292.759 170.769 292.728 170.774 292.697C170.825 292.415 171.23 292.415 171.28 292.697C171.286 292.728 171.291 292.759 171.297 292.79C171.378 293.213 171.493 293.623 171.638 294.017C171.726 294.253 171.824 294.484 171.933 294.708C172.687 296.262 173.946 297.52 175.5 298.275C175.724 298.384 175.955 298.482 176.191 298.569C176.585 298.715 176.995 298.83 177.418 298.911C177.449 298.916 177.48 298.922 177.511 298.928C177.793 298.978 177.793 299.383 177.511 299.433C177.48 299.439 177.449 299.445 177.418 299.451C176.995 299.531 176.585 299.646 176.191 299.792C175.955 299.879 175.724 299.977 175.5 300.086C173.946 300.841 172.687 302.099 171.933 303.653C171.824 303.877 171.726 304.108 171.638 304.344C171.493 304.738 171.378 305.148 171.297 305.571C171.291 305.602 171.286 305.633 171.28 305.664C171.23 305.946 170.825 305.946 170.774 305.664C170.769 305.633 170.763 305.602 170.757 305.571C170.677 305.148 170.562 304.738 170.416 304.344C170.329 304.108 170.23 303.877 170.121 303.653C169.367 302.099 168.109 300.841 166.555 300.086C166.33 299.977 166.1 299.879 165.864 299.792ZM175.295 309.821C175.019 309.747 174.739 309.681 174.456 309.626C174.412 309.617 174.367 309.608 174.323 309.6L174.31 309.598L174.291 309.594C174.263 309.589 174.233 309.584 174.171 309.573L174.15 309.569C173.698 309.483 173.698 308.837 174.15 308.752L174.171 308.748C174.233 308.737 174.263 308.731 174.291 308.726L174.31 308.723L174.323 308.72C174.367 308.712 174.412 308.704 174.456 308.695C174.739 308.639 175.019 308.574 175.295 308.5C175.531 308.436 175.763 308.366 175.993 308.289C179.712 307.05 182.639 304.123 183.878 300.404C183.955 300.174 184.025 299.942 184.089 299.706C184.163 299.43 184.228 299.15 184.284 298.867C184.293 298.823 184.301 298.778 184.31 298.734L184.312 298.72L184.315 298.702C184.32 298.675 184.326 298.644 184.337 298.584L184.337 298.582L184.341 298.56C184.426 298.109 185.073 298.109 185.158 298.56L185.162 298.582C185.173 298.643 185.178 298.674 185.183 298.702L185.187 298.72L185.189 298.734C185.198 298.778 185.206 298.823 185.215 298.867C185.27 299.15 185.336 299.43 185.41 299.706C185.474 299.942 185.544 300.174 185.62 300.404C186.86 304.123 189.786 307.05 193.505 308.289C193.735 308.366 193.968 308.436 194.204 308.5C194.48 308.574 194.759 308.639 195.043 308.695C195.087 308.704 195.131 308.712 195.176 308.72L195.189 308.723L195.207 308.726C195.235 308.731 195.266 308.737 195.328 308.748L195.349 308.752C195.801 308.837 195.801 309.483 195.349 309.569L195.328 309.573L195.263 309.584L195.207 309.594L195.189 309.598L195.176 309.6C195.131 309.608 195.087 309.617 195.043 309.626C194.759 309.681 194.48 309.747 194.204 309.821C193.968 309.884 193.735 309.955 193.505 310.031C189.786 311.271 186.86 314.197 185.62 317.916C185.544 318.146 185.474 318.379 185.41 318.615C185.336 318.891 185.27 319.17 185.215 319.454C185.206 319.498 185.198 319.542 185.189 319.587L185.187 319.6L185.183 319.618L185.176 319.659L185.162 319.736L185.158 319.76C185.073 320.212 184.426 320.212 184.341 319.76L184.337 319.739C184.326 319.677 184.32 319.646 184.315 319.618L184.312 319.6L184.31 319.587C184.301 319.542 184.293 319.498 184.284 319.454C184.228 319.17 184.163 318.891 184.089 318.615C184.025 318.379 183.955 318.146 183.878 317.916C182.639 314.197 179.712 311.271 175.993 310.031C175.763 309.955 175.531 309.884 175.295 309.821ZM169.07 318.479C169.545 318.57 169.994 318.728 170.408 318.944C170.592 319.04 170.769 319.148 170.939 319.266C171.41 319.595 171.82 320.005 172.149 320.476C172.267 320.645 172.374 320.822 172.471 321.007C172.687 321.421 172.845 321.87 172.936 322.344C172.94 322.364 172.943 322.384 172.947 322.403C172.979 322.582 173.234 322.582 173.266 322.403C173.27 322.384 173.273 322.364 173.277 322.344C173.368 321.87 173.526 321.421 173.742 321.007C173.838 320.822 173.946 320.645 174.064 320.476C174.393 320.005 174.803 319.595 175.274 319.266C175.443 319.148 175.62 319.04 175.804 318.944C176.219 318.728 176.668 318.57 177.142 318.479C177.162 318.475 177.182 318.472 177.201 318.468C177.379 318.436 177.379 318.181 177.201 318.149C177.182 318.145 177.162 318.142 177.142 318.138C176.668 318.047 176.219 317.889 175.804 317.673C175.62 317.576 175.443 317.469 175.274 317.351C174.803 317.022 174.393 316.612 174.064 316.141C173.946 315.972 173.838 315.794 173.742 315.61C173.526 315.196 173.368 314.747 173.277 314.272C173.273 314.253 173.27 314.233 173.266 314.214C173.234 314.035 172.979 314.035 172.947 314.214C172.943 314.233 172.94 314.253 172.936 314.272C172.845 314.747 172.687 315.196 172.471 315.61C172.374 315.794 172.267 315.972 172.149 316.141C171.82 316.612 171.41 317.022 170.939 317.351C170.769 317.469 170.592 317.576 170.408 317.673C169.994 317.889 169.545 318.047 169.07 318.138C169.051 318.142 169.031 318.145 169.011 318.149C168.833 318.181 168.833 318.436 169.011 318.468C169.031 318.472 169.051 318.475 169.07 318.479Z" fill="white"/>
<path d="M168.117 349.113C167.965 349.309 167.731 349.52 167.417 349.749C167.103 349.978 166.686 350.175 166.167 350.342C165.648 350.509 165.002 350.592 164.231 350.592C163.354 350.592 162.58 350.397 161.909 350.006C161.237 349.616 160.713 349.047 160.337 348.299C159.961 347.551 159.773 346.649 159.773 345.591V344.905C159.773 343.848 159.947 342.946 160.294 342.198C160.647 341.45 161.145 340.881 161.787 340.49C162.43 340.1 163.192 339.905 164.074 339.905C164.945 339.905 165.664 340.048 166.231 340.333C166.798 340.619 167.234 341.017 167.538 341.526C167.843 342.031 168.034 342.612 168.11 343.269H166.245C166.193 342.908 166.086 342.591 165.924 342.319C165.767 342.043 165.54 341.826 165.245 341.669C164.955 341.512 164.578 341.433 164.116 341.433C163.583 341.433 163.135 341.569 162.773 341.841C162.416 342.107 162.147 342.498 161.966 343.012C161.79 343.527 161.702 344.153 161.702 344.891V345.591C161.702 346.339 161.804 346.97 162.009 347.484C162.214 347.999 162.511 348.392 162.902 348.663C163.292 348.93 163.764 349.063 164.316 349.063C164.707 349.063 165.026 349.032 165.274 348.97C165.521 348.904 165.719 348.825 165.867 348.735C166.019 348.639 166.133 348.551 166.21 348.47V346.499H164.124V345.07H168.117V349.113ZM173.325 350.592C172.549 350.592 171.88 350.428 171.318 350.099C170.76 349.766 170.329 349.316 170.025 348.749C169.724 348.182 169.574 347.551 169.574 346.856V346.563C169.574 345.763 169.727 345.065 170.032 344.47C170.336 343.87 170.756 343.405 171.289 343.077C171.822 342.743 172.43 342.577 173.111 342.577C173.854 342.577 174.471 342.738 174.961 343.062C175.456 343.381 175.828 343.827 176.076 344.398C176.323 344.965 176.447 345.622 176.447 346.37V347.156H170.439V345.856H174.64V345.713C174.63 345.417 174.573 345.144 174.468 344.891C174.363 344.639 174.199 344.436 173.975 344.284C173.756 344.127 173.466 344.048 173.104 344.048C172.727 344.048 172.413 344.153 172.161 344.363C171.913 344.572 171.725 344.865 171.596 345.241C171.472 345.617 171.41 346.058 171.41 346.563V346.856C171.41 347.284 171.489 347.67 171.646 348.013C171.808 348.356 172.039 348.627 172.339 348.828C172.644 349.023 173.008 349.12 173.432 349.12C173.837 349.12 174.199 349.042 174.518 348.885C174.842 348.723 175.121 348.492 175.354 348.192L176.304 349.156C176.061 349.518 175.692 349.849 175.197 350.149C174.706 350.444 174.082 350.592 173.325 350.592ZM179.548 350.449H177.719V342.719H179.44L179.548 344.37V350.449ZM178.669 346.32C178.674 345.567 178.802 344.913 179.055 344.355C179.312 343.793 179.671 343.358 180.133 343.048C180.595 342.734 181.133 342.577 181.748 342.577C182.243 342.577 182.674 342.672 183.041 342.862C183.408 343.048 183.691 343.353 183.891 343.777C184.096 344.201 184.198 344.77 184.198 345.484V350.449H182.362V345.47C182.362 345.117 182.312 344.839 182.212 344.634C182.112 344.429 181.962 344.284 181.762 344.198C181.567 344.112 181.326 344.07 181.041 344.07C180.75 344.07 180.493 344.127 180.269 344.241C180.05 344.355 179.862 344.515 179.705 344.72C179.552 344.925 179.436 345.163 179.355 345.434C179.278 345.706 179.24 345.998 179.24 346.313L178.669 346.32ZM187.149 350.449H185.141L189.049 340.048H190.314L190.185 341.598L187.149 350.449ZM189.656 341.598L189.513 340.048H190.785L194.707 350.449H192.7L189.656 341.598ZM192.585 348.12H186.942V346.577H192.585V348.12ZM197.843 350.449H195.943V340.048H197.843V350.449ZM157.937 356.048C158.732 356.048 159.411 356.167 159.973 356.405C160.54 356.643 160.971 356.995 161.266 357.462C161.566 357.929 161.716 358.503 161.716 359.184C161.716 359.717 161.621 360.182 161.43 360.577C161.245 360.972 160.978 361.303 160.63 361.57C160.282 361.837 159.87 362.046 159.394 362.199L158.816 362.506H155.515V360.97H157.944C158.363 360.97 158.711 360.898 158.987 360.755C159.263 360.613 159.468 360.415 159.601 360.162C159.74 359.91 159.809 359.622 159.809 359.298C159.809 358.774 159.659 358.357 159.359 358.048C159.058 357.738 158.585 357.583 157.937 357.583H156.108V366.449H154.208V356.048H157.937ZM157.673 361.777H159.68L162.13 366.349V366.449H160.087L157.673 361.777ZM166.731 366.592C165.955 366.592 165.286 366.428 164.724 366.099C164.166 365.766 163.735 365.316 163.431 364.749C163.131 364.182 162.981 363.551 162.981 362.856V362.563C162.981 361.763 163.133 361.065 163.438 360.47C163.743 359.87 164.162 359.405 164.695 359.077C165.229 358.743 165.836 358.577 166.517 358.577C167.26 358.577 167.877 358.738 168.367 359.062C168.862 359.381 169.234 359.827 169.482 360.398C169.729 360.965 169.853 361.622 169.853 362.37V363.156H163.845V361.856H168.046V361.713C168.036 361.417 167.979 361.144 167.874 360.891C167.769 360.639 167.605 360.436 167.381 360.284C167.162 360.127 166.872 360.048 166.51 360.048C166.133 360.048 165.819 360.153 165.567 360.363C165.319 360.572 165.131 360.865 165.002 361.241C164.878 361.617 164.817 362.058 164.817 362.563V362.856C164.817 363.284 164.895 363.67 165.052 364.013C165.214 364.356 165.445 364.627 165.745 364.828C166.05 365.023 166.414 365.12 166.838 365.12C167.243 365.12 167.605 365.042 167.924 364.885C168.248 364.723 168.527 364.492 168.76 364.192L169.71 365.156C169.467 365.518 169.098 365.849 168.603 366.149C168.112 366.444 167.488 366.592 166.731 366.592ZM174.975 366.592C174.49 366.592 174.068 366.502 173.711 366.321C173.354 366.135 173.051 365.875 172.804 365.542C172.561 365.209 172.365 364.818 172.218 364.37C172.07 363.918 171.963 363.425 171.896 362.891V362.391C171.982 361.639 172.144 360.977 172.382 360.405C172.62 359.834 172.949 359.386 173.368 359.062C173.792 358.738 174.323 358.577 174.961 358.577C175.614 358.577 176.164 358.741 176.611 359.069C177.059 359.398 177.397 359.858 177.626 360.448C177.859 361.034 177.976 361.72 177.976 362.506V362.656C177.976 363.408 177.859 364.082 177.626 364.678C177.397 365.268 177.059 365.735 176.611 366.078C176.168 366.421 175.623 366.592 174.975 366.592ZM171.153 369.421V358.719H172.839L172.982 360.205V369.421H171.153ZM174.475 365.12C174.875 365.12 175.197 365.009 175.44 364.785C175.687 364.561 175.866 364.263 175.976 363.892C176.09 363.515 176.147 363.103 176.147 362.656V362.506C176.147 362.049 176.09 361.637 175.976 361.27C175.861 360.903 175.68 360.613 175.433 360.398C175.185 360.179 174.861 360.07 174.461 360.07C174.166 360.07 173.913 360.117 173.704 360.212C173.494 360.308 173.318 360.443 173.175 360.62C173.037 360.791 172.927 360.998 172.846 361.241C172.77 361.479 172.718 361.744 172.689 362.034V363.249C172.742 363.596 172.832 363.913 172.961 364.199C173.089 364.48 173.275 364.704 173.518 364.87C173.766 365.037 174.085 365.12 174.475 365.12ZM179.055 362.513C179.055 361.76 179.197 361.089 179.483 360.498C179.769 359.908 180.179 359.441 180.712 359.098C181.25 358.75 181.898 358.577 182.655 358.577C183.422 358.577 184.077 358.75 184.62 359.098C185.163 359.441 185.575 359.908 185.856 360.498C186.141 361.089 186.284 361.76 186.284 362.513V362.663C186.284 363.411 186.141 364.082 185.856 364.678C185.575 365.268 185.163 365.735 184.62 366.078C184.082 366.421 183.431 366.592 182.669 366.592C181.907 366.592 181.257 366.421 180.719 366.078C180.181 365.735 179.769 365.268 179.483 364.678C179.197 364.082 179.055 363.411 179.055 362.663V362.513ZM180.883 362.663C180.883 363.111 180.945 363.523 181.069 363.899C181.193 364.27 181.386 364.568 181.648 364.792C181.91 365.011 182.25 365.12 182.669 365.12C183.089 365.12 183.429 365.011 183.691 364.792C183.953 364.568 184.144 364.27 184.263 363.899C184.386 363.523 184.448 363.111 184.448 362.663V362.513C184.448 362.07 184.386 361.663 184.263 361.291C184.144 360.915 183.951 360.615 183.684 360.391C183.422 360.162 183.079 360.048 182.655 360.048C182.241 360.048 181.903 360.162 181.641 360.391C181.379 360.615 181.186 360.915 181.062 361.291C180.943 361.663 180.883 362.07 180.883 362.513V362.663ZM189.513 366.449H187.685V358.719H189.421L189.513 360.277V366.449ZM191.835 360.413C191.726 360.393 191.607 360.379 191.478 360.37C191.354 360.36 191.233 360.355 191.114 360.355C190.728 360.355 190.406 360.424 190.149 360.563C189.892 360.696 189.697 360.891 189.563 361.148C189.435 361.401 189.359 361.703 189.335 362.056L188.928 362.027C188.928 361.375 189.013 360.789 189.185 360.27C189.356 359.746 189.611 359.334 189.949 359.034C190.292 358.729 190.718 358.577 191.228 358.577C191.328 358.577 191.44 358.586 191.564 358.605C191.688 358.619 191.783 358.641 191.85 358.669L191.835 360.413ZM196.872 360.07H192.464V358.719H196.872V360.07ZM195.514 356.826V364.235C195.514 364.468 195.548 364.647 195.614 364.77C195.681 364.889 195.774 364.97 195.893 365.013C196.017 365.056 196.162 365.078 196.329 365.078C196.448 365.078 196.562 365.07 196.672 365.056C196.781 365.042 196.867 365.028 196.929 365.013V366.421C196.781 366.468 196.612 366.509 196.422 366.542C196.231 366.575 196.01 366.592 195.757 366.592C195.352 366.592 194.993 366.521 194.679 366.378C194.364 366.23 194.119 365.994 193.943 365.671C193.771 365.347 193.686 364.916 193.686 364.377V356.826H195.514ZM201.065 366.592C200.356 366.592 199.756 366.466 199.265 366.213C198.779 365.956 198.41 365.63 198.158 365.235C197.91 364.839 197.786 364.432 197.786 364.013H199.544C199.563 364.308 199.646 364.549 199.794 364.735C199.946 364.916 200.137 365.047 200.365 365.128C200.599 365.209 200.841 365.249 201.094 365.249C201.389 365.249 201.637 365.211 201.837 365.135C202.037 365.054 202.187 364.947 202.287 364.813C202.392 364.675 202.444 364.516 202.444 364.335C202.444 364.173 202.401 364.027 202.316 363.899C202.235 363.77 202.075 363.651 201.837 363.542C201.604 363.432 201.258 363.33 200.801 363.234C200.258 363.12 199.779 362.968 199.365 362.777C198.951 362.587 198.624 362.341 198.386 362.041C198.153 361.737 198.036 361.367 198.036 360.934C198.036 360.51 198.158 360.12 198.401 359.762C198.643 359.405 198.991 359.119 199.444 358.905C199.896 358.686 200.432 358.577 201.051 358.577C201.704 358.577 202.263 358.686 202.73 358.905C203.201 359.119 203.563 359.412 203.816 359.784C204.068 360.151 204.194 360.57 204.194 361.041H202.366C202.366 360.736 202.256 360.474 202.037 360.255C201.818 360.032 201.487 359.92 201.044 359.92C200.777 359.92 200.551 359.962 200.365 360.048C200.179 360.134 200.041 360.248 199.951 360.391C199.86 360.529 199.815 360.682 199.815 360.848C199.815 361.01 199.86 361.153 199.951 361.277C200.046 361.396 200.206 361.503 200.43 361.598C200.653 361.689 200.965 361.777 201.365 361.863C201.946 361.982 202.451 362.137 202.88 362.327C203.313 362.513 203.647 362.761 203.88 363.07C204.118 363.375 204.237 363.768 204.237 364.249C204.237 364.701 204.106 365.106 203.844 365.463C203.587 365.816 203.22 366.092 202.744 366.292C202.268 366.492 201.708 366.592 201.065 366.592Z" fill="white"/>
<rect x="22.0801" y="435.672" width="70.0264" height="70.0264" rx="12" fill="#F7DBFF"/>
<path d="M39.1289 458.627C39.1289 457.522 40.0243 456.627 41.1289 456.627H46.26C47.3645 456.627 48.26 457.522 48.26 458.627V484.743H39.1289V458.627Z" fill="#FE6533"/>
<path d="M51.5273 468.809C51.5273 467.704 52.4228 466.809 53.5273 466.809H58.6584C59.763 466.809 60.6584 467.704 60.6584 468.809V484.743H51.5273V468.809Z" fill="#7A1600"/>
<path d="M63.9258 474.176C63.9258 473.071 64.8212 472.176 65.9258 472.176H71.0568C72.1614 472.176 73.0568 473.071 73.0568 474.176V484.743H63.9258V474.176Z" fill="#FE6533"/>
<rect x="255.354" y="167.604" width="50" height="50" rx="12" fill="#F7DBFF"/>
<path d="M280.353 184.322C274.326 184.322 269.032 187.07 266.018 191.213C265.54 191.87 265.406 192.728 265.795 193.441C267.51 196.585 272.977 200.882 280.353 200.882C287.837 200.882 293.355 196.809 294.984 193.414C295.322 192.709 295.177 191.889 294.72 191.256C291.711 187.089 286.401 184.322 280.353 184.322Z" fill="#FE6533"/>
<circle cx="280.419" cy="192.602" r="5.17905" fill="#7A1600"/>
</g>
</g>
<defs>
<clipPath id="clip0_1168_8631">
<rect width="303" height="468" fill="white" transform="translate(20 112)"/>
</clipPath>
</defs>
</svg>
