<svg width="343" height="600" viewBox="0 0 343 600" fill="none" xmlns="http://www.w3.org/2000/svg">
<rect width="343" height="600" rx="20" fill="#FFF2E2"/>
<g clip-path="url(#clip0_1168_8714)">
<circle cx="171.499" cy="335.999" r="91.005" stroke="#FFE0CF" stroke-opacity="0.4" stroke-width="4"/>
<circle cx="171.498" cy="336" r="149.293" stroke="#FFE0CF" stroke-opacity="0.4" stroke-width="4"/>
<circle cx="171.498" cy="336" r="221.414" stroke="#FFE0CF" stroke-opacity="0.4" stroke-width="4"/>
<circle cx="171.497" cy="336" r="331.331" stroke="#FFE0CF" stroke-opacity="0.4" stroke-width="4"/>
<circle cx="171.499" cy="336" r="468.407" stroke="#FFE0CF" stroke-opacity="0.4" stroke-width="4"/>
<rect x="-68.7949" y="186.036" width="89" height="40" rx="20" fill="#FFE0CF"/>
<path d="M104.189 223.457C104.189 218.834 107.937 215.086 112.561 215.086H224.027C228.65 215.086 232.398 218.834 232.398 223.457V434.642C232.398 439.265 228.65 443.013 224.027 443.013H112.561C107.937 443.013 104.189 439.265 104.189 434.642V223.457Z" fill="#FE6533"/>
<rect x="151.547" y="416.844" width="33.4928" height="10.091" rx="5.04548" fill="#FFF2E2"/>
<rect x="163.248" y="223.899" width="10.091" height="10.091" rx="5.04548" fill="#FFF2E2"/>
<path d="M139.471 295.896C139.471 289.821 144.396 284.896 150.471 284.896H252.99C259.065 284.896 263.99 289.821 263.99 295.896V326.982H150.471C144.396 326.982 139.471 322.057 139.471 315.982V295.896Z" fill="#FFE0CF"/>
<path d="M155.814 300.52H230.717" stroke="#FE6533" stroke-width="4" stroke-linecap="round"/>
<path d="M155.814 313.388H191.161" stroke="#FE6533" stroke-width="4" stroke-linecap="round"/>
<path d="M263.99 344.09C263.99 338.015 259.065 333.09 252.99 333.09H150.471C144.396 333.09 139.471 338.015 139.471 344.09V361.983H252.99C259.065 361.983 263.99 357.058 263.99 350.983V344.09Z" fill="#7A1600"/>
<path d="M155.814 347.806H196.718" stroke="#FE6533" stroke-width="4" stroke-linecap="round"/>
<path d="M120.88 471.156C120.375 471.156 119.88 471.089 119.394 470.956C118.908 470.817 118.465 470.61 118.065 470.334C117.67 470.058 117.353 469.712 117.115 469.298C116.882 468.879 116.765 468.386 116.765 467.819H118.673C118.673 468.148 118.727 468.429 118.837 468.662C118.951 468.891 119.108 469.079 119.308 469.227C119.508 469.374 119.742 469.481 120.008 469.548C120.275 469.615 120.566 469.648 120.88 469.648C121.29 469.648 121.628 469.591 121.894 469.477C122.161 469.362 122.361 469.205 122.495 469.005C122.633 468.805 122.702 468.574 122.702 468.312C122.702 468.041 122.645 467.81 122.53 467.619C122.416 467.424 122.202 467.243 121.887 467.076C121.578 466.905 121.125 466.729 120.53 466.548C120.044 466.4 119.592 466.231 119.173 466.04C118.758 465.85 118.394 465.628 118.08 465.376C117.765 465.124 117.52 464.833 117.344 464.504C117.172 464.171 117.087 463.785 117.087 463.347C117.087 462.78 117.244 462.28 117.558 461.847C117.877 461.414 118.318 461.075 118.88 460.832C119.442 460.59 120.089 460.468 120.823 460.468C121.604 460.468 122.276 460.611 122.838 460.897C123.404 461.178 123.84 461.559 124.145 462.04C124.45 462.521 124.602 463.059 124.602 463.654H122.695C122.695 463.33 122.626 463.042 122.487 462.79C122.354 462.538 122.147 462.342 121.866 462.204C121.59 462.061 121.235 461.99 120.801 461.99C120.397 461.99 120.058 462.049 119.787 462.168C119.52 462.287 119.32 462.449 119.187 462.654C119.058 462.859 118.994 463.09 118.994 463.347C118.994 463.6 119.073 463.821 119.23 464.012C119.392 464.202 119.635 464.376 119.958 464.533C120.282 464.685 120.685 464.835 121.166 464.983C121.937 465.207 122.578 465.471 123.088 465.776C123.597 466.076 123.978 466.433 124.231 466.848C124.483 467.257 124.609 467.741 124.609 468.298C124.609 468.889 124.454 469.398 124.145 469.827C123.84 470.255 123.409 470.584 122.852 470.813C122.295 471.041 121.637 471.156 120.88 471.156ZM127.81 471.013H125.974V460.039H127.81V471.013ZM126.924 466.883C126.929 466.16 127.055 465.517 127.303 464.955C127.555 464.393 127.905 463.95 128.353 463.626C128.805 463.302 129.331 463.14 129.932 463.14C130.441 463.14 130.884 463.238 131.26 463.433C131.641 463.623 131.937 463.933 132.146 464.362C132.356 464.79 132.461 465.362 132.461 466.076V471.013H130.624V466.062C130.624 465.705 130.572 465.424 130.467 465.219C130.367 465.009 130.217 464.859 130.017 464.769C129.822 464.678 129.581 464.633 129.296 464.633C128.991 464.633 128.727 464.69 128.503 464.805C128.279 464.919 128.091 465.078 127.938 465.283C127.791 465.488 127.679 465.726 127.603 465.998C127.531 466.269 127.495 466.562 127.495 466.876L126.924 466.883ZM135.197 460.304C135.521 460.304 135.775 460.397 135.961 460.582C136.147 460.763 136.24 460.992 136.24 461.268C136.24 461.544 136.147 461.775 135.961 461.961C135.775 462.142 135.521 462.233 135.197 462.233C134.873 462.233 134.618 462.142 134.432 461.961C134.251 461.775 134.161 461.544 134.161 461.268C134.161 460.992 134.251 460.763 134.432 460.582C134.618 460.397 134.873 460.304 135.197 460.304ZM136.118 471.013H134.282V463.283H136.118V471.013ZM141.805 471.156C141.319 471.156 140.898 471.065 140.54 470.884C140.183 470.698 139.881 470.439 139.633 470.105C139.39 469.772 139.195 469.381 139.047 468.934C138.9 468.481 138.792 467.988 138.726 467.455V466.955C138.812 466.202 138.973 465.54 139.212 464.969C139.45 464.397 139.778 463.95 140.197 463.626C140.621 463.302 141.152 463.14 141.791 463.14C142.443 463.14 142.993 463.304 143.441 463.633C143.889 463.962 144.227 464.421 144.455 465.012C144.689 465.598 144.805 466.283 144.805 467.069V467.219C144.805 467.972 144.689 468.646 144.455 469.241C144.227 469.832 143.889 470.298 143.441 470.641C142.998 470.984 142.453 471.156 141.805 471.156ZM137.983 473.985V463.283H139.669L139.812 464.769V473.985H137.983ZM141.305 469.684C141.705 469.684 142.026 469.572 142.269 469.348C142.517 469.124 142.696 468.827 142.805 468.455C142.919 468.079 142.977 467.667 142.977 467.219V467.069C142.977 466.612 142.919 466.2 142.805 465.833C142.691 465.467 142.51 465.176 142.262 464.962C142.014 464.743 141.691 464.633 141.291 464.633C140.995 464.633 140.743 464.681 140.533 464.776C140.324 464.871 140.147 465.007 140.005 465.183C139.866 465.355 139.757 465.562 139.676 465.805C139.6 466.043 139.547 466.307 139.519 466.598V467.812C139.571 468.16 139.662 468.477 139.79 468.762C139.919 469.043 140.105 469.267 140.348 469.434C140.595 469.601 140.914 469.684 141.305 469.684ZM148.042 471.013H146.206V463.283H147.934L148.042 464.862V471.013ZM147.149 466.883C147.149 466.16 147.263 465.517 147.492 464.955C147.725 464.393 148.07 463.95 148.527 463.626C148.985 463.302 149.551 463.14 150.228 463.14C150.928 463.14 151.502 463.352 151.949 463.776C152.397 464.2 152.621 464.895 152.621 465.862V471.013H150.792V466.04C150.792 465.683 150.737 465.402 150.628 465.197C150.523 464.993 150.371 464.847 150.171 464.762C149.971 464.676 149.735 464.633 149.463 464.633C149.158 464.633 148.897 464.69 148.677 464.805C148.463 464.919 148.287 465.078 148.149 465.283C148.011 465.488 147.908 465.726 147.842 465.998C147.78 466.269 147.749 466.562 147.749 466.876L147.149 466.883ZM151.678 466.655C151.678 466.012 151.792 465.424 152.021 464.89C152.249 464.357 152.588 463.933 153.035 463.619C153.483 463.3 154.035 463.14 154.693 463.14C155.212 463.14 155.66 463.238 156.036 463.433C156.412 463.623 156.7 463.931 156.9 464.354C157.105 464.778 157.207 465.338 157.207 466.033V471.013H155.371V466.026C155.371 465.655 155.317 465.369 155.207 465.169C155.102 464.969 154.95 464.831 154.75 464.755C154.555 464.674 154.324 464.633 154.057 464.633C153.795 464.633 153.566 464.681 153.371 464.776C153.181 464.871 153.019 465.005 152.885 465.176C152.757 465.343 152.659 465.54 152.592 465.769C152.526 465.993 152.492 466.236 152.492 466.498L151.678 466.655ZM160.729 471.013H158.901V463.283H160.622L160.729 464.933V471.013ZM159.851 466.883C159.855 466.131 159.984 465.476 160.236 464.919C160.494 464.357 160.853 463.921 161.315 463.611C161.777 463.297 162.315 463.14 162.93 463.14C163.425 463.14 163.856 463.235 164.223 463.426C164.59 463.611 164.873 463.916 165.073 464.34C165.278 464.764 165.38 465.333 165.38 466.048V471.013H163.544V466.033C163.544 465.681 163.494 465.402 163.394 465.197C163.294 464.993 163.144 464.847 162.944 464.762C162.749 464.676 162.508 464.633 162.222 464.633C161.932 464.633 161.675 464.69 161.451 464.805C161.232 464.919 161.044 465.078 160.887 465.283C160.734 465.488 160.617 465.726 160.537 465.998C160.46 466.269 160.422 466.562 160.422 466.876L159.851 466.883ZM170.702 464.633H166.295V463.283H170.702V464.633ZM169.345 461.39V468.798C169.345 469.031 169.378 469.21 169.445 469.334C169.512 469.453 169.605 469.534 169.724 469.577C169.848 469.62 169.993 469.641 170.16 469.641C170.279 469.641 170.393 469.634 170.502 469.62C170.612 469.605 170.698 469.591 170.76 469.577V470.984C170.612 471.032 170.443 471.072 170.252 471.106C170.062 471.139 169.84 471.156 169.588 471.156C169.183 471.156 168.824 471.084 168.509 470.941C168.195 470.794 167.95 470.558 167.773 470.234C167.602 469.91 167.516 469.479 167.516 468.941V461.39H169.345ZM174.896 471.156C174.186 471.156 173.586 471.029 173.096 470.777C172.61 470.52 172.241 470.194 171.988 469.798C171.741 469.403 171.617 468.996 171.617 468.577H173.374C173.393 468.872 173.477 469.112 173.624 469.298C173.777 469.479 173.967 469.61 174.196 469.691C174.429 469.772 174.672 469.812 174.925 469.812C175.22 469.812 175.468 469.774 175.668 469.698C175.868 469.617 176.018 469.51 176.118 469.377C176.222 469.239 176.275 469.079 176.275 468.898C176.275 468.736 176.232 468.591 176.146 468.462C176.065 468.334 175.906 468.215 175.668 468.105C175.434 467.996 175.089 467.893 174.632 467.798C174.089 467.684 173.61 467.531 173.196 467.341C172.781 467.15 172.455 466.905 172.217 466.605C171.984 466.3 171.867 465.931 171.867 465.498C171.867 465.074 171.988 464.683 172.231 464.326C172.474 463.969 172.822 463.683 173.274 463.469C173.727 463.25 174.263 463.14 174.882 463.14C175.534 463.14 176.094 463.25 176.561 463.469C177.032 463.683 177.394 463.976 177.646 464.347C177.899 464.714 178.025 465.133 178.025 465.605H176.196C176.196 465.3 176.087 465.038 175.868 464.819C175.649 464.595 175.317 464.483 174.875 464.483C174.608 464.483 174.382 464.526 174.196 464.612C174.01 464.697 173.872 464.812 173.782 464.955C173.691 465.093 173.646 465.245 173.646 465.412C173.646 465.574 173.691 465.717 173.782 465.84C173.877 465.959 174.036 466.067 174.26 466.162C174.484 466.252 174.796 466.341 175.196 466.426C175.777 466.545 176.282 466.7 176.711 466.891C177.144 467.076 177.477 467.324 177.711 467.634C177.949 467.938 178.068 468.331 178.068 468.812C178.068 469.265 177.937 469.67 177.675 470.027C177.418 470.379 177.051 470.655 176.575 470.856C176.099 471.056 175.539 471.156 174.896 471.156ZM191.334 467.598C191.282 468.284 191.091 468.896 190.763 469.434C190.434 469.972 189.975 470.394 189.384 470.698C188.794 471.003 188.074 471.156 187.227 471.156C186.365 471.156 185.617 470.956 184.983 470.555C184.35 470.151 183.862 469.577 183.519 468.834C183.176 468.091 183.004 467.217 183.004 466.212V465.419C183.004 464.409 183.178 463.535 183.526 462.797C183.878 462.054 184.376 461.48 185.019 461.075C185.662 460.671 186.417 460.468 187.284 460.468C188.127 460.468 188.836 460.623 189.413 460.932C189.994 461.237 190.444 461.664 190.763 462.211C191.082 462.754 191.275 463.376 191.342 464.076H189.441C189.375 463.423 189.182 462.919 188.863 462.561C188.548 462.199 188.022 462.018 187.284 462.018C186.765 462.018 186.329 462.147 185.976 462.404C185.629 462.661 185.367 463.042 185.191 463.547C185.014 464.047 184.926 464.666 184.926 465.405V466.212C184.926 466.917 185.005 467.524 185.162 468.034C185.319 468.538 185.567 468.927 185.905 469.198C186.243 469.47 186.684 469.605 187.227 469.605C187.722 469.605 188.122 469.529 188.427 469.377C188.732 469.224 188.963 469 189.12 468.705C189.282 468.405 189.386 468.036 189.434 467.598H191.334ZM194.535 471.013H192.699V460.039H194.535V471.013ZM193.649 466.883C193.654 466.16 193.78 465.517 194.028 464.955C194.28 464.393 194.63 463.95 195.078 463.626C195.53 463.302 196.057 463.14 196.657 463.14C197.166 463.14 197.609 463.238 197.985 463.433C198.366 463.623 198.662 463.933 198.871 464.362C199.081 464.79 199.186 465.362 199.186 466.076V471.013H197.35V466.062C197.35 465.705 197.297 465.424 197.192 465.219C197.092 465.009 196.942 464.859 196.742 464.769C196.547 464.678 196.307 464.633 196.021 464.633C195.716 464.633 195.452 464.69 195.228 464.805C195.004 464.919 194.816 465.078 194.664 465.283C194.516 465.488 194.404 465.726 194.328 465.998C194.256 466.269 194.221 466.562 194.221 466.876L193.649 466.883ZM205.18 465.798C205.18 465.407 205.072 465.097 204.858 464.869C204.648 464.635 204.325 464.519 203.886 464.519C203.624 464.519 203.396 464.564 203.201 464.655C203.01 464.74 202.862 464.859 202.758 465.012C202.653 465.164 202.601 465.34 202.601 465.54H200.772C200.772 465.116 200.903 464.724 201.165 464.362C201.431 463.995 201.805 463.7 202.286 463.476C202.767 463.252 203.334 463.14 203.986 463.14C204.572 463.14 205.091 463.24 205.544 463.44C206.001 463.635 206.361 463.931 206.623 464.326C206.885 464.721 207.016 465.217 207.016 465.812V469.198C207.016 469.574 207.042 469.901 207.094 470.177C207.146 470.448 207.22 470.686 207.316 470.891V471.013H205.451C205.36 470.822 205.291 470.577 205.244 470.277C205.201 469.977 205.18 469.682 205.18 469.391V465.798ZM205.444 467.419H204.258C203.648 467.419 203.191 467.536 202.886 467.769C202.581 467.998 202.429 468.303 202.429 468.684C202.429 468.979 202.529 469.224 202.729 469.42C202.934 469.615 203.22 469.712 203.586 469.712C203.929 469.712 204.227 469.643 204.479 469.505C204.732 469.367 204.929 469.2 205.072 469.005C205.215 468.805 205.289 468.617 205.294 468.441L205.858 469.255C205.796 469.446 205.699 469.651 205.565 469.87C205.432 470.089 205.256 470.296 205.037 470.491C204.822 470.686 204.565 470.846 204.265 470.97C203.965 471.094 203.617 471.156 203.222 471.156C202.722 471.156 202.272 471.056 201.872 470.856C201.477 470.655 201.165 470.382 200.936 470.034C200.712 469.682 200.6 469.286 200.6 468.848C200.6 468.029 200.905 467.4 201.515 466.962C202.129 466.519 203.005 466.298 204.144 466.298H205.444V467.419ZM212.381 464.633H207.973V463.283H212.381V464.633ZM211.023 461.39V468.798C211.023 469.031 211.057 469.21 211.123 469.334C211.19 469.453 211.283 469.534 211.402 469.577C211.526 469.62 211.671 469.641 211.838 469.641C211.957 469.641 212.071 469.634 212.181 469.62C212.29 469.605 212.376 469.591 212.438 469.577V470.984C212.29 471.032 212.121 471.072 211.931 471.106C211.74 471.139 211.519 471.156 211.266 471.156C210.861 471.156 210.502 471.084 210.187 470.941C209.873 470.794 209.628 470.558 209.452 470.234C209.28 469.91 209.194 469.479 209.194 468.941V461.39H211.023ZM216.574 471.156C215.865 471.156 215.264 471.029 214.774 470.777C214.288 470.52 213.919 470.194 213.667 469.798C213.419 469.403 213.295 468.996 213.295 468.577H215.053C215.072 468.872 215.155 469.112 215.303 469.298C215.455 469.479 215.646 469.61 215.874 469.691C216.107 469.772 216.35 469.812 216.603 469.812C216.898 469.812 217.146 469.774 217.346 469.698C217.546 469.617 217.696 469.51 217.796 469.377C217.901 469.239 217.953 469.079 217.953 468.898C217.953 468.736 217.91 468.591 217.824 468.462C217.743 468.334 217.584 468.215 217.346 468.105C217.112 467.996 216.767 467.893 216.31 467.798C215.767 467.684 215.288 467.531 214.874 467.341C214.46 467.15 214.133 466.905 213.895 466.605C213.662 466.3 213.545 465.931 213.545 465.498C213.545 465.074 213.667 464.683 213.91 464.326C214.152 463.969 214.5 463.683 214.953 463.469C215.405 463.25 215.941 463.14 216.56 463.14C217.212 463.14 217.772 463.25 218.239 463.469C218.71 463.683 219.072 463.976 219.325 464.347C219.577 464.714 219.703 465.133 219.703 465.605H217.874C217.874 465.3 217.765 465.038 217.546 464.819C217.327 464.595 216.996 464.483 216.553 464.483C216.286 464.483 216.06 464.526 215.874 464.612C215.688 464.697 215.55 464.812 215.46 464.955C215.369 465.093 215.324 465.245 215.324 465.412C215.324 465.574 215.369 465.717 215.46 465.84C215.555 465.959 215.715 466.067 215.938 466.162C216.162 466.252 216.474 466.341 216.874 466.426C217.455 466.545 217.96 466.7 218.389 466.891C218.822 467.076 219.156 467.324 219.389 467.634C219.627 467.938 219.746 468.331 219.746 468.812C219.746 469.265 219.615 469.67 219.353 470.027C219.096 470.379 218.729 470.655 218.253 470.856C217.777 471.056 217.217 471.156 216.574 471.156Z" fill="#7A1600"/>
</g>
<defs>
<clipPath id="clip0_1168_8714">
<rect width="303" height="468" fill="white" transform="translate(20 112)"/>
</clipPath>
</defs>
</svg>
