<svg width="343" height="600" viewBox="0 0 343 600" fill="none" xmlns="http://www.w3.org/2000/svg">
<rect width="343" height="600" rx="20" fill="#FEFFC7"/>
<g clip-path="url(#clip0_1168_8551)">
<path d="M394.565 355.759C394.565 358.613 393.265 361.577 390.421 364.646C387.567 367.725 383.262 370.792 377.548 373.776C366.124 379.74 349.462 385.172 328.705 389.756C287.223 398.917 229.82 404.6 166.348 404.6C102.876 404.6 45.4728 398.917 3.99116 389.756C-16.7659 385.172 -33.4279 379.74 -44.8519 373.776C-50.5661 370.792 -54.8714 367.725 -57.7249 364.646C-60.5688 361.577 -61.8691 358.613 -61.8691 355.759C-61.8691 352.905 -60.5688 349.941 -57.7249 346.872C-54.8714 343.793 -50.5661 340.726 -44.8519 337.742C-33.4279 331.778 -16.7659 326.346 3.99116 321.762C45.4728 312.601 102.876 306.918 166.348 306.918C229.82 306.918 287.223 312.601 328.705 321.762C349.462 326.346 366.124 331.778 377.548 337.742C383.262 340.726 387.567 343.793 390.421 346.872C393.265 349.941 394.565 352.905 394.565 355.759Z" stroke="#F7F9B3" stroke-width="4"/>
<path d="M234.664 362.729C234.664 363.259 234.386 363.903 233.574 364.659C232.763 365.414 231.51 366.191 229.806 366.959C226.402 368.492 221.415 369.898 215.174 371.087C202.709 373.462 185.445 374.938 166.347 374.938C147.249 374.938 129.986 373.462 117.521 371.087C111.28 369.898 106.292 368.492 102.889 366.959C101.184 366.191 99.9322 365.414 99.121 364.659C98.309 363.903 98.0312 363.259 98.0312 362.729C98.0312 362.199 98.309 361.555 99.121 360.798C99.9322 360.043 101.184 359.267 102.889 358.499C106.292 356.966 111.28 355.56 117.521 354.371C129.986 351.995 147.249 350.52 166.347 350.52C185.445 350.52 202.709 351.995 215.174 354.371C221.415 355.56 226.402 356.966 229.806 358.499C231.51 359.267 232.763 360.043 233.574 360.798C234.386 361.555 234.664 362.199 234.664 362.729Z" fill="#F7F9B3" stroke="#F7F9B3" stroke-width="2"/>
<path d="M553.045 324.408C553.045 338.265 542.908 351.936 523.402 364.739C503.978 377.489 475.738 389.047 440.664 398.784C370.542 418.251 273.557 430.318 166.349 430.318C59.1409 430.318 -37.8448 418.251 -107.966 398.784C-143.041 389.047 -171.28 377.489 -190.705 364.739C-210.21 351.936 -220.348 338.265 -220.348 324.408C-220.348 310.551 -210.21 296.879 -190.705 284.076C-171.28 271.327 -143.041 259.769 -107.966 250.031C-37.8448 230.564 59.1409 218.498 166.349 218.498C273.557 218.498 370.542 230.564 440.664 250.031C475.738 259.769 503.978 271.327 523.402 284.076C542.908 296.879 553.045 310.551 553.045 324.408Z" stroke="#F7F9B3" stroke-width="4"/>
<path d="M689.279 298.727C689.279 321.501 675.145 343.53 648.805 363.866C622.493 384.18 584.292 402.56 536.909 418.033C442.165 448.971 311.151 468.139 166.347 468.139C21.5423 468.139 -109.472 448.971 -204.216 418.033C-251.599 402.56 -289.799 384.18 -316.112 363.866C-342.452 343.53 -356.586 321.501 -356.586 298.727C-356.586 275.954 -342.452 253.924 -316.112 233.589C-289.799 213.275 -251.599 194.895 -204.216 179.422C-109.472 148.484 21.5423 129.315 166.347 129.315C311.151 129.315 442.165 148.484 536.909 179.422C584.292 194.895 622.493 213.275 648.805 233.589C675.145 253.924 689.279 275.954 689.279 298.727Z" stroke="#F7F9B3" stroke-width="4"/>
<path d="M820.945 298.728C820.945 327.438 803.127 355.122 770.124 380.601C737.149 406.059 689.308 429.072 630.012 448.434C511.441 487.153 347.511 511.133 166.349 511.133C-14.8138 511.133 -178.744 487.153 -297.315 448.434C-356.611 429.072 -404.452 406.059 -437.427 380.601C-470.43 355.122 -488.248 327.438 -488.248 298.728C-488.248 270.018 -470.43 242.334 -437.427 216.855C-404.452 191.397 -356.611 168.384 -297.315 149.021C-178.744 110.303 -14.8138 86.3223 166.349 86.3223C347.511 86.3223 511.441 110.303 630.012 149.021C689.308 168.384 737.149 191.397 770.124 216.855C803.127 242.334 820.945 270.018 820.945 298.728Z" stroke="#F7F9B3" stroke-width="4"/>
<path d="M158.141 142.202C157.636 142.202 157.141 142.136 156.655 142.002C156.169 141.864 155.726 141.657 155.326 141.381C154.931 141.105 154.614 140.759 154.376 140.345C154.143 139.926 154.026 139.433 154.026 138.866H155.933C155.933 139.195 155.988 139.476 156.098 139.709C156.212 139.938 156.369 140.126 156.569 140.274C156.769 140.421 157.003 140.528 157.269 140.595C157.536 140.662 157.827 140.695 158.141 140.695C158.551 140.695 158.889 140.638 159.155 140.524C159.422 140.409 159.622 140.252 159.755 140.052C159.894 139.852 159.963 139.621 159.963 139.359C159.963 139.088 159.906 138.857 159.791 138.666C159.677 138.471 159.463 138.29 159.148 138.123C158.839 137.952 158.386 137.776 157.791 137.595C157.305 137.447 156.853 137.278 156.434 137.087C156.019 136.897 155.655 136.675 155.34 136.423C155.026 136.171 154.781 135.88 154.605 135.551C154.433 135.218 154.347 134.832 154.347 134.394C154.347 133.827 154.505 133.327 154.819 132.894C155.138 132.46 155.579 132.122 156.141 131.879C156.703 131.636 157.35 131.515 158.084 131.515C158.865 131.515 159.536 131.658 160.098 131.944C160.665 132.225 161.101 132.606 161.406 133.087C161.711 133.568 161.863 134.106 161.863 134.701H159.956C159.956 134.377 159.886 134.089 159.748 133.837C159.615 133.584 159.408 133.389 159.127 133.251C158.851 133.108 158.496 133.037 158.062 133.037C157.658 133.037 157.319 133.096 157.048 133.215C156.781 133.334 156.581 133.496 156.448 133.701C156.319 133.906 156.255 134.137 156.255 134.394C156.255 134.646 156.334 134.868 156.491 135.058C156.653 135.249 156.895 135.423 157.219 135.58C157.543 135.732 157.946 135.882 158.427 136.03C159.198 136.254 159.839 136.518 160.348 136.823C160.858 137.123 161.239 137.48 161.491 137.895C161.744 138.304 161.87 138.788 161.87 139.345C161.87 139.935 161.715 140.445 161.406 140.874C161.101 141.302 160.67 141.631 160.113 141.86C159.555 142.088 158.898 142.202 158.141 142.202ZM167.571 136.844C167.571 136.454 167.464 136.144 167.25 135.916C167.04 135.682 166.716 135.566 166.278 135.566C166.016 135.566 165.787 135.611 165.592 135.701C165.402 135.787 165.254 135.906 165.149 136.059C165.044 136.211 164.992 136.387 164.992 136.587H163.163C163.163 136.163 163.294 135.77 163.556 135.408C163.823 135.042 164.197 134.746 164.678 134.523C165.159 134.299 165.726 134.187 166.378 134.187C166.964 134.187 167.483 134.287 167.935 134.487C168.393 134.682 168.752 134.977 169.014 135.373C169.276 135.768 169.407 136.263 169.407 136.859V140.245C169.407 140.621 169.433 140.947 169.486 141.224C169.538 141.495 169.612 141.733 169.707 141.938V142.06H167.843C167.752 141.869 167.683 141.624 167.635 141.324C167.592 141.024 167.571 140.728 167.571 140.438V136.844ZM167.835 138.466H166.649C166.04 138.466 165.583 138.583 165.278 138.816C164.973 139.045 164.821 139.35 164.821 139.731C164.821 140.026 164.921 140.271 165.121 140.466C165.325 140.662 165.611 140.759 165.978 140.759C166.321 140.759 166.619 140.69 166.871 140.552C167.123 140.414 167.321 140.247 167.464 140.052C167.607 139.852 167.681 139.664 167.685 139.488L168.25 140.302C168.188 140.493 168.09 140.697 167.957 140.917C167.823 141.136 167.647 141.343 167.428 141.538C167.214 141.733 166.957 141.893 166.657 142.017C166.357 142.141 166.009 142.202 165.614 142.202C165.114 142.202 164.663 142.102 164.263 141.902C163.868 141.702 163.556 141.429 163.328 141.081C163.104 140.728 162.992 140.333 162.992 139.895C162.992 139.076 163.297 138.447 163.906 138.009C164.521 137.566 165.397 137.345 166.535 137.345H167.835V138.466ZM173.101 142.06H171.265V131.086H173.101V142.06ZM178.394 142.202C177.618 142.202 176.949 142.038 176.387 141.71C175.83 141.376 175.399 140.926 175.094 140.359C174.794 139.793 174.644 139.161 174.644 138.466V138.173C174.644 137.373 174.796 136.675 175.101 136.08C175.406 135.48 175.825 135.016 176.358 134.687C176.892 134.354 177.499 134.187 178.18 134.187C178.923 134.187 179.54 134.349 180.03 134.673C180.526 134.992 180.897 135.437 181.145 136.009C181.392 136.575 181.516 137.233 181.516 137.98V138.766H175.508V137.466H179.709V137.323C179.699 137.028 179.642 136.754 179.537 136.502C179.433 136.249 179.268 136.047 179.044 135.894C178.825 135.737 178.535 135.659 178.173 135.659C177.797 135.659 177.482 135.763 177.23 135.973C176.982 136.182 176.794 136.475 176.665 136.852C176.542 137.228 176.48 137.668 176.48 138.173V138.466C176.48 138.895 176.558 139.281 176.715 139.623C176.877 139.966 177.108 140.238 177.408 140.438C177.713 140.633 178.078 140.731 178.501 140.731C178.906 140.731 179.268 140.652 179.587 140.495C179.911 140.333 180.19 140.102 180.423 139.802L181.373 140.767C181.13 141.128 180.761 141.459 180.266 141.76C179.775 142.055 179.152 142.202 178.394 142.202ZM185.724 142.202C185.014 142.202 184.414 142.076 183.924 141.824C183.438 141.567 183.069 141.24 182.816 140.845C182.569 140.45 182.445 140.043 182.445 139.623H184.202C184.221 139.919 184.305 140.159 184.452 140.345C184.605 140.526 184.795 140.657 185.024 140.738C185.257 140.819 185.5 140.859 185.753 140.859C186.048 140.859 186.296 140.821 186.496 140.745C186.696 140.664 186.846 140.557 186.946 140.424C187.05 140.285 187.103 140.126 187.103 139.945C187.103 139.783 187.06 139.638 186.974 139.509C186.893 139.381 186.734 139.261 186.496 139.152C186.262 139.042 185.917 138.94 185.46 138.845C184.917 138.73 184.438 138.578 184.024 138.388C183.609 138.197 183.283 137.952 183.045 137.652C182.812 137.347 182.695 136.978 182.695 136.544C182.695 136.121 182.816 135.73 183.059 135.373C183.302 135.016 183.65 134.73 184.102 134.515C184.555 134.296 185.091 134.187 185.71 134.187C186.362 134.187 186.922 134.296 187.389 134.515C187.86 134.73 188.222 135.023 188.474 135.394C188.727 135.761 188.853 136.18 188.853 136.652H187.024C187.024 136.347 186.915 136.085 186.696 135.866C186.477 135.642 186.146 135.53 185.703 135.53C185.436 135.53 185.21 135.573 185.024 135.659C184.838 135.744 184.7 135.859 184.61 136.001C184.519 136.14 184.474 136.292 184.474 136.459C184.474 136.621 184.519 136.763 184.61 136.887C184.705 137.006 184.864 137.114 185.088 137.209C185.312 137.299 185.624 137.387 186.024 137.473C186.605 137.592 187.11 137.747 187.539 137.937C187.972 138.123 188.305 138.371 188.539 138.68C188.777 138.985 188.896 139.378 188.896 139.859C188.896 140.312 188.765 140.716 188.503 141.074C188.246 141.426 187.879 141.702 187.403 141.902C186.927 142.102 186.367 142.202 185.724 142.202Z" fill="#7A1600"/>
<rect x="132.484" y="153.06" width="78.0318" height="78.0318" rx="7.31548" fill="#F7F9B3"/>
<path d="M173.338 173.509H197.328C199.859 173.509 201.132 176.564 199.35 178.36L172.973 204.955C171.852 206.085 170.023 206.076 168.912 204.936L157.208 192.921C156.134 191.818 156.131 190.062 157.2 188.956L171.291 174.377C171.828 173.822 172.567 173.509 173.338 173.509Z" fill="#FE6533"/>
<path d="M167.757 173.509H145.675C143.198 173.509 141.903 176.452 143.575 178.279L171.104 208.332C172.2 209.527 174.07 209.568 175.217 208.422L186.849 196.79C187.931 195.708 187.964 193.964 186.923 192.841L169.845 174.42C169.306 173.839 168.55 173.509 167.757 173.509Z" fill="#7A1600"/>
<path d="M165.574 180.316L170.528 175.11L175.436 180.36L170.466 185.168C169.118 186.473 166.974 186.459 165.642 185.137C164.312 183.816 164.281 181.674 165.574 180.316Z" fill="#FE6533"/>
<rect x="152.818" y="193.246" width="6.77329" height="23.7348" rx="3.38665" transform="rotate(-42.8644 152.818 193.246)" fill="#FE6533"/>
<circle cx="166.37" cy="274.911" r="13.1919" fill="#7A1600" stroke="#FEFFC7" stroke-width="0.691244"/>
<path d="M203.229 291.115H187.527C181.945 291.115 177.42 295.64 177.42 301.221V327.32C177.42 328.038 177.673 328.849 178.374 329.381C180.022 330.632 184.605 333.054 195.378 333.054C206.152 333.054 210.735 330.632 212.382 329.381C213.084 328.849 213.336 328.038 213.336 327.32V301.221C213.336 295.64 208.811 291.115 203.229 291.115Z" fill="#7A1600" stroke="#FEFFC7" stroke-width="1.7803"/>
<circle cx="195.379" cy="278.927" r="9.8827" fill="#7A1600"/>
<path d="M144.304 291.115H128.601C123.02 291.115 118.495 295.64 118.495 301.221V327.32C118.495 328.038 118.747 328.849 119.449 329.381C121.096 330.632 125.679 333.054 136.453 333.054C147.226 333.054 151.809 330.632 153.456 329.381C154.158 328.849 154.41 328.038 154.41 327.32V301.221C154.41 295.64 149.886 291.115 144.304 291.115Z" fill="#7A1600" stroke="#FEFFC7" stroke-width="1.7803"/>
<circle cx="136.455" cy="278.927" r="9.8827" fill="#7A1600"/>
<path d="M189.782 337.779V301.221C189.782 295.027 184.76 290.005 178.565 290.005H166.371H154.178C147.983 290.005 142.961 295.027 142.961 301.221V337.779C142.961 338.718 143.283 339.854 144.255 340.661C146.326 342.38 152.219 345.771 166.371 345.771C180.524 345.771 186.417 342.38 188.488 340.661C189.46 339.854 189.782 338.718 189.782 337.779Z" fill="#7A1600" stroke="#FEFFC7" stroke-width="4"/>
<rect x="127.332" y="397.969" width="78.0318" height="78.0318" rx="7.31548" fill="#F7F9B3"/>
<g clip-path="url(#clip1_1168_8551)">
<rect x="143.809" y="443.008" width="44.8073" height="18.2535" rx="3.04812" fill="#7A1600"/>
<path d="M151.104 426.066L161.826 426.066" stroke="#FE6533" stroke-width="6.09623" stroke-linecap="round"/>
<path d="M180.874 423.786L172.355 415.255C170.436 413.333 167.15 414.692 167.15 417.409V434.63C167.15 437.36 170.464 438.713 172.375 436.764L180.893 428.073C182.063 426.88 182.054 424.968 180.874 423.786Z" fill="#7A1600"/>
<path d="M173.674 423.786L165.156 415.255C163.237 413.333 159.951 414.692 159.951 417.409V434.63C159.951 437.36 163.265 438.713 165.176 436.764L173.694 428.073C174.864 426.88 174.855 424.968 173.674 423.786Z" fill="#FE6533"/>
</g>
<path d="M132.314 497.001H130.413V486.599H132.314V497.001ZM136.5 492.636H131.835V491.107H136.5V492.636ZM137.079 488.135H131.835V486.599H137.079V488.135ZM137.658 493.065C137.658 492.312 137.8 491.641 138.086 491.05C138.372 490.459 138.782 489.993 139.315 489.65C139.853 489.302 140.501 489.128 141.258 489.128C142.025 489.128 142.68 489.302 143.223 489.65C143.766 489.993 144.178 490.459 144.459 491.05C144.744 491.641 144.887 492.312 144.887 493.065V493.215C144.887 493.962 144.744 494.634 144.459 495.229C144.178 495.82 143.766 496.287 143.223 496.629C142.685 496.972 142.034 497.144 141.272 497.144C140.51 497.144 139.86 496.972 139.322 496.629C138.784 496.287 138.372 495.82 138.086 495.229C137.8 494.634 137.658 493.962 137.658 493.215V493.065ZM139.486 493.215C139.486 493.662 139.548 494.074 139.672 494.451C139.796 494.822 139.989 495.12 140.251 495.344C140.513 495.563 140.853 495.672 141.272 495.672C141.692 495.672 142.032 495.563 142.294 495.344C142.556 495.12 142.746 494.822 142.866 494.451C142.989 494.074 143.051 493.662 143.051 493.215V493.065C143.051 492.622 142.989 492.214 142.866 491.843C142.746 491.467 142.554 491.167 142.287 490.943C142.025 490.714 141.682 490.6 141.258 490.6C140.844 490.6 140.506 490.714 140.244 490.943C139.982 491.167 139.789 491.467 139.665 491.843C139.546 492.214 139.486 492.622 139.486 493.065V493.215ZM148.116 497.001H146.288V489.271H148.024L148.116 490.829V497.001ZM150.438 490.964C150.329 490.945 150.21 490.931 150.081 490.921C149.957 490.912 149.836 490.907 149.717 490.907C149.331 490.907 149.009 490.976 148.752 491.114C148.495 491.248 148.3 491.443 148.166 491.7C148.038 491.953 147.962 492.255 147.938 492.607L147.531 492.579C147.531 491.926 147.616 491.341 147.788 490.821C147.959 490.298 148.214 489.886 148.552 489.585C148.895 489.281 149.321 489.128 149.831 489.128C149.931 489.128 150.043 489.138 150.167 489.157C150.291 489.171 150.386 489.193 150.452 489.221L150.438 490.964ZM155.532 489.271H156.696L156.382 491.236L154.617 497.001H153.596L153.782 495.186L155.532 489.271ZM154.167 495.201L154.26 497.001H153.103L151.045 489.271H152.824L154.167 495.201ZM159.597 489.271H161.376L159.318 497.001H158.161L158.297 495.129L159.597 489.271ZM158.625 495.129L158.825 497.001H157.797L156.018 491.236L155.71 489.271H156.889L158.625 495.129ZM166.805 491.786C166.805 491.395 166.698 491.086 166.484 490.857C166.274 490.624 165.95 490.507 165.512 490.507C165.25 490.507 165.022 490.552 164.826 490.643C164.636 490.729 164.488 490.848 164.383 491C164.279 491.152 164.226 491.329 164.226 491.529H162.397C162.397 491.105 162.528 490.712 162.79 490.35C163.057 489.983 163.431 489.688 163.912 489.464C164.393 489.24 164.96 489.128 165.612 489.128C166.198 489.128 166.717 489.228 167.169 489.428C167.627 489.624 167.986 489.919 168.248 490.314C168.51 490.709 168.641 491.205 168.641 491.8V495.186C168.641 495.563 168.667 495.889 168.72 496.165C168.772 496.437 168.846 496.675 168.941 496.88V497.001H167.077C166.986 496.81 166.917 496.565 166.869 496.265C166.827 495.965 166.805 495.67 166.805 495.379V491.786ZM167.069 493.408H165.884C165.274 493.408 164.817 493.524 164.512 493.758C164.207 493.986 164.055 494.291 164.055 494.672C164.055 494.967 164.155 495.213 164.355 495.408C164.56 495.603 164.845 495.701 165.212 495.701C165.555 495.701 165.853 495.632 166.105 495.494C166.357 495.355 166.555 495.189 166.698 494.994C166.841 494.793 166.915 494.605 166.919 494.429L167.484 495.244C167.422 495.434 167.324 495.639 167.191 495.858C167.058 496.077 166.881 496.284 166.662 496.479C166.448 496.675 166.191 496.834 165.891 496.958C165.591 497.082 165.243 497.144 164.848 497.144C164.348 497.144 163.898 497.044 163.497 496.844C163.102 496.644 162.79 496.37 162.562 496.022C162.338 495.67 162.226 495.275 162.226 494.836C162.226 494.017 162.531 493.388 163.14 492.95C163.755 492.507 164.631 492.286 165.769 492.286H167.069V493.408ZM172.22 497.001H170.391V489.271H172.127L172.22 490.829V497.001ZM174.542 490.964C174.433 490.945 174.314 490.931 174.185 490.921C174.061 490.912 173.94 490.907 173.821 490.907C173.435 490.907 173.113 490.976 172.856 491.114C172.599 491.248 172.404 491.443 172.27 491.7C172.142 491.953 172.066 492.255 172.042 492.607L171.634 492.579C171.634 491.926 171.72 491.341 171.892 490.821C172.063 490.298 172.318 489.886 172.656 489.585C172.999 489.281 173.425 489.128 173.935 489.128C174.035 489.128 174.147 489.138 174.271 489.157C174.394 489.171 174.49 489.193 174.556 489.221L174.542 490.964ZM178.307 497.144C177.683 497.144 177.145 496.975 176.692 496.637C176.24 496.294 175.892 495.827 175.649 495.236C175.407 494.646 175.285 493.974 175.285 493.222V493.072C175.285 492.291 175.407 491.605 175.649 491.014C175.892 490.419 176.24 489.957 176.692 489.628C177.145 489.295 177.688 489.128 178.321 489.128C178.945 489.128 179.464 489.293 179.879 489.621C180.298 489.945 180.626 490.395 180.865 490.971C181.107 491.543 181.269 492.205 181.35 492.957V493.379C181.269 494.103 181.11 494.748 180.872 495.315C180.634 495.882 180.305 496.329 179.886 496.658C179.467 496.982 178.94 497.144 178.307 497.144ZM178.771 495.644C179.152 495.644 179.464 495.56 179.707 495.394C179.955 495.227 180.145 495.001 180.279 494.715C180.417 494.429 180.51 494.105 180.557 493.743V492.6C180.529 492.314 180.472 492.05 180.386 491.807C180.305 491.564 180.193 491.355 180.05 491.179C179.912 491.002 179.738 490.867 179.529 490.771C179.319 490.671 179.071 490.621 178.786 490.621C178.386 490.621 178.062 490.731 177.814 490.95C177.571 491.169 177.393 491.464 177.278 491.836C177.169 492.207 177.114 492.619 177.114 493.072V493.222C177.114 493.669 177.169 494.077 177.278 494.443C177.388 494.81 177.564 495.103 177.807 495.322C178.05 495.536 178.371 495.644 178.771 495.644ZM180.45 497.001L180.272 495.365V486.028H182.108V497.001H180.45ZM184.908 486.292C185.232 486.292 185.487 486.385 185.673 486.571C185.858 486.752 185.951 486.98 185.951 487.257C185.951 487.533 185.858 487.764 185.673 487.949C185.487 488.13 185.232 488.221 184.908 488.221C184.584 488.221 184.329 488.13 184.144 487.949C183.963 487.764 183.872 487.533 183.872 487.257C183.872 486.98 183.963 486.752 184.144 486.571C184.329 486.385 184.584 486.292 184.908 486.292ZM185.83 497.001H183.994V489.271H185.83V497.001ZM189.495 497.001H187.666V489.271H189.387L189.495 490.921V497.001ZM188.616 492.872C188.621 492.119 188.749 491.464 189.002 490.907C189.259 490.345 189.618 489.909 190.08 489.6C190.542 489.285 191.081 489.128 191.695 489.128C192.19 489.128 192.621 489.224 192.988 489.414C193.355 489.6 193.638 489.905 193.838 490.328C194.043 490.752 194.145 491.321 194.145 492.036V497.001H192.309V492.022C192.309 491.669 192.259 491.391 192.159 491.186C192.059 490.981 191.909 490.836 191.709 490.75C191.514 490.664 191.273 490.621 190.988 490.621C190.697 490.621 190.44 490.679 190.216 490.793C189.997 490.907 189.809 491.067 189.652 491.271C189.499 491.476 189.383 491.714 189.302 491.986C189.225 492.257 189.187 492.55 189.187 492.865L188.616 492.872ZM198.868 500.044C198.567 500.044 198.236 500.001 197.874 499.916C197.517 499.835 197.17 499.701 196.831 499.516C196.498 499.33 196.217 499.089 195.988 498.794L196.831 497.687C197.098 497.996 197.396 498.227 197.724 498.38C198.058 498.532 198.408 498.608 198.775 498.608C199.346 498.608 199.794 498.451 200.118 498.137C200.442 497.827 200.604 497.38 200.604 496.794V491.036L200.782 489.271H202.44V496.765C202.44 497.465 202.29 498.061 201.989 498.551C201.689 499.042 201.27 499.413 200.732 499.666C200.194 499.918 199.572 500.044 198.868 500.044ZM198.639 497.144C198.005 497.144 197.458 496.975 196.996 496.637C196.534 496.294 196.177 495.827 195.924 495.236C195.672 494.646 195.546 493.974 195.546 493.222V493.072C195.546 492.291 195.669 491.605 195.917 491.014C196.169 490.419 196.529 489.957 196.996 489.628C197.463 489.295 198.015 489.128 198.653 489.128C199.163 489.128 199.594 489.221 199.946 489.407C200.303 489.593 200.599 489.857 200.832 490.2C201.065 490.538 201.249 490.943 201.382 491.414C201.516 491.881 201.616 492.395 201.682 492.957V493.379C201.597 494.103 201.437 494.748 201.204 495.315C200.97 495.882 200.644 496.329 200.225 496.658C199.811 496.982 199.282 497.144 198.639 497.144ZM199.103 495.644C199.499 495.644 199.82 495.56 200.068 495.394C200.315 495.227 200.508 495.001 200.646 494.715C200.784 494.429 200.877 494.105 200.925 493.743V492.6C200.896 492.314 200.842 492.05 200.761 491.807C200.68 491.564 200.565 491.355 200.418 491.179C200.275 491.002 200.094 490.867 199.875 490.771C199.661 490.671 199.408 490.621 199.118 490.621C198.717 490.621 198.389 490.731 198.132 490.95C197.874 491.169 197.684 491.464 197.56 491.836C197.436 492.207 197.374 492.619 197.374 493.072V493.222C197.374 493.669 197.434 494.077 197.553 494.443C197.677 494.81 197.865 495.103 198.117 495.322C198.375 495.536 198.703 495.644 199.103 495.644Z" fill="#7A1600"/>
</g>
<defs>
<clipPath id="clip0_1168_8551">
<rect width="303" height="468" fill="white" transform="translate(20 112)"/>
</clipPath>
<clipPath id="clip1_1168_8551">
<rect width="48.7699" height="48.7699" fill="white" transform="translate(141.963 412.6)"/>
</clipPath>
</defs>
</svg>
