<svg width="1301" height="409" viewBox="0 0 1301 409" fill="none" xmlns="http://www.w3.org/2000/svg">
<g clip-path="url(#clip0_429_4825)">
<path d="M951.737 292.513C951.737 302.663 943.994 312.841 928.706 322.482C913.517 332.061 891.406 340.761 863.905 348.096C808.932 362.759 732.877 371.852 648.791 371.852C564.705 371.852 488.65 362.759 433.678 348.096C406.177 340.761 384.065 332.061 368.877 322.482C353.588 312.841 345.846 302.663 345.846 292.513C345.846 282.363 353.588 272.185 368.877 262.544C384.065 252.965 406.177 244.265 433.678 236.93C488.65 222.267 564.705 213.174 648.791 213.174C732.877 213.174 808.932 222.267 863.905 236.93C891.406 244.265 913.517 252.965 928.706 262.544C943.994 272.185 951.737 282.363 951.737 292.513Z" stroke="#FFE0CF" stroke-width="4"/>
<path d="M1125.31 292.513C1125.31 309.056 1112.71 325.323 1088.63 340.504C1064.66 355.621 1029.84 369.309 986.636 380.834C900.252 403.875 780.804 418.15 648.787 418.15C516.77 418.15 397.321 403.875 310.938 380.834C267.732 369.309 232.911 355.621 208.939 340.504C184.867 325.323 172.268 309.056 172.268 292.513C172.268 275.971 184.867 259.703 208.939 244.523C232.911 229.405 267.732 215.717 310.938 204.192C397.321 181.151 516.77 166.876 648.787 166.876C780.804 166.876 900.252 181.151 986.636 204.192C1029.84 215.717 1064.66 229.405 1088.63 244.523C1112.71 259.703 1125.31 275.971 1125.31 292.513Z" stroke="#FFE0CF" stroke-width="4"/>
<path d="M1418.84 292.513C1418.84 319.866 1398.03 346.432 1359.11 370.98C1320.28 395.465 1263.96 417.589 1194.2 436.198C1054.7 473.408 861.862 496.447 648.787 496.447C435.711 496.447 242.878 473.408 103.375 436.198C33.6082 417.589 -22.7066 395.465 -61.5325 370.98C-100.458 346.432 -121.271 319.866 -121.271 292.513C-121.271 265.16 -100.458 238.594 -61.5325 214.046C-22.7066 189.561 33.6082 167.437 103.375 148.828C242.878 111.618 435.711 88.5791 648.787 88.5791C861.862 88.5791 1054.7 111.618 1194.2 148.828C1263.96 167.437 1320.28 189.561 1359.11 214.046C1398.03 238.594 1418.84 265.16 1418.84 292.513Z" stroke="#FFE0CF" stroke-width="4"/>
<path d="M1725.14 259.897C1725.14 277.2 1717.58 294.251 1702.86 310.908C1688.13 327.577 1666.32 343.752 1638.06 359.223C1581.54 390.165 1499.63 418.094 1398.24 441.573C1195.49 488.523 915.293 517.581 605.728 517.581C296.162 517.581 15.9666 488.523 -186.783 441.573C-288.174 418.094 -370.086 390.165 -426.602 359.223C-454.862 343.752 -476.677 327.577 -491.408 310.908C-506.126 294.251 -513.689 277.2 -513.689 259.897C-513.689 242.594 -506.126 225.542 -491.408 208.885C-476.677 192.216 -454.862 176.041 -426.602 160.57C-370.086 129.628 -288.174 101.699 -186.783 78.2202C15.9666 31.2699 296.162 2.21191 605.728 2.21191C915.293 2.21191 1195.49 31.2699 1398.24 78.2202C1499.63 101.699 1581.54 129.628 1638.06 160.57C1666.32 176.041 1688.13 192.216 1702.86 208.885C1717.58 225.542 1725.14 242.594 1725.14 259.897Z" stroke="#FFE0CF" stroke-width="4"/>
<ellipse cx="646.429" cy="291.755" rx="166.762" ry="33.2975" fill="#7A1600"/>
<rect x="479.668" y="267.972" width="333.523" height="23.9429" fill="#7A1600"/>
<ellipse cx="646.429" cy="267.971" rx="166.762" ry="33.2975" fill="#F7DBFF"/>
<path d="M709.145 275.618H564.736L648.406 150.517L709.145 275.618Z" fill="#FE7D63"/>
<path d="M728.122 256.636L648.791 151.199L709.201 275.644L728.122 256.636Z" fill="#7A1600"/>
<rect x="436.73" y="145.814" width="424.552" height="23.0727" transform="rotate(-3.33476 436.73 145.814)" fill="#7A1600"/>
<path d="M456.058 127.484L838.278 104.539L860.561 121.136L436.731 146.109L456.058 127.484Z" fill="#FE7D63"/>
<path d="M532.945 58.5088L562.693 56.8064M533.676 71.2788L563.424 69.5764M556.649 103.277L534.407 84.0488L541.844 83.6232C558.37 82.6774 556.909 57.1374 540.382 58.0832" stroke="#7A1600" stroke-width="5.48413" stroke-linecap="round" stroke-linejoin="round"/>
<path d="M722.084 97.3935C719.292 97.5533 716.776 97.2971 714.537 96.6249C712.294 95.9029 710.343 94.589 708.684 92.6832C707.021 90.7275 705.694 88.0773 704.702 84.7327C703.708 81.3382 703.062 77.0484 702.765 71.8633C702.469 66.6782 702.622 62.3676 703.226 58.9317C703.827 55.4459 704.843 52.6617 706.274 50.579C707.703 48.4464 709.491 46.9184 711.639 45.9952C713.784 45.0221 716.253 44.4556 719.045 44.2959C721.837 44.1361 724.329 44.4186 726.522 45.1435C728.761 45.8157 730.712 47.1296 732.374 49.0853C734.034 50.9911 735.361 53.6413 736.356 57.0358C737.348 60.3804 737.992 64.6453 738.288 69.8304C738.585 75.0155 738.433 79.351 737.832 82.8368C737.229 86.2727 736.212 89.0569 734.784 91.1895C733.352 93.2722 731.564 94.8002 729.419 95.7733C727.321 96.6937 724.876 97.2338 722.084 97.3935ZM721.767 91.8594C724.609 91.6968 726.761 90.8483 728.224 89.314C729.737 87.7769 730.711 85.5702 731.146 82.6942C731.632 79.8152 731.753 76.2568 731.511 72.019L731.314 68.5789C731.069 64.2912 730.541 60.7449 729.73 57.9402C728.966 55.0827 727.745 52.9767 726.067 51.6222C724.439 50.2647 722.204 49.6674 719.362 49.83C716.52 49.9926 714.343 50.8425 712.83 52.3797C711.317 53.9168 710.318 56.1249 709.833 59.0038C709.397 61.8799 709.302 65.4618 709.547 69.7495L709.74 73.1148C709.982 77.3527 710.485 80.9003 711.249 83.7578C712.063 86.6124 713.309 88.717 714.987 90.0715C716.665 91.4261 718.925 92.022 721.767 91.8594Z" fill="#7A1600"/>
<path d="M679.215 99.8467C676.423 100.006 673.907 99.7502 671.668 99.0781C669.425 98.356 667.474 97.0421 665.815 95.1363C664.152 93.1806 662.825 90.5304 661.833 87.1858C660.839 83.7913 660.193 79.5015 659.896 74.3164C659.6 69.1313 659.753 64.8208 660.357 61.3848C660.958 57.8991 661.974 55.1148 663.405 53.0321C664.834 50.8995 666.622 49.3716 668.77 48.4483C670.915 47.4752 673.384 46.9088 676.176 46.749C678.968 46.5892 681.46 46.8718 683.652 47.5966C685.892 48.2688 687.843 49.5828 689.505 51.5384C691.165 53.4443 692.492 56.0944 693.487 59.4889C694.478 62.8335 695.123 67.0984 695.419 72.2835C695.716 77.4687 695.564 81.8041 694.963 85.2899C694.359 88.7258 693.343 91.5101 691.915 93.6426C690.483 95.7254 688.695 97.2533 686.55 98.2264C684.452 99.1468 682.007 99.6869 679.215 99.8467ZM678.898 94.3125C681.74 94.1499 683.892 93.3014 685.355 91.7671C686.868 90.23 687.842 88.0234 688.277 85.1473C688.763 82.2683 688.884 78.71 688.642 74.4721L688.445 71.032C688.2 66.7443 687.671 63.1981 686.861 60.3933C686.097 57.5358 684.876 55.4298 683.198 54.0753C681.57 52.7179 679.334 52.1205 676.493 52.2831C673.651 52.4458 671.473 53.2956 669.961 54.8328C668.448 56.3699 667.449 58.578 666.964 61.4569C666.528 64.333 666.433 67.9149 666.678 72.2026L666.871 75.568C667.113 79.8058 667.616 83.3534 668.38 86.2109C669.194 89.0655 670.44 91.1701 672.118 92.5247C673.796 93.8792 676.056 94.4752 678.898 94.3125Z" fill="#7A1600"/>
<path d="M636.343 102.3C633.551 102.46 631.036 102.203 628.796 101.531C626.554 100.809 624.603 99.4952 622.944 97.5894C621.281 95.6337 619.954 92.9836 618.962 89.6389C617.968 86.2445 617.322 81.9547 617.025 76.7695C616.728 71.5844 616.882 67.2739 617.486 63.838C618.086 60.3522 619.103 57.5679 620.534 55.4852C621.963 53.3526 623.751 51.8247 625.899 50.9014C628.044 49.9283 630.513 49.3619 633.305 49.2021C636.097 49.0423 638.589 49.3249 640.781 50.0498C643.021 50.7219 644.972 52.0359 646.634 53.9916C648.294 55.8974 649.621 58.5475 650.616 61.942C651.607 65.2867 652.252 69.5515 652.548 74.7366C652.845 79.9218 652.693 84.2572 652.092 87.743C651.488 91.1789 650.472 93.9632 649.044 96.0958C647.612 98.1785 645.824 99.7064 643.679 100.68C641.581 101.6 639.135 102.14 636.343 102.3ZM636.027 96.7657C638.869 96.603 641.021 95.7546 642.484 94.2203C643.996 92.6831 644.971 90.4765 645.406 87.6004C645.892 84.7215 646.013 81.1631 645.771 76.9252L645.574 73.4851C645.328 69.1974 644.8 65.6512 643.99 62.8464C643.226 59.989 642.005 57.8829 640.327 56.5284C638.698 55.171 636.463 54.5736 633.621 54.7362C630.78 54.8989 628.602 55.7488 627.09 57.2859C625.577 58.8231 624.578 61.0311 624.092 63.9101C623.657 66.7861 623.562 70.368 623.807 74.6557L624 78.0211C624.242 82.2589 624.745 85.8066 625.509 88.664C626.323 91.5187 627.569 93.6232 629.247 94.9778C630.925 96.3323 633.185 96.9283 636.027 96.7657Z" fill="#7A1600"/>
<path d="M594.17 104.713C590.182 104.941 586.782 104.535 583.971 103.496C581.158 102.406 578.989 100.78 577.465 98.616C575.94 96.4523 575.09 93.8249 574.913 90.7338C574.882 90.1968 575.292 89.7366 575.829 89.7059L580.541 89.4363C581.078 89.4056 581.538 89.8159 581.569 90.3529C581.746 93.444 582.853 95.7566 584.892 97.2906C586.977 98.7719 589.765 99.4127 593.255 99.2129C596.745 99.0132 599.519 98.1042 601.578 96.4858C603.633 94.8175 604.565 92.3132 604.374 88.9727C604.234 86.5298 603.554 84.6929 602.333 83.4623C601.112 82.2316 599.565 81.4198 597.692 81.0268C595.865 80.5811 593.93 80.4167 591.886 80.5337L589.269 80.6835C587.74 80.7709 586.431 79.603 586.343 78.0748C586.256 76.5466 587.424 75.2368 588.952 75.1494L591.794 74.9867C593.688 74.8783 595.416 74.4793 596.977 73.7897C598.539 73.1001 599.754 72.0552 600.625 70.6548C601.542 69.2018 601.938 67.3784 601.812 65.1847C601.698 63.1904 601.157 61.5957 600.188 60.4007C599.269 59.2027 598.045 58.3474 596.515 57.8347C594.982 57.2722 593.318 57.0423 591.523 57.145C589.529 57.2591 587.754 57.7108 586.198 58.5001C584.64 59.2396 583.426 60.3095 582.556 61.7098C581.735 63.1073 581.383 64.8281 581.5 66.8723C581.531 67.4092 581.121 67.8694 580.584 67.9001L576.172 68.1526C575.428 68.1952 574.791 67.627 574.748 66.8835C574.586 64.0417 575.166 61.5074 576.489 59.2809C577.862 57.0514 579.786 55.2656 582.26 53.9236C584.784 52.5786 587.716 51.8106 591.057 51.6194C594.347 51.4311 597.269 51.7891 599.822 52.6935C602.424 53.595 604.507 55.0264 606.07 56.9878C607.633 58.9492 608.5 61.4256 608.671 64.417C608.797 66.6107 608.505 68.5032 607.795 70.0944C607.083 71.6357 606.108 72.9421 604.868 74.0134C603.665 75.0541 602.357 75.9356 600.946 76.6577C600.871 76.6964 600.825 76.7758 600.83 76.8606C600.835 76.9551 600.902 77.0346 600.995 77.0567C603.715 77.7103 606.039 79.0127 607.967 80.964C609.932 82.9524 611.011 85.6417 611.205 89.032C611.379 92.0733 610.756 94.735 609.336 97.0171C607.966 99.2964 605.944 101.113 603.27 102.466C600.644 103.767 597.61 104.516 594.17 104.713Z" fill="#7A1600"/>
<path d="M463.981 91.5574C463.521 91.5881 463.065 91.5574 462.614 91.4654C462.163 91.369 461.746 91.207 461.364 90.9794C460.987 90.7515 460.677 90.4559 460.435 90.0925C460.196 89.7245 460.06 89.282 460.026 88.7652L461.765 88.6491C461.785 88.9488 461.852 89.2017 461.966 89.4079C462.084 89.6094 462.239 89.7714 462.431 89.8939C462.622 90.0164 462.841 90.0999 463.089 90.1445C463.336 90.1891 463.603 90.2018 463.89 90.1827C464.263 90.1577 464.568 90.085 464.804 89.9645C465.041 89.8441 465.214 89.6886 465.323 89.498C465.437 89.3072 465.486 89.0923 465.47 88.8534C465.453 88.6058 465.387 88.3987 465.271 88.2319C465.155 88.0607 464.949 87.9087 464.652 87.7758C464.359 87.6383 463.936 87.5051 463.382 87.3763C462.93 87.2712 462.507 87.1446 462.113 86.9963C461.723 86.8478 461.378 86.668 461.076 86.4569C460.774 86.2458 460.532 85.9958 460.352 85.7068C460.175 85.4132 460.073 85.0666 460.047 84.667C460.012 84.1501 460.125 83.6845 460.385 83.2701C460.65 82.8554 461.031 82.5202 461.529 82.2645C462.027 82.0088 462.61 81.8586 463.279 81.814C463.991 81.7664 464.612 81.8559 465.142 82.0823C465.676 82.3041 466.097 82.625 466.404 83.0452C466.711 83.4653 466.883 83.9469 466.919 84.4898L465.18 84.6059C465.16 84.3105 465.08 84.0519 464.938 83.8301C464.801 83.6081 464.6 83.4426 464.336 83.3337C464.075 83.2202 463.747 83.1767 463.352 83.203C462.983 83.2277 462.678 83.3025 462.438 83.4277C462.202 83.5525 462.029 83.7123 461.92 83.9072C461.815 84.1018 461.77 84.3164 461.786 84.5509C461.801 84.7811 461.887 84.9783 462.042 85.1425C462.201 85.3064 462.433 85.4502 462.738 85.5738C463.042 85.6931 463.419 85.8054 463.866 85.9108C464.584 86.068 465.184 86.27 465.667 86.517C466.15 86.7597 466.519 87.0622 466.775 87.4248C467.03 87.7829 467.175 88.2161 467.208 88.7243C467.244 89.2629 467.134 89.7371 466.878 90.1469C466.626 90.5563 466.253 90.8823 465.759 91.1247C465.264 91.3671 464.672 91.5113 463.981 91.5574ZM471.559 85.0768L467.539 85.345L467.457 84.1136L471.477 83.8454L471.559 85.0768ZM470.124 82.2014L470.575 88.9578C470.589 89.1706 470.63 89.3315 470.699 89.4404C470.767 89.5449 470.856 89.6131 470.967 89.6449C471.083 89.6765 471.217 89.6872 471.369 89.677C471.477 89.6698 471.581 89.6563 471.68 89.6366C471.779 89.6169 471.857 89.5987 471.912 89.5819L471.998 90.8654C471.866 90.9178 471.714 90.965 471.543 91.007C471.371 91.049 471.17 91.0777 470.94 91.0931C470.57 91.1177 470.238 91.0744 469.943 90.9633C469.647 90.8477 469.409 90.6477 469.229 90.363C469.053 90.0781 468.948 89.6902 468.915 89.1994L468.456 82.3127L470.124 82.2014ZM476.725 85.7988C476.701 85.4426 476.585 85.1668 476.375 84.9714C476.17 84.7713 475.867 84.6846 475.468 84.7112C475.229 84.7272 475.023 84.7824 474.851 84.8768C474.682 84.9665 474.555 85.0841 474.468 85.2295C474.382 85.3749 474.345 85.5388 474.357 85.7212L472.689 85.8325C472.664 85.4459 472.759 85.0796 472.976 84.7335C473.197 84.3829 473.52 84.0908 473.945 83.8574C474.37 83.624 474.88 83.4874 475.475 83.4477C476.009 83.4121 476.489 83.4717 476.914 83.6266C477.343 83.7768 477.689 84.0242 477.952 84.3688C478.214 84.7134 478.364 85.1571 478.4 85.7001L478.606 88.7883C478.629 89.1315 478.673 89.4274 478.738 89.6762C478.802 89.9205 478.884 90.1332 478.983 90.3142L478.99 90.425L477.29 90.5384C477.196 90.3702 477.118 90.1507 477.056 89.88C476.999 89.6089 476.961 89.3409 476.944 89.076L476.725 85.7988ZM477.065 87.2617L475.983 87.3338C475.427 87.3709 475.017 87.5052 474.754 87.7366C474.489 87.9636 474.369 88.2509 474.392 88.5984C474.41 88.8676 474.516 89.0853 474.711 89.2512C474.909 89.4168 475.176 89.4884 475.51 89.4661C475.823 89.4453 476.09 89.3642 476.312 89.2228C476.534 89.0815 476.704 88.9175 476.822 88.7307C476.941 88.5396 476.996 88.3635 476.99 88.2025L477.554 88.9109C477.509 89.0884 477.433 89.2811 477.325 89.489C477.216 89.697 477.068 89.8966 476.88 90.088C476.697 90.2792 476.472 90.4403 476.206 90.5715C475.94 90.7027 475.626 90.7803 475.266 90.8044C474.81 90.8348 474.393 90.771 474.016 90.6129C473.644 90.4545 473.342 90.2238 473.113 89.9206C472.887 89.6128 472.761 89.2591 472.734 88.8595C472.684 88.1124 472.924 87.5205 473.453 87.0838C473.987 86.6425 474.773 86.3872 475.811 86.3179L476.996 86.2388L477.065 87.2617ZM481.981 90.2254L480.313 90.3367L479.843 83.2872L481.426 83.1815L481.605 84.5962L481.981 90.2254ZM483.731 84.5787C483.63 84.568 483.521 84.5622 483.403 84.5613C483.289 84.5602 483.178 84.5632 483.07 84.5705C482.718 84.594 482.429 84.6765 482.203 84.8181C481.976 84.9554 481.81 85.1454 481.704 85.388C481.602 85.6261 481.551 85.9065 481.551 86.2294L481.178 86.2281C481.138 85.633 481.18 85.0936 481.305 84.6097C481.43 84.1215 481.637 83.7302 481.927 83.436C482.221 83.1372 482.601 82.9722 483.066 82.9412C483.157 82.9351 483.259 82.937 483.373 82.9468C483.487 82.9523 483.575 82.9661 483.638 82.9881L483.731 84.5787ZM488.303 83.9595L484.284 84.2277L484.201 82.9963L488.221 82.7281L488.303 83.9595ZM486.868 81.0841L487.319 87.8405C487.333 88.0533 487.374 88.2142 487.443 88.323C487.511 88.4276 487.601 88.4958 487.712 88.5276C487.827 88.5592 487.961 88.5699 488.113 88.5597C488.222 88.5525 488.325 88.539 488.424 88.5193C488.524 88.4996 488.601 88.4814 488.656 88.4646L488.742 89.7481C488.61 89.8005 488.459 89.8477 488.287 89.8897C488.115 89.9317 487.914 89.9604 487.684 89.9757C487.315 90.0004 486.983 89.9571 486.687 89.8459C486.391 89.7304 486.153 89.5303 485.973 89.2457C485.797 88.9608 485.693 88.5729 485.66 88.0821L485.2 81.1954L486.868 81.0841ZM492.525 89.6527C491.878 89.6959 491.323 89.6173 490.86 89.417C490.401 89.212 490.045 88.9369 489.791 88.5918C489.541 88.2463 489.403 87.8825 489.377 87.5003L490.98 87.3933C491.016 87.6614 491.106 87.8757 491.252 88.0361C491.402 88.1919 491.584 88.2998 491.797 88.3597C492.015 88.4193 492.239 88.4415 492.469 88.4261C492.738 88.4081 492.962 88.3583 493.14 88.2767C493.317 88.1906 493.448 88.0838 493.531 87.9561C493.618 87.8237 493.656 87.675 493.645 87.51C493.635 87.3623 493.587 87.2324 493.501 87.1204C493.419 87.008 493.267 86.9091 493.043 86.8237C492.823 86.738 492.502 86.6657 492.079 86.6066C491.577 86.5354 491.132 86.4256 490.742 86.277C490.353 86.1285 490.04 85.9247 489.805 85.6655C489.573 85.4017 489.444 85.0722 489.418 84.6769C489.392 84.2904 489.479 83.9268 489.679 83.5863C489.879 83.2457 490.179 82.9639 490.578 82.741C490.977 82.5136 491.459 82.3811 492.024 82.3434C492.619 82.3037 493.136 82.3696 493.575 82.541C494.018 82.7077 494.366 82.9528 494.619 83.2763C494.871 83.5954 495.012 83.9699 495.041 84.3999L493.373 84.5112C493.354 84.2332 493.238 84.001 493.025 83.8145C492.812 83.6237 492.503 83.5418 492.099 83.5687C491.856 83.585 491.652 83.6378 491.488 83.7273C491.324 83.8168 491.205 83.9295 491.131 84.0653C491.057 84.1967 491.025 84.3385 491.035 84.4905C491.045 84.6382 491.095 84.7657 491.185 84.8732C491.279 84.976 491.431 85.064 491.641 85.1372C491.851 85.2061 492.141 85.2675 492.511 85.3213C493.048 85.3946 493.518 85.505 493.92 85.6527C494.327 85.7957 494.646 86.0013 494.878 86.2694C495.113 86.5329 495.246 86.884 495.275 87.3227C495.303 87.7353 495.208 88.1125 494.991 88.4542C494.778 88.7913 494.46 89.0655 494.038 89.2769C493.616 89.4883 493.111 89.6136 492.525 89.6527ZM503.672 84.0007C503.648 83.6445 503.532 83.3687 503.323 83.1732C503.117 82.9731 502.815 82.8864 502.415 82.9131C502.176 82.929 501.971 82.9842 501.798 83.0786C501.629 83.1684 501.502 83.286 501.416 83.4314C501.329 83.5767 501.292 83.7406 501.305 83.923L499.637 84.0343C499.611 83.6478 499.706 83.2815 499.923 82.9354C500.144 82.5847 500.467 82.2927 500.892 82.0593C501.317 81.8258 501.827 81.6893 502.422 81.6496C502.957 81.6139 503.436 81.6735 503.861 81.8284C504.29 81.9787 504.636 82.2261 504.899 82.5707C505.162 82.9153 505.311 83.359 505.348 83.902L505.554 86.9902C505.577 87.3333 505.62 87.6293 505.685 87.878C505.749 88.1224 505.831 88.3351 505.93 88.5161L505.938 88.6268L504.237 88.7403C504.143 88.5721 504.065 88.3526 504.003 88.0818C503.946 87.8108 503.909 87.5428 503.891 87.2778L503.672 84.0007ZM504.012 85.4635L502.93 85.5357C502.374 85.5728 501.965 85.707 501.701 85.9384C501.437 86.1655 501.316 86.4527 501.339 86.8002C501.357 87.0695 501.464 87.2871 501.658 87.453C501.857 87.6186 502.123 87.6903 502.458 87.668C502.77 87.6471 503.038 87.566 503.259 87.4247C503.481 87.2834 503.651 87.1193 503.77 86.9325C503.888 86.7414 503.944 86.5654 503.937 86.4044L504.502 87.1128C504.457 87.2903 504.38 87.483 504.272 87.6909C504.164 87.8988 504.015 88.0985 503.828 88.2899C503.644 88.481 503.419 88.6422 503.153 88.7734C502.887 88.9046 502.574 88.9822 502.213 89.0062C501.757 89.0367 501.34 88.9729 500.963 88.8148C500.591 88.6564 500.29 88.4256 500.06 88.1225C499.834 87.8147 499.708 87.461 499.682 87.0614C499.632 86.3143 499.871 85.7224 500.401 85.2857C500.934 84.8443 501.72 84.589 502.758 84.5198L503.944 84.4406L504.012 85.4635ZM510.169 82.5004L506.149 82.7687L506.067 81.5373L510.087 81.269L510.169 82.5004ZM508.734 79.6251L509.184 86.3814C509.199 86.5943 509.24 86.7551 509.308 86.864C509.376 86.9685 509.466 87.0367 509.577 87.0686C509.693 87.1001 509.826 87.1108 509.978 87.1007C510.087 87.0934 510.191 87.08 510.29 87.0603C510.389 87.0406 510.466 87.0223 510.522 87.0055L510.607 88.289C510.476 88.3415 510.324 88.3887 510.152 88.4307C509.981 88.4727 509.78 88.5014 509.549 88.5167C509.18 88.5414 508.848 88.4981 508.552 88.3869C508.257 88.2714 508.019 88.0713 507.838 87.7867C507.662 87.5017 507.558 87.1139 507.525 86.6231L507.066 79.7364L508.734 79.6251Z" fill="#7A1600"/>
<path d="M756.171 71.9297L754.496 72.0415L754.026 64.9919L755.602 64.8867L755.796 66.3201L756.171 71.9297ZM755.105 68.2183C755.061 67.558 755.126 66.9647 755.3 66.4383C755.479 65.9115 755.767 65.4866 756.164 65.1634C756.561 64.8402 757.068 64.658 757.685 64.6169C758.324 64.5743 758.86 64.7326 759.294 65.0919C759.728 65.4513 759.975 66.0718 760.033 66.9535L760.347 71.6511L758.679 71.7624L758.376 67.2277C758.355 66.902 758.288 66.649 758.175 66.4689C758.067 66.2885 757.919 66.1653 757.732 66.0993C757.544 66.0333 757.326 66.0086 757.079 66.0251C756.801 66.0436 756.565 66.1117 756.373 66.2293C756.184 66.3465 756.033 66.5028 755.92 66.698C755.806 66.8931 755.727 67.1165 755.683 67.3682C755.643 67.6195 755.633 67.8885 755.652 68.1752L755.105 68.2183ZM759.222 67.7341C759.183 67.1478 759.251 66.6044 759.427 66.104C759.603 65.6036 759.886 65.1964 760.275 64.8825C760.664 64.5643 761.158 64.3851 761.757 64.3451C762.231 64.3135 762.645 64.3753 763 64.5305C763.355 64.6814 763.636 64.944 763.844 65.3184C764.057 65.6925 764.184 66.1966 764.227 66.8308L764.53 71.372L762.855 71.4837L762.552 66.936C762.529 66.5972 762.462 66.3399 762.35 66.1642C762.242 65.9881 762.095 65.8714 761.908 65.8141C761.725 65.7522 761.511 65.7293 761.268 65.7455C761.029 65.7615 760.824 65.8188 760.651 65.9176C760.483 66.016 760.344 66.1475 760.233 66.312C760.126 66.4718 760.049 66.658 760.002 66.8706C759.954 67.0788 759.939 67.3023 759.955 67.5412L759.222 67.7341ZM765.561 67.6973C765.515 67.011 765.604 66.3898 765.829 65.8339C766.054 65.2779 766.399 64.8273 766.864 64.4821C767.334 64.1323 767.914 63.9343 768.605 63.8882C769.304 63.8415 769.912 63.9602 770.428 64.2443C770.944 64.524 771.348 64.9246 771.641 65.4461C771.937 65.9673 772.108 66.571 772.154 67.2573L772.163 67.3941C772.209 68.076 772.119 68.6972 771.895 69.2575C771.675 69.8132 771.327 70.2639 770.853 70.6097C770.383 70.9552 769.801 71.1511 769.106 71.1975C768.411 71.2439 767.807 71.1271 767.296 70.8471C766.784 70.5671 766.38 70.1665 766.083 69.6453C765.786 69.1198 765.615 68.516 765.57 67.8341L765.561 67.6973ZM767.238 67.7228C767.265 68.1311 767.346 68.503 767.482 68.8386C767.618 69.1699 767.812 69.4296 768.064 69.6178C768.317 69.8017 768.634 69.8809 769.016 69.8554C769.398 69.8298 769.702 69.7092 769.928 69.4935C770.153 69.2734 770.309 68.9903 770.395 68.6443C770.485 68.2936 770.516 67.9141 770.489 67.5058L770.48 67.369C770.453 66.9651 770.371 66.5975 770.236 66.2662C770.104 65.9303 769.91 65.6684 769.653 65.4805C769.401 65.2879 769.081 65.2046 768.694 65.2304C768.316 65.2556 768.015 65.3804 767.79 65.6048C767.565 65.8249 767.407 66.1103 767.317 66.461C767.231 66.807 767.202 67.182 767.229 67.586L767.238 67.7228ZM775.312 70.6524L773.645 70.7637L773.174 63.7142L774.744 63.6094L774.943 65.1079L775.312 70.6524ZM774.26 66.9401C774.218 66.2535 774.296 65.6484 774.492 65.1249C774.692 64.5967 774.994 64.1774 775.396 63.8669C775.799 63.5522 776.28 63.3761 776.84 63.3387C777.292 63.3085 777.691 63.3692 778.037 63.5206C778.383 63.6677 778.66 63.9284 778.868 64.3028C779.08 64.6769 779.208 65.1898 779.252 65.8413L779.554 70.3694L777.88 70.4812L777.576 65.94C777.555 65.6186 777.492 65.3675 777.389 65.1868C777.285 65.0061 777.139 64.8828 776.952 64.8168C776.769 64.7505 776.547 64.726 776.286 64.7434C776.021 64.7611 775.79 64.8289 775.593 64.9467C775.4 65.0643 775.238 65.2213 775.107 65.4176C774.981 65.6137 774.889 65.8379 774.831 66.0904C774.778 66.3427 774.761 66.6121 774.781 66.8988L774.26 66.9401ZM784.02 64.2274L780 64.4956L779.918 63.2642L783.937 62.996L784.02 64.2274ZM782.584 61.352L783.035 68.1084C783.049 68.3212 783.091 68.4821 783.159 68.591C783.227 68.6955 783.317 68.7637 783.428 68.7955C783.543 68.8271 783.677 68.8378 783.829 68.8276C783.938 68.8204 784.042 68.8069 784.141 68.7872C784.24 68.7675 784.317 68.7493 784.373 68.7325L784.458 70.016C784.326 70.0684 784.175 70.1156 784.003 70.1576C783.831 70.1996 783.63 70.2283 783.4 70.2437C783.031 70.2683 782.699 70.225 782.403 70.1138C782.108 69.9983 781.87 69.7982 781.689 69.5136C781.513 69.2287 781.409 68.8408 781.376 68.35L780.916 61.4633L782.584 61.352ZM787.222 69.8577L785.548 69.9694L784.88 59.962L786.555 59.8502L787.222 69.8577ZM786.163 66.1458C786.124 65.4853 786.2 64.8912 786.391 64.3636C786.587 63.8357 786.88 63.4105 787.268 63.0879C787.661 62.765 788.131 62.5853 788.678 62.5487C789.143 62.5177 789.553 62.5798 789.908 62.735C790.267 62.8856 790.555 63.1499 790.772 63.5281C790.99 63.9062 791.12 64.4211 791.164 65.0726L791.464 69.5747L789.789 69.6864L789.488 65.1713C789.466 64.8456 789.402 64.5925 789.294 64.4121C789.19 64.2271 789.044 64.0994 788.856 64.029C788.672 63.9584 788.45 63.9317 788.189 63.9491C787.911 63.9677 787.674 64.0359 787.477 64.1538C787.279 64.2716 787.118 64.4286 786.991 64.6246C786.869 64.8204 786.781 65.0444 786.728 65.2966C786.68 65.5485 786.665 65.8178 786.684 66.1045L786.163 66.1458ZM794.78 69.3534L793.106 69.4651L792.438 59.4576L794.112 59.3459L794.78 69.3534ZM799.926 61.9291L801.705 61.8104L799.432 70.1163C799.378 70.2944 799.304 70.4891 799.209 70.7005C799.118 70.9116 798.994 71.114 798.837 71.3078C798.685 71.5055 798.486 71.6715 798.242 71.8056C797.998 71.9396 797.698 72.0186 797.342 72.0423C797.246 72.0487 797.152 72.0484 797.06 72.0415C796.973 72.0386 796.887 72.0312 796.804 72.0193C796.72 72.0075 796.636 71.9934 796.552 71.9772L796.466 70.6937C796.506 70.6955 796.556 70.6965 796.617 70.6967C796.678 70.697 796.728 70.6959 796.767 70.6933C797.154 70.6675 797.438 70.5809 797.621 70.4335C797.807 70.2858 797.944 70.0476 798.031 69.7189L798.448 68.3233L799.926 61.9291ZM799.021 67.1922L799.428 68.9843L798.29 69.2893L795.268 62.2399L797.066 62.1199L799.021 67.1922ZM806.894 69.3631L805.611 69.4487L808.572 58.9046L809.856 58.8189L806.894 69.3631ZM815.27 60.9052L816.944 60.7935L817.414 67.8431L815.838 67.9483L815.629 66.2869L815.27 60.9052ZM816.298 64.7501C816.34 65.3799 816.284 65.9486 816.131 66.4563C815.977 66.9639 815.712 67.3742 815.336 67.6873C814.96 67.996 814.461 68.171 813.84 68.2125C813.145 68.2589 812.569 68.0923 812.111 67.7127C811.654 67.3331 811.394 66.6763 811.332 65.7425L811.028 61.1883L812.696 61.077L813.001 65.6442C813.022 65.9613 813.086 66.2078 813.194 66.3839C813.306 66.5553 813.447 66.6746 813.617 66.7418C813.791 66.8043 813.979 66.8289 814.178 66.8156C814.608 66.7869 814.942 66.6818 815.178 66.5002C815.414 66.3143 815.575 66.0745 815.66 65.7809C815.749 65.4826 815.782 65.1554 815.758 64.7992L816.298 64.7501ZM821.638 67.6921C820.991 67.7353 820.436 67.6567 819.974 67.4563C819.515 67.2513 819.158 66.9763 818.904 66.6311C818.654 66.2857 818.516 65.9218 818.491 65.5396L820.094 65.4327C820.129 65.7008 820.22 65.9151 820.366 66.0755C820.516 66.2313 820.697 66.3391 820.911 66.3991C821.129 66.4587 821.353 66.4808 821.583 66.4655C821.852 66.4475 822.076 66.3977 822.253 66.316C822.431 66.23 822.561 66.1231 822.644 65.9954C822.731 65.8631 822.77 65.7144 822.759 65.5493C822.749 65.4017 822.701 65.2718 822.615 65.1597C822.533 65.0474 822.38 64.9485 822.156 64.8631C821.937 64.7774 821.616 64.705 821.193 64.646C820.691 64.5748 820.245 64.4649 819.856 64.3164C819.466 64.1679 819.154 63.964 818.918 63.7049C818.687 63.4411 818.558 63.1116 818.532 62.7163C818.506 62.3297 818.593 61.9662 818.793 61.6256C818.992 61.2851 819.292 61.0033 819.692 60.7803C820.091 60.553 820.573 60.4205 821.138 60.3828C821.733 60.3431 822.25 60.4089 822.689 60.5803C823.132 60.7471 823.48 60.9922 823.733 61.3156C823.985 61.6347 824.126 62.0093 824.154 62.4393L822.486 62.5506C822.468 62.2726 822.352 62.0404 822.139 61.8539C821.925 61.6631 821.617 61.5812 821.213 61.6081C820.97 61.6243 820.766 61.6772 820.602 61.7667C820.438 61.8562 820.319 61.9688 820.245 62.1046C820.171 62.2361 820.139 62.3778 820.149 62.5299C820.159 62.6776 820.209 62.8051 820.299 62.9125C820.393 63.0153 820.545 63.1033 820.755 63.1766C820.964 63.2455 821.254 63.3069 821.624 63.3607C822.161 63.4339 822.631 63.5444 823.034 63.692C823.44 63.8351 823.759 64.0406 823.991 64.3088C824.227 64.5722 824.359 64.9233 824.389 65.362C824.416 65.7747 824.321 66.1518 824.104 66.4936C823.891 66.8306 823.573 67.1049 823.151 67.3163C822.729 67.5277 822.225 67.653 821.638 67.6921ZM829.014 67.1999C828.306 67.2472 827.685 67.1381 827.153 66.8726C826.624 66.6024 826.204 66.2182 825.892 65.7199C825.583 65.2212 825.408 64.6548 825.366 64.0207L825.348 63.7536C825.299 63.0239 825.396 62.3783 825.638 61.8168C825.879 61.2509 826.233 60.8019 826.7 60.4698C827.166 60.1333 827.709 59.9443 828.331 59.9028C829.008 59.8576 829.58 59.9678 830.048 60.2333C830.519 60.4941 830.885 60.8777 831.145 61.3838C831.406 61.8856 831.559 62.4775 831.604 63.1594L831.652 63.8761L826.172 64.2417L826.093 63.0559L829.924 62.8003L829.916 62.67C829.889 62.4013 829.82 62.155 829.709 61.9312C829.598 61.7073 829.436 61.5327 829.223 61.4074C829.013 61.2774 828.744 61.2234 828.414 61.2454C828.07 61.2683 827.79 61.383 827.573 61.5895C827.36 61.7957 827.206 62.0742 827.111 62.4252C827.021 62.7759 826.992 63.1814 827.022 63.6418L827.04 63.909C827.066 64.2999 827.162 64.6469 827.326 64.9501C827.494 65.253 827.721 65.4865 828.007 65.6507C828.297 65.8102 828.635 65.8771 829.022 65.8513C829.391 65.8266 829.716 65.7329 829.998 65.5702C830.283 65.4028 830.523 65.1752 830.718 64.8873L831.643 65.7091C831.444 66.054 831.127 66.3783 830.694 66.6821C830.264 66.9812 829.704 67.1539 829.014 67.1999ZM834.706 66.6892L833.038 66.8005L832.568 59.751L834.151 59.6453L834.33 61.06L834.706 66.6892ZM836.456 61.0425C836.355 61.0318 836.246 61.026 836.128 61.0252C836.014 61.024 835.903 61.0271 835.795 61.0343C835.443 61.0578 835.154 61.1403 834.928 61.2819C834.701 61.4192 834.535 61.6092 834.429 61.8518C834.327 62.0899 834.276 62.3703 834.276 62.6932L833.903 62.6919C833.863 62.0969 833.905 61.5574 834.03 61.0735C834.155 60.5853 834.362 60.1941 834.652 59.8998C834.946 59.601 835.326 59.436 835.791 59.405C835.882 59.3989 835.984 59.4008 836.098 59.4107C836.212 59.4162 836.3 59.4299 836.363 59.4519L836.456 61.0425Z" fill="#7A1600"/>
</g>
<defs>
<clipPath id="clip0_429_4825">
<rect width="1300" height="408" fill="white" transform="translate(0.5 0.806641)"/>
</clipPath>
</defs>
</svg>
