<svg width="1301" height="409" viewBox="0 0 1301 409" fill="none" xmlns="http://www.w3.org/2000/svg">
<g clip-path="url(#clip0_429_4647)">
<path d="M615.176 351.827L485.688 276.292L555.827 151.121L674.524 138.172L812.645 214.786L756.533 329.167L615.176 351.827Z" stroke="#F7DBFF" stroke-width="4" stroke-linecap="round"/>
<path d="M592.879 421.903L378.449 296.82L494.599 89.5386L691.158 68.0957L919.882 194.966L826.963 384.378L592.879 421.903Z" stroke="#F7DBFF" stroke-width="4" stroke-linecap="round"/>
<path d="M566.655 504.32L252.324 320.962L422.587 17.1106L710.721 -14.3223L1046.01 171.656L909.797 449.313L566.655 504.32Z" stroke="#F7DBFF" stroke-width="4" stroke-linecap="round"/>
<path d="M535.345 602.73L101.729 349.789L336.604 -69.3701L734.082 -112.731L1196.6 143.823L1008.7 526.848L535.345 602.73Z" stroke="#F7DBFF" stroke-width="4" stroke-linecap="round"/>
<path d="M495.203 728.893L-91.3379 386.746L226.371 -180.24L764.03 -238.894L1389.67 108.141L1135.5 626.249L495.203 728.893Z" stroke="#F7DBFF" stroke-width="4" stroke-linecap="round"/>
<path d="M533.664 259.579L563.584 192.131L693.113 182.464L767.441 225.608L734.486 293.557L617.675 310.293L533.664 259.579Z" fill="#FE7D63"/>
<path d="M533.559 287.835V259.392L617.693 310.303V336.595L533.559 287.835Z" fill="#C7CDEE"/>
<path d="M533.559 287.835V259.392L617.693 310.303V336.595L533.559 287.835Z" fill="url(#paint0_linear_429_4647)"/>
<path d="M533.559 287.835V259.392L617.693 310.303V336.595L533.559 287.835Z" fill="#7A1600"/>
<path d="M617.693 336.589V310.284L734.816 292.771V317.9L617.693 336.589Z" fill="#6870FB"/>
<path d="M617.693 336.589V310.284L734.816 292.771V317.9L617.693 336.589Z" fill="url(#paint1_linear_429_4647)"/>
<path d="M617.693 336.589V310.284L734.816 292.771V317.9L617.693 336.589Z" fill="#7A1600"/>
<path d="M767.398 252.111V225.705L734.816 292.784V317.928L767.398 252.111Z" fill="#FF7152"/>
<path d="M767.398 252.111V225.705L734.816 292.784V317.928L767.398 252.111Z" fill="#7A1600"/>
<path d="M622.482 280.608V174.268L728.445 109.571V211.159C728.445 214.449 726.726 217.5 723.911 219.204L622.482 280.608Z" fill="#F7DBFF"/>
<path d="M632.404 274.629C612.81 288.506 604.957 283.918 600.391 280.527L613.596 262.829L632.404 274.629Z" fill="#EBDFE0"/>
<path d="M576.893 254.734V154.177L622.481 172.652V271.081C622.481 281.264 611.256 287.451 602.646 282.014L586.205 271.63C580.408 267.969 576.893 261.591 576.893 254.734Z" fill="#F7DBFF"/>
<path d="M677.332 90.4556L580.757 146.676C576.205 149.326 576.059 155.849 580.487 158.701L598.63 170.387C608.358 176.652 620.789 176.887 630.747 170.993L725.469 114.929C729.488 112.551 729.262 106.662 725.073 104.599L695.105 89.8377C689.451 87.0529 682.779 87.2849 677.332 90.4556Z" fill="#FEF8FF"/>
<path d="M597.877 103.703V157.85C597.877 157.85 600.666 165.598 610.178 165.252C619.69 164.906 621.765 156.778 621.765 156.778C621.765 143.288 619.405 113.066 621.765 101.262C624.498 87.5946 628.139 85.7108 631.279 79.9339C634.419 74.1571 657.771 50.8945 674.268 47.3082C682.536 45.5108 684.603 52.7005 684.603 56.52V106.174C684.603 106.174 687.444 114.374 696.286 114.487C705.129 114.6 707.745 106.174 707.745 106.174V60.7889C707.745 51.4927 707.071 39.8039 696.286 31.356C682.806 20.7961 658.765 23.0429 630.006 47.3082C606.999 66.7204 599 92.9929 597.877 103.703Z" fill="#7A1600"/>
<path d="M683.441 161.862C674.761 161.862 663.017 170.248 660.096 183.429C658.458 190.817 657.37 201.593 667.645 203.535L662.28 234.916C661.939 236.912 664.112 238.377 665.834 237.312L685.077 225.415C687.522 223.903 688.805 221.06 688.32 218.227L684.281 194.612C688.023 188.946 690.786 181.985 691.41 177.8C692.596 169.831 692.121 161.862 683.441 161.862Z" fill="#7A1600"/>
<rect x="999.281" y="212.486" width="90.1794" height="90.1794" rx="14.6508" transform="rotate(-163.255 999.281 212.486)" fill="#F7DBFF"/>
<path fill-rule="evenodd" clip-rule="evenodd" d="M976.216 158.029C976.012 157.064 976.19 156.057 976.716 155.221C977.252 154.368 978.104 153.764 979.086 153.54C980.067 153.316 981.098 153.491 981.95 154.027C982.802 154.563 983.407 155.415 983.631 156.397L984.193 158.864C983.97 157.883 984.145 156.852 984.681 156C985.217 155.147 986.069 154.543 987.051 154.319C988.033 154.095 989.063 154.27 989.915 154.806C990.768 155.342 991.372 156.195 991.596 157.176L994.128 168.279C995.023 172.205 994.322 176.327 992.179 179.736C990.035 183.145 986.626 185.564 982.699 186.459L978.273 187.469C975.823 188.027 973.272 187.968 970.85 187.298C968.427 186.628 966.207 185.366 964.392 183.626L963.74 182.996C962.701 181.99 958.924 177.895 952.409 170.712C951.745 169.979 951.393 169.017 951.427 168.029C951.462 167.041 951.88 166.105 952.594 165.421C953.355 164.693 954.337 164.24 955.384 164.132C956.432 164.025 957.485 164.27 958.377 164.829L962.831 167.629L958.049 146.657C957.825 145.675 958 144.645 958.536 143.792C959.072 142.94 959.924 142.335 960.906 142.112C961.887 141.888 962.918 142.063 963.77 142.599C964.622 143.135 965.227 143.987 965.451 144.969L968.264 157.305C968.153 156.819 968.139 156.316 968.223 155.825C968.306 155.333 968.486 154.863 968.751 154.441C969.016 154.019 969.362 153.653 969.769 153.365C970.176 153.077 970.635 152.871 971.121 152.76C971.607 152.65 972.11 152.636 972.602 152.719C973.093 152.803 973.563 152.982 973.985 153.248C974.407 153.513 974.773 153.859 975.061 154.265C975.35 154.672 975.555 155.131 975.666 155.617L976.216 158.029ZM962.831 167.629L962.878 167.6L962.88 167.609L962.831 167.629Z" fill="#FE7D63"/>
<path d="M951.373 140.509C951.373 140.509 951.99 133.586 958.514 131.938C965.038 130.29 968.858 136.074 968.858 136.074" stroke="#7A1600" stroke-width="3.6627" stroke-linecap="round"/>
<path d="M943.436 136.501C943.436 136.501 944.528 124.239 956.083 121.32C967.639 118.401 974.406 128.646 974.406 128.646" stroke="#7A1600" stroke-width="3.6627" stroke-linecap="round"/>
<path d="M898.734 211.272L896.811 210.693L903.55 201.859L904.761 202.223L904.191 203.67L898.734 211.272ZM903.685 203.518L903.995 201.992L905.213 202.359L905.972 213.449L904.049 212.871L903.685 203.518ZM904.611 210.608L899.206 208.982L899.651 207.504L905.055 209.13L904.611 210.608ZM909.912 214.784C909.155 214.556 908.576 214.201 908.174 213.717C907.774 213.228 907.535 212.666 907.458 212.031C907.382 211.392 907.446 210.73 907.652 210.046L907.72 209.82C907.927 209.131 908.238 208.544 908.654 208.057C909.075 207.567 909.584 207.23 910.181 207.047C910.784 206.86 911.462 206.88 912.215 207.106C912.812 207.286 913.301 207.562 913.681 207.935C914.067 208.305 914.324 208.741 914.452 209.242C914.581 209.738 914.564 210.273 914.402 210.846L912.753 210.35C912.822 210.087 912.832 209.831 912.783 209.583C912.733 209.334 912.623 209.114 912.451 208.923C912.284 208.734 912.055 208.595 911.763 208.507C911.339 208.38 910.977 208.393 910.677 208.546C910.382 208.701 910.135 208.943 909.937 209.271C909.745 209.596 909.589 209.955 909.471 210.347L909.404 210.573C909.286 210.965 909.216 211.352 909.196 211.734C909.177 212.111 909.25 212.446 909.415 212.74C909.582 213.029 909.882 213.238 910.315 213.369C910.575 213.447 910.823 213.467 911.059 213.428C911.3 213.386 911.51 213.293 911.688 213.147C911.87 213.003 912.002 212.812 912.084 212.573L913.733 213.069C913.576 213.559 913.301 213.961 912.907 214.275C912.514 214.59 912.055 214.795 911.529 214.89C911.007 214.987 910.468 214.952 909.912 214.784ZM917.246 216.991C916.489 216.763 915.909 216.407 915.508 215.923C915.108 215.435 914.869 214.873 914.791 214.238C914.715 213.598 914.78 212.936 914.986 212.252L915.054 212.026C915.261 211.338 915.572 210.75 915.987 210.263C916.408 209.773 916.917 209.436 917.515 209.253C918.118 209.066 918.796 209.086 919.548 209.313C920.146 209.493 920.634 209.769 921.015 210.142C921.401 210.512 921.658 210.947 921.785 211.448C921.915 211.945 921.898 212.479 921.736 213.052L920.087 212.556C920.156 212.293 920.166 212.038 920.116 211.789C920.067 211.54 919.956 211.321 919.785 211.13C919.618 210.94 919.389 210.802 919.097 210.714C918.673 210.586 918.311 210.599 918.011 210.753C917.716 210.908 917.469 211.149 917.271 211.477C917.078 211.803 916.923 212.161 916.805 212.553L916.737 212.779C916.619 213.171 916.55 213.558 916.53 213.94C916.511 214.317 916.584 214.653 916.749 214.946C916.916 215.235 917.216 215.445 917.649 215.575C917.909 215.653 918.157 215.673 918.392 215.635C918.634 215.593 918.843 215.499 919.021 215.354C919.204 215.21 919.336 215.018 919.418 214.779L921.067 215.275C920.909 215.765 920.634 216.167 920.241 216.482C919.848 216.796 919.389 217.001 918.863 217.097C918.341 217.193 917.802 217.158 917.246 216.991ZM924.819 219.269C924.075 219.045 923.482 218.695 923.038 218.219C922.601 217.739 922.318 217.184 922.189 216.553C922.065 215.924 922.103 215.276 922.304 214.611L922.388 214.33C922.619 213.564 922.966 212.94 923.429 212.457C923.894 211.971 924.429 211.647 925.034 211.486C925.641 211.32 926.271 211.335 926.923 211.532C927.634 211.746 928.178 212.078 928.555 212.53C928.937 212.978 929.165 213.512 929.237 214.13C929.311 214.744 929.24 215.409 929.025 216.125L928.798 216.878L923.045 215.147L923.42 213.902L927.442 215.112L927.483 214.975C927.559 214.69 927.583 214.411 927.556 214.139C927.528 213.867 927.429 213.626 927.259 213.416C927.094 213.202 926.839 213.043 926.492 212.939C926.132 212.83 925.801 212.84 925.498 212.968C925.201 213.097 924.936 213.324 924.705 213.647C924.478 213.972 924.292 214.376 924.146 214.859L924.062 215.14C923.938 215.55 923.902 215.942 923.954 216.316C924.01 216.691 924.153 217.017 924.383 217.295C924.619 217.57 924.939 217.769 925.345 217.891C925.733 218.007 926.102 218.036 926.453 217.978C926.81 217.916 927.143 217.775 927.453 217.555L928.085 218.752C927.748 219.029 927.3 219.24 926.739 219.384C926.184 219.526 925.544 219.487 924.819 219.269ZM931.838 221.381C931.158 221.176 930.62 220.883 930.223 220.5C929.832 220.113 929.572 219.695 929.444 219.243C929.321 218.793 929.32 218.368 929.441 217.966L931.124 218.473C931.057 218.761 931.067 219.015 931.155 219.236C931.249 219.453 931.394 219.633 931.589 219.777C931.789 219.922 932.01 220.03 932.252 220.103C932.535 220.188 932.783 220.223 932.996 220.208C933.211 220.188 933.386 220.128 933.52 220.029C933.66 219.927 933.756 219.79 933.808 219.616C933.855 219.461 933.856 219.31 933.811 219.162C933.77 219.016 933.652 218.856 933.455 218.682C933.264 218.51 932.962 218.312 932.552 218.089C932.065 217.824 931.651 217.54 931.309 217.238C930.967 216.936 930.725 216.607 930.583 216.251C930.448 215.892 930.442 215.505 930.567 215.09C930.689 214.684 930.918 214.345 931.254 214.073C931.589 213.801 932.004 213.628 932.499 213.553C932.996 213.473 933.541 213.523 934.133 213.701C934.758 213.889 935.263 214.155 935.646 214.499C936.036 214.841 936.298 215.225 936.433 215.654C936.569 216.078 936.569 216.515 936.433 216.967L934.682 216.44C934.77 216.148 934.74 215.866 934.594 215.593C934.448 215.315 934.164 215.113 933.74 214.985C933.484 214.908 933.255 214.884 933.053 214.913C932.85 214.941 932.685 215.011 932.557 215.122C932.431 215.228 932.343 215.361 932.295 215.52C932.249 215.675 932.251 215.825 932.302 215.97C932.359 216.111 932.481 216.26 932.668 216.416C932.856 216.567 933.129 216.741 933.488 216.939C934.01 217.22 934.449 217.514 934.804 217.82C935.166 218.122 935.414 218.455 935.548 218.819C935.688 219.18 935.689 219.59 935.55 220.051C935.42 220.484 935.178 220.834 934.824 221.101C934.476 221.364 934.046 221.523 933.532 221.577C933.018 221.632 932.453 221.566 931.838 221.381ZM939.062 223.554C938.382 223.35 937.844 223.056 937.447 222.673C937.056 222.287 936.797 221.868 936.669 221.417C936.545 220.967 936.544 220.541 936.665 220.14L938.348 220.646C938.281 220.935 938.291 221.189 938.379 221.409C938.473 221.627 938.618 221.807 938.813 221.95C939.014 222.095 939.235 222.204 939.476 222.277C939.759 222.362 940.007 222.396 940.221 222.381C940.436 222.361 940.61 222.302 940.744 222.203C940.884 222.101 940.981 221.963 941.033 221.79C941.079 221.635 941.08 221.483 941.035 221.336C940.995 221.189 940.876 221.029 940.68 220.856C940.488 220.683 940.187 220.486 939.776 220.263C939.289 219.997 938.875 219.713 938.533 219.411C938.191 219.11 937.949 218.781 937.808 218.425C937.672 218.066 937.667 217.679 937.791 217.264C937.914 216.858 938.142 216.519 938.478 216.247C938.813 215.975 939.229 215.801 939.724 215.726C940.22 215.647 940.765 215.696 941.358 215.875C941.982 216.063 942.487 216.329 942.871 216.673C943.26 217.014 943.523 217.399 943.657 217.827C943.793 218.251 943.793 218.689 943.658 219.14L941.906 218.613C941.994 218.322 941.965 218.039 941.818 217.766C941.673 217.489 941.388 217.286 940.964 217.159C940.708 217.082 940.479 217.058 940.277 217.086C940.074 217.115 939.909 217.184 939.781 217.295C939.655 217.401 939.568 217.534 939.52 217.694C939.473 217.849 939.475 217.999 939.526 218.144C939.583 218.285 939.705 218.434 939.892 218.589C940.08 218.74 940.353 218.915 940.712 219.112C941.234 219.393 941.673 219.687 942.028 219.993C942.39 220.296 942.638 220.629 942.772 220.993C942.912 221.353 942.913 221.764 942.774 222.224C942.644 222.658 942.402 223.008 942.048 223.274C941.701 223.538 941.27 223.696 940.756 223.751C940.242 223.805 939.678 223.74 939.062 223.554ZM955.828 224.884C955.581 225.525 955.222 226.056 954.752 226.477C954.282 226.898 953.721 227.169 953.067 227.291C952.414 227.412 951.681 227.351 950.87 227.107C950.044 226.859 949.386 226.452 948.894 225.886C948.404 225.316 948.102 224.626 947.988 223.815C947.874 223.005 947.961 222.119 948.251 221.156L948.479 220.397C948.77 219.43 949.189 218.643 949.734 218.037C950.286 217.427 950.928 217.021 951.66 216.818C952.392 216.616 953.173 216.639 954.004 216.889C954.811 217.132 955.446 217.485 955.908 217.947C956.377 218.406 956.685 218.944 956.833 219.561C956.982 220.173 956.988 220.823 956.85 221.513L955.03 220.966C955.154 220.321 955.115 219.782 954.912 219.348C954.716 218.911 954.264 218.586 953.557 218.374C953.06 218.224 952.605 218.222 952.194 218.366C951.787 218.513 951.426 218.802 951.112 219.235C950.799 219.663 950.536 220.23 950.324 220.937L950.091 221.71C949.888 222.385 949.788 222.989 949.792 223.523C949.797 224.051 949.922 224.494 950.168 224.852C950.414 225.209 950.796 225.466 951.316 225.622C951.791 225.765 952.196 225.807 952.531 225.749C952.867 225.691 953.153 225.543 953.389 225.306C953.63 225.065 953.837 224.742 954.009 224.336L955.828 224.884ZM957.005 224.693C957.222 223.972 957.552 223.37 957.996 222.887C958.439 222.404 958.966 222.075 959.576 221.9C960.191 221.723 960.862 221.743 961.587 221.961C962.321 222.182 962.898 222.537 963.318 223.026C963.739 223.511 963.999 224.077 964.098 224.723C964.201 225.371 964.145 226.055 963.928 226.776L963.885 226.92C963.669 227.636 963.339 228.238 962.894 228.725C962.455 229.21 961.926 229.538 961.307 229.71C960.693 229.883 960.021 229.86 959.291 229.641C958.561 229.421 957.988 229.07 957.572 228.586C957.155 228.103 956.895 227.537 956.792 226.889C956.689 226.237 956.746 225.553 956.961 224.837L957.005 224.693ZM958.713 225.364C958.584 225.792 958.524 226.205 958.535 226.601C958.546 226.992 958.645 227.333 958.831 227.622C959.019 227.908 959.314 228.111 959.715 228.231C960.116 228.352 960.474 228.345 960.788 228.211C961.103 228.072 961.372 227.842 961.593 227.521C961.82 227.196 961.998 226.819 962.127 226.391L962.17 226.247C962.297 225.823 962.355 225.415 962.344 225.024C962.338 224.629 962.24 224.286 962.049 223.995C961.864 223.701 961.569 223.492 961.163 223.37C960.766 223.251 960.409 223.263 960.093 223.406C959.777 223.545 959.506 223.777 959.279 224.101C959.058 224.423 958.884 224.796 958.756 225.22L958.713 225.364ZM965.859 231.467L964.107 230.941L966.334 223.538L967.983 224.035L967.61 225.646L965.859 231.467ZM966.207 227.26C966.428 226.541 966.74 225.951 967.142 225.49C967.55 225.026 968.02 224.712 968.552 224.549C969.085 224.381 969.646 224.386 970.234 224.563C970.708 224.705 971.094 224.921 971.39 225.209C971.687 225.492 971.871 225.866 971.94 226.329C972.014 226.794 971.948 227.369 971.743 228.053L970.312 232.807L968.554 232.278L969.989 227.51C970.09 227.173 970.123 226.891 970.086 226.667C970.049 226.442 969.947 226.259 969.78 226.12C969.618 225.981 969.4 225.871 969.126 225.789C968.848 225.705 968.585 225.685 968.338 225.73C968.095 225.777 967.869 225.875 967.66 226.026C967.455 226.178 967.275 226.373 967.119 226.609C966.968 226.847 966.847 227.117 966.756 227.418L966.207 227.26ZM977.247 228.232L973.026 226.962L973.415 225.669L977.636 226.939L977.247 228.232ZM976.881 224.735L974.747 231.829C974.68 232.052 974.66 232.233 974.688 232.371C974.718 232.504 974.784 232.608 974.885 232.684C974.992 232.76 975.124 232.823 975.284 232.871C975.398 232.905 975.51 232.931 975.619 232.949C975.728 232.967 975.814 232.978 975.877 232.982L975.472 234.33C975.317 234.333 975.143 234.323 974.951 234.3C974.759 234.277 974.542 234.229 974.3 234.157C973.913 234.04 973.589 233.868 973.329 233.641C973.071 233.409 972.904 233.112 972.828 232.751C972.757 232.392 972.8 231.954 972.955 231.439L975.13 224.208L976.881 224.735ZM978.392 235.238L976.64 234.711L978.867 227.309L980.53 227.809L980.17 229.328L978.392 235.238ZM982.354 230.126C982.255 230.077 982.145 230.029 982.024 229.982C981.909 229.938 981.794 229.898 981.68 229.864C981.31 229.753 980.982 229.726 980.696 229.784C980.412 229.838 980.168 229.969 979.967 230.177C979.771 230.381 979.611 230.649 979.486 230.979L979.105 230.835C979.293 230.21 979.543 229.674 979.857 229.226C980.172 228.774 980.535 228.453 980.945 228.263C981.361 228.07 981.814 228.046 982.302 228.193C982.397 228.222 982.502 228.263 982.615 228.317C982.729 228.367 982.814 228.415 982.87 228.461L982.354 230.126ZM982.317 232.309C982.534 231.588 982.864 230.986 983.308 230.503C983.751 230.02 984.278 229.691 984.888 229.516C985.503 229.338 986.174 229.358 986.899 229.576C987.633 229.797 988.21 230.153 988.63 230.642C989.051 231.127 989.311 231.692 989.41 232.339C989.513 232.987 989.457 233.671 989.24 234.392L989.197 234.535C988.981 235.251 988.651 235.853 988.206 236.341C987.767 236.825 987.238 237.154 986.619 237.326C986.005 237.499 985.333 237.476 984.603 237.256C983.873 237.037 983.3 236.685 982.884 236.202C982.467 235.718 982.207 235.153 982.104 234.505C982.001 233.852 982.058 233.168 982.274 232.452L982.317 232.309ZM984.025 232.979C983.896 233.408 983.836 233.82 983.847 234.216C983.858 234.608 983.957 234.948 984.144 235.238C984.331 235.523 984.626 235.726 985.027 235.847C985.428 235.968 985.786 235.961 986.1 235.827C986.415 235.688 986.684 235.458 986.905 235.136C987.132 234.812 987.31 234.435 987.439 234.006L987.482 233.863C987.609 233.438 987.667 233.031 987.656 232.639C987.65 232.245 987.552 231.902 987.361 231.61C987.176 231.316 986.881 231.108 986.475 230.986C986.078 230.866 985.721 230.878 985.405 231.022C985.089 231.161 984.818 231.392 984.591 231.717C984.37 232.039 984.196 232.411 984.068 232.835L984.025 232.979ZM991.308 239.124L989.549 238.595L992.711 228.087L994.469 228.616L991.308 239.124ZM995.816 240.63C995.136 240.425 994.598 240.132 994.201 239.749C993.81 239.362 993.55 238.944 993.422 238.492C993.299 238.042 993.298 237.617 993.419 237.215L995.102 237.722C995.035 238.01 995.045 238.264 995.133 238.485C995.227 238.702 995.372 238.882 995.567 239.026C995.767 239.17 995.988 239.279 996.23 239.352C996.513 239.437 996.761 239.472 996.974 239.457C997.189 239.437 997.364 239.377 997.498 239.278C997.638 239.176 997.734 239.039 997.786 238.865C997.833 238.71 997.834 238.559 997.789 238.411C997.748 238.264 997.63 238.104 997.433 237.931C997.241 237.759 996.94 237.561 996.53 237.338C996.043 237.072 995.628 236.789 995.287 236.487C994.945 236.185 994.703 235.856 994.561 235.5C994.426 235.141 994.42 234.754 994.545 234.339C994.667 233.933 994.896 233.594 995.232 233.322C995.567 233.05 995.982 232.876 996.477 232.802C996.974 232.722 997.518 232.772 998.111 232.95C998.736 233.138 999.241 233.404 999.624 233.748C1000.01 234.089 1000.28 234.474 1000.41 234.903C1000.55 235.327 1000.55 235.764 1000.41 236.216L998.66 235.689C998.748 235.397 998.718 235.115 998.572 234.842C998.426 234.564 998.142 234.362 997.718 234.234C997.462 234.157 997.233 234.133 997.031 234.162C996.828 234.19 996.663 234.26 996.535 234.371C996.409 234.477 996.321 234.61 996.273 234.769C996.227 234.924 996.229 235.074 996.28 235.219C996.337 235.36 996.459 235.509 996.646 235.665C996.834 235.816 997.107 235.99 997.466 236.187C997.988 236.469 998.427 236.763 998.782 237.068C999.144 237.371 999.391 237.704 999.526 238.068C999.666 238.429 999.667 238.839 999.528 239.3C999.398 239.733 999.156 240.083 998.802 240.35C998.454 240.613 998.023 240.772 997.51 240.826C996.996 240.88 996.431 240.815 995.816 240.63Z" fill="#7A1600"/>
<path d="M388.779 141.89L354.617 138.132C352.546 137.904 350.47 138.509 348.844 139.812C347.219 141.115 346.178 143.011 345.95 145.082L339.079 207.55C338.852 209.621 339.456 211.697 340.759 213.323C342.062 214.948 343.958 215.989 346.029 216.217L392.88 221.37C394.951 221.598 397.027 220.993 398.653 219.69C400.278 218.387 401.319 216.491 401.547 214.42L407.043 164.445L388.779 141.89Z" fill="#F7DBFF"/>
<path d="M388.301 146.166L387.6 152.341C386.97 157.894 391.012 162.886 396.575 163.423L402.771 164.021" fill="#FAE8FF"/>
<path d="M300.303 204.607L316.27 174.173C317.238 172.328 318.899 170.943 320.888 170.323C322.877 169.703 325.031 169.899 326.876 170.866L382.526 200.064C384.371 201.032 385.756 202.693 386.376 204.682C386.996 206.671 386.801 208.825 385.833 210.67L363.935 252.407C362.967 254.252 361.306 255.637 359.317 256.257C357.328 256.877 355.174 256.682 353.329 255.714L308.808 232.355L300.303 204.607Z" fill="#F7DBFF"/>
<path d="M304.118 206.599L309.631 209.467C314.589 212.046 316.471 218.187 313.809 223.101L310.844 228.574" fill="#FAE8FF"/>
<path d="M363.724 152.895L330.206 160.492C328.174 160.953 326.409 162.201 325.297 163.964C324.186 165.726 323.821 167.858 324.281 169.89L338.174 231.179C338.634 233.211 339.883 234.977 341.646 236.088C343.408 237.199 345.54 237.565 347.572 237.104L393.539 226.685C395.571 226.224 397.336 224.975 398.448 223.213C399.559 221.45 399.924 219.319 399.463 217.287L388.349 168.254L363.724 152.895Z" fill="#FE7D63"/>
<path d="M363.727 152.887L366.017 163.159C367.234 168.613 372.684 172.012 378.117 170.705L388.362 168.239" fill="#7A1600"/>
<g clip-path="url(#clip1_429_4647)">
<path d="M368.977 198.067C367.598 199.716 365.728 200.88 363.64 201.389C356.813 202.937 351.143 196.019 351.143 196.019C351.844 193.483 353.079 191.127 354.765 189.107M358.108 186.483C358.744 186.174 359.413 185.94 360.103 185.785C366.93 184.238 372.599 191.156 372.599 191.156C372.258 192.397 371.789 193.6 371.198 194.744M364.408 195.186C364.205 195.534 363.934 195.838 363.611 196.079C363.289 196.321 362.921 196.494 362.53 196.59C362.138 196.686 361.732 196.703 361.334 196.638C360.936 196.573 360.556 196.429 360.215 196.215C359.874 196 359.58 195.718 359.35 195.387C359.121 195.056 358.96 194.683 358.878 194.288C358.796 193.894 358.794 193.487 358.873 193.092C358.951 192.697 359.108 192.321 359.335 191.988" stroke="white" stroke-width="2" stroke-linecap="round" stroke-linejoin="round"/>
<path d="M348.713 185.291L375.032 201.883" stroke="white" stroke-width="2" stroke-linecap="round" stroke-linejoin="round"/>
</g>
<path d="M350.327 265.19L344.969 266.405L344.631 264.914L349.989 263.699L350.327 265.19ZM345.498 266.285L343.645 266.705L341.346 256.56L343.199 256.14L345.498 266.285ZM348.611 260.854L343.95 261.911L343.618 260.448L348.28 259.391L348.611 260.854ZM348.339 256.55L343.009 257.758L342.669 256.26L347.999 255.052L348.339 256.55ZM353.302 264.516L351.518 264.92L349.809 257.382L351.488 257.001L351.958 258.587L353.302 264.516ZM351.532 260.683C351.37 259.948 351.351 259.281 351.474 258.682C351.6 258.077 351.855 257.572 352.237 257.168C352.618 256.76 353.108 256.487 353.707 256.352C354.19 256.242 354.632 256.24 355.031 256.344C355.43 256.444 355.774 256.679 356.063 257.048C356.356 257.416 356.582 257.949 356.74 258.646L357.837 263.488L356.047 263.894L354.946 259.037C354.868 258.694 354.758 258.433 354.615 258.255C354.472 258.078 354.294 257.969 354.08 257.93C353.87 257.89 353.626 257.901 353.348 257.964C353.064 258.028 352.826 258.141 352.633 258.302C352.445 258.462 352.296 258.659 352.188 258.893C352.085 259.127 352.024 259.385 352.005 259.667C351.991 259.949 352.018 260.243 352.088 260.55L351.532 260.683ZM362.655 262.542C361.884 262.717 361.205 262.693 360.617 262.469C360.028 262.242 359.544 261.87 359.163 261.356C358.782 260.837 358.512 260.229 358.354 259.532L358.302 259.302C358.143 258.601 358.125 257.936 358.246 257.308C358.371 256.674 358.648 256.13 359.077 255.676C359.51 255.217 360.11 254.9 360.877 254.726C361.485 254.589 362.047 254.588 362.561 254.726C363.079 254.857 363.517 255.109 363.875 255.482C364.232 255.851 364.481 256.324 364.622 256.903L362.943 257.283C362.874 257.021 362.756 256.793 362.591 256.601C362.425 256.409 362.221 256.273 361.978 256.191C361.739 256.108 361.471 256.101 361.174 256.168C360.742 256.266 360.433 256.456 360.248 256.737C360.067 257.017 359.972 257.349 359.961 257.732C359.954 258.11 359.995 258.498 360.086 258.898L360.138 259.128C360.229 259.527 360.359 259.898 360.529 260.24C360.699 260.578 360.928 260.834 361.216 261.008C361.504 261.177 361.868 261.212 362.309 261.112C362.574 261.052 362.799 260.947 362.985 260.797C363.175 260.642 363.311 260.457 363.394 260.243C363.482 260.028 363.503 259.796 363.456 259.548L365.136 259.167C365.24 259.671 365.199 260.156 365.011 260.624C364.824 261.091 364.525 261.496 364.115 261.838C363.709 262.179 363.222 262.414 362.655 262.542ZM368.755 261.013L366.971 261.417L365.263 253.879L366.956 253.495L367.391 254.993L368.755 261.013ZM369.685 254.612C369.574 254.618 369.455 254.63 369.327 254.65C369.204 254.668 369.085 254.69 368.969 254.716C368.592 254.802 368.294 254.94 368.074 255.131C367.852 255.318 367.705 255.552 367.632 255.832C367.562 256.107 367.555 256.419 367.61 256.768L367.206 256.83C367.062 256.193 367.016 255.603 367.069 255.059C367.12 254.51 367.277 254.052 367.541 253.685C367.808 253.312 368.19 253.069 368.687 252.956C368.784 252.934 368.896 252.919 369.021 252.91C369.145 252.896 369.242 252.896 369.314 252.909L369.685 254.612ZM374.557 251.772L376.459 251.341L375.417 260.704C375.389 260.906 375.342 261.129 375.276 261.374C375.214 261.617 375.114 261.857 374.977 262.093C374.846 262.333 374.66 262.546 374.419 262.733C374.178 262.919 373.867 263.055 373.486 263.142C373.384 263.165 373.283 263.181 373.182 263.189C373.087 263.201 372.993 263.207 372.901 263.209C372.808 263.21 372.715 263.209 372.622 263.206L372.311 261.833C372.353 261.829 372.408 261.821 372.474 261.811C372.54 261.801 372.594 261.791 372.636 261.782C373.049 261.688 373.342 261.546 373.514 261.356C373.69 261.164 373.797 260.884 373.835 260.513L374.049 258.934L374.557 251.772ZM374.475 257.614L375.22 259.482L374.042 260.005L369.575 252.901L371.498 252.465L374.475 257.614ZM382.854 257.964C382.38 258.071 381.949 258.076 381.56 257.979C381.171 257.876 380.819 257.69 380.503 257.42C380.193 257.148 379.916 256.811 379.673 256.407C379.429 255.998 379.216 255.541 379.033 255.036L378.922 254.548C378.839 253.795 378.851 253.114 378.957 252.504C379.063 251.893 379.284 251.384 379.621 250.976C379.963 250.566 380.445 250.291 381.068 250.15C381.704 250.006 382.277 250.044 382.786 250.266C383.295 250.487 383.727 250.861 384.08 251.386C384.437 251.906 384.703 252.549 384.877 253.315L384.91 253.462C385.076 254.196 385.111 254.879 385.015 255.511C384.923 256.137 384.696 256.667 384.335 257.101C383.979 257.533 383.485 257.821 382.854 257.964ZM379.751 261.568L377.386 251.131L379.03 250.758L379.498 252.176L381.535 261.164L379.751 261.568ZM382.041 256.639C382.431 256.551 382.72 256.371 382.907 256.099C383.099 255.825 383.207 255.496 383.232 255.109C383.26 254.717 383.225 254.303 383.126 253.866L383.093 253.72C382.992 253.274 382.845 252.885 382.652 252.552C382.46 252.22 382.219 251.976 381.93 251.822C381.64 251.663 381.3 251.628 380.91 251.716C380.622 251.782 380.386 251.884 380.203 252.023C380.02 252.162 379.878 252.334 379.778 252.537C379.681 252.735 379.62 252.961 379.594 253.216C379.573 253.465 379.58 253.734 379.616 254.024L379.885 255.209C380.013 255.536 380.171 255.825 380.36 256.075C380.547 256.321 380.778 256.498 381.052 256.607C381.33 256.715 381.66 256.726 382.041 256.639ZM389.236 249.829L384.937 250.804L384.639 249.487L388.937 248.512L389.236 249.829ZM387.195 246.966L388.833 254.191C388.884 254.419 388.956 254.586 389.049 254.692C389.14 254.793 389.249 254.851 389.374 254.867C389.505 254.881 389.651 254.87 389.814 254.833C389.93 254.807 390.04 254.775 390.143 254.737C390.247 254.698 390.327 254.666 390.385 254.638L390.696 256.011C390.562 256.09 390.406 256.166 390.228 256.241C390.049 256.316 389.837 256.381 389.591 256.437C389.196 256.526 388.83 256.536 388.492 256.466C388.152 256.392 387.861 256.216 387.618 255.939C387.379 255.661 387.2 255.26 387.081 254.735L385.412 247.37L387.195 246.966ZM390.55 245.092C390.866 245.021 391.135 245.055 391.357 245.195C391.579 245.33 391.72 245.533 391.781 245.802C391.842 246.072 391.802 246.317 391.662 246.54C391.521 246.757 391.293 246.902 390.977 246.973C390.661 247.045 390.392 247.013 390.171 246.878C389.954 246.736 389.814 246.531 389.753 246.262C389.692 245.992 389.73 245.749 389.866 245.533C390.006 245.311 390.234 245.164 390.55 245.092ZM393.816 255.332L392.026 255.738L390.317 248.2L392.108 247.794L393.816 255.332ZM394.444 251.154C394.278 250.42 394.269 249.734 394.417 249.094C394.565 248.455 394.861 247.91 395.306 247.457C395.754 246.999 396.347 246.686 397.085 246.519C397.833 246.35 398.51 246.374 399.117 246.593C399.722 246.808 400.227 247.172 400.632 247.686C401.041 248.199 401.329 248.822 401.495 249.556L401.528 249.702C401.694 250.431 401.703 251.118 401.556 251.762C401.412 252.4 401.113 252.946 400.66 253.4C400.211 253.854 399.615 254.165 398.871 254.333C398.128 254.502 397.456 254.478 396.856 254.263C396.255 254.047 395.75 253.683 395.341 253.17C394.93 252.653 394.643 252.03 394.477 251.3L394.444 251.154ZM396.261 250.896C396.36 251.333 396.511 251.721 396.715 252.06C396.918 252.395 397.172 252.643 397.477 252.803C397.781 252.959 398.137 252.991 398.546 252.898C398.955 252.805 399.263 252.623 399.47 252.352C399.676 252.075 399.796 251.743 399.83 251.354C399.867 250.96 399.837 250.545 399.738 250.108L399.704 249.962C399.607 249.53 399.456 249.146 399.253 248.811C399.054 248.471 398.8 248.221 398.49 248.061C398.184 247.896 397.824 247.861 397.411 247.954C397.007 248.046 396.702 248.232 396.497 248.513C396.291 248.789 396.17 249.124 396.132 249.519C396.098 249.907 396.13 250.318 396.228 250.75L396.261 250.896ZM405.487 252.687L403.703 253.091L401.994 245.553L403.673 245.172L404.143 246.758L405.487 252.687ZM403.717 248.854C403.555 248.119 403.536 247.452 403.659 246.853C403.785 246.248 404.04 245.744 404.422 245.34C404.803 244.931 405.293 244.659 405.892 244.523C406.375 244.413 406.817 244.411 407.216 244.516C407.615 244.616 407.959 244.85 408.248 245.22C408.541 245.588 408.767 246.12 408.925 246.817L410.022 251.659L408.232 252.065L407.131 247.209C407.053 246.865 406.943 246.604 406.8 246.427C406.657 246.249 406.479 246.141 406.265 246.101C406.055 246.061 405.811 246.072 405.532 246.135C405.249 246.2 405.011 246.312 404.818 246.473C404.629 246.633 404.481 246.83 404.373 247.065C404.27 247.298 404.209 247.556 404.19 247.839C404.175 248.12 404.203 248.414 404.273 248.721L403.717 248.854Z" fill="#7A1600"/>
</g>
<defs>
<linearGradient id="paint0_linear_429_4647" x1="533.559" y1="273.685" x2="761.136" y2="465.077" gradientUnits="userSpaceOnUse">
<stop stop-color="#FFCFC5"/>
<stop offset="1" stop-color="#FF7152"/>
</linearGradient>
<linearGradient id="paint1_linear_429_4647" x1="617.693" y1="300.884" x2="651.358" y2="368.298" gradientUnits="userSpaceOnUse">
<stop stop-color="#FFCFC5"/>
<stop offset="1" stop-color="#FF7152"/>
</linearGradient>
<clipPath id="clip0_429_4647">
<rect width="1300" height="408" fill="white" transform="translate(0.5 0.806641)"/>
</clipPath>
<clipPath id="clip1_429_4647">
<rect width="24" height="24" fill="white" transform="translate(347.516 184.537) rotate(-12.7713)"/>
</clipPath>
</defs>
</svg>
