<svg width="1301" height="409" viewBox="0 0 1301 409" fill="none" xmlns="http://www.w3.org/2000/svg">
<g clip-path="url(#clip0_429_4189)">
<path d="M673.902 182.107C672.55 180.754 670.945 179.681 669.178 178.949C667.411 178.217 665.517 177.84 663.605 177.84C661.692 177.84 659.799 178.217 658.032 178.949C656.265 179.681 654.66 180.754 653.308 182.107C651.758 183.657 649.245 183.657 647.696 182.107C644.965 179.376 641.261 177.842 637.398 177.842C633.536 177.842 629.832 179.376 627.101 182.107C624.37 184.838 622.836 188.542 622.836 192.404C622.836 196.266 624.37 199.97 627.101 202.701L629.907 205.507L643.431 219.031C647.336 222.936 653.667 222.936 657.573 219.031L671.096 205.507L673.902 202.701C675.255 201.349 676.328 199.744 677.06 197.977C677.792 196.211 678.169 194.317 678.169 192.404C678.169 190.492 677.792 188.598 677.06 186.831C676.328 185.064 675.255 183.459 673.902 182.107Z" fill="#F7F9B3"/>
<path d="M724.915 138.802C720.615 134.5 715.511 131.088 709.892 128.76C704.273 126.432 698.251 125.233 692.169 125.233C686.087 125.233 680.065 126.432 674.446 128.76C668.828 131.088 663.723 134.5 659.423 138.802L657.571 140.654C653.666 144.559 647.334 144.559 643.429 140.654L641.577 138.802C632.892 130.117 621.113 125.238 608.831 125.238C596.549 125.238 584.77 130.117 576.085 138.802C567.401 147.486 562.521 159.266 562.521 171.548C562.521 183.83 567.401 195.609 576.085 204.294L585.008 213.217L643.429 271.637C647.334 275.543 653.666 275.543 657.571 271.637L715.992 213.217L724.915 204.294C729.217 199.994 732.629 194.889 734.957 189.27C737.285 183.652 738.483 177.629 738.483 171.548C738.483 165.466 737.285 159.443 734.957 153.825C732.629 148.206 729.217 143.101 724.915 138.802Z" stroke="#F7F9B3" stroke-width="4" stroke-linecap="round" stroke-linejoin="round"/>
<path d="M773.675 97.4056C766.558 90.2852 758.108 84.6368 748.808 80.783C739.507 76.9293 729.538 74.9458 719.471 74.9458C709.403 74.9458 699.435 76.9293 690.134 80.783C680.833 84.6368 672.383 90.2852 665.266 97.4056L657.567 105.105C653.661 109.01 647.33 109.01 643.424 105.105L635.725 97.4056C621.349 83.0296 601.851 74.9533 581.52 74.9533C561.19 74.9533 541.692 83.0296 527.316 97.4056C512.94 111.782 504.863 131.28 504.863 151.61C504.863 171.941 512.94 191.439 527.316 205.815L542.086 220.586L643.424 321.924C647.33 325.829 653.661 325.829 657.567 321.924L758.905 220.586L773.675 205.815C780.796 198.698 786.444 190.248 790.298 180.947C794.152 171.647 796.135 161.678 796.135 151.61C796.135 141.543 794.152 131.574 790.298 122.274C786.444 112.973 780.796 104.523 773.675 97.4056Z" stroke="#F7F9B3" stroke-width="4" stroke-linecap="round" stroke-linejoin="round"/>
<path d="M828.075 51.2236C817.814 40.9584 805.632 32.8153 792.224 27.2596C778.815 21.7038 764.444 18.8442 749.93 18.8442C735.416 18.8442 721.044 21.7038 707.636 27.2596C694.228 32.8153 682.045 40.9584 671.785 51.2236L657.562 65.4465C653.657 69.3517 647.325 69.3517 643.42 65.4465L629.197 51.2236C608.472 30.4983 580.362 18.855 551.052 18.855C521.742 18.855 493.633 30.4983 472.908 51.2236C452.182 71.9489 440.539 100.058 440.539 129.368C440.539 158.678 452.182 186.788 472.908 207.513L494.202 228.807L643.42 378.026C647.325 381.931 653.657 381.931 657.562 378.026L806.781 228.807L828.075 207.513C838.34 197.253 846.483 185.07 852.039 171.662C857.594 158.254 860.454 143.882 860.454 129.368C860.454 114.855 857.594 100.483 852.039 87.0747C846.483 73.6663 838.34 61.484 828.075 51.2236Z" stroke="#F7F9B3" stroke-width="4" stroke-linecap="round" stroke-linejoin="round"/>
<path d="M907.876 -16.5154C893.005 -31.3934 875.349 -43.1957 855.915 -51.248C836.482 -59.3003 815.652 -63.4448 794.616 -63.4448C773.581 -63.4448 752.751 -59.3003 733.318 -51.248C713.884 -43.1957 696.227 -31.3934 681.356 -16.5154L657.565 7.27614C653.66 11.1814 647.328 11.1814 643.423 7.27614L619.631 -16.5154C589.593 -46.5538 548.852 -63.4293 506.371 -63.4293C463.89 -63.4293 423.15 -46.5538 393.111 -16.5154C363.073 13.523 346.197 54.2638 346.197 96.7446C346.197 139.225 363.073 179.966 393.111 210.005L423.974 240.867L643.423 460.316C647.328 464.221 653.66 464.221 657.565 460.316L877.014 240.867L907.876 210.005C922.754 195.134 934.557 177.477 942.609 158.043C950.661 138.61 954.806 117.78 954.806 96.7446C954.806 75.7089 950.661 54.8793 942.609 35.4457C934.557 16.0122 922.754 -1.64441 907.876 -16.5154Z" stroke="#F7F9B3" stroke-width="4" stroke-linecap="round" stroke-linejoin="round"/>
<path d="M1022.57 -113.886C1001.07 -135.394 975.549 -152.456 947.455 -164.097C919.36 -175.738 889.248 -181.729 858.838 -181.729C828.427 -181.729 798.315 -175.738 770.221 -164.097C742.126 -152.456 716.601 -135.394 695.103 -113.886L657.557 -76.3401C653.652 -72.4349 647.32 -72.4349 643.415 -76.3401L605.869 -113.886C562.444 -157.311 503.547 -181.707 442.134 -181.707C380.722 -181.707 321.825 -157.311 278.399 -113.886C234.974 -70.4605 210.578 -11.5634 210.578 49.8492C210.578 111.262 234.974 170.159 278.399 213.584L323.016 258.201L643.415 578.6C647.32 582.505 653.652 582.505 657.557 578.6L977.956 258.201L1022.57 213.584C1044.08 192.086 1061.14 166.56 1072.78 138.466C1084.42 110.372 1090.42 80.2596 1090.42 49.8492C1090.42 19.4388 1084.42 -10.6737 1072.78 -38.7678C1061.14 -66.862 1044.08 -92.3874 1022.57 -113.886Z" stroke="#F7F9B3" stroke-width="4" stroke-linecap="round" stroke-linejoin="round"/>
<path d="M1165.57 -235.274C1135.81 -265.048 1100.47 -288.667 1061.58 -304.782C1022.69 -320.897 981.007 -329.191 938.909 -329.191C896.811 -329.191 855.126 -320.897 816.235 -304.782C777.344 -288.667 742.009 -265.048 712.248 -235.274L657.556 -180.581C653.65 -176.676 647.319 -176.676 643.414 -180.581L588.721 -235.274C528.607 -295.388 447.075 -329.16 362.06 -329.16C277.046 -329.16 195.514 -295.388 135.4 -235.274C75.2855 -175.16 41.5137 -93.6274 41.5137 -8.61315C41.5137 76.4011 75.2855 157.933 135.4 218.048L197.163 279.811L643.414 726.061C647.319 729.967 653.65 729.967 657.556 726.061L1103.81 279.811L1165.57 218.048C1195.34 188.287 1218.96 152.952 1235.08 114.061C1251.19 75.1695 1259.49 33.4844 1259.49 -8.61315C1259.49 -50.7107 1251.19 -92.3958 1235.08 -131.287C1218.96 -170.178 1195.34 -205.513 1165.57 -235.274Z" stroke="#F7F9B3" stroke-width="4" stroke-linecap="round" stroke-linejoin="round"/>
<path d="M1305.68 -354.213C1267.82 -392.087 1222.88 -422.131 1173.41 -442.629C1123.93 -463.127 1070.91 -473.677 1017.36 -473.677C963.813 -473.677 910.788 -463.127 861.318 -442.629C811.848 -422.131 766.901 -392.087 729.045 -354.213L657.551 -282.719C653.646 -278.814 647.315 -278.814 643.409 -282.719L571.916 -354.213C495.449 -430.679 391.739 -473.638 283.599 -473.638C175.459 -473.638 71.7486 -430.679 -4.71783 -354.213C-81.1842 -277.746 -124.143 -174.036 -124.143 -65.896C-124.143 42.2437 -81.1842 145.954 -4.71783 222.421L73.8466 300.985L643.409 870.548C647.315 874.453 653.646 874.453 657.551 870.548L1227.11 300.985L1305.68 222.421C1343.55 184.565 1373.6 139.618 1394.09 90.1475C1414.59 40.6771 1425.14 -12.3471 1425.14 -65.896C1425.14 -119.445 1414.59 -172.469 1394.09 -221.94C1373.6 -271.41 1343.55 -316.357 1305.68 -354.213Z" stroke="#F7F9B3" stroke-width="4" stroke-linecap="round" stroke-linejoin="round"/>
<path fill-rule="evenodd" clip-rule="evenodd" d="M673.142 308.17C665.366 308.943 658.238 308.131 653.238 305.564L654.927 302.276C659.04 304.388 665.359 305.229 672.776 304.491C680.146 303.759 688.401 301.486 696.254 297.599C711.966 289.821 725.835 275.72 728.124 254.828L731.798 255.231C729.333 277.729 714.376 292.752 697.894 300.912C689.649 304.993 680.964 307.392 673.142 308.17Z" fill="#7A1600"/>
<path d="M547.615 194.398C547.615 137.613 593.648 91.5806 650.432 91.5806C707.217 91.5806 753.25 137.613 753.25 194.398C753.25 196.88 753.162 199.341 752.989 201.779H743.307C743.419 199.906 743.476 198.019 743.476 196.118C743.476 144.731 701.819 103.074 650.432 103.074C599.045 103.074 557.388 144.731 557.388 196.118C557.388 198.019 557.445 199.906 557.557 201.779H547.876C547.703 199.341 547.615 196.88 547.615 194.398Z" fill="#7A1600"/>
<path d="M538.611 227.513C541.545 248.858 561.12 263.798 582.332 260.883L571.708 183.584C550.495 186.5 535.677 206.167 538.611 227.513Z" fill="#FE7D63"/>
<rect x="567.107" y="175.784" width="28.4369" height="95.5399" rx="14.2184" transform="rotate(-7.82613 567.107 175.784)" fill="#7A1600"/>
<path d="M762.389 227.513C759.455 248.858 740.24 263.848 719.472 260.993L730.096 183.695C750.865 186.549 765.323 206.167 762.389 227.513Z" fill="#FE7D63"/>
<rect width="28.4369" height="95.5399" rx="14.2184" transform="matrix(-0.990686 -0.136167 -0.136167 0.990686 733.896 175.784)" fill="#7A1600"/>
<rect x="631.777" y="294.258" width="37.4447" height="23.7752" rx="10.1653" fill="#7A1600"/>
<path d="M356.943 208.363C357.44 207.515 356.664 206.491 355.714 206.739L336.181 211.843C335.802 211.942 335.505 212.235 335.399 212.612L328.09 238.717C327.861 239.537 328.607 240.296 329.43 240.081L340.32 237.235C341.112 237.028 341.846 237.727 341.677 238.529L337.402 258.775C337.148 259.978 338.757 260.63 339.413 259.59L359.589 227.551C360.121 226.706 359.344 225.646 358.378 225.898L347.124 228.839C346.174 229.087 345.399 228.063 345.895 227.216L356.943 208.363Z" fill="#7A1600"/>
<rect x="257.891" y="187.906" width="146.654" height="46.8121" rx="23.406" transform="rotate(-14.644 257.891 187.906)" fill="#FE7D63"/>
<path d="M282.398 206.931L281.97 205.294L284.826 204.547C285.308 204.421 285.677 204.244 285.931 204.014C286.19 203.779 286.352 203.506 286.417 203.196C286.488 202.885 286.477 202.554 286.386 202.203C286.297 201.863 286.143 201.565 285.924 201.307C285.708 201.043 285.427 200.859 285.08 200.755C284.737 200.649 284.325 200.659 283.843 200.785L281.611 201.368L284.081 210.82L282.055 211.349L279.158 200.26L283.415 199.148C284.278 198.922 285.052 198.885 285.737 199.037C286.426 199.183 287.001 199.483 287.461 199.937C287.926 200.385 288.249 200.957 288.43 201.653C288.617 202.369 288.616 203.028 288.427 203.631C288.242 204.232 287.882 204.752 287.345 205.191C286.814 205.628 286.117 205.959 285.254 206.185L282.398 206.931ZM293.845 208.268L291.895 208.778L289.742 200.537L291.592 200.054L292.125 201.688L293.845 208.268ZM294.638 201.186C294.516 201.196 294.385 201.214 294.245 201.24C294.111 201.264 293.98 201.293 293.853 201.326C293.442 201.434 293.118 201.597 292.883 201.816C292.646 202.029 292.492 202.292 292.421 202.603C292.355 202.908 292.358 203.252 292.43 203.634L291.988 203.717C291.806 203.022 291.735 202.373 291.773 201.772C291.81 201.166 291.967 200.656 292.243 200.242C292.524 199.821 292.936 199.54 293.479 199.398C293.586 199.37 293.708 199.349 293.845 199.335C293.981 199.316 294.089 199.312 294.168 199.324L294.638 201.186ZM295.583 195.618C295.929 195.528 296.226 195.556 296.476 195.702C296.724 195.843 296.887 196.061 296.964 196.356C297.041 196.65 297.006 196.922 296.86 197.172C296.712 197.417 296.466 197.584 296.121 197.675C295.775 197.765 295.479 197.739 295.23 197.598C294.985 197.45 294.825 197.229 294.748 196.935C294.671 196.64 294.704 196.372 294.846 196.128C294.992 195.878 295.238 195.708 295.583 195.618ZM299.549 206.778L297.592 207.289L295.438 199.049L297.396 198.537L299.549 206.778ZM300.09 202.154C299.88 201.351 299.845 200.596 299.986 199.886C300.126 199.177 300.432 198.566 300.905 198.051C301.382 197.531 302.024 197.165 302.832 196.954C303.649 196.741 304.396 196.743 305.071 196.963C305.746 197.177 306.315 197.56 306.779 198.111C307.248 198.661 307.588 199.337 307.797 200.14L307.839 200.3C308.047 201.097 308.082 201.852 307.943 202.567C307.808 203.274 307.499 203.887 307.016 204.404C306.537 204.919 305.892 205.283 305.08 205.495C304.267 205.708 303.527 205.706 302.857 205.49C302.188 205.275 301.619 204.892 301.15 204.342C300.679 203.787 300.34 203.111 300.132 202.313L300.09 202.154ZM302.081 201.804C302.206 202.281 302.387 202.703 302.624 203.07C302.859 203.431 303.148 203.695 303.489 203.861C303.83 204.021 304.223 204.043 304.67 203.926C305.117 203.81 305.449 203.598 305.667 203.291C305.884 202.98 306.004 202.609 306.028 202.18C306.055 201.745 306.006 201.288 305.882 200.811L305.84 200.651C305.716 200.179 305.537 199.762 305.302 199.4C305.07 199.033 304.781 198.766 304.434 198.602C304.091 198.431 303.694 198.405 303.242 198.523C302.8 198.638 302.471 198.855 302.256 199.171C302.039 199.483 301.917 199.856 301.89 200.292C301.866 200.721 301.916 201.172 302.04 201.644L302.081 201.804ZM312.336 203.436L310.386 203.946L308.233 195.705L310.084 195.222L310.617 196.856L312.336 203.436ZM313.13 196.354C313.008 196.364 312.877 196.382 312.737 196.408C312.602 196.432 312.471 196.461 312.345 196.494C311.933 196.602 311.61 196.765 311.374 196.984C311.137 197.198 310.983 197.46 310.913 197.772C310.846 198.076 310.849 198.42 310.922 198.802L310.48 198.885C310.298 198.19 310.226 197.541 310.264 196.94C310.301 196.334 310.458 195.824 310.735 195.41C311.016 194.989 311.428 194.708 311.971 194.566C312.077 194.538 312.199 194.517 312.337 194.503C312.473 194.484 312.58 194.48 312.659 194.492L313.13 196.354ZM314.075 190.786C314.42 190.696 314.718 190.724 314.967 190.87C315.216 191.012 315.379 191.229 315.455 191.524C315.532 191.818 315.498 192.091 315.351 192.34C315.204 192.585 314.957 192.752 314.612 192.843C314.267 192.933 313.97 192.907 313.722 192.766C313.477 192.619 313.316 192.398 313.239 192.103C313.162 191.809 313.195 191.54 313.338 191.296C313.484 191.047 313.73 190.877 314.075 190.786ZM318.04 201.946L316.083 202.457L313.93 194.217L315.887 193.705L318.04 201.946ZM322.105 193.619L317.406 194.846L317.03 193.407L321.729 192.179L322.105 193.619ZM319.754 190.539L321.818 198.437C321.883 198.686 321.968 198.867 322.074 198.98C322.178 199.088 322.3 199.149 322.438 199.161C322.582 199.173 322.743 199.155 322.921 199.109C323.048 199.075 323.168 199.036 323.281 198.99C323.393 198.944 323.481 198.905 323.543 198.873L323.935 200.373C323.791 200.465 323.622 200.555 323.428 200.644C323.234 200.733 323.003 200.812 322.734 200.882C322.302 200.995 321.899 201.019 321.524 200.954C321.148 200.885 320.82 200.702 320.542 200.405C320.269 200.108 320.058 199.672 319.908 199.099L317.805 191.048L319.754 190.539ZM327.699 190.619L329.779 190.076L328.968 200.425C328.945 200.648 328.901 200.895 328.837 201.167C328.777 201.437 328.676 201.705 328.534 201.97C328.398 202.239 328.201 202.48 327.942 202.694C327.683 202.908 327.346 203.07 326.93 203.179C326.818 203.208 326.707 203.229 326.596 203.241C326.492 203.258 326.389 203.268 326.287 203.273C326.185 203.278 326.083 203.28 325.98 203.28L325.588 201.78C325.635 201.773 325.695 201.763 325.767 201.749C325.839 201.736 325.898 201.723 325.944 201.711C326.396 201.593 326.713 201.426 326.895 201.21C327.083 200.993 327.191 200.68 327.22 200.272L327.398 198.525L327.699 190.619ZM327.819 197.056L328.708 199.085L327.429 199.704L322.254 192.042L324.356 191.493L327.819 197.056ZM340.89 196.138C340.352 196.279 339.805 196.346 339.25 196.339C338.694 196.327 338.164 196.229 337.66 196.046C337.162 195.862 336.728 195.582 336.359 195.207C335.993 194.825 335.732 194.332 335.574 193.728L337.607 193.196C337.699 193.547 337.835 193.831 338.017 194.049C338.203 194.261 338.423 194.418 338.677 194.52C338.931 194.621 339.21 194.67 339.513 194.667C339.816 194.664 340.135 194.619 340.47 194.531C340.907 194.417 341.251 194.262 341.504 194.066C341.756 193.87 341.926 193.646 342.012 193.396C342.104 193.144 342.113 192.879 342.04 192.599C341.964 192.31 341.839 192.08 341.664 191.908C341.488 191.732 341.209 191.599 340.827 191.509C340.45 191.412 339.918 191.35 339.233 191.323C338.674 191.301 338.145 191.247 337.645 191.161C337.15 191.073 336.7 190.938 336.295 190.757C335.889 190.575 335.547 190.334 335.267 190.033C334.992 189.725 334.793 189.338 334.671 188.871C334.513 188.266 334.541 187.689 334.755 187.14C334.975 186.589 335.35 186.106 335.882 185.69C336.413 185.275 337.07 184.965 337.852 184.761C338.685 184.543 339.44 184.508 340.119 184.656C340.801 184.798 341.372 185.083 341.831 185.511C342.29 185.939 342.602 186.47 342.768 187.105L340.735 187.636C340.645 187.291 340.491 187.003 340.273 186.772C340.061 186.54 339.785 186.39 339.447 186.321C339.113 186.245 338.715 186.268 338.253 186.389C337.821 186.501 337.477 186.659 337.221 186.862C336.97 187.063 336.802 187.291 336.717 187.547C336.637 187.801 336.633 188.065 336.704 188.339C336.775 188.608 336.92 188.823 337.141 188.982C337.366 189.14 337.674 189.257 338.063 189.335C338.45 189.407 338.921 189.455 339.475 189.478C340.36 189.502 341.117 189.605 341.745 189.788C342.372 189.966 342.877 190.241 343.262 190.612C343.645 190.979 343.914 191.459 344.069 192.053C344.234 192.682 344.211 193.269 344 193.812C343.795 194.354 343.427 194.824 342.896 195.223C342.366 195.622 341.697 195.927 340.89 196.138ZM349.077 185.033L351.035 184.521L353.188 192.762L351.345 193.243L350.721 191.324L349.077 185.033ZM351.166 189.352C351.359 190.089 351.421 190.775 351.354 191.41C351.287 192.046 351.066 192.592 350.692 193.048C350.316 193.499 349.765 193.819 349.039 194.009C348.227 194.221 347.507 194.154 346.879 193.808C346.252 193.462 345.796 192.744 345.51 191.652L344.119 186.328L346.069 185.819L347.464 191.158C347.561 191.528 347.693 191.806 347.861 191.99C348.032 192.167 348.226 192.277 348.443 192.318C348.663 192.352 348.89 192.339 349.124 192.278C349.626 192.147 349.997 191.947 350.236 191.678C350.474 191.405 350.61 191.084 350.644 190.717C350.682 190.344 350.647 189.949 350.538 189.533L351.166 189.352ZM359.13 191.372C358.612 191.507 358.138 191.528 357.706 191.435C357.274 191.336 356.879 191.144 356.522 190.857C356.17 190.57 355.854 190.208 355.571 189.771C355.288 189.33 355.036 188.835 354.817 188.285L354.677 187.751C354.559 186.925 354.547 186.174 354.642 185.499C354.737 184.823 354.962 184.254 355.319 183.792C355.681 183.329 356.202 183.009 356.882 182.831C357.578 182.649 358.21 182.671 358.779 182.897C359.347 183.122 359.836 183.518 360.244 184.084C360.656 184.643 360.972 185.342 361.19 186.18L361.232 186.34C361.442 187.142 361.505 187.893 361.422 188.593C361.343 189.286 361.113 189.878 360.731 190.368C360.354 190.857 359.821 191.191 359.13 191.372ZM355.844 195.452L352.863 184.044L354.66 183.574L355.226 185.118L357.793 194.943L355.844 195.452ZM358.187 189.942C358.614 189.831 358.925 189.622 359.122 189.316C359.323 189.008 359.431 188.641 359.444 188.214C359.461 187.782 359.407 187.326 359.283 186.849L359.241 186.689C359.113 186.202 358.938 185.779 358.714 185.419C358.49 185.06 358.216 184.801 357.892 184.642C357.567 184.477 357.191 184.45 356.765 184.562C356.45 184.644 356.194 184.765 355.997 184.925C355.8 185.085 355.65 185.279 355.547 185.506C355.448 185.728 355.389 185.979 355.37 186.261C355.355 186.536 355.373 186.832 355.423 187.15L355.762 188.444C355.914 188.8 356.099 189.113 356.316 189.382C356.531 189.645 356.791 189.832 357.097 189.942C357.407 190.051 357.771 190.051 358.187 189.942ZM367.904 189.079C367.386 189.215 366.911 189.236 366.48 189.142C366.047 189.044 365.653 188.851 365.296 188.565C364.944 188.277 364.627 187.915 364.345 187.479C364.062 187.038 363.81 186.542 363.59 185.992L363.451 185.459C363.333 184.633 363.321 183.882 363.416 183.206C363.51 182.531 363.736 181.962 364.093 181.5C364.454 181.037 364.975 180.716 365.656 180.538C366.351 180.356 366.983 180.378 367.552 180.604C368.121 180.83 368.61 181.225 369.018 181.791C369.43 182.351 369.745 183.049 369.964 183.887L370.006 184.047C370.215 184.849 370.279 185.6 370.196 186.3C370.117 186.993 369.886 187.585 369.504 188.075C369.128 188.564 368.594 188.899 367.904 189.079ZM364.617 193.16L361.636 181.751L363.433 181.282L364 182.826L366.567 192.65L364.617 193.16ZM366.961 187.65C367.387 187.538 367.699 187.329 367.895 187.023C368.097 186.716 368.204 186.348 368.218 185.922C368.235 185.489 368.181 185.034 368.056 184.557L368.014 184.397C367.887 183.909 367.711 183.486 367.487 183.127C367.263 182.768 366.989 182.508 366.666 182.349C366.341 182.184 365.965 182.158 365.538 182.269C365.224 182.352 364.968 182.473 364.771 182.633C364.574 182.792 364.424 182.986 364.321 183.214C364.221 183.435 364.162 183.687 364.144 183.968C364.129 184.243 364.146 184.54 364.197 184.857L364.535 186.152C364.688 186.508 364.873 186.82 365.089 187.089C365.305 187.353 365.565 187.54 365.87 187.65C366.181 187.759 366.544 187.759 366.961 187.65ZM371.116 183.594C370.906 182.792 370.872 182.036 371.012 181.327C371.152 180.618 371.459 180.006 371.932 179.492C372.409 178.972 373.051 178.606 373.858 178.395C374.675 178.181 375.422 178.184 376.098 178.404C376.772 178.618 377.341 179.001 377.805 179.552C378.274 180.102 378.614 180.778 378.823 181.58L378.865 181.74C379.073 182.537 379.108 183.293 378.969 184.007C378.834 184.715 378.525 185.328 378.042 185.844C377.564 186.36 376.918 186.724 376.106 186.936C375.294 187.148 374.553 187.147 373.884 186.931C373.214 186.715 372.645 186.333 372.176 185.783C371.706 185.227 371.366 184.551 371.158 183.754L371.116 183.594ZM373.108 183.245C373.232 183.722 373.413 184.144 373.65 184.511C373.885 184.872 374.174 185.136 374.515 185.301C374.856 185.462 375.249 185.484 375.696 185.367C376.143 185.25 376.475 185.039 376.694 184.732C376.91 184.421 377.031 184.05 377.054 183.621C377.081 183.185 377.033 182.729 376.908 182.252L376.866 182.092C376.743 181.62 376.563 181.203 376.328 180.841C376.096 180.473 375.807 180.207 375.46 180.043C375.117 179.872 374.72 179.846 374.268 179.964C373.826 180.079 373.498 180.295 373.282 180.612C373.065 180.924 372.943 181.297 372.916 181.733C372.892 182.162 372.942 182.613 373.066 183.085L373.108 183.245ZM383.362 184.877L381.413 185.387L379.259 177.146L381.11 176.663L381.643 178.297L383.362 184.877ZM384.156 177.795C384.034 177.805 383.903 177.823 383.763 177.849C383.628 177.873 383.498 177.902 383.371 177.935C382.959 178.043 382.636 178.206 382.4 178.425C382.163 178.638 382.009 178.901 381.939 179.212C381.872 179.517 381.875 179.861 381.948 180.243L381.506 180.326C381.324 179.631 381.252 178.982 381.291 178.381C381.327 177.775 381.484 177.265 381.761 176.851C382.042 176.43 382.454 176.149 382.997 176.007C383.104 175.979 383.226 175.958 383.363 175.944C383.499 175.925 383.606 175.921 383.686 175.933L384.156 177.795ZM389.43 176.026L384.731 177.254L384.354 175.815L389.053 174.587L389.43 176.026ZM387.079 172.947L389.143 180.845C389.208 181.093 389.293 181.275 389.399 181.388C389.503 181.496 389.624 181.557 389.763 181.569C389.907 181.581 390.068 181.563 390.246 181.517C390.373 181.483 390.493 181.444 390.605 181.398C390.718 181.352 390.806 181.313 390.868 181.281L391.26 182.781C391.116 182.873 390.947 182.963 390.753 183.052C390.559 183.141 390.328 183.22 390.058 183.29C389.627 183.403 389.224 183.427 388.849 183.362C388.472 183.292 388.145 183.109 387.867 182.813C387.594 182.516 387.383 182.08 387.233 181.506L385.129 173.456L387.079 172.947Z" fill="white"/>
<path d="M1005.89 182.381C1005.67 183.033 1005.34 183.579 1004.89 184.019C1004.43 184.459 1003.88 184.753 1003.24 184.902C1002.59 185.051 1001.85 185.021 1001.03 184.811C1000.2 184.597 999.523 184.218 999.008 183.674C998.495 183.124 998.164 182.448 998.016 181.643C997.868 180.838 997.918 179.949 998.167 178.975L998.363 178.207C998.613 177.229 998.998 176.425 999.518 175.796C1000.04 175.163 1000.67 174.731 1001.39 174.498C1002.11 174.265 1002.9 174.256 1003.74 174.47C1004.55 174.679 1005.2 175.005 1005.68 175.448C1006.17 175.887 1006.5 176.411 1006.67 177.021C1006.85 177.626 1006.88 178.276 1006.77 178.971L1004.93 178.5C1005.03 177.851 1004.97 177.315 1004.75 176.889C1004.53 176.461 1004.07 176.155 1003.35 175.972C1002.85 175.844 1002.39 175.86 1001.99 176.022C1001.59 176.185 1001.24 176.49 1000.94 176.935C1000.65 177.376 1000.41 177.954 1000.23 178.669L1000.03 179.451C999.854 180.134 999.78 180.742 999.806 181.275C999.833 181.803 999.977 182.24 1000.24 182.587C1000.5 182.934 1000.89 183.174 1001.42 183.309C1001.9 183.431 1002.3 183.457 1002.64 183.385C1002.97 183.312 1003.25 183.153 1003.47 182.906C1003.71 182.655 1003.9 182.323 1004.05 181.911L1005.89 182.381ZM1008.15 186.483L1006.37 186.028L1009.09 175.397L1010.87 175.851L1008.15 186.483ZM1008.31 182.263C1008.5 181.562 1008.78 180.971 1009.16 180.488C1009.54 180.006 1009.99 179.663 1010.5 179.46C1011.02 179.259 1011.57 179.232 1012.15 179.381C1012.65 179.507 1013.05 179.711 1013.37 179.994C1013.69 180.273 1013.9 180.646 1014 181.113C1014.09 181.58 1014.05 182.16 1013.88 182.852L1012.65 187.635L1010.88 187.18L1012.1 182.383C1012.19 182.037 1012.21 181.752 1012.16 181.528C1012.11 181.3 1012.01 181.117 1011.83 180.98C1011.67 180.844 1011.45 180.741 1011.17 180.67C1010.87 180.594 1010.6 180.584 1010.36 180.64C1010.11 180.695 1009.89 180.803 1009.69 180.963C1009.5 181.125 1009.33 181.328 1009.19 181.572C1009.05 181.818 1008.95 182.093 1008.87 182.397L1008.31 182.263ZM1019.75 184.067C1019.85 183.688 1019.82 183.362 1019.67 183.087C1019.53 182.809 1019.24 182.616 1018.82 182.507C1018.56 182.443 1018.33 182.43 1018.12 182.469C1017.91 182.505 1017.74 182.584 1017.6 182.705C1017.46 182.827 1017.37 182.985 1017.32 183.179L1015.55 182.726C1015.65 182.315 1015.88 181.967 1016.22 181.681C1016.57 181.392 1017 181.198 1017.53 181.101C1018.05 181.003 1018.62 181.035 1019.26 181.196C1019.82 181.342 1020.3 181.567 1020.69 181.873C1021.09 182.175 1021.36 182.551 1021.52 182.998C1021.67 183.446 1021.68 183.959 1021.53 184.535L1020.69 187.816C1020.6 188.181 1020.54 188.503 1020.52 188.784C1020.51 189.06 1020.52 189.309 1020.56 189.531L1020.53 189.648L1018.72 189.187C1018.68 188.98 1018.68 188.725 1018.71 188.422C1018.74 188.121 1018.79 187.83 1018.86 187.548L1019.75 184.067ZM1019.61 185.703L1018.46 185.41C1017.87 185.259 1017.4 185.258 1017.04 185.409C1016.69 185.555 1016.47 185.812 1016.37 186.182C1016.3 186.468 1016.34 186.73 1016.48 186.969C1016.63 187.209 1016.88 187.374 1017.24 187.465C1017.57 187.55 1017.88 187.557 1018.16 187.485C1018.44 187.414 1018.67 187.302 1018.86 187.148C1019.04 186.989 1019.16 186.825 1019.21 186.656L1019.55 187.585C1019.45 187.754 1019.3 187.928 1019.12 188.107C1018.94 188.287 1018.71 188.444 1018.45 188.579C1018.2 188.715 1017.91 188.806 1017.59 188.851C1017.26 188.897 1016.91 188.871 1016.53 188.773C1016.05 188.649 1015.63 188.441 1015.3 188.148C1014.96 187.856 1014.73 187.513 1014.59 187.12C1014.46 186.723 1014.45 186.312 1014.56 185.888C1014.76 185.094 1015.22 184.561 1015.91 184.287C1016.62 184.01 1017.52 184.013 1018.63 184.295L1019.89 184.617L1019.61 185.703ZM1027.02 184.722L1022.75 183.63L1023.08 182.322L1027.35 183.414L1027.02 184.722ZM1026.51 181.244L1024.67 188.421C1024.61 188.647 1024.6 188.829 1024.64 188.965C1024.67 189.097 1024.74 189.198 1024.85 189.269C1024.96 189.342 1025.09 189.398 1025.25 189.44C1025.37 189.469 1025.48 189.491 1025.59 189.504C1025.7 189.517 1025.79 189.525 1025.85 189.526L1025.5 190.89C1025.35 190.899 1025.17 190.896 1024.98 190.882C1024.79 190.867 1024.57 190.828 1024.32 190.765C1023.93 190.665 1023.6 190.507 1023.33 190.291C1023.06 190.07 1022.88 189.781 1022.79 189.423C1022.71 189.067 1022.73 188.628 1022.86 188.107L1024.74 180.791L1026.51 181.244ZM1029.47 192.08C1028.78 191.905 1028.23 191.634 1027.82 191.268C1027.41 190.898 1027.13 190.491 1026.99 190.045C1026.84 189.601 1026.82 189.175 1026.93 188.769L1028.63 189.205C1028.58 189.496 1028.6 189.749 1028.69 189.966C1028.8 190.179 1028.95 190.353 1029.15 190.488C1029.36 190.624 1029.58 190.724 1029.83 190.786C1030.11 190.859 1030.36 190.884 1030.57 190.859C1030.79 190.831 1030.96 190.764 1031.09 190.659C1031.23 190.552 1031.32 190.41 1031.36 190.235C1031.4 190.078 1031.4 189.926 1031.34 189.781C1031.3 189.636 1031.17 189.481 1030.97 189.316C1030.77 189.152 1030.46 188.967 1030.04 188.762C1029.54 188.517 1029.12 188.25 1028.76 187.963C1028.41 187.676 1028.15 187.357 1028 187.008C1027.85 186.655 1027.83 186.268 1027.93 185.848C1028.04 185.438 1028.25 185.089 1028.58 184.803C1028.9 184.518 1029.31 184.327 1029.8 184.231C1030.29 184.131 1030.84 184.158 1031.44 184.311C1032.07 184.473 1032.58 184.717 1032.98 185.045C1033.39 185.37 1033.66 185.743 1033.82 186.166C1033.97 186.583 1033.99 187.021 1033.87 187.478L1032.1 187.024C1032.18 186.729 1032.13 186.448 1031.98 186.182C1031.82 185.911 1031.53 185.72 1031.1 185.61C1030.84 185.544 1030.61 185.53 1030.41 185.567C1030.21 185.604 1030.05 185.68 1029.92 185.796C1029.8 185.908 1029.72 186.044 1029.68 186.206C1029.64 186.363 1029.65 186.512 1029.7 186.655C1029.77 186.794 1029.89 186.937 1030.09 187.085C1030.28 187.228 1030.56 187.391 1030.93 187.573C1031.46 187.832 1031.91 188.107 1032.28 188.398C1032.65 188.685 1032.92 189.008 1033.07 189.365C1033.22 189.72 1033.24 190.13 1033.12 190.596C1033.01 191.034 1032.78 191.394 1032.44 191.675C1032.1 191.953 1031.68 192.13 1031.17 192.205C1030.66 192.281 1030.09 192.24 1029.47 192.08Z" fill="#7A1600"/>
<path d="M1004 235.903C1003.64 237.298 1002.74 238.494 1001.51 239.229C1000.27 239.963 998.788 240.175 997.393 239.818L966.585 231.941C966.105 231.819 965.597 231.891 965.172 232.144L956.5 237.284C955.071 238.131 953.331 236.828 953.743 235.219L963.386 197.503C963.742 196.108 964.639 194.912 965.877 194.178C967.116 193.444 968.595 193.232 969.99 193.588L1006.81 203.002C1008.2 203.358 1009.4 204.254 1010.13 205.493C1010.87 206.731 1011.08 208.211 1010.72 209.606L1004 235.903Z" fill="#7A1600"/>
<path d="M926.305 189.36C925.948 190.755 926.16 192.235 926.895 193.473C927.629 194.712 928.825 195.608 930.22 195.964L961.029 203.842C961.508 203.964 961.918 204.272 962.171 204.697L967.311 213.37C968.158 214.798 970.31 214.49 970.721 212.881L980.364 175.165C980.721 173.77 980.509 172.291 979.775 171.052C979.04 169.814 977.844 168.918 976.449 168.561L939.633 159.148C938.238 158.791 936.758 159.003 935.52 159.737C934.281 160.472 933.385 161.668 933.029 163.063L926.305 189.36Z" fill="#FE7D63"/>
<mask id="mask0_429_4189" style="mask-type:alpha" maskUnits="userSpaceOnUse" x="967" y="201" width="33" height="32">
<rect x="974.32" y="201.166" width="25.9044" height="25.9044" transform="rotate(15.277 974.32 201.166)" fill="#D9D9D9"/>
</mask>
<g mask="url(#mask0_429_4189)">
<path d="M982.304 221.248C981.477 221.022 980.975 220.163 981.275 219.36C981.515 218.722 981.76 218.238 982.013 217.909C982.433 217.362 983.15 216.835 984.165 216.329C985.047 215.899 985.737 215.505 986.236 215.147C986.734 214.789 987.064 214.315 987.226 213.725C987.42 213.013 987.342 212.358 986.993 211.759C986.644 211.16 986.044 210.745 985.194 210.513C984.309 210.271 983.563 210.356 982.956 210.768C982.855 210.837 982.758 210.907 982.665 210.978C981.963 211.511 980.944 211.676 980.254 211.128C979.637 210.639 979.484 209.742 980.053 209.198C980.588 208.686 981.223 208.26 981.957 207.922C983.152 207.372 984.487 207.298 985.962 207.701C987.784 208.199 989.046 209.089 989.75 210.372C990.453 211.655 990.61 213.008 990.221 214.431C989.984 215.299 989.595 215.99 989.054 216.504C988.513 217.018 987.736 217.557 986.725 218.12C985.651 218.703 984.966 219.182 984.667 219.558C984.544 219.713 984.422 219.924 984.302 220.19C983.949 220.971 983.13 221.473 982.304 221.248ZM980.558 227.484C979.986 227.328 979.551 226.99 979.255 226.471C978.958 225.952 978.888 225.406 979.045 224.833C979.201 224.26 979.539 223.826 980.058 223.529C980.577 223.233 981.123 223.163 981.696 223.319C982.268 223.476 982.703 223.814 982.999 224.333C983.296 224.852 983.366 225.398 983.209 225.971C983.053 226.543 982.715 226.978 982.196 227.274C981.677 227.571 981.131 227.641 980.558 227.484Z" fill="#FEFFC7"/>
</g>
<path d="M941.822 170.737L968.436 177.951" stroke="#FEFFC7" stroke-width="3.35587" stroke-linecap="round"/>
<path d="M939.627 178.302L966.241 185.515" stroke="#FEFFC7" stroke-width="3.35587" stroke-linecap="round"/>
<path d="M937.461 185.686L948.712 188.735" stroke="#FEFFC7" stroke-width="3.35587" stroke-linecap="round"/>
</g>
<defs>
<clipPath id="clip0_429_4189">
<rect width="1300" height="408" fill="white" transform="translate(0.5 0.806641)"/>
</clipPath>
</defs>
</svg>
