<svg width="24" height="24" viewBox="0 0 24 24" fill="none" xmlns="http://www.w3.org/2000/svg">
<path d="M0 8.05C0 5.20255 0 3.77882 0.562933 2.69513C1.03731 1.78191 1.78191 1.03731 2.69513 0.562933C3.77882 0 5.20255 0 8.05 0H15.95C18.7975 0 20.2212 0 21.3049 0.562933C22.2181 1.03731 22.9627 1.78191 23.4371 2.69513C24 3.77882 24 5.20255 24 8.05V15.95C24 18.7975 24 20.2212 23.4371 21.3049C22.9627 22.2181 22.2181 22.9627 21.3049 23.4371C20.2212 24 18.7975 24 15.95 24H8.05C5.20255 24 3.77882 24 2.69513 23.4371C1.78191 22.9627 1.03731 22.2181 0.562933 21.3049C0 20.2212 0 18.7975 0 15.95V8.05Z" fill="#1265BF"/>
<path d="M5.38668 7.45305C6.53654 7.45305 7.46868 6.52091 7.46868 5.37106C7.46868 4.2212 6.53654 3.28906 5.38668 3.28906C4.23683 3.28906 3.30469 4.2212 3.30469 5.37106C3.30469 6.52091 4.23683 7.45305 5.38668 7.45305Z" fill="white"/>
<path d="M9.37543 8.99171H12.826V10.5724C12.826 10.5724 13.7623 8.69972 16.31 8.69972C18.5826 8.69972 20.4653 9.81927 20.4653 13.2318V20.4277H16.8895V14.1037C16.8895 12.0907 15.8148 11.8693 14.9959 11.8693C13.2963 11.8693 13.0053 13.3353 13.0053 14.3663V20.4277H9.37543V8.99171Z" fill="white"/>
<path d="M3.57176 8.99171H7.20161V20.4277H3.57176V8.99171Z" fill="white"/>
</svg>
