<svg width="303" height="469" viewBox="0 0 303 469" fill="none" xmlns="http://www.w3.org/2000/svg">
<g clip-path="url(#clip0_1007_3567)">
<circle cx="151.499" cy="224.953" r="91.005" stroke="#FFE0CF" stroke-opacity="0.4" stroke-width="4"/>
<circle cx="151.498" cy="224.953" r="149.293" stroke="#FFE0CF" stroke-opacity="0.4" stroke-width="4"/>
<circle cx="151.498" cy="224.953" r="221.414" stroke="#FFE0CF" stroke-opacity="0.4" stroke-width="4"/>
<circle cx="151.497" cy="224.953" r="331.331" stroke="#FFE0CF" stroke-opacity="0.4" stroke-width="4"/>
<circle cx="151.499" cy="224.953" r="468.407" stroke="#FFE0CF" stroke-opacity="0.4" stroke-width="4"/>
<rect x="-88.7949" y="74.9892" width="89" height="40" rx="20" fill="#FFE0CF"/>
<path d="M84.1895 112.41C84.1895 107.787 87.9375 104.039 92.5609 104.039H204.027C208.65 104.039 212.398 107.787 212.398 112.41V323.594C212.398 328.218 208.65 331.966 204.027 331.966H92.5609C87.9375 331.966 84.1895 328.218 84.1895 323.594V112.41Z" fill="#FE6533"/>
<rect x="131.547" y="305.797" width="33.4928" height="10.091" rx="5.04548" fill="#FFF2E2"/>
<rect x="143.248" y="112.852" width="10.091" height="10.091" rx="5.04548" fill="#FFF2E2"/>
<path d="M119.471 184.85C119.471 178.775 124.396 173.85 130.471 173.85H232.99C239.065 173.85 243.99 178.775 243.99 184.85V215.935H130.471C124.396 215.935 119.471 211.01 119.471 204.935V184.85Z" fill="#FFE0CF"/>
<path d="M135.814 189.473H210.717" stroke="#FE6533" stroke-width="4" stroke-linecap="round"/>
<path d="M135.814 202.341H171.161" stroke="#FE6533" stroke-width="4" stroke-linecap="round"/>
<path d="M243.99 233.042C243.99 226.967 239.065 222.042 232.99 222.042H130.471C124.396 222.042 119.471 226.967 119.471 233.042V250.935H232.99C239.065 250.935 243.99 246.011 243.99 239.935V233.042Z" fill="#7A1600"/>
<path d="M135.814 236.757H176.718" stroke="#FE6533" stroke-width="4" stroke-linecap="round"/>
<path d="M100.88 360.109C100.375 360.109 99.8799 360.042 99.3941 359.908C98.9083 359.77 98.4654 359.563 98.0653 359.287C97.67 359.011 97.3533 358.665 97.1151 358.251C96.8818 357.832 96.7651 357.339 96.7651 356.772H98.6725C98.6725 357.101 98.7273 357.382 98.8368 357.615C98.9512 357.844 99.1083 358.032 99.3084 358.18C99.5084 358.327 99.7418 358.434 100.008 358.501C100.275 358.568 100.566 358.601 100.88 358.601C101.29 358.601 101.628 358.544 101.894 358.43C102.161 358.315 102.361 358.158 102.495 357.958C102.633 357.758 102.702 357.527 102.702 357.265C102.702 356.994 102.645 356.763 102.53 356.572C102.416 356.377 102.202 356.196 101.887 356.029C101.578 355.858 101.125 355.682 100.53 355.501C100.044 355.353 99.5917 355.184 99.1726 354.993C98.7583 354.803 98.3939 354.581 98.0796 354.329C97.7652 354.077 97.52 353.786 97.3437 353.457C97.1723 353.124 97.0866 352.738 97.0866 352.3C97.0866 351.733 97.2437 351.233 97.5581 350.8C97.8772 350.366 98.3177 350.028 98.8797 349.785C99.4417 349.543 100.089 349.421 100.823 349.421C101.604 349.421 102.276 349.564 102.838 349.85C103.404 350.131 103.84 350.512 104.145 350.993C104.45 351.474 104.602 352.012 104.602 352.607H102.695C102.695 352.283 102.626 351.995 102.487 351.743C102.354 351.49 102.147 351.295 101.866 351.157C101.59 351.014 101.235 350.943 100.801 350.943C100.397 350.943 100.058 351.002 99.787 351.121C99.5203 351.24 99.3203 351.402 99.1869 351.607C99.0583 351.812 98.994 352.043 98.994 352.3C98.994 352.553 99.0726 352.774 99.2298 352.964C99.3917 353.155 99.6346 353.329 99.9585 353.486C100.282 353.638 100.685 353.788 101.166 353.936C101.937 354.16 102.578 354.424 103.088 354.729C103.597 355.029 103.978 355.386 104.231 355.801C104.483 356.21 104.609 356.694 104.609 357.251C104.609 357.841 104.454 358.351 104.145 358.78C103.84 359.208 103.409 359.537 102.852 359.766C102.295 359.994 101.637 360.109 100.88 360.109ZM107.81 359.966H105.974V348.992H107.81V359.966ZM106.924 355.836C106.929 355.112 107.055 354.47 107.303 353.908C107.555 353.346 107.905 352.903 108.353 352.579C108.805 352.255 109.331 352.093 109.932 352.093C110.441 352.093 110.884 352.191 111.26 352.386C111.641 352.576 111.937 352.886 112.146 353.315C112.356 353.743 112.461 354.315 112.461 355.029V359.966H110.624V355.015C110.624 354.658 110.572 354.377 110.467 354.172C110.367 353.962 110.217 353.812 110.017 353.722C109.822 353.631 109.581 353.586 109.296 353.586C108.991 353.586 108.727 353.643 108.503 353.757C108.279 353.872 108.091 354.031 107.938 354.236C107.791 354.441 107.679 354.679 107.603 354.951C107.531 355.222 107.495 355.515 107.495 355.829L106.924 355.836ZM115.197 349.257C115.521 349.257 115.775 349.35 115.961 349.535C116.147 349.716 116.24 349.945 116.24 350.221C116.24 350.497 116.147 350.728 115.961 350.914C115.775 351.095 115.521 351.186 115.197 351.186C114.873 351.186 114.618 351.095 114.432 350.914C114.251 350.728 114.161 350.497 114.161 350.221C114.161 349.945 114.251 349.716 114.432 349.535C114.618 349.35 114.873 349.257 115.197 349.257ZM116.118 359.966H114.282V352.236H116.118V359.966ZM121.805 360.109C121.319 360.109 120.898 360.018 120.54 359.837C120.183 359.651 119.881 359.392 119.633 359.058C119.39 358.725 119.195 358.334 119.047 357.887C118.9 357.434 118.792 356.941 118.726 356.408V355.908C118.812 355.155 118.973 354.493 119.212 353.922C119.45 353.35 119.778 352.903 120.197 352.579C120.621 352.255 121.152 352.093 121.791 352.093C122.443 352.093 122.993 352.257 123.441 352.586C123.889 352.914 124.227 353.374 124.455 353.965C124.689 354.55 124.805 355.236 124.805 356.022V356.172C124.805 356.925 124.689 357.599 124.455 358.194C124.227 358.784 123.889 359.251 123.441 359.594C122.998 359.937 122.453 360.109 121.805 360.109ZM117.983 362.938V352.236H119.669L119.812 353.722V362.938H117.983ZM121.305 358.637C121.705 358.637 122.026 358.525 122.269 358.301C122.517 358.077 122.696 357.78 122.805 357.408C122.919 357.032 122.977 356.62 122.977 356.172V356.022C122.977 355.565 122.919 355.153 122.805 354.786C122.691 354.419 122.51 354.129 122.262 353.915C122.014 353.696 121.691 353.586 121.291 353.586C120.995 353.586 120.743 353.634 120.533 353.729C120.324 353.824 120.147 353.96 120.005 354.136C119.866 354.308 119.757 354.515 119.676 354.758C119.6 354.996 119.547 355.26 119.519 355.551V356.765C119.571 357.113 119.662 357.43 119.79 357.715C119.919 357.996 120.105 358.22 120.348 358.387C120.595 358.554 120.914 358.637 121.305 358.637ZM128.042 359.966H126.206V352.236H127.934L128.042 353.815V359.966ZM127.149 355.836C127.149 355.112 127.263 354.47 127.492 353.908C127.725 353.346 128.07 352.903 128.527 352.579C128.985 352.255 129.551 352.093 130.228 352.093C130.928 352.093 131.502 352.305 131.949 352.729C132.397 353.153 132.621 353.848 132.621 354.815V359.966H130.792V354.993C130.792 354.636 130.737 354.355 130.628 354.15C130.523 353.946 130.371 353.8 130.171 353.715C129.971 353.629 129.735 353.586 129.463 353.586C129.158 353.586 128.897 353.643 128.677 353.757C128.463 353.872 128.287 354.031 128.149 354.236C128.011 354.441 127.908 354.679 127.842 354.951C127.78 355.222 127.749 355.515 127.749 355.829L127.149 355.836ZM131.678 355.608C131.678 354.965 131.792 354.377 132.021 353.843C132.249 353.31 132.588 352.886 133.035 352.572C133.483 352.252 134.035 352.093 134.693 352.093C135.212 352.093 135.66 352.191 136.036 352.386C136.412 352.576 136.7 352.884 136.9 353.307C137.105 353.731 137.207 354.291 137.207 354.986V359.966H135.371V354.979C135.371 354.608 135.317 354.322 135.207 354.122C135.102 353.922 134.95 353.784 134.75 353.707C134.555 353.627 134.324 353.586 134.057 353.586C133.795 353.586 133.566 353.634 133.371 353.729C133.181 353.824 133.019 353.958 132.885 354.129C132.757 354.296 132.659 354.493 132.592 354.722C132.526 354.946 132.492 355.189 132.492 355.451L131.678 355.608ZM140.729 359.966H138.901V352.236H140.622L140.729 353.886V359.966ZM139.851 355.836C139.855 355.084 139.984 354.429 140.236 353.872C140.494 353.31 140.853 352.874 141.315 352.564C141.777 352.25 142.315 352.093 142.93 352.093C143.425 352.093 143.856 352.188 144.223 352.379C144.59 352.564 144.873 352.869 145.073 353.293C145.278 353.717 145.38 354.286 145.38 355.001V359.966H143.544V354.986C143.544 354.634 143.494 354.355 143.394 354.15C143.294 353.946 143.144 353.8 142.944 353.715C142.749 353.629 142.508 353.586 142.222 353.586C141.932 353.586 141.675 353.643 141.451 353.757C141.232 353.872 141.044 354.031 140.887 354.236C140.734 354.441 140.617 354.679 140.537 354.951C140.46 355.222 140.422 355.515 140.422 355.829L139.851 355.836ZM150.702 353.586H146.295V352.236H150.702V353.586ZM149.345 350.343V357.751C149.345 357.984 149.378 358.163 149.445 358.287C149.512 358.406 149.605 358.487 149.724 358.53C149.848 358.573 149.993 358.594 150.16 358.594C150.279 358.594 150.393 358.587 150.502 358.573C150.612 358.558 150.698 358.544 150.76 358.53V359.937C150.612 359.985 150.443 360.025 150.252 360.059C150.062 360.092 149.84 360.109 149.588 360.109C149.183 360.109 148.824 360.037 148.509 359.894C148.195 359.747 147.95 359.511 147.773 359.187C147.602 358.863 147.516 358.432 147.516 357.894V350.343H149.345ZM154.896 360.109C154.186 360.109 153.586 359.982 153.096 359.73C152.61 359.473 152.241 359.146 151.988 358.751C151.741 358.356 151.617 357.949 151.617 357.53H153.374C153.393 357.825 153.477 358.065 153.624 358.251C153.777 358.432 153.967 358.563 154.196 358.644C154.429 358.725 154.672 358.765 154.925 358.765C155.22 358.765 155.468 358.727 155.668 358.651C155.868 358.57 156.018 358.463 156.118 358.33C156.222 358.192 156.275 358.032 156.275 357.851C156.275 357.689 156.232 357.544 156.146 357.415C156.065 357.287 155.906 357.168 155.668 357.058C155.434 356.948 155.089 356.846 154.632 356.751C154.089 356.637 153.61 356.484 153.196 356.294C152.781 356.103 152.455 355.858 152.217 355.558C151.984 355.253 151.867 354.884 151.867 354.45C151.867 354.027 151.988 353.636 152.231 353.279C152.474 352.922 152.822 352.636 153.274 352.422C153.727 352.202 154.263 352.093 154.882 352.093C155.534 352.093 156.094 352.202 156.561 352.422C157.032 352.636 157.394 352.929 157.646 353.3C157.899 353.667 158.025 354.086 158.025 354.558H156.196C156.196 354.253 156.087 353.991 155.868 353.772C155.649 353.548 155.317 353.436 154.875 353.436C154.608 353.436 154.382 353.479 154.196 353.565C154.01 353.65 153.872 353.765 153.782 353.908C153.691 354.046 153.646 354.198 153.646 354.365C153.646 354.527 153.691 354.67 153.782 354.793C153.877 354.912 154.036 355.02 154.26 355.115C154.484 355.205 154.796 355.293 155.196 355.379C155.777 355.498 156.282 355.653 156.711 355.844C157.144 356.029 157.477 356.277 157.711 356.587C157.949 356.891 158.068 357.284 158.068 357.765C158.068 358.218 157.937 358.623 157.675 358.98C157.418 359.332 157.051 359.608 156.575 359.808C156.099 360.009 155.539 360.109 154.896 360.109ZM171.334 356.551C171.282 357.237 171.091 357.849 170.763 358.387C170.434 358.925 169.975 359.346 169.384 359.651C168.794 359.956 168.074 360.109 167.227 360.109C166.365 360.109 165.617 359.908 164.983 359.508C164.35 359.104 163.862 358.53 163.519 357.787C163.176 357.044 163.004 356.17 163.004 355.165V354.372C163.004 353.362 163.178 352.488 163.526 351.75C163.878 351.007 164.376 350.433 165.019 350.028C165.662 349.623 166.417 349.421 167.284 349.421C168.127 349.421 168.836 349.576 169.413 349.885C169.994 350.19 170.444 350.616 170.763 351.164C171.082 351.707 171.275 352.329 171.342 353.029H169.441C169.375 352.376 169.182 351.871 168.863 351.514C168.548 351.152 168.022 350.971 167.284 350.971C166.765 350.971 166.329 351.1 165.976 351.357C165.629 351.614 165.367 351.995 165.191 352.5C165.014 353 164.926 353.619 164.926 354.358V355.165C164.926 355.87 165.005 356.477 165.162 356.987C165.319 357.491 165.567 357.88 165.905 358.151C166.243 358.423 166.684 358.558 167.227 358.558C167.722 358.558 168.122 358.482 168.427 358.33C168.732 358.177 168.963 357.953 169.12 357.658C169.282 357.358 169.386 356.989 169.434 356.551H171.334ZM174.535 359.966H172.699V348.992H174.535V359.966ZM173.649 355.836C173.654 355.112 173.78 354.47 174.028 353.908C174.28 353.346 174.63 352.903 175.078 352.579C175.53 352.255 176.057 352.093 176.657 352.093C177.166 352.093 177.609 352.191 177.985 352.386C178.366 352.576 178.662 352.886 178.871 353.315C179.081 353.743 179.186 354.315 179.186 355.029V359.966H177.35V355.015C177.35 354.658 177.297 354.377 177.192 354.172C177.092 353.962 176.942 353.812 176.742 353.722C176.547 353.631 176.307 353.586 176.021 353.586C175.716 353.586 175.452 353.643 175.228 353.757C175.004 353.872 174.816 354.031 174.664 354.236C174.516 354.441 174.404 354.679 174.328 354.951C174.256 355.222 174.221 355.515 174.221 355.829L173.649 355.836ZM185.18 354.751C185.18 354.36 185.072 354.05 184.858 353.822C184.648 353.588 184.325 353.472 183.886 353.472C183.624 353.472 183.396 353.517 183.201 353.607C183.01 353.693 182.862 353.812 182.758 353.965C182.653 354.117 182.601 354.293 182.601 354.493H180.772C180.772 354.069 180.903 353.677 181.165 353.315C181.431 352.948 181.805 352.653 182.286 352.429C182.767 352.205 183.334 352.093 183.986 352.093C184.572 352.093 185.091 352.193 185.544 352.393C186.001 352.588 186.361 352.884 186.623 353.279C186.885 353.674 187.016 354.169 187.016 354.765V358.151C187.016 358.527 187.042 358.854 187.094 359.13C187.146 359.401 187.22 359.639 187.316 359.844V359.966H185.451C185.36 359.775 185.291 359.53 185.244 359.23C185.201 358.93 185.18 358.634 185.18 358.344V354.751ZM185.444 356.372H184.258C183.648 356.372 183.191 356.489 182.886 356.722C182.581 356.951 182.429 357.256 182.429 357.637C182.429 357.932 182.529 358.177 182.729 358.373C182.934 358.568 183.22 358.665 183.586 358.665C183.929 358.665 184.227 358.596 184.479 358.458C184.732 358.32 184.929 358.153 185.072 357.958C185.215 357.758 185.289 357.57 185.294 357.394L185.858 358.208C185.796 358.399 185.699 358.604 185.565 358.823C185.432 359.042 185.256 359.249 185.037 359.444C184.822 359.639 184.565 359.799 184.265 359.923C183.965 360.047 183.617 360.109 183.222 360.109C182.722 360.109 182.272 360.009 181.872 359.808C181.477 359.608 181.165 359.335 180.936 358.987C180.712 358.634 180.6 358.239 180.6 357.801C180.6 356.982 180.905 356.353 181.515 355.915C182.129 355.472 183.005 355.251 184.144 355.251H185.444V356.372ZM192.381 353.586H187.973V352.236H192.381V353.586ZM191.023 350.343V357.751C191.023 357.984 191.057 358.163 191.123 358.287C191.19 358.406 191.283 358.487 191.402 358.53C191.526 358.573 191.671 358.594 191.838 358.594C191.957 358.594 192.071 358.587 192.181 358.573C192.29 358.558 192.376 358.544 192.438 358.53V359.937C192.29 359.985 192.121 360.025 191.931 360.059C191.74 360.092 191.519 360.109 191.266 360.109C190.861 360.109 190.502 360.037 190.187 359.894C189.873 359.747 189.628 359.511 189.452 359.187C189.28 358.863 189.194 358.432 189.194 357.894V350.343H191.023ZM196.574 360.109C195.865 360.109 195.264 359.982 194.774 359.73C194.288 359.473 193.919 359.146 193.667 358.751C193.419 358.356 193.295 357.949 193.295 357.53H195.053C195.072 357.825 195.155 358.065 195.303 358.251C195.455 358.432 195.646 358.563 195.874 358.644C196.107 358.725 196.35 358.765 196.603 358.765C196.898 358.765 197.146 358.727 197.346 358.651C197.546 358.57 197.696 358.463 197.796 358.33C197.901 358.192 197.953 358.032 197.953 357.851C197.953 357.689 197.91 357.544 197.824 357.415C197.743 357.287 197.584 357.168 197.346 357.058C197.112 356.948 196.767 356.846 196.31 356.751C195.767 356.637 195.288 356.484 194.874 356.294C194.46 356.103 194.133 355.858 193.895 355.558C193.662 355.253 193.545 354.884 193.545 354.45C193.545 354.027 193.667 353.636 193.91 353.279C194.152 352.922 194.5 352.636 194.953 352.422C195.405 352.202 195.941 352.093 196.56 352.093C197.212 352.093 197.772 352.202 198.239 352.422C198.71 352.636 199.072 352.929 199.325 353.3C199.577 353.667 199.703 354.086 199.703 354.558H197.874C197.874 354.253 197.765 353.991 197.546 353.772C197.327 353.548 196.996 353.436 196.553 353.436C196.286 353.436 196.06 353.479 195.874 353.565C195.688 353.65 195.55 353.765 195.46 353.908C195.369 354.046 195.324 354.198 195.324 354.365C195.324 354.527 195.369 354.67 195.46 354.793C195.555 354.912 195.715 355.02 195.938 355.115C196.162 355.205 196.474 355.293 196.874 355.379C197.455 355.498 197.96 355.653 198.389 355.844C198.822 356.029 199.156 356.277 199.389 356.587C199.627 356.891 199.746 357.284 199.746 357.765C199.746 358.218 199.615 358.623 199.353 358.98C199.096 359.332 198.729 359.608 198.253 359.808C197.777 360.009 197.217 360.109 196.574 360.109Z" fill="#7A1600"/>
</g>
<defs>
<clipPath id="clip0_1007_3567">
<rect width="303" height="468" fill="white" transform="translate(0 0.952759)"/>
</clipPath>
</defs>
</svg>
