<svg width="303" height="469" viewBox="0 0 303 469" fill="none" xmlns="http://www.w3.org/2000/svg">
<g clip-path="url(#clip0_1007_3818)">
<g clip-path="url(#clip1_1007_3818)">
<path d="M454.445 300.659C454.445 310.809 446.703 320.987 431.415 330.628C416.226 340.207 394.115 348.907 366.614 356.242C311.641 370.905 235.586 379.998 151.5 379.998C67.4141 379.998 -8.64084 370.905 -63.6134 356.242C-91.1144 348.907 -113.226 340.207 -128.414 330.628C-143.703 320.987 -151.445 310.809 -151.445 300.659C-151.445 290.509 -143.703 280.331 -128.414 270.69C-113.226 261.111 -91.1144 252.411 -63.6134 245.076C-8.64084 230.413 67.4141 221.32 151.5 221.32C235.586 221.32 311.641 230.413 366.614 245.076C394.115 252.411 416.226 261.111 431.415 270.69C446.703 280.331 454.445 290.509 454.445 300.659Z" stroke="#FFE0CF" stroke-width="4"/>
<path d="M628.015 300.659C628.015 317.202 615.416 333.469 591.344 348.65C567.372 363.767 532.551 377.455 489.345 388.98C402.961 412.021 283.513 426.296 151.496 426.296C19.4787 426.296 -99.9697 412.021 -186.353 388.98C-229.559 377.455 -264.38 363.767 -288.352 348.65C-312.424 333.469 -325.023 317.202 -325.023 300.659C-325.023 284.117 -312.424 267.849 -288.352 252.669C-264.38 237.551 -229.559 223.863 -186.353 212.338C-99.9697 189.297 19.4787 175.022 151.496 175.022C283.513 175.022 402.961 189.297 489.345 212.338C532.551 223.863 567.372 237.551 591.344 252.669C615.416 267.849 628.015 284.117 628.015 300.659Z" stroke="#FFE0CF" stroke-width="4"/>
<path d="M921.554 300.659C921.554 328.012 900.74 354.578 861.815 379.126C822.989 403.611 766.674 425.735 696.908 444.344C557.404 481.554 364.571 504.593 151.496 504.593C-61.5801 504.593 -254.413 481.554 -393.916 444.344C-463.683 425.735 -519.998 403.611 -558.824 379.126C-597.749 354.578 -618.562 328.012 -618.562 300.659C-618.562 273.306 -597.749 246.74 -558.824 222.192C-519.998 197.707 -463.683 175.583 -393.916 156.974C-254.413 119.764 -61.5801 96.7253 151.496 96.7253C364.571 96.7253 557.404 119.764 696.908 156.974C766.674 175.583 822.989 197.707 861.815 222.192C900.74 246.74 921.554 273.306 921.554 300.659Z" stroke="#FFE0CF" stroke-width="4"/>
<path d="M1227.85 268.043C1227.85 285.346 1220.29 302.397 1205.57 319.054C1190.84 335.723 1169.03 351.898 1140.77 367.37C1084.25 398.312 1002.34 426.24 900.947 449.719C698.198 496.67 418.002 525.728 108.437 525.728C-201.129 525.728 -481.324 496.67 -684.074 449.719C-785.465 426.24 -867.377 398.312 -923.894 367.37C-952.153 351.898 -973.969 335.723 -988.699 319.054C-1003.42 302.397 -1010.98 285.346 -1010.98 268.043C-1010.98 250.74 -1003.42 233.688 -988.699 217.032C-973.969 200.363 -952.153 184.188 -923.894 168.716C-867.377 137.774 -785.465 109.845 -684.074 86.3665C-481.324 39.4162 -201.129 10.3582 108.437 10.3582C418.002 10.3582 698.198 39.4162 900.947 86.3665C1002.34 109.845 1084.25 137.774 1140.77 168.716C1169.03 184.188 1190.84 200.363 1205.57 217.032C1220.29 233.688 1227.85 250.74 1227.85 268.043Z" stroke="#FFE0CF" stroke-width="4"/>
<ellipse cx="150.031" cy="281.022" rx="103.906" ry="20.747" fill="#7A1600"/>
<rect x="46.125" y="266.203" width="207.811" height="14.9183" fill="#7A1600"/>
<ellipse cx="150.031" cy="266.203" rx="103.906" ry="20.747" fill="#F7DBFF"/>
<path d="M189.107 270.968H99.1289L151.262 193.02L189.107 270.968Z" fill="#FE6533"/>
<path d="M200.933 259.14L151.504 193.445L189.144 270.983L200.933 259.14Z" fill="#7A1600"/>
<rect x="19.3711" y="190.09" width="264.529" height="14.3761" transform="rotate(-3.33476 19.3711 190.09)" fill="#7A1600"/>
<path d="M31.4144 178.668L269.568 164.372L283.452 174.713L19.3724 190.273L31.4144 178.668Z" fill="#FE6533"/>
<path d="M79.3203 135.697L97.8557 134.636M79.7757 143.653L98.311 142.593M94.0894 163.591L80.231 151.61L84.8648 151.345C95.1621 150.756 94.2514 134.842 83.9541 135.432" stroke="#7A1600" stroke-width="3" stroke-linecap="round" stroke-linejoin="round"/>
<path d="M197.171 159.92C195.431 160.02 193.864 159.86 192.469 159.442C191.071 158.992 189.856 158.173 188.822 156.985C187.786 155.767 186.959 154.116 186.341 152.032C185.721 149.917 185.319 147.244 185.134 144.013C184.949 140.782 185.045 138.097 185.421 135.956C185.795 133.784 186.429 132.049 187.32 130.751C188.211 129.422 189.325 128.47 190.663 127.895C192 127.289 193.538 126.936 195.278 126.836C197.017 126.737 198.57 126.913 199.936 127.365C201.331 127.783 202.547 128.602 203.583 129.821C204.617 131.008 205.444 132.659 206.064 134.774C206.682 136.858 207.083 139.516 207.268 142.746C207.453 145.977 207.358 148.678 206.984 150.85C206.607 152.991 205.974 154.726 205.084 156.055C204.192 157.353 203.078 158.305 201.741 158.911C200.434 159.484 198.911 159.821 197.171 159.92ZM196.974 156.472C198.744 156.371 200.085 155.842 200.997 154.886C201.939 153.928 202.546 152.554 202.818 150.762C203.12 148.968 203.196 146.751 203.045 144.11L202.922 141.967C202.769 139.295 202.44 137.085 201.935 135.338C201.459 133.557 200.698 132.245 199.653 131.401C198.638 130.555 197.246 130.183 195.475 130.285C193.704 130.386 192.348 130.915 191.405 131.873C190.463 132.831 189.84 134.207 189.538 136.001C189.266 137.793 189.207 140.024 189.36 142.696L189.48 144.793C189.631 147.433 189.944 149.644 190.42 151.424C190.927 153.203 191.704 154.514 192.749 155.358C193.795 156.202 195.203 156.574 196.974 156.472Z" fill="#7A1600"/>
<path d="M170.46 161.449C168.72 161.549 167.153 161.389 165.758 160.97C164.361 160.52 163.145 159.702 162.111 158.514C161.075 157.296 160.248 155.644 159.63 153.561C159.01 151.445 158.608 148.773 158.423 145.542C158.238 142.311 158.334 139.625 158.71 137.484C159.084 135.313 159.718 133.578 160.61 132.28C161.5 130.951 162.614 129.999 163.952 129.424C165.289 128.818 166.827 128.465 168.567 128.365C170.306 128.266 171.859 128.442 173.225 128.893C174.62 129.312 175.836 130.131 176.872 131.349C177.906 132.537 178.733 134.188 179.353 136.303C179.971 138.387 180.372 141.044 180.557 144.275C180.742 147.506 180.647 150.207 180.273 152.379C179.897 154.52 179.263 156.255 178.373 157.584C177.481 158.881 176.367 159.833 175.03 160.44C173.723 161.013 172.2 161.35 170.46 161.449ZM170.263 158.001C172.033 157.9 173.374 157.371 174.286 156.415C175.228 155.457 175.835 154.082 176.107 152.29C176.409 150.497 176.485 148.279 176.334 145.639L176.211 143.495C176.058 140.824 175.729 138.614 175.224 136.867C174.748 135.086 173.988 133.774 172.942 132.93C171.927 132.084 170.535 131.712 168.764 131.813C166.993 131.915 165.637 132.444 164.694 133.402C163.752 134.36 163.129 135.736 162.827 137.529C162.555 139.321 162.496 141.553 162.649 144.225L162.769 146.322C162.92 148.962 163.233 151.173 163.709 152.953C164.216 154.732 164.993 156.043 166.038 156.887C167.084 157.731 168.492 158.102 170.263 158.001Z" fill="#7A1600"/>
<path d="M143.749 162.978C142.009 163.077 140.442 162.918 139.047 162.499C137.65 162.049 136.434 161.23 135.4 160.043C134.364 158.824 133.537 157.173 132.919 155.089C132.299 152.974 131.897 150.301 131.712 147.07C131.527 143.84 131.623 141.154 131.999 139.013C132.374 136.841 133.007 135.106 133.899 133.808C134.789 132.48 135.903 131.528 137.241 130.952C138.578 130.346 140.116 129.993 141.856 129.894C143.595 129.794 145.148 129.97 146.514 130.422C147.91 130.841 149.125 131.659 150.161 132.878C151.195 134.065 152.022 135.717 152.642 137.832C153.26 139.916 153.661 142.573 153.846 145.804C154.031 149.034 153.936 151.736 153.562 153.908C153.186 156.048 152.552 157.783 151.662 159.112C150.77 160.41 149.656 161.362 148.32 161.968C147.012 162.542 145.489 162.878 143.749 162.978ZM143.552 159.529C145.322 159.428 146.664 158.899 147.575 157.943C148.517 156.986 149.124 155.611 149.396 153.819C149.698 152.025 149.774 149.808 149.623 147.167L149.5 145.024C149.347 142.352 149.018 140.143 148.513 138.395C148.037 136.615 147.277 135.302 146.231 134.458C145.216 133.613 143.824 133.24 142.053 133.342C140.282 133.443 138.926 133.973 137.983 134.93C137.041 135.888 136.418 137.264 136.116 139.058C135.844 140.85 135.785 143.082 135.938 145.753L136.058 147.85C136.209 150.491 136.522 152.701 136.998 154.482C137.505 156.26 138.282 157.571 139.327 158.415C140.373 159.259 141.781 159.631 143.552 159.529Z" fill="#7A1600"/>
<path d="M117.47 164.481C114.984 164.624 112.866 164.371 111.115 163.723C109.362 163.044 108.01 162.031 107.061 160.683C106.111 159.335 105.581 157.697 105.471 155.771C105.451 155.437 105.707 155.15 106.042 155.131L108.977 154.963C109.312 154.944 109.599 155.2 109.618 155.534C109.728 157.46 110.418 158.901 111.688 159.857C112.988 160.78 114.725 161.179 116.899 161.055C119.074 160.93 120.802 160.364 122.085 159.355C123.366 158.316 123.946 156.756 123.827 154.674C123.74 153.152 123.316 152.008 122.555 151.241C121.795 150.474 120.831 149.968 119.664 149.723C118.526 149.445 117.32 149.343 116.046 149.416L114.415 149.509C113.463 149.564 112.647 148.836 112.593 147.884C112.538 146.932 113.266 146.116 114.218 146.061L115.989 145.96C117.169 145.892 118.246 145.644 119.219 145.214C120.191 144.784 120.949 144.133 121.491 143.261C122.063 142.355 122.309 141.219 122.231 139.852C122.16 138.61 121.823 137.616 121.219 136.872C120.646 136.125 119.883 135.592 118.93 135.273C117.975 134.922 116.938 134.779 115.82 134.843C114.578 134.914 113.472 135.196 112.502 135.687C111.531 136.148 110.775 136.815 110.233 137.687C109.721 138.558 109.502 139.63 109.575 140.904C109.594 141.238 109.339 141.525 109.004 141.544L106.255 141.702C105.792 141.728 105.395 141.374 105.368 140.911C105.267 139.14 105.628 137.561 106.453 136.174C107.308 134.785 108.507 133.672 110.049 132.836C111.621 131.998 113.448 131.519 115.53 131.4C117.58 131.283 119.4 131.506 120.991 132.069C122.613 132.631 123.91 133.523 124.884 134.745C125.858 135.967 126.398 137.51 126.505 139.374C126.583 140.741 126.401 141.92 125.959 142.911C125.515 143.872 124.907 144.686 124.135 145.353C123.385 146.002 122.571 146.551 121.692 147.001C121.644 147.025 121.616 147.075 121.619 147.127C121.622 147.186 121.664 147.236 121.722 147.25C123.417 147.657 124.865 148.468 126.066 149.684C127.29 150.923 127.963 152.599 128.084 154.711C128.192 156.606 127.804 158.265 126.919 159.686C126.065 161.107 124.806 162.238 123.14 163.082C121.503 163.892 119.613 164.359 117.47 164.481Z" fill="#7A1600"/>
<path d="M16.8485 160.972C16.3881 161.002 15.9323 160.972 15.4812 160.88C15.0297 160.783 14.6132 160.621 14.2315 160.394C13.8542 160.166 13.5443 159.87 13.3019 159.507C13.0636 159.139 12.9272 158.696 12.8927 158.179L14.6323 158.063C14.6523 158.363 14.7193 158.616 14.8334 158.822C14.9516 159.024 15.1064 159.186 15.2978 159.308C15.4892 159.431 15.7086 159.514 15.9559 159.559C16.2031 159.603 16.4701 159.616 16.7568 159.597C17.1304 159.572 17.4353 159.499 17.6715 159.379C17.9078 159.258 18.0807 159.103 18.1901 158.912C18.3039 158.721 18.3528 158.507 18.3369 158.268C18.3204 158.02 18.2542 157.813 18.1384 157.646C18.0222 157.475 17.8158 157.323 17.519 157.19C17.2262 157.053 16.8028 156.919 16.2489 156.79C15.7968 156.685 15.3739 156.559 14.9801 156.411C14.5906 156.262 14.2449 156.082 13.9428 155.871C13.6408 155.66 13.3994 155.41 13.2187 155.121C13.0421 154.827 12.9404 154.481 12.9137 154.081C12.8792 153.564 12.9921 153.099 13.2524 152.684C13.5171 152.27 13.8983 151.934 14.396 151.679C14.8938 151.423 15.4771 151.273 16.146 151.228C16.8584 151.181 17.4795 151.27 18.0094 151.496C18.5434 151.718 18.964 152.039 19.2713 152.459C19.5785 152.88 19.7503 153.361 19.7865 153.904L18.0469 154.02C18.0272 153.725 17.9467 153.466 17.8054 153.244C17.6684 153.022 17.4676 152.857 17.2029 152.748C16.9423 152.634 16.6143 152.591 16.2191 152.617C15.8499 152.642 15.5451 152.717 15.3048 152.842C15.0688 152.967 14.8962 153.127 14.7871 153.321C14.6822 153.516 14.6377 153.731 14.6533 153.965C14.6687 154.195 14.7538 154.393 14.9088 154.557C15.068 154.721 15.3001 154.864 15.6051 154.988C15.9097 155.107 16.2858 155.22 16.7335 155.325C17.4508 155.482 18.0511 155.684 18.5344 155.931C19.0174 156.174 19.3866 156.476 19.6421 156.839C19.8972 157.197 20.0417 157.63 20.0756 158.139C20.1116 158.677 20.0014 159.151 19.7452 159.561C19.4933 159.971 19.1202 160.296 18.6259 160.539C18.1316 160.781 17.5392 160.925 16.8485 160.972ZM24.4263 154.491L20.4064 154.759L20.3242 153.528L24.3442 153.26L24.4263 154.491ZM22.991 151.616L23.4419 158.372C23.4561 158.585 23.4974 158.746 23.5657 158.855C23.6338 158.959 23.7234 159.027 23.8346 159.059C23.9501 159.091 24.0839 159.101 24.2359 159.091C24.3445 159.084 24.4483 159.071 24.5474 159.051C24.6464 159.031 24.7237 159.013 24.7793 158.996L24.865 160.28C24.7332 160.332 24.5815 160.379 24.4098 160.421C24.238 160.463 24.0371 160.492 23.8069 160.507C23.4377 160.532 23.1054 160.489 22.81 160.377C22.5144 160.262 22.2763 160.062 22.0959 159.777C21.9198 159.492 21.8154 159.104 21.7827 158.614L21.3231 151.727L22.991 151.616ZM29.5922 155.213C29.5684 154.857 29.4518 154.581 29.2425 154.386C29.0371 154.185 28.7347 154.099 28.3351 154.125C28.0962 154.141 27.8904 154.197 27.7179 154.291C27.5493 154.381 27.4219 154.498 27.3357 154.644C27.2494 154.789 27.2123 154.953 27.2245 155.135L25.5566 155.247C25.5308 154.86 25.6263 154.494 25.8432 154.148C26.0641 153.797 26.3871 153.505 26.8122 153.272C27.2372 153.038 27.7473 152.902 28.3424 152.862C28.8766 152.826 29.3562 152.886 29.781 153.041C30.2098 153.191 30.5557 153.438 30.8187 153.783C31.0816 154.128 31.2312 154.571 31.2675 155.114L31.4735 158.203C31.4964 158.546 31.5402 158.842 31.6048 159.09C31.6691 159.335 31.7509 159.547 31.8502 159.728L31.8576 159.839L30.1571 159.953C30.063 159.784 29.9851 159.565 29.9234 159.294C29.866 159.023 29.8285 158.755 29.8108 158.49L29.5922 155.213ZM29.9319 156.676L28.8504 156.748C28.2944 156.785 27.8845 156.919 27.6207 157.151C27.3567 157.378 27.2362 157.665 27.2594 158.013C27.2774 158.282 27.3835 158.499 27.5778 158.665C27.7765 158.831 28.043 158.903 28.3775 158.88C28.6902 158.859 28.9575 158.778 29.1793 158.637C29.4011 158.496 29.5712 158.332 29.6896 158.145C29.8078 157.954 29.8636 157.778 29.8573 157.617L30.4215 158.325C30.3767 158.503 30.3001 158.695 30.1918 158.903C30.0835 159.111 29.9354 159.311 29.7475 159.502C29.5639 159.693 29.3391 159.855 29.073 159.986C28.8069 160.117 28.4935 160.195 28.133 160.219C27.677 160.249 27.2604 160.185 26.8834 160.027C26.5107 159.869 26.2095 159.638 25.9799 159.335C25.7543 159.027 25.6282 158.673 25.6015 158.274C25.5516 157.527 25.7914 156.935 26.3207 156.498C26.854 156.057 27.6398 155.801 28.6779 155.732L29.8637 155.653L29.9319 156.676ZM34.8481 159.64L33.1802 159.751L32.7098 152.701L34.293 152.596L34.4725 154.01L34.8481 159.64ZM36.5982 153.993C36.4972 153.982 36.3877 153.976 36.2699 153.976C36.1563 153.974 36.0453 153.977 35.9367 153.985C35.5849 154.008 35.2959 154.091 35.0698 154.232C34.8433 154.37 34.6771 154.56 34.5711 154.802C34.4692 155.04 34.4181 155.321 34.4179 155.644L34.0448 155.642C34.0051 155.047 34.0476 154.508 34.1724 154.024C34.2968 153.536 34.5042 153.144 34.7943 152.85C35.0885 152.551 35.4679 152.386 35.9327 152.355C36.0239 152.349 36.1266 152.351 36.2407 152.361C36.3545 152.367 36.4426 152.38 36.5052 152.402L36.5982 153.993ZM41.1706 153.374L37.1507 153.642L37.0685 152.41L41.0885 152.142L41.1706 153.374ZM39.7354 150.498L40.1862 157.255C40.2004 157.467 40.2417 157.628 40.31 157.737C40.3781 157.842 40.4677 157.91 40.5789 157.942C40.6944 157.973 40.8282 157.984 40.9802 157.974C41.0888 157.967 41.1926 157.953 41.2917 157.933C41.3907 157.914 41.468 157.896 41.5236 157.879L41.6093 159.162C41.4775 159.215 41.3258 159.262 41.1541 159.304C40.9824 159.346 40.7814 159.375 40.5512 159.39C40.182 159.415 39.8497 159.371 39.5543 159.26C39.2587 159.145 39.0206 158.945 38.8402 158.66C38.6641 158.375 38.5597 157.987 38.527 157.496L38.0674 150.61L39.7354 150.498ZM45.3921 159.067C44.7449 159.11 44.1899 159.032 43.7272 158.831C43.2685 158.626 42.912 158.351 42.6577 158.006C42.4078 157.661 42.2701 157.297 42.2446 156.914L43.8474 156.807C43.8827 157.076 43.9733 157.29 44.1193 157.45C44.2693 157.606 44.451 157.714 44.6644 157.774C44.8822 157.834 45.1062 157.856 45.3364 157.84C45.6057 157.822 45.8292 157.773 46.007 157.691C46.1845 157.605 46.3148 157.498 46.3979 157.37C46.4851 157.238 46.5231 157.089 46.5121 156.924C46.5023 156.776 46.4543 156.647 46.3683 156.535C46.2867 156.422 46.1339 156.323 45.9101 156.238C45.6906 156.152 45.3694 156.08 44.9467 156.021C44.4445 155.95 43.9987 155.84 43.6093 155.691C43.2198 155.543 42.9073 155.339 42.6719 155.08C42.4405 154.816 42.3116 154.486 42.2852 154.091C42.2595 153.705 42.3464 153.341 42.5462 153C42.746 152.66 43.0457 152.378 43.4453 152.155C43.8446 151.928 44.3266 151.795 44.8912 151.758C45.4863 151.718 46.0033 151.784 46.4423 151.955C46.8854 152.122 47.2333 152.367 47.4861 152.69C47.7387 153.01 47.8793 153.384 47.908 153.814L46.24 153.925C46.2215 153.647 46.1056 153.415 45.8925 153.229C45.6791 153.038 45.3704 152.956 44.9665 152.983C44.7232 152.999 44.5195 153.052 44.3553 153.142C44.1911 153.231 44.0721 153.344 43.9983 153.479C43.9242 153.611 43.8922 153.753 43.9023 153.905C43.9122 154.052 43.9622 154.18 44.0522 154.287C44.1463 154.39 44.2984 154.478 44.5083 154.551C44.718 154.62 45.0078 154.682 45.3779 154.736C45.915 154.809 46.3849 154.919 46.7874 155.067C47.194 155.21 47.5131 155.415 47.7447 155.684C47.9805 155.947 48.113 156.298 48.1422 156.737C48.1698 157.149 48.075 157.527 47.8578 157.868C47.6447 158.205 47.3271 158.48 46.9049 158.691C46.4827 158.903 45.9784 159.028 45.3921 159.067ZM56.5394 153.415C56.5157 153.059 56.3991 152.783 56.1897 152.587C55.9844 152.387 55.6819 152.301 55.2823 152.327C55.0434 152.343 54.8377 152.398 54.6651 152.493C54.4966 152.583 54.3692 152.7 54.2829 152.846C54.1966 152.991 54.1596 153.155 54.1718 153.337L52.5038 153.449C52.478 153.062 52.5736 152.696 52.7904 152.35C53.0114 151.999 53.3344 151.707 53.7594 151.473C54.1845 151.24 54.6946 151.103 55.2896 151.064C55.8239 151.028 56.3034 151.088 56.7282 151.243C57.1571 151.393 57.503 151.64 57.766 151.985C58.0289 152.329 58.1785 152.773 58.2147 153.316L58.4208 156.404C58.4437 156.748 58.4874 157.043 58.552 157.292C58.6163 157.537 58.6981 157.749 58.7975 157.93L58.8049 158.041L57.1044 158.154C57.0103 157.986 56.9324 157.767 56.8707 157.496C56.8133 157.225 56.7758 156.957 56.7581 156.692L56.5394 153.415ZM56.8792 154.878L55.7976 154.95C55.2417 154.987 54.8318 155.121 54.568 155.353C54.3039 155.58 54.1835 155.867 54.2067 156.214C54.2247 156.484 54.3308 156.701 54.5251 156.867C54.7238 157.033 54.9903 157.104 55.3248 157.082C55.6375 157.061 55.9048 156.98 56.1266 156.839C56.3484 156.698 56.5185 156.534 56.6369 156.347C56.755 156.156 56.8109 155.98 56.8045 155.819L57.3688 156.527C57.3239 156.704 57.2474 156.897 57.1391 157.105C57.0308 157.313 56.8827 157.513 56.6948 157.704C56.5112 157.895 56.2863 158.056 56.0202 158.188C55.7541 158.319 55.4408 158.396 55.0803 158.42C54.6242 158.451 54.2077 158.387 53.8307 158.229C53.458 158.071 53.1568 157.84 52.9272 157.537C52.7016 157.229 52.5754 156.875 52.5488 156.476C52.4989 155.728 52.7386 155.137 53.2679 154.7C53.8013 154.259 54.587 154.003 55.6251 153.934L56.8109 153.855L56.8792 154.878ZM63.036 151.915L59.016 152.183L58.9339 150.951L62.9538 150.683L63.036 151.915ZM61.6007 149.039L62.0515 155.796C62.0657 156.008 62.107 156.169 62.1754 156.278C62.2434 156.383 62.333 156.451 62.4442 156.483C62.5598 156.514 62.6936 156.525 62.8456 156.515C62.9542 156.508 63.058 156.494 63.157 156.474C63.256 156.455 63.3334 156.437 63.389 156.42L63.4746 157.703C63.3429 157.756 63.1911 157.803 63.0194 157.845C62.8477 157.887 62.6467 157.916 62.4165 157.931C62.0473 157.956 61.715 157.912 61.4197 157.801C61.124 157.686 60.886 157.485 60.7056 157.201C60.5295 156.916 60.4251 156.528 60.3923 156.037L59.9328 149.151L61.6007 149.039Z" fill="#7A1600"/>
<path d="M216.593 140.094L214.918 140.206L214.448 133.156L216.025 133.051L216.219 134.484L216.593 140.094ZM215.527 136.383C215.483 135.722 215.548 135.129 215.722 134.603C215.901 134.076 216.189 133.651 216.586 133.328C216.984 133.005 217.491 132.822 218.107 132.781C218.746 132.739 219.282 132.897 219.716 133.256C220.15 133.616 220.397 134.236 220.456 135.118L220.769 139.815L219.101 139.927L218.799 135.392C218.777 135.066 218.71 134.813 218.597 134.633C218.489 134.453 218.342 134.33 218.154 134.264C217.966 134.198 217.749 134.173 217.501 134.189C217.223 134.208 216.988 134.276 216.795 134.394C216.606 134.511 216.455 134.667 216.342 134.862C216.228 135.057 216.15 135.281 216.105 135.533C216.065 135.784 216.055 136.053 216.074 136.34L215.527 136.383ZM219.644 135.898C219.605 135.312 219.673 134.769 219.849 134.268C220.025 133.768 220.308 133.361 220.697 133.047C221.086 132.729 221.58 132.549 222.179 132.509C222.653 132.478 223.067 132.54 223.422 132.695C223.777 132.846 224.058 133.108 224.267 133.483C224.479 133.857 224.607 134.361 224.649 134.995L224.952 139.536L223.278 139.648L222.974 135.1C222.951 134.762 222.884 134.504 222.772 134.329C222.664 134.152 222.517 134.036 222.33 133.978C222.147 133.916 221.934 133.894 221.69 133.91C221.452 133.926 221.246 133.983 221.074 134.082C220.906 134.18 220.766 134.312 220.655 134.476C220.548 134.636 220.471 134.822 220.424 135.035C220.377 135.243 220.361 135.467 220.377 135.706L219.644 135.898ZM225.983 135.862C225.937 135.175 226.027 134.554 226.251 133.998C226.476 133.442 226.821 132.992 227.287 132.646C227.756 132.297 228.336 132.099 229.027 132.053C229.726 132.006 230.334 132.125 230.851 132.409C231.367 132.688 231.771 133.089 232.063 133.61C232.359 134.132 232.531 134.735 232.576 135.422L232.586 135.558C232.631 136.24 232.542 136.861 232.317 137.422C232.097 137.978 231.75 138.428 231.275 138.774C230.805 139.12 230.223 139.315 229.528 139.362C228.833 139.408 228.23 139.291 227.718 139.011C227.206 138.731 226.802 138.331 226.506 137.81C226.209 137.284 226.038 136.68 225.992 135.998L225.983 135.862ZM227.66 135.887C227.687 136.295 227.769 136.667 227.905 137.003C228.04 137.334 228.234 137.594 228.487 137.782C228.739 137.966 229.056 138.045 229.438 138.02C229.821 137.994 230.124 137.874 230.35 137.658C230.575 137.438 230.731 137.155 230.817 136.809C230.907 136.458 230.938 136.078 230.911 135.67L230.902 135.533C230.875 135.129 230.794 134.762 230.658 134.431C230.527 134.095 230.333 133.833 230.076 133.645C229.823 133.452 229.503 133.369 229.117 133.395C228.739 133.42 228.437 133.545 228.212 133.769C227.987 133.989 227.829 134.275 227.739 134.625C227.653 134.971 227.624 135.346 227.651 135.75L227.66 135.887ZM235.735 138.817L234.067 138.928L233.596 131.879L235.167 131.774L235.365 133.272L235.735 138.817ZM234.682 135.104C234.641 134.418 234.718 133.813 234.914 133.289C235.115 132.761 235.416 132.342 235.819 132.031C236.221 131.716 236.702 131.54 237.262 131.503C237.714 131.473 238.113 131.534 238.459 131.685C238.805 131.832 239.082 132.093 239.29 132.467C239.503 132.841 239.631 133.354 239.674 134.006L239.976 138.534L238.302 138.645L237.999 134.104C237.977 133.783 237.915 133.532 237.811 133.351C237.707 133.17 237.562 133.047 237.374 132.981C237.191 132.915 236.969 132.89 236.708 132.908C236.443 132.925 236.212 132.993 236.015 133.111C235.822 133.229 235.66 133.386 235.529 133.582C235.403 133.778 235.311 134.002 235.254 134.255C235.201 134.507 235.184 134.776 235.203 135.063L234.682 135.104ZM244.442 132.392L240.422 132.66L240.34 131.429L244.36 131.16L244.442 132.392ZM243.007 129.516L243.457 136.273C243.472 136.486 243.513 136.646 243.581 136.755C243.649 136.86 243.739 136.928 243.85 136.96C243.966 136.991 244.099 137.002 244.252 136.992C244.36 136.985 244.464 136.971 244.563 136.952C244.662 136.932 244.739 136.914 244.795 136.897L244.881 138.18C244.749 138.233 244.597 138.28 244.425 138.322C244.254 138.364 244.053 138.393 243.822 138.408C243.453 138.433 243.121 138.389 242.826 138.278C242.53 138.163 242.292 137.963 242.111 137.678C241.935 137.393 241.831 137.005 241.798 136.514L241.339 129.628L243.007 129.516ZM247.645 138.022L245.97 138.134L245.303 128.126L246.977 128.015L247.645 138.022ZM246.586 134.31C246.546 133.65 246.622 133.056 246.813 132.528C247.01 132 247.302 131.575 247.69 131.252C248.083 130.929 248.553 130.75 249.101 130.713C249.565 130.682 249.975 130.744 250.33 130.899C250.689 131.05 250.978 131.314 251.195 131.692C251.412 132.071 251.542 132.585 251.586 133.237L251.886 137.739L250.212 137.851L249.91 133.336C249.889 133.01 249.824 132.757 249.716 132.576C249.612 132.391 249.466 132.264 249.278 132.193C249.094 132.123 248.872 132.096 248.612 132.113C248.334 132.132 248.096 132.2 247.899 132.318C247.702 132.436 247.54 132.593 247.413 132.789C247.291 132.985 247.204 133.209 247.151 133.461C247.102 133.713 247.087 133.982 247.106 134.269L246.586 134.31ZM255.202 137.518L253.528 137.629L252.86 127.622L254.535 127.51L255.202 137.518ZM260.348 130.093L262.127 129.975L259.854 138.281C259.8 138.459 259.726 138.653 259.631 138.865C259.541 139.076 259.417 139.278 259.259 139.472C259.107 139.67 258.909 139.836 258.664 139.97C258.42 140.104 258.12 140.183 257.764 140.207C257.668 140.213 257.575 140.213 257.483 140.206C257.395 140.203 257.31 140.196 257.226 140.184C257.142 140.172 257.058 140.158 256.974 140.142L256.889 138.858C256.928 138.86 256.978 138.861 257.039 138.861C257.101 138.861 257.151 138.86 257.19 138.858C257.576 138.832 257.861 138.745 258.043 138.598C258.229 138.45 258.366 138.212 258.453 137.883L258.871 136.488L260.348 130.093ZM259.443 135.357L259.851 137.149L258.713 137.454L255.69 130.404L257.488 130.284L259.443 135.357ZM267.317 137.527L266.033 137.613L268.994 127.069L270.278 126.983L267.317 137.527ZM235.111 147.813L236.786 147.701L237.256 154.751L235.679 154.856L235.47 153.195L235.111 147.813ZM236.14 151.658C236.182 152.288 236.126 152.856 235.973 153.364C235.819 153.872 235.554 154.282 235.178 154.595C234.801 154.904 234.303 155.079 233.681 155.12C232.986 155.167 232.41 155 231.953 154.62C231.496 154.241 231.236 153.584 231.174 152.65L230.87 148.096L232.538 147.985L232.843 152.552C232.864 152.869 232.928 153.116 233.036 153.292C233.148 153.463 233.289 153.582 233.459 153.65C233.633 153.712 233.82 153.737 234.02 153.723C234.45 153.695 234.783 153.59 235.02 153.408C235.256 153.222 235.417 152.982 235.502 152.689C235.591 152.39 235.624 152.063 235.6 151.707L236.14 151.658ZM241.48 154.6C240.833 154.643 240.278 154.564 239.815 154.364C239.357 154.159 239 153.884 238.746 153.539C238.496 153.193 238.358 152.83 238.333 152.447L239.936 152.34C239.971 152.609 240.062 152.823 240.207 152.983C240.357 153.139 240.539 153.247 240.753 153.307C240.97 153.366 241.194 153.389 241.425 153.373C241.694 153.355 241.917 153.305 242.095 153.224C242.273 153.138 242.403 153.031 242.486 152.903C242.573 152.771 242.611 152.622 242.6 152.457C242.59 152.309 242.543 152.18 242.457 152.068C242.375 151.955 242.222 151.856 241.998 151.771C241.779 151.685 241.458 151.613 241.035 151.554C240.533 151.483 240.087 151.373 239.697 151.224C239.308 151.076 238.995 150.872 238.76 150.613C238.529 150.349 238.4 150.019 238.373 149.624C238.348 149.237 238.435 148.874 238.634 148.533C238.834 148.193 239.134 147.911 239.533 147.688C239.933 147.461 240.415 147.328 240.979 147.291C241.574 147.251 242.092 147.317 242.531 147.488C242.974 147.655 243.321 147.9 243.574 148.223C243.827 148.542 243.967 148.917 243.996 149.347L242.328 149.458C242.31 149.18 242.194 148.948 241.981 148.762C241.767 148.571 241.459 148.489 241.055 148.516C240.811 148.532 240.608 148.585 240.443 148.674C240.279 148.764 240.16 148.877 240.086 149.012C240.012 149.144 239.98 149.286 239.991 149.438C240 149.585 240.05 149.713 240.14 149.82C240.235 149.923 240.387 150.011 240.596 150.084C240.806 150.153 241.096 150.215 241.466 150.268C242.003 150.342 242.473 150.452 242.876 150.6C243.282 150.743 243.601 150.948 243.833 151.217C244.069 151.48 244.201 151.831 244.23 152.27C244.258 152.682 244.163 153.06 243.946 153.401C243.733 153.738 243.415 154.013 242.993 154.224C242.571 154.435 242.067 154.561 241.48 154.6ZM248.856 154.108C248.148 154.155 247.527 154.046 246.995 153.78C246.466 153.51 246.046 153.126 245.733 152.628C245.425 152.129 245.25 151.563 245.208 150.928L245.19 150.661C245.141 149.932 245.238 149.286 245.479 148.725C245.721 148.159 246.075 147.71 246.541 147.378C247.008 147.041 247.551 146.852 248.172 146.811C248.85 146.765 249.422 146.876 249.889 147.141C250.36 147.402 250.726 147.785 250.987 148.292C251.247 148.793 251.4 149.385 251.446 150.067L251.494 150.784L246.014 151.149L245.935 149.964L249.766 149.708L249.757 149.578C249.731 149.309 249.662 149.063 249.551 148.839C249.44 148.615 249.278 148.441 249.065 148.315C248.855 148.185 248.585 148.131 248.255 148.153C247.912 148.176 247.632 148.291 247.414 148.497C247.201 148.703 247.048 148.982 246.953 149.333C246.863 149.684 246.834 150.089 246.864 150.55L246.882 150.817C246.908 151.208 247.003 151.555 247.168 151.858C247.336 152.161 247.563 152.394 247.849 152.558C248.139 152.718 248.477 152.785 248.864 152.759C249.233 152.734 249.558 152.641 249.84 152.478C250.125 152.311 250.365 152.083 250.56 151.795L251.485 152.617C251.286 152.962 250.969 153.286 250.536 153.59C250.106 153.889 249.546 154.062 248.856 154.108ZM254.548 153.597L252.88 153.708L252.409 146.659L253.993 146.553L254.172 147.968L254.548 153.597ZM256.298 147.95C256.197 147.94 256.087 147.934 255.969 147.933C255.856 147.932 255.745 147.935 255.636 147.942C255.284 147.966 254.996 148.048 254.769 148.19C254.543 148.327 254.377 148.517 254.271 148.76C254.169 148.998 254.118 149.278 254.117 149.601L253.744 149.6C253.705 149.005 253.747 148.465 253.872 147.981C253.996 147.493 254.204 147.102 254.494 146.808C254.788 146.509 255.168 146.344 255.632 146.313C255.724 146.307 255.826 146.309 255.94 146.318C256.054 146.324 256.142 146.338 256.205 146.36L256.298 147.95Z" fill="#7A1600"/>
</g>
</g>
<defs>
<clipPath id="clip0_1007_3818">
<rect width="303" height="468" fill="white" transform="translate(0 0.952759)"/>
</clipPath>
<clipPath id="clip1_1007_3818">
<rect width="906" height="408" fill="white" transform="translate(-301.5 8.95276)"/>
</clipPath>
</defs>
</svg>
