<svg width="303" height="469" viewBox="0 0 303 469" fill="none" xmlns="http://www.w3.org/2000/svg">
<g clip-path="url(#clip0_1007_3484)">
<g opacity="0.9">
<circle cx="151.501" cy="234.953" r="72.265" stroke="#F7DBFF" stroke-width="4"/>
<circle cx="151.501" cy="234.953" r="118.808" stroke="#F7DBFF" stroke-width="4"/>
<circle cx="151.501" cy="234.953" r="176.397" stroke="#F7DBFF" stroke-width="4"/>
<circle cx="151.5" cy="234.953" r="264.166" stroke="#F7DBFF" stroke-width="4"/>
<circle cx="151.501" cy="234.953" r="373.622" stroke="#F7DBFF" stroke-width="4"/>
<path d="M109.234 158.382H181.788C195.595 158.382 206.788 169.575 206.788 183.382V289.183C206.788 296.915 200.52 303.183 192.788 303.183H143.234C124.457 303.183 109.234 287.96 109.234 269.183V158.382Z" fill="#FE6533"/>
<path d="M122.635 277.195H223.153C223.153 291.548 211.518 303.183 197.165 303.183H122.635V277.195Z" fill="#7A1600"/>
<path d="M109.234 290.218L109.234 270.599L135.164 270.599V290.218C135.164 297.378 129.36 303.183 122.199 303.183C115.039 303.183 109.234 297.378 109.234 290.218Z" fill="#FE6533"/>
<rect x="95.541" y="158.382" width="23.6956" height="12.8194" fill="#FE6533"/>
<path d="M81.8477 172.075V184.021H109.234V172.075C109.234 164.513 103.104 158.382 95.541 158.382C87.9784 158.382 81.8477 164.513 81.8477 172.075Z" fill="#7A1600"/>
<path fill-rule="evenodd" clip-rule="evenodd" d="M145.864 188.744C145.469 188.598 145.059 188.484 144.637 188.403C144.606 188.397 144.575 188.391 144.544 188.386C144.261 188.335 144.261 187.93 144.544 187.88C144.575 187.874 144.606 187.869 144.637 187.863C145.059 187.782 145.469 187.667 145.864 187.522C146.1 187.434 146.33 187.336 146.555 187.227C148.109 186.473 149.367 185.214 150.121 183.66C150.23 183.436 150.329 183.205 150.416 182.969C150.562 182.575 150.677 182.165 150.757 181.743C150.763 181.712 150.769 181.68 150.774 181.649C150.825 181.367 151.23 181.367 151.28 181.649C151.286 181.68 151.291 181.712 151.297 181.743C151.378 182.165 151.493 182.575 151.638 182.969C151.726 183.205 151.824 183.436 151.933 183.66C152.687 185.214 153.946 186.473 155.5 187.227C155.724 187.336 155.955 187.434 156.191 187.522C156.585 187.667 156.995 187.782 157.418 187.863C157.449 187.869 157.48 187.874 157.511 187.88C157.793 187.93 157.793 188.335 157.511 188.386C157.48 188.391 157.449 188.397 157.418 188.403C156.995 188.484 156.585 188.598 156.191 188.744C155.955 188.831 155.724 188.93 155.5 189.039C153.946 189.793 152.687 191.051 151.933 192.605C151.824 192.83 151.726 193.06 151.638 193.296C151.493 193.691 151.378 194.101 151.297 194.523C151.291 194.554 151.286 194.585 151.28 194.616C151.23 194.899 150.825 194.899 150.774 194.616C150.769 194.585 150.763 194.554 150.757 194.523C150.677 194.101 150.562 193.691 150.416 193.296C150.329 193.06 150.23 192.83 150.121 192.605C149.367 191.051 148.109 189.793 146.555 189.039C146.33 188.93 146.1 188.831 145.864 188.744ZM155.295 198.773C155.019 198.699 154.739 198.634 154.456 198.578C154.412 198.569 154.367 198.561 154.323 198.552L154.31 198.55L154.291 198.547C154.263 198.541 154.233 198.536 154.171 198.525L154.15 198.521C153.698 198.436 153.698 197.789 154.15 197.704L154.171 197.7C154.233 197.689 154.263 197.684 154.291 197.679L154.31 197.675L154.323 197.673C154.367 197.664 154.412 197.656 154.456 197.647C154.739 197.591 155.019 197.526 155.295 197.452C155.531 197.388 155.763 197.318 155.993 197.242C159.712 196.002 162.639 193.075 163.878 189.357C163.955 189.127 164.025 188.894 164.089 188.658C164.163 188.382 164.228 188.102 164.284 187.819C164.293 187.775 164.301 187.731 164.31 187.686L164.312 187.673L164.315 187.655C164.32 187.627 164.326 187.596 164.337 187.536L164.337 187.534L164.341 187.513C164.426 187.061 165.073 187.061 165.158 187.513L165.162 187.534C165.173 187.596 165.178 187.627 165.183 187.655L165.187 187.673L165.189 187.686C165.198 187.731 165.206 187.775 165.215 187.819C165.27 188.103 165.336 188.382 165.41 188.658C165.474 188.894 165.544 189.127 165.62 189.357C166.86 193.075 169.786 196.002 173.505 197.242C173.735 197.318 173.968 197.388 174.204 197.452C174.48 197.526 174.759 197.591 175.043 197.647C175.087 197.656 175.131 197.664 175.176 197.673L175.189 197.675L175.207 197.679C175.235 197.684 175.266 197.689 175.328 197.7L175.349 197.704C175.801 197.789 175.801 198.436 175.349 198.521L175.328 198.525L175.263 198.537L175.207 198.547L175.189 198.55L175.176 198.552C175.131 198.561 175.087 198.569 175.043 198.578C174.759 198.634 174.48 198.699 174.204 198.773C173.968 198.837 173.735 198.907 173.505 198.984C169.786 200.223 166.86 203.15 165.62 206.869C165.544 207.098 165.474 207.331 165.41 207.567C165.336 207.843 165.27 208.123 165.215 208.406C165.206 208.45 165.198 208.494 165.189 208.539L165.187 208.552L165.183 208.571L165.176 208.612L165.162 208.689L165.158 208.712C165.073 209.164 164.426 209.164 164.341 208.712L164.337 208.691C164.326 208.63 164.32 208.599 164.315 208.571L164.312 208.552L164.31 208.539C164.301 208.494 164.293 208.45 164.284 208.406C164.228 208.123 164.163 207.843 164.089 207.567C164.025 207.331 163.955 207.098 163.878 206.869C162.639 203.15 159.712 200.223 155.993 198.984C155.763 198.907 155.531 198.837 155.295 198.773ZM149.07 207.431C149.545 207.522 149.994 207.68 150.408 207.896C150.592 207.993 150.769 208.1 150.939 208.218C151.41 208.547 151.82 208.957 152.149 209.428C152.267 209.598 152.374 209.775 152.471 209.959C152.687 210.373 152.845 210.822 152.936 211.297C152.94 211.316 152.943 211.336 152.947 211.356C152.979 211.534 153.234 211.534 153.266 211.356C153.27 211.336 153.273 211.316 153.277 211.297C153.368 210.822 153.526 210.373 153.742 209.959C153.838 209.775 153.946 209.598 154.064 209.428C154.393 208.957 154.803 208.547 155.274 208.218C155.443 208.1 155.62 207.993 155.804 207.896C156.219 207.68 156.668 207.522 157.142 207.431C157.162 207.427 157.182 207.424 157.201 207.42C157.379 207.389 157.379 207.133 157.201 207.101C157.182 207.097 157.162 207.094 157.142 207.09C156.668 207 156.219 206.841 155.804 206.625C155.62 206.529 155.443 206.421 155.274 206.303C154.803 205.974 154.393 205.564 154.064 205.093C153.946 204.924 153.838 204.747 153.742 204.563C153.526 204.149 153.368 203.699 153.277 203.225C153.273 203.205 153.27 203.185 153.266 203.166C153.234 202.988 152.979 202.988 152.947 203.166C152.943 203.185 152.94 203.205 152.936 203.225C152.845 203.699 152.687 204.149 152.471 204.563C152.374 204.747 152.267 204.924 152.149 205.093C151.82 205.564 151.41 205.974 150.939 206.303C150.769 206.421 150.592 206.529 150.408 206.625C149.994 206.841 149.545 207 149.07 207.09C149.051 207.094 149.031 207.097 149.011 207.101C148.833 207.133 148.833 207.389 149.011 207.42C149.031 207.424 149.051 207.427 149.07 207.431Z" fill="white"/>
<path d="M148.117 238.066C147.965 238.261 147.731 238.473 147.417 238.701C147.103 238.93 146.686 239.128 146.167 239.294C145.648 239.461 145.002 239.544 144.231 239.544C143.354 239.544 142.58 239.349 141.909 238.959C141.237 238.568 140.713 237.999 140.337 237.251C139.961 236.504 139.773 235.601 139.773 234.544V233.858C139.773 232.801 139.947 231.898 140.294 231.15C140.647 230.403 141.145 229.833 141.787 229.443C142.43 229.052 143.192 228.857 144.074 228.857C144.945 228.857 145.664 229 146.231 229.286C146.798 229.571 147.234 229.969 147.538 230.479C147.843 230.984 148.034 231.565 148.11 232.222H146.245C146.193 231.86 146.086 231.543 145.924 231.272C145.767 230.995 145.54 230.779 145.245 230.622C144.955 230.464 144.578 230.386 144.116 230.386C143.583 230.386 143.135 230.522 142.773 230.793C142.416 231.06 142.147 231.45 141.966 231.965C141.79 232.479 141.702 233.105 141.702 233.844V234.544C141.702 235.291 141.804 235.922 142.009 236.437C142.214 236.951 142.511 237.344 142.902 237.616C143.292 237.882 143.764 238.016 144.316 238.016C144.707 238.016 145.026 237.985 145.274 237.923C145.521 237.856 145.719 237.778 145.867 237.687C146.019 237.592 146.133 237.504 146.21 237.423V235.451H144.124V234.022H148.117V238.066ZM153.325 239.544C152.549 239.544 151.88 239.38 151.318 239.052C150.76 238.718 150.329 238.268 150.025 237.701C149.724 237.135 149.574 236.504 149.574 235.808V235.515C149.574 234.715 149.727 234.017 150.032 233.422C150.336 232.822 150.756 232.358 151.289 232.029C151.822 231.696 152.43 231.529 153.111 231.529C153.854 231.529 154.471 231.691 154.961 232.015C155.456 232.334 155.828 232.779 156.076 233.351C156.323 233.917 156.447 234.575 156.447 235.322V236.108H150.439V234.808H154.64V234.665C154.63 234.37 154.573 234.096 154.468 233.844C154.363 233.591 154.199 233.389 153.975 233.236C153.756 233.079 153.466 233.001 153.104 233.001C152.727 233.001 152.413 233.105 152.161 233.315C151.913 233.524 151.725 233.817 151.596 234.194C151.472 234.57 151.41 235.01 151.41 235.515V235.808C151.41 236.237 151.489 236.623 151.646 236.965C151.808 237.308 152.039 237.58 152.339 237.78C152.644 237.975 153.008 238.073 153.432 238.073C153.837 238.073 154.199 237.994 154.518 237.837C154.842 237.675 155.121 237.444 155.354 237.144L156.304 238.109C156.061 238.471 155.692 238.802 155.197 239.102C154.706 239.397 154.082 239.544 153.325 239.544ZM159.548 239.402H157.719V231.672H159.44L159.548 233.322V239.402ZM158.669 235.272C158.674 234.52 158.802 233.865 159.055 233.308C159.312 232.746 159.671 232.31 160.133 232C160.595 231.686 161.133 231.529 161.748 231.529C162.243 231.529 162.674 231.624 163.041 231.815C163.408 232 163.691 232.305 163.891 232.729C164.096 233.153 164.198 233.722 164.198 234.437V239.402H162.362V234.422C162.362 234.07 162.312 233.791 162.212 233.586C162.112 233.382 161.962 233.236 161.762 233.151C161.567 233.065 161.326 233.022 161.041 233.022C160.75 233.022 160.493 233.079 160.269 233.193C160.05 233.308 159.862 233.467 159.705 233.672C159.552 233.877 159.436 234.115 159.355 234.387C159.278 234.658 159.24 234.951 159.24 235.265L158.669 235.272ZM167.149 239.402H165.141L169.049 229H170.314L170.185 230.55L167.149 239.402ZM169.656 230.55L169.513 229H170.785L174.707 239.402H172.7L169.656 230.55ZM172.585 237.073H166.942V235.53H172.585V237.073ZM177.843 239.402H175.943V229H177.843V239.402ZM137.937 245C138.732 245 139.411 245.119 139.973 245.357C140.54 245.595 140.971 245.948 141.266 246.414C141.566 246.881 141.716 247.455 141.716 248.136C141.716 248.67 141.621 249.134 141.43 249.529C141.245 249.925 140.978 250.256 140.63 250.522C140.282 250.789 139.87 250.999 139.394 251.151L138.816 251.458H135.515V249.922H137.944C138.363 249.922 138.711 249.851 138.987 249.708C139.263 249.565 139.468 249.367 139.601 249.115C139.74 248.862 139.809 248.574 139.809 248.25C139.809 247.727 139.659 247.31 139.359 247C139.058 246.691 138.585 246.536 137.937 246.536H136.108V255.402H134.208V245H137.937ZM137.673 250.729H139.68L142.13 255.302V255.402H140.087L137.673 250.729ZM146.731 255.544C145.955 255.544 145.286 255.38 144.724 255.052C144.166 254.718 143.735 254.268 143.431 253.701C143.131 253.135 142.981 252.504 142.981 251.808V251.515C142.981 250.715 143.133 250.017 143.438 249.422C143.743 248.822 144.162 248.358 144.695 248.029C145.229 247.696 145.836 247.529 146.517 247.529C147.26 247.529 147.877 247.691 148.367 248.015C148.862 248.334 149.234 248.779 149.482 249.351C149.729 249.917 149.853 250.575 149.853 251.322V252.108H143.845V250.808H148.046V250.665C148.036 250.37 147.979 250.096 147.874 249.844C147.769 249.591 147.605 249.389 147.381 249.236C147.162 249.079 146.872 249.001 146.51 249.001C146.133 249.001 145.819 249.105 145.567 249.315C145.319 249.524 145.131 249.817 145.002 250.194C144.878 250.57 144.817 251.01 144.817 251.515V251.808C144.817 252.237 144.895 252.623 145.052 252.965C145.214 253.308 145.445 253.58 145.745 253.78C146.05 253.975 146.414 254.073 146.838 254.073C147.243 254.073 147.605 253.994 147.924 253.837C148.248 253.675 148.527 253.444 148.76 253.144L149.71 254.109C149.467 254.471 149.098 254.802 148.603 255.102C148.112 255.397 147.488 255.544 146.731 255.544ZM154.975 255.544C154.49 255.544 154.068 255.454 153.711 255.273C153.354 255.087 153.051 254.828 152.804 254.494C152.561 254.161 152.365 253.77 152.218 253.323C152.07 252.87 151.963 252.377 151.896 251.844V251.344C151.982 250.591 152.144 249.929 152.382 249.358C152.62 248.786 152.949 248.339 153.368 248.015C153.792 247.691 154.323 247.529 154.961 247.529C155.614 247.529 156.164 247.693 156.611 248.022C157.059 248.35 157.397 248.81 157.626 249.401C157.859 249.986 157.976 250.672 157.976 251.458V251.608C157.976 252.361 157.859 253.035 157.626 253.63C157.397 254.22 157.059 254.687 156.611 255.03C156.168 255.373 155.623 255.544 154.975 255.544ZM151.153 258.374V247.672H152.839L152.982 249.158V258.374H151.153ZM154.475 254.073C154.875 254.073 155.197 253.961 155.44 253.737C155.687 253.513 155.866 253.216 155.976 252.844C156.09 252.468 156.147 252.056 156.147 251.608V251.458C156.147 251.001 156.09 250.589 155.976 250.222C155.861 249.855 155.68 249.565 155.433 249.351C155.185 249.132 154.861 249.022 154.461 249.022C154.166 249.022 153.913 249.07 153.704 249.165C153.494 249.26 153.318 249.396 153.175 249.572C153.037 249.744 152.927 249.951 152.846 250.194C152.77 250.432 152.718 250.696 152.689 250.987V252.201C152.742 252.549 152.832 252.865 152.961 253.151C153.089 253.432 153.275 253.656 153.518 253.823C153.766 253.989 154.085 254.073 154.475 254.073ZM159.055 251.465C159.055 250.713 159.197 250.041 159.483 249.451C159.769 248.86 160.179 248.393 160.712 248.05C161.25 247.703 161.898 247.529 162.655 247.529C163.422 247.529 164.077 247.703 164.62 248.05C165.163 248.393 165.575 248.86 165.856 249.451C166.141 250.041 166.284 250.713 166.284 251.465V251.615C166.284 252.363 166.141 253.035 165.856 253.63C165.575 254.22 165.163 254.687 164.62 255.03C164.082 255.373 163.431 255.544 162.669 255.544C161.907 255.544 161.257 255.373 160.719 255.03C160.181 254.687 159.769 254.22 159.483 253.63C159.197 253.035 159.055 252.363 159.055 251.615V251.465ZM160.883 251.615C160.883 252.063 160.945 252.475 161.069 252.851C161.193 253.223 161.386 253.52 161.648 253.744C161.91 253.963 162.25 254.073 162.669 254.073C163.089 254.073 163.429 253.963 163.691 253.744C163.953 253.52 164.144 253.223 164.263 252.851C164.386 252.475 164.448 252.063 164.448 251.615V251.465C164.448 251.022 164.386 250.615 164.263 250.244C164.144 249.867 163.951 249.567 163.684 249.343C163.422 249.115 163.079 249.001 162.655 249.001C162.241 249.001 161.903 249.115 161.641 249.343C161.379 249.567 161.186 249.867 161.062 250.244C160.943 250.615 160.883 251.022 160.883 251.465V251.615ZM169.513 255.402H167.685V247.672H169.421L169.513 249.229V255.402ZM171.835 249.365C171.726 249.346 171.607 249.332 171.478 249.322C171.354 249.313 171.233 249.308 171.114 249.308C170.728 249.308 170.406 249.377 170.149 249.515C169.892 249.648 169.697 249.844 169.563 250.101C169.435 250.353 169.359 250.656 169.335 251.008L168.928 250.979C168.928 250.327 169.013 249.741 169.185 249.222C169.356 248.698 169.611 248.286 169.949 247.986C170.292 247.681 170.718 247.529 171.228 247.529C171.328 247.529 171.44 247.538 171.564 247.557C171.688 247.572 171.783 247.593 171.85 247.622L171.835 249.365ZM176.872 249.022H172.464V247.672H176.872V249.022ZM175.514 245.779V253.187C175.514 253.42 175.548 253.599 175.614 253.723C175.681 253.842 175.774 253.923 175.893 253.966C176.017 254.009 176.162 254.03 176.329 254.03C176.448 254.03 176.562 254.023 176.672 254.009C176.781 253.994 176.867 253.98 176.929 253.966V255.373C176.781 255.421 176.612 255.461 176.422 255.494C176.231 255.528 176.01 255.544 175.757 255.544C175.352 255.544 174.993 255.473 174.679 255.33C174.364 255.183 174.119 254.947 173.943 254.623C173.771 254.299 173.686 253.868 173.686 253.33V245.779H175.514ZM181.065 255.544C180.356 255.544 179.756 255.418 179.265 255.166C178.779 254.909 178.41 254.582 178.158 254.187C177.91 253.792 177.786 253.385 177.786 252.965H179.544C179.563 253.261 179.646 253.501 179.794 253.687C179.946 253.868 180.137 253.999 180.365 254.08C180.599 254.161 180.841 254.201 181.094 254.201C181.389 254.201 181.637 254.163 181.837 254.087C182.037 254.006 182.187 253.899 182.287 253.766C182.392 253.628 182.444 253.468 182.444 253.287C182.444 253.125 182.401 252.98 182.316 252.851C182.235 252.723 182.075 252.604 181.837 252.494C181.604 252.384 181.258 252.282 180.801 252.187C180.258 252.072 179.779 251.92 179.365 251.73C178.951 251.539 178.624 251.294 178.386 250.994C178.153 250.689 178.036 250.32 178.036 249.886C178.036 249.463 178.158 249.072 178.401 248.715C178.643 248.358 178.991 248.072 179.444 247.858C179.896 247.638 180.432 247.529 181.051 247.529C181.704 247.529 182.263 247.638 182.73 247.858C183.201 248.072 183.563 248.365 183.816 248.736C184.068 249.103 184.194 249.522 184.194 249.994H182.366C182.366 249.689 182.256 249.427 182.037 249.208C181.818 248.984 181.487 248.872 181.044 248.872C180.777 248.872 180.551 248.915 180.365 249.001C180.179 249.086 180.041 249.201 179.951 249.343C179.86 249.482 179.815 249.634 179.815 249.801C179.815 249.963 179.86 250.106 179.951 250.229C180.046 250.348 180.206 250.456 180.43 250.551C180.653 250.641 180.965 250.729 181.365 250.815C181.946 250.934 182.451 251.089 182.88 251.28C183.313 251.465 183.647 251.713 183.88 252.022C184.118 252.327 184.237 252.72 184.237 253.201C184.237 253.654 184.106 254.059 183.844 254.416C183.587 254.768 183.22 255.044 182.744 255.244C182.268 255.444 181.708 255.544 181.065 255.544Z" fill="white"/>
<rect x="2.08008" y="324.624" width="70.0264" height="70.0264" rx="12" fill="#F7DBFF"/>
<path d="M19.1289 347.579C19.1289 346.475 20.0243 345.579 21.1289 345.579H26.26C27.3645 345.579 28.26 346.475 28.26 347.579V373.695H19.1289V347.579Z" fill="#FE6533"/>
<path d="M31.5273 357.761C31.5273 356.656 32.4228 355.761 33.5273 355.761H38.6584C39.763 355.761 40.6584 356.656 40.6584 357.761V373.695H31.5273V357.761Z" fill="#7A1600"/>
<path d="M43.9258 363.127C43.9258 362.023 44.8212 361.127 45.9258 361.127H51.0568C52.1614 361.127 53.0568 362.023 53.0568 363.127V373.695H43.9258V363.127Z" fill="#FE6533"/>
<rect x="235.354" y="56.5557" width="50" height="50" rx="12" fill="#F7DBFF"/>
<path d="M260.353 73.2743C254.326 73.2743 249.032 76.0225 246.018 80.1654C245.54 80.8224 245.406 81.6801 245.795 82.3934C247.51 85.537 252.977 89.8336 260.353 89.8336C267.837 89.8336 273.355 85.7613 274.984 82.366C275.322 81.6614 275.177 80.8413 274.72 80.2077C271.711 76.0413 266.401 73.2743 260.353 73.2743Z" fill="#FE6533"/>
<circle cx="260.419" cy="81.5545" r="5.17905" fill="#7A1600"/>
</g>
</g>
<defs>
<clipPath id="clip0_1007_3484">
<rect width="303" height="468" fill="white" transform="translate(0 0.952759)"/>
</clipPath>
</defs>
</svg>
