<svg width="303" height="469" viewBox="0 0 303 469" fill="none" xmlns="http://www.w3.org/2000/svg">
<g clip-path="url(#clip0_1007_3703)">
<path d="M120.668 367.856L8.29102 302.303L69.1617 193.673L172.173 182.436L292.041 248.925L243.345 348.19L120.668 367.856Z" stroke="#F7DBFF" stroke-width="4" stroke-linecap="round"/>
<path d="M101.318 428.672L-84.7754 320.118L16.025 140.229L186.609 121.62L385.108 231.724L304.468 396.106L101.318 428.672Z" stroke="#F7DBFF" stroke-width="4" stroke-linecap="round"/>
<path d="M78.56 500.198L-194.232 341.07L-46.4701 77.3727L203.588 50.0937L494.564 211.495L376.355 452.46L78.56 500.198Z" stroke="#F7DBFF" stroke-width="4" stroke-linecap="round"/>
<path d="M51.3864 585.603L-324.928 366.088L-121.091 2.32007L223.861 -35.3111L625.26 187.34L462.191 519.748L51.3864 585.603Z" stroke="#F7DBFF" stroke-width="4" stroke-linecap="round"/>
<path d="M16.5496 695.093L-492.48 398.161L-216.756 -93.8983L249.851 -144.801L792.813 156.373L572.235 606.013L16.5496 695.093Z" stroke="#F7DBFF" stroke-width="4" stroke-linecap="round"/>
<path d="M52.1074 277.991L77.5605 220.612L187.751 212.388L250.983 249.091L222.948 306.896L123.576 321.133L52.1074 277.991Z" fill="#FE6533"/>
<path d="M52.0176 302.028V277.831L123.592 321.142V343.509L52.0176 302.028Z" fill="#C7CDEE"/>
<path d="M52.0176 302.028V277.831L123.592 321.142V343.509L52.0176 302.028Z" fill="url(#paint0_linear_1007_3703)"/>
<path d="M52.0176 302.028V277.831L123.592 321.142V343.509L52.0176 302.028Z" fill="#7A1600"/>
<path d="M123.592 343.503V321.126L223.229 306.227V327.604L123.592 343.503Z" fill="#6870FB"/>
<path d="M123.592 343.503V321.126L223.229 306.227V327.604L123.592 343.503Z" fill="url(#paint1_linear_1007_3703)"/>
<path d="M123.592 343.503V321.126L223.229 306.227V327.604L123.592 343.503Z" fill="#7A1600"/>
<path d="M250.946 271.637V249.174L223.229 306.238V327.628L250.946 271.637Z" fill="#FE6533"/>
<path d="M250.946 271.637V249.174L223.229 306.238V327.628L250.946 271.637Z" fill="#7A1600"/>
<path d="M127.666 295.881V205.416L217.809 150.379V236.8C217.809 239.599 216.346 242.194 213.952 243.644L127.666 295.881Z" fill="#F7DBFF"/>
<path d="M136.107 290.795C119.439 302.6 112.758 298.697 108.873 295.812L120.107 280.756L136.107 290.795Z" fill="#EBDFE0"/>
<path d="M88.8828 273.87V188.326L127.665 204.043V287.777C127.665 296.44 118.116 301.703 110.791 297.077L96.8049 288.244C91.8733 285.129 88.8828 279.703 88.8828 273.87Z" fill="#F7DBFF"/>
<path d="M174.327 134.116L92.1705 181.943C88.2981 184.198 88.1732 189.747 91.9402 192.173L107.375 202.114C115.65 207.444 126.226 207.644 134.697 202.63L215.278 154.936C218.696 152.913 218.504 147.903 214.94 146.148L189.447 133.591C184.637 131.222 178.961 131.419 174.327 134.116Z" fill="#FEF8FF"/>
<path d="M106.734 145.386V191.45C106.734 191.45 109.107 198.041 117.199 197.747C125.291 197.453 127.056 190.538 127.056 190.538C127.056 179.062 125.049 153.352 127.056 143.31C129.381 131.683 132.479 130.081 135.15 125.166C137.821 120.252 157.686 100.462 171.721 97.4112C178.754 95.8821 180.513 101.998 180.513 105.248V147.489C180.513 147.489 182.929 154.464 190.452 154.561C197.974 154.657 200.2 147.489 200.2 147.489V108.879C200.2 100.971 199.626 91.0273 190.452 83.8406C178.984 74.8572 158.532 76.7686 134.067 97.4112C114.495 113.925 107.69 136.275 106.734 145.386Z" fill="#7A1600"/>
<path d="M179.525 194.863C172.14 194.863 162.15 201.997 159.665 213.21C158.272 219.495 157.346 228.663 166.087 230.315L161.523 257.011C161.233 258.708 163.081 259.955 164.546 259.049L180.917 248.928C182.997 247.642 184.088 245.223 183.676 242.813L180.239 222.724C183.422 217.903 185.773 211.982 186.304 208.422C187.313 201.642 186.909 194.863 179.525 194.863Z" fill="#7A1600"/>
</g>
<defs>
<linearGradient id="paint0_linear_1007_3703" x1="52.0176" y1="289.99" x2="245.619" y2="452.809" gradientUnits="userSpaceOnUse">
<stop stop-color="#FFCFC5"/>
<stop offset="1" stop-color="#FF7152"/>
</linearGradient>
<linearGradient id="paint1_linear_1007_3703" x1="123.592" y1="313.128" x2="152.23" y2="370.478" gradientUnits="userSpaceOnUse">
<stop stop-color="#FFCFC5"/>
<stop offset="1" stop-color="#FF7152"/>
</linearGradient>
<clipPath id="clip0_1007_3703">
<rect width="303" height="468" fill="white" transform="translate(0 0.952759)"/>
</clipPath>
</defs>
</svg>
