<svg width="303" height="469" viewBox="0 0 303 469" fill="none" xmlns="http://www.w3.org/2000/svg">
<g clip-path="url(#clip0_1007_3635)">
<path d="M174.896 184.089C173.544 182.736 171.939 181.663 170.172 180.931C168.405 180.199 166.511 179.822 164.599 179.822C162.686 179.822 160.793 180.199 159.026 180.931C157.259 181.663 155.654 182.736 154.302 184.089C152.752 185.639 150.239 185.639 148.69 184.089C145.959 181.358 142.255 179.824 138.393 179.824C134.53 179.824 130.826 181.358 128.095 184.089C125.364 186.82 123.83 190.524 123.83 194.386C123.83 198.248 125.364 201.952 128.095 204.683L130.901 207.489L144.425 221.013C148.33 224.918 154.662 224.918 158.567 221.013L172.09 207.489L174.896 204.683C176.249 203.331 177.322 201.726 178.054 199.959C178.786 198.192 179.163 196.299 179.163 194.386C179.163 192.474 178.786 190.58 178.054 188.813C177.322 187.046 176.249 185.441 174.896 184.089Z" fill="#F7F9B3"/>
<path d="M225.909 140.784C221.61 136.482 216.505 133.07 210.886 130.742C205.267 128.414 199.245 127.215 193.163 127.215C187.081 127.215 181.059 128.414 175.44 130.742C169.822 133.07 164.717 136.482 160.417 140.784L158.565 142.636C154.66 146.541 148.328 146.541 144.423 142.636L142.571 140.784C133.886 132.099 122.107 127.22 109.825 127.22C97.5432 127.22 85.7642 132.099 77.0794 140.784C68.3947 149.468 63.5156 161.248 63.5156 173.53C63.5156 185.812 68.3947 197.591 77.0794 206.276L86.0025 215.199L144.423 273.619C148.328 277.525 154.66 277.525 158.565 273.619L216.986 215.199L225.909 206.276C230.211 201.976 233.623 196.871 235.951 191.252C238.279 185.634 239.477 179.611 239.477 173.53C239.477 167.448 238.279 161.425 235.951 155.807C233.623 150.188 230.211 145.083 225.909 140.784Z" stroke="#F7F9B3" stroke-width="4" stroke-linecap="round" stroke-linejoin="round"/>
<path d="M274.67 99.3876C267.553 92.2672 259.102 86.6188 249.802 82.765C240.501 78.9113 230.532 76.9278 220.465 76.9278C210.397 76.9278 200.429 78.9113 191.128 82.765C181.827 86.6188 173.377 92.2672 166.26 99.3876L158.561 107.087C154.656 110.992 148.324 110.992 144.419 107.087L136.719 99.3876C122.343 85.0116 102.845 76.9352 82.5145 76.9352C62.1838 76.9352 42.6858 85.0116 28.3098 99.3876C13.9338 113.764 5.85742 133.262 5.85742 153.592C5.85742 173.923 13.9338 193.421 28.3098 207.797L43.0802 222.568L144.419 323.906C148.324 327.811 154.656 327.811 158.561 323.906L259.899 222.568L274.67 207.797C281.79 200.68 287.438 192.23 291.292 182.929C295.146 173.629 297.129 163.66 297.129 153.592C297.129 143.525 295.146 133.556 291.292 124.256C287.438 114.955 281.79 106.505 274.67 99.3876Z" stroke="#F7F9B3" stroke-width="4" stroke-linecap="round" stroke-linejoin="round"/>
<path d="M329.069 53.2056C318.808 42.9404 306.626 34.7973 293.218 29.2416C279.809 23.6858 265.438 20.8262 250.924 20.8262C236.41 20.8262 222.039 23.6858 208.63 29.2416C195.222 34.7973 183.04 42.9404 172.779 53.2056L158.556 67.4285C154.651 71.3337 148.319 71.3337 144.414 67.4285L130.191 53.2056C109.466 32.4803 81.3566 20.837 52.0466 20.837C22.7366 20.837 -5.3729 32.4803 -26.0982 53.2056C-46.8235 73.9309 -58.4668 102.04 -58.4668 131.35C-58.4668 160.66 -46.8235 188.77 -26.0982 209.495L-4.80424 230.789L144.414 380.008C148.319 383.913 154.651 383.913 158.556 380.008L307.775 230.789L329.069 209.495C339.334 199.235 347.477 187.052 353.033 173.644C358.589 160.236 361.448 145.864 361.448 131.35C361.448 116.837 358.589 102.465 353.033 89.0567C347.477 75.6483 339.334 63.466 329.069 53.2056Z" stroke="#F7F9B3" stroke-width="4" stroke-linecap="round" stroke-linejoin="round"/>
<path d="M408.871 -14.5334C394 -29.4114 376.343 -41.2136 356.909 -49.2659C337.476 -57.3182 316.646 -61.4628 295.611 -61.4628C274.575 -61.4628 253.745 -57.3182 234.312 -49.2659C214.878 -41.2136 197.222 -29.4114 182.351 -14.5334L158.559 9.2582C154.654 13.1634 148.322 13.1634 144.417 9.2582L120.625 -14.5334C90.5868 -44.5718 49.846 -61.4472 7.36525 -61.4472C-35.1155 -61.4472 -75.8563 -44.5718 -105.895 -14.5334C-135.933 15.5051 -152.809 56.2459 -152.809 98.7266C-152.809 141.207 -135.933 181.948 -105.895 211.987L-75.0321 242.849L144.417 462.298C148.322 466.203 154.654 466.203 158.559 462.298L378.008 242.849L408.871 211.987C423.749 197.116 435.551 179.459 443.603 160.025C451.655 140.592 455.8 119.762 455.8 98.7266C455.8 77.6909 451.655 56.8613 443.603 37.4278C435.551 17.9943 423.749 0.337644 408.871 -14.5334Z" stroke="#F7F9B3" stroke-width="4" stroke-linecap="round" stroke-linejoin="round"/>
<path d="M523.567 -111.904C502.068 -133.412 476.543 -150.474 448.449 -162.115C420.355 -173.756 390.242 -179.748 359.832 -179.748C329.421 -179.748 299.309 -173.756 271.215 -162.115C243.121 -150.474 217.595 -133.412 196.097 -111.904L158.551 -74.3581C154.646 -70.4529 148.314 -70.4529 144.409 -74.3581L106.863 -111.904C63.4382 -155.329 4.54095 -179.725 -56.8716 -179.725C-118.284 -179.725 -177.181 -155.329 -220.607 -111.904C-264.032 -68.4786 -288.428 -9.58139 -288.428 51.8311C-288.428 113.244 -264.032 172.141 -220.607 215.566L-175.99 260.183L144.409 580.582C148.314 584.487 154.646 584.487 158.551 580.582L478.95 260.183L523.567 215.566C545.075 194.068 562.137 168.542 573.778 140.448C585.419 112.354 591.41 82.2415 591.41 51.8311C591.41 21.4207 585.419 -8.6917 573.778 -36.7859C562.137 -64.8801 545.075 -90.4054 523.567 -111.904Z" stroke="#F7F9B3" stroke-width="4" stroke-linecap="round" stroke-linejoin="round"/>
<path d="M666.564 -233.292C636.803 -263.066 601.468 -286.685 562.577 -302.8C523.686 -318.915 482.001 -327.209 439.903 -327.209C397.806 -327.209 356.12 -318.915 317.229 -302.8C278.338 -286.685 243.003 -263.066 213.242 -233.292L158.55 -178.599C154.645 -174.694 148.313 -174.694 144.408 -178.599L89.7151 -233.292C29.601 -293.406 -51.9313 -327.178 -136.946 -327.178C-221.96 -327.178 -303.492 -293.406 -363.606 -233.292C-423.72 -173.178 -457.492 -91.6453 -457.492 -6.6311C-457.492 78.3831 -423.72 159.915 -363.606 220.03L-301.843 281.793L144.408 728.043C148.313 731.949 154.645 731.949 158.55 728.043L604.8 281.793L666.564 220.03C696.338 190.269 719.957 154.934 736.072 116.043C752.187 77.1516 760.481 35.4665 760.481 -6.6311C760.481 -48.7287 752.187 -90.4137 736.072 -129.305C719.957 -168.196 696.338 -203.531 666.564 -233.292Z" stroke="#F7F9B3" stroke-width="4" stroke-linecap="round" stroke-linejoin="round"/>
<path d="M806.673 -352.231C768.817 -390.105 723.87 -420.149 674.399 -440.647C624.929 -461.145 571.905 -471.695 518.356 -471.695C464.807 -471.695 411.783 -461.145 362.312 -440.647C312.842 -420.149 267.895 -390.105 230.039 -352.231L158.546 -280.737C154.64 -276.832 148.309 -276.832 144.403 -280.737L72.91 -352.231C-3.5564 -428.697 -107.267 -471.656 -215.407 -471.656C-323.547 -471.656 -427.257 -428.697 -503.724 -352.231C-580.19 -275.764 -623.148 -172.054 -623.148 -63.914C-623.148 44.2257 -580.19 147.936 -503.724 224.403L-425.159 302.967L144.403 872.53C148.309 876.435 154.64 876.435 158.546 872.53L728.108 302.967L806.673 224.403C844.546 186.547 874.59 141.6 895.088 92.1295C915.586 42.6591 926.137 -10.3651 926.137 -63.914C926.137 -117.463 915.586 -170.487 895.088 -219.958C874.59 -269.428 844.546 -314.375 806.673 -352.231Z" stroke="#F7F9B3" stroke-width="4" stroke-linecap="round" stroke-linejoin="round"/>
<path fill-rule="evenodd" clip-rule="evenodd" d="M172.704 314.762C165.422 315.486 158.746 314.726 154.064 312.322L155.646 309.242C159.498 311.22 165.416 312.007 172.362 311.317C179.265 310.631 186.995 308.503 194.349 304.862C209.064 297.577 222.053 284.371 224.197 264.806L227.638 265.183C225.33 286.253 211.321 300.323 195.885 307.964C188.164 311.786 180.031 314.034 172.704 314.762Z" fill="#7A1600"/>
<path d="M55.1465 208.211C55.1465 155.031 98.2574 111.92 151.438 111.92C204.618 111.92 247.729 155.031 247.729 208.211C247.729 210.536 247.646 212.841 247.484 215.124H238.417C238.522 213.37 238.575 211.603 238.575 209.822C238.575 161.697 199.562 122.684 151.437 122.684C103.312 122.684 64.2986 161.697 64.2986 209.822C64.2986 211.603 64.352 213.37 64.4572 215.124H55.3908C55.2288 212.841 55.1465 210.536 55.1465 208.211Z" fill="#7A1600"/>
<path d="M46.7134 239.224C49.461 259.215 67.7933 273.207 87.6596 270.476L77.7094 198.084C57.8431 200.814 43.9657 219.234 46.7134 239.224Z" fill="#FE6533"/>
<rect x="73.4004" y="190.779" width="26.6319" height="89.4757" rx="13.316" transform="rotate(-7.82613 73.4004 190.779)" fill="#7A1600"/>
<path d="M256.287 239.224C253.539 259.215 235.544 273.253 216.094 270.58L226.044 198.187C245.494 200.861 259.034 219.234 256.287 239.224Z" fill="#FE6533"/>
<rect width="26.6319" height="89.4757" rx="13.316" transform="matrix(-0.990686 -0.136167 -0.136167 0.990686 229.604 190.779)" fill="#7A1600"/>
<rect x="133.967" y="301.733" width="35.068" height="22.2661" rx="9.52004" fill="#7A1600"/>
<path d="M-25.6039 362.485C-25.6563 363.171 -25.8468 363.783 -26.1754 364.321C-26.504 364.859 -26.9636 365.281 -27.5542 365.585C-28.1448 365.89 -28.8639 366.043 -29.7117 366.043C-30.5737 366.043 -31.3215 365.843 -31.9549 365.443C-32.5883 365.038 -33.0765 364.464 -33.4194 363.721C-33.7623 362.978 -33.9338 362.104 -33.9338 361.099V360.306C-33.9338 359.296 -33.76 358.422 -33.4123 357.684C-33.0598 356.941 -32.5621 356.367 -31.9192 355.962C-31.2762 355.558 -30.5213 355.355 -29.6545 355.355C-28.8115 355.355 -28.1019 355.51 -27.5256 355.82C-26.9446 356.124 -26.4945 356.551 -26.1754 357.098C-25.8563 357.641 -25.6634 358.263 -25.5967 358.963H-27.497C-27.5637 358.31 -27.7566 357.806 -28.0757 357.448C-28.39 357.086 -28.9163 356.905 -29.6545 356.905C-30.1737 356.905 -30.6094 357.034 -30.9619 357.291C-31.3096 357.548 -31.5715 357.929 -31.7477 358.434C-31.9239 358.934 -32.0121 359.553 -32.0121 360.292V361.099C-32.0121 361.804 -31.9335 362.411 -31.7763 362.921C-31.6191 363.426 -31.3715 363.814 -31.0333 364.085C-30.6952 364.357 -30.2546 364.492 -29.7117 364.492C-29.2164 364.492 -28.8163 364.416 -28.5115 364.264C-28.2067 364.111 -27.9757 363.887 -27.8185 363.592C-27.6566 363.292 -27.5518 362.923 -27.5042 362.485H-25.6039ZM-22.4033 365.9H-24.2394V354.926H-22.4033V365.9ZM-23.2892 361.77C-23.2844 361.047 -23.1582 360.404 -22.9106 359.842C-22.6581 359.28 -22.3081 358.837 -21.8604 358.513C-21.4079 358.189 -20.8817 358.027 -20.2816 358.027C-19.772 358.027 -19.329 358.125 -18.9528 358.32C-18.5718 358.51 -18.2765 358.82 -18.0669 359.249C-17.8574 359.677 -17.7526 360.249 -17.7526 360.963V365.9H-19.5886V360.949C-19.5886 360.592 -19.641 360.311 -19.7458 360.106C-19.8458 359.896 -19.9958 359.746 -20.1958 359.656C-20.3911 359.565 -20.6316 359.52 -20.9174 359.52C-21.2222 359.52 -21.4865 359.577 -21.7104 359.692C-21.9342 359.806 -22.1223 359.965 -22.2747 360.17C-22.4224 360.375 -22.5343 360.613 -22.6105 360.885C-22.682 361.156 -22.7177 361.449 -22.7177 361.763L-23.2892 361.77ZM-11.7587 360.685C-11.7587 360.294 -11.8659 359.984 -12.0802 359.756C-12.2898 359.522 -12.6136 359.406 -13.0518 359.406C-13.3138 359.406 -13.5424 359.451 -13.7376 359.542C-13.9281 359.627 -14.0758 359.746 -14.1806 359.899C-14.2853 360.051 -14.3377 360.227 -14.3377 360.427H-16.1666C-16.1666 360.004 -16.0356 359.611 -15.7737 359.249C-15.507 358.882 -15.1331 358.587 -14.6521 358.363C-14.171 358.139 -13.6043 358.027 -12.9518 358.027C-12.366 358.027 -11.8469 358.127 -11.3944 358.327C-10.9372 358.522 -10.5776 358.818 -10.3157 359.213C-10.0537 359.608 -9.92273 360.104 -9.92273 360.699V364.085C-9.92273 364.461 -9.89654 364.788 -9.84415 365.064C-9.79176 365.335 -9.71794 365.573 -9.62268 365.778V365.9H-11.4873C-11.5778 365.709 -11.6468 365.464 -11.6945 365.164C-11.7373 364.864 -11.7587 364.569 -11.7587 364.278V360.685ZM-11.4944 362.306H-12.6803C-13.2899 362.306 -13.7472 362.423 -14.052 362.656C-14.3568 362.885 -14.5092 363.19 -14.5092 363.571C-14.5092 363.866 -14.4092 364.111 -14.2091 364.307C-14.0044 364.502 -13.7186 364.6 -13.3519 364.6C-13.009 364.6 -12.7113 364.53 -12.4589 364.392C-12.2064 364.254 -12.0088 364.088 -11.8659 363.892C-11.723 363.692 -11.6492 363.504 -11.6444 363.328L-11.0801 364.142C-11.142 364.333 -11.2396 364.538 -11.373 364.757C-11.5063 364.976 -11.6825 365.183 -11.9016 365.378C-12.1159 365.573 -12.3731 365.733 -12.6732 365.857C-12.9732 365.981 -13.3209 366.043 -13.7162 366.043C-14.2163 366.043 -14.6664 365.943 -15.0664 365.743C-15.4617 365.543 -15.7737 365.269 -16.0023 364.921C-16.2261 364.569 -16.3381 364.173 -16.3381 363.735C-16.3381 362.916 -16.0333 362.287 -15.4236 361.849C-14.8092 361.406 -13.9329 361.185 -12.7946 361.185H-11.4944V362.306ZM-4.55757 359.52H-8.96543V358.17H-4.55757V359.52ZM-5.91493 356.277V363.685C-5.91493 363.918 -5.8816 364.097 -5.81492 364.221C-5.74824 364.34 -5.65537 364.421 -5.5363 364.464C-5.41247 364.507 -5.26721 364.528 -5.10052 364.528C-4.98145 364.528 -4.86714 364.521 -4.7576 364.507C-4.64806 364.492 -4.56233 364.478 -4.50042 364.464V365.871C-4.64806 365.919 -4.81714 365.959 -5.00764 365.993C-5.19815 366.026 -5.41962 366.043 -5.67204 366.043C-6.07687 366.043 -6.43645 365.971 -6.75079 365.828C-7.06512 365.681 -7.3104 365.445 -7.48662 365.121C-7.65808 364.797 -7.7438 364.366 -7.7438 363.828V356.277H-5.91493ZM-0.36403 366.043C-1.07367 366.043 -1.67377 365.916 -2.16432 365.664C-2.65012 365.407 -3.01923 365.081 -3.27165 364.685C-3.51931 364.29 -3.64314 363.883 -3.64314 363.464H-1.88571C-1.86666 363.759 -1.78331 363.999 -1.63567 364.185C-1.48326 364.366 -1.29275 364.497 -1.06414 364.578C-0.830773 364.659 -0.587876 364.7 -0.335454 364.7C-0.0401674 364.7 0.207492 364.661 0.407525 364.585C0.607557 364.504 0.757582 364.397 0.857598 364.264C0.962377 364.126 1.01477 363.966 1.01477 363.785C1.01477 363.623 0.971903 363.478 0.886174 363.349C0.805209 363.221 0.645659 363.102 0.407525 362.992C0.174153 362.883 -0.171141 362.78 -0.628359 362.685C-1.1713 362.571 -1.64995 362.418 -2.06431 362.228C-2.47866 362.037 -2.8049 361.792 -3.04304 361.492C-3.27641 361.187 -3.3931 360.818 -3.3931 360.385C-3.3931 359.961 -3.27165 359.57 -3.02875 359.213C-2.78585 358.856 -2.43818 358.57 -1.98572 358.356C-1.53327 358.137 -0.997467 358.027 -0.378318 358.027C0.27417 358.027 0.833785 358.137 1.30053 358.356C1.77203 358.57 2.134 358.863 2.38642 359.234C2.63884 359.601 2.76505 360.02 2.76505 360.492H0.936182C0.936182 360.187 0.826641 359.925 0.607557 359.706C0.388474 359.482 0.0574676 359.37 -0.385462 359.37C-0.652172 359.37 -0.878399 359.413 -1.06414 359.499C-1.24989 359.584 -1.38801 359.699 -1.4785 359.842C-1.56899 359.98 -1.61423 360.132 -1.61423 360.299C-1.61423 360.461 -1.56899 360.604 -1.4785 360.727C-1.38324 360.847 -1.22369 360.954 -0.999848 361.049C-0.776002 361.139 -0.464046 361.228 -0.0639808 361.313C0.517066 361.432 1.02191 361.587 1.45055 361.778C1.88396 361.963 2.21734 362.211 2.45072 362.521C2.68885 362.825 2.80792 363.218 2.80792 363.699C2.80792 364.152 2.67694 364.557 2.415 364.914C2.15781 365.266 1.79108 365.543 1.31482 365.743C0.838547 365.943 0.278932 366.043 -0.36403 366.043Z" fill="#7A1600"/>
</g>
<defs>
<clipPath id="clip0_1007_3635">
<rect width="303" height="468" fill="white" transform="translate(0 0.952759)"/>
</clipPath>
</defs>
</svg>
