<svg width="303" height="469" viewBox="0 0 303 469" fill="none" xmlns="http://www.w3.org/2000/svg">
<g clip-path="url(#clip0_1007_3404)">
<path d="M374.565 254.711C374.565 257.565 373.265 260.529 370.421 263.598C367.567 266.678 363.262 269.745 357.548 272.728C346.124 278.693 329.462 284.125 308.705 288.708C267.223 297.869 209.82 303.552 146.348 303.552C82.8756 303.552 25.4728 297.869 -16.0088 288.708C-36.7659 284.125 -53.4279 278.693 -64.8519 272.728C-70.5661 269.745 -74.8714 266.678 -77.7249 263.598C-80.5688 260.529 -81.8691 257.565 -81.8691 254.711C-81.8691 251.858 -80.5688 248.894 -77.7249 245.825C-74.8714 242.745 -70.5661 239.678 -64.8519 236.695C-53.4279 230.73 -36.7659 225.298 -16.0088 220.714C25.4728 211.554 82.8756 205.87 146.348 205.87C209.82 205.87 267.223 211.554 308.705 220.714C329.462 225.298 346.124 230.73 357.548 236.695C363.262 239.678 367.567 242.745 370.421 245.825C373.265 248.894 374.565 251.858 374.565 254.711Z" stroke="#F7F9B3" stroke-width="4"/>
<path d="M214.664 261.681C214.664 262.211 214.386 262.855 213.574 263.611C212.763 264.367 211.51 265.143 209.806 265.911C206.402 267.444 201.415 268.85 195.174 270.039C182.709 272.415 165.445 273.89 146.347 273.89C127.249 273.89 109.986 272.415 97.5207 270.039C91.2798 268.85 86.2925 267.444 82.8892 265.911C81.1844 265.143 79.9322 264.367 79.121 263.611C78.309 262.855 78.0312 262.211 78.0312 261.681C78.0312 261.151 78.309 260.507 79.121 259.751C79.9322 258.995 81.1844 258.219 82.8892 257.451C86.2925 255.918 91.2798 254.512 97.5207 253.323C109.986 250.948 127.249 249.472 146.347 249.472C165.445 249.472 182.709 250.948 195.174 253.323C201.415 254.512 206.402 255.918 209.806 257.451C211.51 258.219 212.763 258.995 213.574 259.751C214.386 260.507 214.664 261.151 214.664 261.681Z" fill="#F7F9B3" stroke="#F7F9B3" stroke-width="2"/>
<path d="M533.045 223.361C533.045 237.218 522.908 250.889 503.402 263.692C483.978 276.442 455.738 288 420.664 297.738C350.542 317.205 253.557 329.271 146.349 329.271C39.1409 329.271 -57.8448 317.205 -127.966 297.738C-163.041 288 -191.28 276.442 -210.705 263.692C-230.21 250.889 -240.348 237.218 -240.348 223.361C-240.348 209.504 -230.21 195.833 -210.705 183.03C-191.28 170.28 -163.041 158.722 -127.966 148.984C-57.8448 129.517 39.1409 117.451 146.349 117.451C253.557 117.451 350.542 129.517 420.664 148.984C455.738 158.722 483.978 170.28 503.402 183.03C522.908 195.833 533.045 209.504 533.045 223.361Z" stroke="#F7F9B3" stroke-width="4"/>
<path d="M669.279 197.681C669.279 220.454 655.145 242.484 628.805 262.819C602.493 283.133 564.292 301.513 516.909 316.986C422.165 347.924 291.151 367.093 146.347 367.093C1.54233 367.093 -129.472 347.924 -224.216 316.986C-271.599 301.513 -309.799 283.133 -336.112 262.819C-362.452 242.484 -376.586 220.454 -376.586 197.681C-376.586 174.907 -362.452 152.878 -336.112 132.542C-309.799 112.228 -271.599 93.8478 -224.216 78.3753C-129.472 47.4374 1.54233 28.2687 146.347 28.2687C291.151 28.2687 422.165 47.4374 516.909 78.3753C564.292 93.8478 602.493 112.228 628.805 132.542C655.145 152.878 669.279 174.907 669.279 197.681Z" stroke="#F7F9B3" stroke-width="4"/>
<path d="M800.945 197.681C800.945 226.391 783.127 254.075 750.124 279.554C717.149 305.012 669.308 328.024 610.012 347.387C491.441 386.105 327.511 410.086 146.349 410.086C-34.8138 410.086 -198.744 386.105 -317.315 347.387C-376.611 328.024 -424.452 305.012 -457.427 279.554C-490.43 254.075 -508.248 226.391 -508.248 197.681C-508.248 168.971 -490.43 141.286 -457.427 115.807C-424.452 90.3496 -376.611 67.3369 -317.315 47.9742C-198.744 9.25603 -34.8138 -14.7249 146.349 -14.7249C327.511 -14.7249 491.441 9.25603 610.012 47.9742C669.308 67.3369 717.149 90.3496 750.124 115.807C783.127 141.286 800.945 168.971 800.945 197.681Z" stroke="#F7F9B3" stroke-width="4"/>
<path d="M138.141 41.1554C137.636 41.1554 137.141 41.0887 136.655 40.9553C136.169 40.8172 135.726 40.61 135.326 40.3338C134.931 40.0576 134.614 39.7123 134.376 39.2979C134.143 38.8788 134.026 38.3859 134.026 37.8191H135.933C135.933 38.1477 135.988 38.4287 136.098 38.6621C136.212 38.8907 136.369 39.0788 136.569 39.2265C136.769 39.3741 137.003 39.4813 137.269 39.548C137.536 39.6146 137.827 39.648 138.141 39.648C138.551 39.648 138.889 39.5908 139.155 39.4765C139.422 39.3622 139.622 39.205 139.755 39.005C139.894 38.805 139.963 38.574 139.963 38.312C139.963 38.0406 139.906 37.8096 139.791 37.6191C139.677 37.4238 139.463 37.2428 139.148 37.0761C138.839 36.9047 138.386 36.7284 137.791 36.5475C137.305 36.3998 136.853 36.2307 136.434 36.0402C136.019 35.8497 135.655 35.6283 135.34 35.3758C135.026 35.1234 134.781 34.8329 134.605 34.5043C134.433 34.1709 134.347 33.7851 134.347 33.3469C134.347 32.7802 134.505 32.2801 134.819 31.8467C135.138 31.4133 135.579 31.0751 136.141 30.8322C136.703 30.5894 137.35 30.4679 138.084 30.4679C138.865 30.4679 139.536 30.6108 140.098 30.8965C140.665 31.1775 141.101 31.5586 141.406 32.0396C141.711 32.5206 141.863 33.0588 141.863 33.6541H139.956C139.956 33.3303 139.886 33.0421 139.748 32.7897C139.615 32.5373 139.408 32.342 139.127 32.2039C138.851 32.061 138.496 31.9896 138.062 31.9896C137.658 31.9896 137.319 32.0491 137.048 32.1682C136.781 32.2872 136.581 32.4492 136.448 32.654C136.319 32.8588 136.255 33.0898 136.255 33.3469C136.255 33.5994 136.334 33.8208 136.491 34.0113C136.653 34.2018 136.895 34.3757 137.219 34.5329C137.543 34.6853 137.946 34.8353 138.427 34.9829C139.198 35.2068 139.839 35.4711 140.348 35.7759C140.858 36.076 141.239 36.4332 141.491 36.8475C141.744 37.2571 141.87 37.7405 141.87 38.2978C141.87 38.8883 141.715 39.3979 141.406 39.8266C141.101 40.2552 140.67 40.5838 140.113 40.8124C139.555 41.0411 138.898 41.1554 138.141 41.1554ZM147.571 35.7973C147.571 35.4068 147.464 35.0972 147.25 34.8686C147.04 34.6353 146.716 34.5186 146.278 34.5186C146.016 34.5186 145.787 34.5638 145.592 34.6543C145.402 34.74 145.254 34.8591 145.149 35.0115C145.044 35.1639 144.992 35.3401 144.992 35.5402H143.163C143.163 35.1163 143.294 34.7234 143.556 34.3614C143.823 33.9947 144.197 33.6994 144.678 33.4755C145.159 33.2517 145.726 33.1398 146.378 33.1398C146.964 33.1398 147.483 33.2398 147.935 33.4398C148.393 33.6351 148.752 33.9304 149.014 34.3257C149.276 34.721 149.407 35.2163 149.407 35.8116V39.1979C149.407 39.5742 149.433 39.9004 149.486 40.1766C149.538 40.4481 149.612 40.6862 149.707 40.891V41.0125H147.843C147.752 40.822 147.683 40.5767 147.635 40.2766C147.592 39.9766 147.571 39.6813 147.571 39.3908V35.7973ZM147.835 37.419H146.649C146.04 37.419 145.583 37.5357 145.278 37.7691C144.973 37.9977 144.821 38.3025 144.821 38.6835C144.821 38.9788 144.921 39.2241 145.121 39.4194C145.325 39.6146 145.611 39.7123 145.978 39.7123C146.321 39.7123 146.619 39.6432 146.871 39.5051C147.123 39.367 147.321 39.2003 147.464 39.005C147.607 38.805 147.681 38.6169 147.685 38.4406L148.25 39.2551C148.188 39.4456 148.09 39.6504 147.957 39.8694C147.823 40.0885 147.647 40.2957 147.428 40.491C147.214 40.6862 146.957 40.8458 146.657 40.9696C146.357 41.0934 146.009 41.1554 145.614 41.1554C145.114 41.1554 144.663 41.0553 144.263 40.8553C143.868 40.6553 143.556 40.3814 143.328 40.0338C143.104 39.6813 142.992 39.286 142.992 38.8478C142.992 38.0287 143.297 37.4 143.906 36.9618C144.521 36.5189 145.397 36.2974 146.535 36.2974H147.835V37.419ZM153.101 41.0125H151.265V30.0393H153.101V41.0125ZM158.394 41.1554C157.618 41.1554 156.949 40.991 156.387 40.6624C155.83 40.329 155.399 39.879 155.094 39.3122C154.794 38.7454 154.644 38.1144 154.644 37.419V37.1261C154.644 36.326 154.796 35.6283 155.101 35.0329C155.406 34.4328 155.825 33.9685 156.358 33.6398C156.892 33.3065 157.499 33.1398 158.18 33.1398C158.923 33.1398 159.54 33.3017 160.03 33.6256C160.526 33.9447 160.897 34.39 161.145 34.9615C161.392 35.5283 161.516 36.1855 161.516 36.9332V37.7191H155.508V36.4189H159.709V36.276C159.699 35.9807 159.642 35.7069 159.537 35.4544C159.433 35.202 159.268 34.9996 159.044 34.8472C158.825 34.69 158.535 34.6114 158.173 34.6114C157.797 34.6114 157.482 34.7162 157.23 34.9258C156.982 35.1353 156.794 35.4282 156.665 35.8045C156.542 36.1807 156.48 36.6213 156.48 37.1261V37.419C156.48 37.8477 156.558 38.2335 156.715 38.5764C156.877 38.9193 157.108 39.1908 157.408 39.3908C157.713 39.5861 158.078 39.6837 158.501 39.6837C158.906 39.6837 159.268 39.6051 159.587 39.4479C159.911 39.286 160.19 39.055 160.423 38.755L161.373 39.7194C161.13 40.0814 160.761 40.4124 160.266 40.7124C159.775 41.0077 159.152 41.1554 158.394 41.1554ZM165.724 41.1554C165.014 41.1554 164.414 41.0292 163.924 40.7767C163.438 40.5195 163.069 40.1933 162.816 39.798C162.569 39.4027 162.445 38.9955 162.445 38.5764H164.202C164.221 38.8717 164.305 39.1122 164.452 39.2979C164.605 39.4789 164.795 39.6099 165.024 39.6908C165.257 39.7718 165.5 39.8123 165.753 39.8123C166.048 39.8123 166.296 39.7742 166.496 39.698C166.696 39.617 166.846 39.5099 166.946 39.3765C167.05 39.2384 167.103 39.0788 167.103 38.8979C167.103 38.7359 167.06 38.5907 166.974 38.4621C166.893 38.3335 166.734 38.2144 166.496 38.1049C166.262 37.9953 165.917 37.8929 165.46 37.7977C164.917 37.6834 164.438 37.531 164.024 37.3405C163.609 37.1499 163.283 36.9047 163.045 36.6046C162.812 36.2998 162.695 35.9307 162.695 35.4973C162.695 35.0734 162.816 34.6829 163.059 34.3257C163.302 33.9685 163.65 33.6827 164.102 33.4684C164.555 33.2493 165.091 33.1398 165.71 33.1398C166.362 33.1398 166.922 33.2493 167.389 33.4684C167.86 33.6827 168.222 33.9756 168.474 34.3471C168.727 34.7138 168.853 35.133 168.853 35.6045H167.024C167.024 35.2996 166.915 35.0377 166.696 34.8186C166.477 34.5948 166.146 34.4828 165.703 34.4828C165.436 34.4828 165.21 34.5257 165.024 34.6114C164.838 34.6972 164.7 34.8115 164.61 34.9544C164.519 35.0925 164.474 35.2449 164.474 35.4116C164.474 35.5735 164.519 35.7164 164.61 35.8402C164.705 35.9593 164.864 36.0664 165.088 36.1617C165.312 36.2522 165.624 36.3403 166.024 36.426C166.605 36.5451 167.11 36.6999 167.539 36.8904C167.972 37.0761 168.305 37.3238 168.539 37.6334C168.777 37.9382 168.896 38.3311 168.896 38.8121C168.896 39.2646 168.765 39.6694 168.503 40.0266C168.246 40.379 167.879 40.6553 167.403 40.8553C166.927 41.0553 166.367 41.1554 165.724 41.1554Z" fill="#7A1600"/>
<rect x="112.484" y="52.0125" width="78.0318" height="78.0318" rx="7.31548" fill="#F7F9B3"/>
<path d="M153.338 72.4614H177.328C179.859 72.4614 181.132 75.5162 179.35 77.313L152.973 103.907C151.852 105.037 150.023 105.029 148.912 103.889L137.208 91.8731C136.134 90.7708 136.131 89.0147 137.2 87.9082L151.291 73.3297C151.828 72.7747 152.567 72.4614 153.338 72.4614Z" fill="#FE6533"/>
<path d="M147.757 72.4613H125.675C123.198 72.4613 121.903 75.4049 123.575 77.2311L151.104 107.284C152.2 108.48 154.07 108.521 155.217 107.374L166.849 95.7425C167.931 94.6604 167.964 92.9163 166.923 91.794L149.845 73.3727C149.306 72.7916 148.55 72.4613 147.757 72.4613Z" fill="#7A1600"/>
<path d="M145.574 79.2684L150.528 74.0627L155.436 79.3123L150.466 84.1205C149.118 85.4251 146.974 85.4112 145.642 84.0894C144.312 82.7686 144.281 80.6265 145.574 79.2684Z" fill="#FE6533"/>
<rect x="132.818" y="92.1991" width="6.77329" height="23.7348" rx="3.38665" transform="rotate(-42.8644 132.818 92.1991)" fill="#FE6533"/>
<circle cx="146.37" cy="173.863" r="13.1919" fill="#7A1600" stroke="#FEFFC7" stroke-width="0.691244"/>
<path d="M167.527 190.067C161.945 190.067 157.42 194.592 157.42 200.174L158.374 228.334C160.022 229.585 164.605 232.007 175.378 232.007C186.152 232.007 190.735 229.585 192.382 228.334C193.084 227.801 193.336 226.99 193.336 226.272V200.174C193.336 194.592 188.811 190.067 183.229 190.067H167.527Z" fill="#7A1600" stroke="#FEFFC7" stroke-width="1.7803"/>
<circle cx="175.379" cy="177.879" r="9.8827" fill="#7A1600"/>
<path d="M108.601 190.067C103.02 190.067 98.4946 194.592 98.4946 200.174L99.4487 228.334C101.096 229.585 105.679 232.007 116.453 232.007C127.226 232.007 131.809 229.585 133.456 228.334C134.158 227.801 134.41 226.99 134.41 226.272V200.174C134.41 194.592 129.886 190.067 124.304 190.067H108.601Z" fill="#7A1600" stroke="#FEFFC7" stroke-width="1.7803"/>
<circle cx="116.455" cy="177.879" r="9.8827" fill="#7A1600"/>
<path d="M134.178 188.957C127.983 188.957 122.961 193.979 122.961 200.174V236.731C122.961 237.671 123.283 238.807 124.255 239.613C126.326 241.333 132.219 244.724 146.371 244.724C160.524 244.724 166.417 241.333 168.488 239.614C169.46 238.807 169.782 237.671 169.782 236.731V200.174C169.782 193.979 164.76 188.957 158.565 188.957H146.371H134.178Z" fill="#7A1600" stroke="#FEFFC7" stroke-width="4"/>
<rect x="107.332" y="296.921" width="78.0318" height="78.0318" rx="7.31548" fill="#F7F9B3"/>
<g clip-path="url(#clip1_1007_3404)">
<rect x="123.809" y="341.961" width="44.8073" height="18.2535" rx="3.04812" fill="#7A1600"/>
<path d="M131.104 325.02L141.826 325.02" stroke="#FE6533" stroke-width="6.09623" stroke-linecap="round"/>
<path d="M160.874 322.739L152.355 314.208C150.436 312.286 147.15 313.645 147.15 316.362V333.583C147.15 336.313 150.464 337.667 152.375 335.717L160.893 327.026C162.063 325.833 162.054 323.921 160.874 322.739Z" fill="#7A1600"/>
<path d="M153.674 322.739L145.156 314.208C143.237 312.286 139.951 313.645 139.951 316.362V333.583C139.951 336.313 143.265 337.667 145.176 335.717L153.694 327.026C154.864 325.833 154.855 323.921 153.674 322.739Z" fill="#FE6533"/>
</g>
<path d="M112.314 395.953H110.413V385.551H112.314V395.953ZM116.5 391.588H111.835V390.059H116.5V391.588ZM117.079 387.087H111.835V385.551H117.079V387.087ZM117.658 392.017C117.658 391.264 117.8 390.593 118.086 390.002C118.372 389.412 118.782 388.945 119.315 388.602C119.853 388.254 120.501 388.08 121.258 388.08C122.025 388.08 122.68 388.254 123.223 388.602C123.766 388.945 124.178 389.412 124.459 390.002C124.744 390.593 124.887 391.264 124.887 392.017V392.167C124.887 392.915 124.744 393.586 124.459 394.181C124.178 394.772 123.766 395.239 123.223 395.582C122.685 395.925 122.034 396.096 121.272 396.096C120.51 396.096 119.86 395.925 119.322 395.582C118.784 395.239 118.372 394.772 118.086 394.181C117.8 393.586 117.658 392.915 117.658 392.167V392.017ZM119.486 392.167C119.486 392.614 119.548 393.026 119.672 393.403C119.796 393.774 119.989 394.072 120.251 394.296C120.513 394.515 120.853 394.624 121.272 394.624C121.692 394.624 122.032 394.515 122.294 394.296C122.556 394.072 122.746 393.774 122.866 393.403C122.989 393.026 123.051 392.614 123.051 392.167V392.017C123.051 391.574 122.989 391.167 122.866 390.795C122.746 390.419 122.554 390.119 122.287 389.895C122.025 389.666 121.682 389.552 121.258 389.552C120.844 389.552 120.506 389.666 120.244 389.895C119.982 390.119 119.789 390.419 119.665 390.795C119.546 391.167 119.486 391.574 119.486 392.017V392.167ZM128.116 395.953H126.288V388.223H128.024L128.116 389.781V395.953ZM130.438 389.916C130.329 389.897 130.21 389.883 130.081 389.874C129.957 389.864 129.836 389.859 129.717 389.859C129.331 389.859 129.009 389.928 128.752 390.066C128.495 390.2 128.3 390.395 128.166 390.652C128.038 390.905 127.962 391.207 127.938 391.56L127.531 391.531C127.531 390.878 127.616 390.293 127.788 389.774C127.959 389.25 128.214 388.838 128.552 388.538C128.895 388.233 129.321 388.08 129.831 388.08C129.931 388.08 130.043 388.09 130.167 388.109C130.291 388.123 130.386 388.145 130.452 388.173L130.438 389.916ZM135.532 388.223H136.696L136.382 390.188L134.617 395.953H133.596L133.782 394.139L135.532 388.223ZM134.167 394.153L134.26 395.953H133.103L131.045 388.223H132.824L134.167 394.153ZM139.597 388.223H141.376L139.318 395.953H138.161L138.297 394.081L139.597 388.223ZM138.625 394.081L138.825 395.953H137.797L136.018 390.188L135.71 388.223H136.889L138.625 394.081ZM146.805 390.738C146.805 390.347 146.698 390.038 146.484 389.809C146.274 389.576 145.95 389.459 145.512 389.459C145.25 389.459 145.022 389.504 144.826 389.595C144.636 389.681 144.488 389.8 144.383 389.952C144.279 390.105 144.226 390.281 144.226 390.481H142.397C142.397 390.057 142.528 389.664 142.79 389.302C143.057 388.935 143.431 388.64 143.912 388.416C144.393 388.192 144.96 388.08 145.612 388.08C146.198 388.08 146.717 388.18 147.169 388.38C147.627 388.576 147.986 388.871 148.248 389.266C148.51 389.662 148.641 390.157 148.641 390.752V394.139C148.641 394.515 148.667 394.841 148.72 395.117C148.772 395.389 148.846 395.627 148.941 395.832V395.953H147.077C146.986 395.763 146.917 395.517 146.869 395.217C146.827 394.917 146.805 394.622 146.805 394.331V390.738ZM147.069 392.36H145.884C145.274 392.36 144.817 392.476 144.512 392.71C144.207 392.938 144.055 393.243 144.055 393.624C144.055 393.919 144.155 394.165 144.355 394.36C144.56 394.555 144.845 394.653 145.212 394.653C145.555 394.653 145.853 394.584 146.105 394.446C146.357 394.308 146.555 394.141 146.698 393.946C146.841 393.746 146.915 393.557 146.919 393.381L147.484 394.196C147.422 394.386 147.324 394.591 147.191 394.81C147.058 395.029 146.881 395.236 146.662 395.432C146.448 395.627 146.191 395.786 145.891 395.91C145.591 396.034 145.243 396.096 144.848 396.096C144.348 396.096 143.898 395.996 143.497 395.796C143.102 395.596 142.79 395.322 142.562 394.974C142.338 394.622 142.226 394.227 142.226 393.788C142.226 392.969 142.531 392.341 143.14 391.902C143.755 391.46 144.631 391.238 145.769 391.238H147.069V392.36ZM152.22 395.953H150.391V388.223H152.127L152.22 389.781V395.953ZM154.542 389.916C154.433 389.897 154.314 389.883 154.185 389.874C154.061 389.864 153.94 389.859 153.821 389.859C153.435 389.859 153.113 389.928 152.856 390.066C152.599 390.2 152.404 390.395 152.27 390.652C152.142 390.905 152.066 391.207 152.042 391.56L151.634 391.531C151.634 390.878 151.72 390.293 151.892 389.774C152.063 389.25 152.318 388.838 152.656 388.538C152.999 388.233 153.425 388.08 153.935 388.08C154.035 388.08 154.147 388.09 154.271 388.109C154.394 388.123 154.49 388.145 154.556 388.173L154.542 389.916ZM158.307 396.096C157.683 396.096 157.145 395.927 156.692 395.589C156.24 395.246 155.892 394.779 155.649 394.189C155.407 393.598 155.285 392.926 155.285 392.174V392.024C155.285 391.243 155.407 390.557 155.649 389.966C155.892 389.371 156.24 388.909 156.692 388.58C157.145 388.247 157.688 388.08 158.321 388.08C158.945 388.08 159.464 388.245 159.879 388.573C160.298 388.897 160.626 389.347 160.865 389.924C161.107 390.495 161.269 391.157 161.35 391.91V392.331C161.269 393.055 161.11 393.7 160.872 394.267C160.634 394.834 160.305 395.282 159.886 395.61C159.467 395.934 158.94 396.096 158.307 396.096ZM158.771 394.596C159.152 394.596 159.464 394.512 159.707 394.346C159.955 394.179 160.145 393.953 160.279 393.667C160.417 393.381 160.51 393.057 160.557 392.695V391.552C160.529 391.267 160.472 391.002 160.386 390.759C160.305 390.517 160.193 390.307 160.05 390.131C159.912 389.955 159.738 389.819 159.529 389.724C159.319 389.624 159.071 389.574 158.786 389.574C158.386 389.574 158.062 389.683 157.814 389.902C157.571 390.121 157.393 390.417 157.278 390.788C157.169 391.159 157.114 391.571 157.114 392.024V392.174C157.114 392.622 157.169 393.029 157.278 393.396C157.388 393.762 157.564 394.055 157.807 394.274C158.05 394.489 158.371 394.596 158.771 394.596ZM160.45 395.953L160.272 394.317V384.98H162.108V395.953H160.45ZM164.908 385.244C165.232 385.244 165.487 385.337 165.673 385.523C165.858 385.704 165.951 385.932 165.951 386.209C165.951 386.485 165.858 386.716 165.673 386.902C165.487 387.083 165.232 387.173 164.908 387.173C164.584 387.173 164.329 387.083 164.144 386.902C163.963 386.716 163.872 386.485 163.872 386.209C163.872 385.932 163.963 385.704 164.144 385.523C164.329 385.337 164.584 385.244 164.908 385.244ZM165.83 395.953H163.994V388.223H165.83V395.953ZM169.495 395.953H167.666V388.223H169.387L169.495 389.874V395.953ZM168.616 391.824C168.621 391.071 168.749 390.417 169.002 389.859C169.259 389.297 169.618 388.861 170.08 388.552C170.542 388.238 171.081 388.08 171.695 388.08C172.19 388.08 172.621 388.176 172.988 388.366C173.355 388.552 173.638 388.857 173.838 389.281C174.043 389.704 174.145 390.274 174.145 390.988V395.953H172.309V390.974C172.309 390.621 172.259 390.343 172.159 390.138C172.059 389.933 171.909 389.788 171.709 389.702C171.514 389.616 171.273 389.574 170.988 389.574C170.697 389.574 170.44 389.631 170.216 389.745C169.997 389.859 169.809 390.019 169.652 390.224C169.499 390.428 169.383 390.667 169.302 390.938C169.225 391.209 169.187 391.502 169.187 391.817L168.616 391.824ZM178.868 398.996C178.567 398.996 178.236 398.954 177.874 398.868C177.517 398.787 177.17 398.654 176.831 398.468C176.498 398.282 176.217 398.042 175.988 397.746L176.831 396.639C177.098 396.949 177.396 397.18 177.724 397.332C178.058 397.484 178.408 397.561 178.775 397.561C179.346 397.561 179.794 397.403 180.118 397.089C180.442 396.779 180.604 396.332 180.604 395.746V389.988L180.782 388.223H182.44V395.717C182.44 396.417 182.29 397.013 181.989 397.503C181.689 397.994 181.27 398.365 180.732 398.618C180.194 398.87 179.572 398.996 178.868 398.996ZM178.639 396.096C178.005 396.096 177.458 395.927 176.996 395.589C176.534 395.246 176.177 394.779 175.924 394.189C175.672 393.598 175.546 392.926 175.546 392.174V392.024C175.546 391.243 175.669 390.557 175.917 389.966C176.169 389.371 176.529 388.909 176.996 388.58C177.463 388.247 178.015 388.08 178.653 388.08C179.163 388.08 179.594 388.173 179.946 388.359C180.303 388.545 180.599 388.809 180.832 389.152C181.065 389.49 181.249 389.895 181.382 390.366C181.516 390.833 181.616 391.348 181.682 391.91V392.331C181.597 393.055 181.437 393.7 181.204 394.267C180.97 394.834 180.644 395.282 180.225 395.61C179.811 395.934 179.282 396.096 178.639 396.096ZM179.103 394.596C179.499 394.596 179.82 394.512 180.068 394.346C180.315 394.179 180.508 393.953 180.646 393.667C180.784 393.381 180.877 393.057 180.925 392.695V391.552C180.896 391.267 180.842 391.002 180.761 390.759C180.68 390.517 180.565 390.307 180.418 390.131C180.275 389.955 180.094 389.819 179.875 389.724C179.661 389.624 179.408 389.574 179.118 389.574C178.717 389.574 178.389 389.683 178.132 389.902C177.874 390.121 177.684 390.417 177.56 390.788C177.436 391.159 177.374 391.571 177.374 392.024V392.174C177.374 392.622 177.434 393.029 177.553 393.396C177.677 393.762 177.865 394.055 178.117 394.274C178.375 394.489 178.703 394.596 179.103 394.596Z" fill="#7A1600"/>
</g>
<defs>
<clipPath id="clip0_1007_3404">
<rect width="303" height="468" fill="white" transform="translate(0 0.952759)"/>
</clipPath>
<clipPath id="clip1_1007_3404">
<rect width="48.7699" height="48.7699" fill="white" transform="translate(121.963 311.552)"/>
</clipPath>
</defs>
</svg>
