<svg width="141" height="28" viewBox="0 0 141 28" fill="none" xmlns="http://www.w3.org/2000/svg">
<path d="M132.74 22.9091C131.737 22.9091 130.783 22.8087 129.879 22.608C128.976 22.4072 128.173 22.0893 127.47 21.6543C126.784 21.2026 126.24 20.6421 125.839 19.9729C125.454 19.2869 125.262 18.4588 125.262 17.4884C125.262 17.4047 125.262 17.3211 125.262 17.2374C125.262 17.137 125.27 17.0617 125.287 17.0116H129.001C128.984 17.0617 128.976 17.1287 128.976 17.2123C128.976 17.296 128.976 17.3713 128.976 17.4382C128.976 17.9736 129.118 18.4253 129.403 18.7934C129.704 19.1614 130.139 19.4375 130.708 19.6215C131.276 19.8056 131.937 19.8976 132.69 19.8976C133.175 19.8976 133.602 19.8725 133.97 19.8223C134.355 19.7554 134.69 19.6717 134.974 19.5714C135.275 19.4542 135.518 19.3204 135.702 19.1698C135.902 19.0192 136.045 18.8436 136.128 18.6428C136.229 18.442 136.279 18.2162 136.279 17.9652C136.279 17.5135 136.128 17.1454 135.827 16.861C135.543 16.5766 135.141 16.334 134.623 16.1332C134.121 15.9324 133.552 15.7484 132.916 15.5811C132.28 15.4138 131.628 15.2465 130.959 15.0792C130.289 14.8951 129.637 14.6776 129.001 14.4267C128.365 14.159 127.796 13.8411 127.295 13.473C126.793 13.1049 126.391 12.6365 126.09 12.0676C125.789 11.4988 125.638 10.8128 125.638 10.0098C125.638 9.1565 125.814 8.42035 126.165 7.80131C126.533 7.18228 127.044 6.67199 127.696 6.27046C128.349 5.86892 129.101 5.57613 129.955 5.39209C130.808 5.19133 131.737 5.09094 132.74 5.09094C133.677 5.09094 134.564 5.19133 135.401 5.39209C136.237 5.57613 136.973 5.87728 137.609 6.29555C138.245 6.71382 138.738 7.24084 139.09 7.8766C139.458 8.51237 139.642 9.26525 139.642 10.1352V10.4364H136.003V10.2356C136.003 9.7839 135.869 9.39909 135.601 9.08121C135.334 8.76333 134.957 8.51237 134.472 8.32833C133.987 8.14429 133.418 8.05227 132.765 8.05227C132.063 8.05227 131.46 8.1192 130.959 8.25304C130.473 8.38689 130.097 8.58766 129.829 8.85535C129.578 9.10631 129.453 9.40746 129.453 9.7588C129.453 10.1603 129.595 10.495 129.879 10.7626C130.181 11.0136 130.582 11.2395 131.084 11.4402C131.603 11.6243 132.18 11.7916 132.816 11.9422C133.451 12.0927 134.104 12.26 134.773 12.4441C135.442 12.6281 136.095 12.8456 136.731 13.0966C137.366 13.3475 137.935 13.6654 138.437 14.0502C138.939 14.4183 139.341 14.8784 139.642 15.4305C139.943 15.9826 140.094 16.6435 140.094 17.4131C140.094 18.7348 139.776 19.7972 139.14 20.6003C138.504 21.4034 137.634 21.9889 136.53 22.357C135.426 22.7251 134.162 22.9091 132.74 22.9091Z" fill="#141414"/>
<path d="M113.091 22.6081V8.52922H107.57V5.39221H122.402V8.52922H116.856V22.6081H113.091Z" fill="#141414"/>
<path d="M88.8145 22.6081V5.39221H92.2526L99.1792 14.6777C99.2796 14.7949 99.405 14.9622 99.5556 15.1797C99.7062 15.3804 99.8484 15.5812 99.9823 15.782C100.116 15.9827 100.208 16.1417 100.258 16.2588H100.384C100.384 15.9744 100.384 15.6983 100.384 15.4306C100.384 15.1462 100.384 14.8952 100.384 14.6777V5.39221H103.922V22.6081H100.484L93.4071 13.0967C93.2398 12.8625 93.0641 12.6031 92.88 12.3187C92.696 12.0343 92.5622 11.8168 92.4785 11.6662H92.353C92.353 11.9172 92.353 12.1681 92.353 12.4191C92.353 12.6533 92.353 12.8792 92.353 13.0967V22.6081H88.8145Z" fill="#141414"/>
<path d="M65.8164 22.6078V5.39197H71.5132L73.9727 14.2007C74.073 14.5186 74.1734 14.895 74.2738 15.33C74.3742 15.765 74.4746 16.2 74.575 16.635C74.6921 17.0533 74.7841 17.4297 74.851 17.7643H75.0518C75.0853 17.4799 75.1438 17.1453 75.2275 16.7605C75.3111 16.3589 75.4031 15.9323 75.5035 15.4806C75.6039 15.0288 75.7127 14.5938 75.8298 14.1756L78.2892 5.39197H83.8857V22.6078H80.1965V14.4516C80.1965 13.6988 80.1965 12.9459 80.1965 12.193C80.2132 11.4234 80.23 10.7542 80.2467 10.1853C80.2802 9.61647 80.2969 9.24839 80.2969 9.08108H80.0961C80.0627 9.26512 79.979 9.6081 79.8452 10.11C79.728 10.5952 79.5942 11.1139 79.4436 11.666C79.3098 12.2181 79.1843 12.6949 79.0672 13.0965L76.3819 22.6078H73.1194L70.409 13.1215C70.3086 12.7702 70.1915 12.3603 70.0577 11.8918C69.9405 11.4067 69.8234 10.9131 69.7063 10.4112C69.6059 9.89252 69.5055 9.44916 69.4052 9.08108H69.2044C69.2211 9.53281 69.2379 10.0766 69.2546 10.7123C69.2713 11.3314 69.288 11.9755 69.3048 12.6447C69.3215 13.2972 69.3299 13.8995 69.3299 14.4516V22.6078H65.8164Z" fill="#141414"/>
<path d="M47.6211 22.6078V5.39197H56.5804C57.8185 5.39197 58.8474 5.6262 59.6673 6.09466C60.5038 6.54639 61.1312 7.19052 61.5495 8.02705C61.9845 8.84686 62.202 9.8256 62.202 10.9633C62.202 12.101 61.9761 13.0965 61.5244 13.9497C61.0894 14.7863 60.4452 15.4387 59.592 15.9072C58.7387 16.3757 57.693 16.6099 56.4549 16.6099H51.3604V22.6078H47.6211ZM51.3604 13.5482H55.953C56.7394 13.5482 57.3417 13.3223 57.7599 12.8706C58.1949 12.4189 58.4124 11.7915 58.4124 10.9884C58.4124 10.4363 58.3204 9.97618 58.1364 9.6081C57.9524 9.24003 57.6763 8.9556 57.3082 8.75484C56.9569 8.55407 56.5051 8.45369 55.953 8.45369H51.3604V13.5482Z" fill="#141414"/>
<path d="M38.959 22.6081V5.39221H42.6983V22.6081H38.959Z" fill="#141414"/>
<path d="M18.9238 22.6081V5.39221H22.6632V12.2183H30.2924V5.39221H34.0317V22.6081H30.2924V15.3804H22.6632V22.6081H18.9238Z" fill="#141414"/>
<path d="M7.47866 22.9091C6.47481 22.9091 5.52116 22.8087 4.61769 22.608C3.71423 22.4072 2.91116 22.0893 2.20846 21.6543C1.5225 21.2026 0.978751 20.6421 0.577212 19.9729C0.192404 19.2869 0 18.4588 0 17.4884C0 17.4047 0 17.3211 0 17.2374C0 17.137 0.00836539 17.0617 0.0250962 17.0116H3.73933C3.7226 17.0617 3.71423 17.1287 3.71423 17.2123C3.71423 17.296 3.71423 17.3713 3.71423 17.4382C3.71423 17.9736 3.85644 18.4253 4.14087 18.7934C4.44202 19.1614 4.87702 19.4375 5.44587 19.6215C6.01471 19.8056 6.67558 19.8976 7.42847 19.8976C7.91366 19.8976 8.34029 19.8725 8.70837 19.8223C9.09318 19.7554 9.42779 19.6717 9.71222 19.5714C10.0134 19.4542 10.256 19.3204 10.44 19.1698C10.6408 19.0192 10.783 18.8436 10.8666 18.6428C10.967 18.442 11.0172 18.2162 11.0172 17.9652C11.0172 17.5135 10.8666 17.1454 10.5655 16.861C10.2811 16.5766 9.87953 16.334 9.36087 16.1332C8.85895 15.9324 8.2901 15.7484 7.65433 15.5811C7.01856 15.4138 6.36606 15.2465 5.69683 15.0792C5.0276 14.8951 4.3751 14.6776 3.73933 14.4267C3.10356 14.159 2.53471 13.8411 2.03279 13.473C1.53087 13.1049 1.12933 12.6365 0.828174 12.0676C0.52702 11.4988 0.376443 10.8128 0.376443 10.0098C0.376443 9.1565 0.552116 8.42035 0.903462 7.80131C1.27154 7.18228 1.78183 6.67199 2.43433 6.27046C3.08683 5.86892 3.83971 5.57613 4.69298 5.39209C5.54625 5.19133 6.47481 5.09094 7.47866 5.09094C8.41558 5.09094 9.30231 5.19133 10.1389 5.39209C10.9754 5.57613 11.7115 5.87728 12.3473 6.29555C12.9831 6.71382 13.4766 7.24084 13.828 7.8766C14.1961 8.51237 14.3801 9.26525 14.3801 10.1352V10.4364H10.7412V10.2356C10.7412 9.7839 10.6073 9.39909 10.3396 9.08121C10.0719 8.76333 9.69549 8.51237 9.21029 8.32833C8.7251 8.14429 8.15625 8.05227 7.50375 8.05227C6.80106 8.05227 6.19875 8.1192 5.69683 8.25304C5.21164 8.38689 4.8352 8.58766 4.5675 8.85535C4.31654 9.10631 4.19106 9.40746 4.19106 9.7588C4.19106 10.1603 4.33327 10.495 4.61769 10.7626C4.91885 11.0136 5.32039 11.2395 5.82231 11.4402C6.34097 11.6243 6.91818 11.7916 7.55395 11.9422C8.18972 12.0927 8.84222 12.26 9.51145 12.4441C10.1807 12.6281 10.8332 12.8456 11.4689 13.0966C12.1047 13.3475 12.6736 13.6654 13.1755 14.0502C13.6774 14.4183 14.079 14.8784 14.3801 15.4305C14.6813 15.9826 14.8318 16.6435 14.8318 17.4131C14.8318 18.7348 14.514 19.7972 13.8782 20.6003C13.2424 21.4034 12.3724 21.9889 11.2682 22.357C10.1639 22.7251 8.90077 22.9091 7.47866 22.9091Z" fill="#141414"/>
</svg>
